<?xml version="1.0" encoding="utf-8"?>
<!-- Generator: Adobe Illustrator 16.0.0, SVG Export Plug-In . SVG Version: 6.00 Build 0)  -->
<!DOCTYPE svg PUBLIC "-//W3C//DTD SVG 1.1//EN" "http://www.w3.org/Graphics/SVG/1.1/DTD/svg11.dtd">
<svg version="1.1" id="Layer_1" xmlns="http://www.w3.org/2000/svg" xmlns:xlink="http://www.w3.org/1999/xlink" x="0px" y="0px"
	 width="65px" height="65px" viewBox="-16.5 -16.5 65 65" enable-background="new -16.5 -16.5 65 65" xml:space="preserve">
<g>
	<circle fill="#8DC351" cx="16.25" cy="15.5" r="31"/>
	<path fill="#FFFFFF" d="M26.34,4.91c-1.504-3.821-5.276-4.167-9.665-3.313l-1.563-5.451l-3.318,0.952l1.522,5.309
		c-0.87,0.248-1.757,0.523-2.64,0.794L9.145-2.143L5.83-1.194l1.559,5.451C6.677,4.478,5.975,4.694,5.288,4.892L5.282,4.874
		L0.706,6.185L1.723,9.73c0,0,2.437-0.752,2.409-0.693c1.344-0.386,2.005,0.269,2.324,0.905l1.783,6.208
		c0.091-0.025,0.213-0.056,0.356-0.078l-0.35,0.101l2.493,8.699c0.062,0.439,0.008,1.187-0.93,1.458
		c0.052,0.025-2.414,0.688-2.414,0.688l0.478,4.151l4.317-1.237c0.804-0.227,1.599-0.44,2.375-0.659l1.582,5.512l3.314-0.951
		l-1.564-5.454c0.89-0.233,1.774-0.48,2.659-0.733l1.552,5.429l3.319-0.95l-1.576-5.503c5.485-1.92,8.985-4.445,7.971-9.823
		c-0.82-4.329-3.341-5.643-6.728-5.495c1.644-1.53,2.351-3.6,1.246-6.393V4.91z M25.078,18.027c1.183,4.121-6.005,5.674-8.254,6.318
		l-2.094-7.303C16.978,16.398,23.845,13.731,25.078,18.027L25.078,18.027z M20.579,8.165c1.074,3.749-4.933,4.997-6.807,5.534
		l-1.898-6.623C13.745,6.539,19.459,4.257,20.579,8.165L20.579,8.165z"/>
</g>
</svg>
