<svg xmlns="http://www.w3.org/2000/svg" width="24" height="24" viewBox="0 0 24 24">
  <g id="bnb" transform="translate(-0.455 -0.103)">
    <circle id="Ellipse_24" data-name="Ellipse 24" cx="12" cy="12" r="12" transform="translate(0.455 0.103)" fill="#f3ba2f"/>
    <path id="Path_1288" data-name="Path 1288" d="M10.627,12.357l2.938-2.938,2.94,2.94,1.71-1.71L13.565,6,8.917,10.648ZM6,13.565l1.71-1.71,1.71,1.71-1.71,1.71Zm4.627,1.207,2.938,2.938,2.94-2.94,1.71,1.709-4.649,4.65L8.917,16.482l0,0,1.712-1.707Zm7.084-1.207,1.71-1.71,1.71,1.71-1.71,1.71Zm-2.412,0h0v0L13.565,15.3l-1.733-1.732,0,0,0,0,.3-.3.148-.148,1.282-1.281L15.3,13.564Z" transform="translate(-1.461 -1.461)" fill="#fff"/>
  </g>
</svg>
