<svg xmlns="http://www.w3.org/2000/svg" width="24" height="24" viewBox="0 0 24 24">
  <g id="btc" transform="translate(0.248 -0.103)">
    <circle id="Ellipse_29" data-name="Ellipse 29" cx="12" cy="12" r="12" transform="translate(-0.248 0.103)" fill="#f7931a"/>
    <path id="Path_1299" data-name="Path 1299" d="M19.528,12.067c.238-1.586-.971-2.438-2.621-3.007l.536-2.148-1.307-.325-.522,2.092c-.343-.086-.7-.166-1.048-.247l.526-2.105L13.784,6l-.536,2.148c-.284-.065-.564-.129-.835-.2l0-.007-1.8-.45-.348,1.4s.971.222.95.236a.7.7,0,0,1,.609.761l-.61,2.447a1.163,1.163,0,0,1,.136.043l-.138-.034-.855,3.428a.477.477,0,0,1-.6.31c.014.019-.95-.237-.95-.237l-.649,1.5,1.7.424c.316.079.626.163.931.241l-.541,2.173,1.306.325.536-2.148c.357.1.7.185,1.042.27L12.6,20.766l1.307.325.541-2.168c2.23.422,3.906.252,4.612-1.765a2.294,2.294,0,0,0-1.2-3.171,2.084,2.084,0,0,0,1.67-1.92ZM16.54,16.256c-.4,1.624-3.138.746-4.024.526l.719-2.878C14.121,14.125,16.963,14.563,16.54,16.256Zm.4-4.213c-.368,1.477-2.644.726-3.381.542l.651-2.61C14.952,10.16,17.329,10.5,16.945,12.043Z" transform="translate(-1.986 -1.461)" fill="#fff"/>
  </g>
</svg>
