<svg width="32" height="32" viewBox="0 0 32 32" fill="none" xmlns="http://www.w3.org/2000/svg">
<path d="M16 32C24.8366 32 32 24.8366 32 16C32 7.16344 24.8366 0 16 0C7.16344 0 0 7.16344 0 16C0 24.8366 7.16344 32 16 32Z" fill="#F0B90B"/>
<path d="M16 5L18.7254 7.78269L11.8627 14.6248L9.13733 11.9076L16 5Z" fill="white" stroke="#F0B90B"/>
<path d="M20.1373 9.12494L22.8627 11.9076L11.8627 22.8747L9.13733 20.1575L20.1373 9.12494Z" fill="white" stroke="#F0B90B"/>
<path d="M7.72537 13.2498L10.4507 16.0325L7.72537 18.7497L5 16.0325L7.72537 13.2498Z" fill="white" stroke="#F0B90B"/>
<path d="M24.2746 13.2498L27 16.0325L16 26.9996L13.2746 24.2824L24.2746 13.2498Z" fill="white" stroke="#F0B90B"/>
</svg>
