<svg width="32" height="32" viewBox="0 0 32 32" fill="none" xmlns="http://www.w3.org/2000/svg">
<path d="M16 0C24.8374 0 32 7.16407 32 16C32 24.8374 24.8374 32 16 32C7.16407 32 0 24.8366 0 16C0 7.16407 7.16407 0 16 0Z" fill="#F5AC37"/>
<path d="M16.5897 17.1297H22.6694C22.799 17.1297 22.8602 17.1297 22.8696 16.9598C22.9193 16.3413 22.9193 15.7192 22.8696 15.1C22.8696 14.9798 22.8098 14.9301 22.6795 14.9301H10.5798C10.43 14.9301 10.3897 14.9798 10.3897 15.1202V16.9C10.3897 17.1297 10.3897 17.1297 10.6295 17.1297H16.5897V17.1297ZM22.1906 12.85C22.2079 12.8046 22.2079 12.7549 22.1906 12.7103C22.0891 12.4893 21.9689 12.2783 21.8292 12.0803C21.6189 11.7419 21.3712 11.4301 21.089 11.15C20.9558 10.9808 20.8017 10.8289 20.6289 10.7C19.7635 9.96347 18.7346 9.44218 17.6287 9.1801C17.0706 9.05482 16.5004 8.99506 15.9287 9.0001H10.5589C10.4091 9.0001 10.389 9.05986 10.389 9.19018V12.7398C10.389 12.8896 10.389 12.9299 10.5791 12.9299H22.1186C22.1186 12.9299 22.2187 12.9097 22.2389 12.85H22.1899H22.1906ZM22.1906 19.2098C22.0207 19.1911 21.8493 19.1911 21.6794 19.2098H10.5899C10.4401 19.2098 10.3897 19.2098 10.3897 19.41V22.8804C10.3897 23.0402 10.3897 23.0806 10.5899 23.0806H15.7098C15.9546 23.0993 16.1994 23.082 16.4392 23.0309C17.1822 22.9776 17.9131 22.8163 18.61 22.5506C18.8635 22.4628 19.1083 22.3483 19.3394 22.2108H19.4092C20.6095 21.5865 21.5844 20.6059 22.1993 19.402C22.1993 19.402 22.2691 19.2508 22.1906 19.2112V19.2098ZM8.38016 24.8799V24.8201V22.4902V21.7003V19.3502C8.38016 19.2199 8.38016 19.2004 8.22032 19.2004H6.05022C5.92998 19.2004 5.88029 19.2004 5.88029 19.0406V17.1405H8.20016C8.32976 17.1405 8.38016 17.1405 8.38016 16.9706V15.0906C8.38016 14.9704 8.38016 14.9409 8.22032 14.9409H6.05022C5.92998 14.9409 5.88029 14.9409 5.88029 14.781V13.0213C5.88029 12.9112 5.88029 12.8817 6.04014 12.8817H8.19008C8.33984 12.8817 8.38016 12.8817 8.38016 12.6916V7.3016C8.38016 7.14176 8.38016 7.10144 8.58032 7.10144H16.0799C16.6242 7.12304 17.165 7.1828 17.6999 7.28144C18.8023 7.4852 19.8614 7.87905 20.8298 8.44137C21.472 8.81938 22.0632 9.27586 22.5895 9.80147C22.9855 10.2126 23.3426 10.6576 23.6594 11.1313C23.9741 11.6116 24.2354 12.1249 24.4406 12.6613C24.4658 12.801 24.5998 12.8953 24.7394 12.8716H26.5294C26.7591 12.8716 26.7591 12.8716 26.7691 13.0919V14.7321C26.7691 14.8919 26.7094 14.9322 26.5488 14.9322H25.1686C25.0289 14.9322 24.9886 14.9322 24.9986 15.1122C25.0534 15.7214 25.0534 16.3327 24.9986 16.9418C24.9986 17.1117 24.9986 17.1319 25.1894 17.1319H26.7684C26.8383 17.2219 26.7684 17.3119 26.7684 17.4026C26.7785 17.5185 26.7785 17.6359 26.7684 17.7518V18.9621C26.7684 19.132 26.7187 19.1824 26.5683 19.1824H24.6782C24.5465 19.1572 24.4183 19.2415 24.3881 19.3725C23.9381 20.5425 23.2181 21.5916 22.2878 22.4326C21.948 22.7386 21.5909 23.0266 21.2179 23.2922C20.8176 23.5226 20.428 23.7624 20.0176 23.9525C19.2623 24.2923 18.4703 24.5429 17.6575 24.702C16.8856 24.8403 16.103 24.9029 15.3174 24.8921H8.37728V24.882L8.38016 24.8799Z" fill="#FEFEFD"/>
</svg>
