<svg width="32" height="33" viewBox="0 0 32 33" fill="none" xmlns="http://www.w3.org/2000/svg">
<g clip-path="url(#clip0_139_1087)">
<path d="M15.667 31.646C24.136 31.646 30.949 24.833 30.949 16.364C30.949 7.89501 24.136 1.08301 15.667 1.08301C7.19899 1.08301 0.385986 7.89601 0.385986 16.365C0.385986 24.834 7.19899 31.646 15.667 31.646Z" fill="#2775CA"/>
<path d="M8.36671 25H23.6332C24.7724 25 25.696 23.9688 25.696 22.6969V10.7003C25.696 9.42833 24.7724 8.39722 23.6332 8.39722H8.36671C7.22748 8.39722 6.30396 9.42833 6.30396 10.7003V22.6969C6.30396 23.9688 7.22748 25 8.36671 25Z" stroke="white" stroke-width="0.319413" stroke-miterlimit="10"/>
<path d="M15.0249 21.5038C13.9767 21.5038 12.9285 21.5052 11.8803 21.5034C10.8862 21.5017 10.326 20.6066 10.7613 19.7137C11.8179 17.5464 12.8774 15.3805 13.9338 13.2131C14.3607 12.3373 15.0712 11.9019 16.0319 11.8962C17.9481 11.8848 19.8644 11.892 21.7806 11.8935C22.1456 11.8938 22.2409 12.0435 22.0844 12.3712C21.8836 12.7916 21.6674 13.2049 21.4748 13.6289C21.4048 13.783 21.3133 13.8207 21.1546 13.8202C19.4267 13.8149 17.6988 13.8223 15.9709 13.8116C15.6815 13.8098 15.5138 13.8925 15.3827 14.1668C14.6142 15.7741 13.8259 17.372 13.0445 18.9732C13.0123 19.0392 12.9789 19.1052 12.9525 19.1736C12.8742 19.376 12.9784 19.5545 13.1934 19.5837C13.2578 19.5925 13.3242 19.5867 13.3897 19.5867C15.2159 19.5868 17.0421 19.5867 18.8683 19.5869C19.2596 19.587 19.3462 19.7202 19.1783 20.0671C18.9752 20.4864 18.7637 20.9017 18.5675 21.3241C18.5028 21.4635 18.4199 21.5082 18.2678 21.5073C17.1869 21.5007 16.1059 21.5038 15.0249 21.5038Z" fill="white"/>
<path d="M17.3395 15.7459C17.8545 15.7459 18.3694 15.7445 18.8844 15.7464C19.2079 15.7477 19.3045 15.8932 19.168 16.1782C18.953 16.6269 18.7379 17.0756 18.5094 17.5174C18.4744 17.5851 18.3675 17.6562 18.2933 17.6568C17.2225 17.6658 16.1517 17.6654 15.0809 17.6613C14.7997 17.6602 14.7043 17.4963 14.8274 17.238C15.0378 16.7962 15.2587 16.3594 15.4648 15.9157C15.5256 15.7848 15.6023 15.7402 15.7456 15.7425C16.2768 15.751 16.8082 15.7459 17.3395 15.7459Z" fill="white"/>
<path d="M10.0108 17.663C9.79028 17.6629 9.56952 17.669 9.34924 17.6614C9.09485 17.6526 8.99184 17.4948 9.09935 17.266C9.31768 16.8014 9.54216 16.3394 9.77803 15.8835C9.8123 15.8173 9.9223 15.754 9.99901 15.7519C10.4398 15.7395 10.8811 15.742 11.3221 15.7474C11.5778 15.7506 11.6808 15.9069 11.5716 16.139C11.3497 16.6111 11.1193 17.0794 10.8798 17.5427C10.8489 17.6026 10.7454 17.6527 10.6721 17.6577C10.4526 17.6727 10.2314 17.6631 10.0108 17.663Z" fill="white"/>
</g>
<defs>
<clipPath id="clip0_139_1087">
<rect width="32" height="32" fill="white" transform="translate(0 0.25)"/>
</clipPath>
</defs>
</svg>
