<svg width="325" height="316" viewBox="0 0 325 316" fill="none" xmlns="http://www.w3.org/2000/svg">
<g clip-path="url(#clip0_287_78)">
<path d="M168.743 155.819C167.492 156.022 165.979 156.457 165.397 156.748C164.815 157.038 163.855 157.503 163.274 157.735C161.033 158.722 158.095 161.713 156.902 164.268C156.408 165.342 155.797 166.562 155.593 166.968C155.39 167.375 155.186 168.536 155.128 169.581C155.04 171.295 155.099 171.44 155.681 171.527C156.524 171.643 157.775 170.975 159.608 169.378C162.575 166.823 162.983 166.504 163.215 166.446C163.332 166.417 163.535 166.184 163.623 165.923C163.71 165.662 163.884 165.458 164.001 165.458C164.757 165.545 165.077 165.458 164.932 165.197C164.815 165.023 164.845 164.936 164.99 164.965C165.106 164.994 165.659 164.791 166.183 164.529C167.114 164.007 167.143 164.007 166.765 164.616C166.561 164.936 166.299 165.197 166.183 165.197C166.037 165.197 165.688 165.458 165.368 165.778C165.048 166.097 164.786 166.3 164.786 166.213C164.786 165.894 160.859 169.407 158.968 171.382C156.466 174.053 156.03 175.301 157.251 176.376C157.659 176.782 158.386 176.869 160.626 176.898C164.961 176.898 166.474 176.695 168.917 175.679C171.448 174.605 174.329 172.224 175.783 169.93C177.587 167.142 179.216 162.439 179.74 158.606C179.943 157.096 179.362 156.283 177.732 155.848C175.987 155.412 171.332 155.383 168.743 155.819Z" fill="#5B9C38"/>
<path d="M143.329 1.6455C143.164 2.55057 142.917 3.29107 142.753 3.29107C142.588 3.29107 142.136 4.44297 141.683 5.84171C140.655 9.21513 140.655 15.6328 141.642 17.6487C142.012 18.4303 142.342 19.2531 142.342 19.4588C142.342 20.5696 145.797 24.3544 147.69 25.3006C148.8 25.8354 149.829 26.5347 149.993 26.7816C150.117 27.0284 150.899 27.5221 151.68 27.8512C152.791 28.3037 153.243 28.3037 153.696 27.9335C154.395 27.3575 154.436 24.3955 153.819 22.0094C153.573 21.1044 153.367 20.117 153.367 19.8291C153.326 19.5822 153.161 19.3354 152.997 19.3354C152.791 19.3354 152.75 19.0885 152.873 18.7594C152.997 18.4715 152.791 17.5253 152.462 16.6613C152.092 15.7974 151.804 14.8923 151.804 14.6455C151.845 13.6582 153.079 16.4556 154.272 20.1993C155.259 23.367 155.671 24.231 156.411 24.3955C157.81 24.7658 158.262 23.9841 159.579 18.5949C159.826 17.7721 159.867 16.4968 159.785 15.8385C159.25 12.7942 158.674 10.6961 158.345 10.6961C158.139 10.6961 157.974 10.4082 157.974 10.0791C157.974 9.74994 157.81 9.46196 157.563 9.46196C157.357 9.46196 157.152 9.17399 157.152 8.76259C157.152 7.89867 154.683 4.60753 153.778 4.31956C153.367 4.155 153.038 3.90816 153.038 3.70247C153.038 3.49677 151.927 2.59171 150.611 1.6455C148.471 0.205631 147.854 -6.56836e-05 145.88 -6.56836e-05H143.576L143.329 1.6455Z" fill="#76B523"/>
<path d="M177.968 0.905192C177.351 1.44 176.323 2.26279 175.747 2.7976C175.13 3.33241 174.471 3.90836 174.225 4.03177C173.525 4.48431 171.551 7.24064 171.551 7.73431C171.551 8.02228 171.18 8.59823 170.728 9.05076C170.275 9.50329 169.905 10.2849 169.905 10.8197C169.905 11.3546 169.658 12.0128 169.411 12.2596C168.424 13.247 168.959 22.8735 170.07 23.6552C170.44 23.9432 170.728 24.478 170.728 24.8482C170.728 25.5887 172.127 27.152 172.826 27.152C173.032 27.152 173.114 27.3577 172.949 27.6046C172.744 27.9337 172.908 27.9337 173.525 27.6046C174.389 27.152 174.677 26.0824 175.047 21.8039C175.171 20.5697 175.335 19.171 175.418 18.7185C175.541 18.266 175.623 17.7723 175.623 17.5666C175.665 17.402 175.829 17.2786 176.035 17.2786C176.199 17.2786 176.323 18.0603 176.24 19.0065C176.158 19.9938 175.953 22.133 175.829 23.8197C175.665 25.5887 175.747 27.1932 175.994 27.728C176.24 28.1805 176.528 28.921 176.652 29.2913C176.981 30.3197 178.791 30.2786 179.079 29.209C179.203 28.7565 179.655 28.3862 180.066 28.3862C180.889 28.3862 182.658 26.7818 182.658 26.0413C182.658 25.7944 183.07 25.3419 183.604 25.0128C184.098 24.6425 184.962 23.4906 185.538 22.3799C187.513 18.5128 186.978 10.2438 184.468 5.34823C181.835 0.246964 180.108 -0.946074 177.968 0.905192Z" fill="#5B9C38"/>
<path d="M104.617 10.9845C104.329 11.0668 104.082 11.7251 104.082 12.3833C104.082 13.0415 103.918 13.5763 103.671 13.5763C103.465 13.5763 103.26 13.9054 103.26 14.3168C103.26 14.7694 102.931 15.7156 102.56 16.4972C101.943 17.608 101.82 18.9656 101.82 23.244C101.82 28.3864 101.861 28.6333 102.972 30.2377C103.589 31.1428 104.082 32.089 104.082 32.3769C104.082 32.8295 104.905 33.7345 107.497 36.0795C108.073 36.6143 108.772 37.0257 109.143 37.0257C109.472 37.0257 110.418 37.4782 111.282 38.0542C113.38 39.494 114.244 39.1649 114.573 36.6554C114.861 34.5573 114.532 32.7883 112.927 28.3042C112.393 26.6997 112.105 25.4244 112.351 25.301C112.722 25.0542 112.886 25.3833 112.763 26.0826C112.722 26.2472 113.051 27.0288 113.462 27.7282C113.915 28.4687 114.367 29.7852 114.532 30.6902C114.696 31.5542 114.984 32.4592 115.19 32.7061C115.355 32.9118 115.601 33.6111 115.766 34.1871C116.013 35.2567 117.206 35.9561 117.905 35.4213C119.139 34.5573 119.715 32.4181 119.757 28.551C119.839 23.4086 119.798 22.9149 119.304 23.244C119.057 23.3675 118.893 23.0795 118.893 22.5035C118.893 21.9687 118.522 21.0225 118.07 20.4466C117.617 19.8706 117.247 19.2535 117.247 19.0478C117.247 18.8421 116.918 18.4307 116.548 18.0605C116.136 17.7314 115.355 16.8263 114.82 16.1269C114.285 15.3864 113.627 14.8105 113.339 14.8105C113.051 14.8105 112.475 14.358 112.063 13.782C111.117 12.5478 107.826 11.0668 106.633 11.3959C106.098 11.5194 105.728 11.4371 105.728 11.1491C105.728 10.6554 105.44 10.6143 104.617 10.9845Z" fill="#5B9C38"/>
<path d="M215.775 11.7247C215.076 12.0127 214.171 12.6709 213.76 13.1234C213.307 13.6171 212.813 13.9873 212.567 13.9873C212.073 13.9873 208.165 17.9778 208.165 18.5127C208.165 18.7595 208 18.924 207.836 18.924C207.63 18.924 206.972 19.9114 206.355 21.1456C205.367 23.1202 205.203 23.9019 205.162 27.6456C205.079 32.7057 205.696 35.174 207.218 35.5854C207.753 35.7089 208.37 35.7089 208.576 35.5854C209.152 35.2563 210.263 31.2247 209.934 30.731C209.81 30.4842 209.893 30.443 210.139 30.6076C210.427 30.7721 210.674 30.6487 210.674 30.2785C210.756 29.4146 210.798 29.25 211.538 27.5633C211.867 26.7816 212.279 25.7532 212.443 25.3418C212.567 24.9304 212.813 24.6835 212.937 24.7658C213.06 24.8892 212.855 25.6709 212.525 26.4937C212.196 27.3164 212.032 27.9747 212.155 27.9747C212.279 27.9747 212.155 28.2215 211.908 28.5095C211.662 28.8386 211.415 29.7437 211.374 30.5253C211.291 31.3481 211.086 31.924 210.88 31.8006C210.674 31.6772 210.633 31.8006 210.715 32.1297C210.839 32.4589 210.756 33.1582 210.551 33.7342C210.345 34.3101 210.263 35.75 210.427 36.943L210.715 39.1646L212.196 38.8766C214.171 38.5063 216.722 37.0664 217.01 36.1614C217.133 35.7911 217.709 35.3386 218.244 35.2152C219.355 34.9272 221.617 32.1297 221.987 30.5664C222.152 30.0316 222.399 29.6202 222.563 29.6202C222.975 29.6202 223.51 26.2468 223.551 23.038C223.592 19.9937 223.139 17.1962 222.399 15.6329C222.111 15.057 221.658 13.8639 221.37 12.9177C220.836 11.3133 220.794 11.231 218.902 11.1899C217.874 11.1899 216.434 11.3956 215.775 11.7247Z" fill="#76B523"/>
<path d="M133.373 27.2344C133.126 27.5224 132.838 28.4686 132.674 29.2914C132.509 30.1553 132.221 30.8547 132.016 30.8547C131.81 30.8547 131.645 31.3072 131.645 31.8009C131.645 32.3357 131.357 33.3642 130.987 34.1047C129.547 37.0256 129.465 50.8072 130.905 53.111C131.275 53.6458 131.687 54.7154 131.851 55.4148C132.016 56.1553 132.304 56.7724 132.468 56.7724C132.674 56.7724 133.044 57.5129 133.291 58.418C133.62 59.6521 134.649 61.0097 136.952 63.3547C138.721 65.1648 140.449 66.6458 140.819 66.6458C141.149 66.6458 141.519 66.8104 141.601 66.9749C141.683 67.1806 143.041 67.9211 144.604 68.6616C146.209 69.4021 148.225 70.3483 149.171 70.8009C152.832 72.5287 154.19 71.3768 153.655 67.0572C153.367 64.7945 152.174 60.4749 151.187 58.2123C150.899 57.5129 149.952 55.2914 149.088 53.1933C148.225 51.0952 147.443 49.4907 147.278 49.573C147.155 49.6553 147.031 49.4085 147.031 49.0382C146.99 48.668 146.867 47.9686 146.702 47.5161L146.373 46.6933L147.031 47.5161C147.402 47.9686 147.978 48.668 148.307 49.0382C148.636 49.4496 148.8 49.7787 148.677 49.7787C148.554 49.7787 148.8 50.3958 149.253 51.0952C149.706 51.8357 150.775 53.8515 151.598 55.5382C152.421 57.2249 153.243 58.9116 153.408 59.2407C153.614 59.611 153.902 60.4749 154.025 61.1743C154.395 62.7787 156.987 65.823 158.016 65.823C158.962 65.823 159.291 65.0414 160.278 60.8863C161.471 55.6616 161.06 48.5857 159.414 45.418C159.085 44.7597 158.797 44.0604 158.797 43.8958C158.797 42.7439 152.997 35.38 152.092 35.38C151.598 35.38 150.569 34.2692 150.569 33.7756C150.569 33.5287 150.405 33.323 150.199 33.323C150.035 33.323 149.376 32.8705 148.759 32.2945C148.142 31.7186 147.361 31.2661 147.031 31.2661C146.743 31.2661 146.456 31.0604 146.456 30.8547C146.456 30.6078 146.085 30.4433 145.633 30.4433C145.221 30.4433 144.687 30.1964 144.522 29.9085C143.987 29.0857 140.367 27.5635 138.845 27.5635C138.063 27.5635 137.405 27.3578 137.405 27.1521C137.405 26.5762 133.867 26.6585 133.373 27.2344ZM146.456 46.0762C146.456 46.2819 146.373 46.4876 146.291 46.4876C146.168 46.4876 145.962 46.2819 145.838 46.0762C145.715 45.8294 145.797 45.6648 146.003 45.6648C146.25 45.6648 146.456 45.8294 146.456 46.0762Z" fill="#76B523"/>
<path d="M192.408 26.987C192.285 27.1104 191.421 27.3984 190.516 27.6041C188.418 28.0566 185.538 29.2908 185.538 29.7022C185.538 29.9079 185.25 30.0313 184.921 30.0313C184.592 30.0313 184.304 30.1959 184.304 30.4427C184.304 30.6484 184.057 30.8541 183.728 30.8541C183.399 30.8541 182.576 31.3889 181.836 32.0883C181.095 32.7465 180.272 33.3225 179.984 33.3225C179.696 33.3225 178.915 33.9807 178.298 34.8035C177.639 35.6263 176.693 36.6547 176.2 37.1484C175.665 37.6009 175.253 38.1769 175.253 38.4237C175.253 38.6706 174.719 39.3699 174.06 39.987C173.402 40.6041 172.785 41.6326 172.662 42.2497C172.415 43.6896 171.427 46.199 171.057 46.487C170.564 46.8573 170.234 54.6737 170.605 57.5535C170.893 60.0218 171.016 60.2275 172.127 60.5155C173.196 60.8035 173.526 60.6801 174.924 59.1579C175.788 58.2117 176.488 57.3066 176.488 57.1421C176.488 56.525 179.984 50.7244 181.712 48.4206C182.741 47.1041 183.399 45.8699 183.234 45.582C183.07 45.3351 183.111 45.2528 183.399 45.4174C183.646 45.5408 184.345 44.9649 185.003 44.0187C186.114 42.4142 186.772 41.9617 186.772 42.7845C186.772 42.9902 186.484 43.3193 186.155 43.4839C185.209 44.0187 178.709 55.6199 177.31 59.2813C175.994 62.6959 175.624 66.3984 176.611 66.7275C177.639 67.1389 183.07 66.3573 183.07 65.8225C183.07 65.6579 183.687 65.4111 184.386 65.2465C186.114 64.9174 188.007 64.0535 188.007 63.6832C188.007 63.4775 188.295 63.3541 188.624 63.3541C188.953 63.3541 189.241 63.1484 189.241 62.9427C189.241 62.6959 189.652 62.5313 190.187 62.5313C190.804 62.5313 191.75 61.832 192.943 60.4744C193.931 59.3225 194.959 58.4174 195.247 58.4174C195.535 58.4174 196.193 57.718 196.687 56.8541C197.222 56.0313 197.921 55.044 198.25 54.7149C199.032 53.8921 199.937 51.6706 199.937 50.4775C199.937 49.9016 200.225 49.2434 200.554 48.9554C200.924 48.6263 201.171 47.7212 201.171 46.6104C201.171 45.6231 201.377 44.4301 201.624 43.9775C202.158 42.949 202.2 35.1326 201.624 33.0756C201.418 32.1706 201.007 30.4016 200.76 29.0851L200.307 26.7402H196.481C194.383 26.7402 192.573 26.8636 192.408 26.987Z" fill="#5B9C38"/>
<path d="M259.609 47.1643C260.39 47.4111 261.09 47.946 261.254 48.4808C262.036 50.6611 260.308 62.7561 259.239 62.7561C259.074 62.7561 258.786 63.5789 258.621 64.6073C258.498 65.6358 258.169 66.6232 257.881 66.7877C257.634 66.9523 256.894 68.1453 256.235 69.4618C255.618 70.7782 254.713 72.0535 254.302 72.3415C253.89 72.5884 253.52 72.9586 253.52 73.1643C253.52 73.5757 251.381 75.4681 250.887 75.5092C250.682 75.5092 250.229 75.8384 249.859 76.2909C249.489 76.7023 248.789 77.1548 248.254 77.3194C247.761 77.4839 247.349 77.813 247.349 78.0187C247.349 78.2244 246.979 78.389 246.527 78.389C246.074 78.389 245.704 78.5535 245.704 78.8004C245.704 79.0061 245.128 79.2118 244.47 79.2118C243.77 79.2118 242.783 79.4998 242.248 79.8289C240.973 80.6928 234.678 81.2687 232.21 80.7751C229.413 80.1991 229.166 79.6643 230.153 76.7023C230.606 75.3858 231.14 74.2751 231.346 74.2751C231.552 74.2751 231.716 74.0694 231.716 73.8225C231.716 73.37 234.802 69.7498 238.546 65.8415C239.409 64.9365 240.273 64.2782 240.52 64.3194C240.767 64.4016 240.849 64.3605 240.685 64.196C240.397 63.908 242.536 61.6865 244.182 60.5757C244.675 60.2466 244.963 59.8352 244.84 59.6706C244.675 59.5472 244.058 59.9175 243.482 60.4934C242.906 61.0694 242.248 61.4808 242.042 61.3573C241.837 61.2339 241.549 61.3985 241.425 61.7276C241.302 62.0567 240.973 62.3035 240.685 62.2624C240.397 62.1801 240.191 62.3447 240.15 62.5915C240.15 62.7972 238.833 64.1137 237.27 65.4713C235.666 66.87 233.65 68.8447 232.745 69.8732C231.84 70.9428 230.852 71.8067 230.565 71.8067C230.277 71.8067 229.371 72.3004 228.59 72.9175C227.397 73.8225 227.068 73.9048 226.739 73.4111C225.875 72.0124 226.245 66.87 227.438 64.1548C227.973 62.9206 228.425 61.6865 228.425 61.3985C228.425 61.1105 228.796 60.5757 229.248 60.1643C229.701 59.7941 230.071 59.0947 230.071 58.6422C230.071 58.1896 230.318 57.8194 230.647 57.8194C230.976 57.8194 231.305 57.408 231.387 56.8732C231.47 56.2972 231.922 55.8447 232.745 55.5567C233.403 55.3099 235.008 54.3637 236.242 53.4586C238.669 51.6073 241.672 50.0029 244.14 49.2213C245.004 48.9333 245.704 48.4808 245.704 48.1928C245.704 47.8637 246.403 47.5346 247.226 47.37C250.147 46.8763 258.251 46.7118 259.609 47.1643Z" fill="#76B523"/>
<path d="M64.3741 50.1633C63.5924 50.4102 62.8931 50.945 62.7285 51.4798C61.9469 53.6602 63.6747 65.7551 64.7443 65.7551C64.9089 65.7551 65.1969 66.5779 65.3614 67.6064C65.4848 68.6348 65.814 69.6222 66.1019 69.7867C66.3488 69.9513 67.0893 71.1443 67.7475 72.4608C68.3646 73.7773 69.2697 75.0526 69.6811 75.3405C70.0924 75.5874 70.4627 75.9576 70.4627 76.1633C70.4627 76.5747 72.6019 78.4671 73.0956 78.5083C73.3013 78.5083 73.7538 78.8374 74.1241 79.2899C74.4943 79.7013 75.1937 80.1538 75.7285 80.3184C76.2222 80.483 76.6336 80.8121 76.6336 81.0178C76.6336 81.2235 77.0038 81.388 77.4564 81.388C77.9089 81.388 78.2792 81.5526 78.2792 81.7994C78.2792 82.0051 78.8551 82.2108 79.5133 82.2108C80.2127 82.2108 81.2 82.4988 81.7349 82.8279C83.0102 83.6918 89.3045 84.2678 91.7728 83.7741C94.5703 83.1981 94.8171 82.6633 93.8298 79.7013C93.3773 78.3849 92.8425 77.2741 92.6368 77.2741C92.4311 77.2741 92.2665 77.0684 92.2665 76.8216C92.2665 76.369 89.1811 72.7488 85.4374 68.8405C84.5735 67.9355 83.7095 67.2773 83.4627 67.3184C83.2159 67.4007 83.1336 67.3595 83.2981 67.195C83.5861 66.907 81.4469 64.6855 79.8013 63.5747C79.3076 63.2456 79.0197 62.8342 79.1431 62.6697C79.3076 62.5462 79.9247 62.9165 80.5007 63.4924C81.0766 64.0684 81.7349 64.4798 81.9405 64.3564C82.1462 64.233 82.4342 64.3975 82.5576 64.7266C82.6811 65.0557 83.0102 65.3026 83.2981 65.2614C83.5861 65.1792 83.7918 65.3437 83.833 65.5905C83.833 65.7962 85.1494 67.1127 86.7127 68.4703C88.3171 69.869 90.333 71.8437 91.238 72.8722C92.1431 73.9418 93.1304 74.8057 93.4184 74.8057C93.7064 74.8057 94.6114 75.2994 95.3931 75.9165C96.5861 76.8216 96.9152 76.9038 97.2444 76.4102C98.1083 75.0114 97.738 69.869 96.545 67.1538C96.0102 65.9197 95.5576 64.6855 95.5576 64.3975C95.5576 64.1095 95.1874 63.5747 94.7349 63.1633C94.2823 62.7931 93.9121 62.0937 93.9121 61.6412C93.9121 61.1886 93.6652 60.8184 93.3361 60.8184C93.007 60.8184 92.6779 60.407 92.5956 59.8722C92.5133 59.2962 92.0608 58.8437 91.238 58.5557C90.5798 58.3089 88.9754 57.3627 87.7412 56.4576C85.314 54.6064 82.3108 53.0019 79.8424 52.2203C78.9785 51.9323 78.2792 51.4798 78.2792 51.1918C78.2792 50.8627 77.5798 50.5336 76.757 50.369C73.8361 49.8754 65.7317 49.7108 64.3741 50.1633Z" fill="#5B9C38"/>
<path d="M99.8041 48.339C99.6807 48.6681 99.7629 48.9561 99.9686 48.9561C100.215 48.9561 100.38 48.6681 100.38 48.339C100.38 48.0099 100.298 47.7219 100.215 47.7219C100.133 47.7219 99.9686 48.0099 99.8041 48.339Z" fill="black"/>
<path d="M103.959 54.4681C103.383 55.5789 102.724 58.7877 101.696 65.4112C101.284 68.0441 101.408 76.2719 101.902 79.1928C102.519 82.7308 105.11 89.6833 105.81 89.6833C106.016 89.6833 106.468 90.3827 106.838 91.2055C107.167 92.0694 107.99 93.2213 108.648 93.7561C109.307 94.2909 109.841 94.9491 109.841 95.2371C109.841 96.7181 119.098 103.259 121.196 103.259C121.525 103.259 121.772 103.383 121.772 103.588C121.772 103.753 123.006 104.205 124.569 104.658C126.091 105.069 127.696 105.563 128.148 105.728C128.601 105.933 129.712 106.18 130.617 106.345C132.221 106.55 132.303 106.509 133.044 104.905C133.702 103.506 133.784 103.054 133.373 102.395C133.085 101.984 132.879 101.161 132.879 100.544C132.879 98.5283 130.74 93.1801 126.832 85.446C124.693 81.2086 122.759 77.7529 122.553 77.7529C122.348 77.7529 122.183 77.4238 122.183 77.0124C122.183 76.6422 121.813 75.8605 121.36 75.2846C120.373 74.0504 120.332 73.5979 121.155 73.8858C121.484 74.0504 121.772 74.3795 121.772 74.6675C121.772 74.9555 122.224 75.4903 122.8 75.8605C123.376 76.2308 123.829 76.8067 123.829 77.1358C123.829 77.465 124.734 78.9871 125.803 80.5093C128.601 84.4998 130.534 87.7909 132.427 91.8226C133.908 95.0314 136.088 97.9112 136.993 97.9112C137.199 97.9112 137.693 97.3352 138.104 96.677C138.968 95.196 139.75 95.0726 139.997 96.3479C140.12 97.1295 140.202 97.0472 140.243 96.0599C140.367 94.4555 140.572 93.2213 141.066 90.7118C141.272 89.5599 141.478 87.8732 141.478 86.8858C141.519 84.7877 139.626 76.6833 138.803 75.408C138.474 74.9143 138.228 74.215 138.228 73.8447C138.228 73.5156 137.898 72.8985 137.528 72.4871C137.117 72.0757 136.417 71.0472 135.965 70.1833C135.512 69.3194 134.936 68.4966 134.648 68.4143C134.36 68.2909 134.114 67.9618 134.114 67.6738C134.114 66.6865 127.531 60.4744 126.503 60.4744C126.174 60.4744 125.886 60.2688 125.886 60.0631C125.886 59.8162 125.639 59.6517 125.392 59.6517C125.104 59.6517 124.199 59.0757 123.417 58.4175C120.044 55.4966 114.038 53.4396 108.525 53.2751L104.576 53.1517L103.959 54.4681Z" fill="#76B523"/>
<path d="M212.731 53.7279C211.95 54.057 211.045 54.2215 210.757 54.1393C210.469 54.0158 210.139 54.0981 210.016 54.3038C209.851 54.5506 209.317 54.7152 208.782 54.7152C208.247 54.7152 207.548 55.0032 207.177 55.3323C206.848 55.6614 206.355 55.9494 206.108 55.9494C205.573 55.9494 201.295 58.2532 200.348 59.0348C200.019 59.3228 199.196 59.8576 198.497 60.1867C197.139 60.8861 195.535 62.326 194.589 63.7247C194.26 64.1772 193.807 64.5886 193.519 64.5886C192.614 64.5886 187.184 71.8291 187.184 73.1044C187.184 73.3924 186.814 74.2975 186.32 75.1203C184.222 78.8639 182.782 89.0665 183.934 91.6994C184.263 92.3987 184.633 92.9747 184.798 92.9747C185.003 92.9747 185.127 93.3449 185.127 93.7975C185.127 94.25 185.332 94.6203 185.538 94.6203C185.785 94.6203 185.95 94.9082 185.95 95.2374C185.95 95.5665 185.662 95.8544 185.291 95.8544C184.921 95.8544 184.757 96.0601 184.88 96.3481C185.003 96.6361 185.25 97.212 185.374 97.5823C185.538 98.0348 186.032 98.3228 186.731 98.3228C188.336 98.3228 190.434 95.8544 192.696 91.3291C193.807 89.1899 196.111 85.2817 197.839 82.6899C199.567 80.0981 201.089 77.6298 201.253 77.2184C201.418 76.8481 201.706 76.519 201.912 76.519C202.323 76.519 203.681 74.2563 203.434 73.8861C203.31 73.7627 203.351 73.7215 203.516 73.8449C203.639 73.9684 204.051 73.8038 204.38 73.5158C204.75 73.269 204.503 73.8038 203.927 74.75C203.31 75.7374 202.817 76.7658 202.817 77.1361C202.817 77.4652 202.652 77.7532 202.488 77.7532C202.282 77.7532 201.048 79.8513 199.731 82.3608C198.415 84.9114 196.893 87.8323 196.358 88.8196C195.864 89.7658 195 91.8639 194.507 93.4272C194.013 94.9905 193.437 96.2658 193.272 96.2658C193.108 96.2658 192.943 96.7184 192.943 97.2532C192.943 97.8291 192.779 98.4051 192.532 98.5285C192.326 98.6519 192.12 99.3924 192.12 100.133C192.12 100.832 191.956 101.614 191.709 101.861C191.257 102.313 191.627 105.316 192.162 105.316C192.367 105.316 192.532 105.604 192.532 105.975C192.532 106.551 192.82 106.592 194.26 106.386C195.206 106.222 196.193 105.934 196.44 105.769C196.646 105.563 198.003 105.152 199.443 104.905C200.842 104.617 201.994 104.206 201.994 104.041C201.994 103.835 202.282 103.671 202.693 103.671C203.598 103.671 206.519 102.354 206.519 101.943C206.519 101.778 206.889 101.614 207.342 101.614C207.795 101.614 208.165 101.408 208.165 101.203C208.165 100.956 208.412 100.791 208.7 100.791C209.029 100.791 209.934 100.133 210.757 99.3513C211.579 98.5696 212.361 97.9114 212.484 97.9114C213.101 97.9114 216.516 94.2912 217.874 92.2753C220.795 87.8734 221.823 85.2405 222.81 79.3987C223.386 76.0665 223.592 73.8038 223.386 73.7215C222.81 73.5158 222.851 68.7025 223.427 68.7025C223.757 68.7025 223.798 68.2089 223.592 67.1393C223.304 65.6582 223.181 64.9177 222.728 61.5032C222.605 60.5981 222.317 59.4462 222.07 58.9525C221.823 58.5 221.741 57.8418 221.823 57.5127C222.07 56.8133 221.041 53.8101 220.383 53.3987C219.519 52.8639 214.212 53.0696 212.731 53.7279Z" fill="#76B523"/>
<path d="M41.8384 55.1263C39.946 55.4966 38.5061 56.8953 38.7941 58.1295C39.6169 61.6263 40.3985 64.5061 40.7688 65.082C40.9745 65.4934 41.139 66.0694 41.139 66.3985C41.139 66.7276 41.3859 67.2624 41.6738 67.5504C41.9618 67.8383 42.4966 68.7023 42.8257 69.4016C43.1137 70.1421 43.6485 70.7592 43.8954 70.7592C44.1833 70.7592 44.4302 71.0061 44.4302 71.3352C44.4302 71.6643 44.8004 72.0757 45.253 72.1991C45.7055 72.3225 46.2814 72.8162 46.4871 73.2687C47.3922 74.9143 50.1074 75.8194 54.7973 76.0251C57.2245 76.1073 59.6517 76.1073 60.1865 75.9428C61.4207 75.6548 61.8732 74.6675 61.2561 73.5567C60.4745 72.1168 57.5125 69.1137 57.1422 69.3605C56.9365 69.4839 56.8131 69.3605 56.8542 69.0314C56.9365 68.7434 56.7308 68.5377 56.4428 68.62C56.196 68.6611 55.9903 68.4966 56.0314 68.2909C56.1137 68.044 55.3321 67.139 54.3447 66.2751C53.234 65.3289 52.7814 64.7118 53.1928 64.7118C53.5631 64.7118 53.8099 64.8763 53.7688 65.0409C53.6454 65.4934 56.4428 67.4681 56.8542 67.2213C57.0599 67.0978 57.1422 67.139 57.1011 67.3447C57.0188 67.5092 57.0599 67.6738 57.1833 67.6738C57.3068 67.6738 58.0473 68.4143 58.87 69.2782C59.9397 70.4301 60.7213 70.9238 61.6675 71.0061L62.9428 71.0883V68.908C62.9428 67.5504 62.7371 66.563 62.3669 66.2751C62.0378 65.9871 61.6675 65.1643 61.5441 64.4238C61.3795 63.6833 60.7213 62.4491 60.0631 61.7086C59.3637 60.927 58.8289 60.2276 58.8289 60.063C58.8289 59.9396 58.1707 59.5694 57.389 59.2814C56.6074 58.9934 55.9492 58.582 55.9492 58.3352C55.9492 57.677 54.6327 56.813 53.6042 56.7719C53.1106 56.7719 52.6169 56.6073 52.4523 56.4016C52.3289 56.1959 51.0536 55.8668 49.5726 55.7434C48.0916 55.5789 46.9808 55.2909 47.1042 55.1263C47.3511 54.7561 43.8131 54.7149 41.8384 55.1263Z" fill="#5B9C38"/>
<path d="M275.633 55.6202C274.152 56.0727 272.342 56.5253 271.601 56.6487C270.861 56.7721 269.709 57.3892 269.051 58.0474C268.434 58.7056 267.734 59.2405 267.57 59.2405C267.158 59.2405 265.348 61.2974 265.348 61.7911C265.348 61.9556 265.101 62.1202 264.813 62.1202C264.237 62.1202 263.291 63.7658 263.291 64.7943C263.291 65.1234 263.127 65.4113 262.88 65.4113C262.674 65.4113 262.468 65.8227 262.468 66.3575C262.468 66.8924 262.263 67.5094 262.016 67.7563C261.44 68.3322 261.934 70.7594 262.592 70.8006C263.991 70.924 264.855 70.5126 267.364 68.4145C271.272 65.1645 271.478 64.9999 271.931 64.9999C272.177 64.9999 272.342 65.1645 272.342 65.4113C272.342 65.617 272.095 65.7816 271.848 65.6993C271.56 65.6582 271.355 65.8227 271.396 66.1107C271.478 66.3987 271.272 66.5221 270.984 66.3987C270.696 66.3164 269.956 66.7278 269.38 67.3449C268.763 67.962 267.364 69.4018 266.253 70.4715C264.196 72.4873 263.209 74.9556 264.114 75.8607C264.608 76.3544 273.329 76.2721 273.494 75.7784C273.576 75.5316 274.481 75.1202 275.551 74.7911C278.266 74.0094 282.133 70.1835 283.737 66.6455C285.177 63.4778 286.617 57.0601 285.959 56.8544C285.712 56.7721 285.506 56.443 285.506 56.155C285.506 54.9208 279.048 54.5506 275.633 55.6202Z" fill="#5B9C38"/>
<path d="M240.137 26.9586C238.656 27.4111 236.846 27.8636 236.105 27.9871C235.365 28.1105 234.213 28.7276 233.555 29.3858C232.938 30.044 232.238 30.5788 232.074 30.5788C231.662 30.5788 229.852 32.6358 229.852 33.1295C229.852 33.294 229.605 33.4586 229.317 33.4586C228.741 33.4586 227.795 35.1041 227.795 36.1326C227.795 36.4617 227.631 36.7497 227.384 36.7497C227.178 36.7497 226.972 37.1611 226.972 37.6959C226.972 38.2307 226.767 38.8478 226.52 39.0947C225.944 39.6706 226.438 42.0978 227.096 42.139C228.495 42.2624 229.358 41.851 231.868 39.7529C235.776 36.5029 235.982 36.3383 236.434 36.3383C236.681 36.3383 236.846 36.5029 236.846 36.7497C236.846 36.9554 236.599 37.12 236.352 37.0377C236.064 36.9966 235.858 37.1611 235.9 37.4491C235.982 37.7371 235.776 37.8605 235.488 37.7371C235.2 37.6548 234.46 38.0662 233.884 38.6833C233.267 39.3004 231.868 40.7402 230.757 41.8098C228.7 43.8257 227.713 46.294 228.618 47.1991C229.112 47.6928 237.833 47.6105 237.998 47.1168C238.08 46.87 238.985 46.4586 240.055 46.1295C242.77 45.3478 246.637 41.5219 248.241 37.9839C249.681 34.8162 251.121 28.3985 250.463 28.1928C250.216 28.1105 250.01 27.7814 250.01 27.4934C250.01 26.2592 243.551 25.889 240.137 26.9586Z" fill="#5B9C38"/>
<path d="M162.5 64.9179C159.826 65.823 151.804 74.0509 151.804 75.861C151.804 76.2312 151.639 76.5192 151.434 76.5192C150.981 76.5192 148.924 80.0983 148.924 80.88C148.924 81.1679 148.472 82.4433 147.896 83.6774C147.32 84.9116 146.867 86.2692 146.867 86.6806C146.867 87.1331 146.661 87.6679 146.456 87.8736C146.209 88.1205 146.003 89.1901 145.962 90.2186C145.962 91.2882 145.798 92.1521 145.592 92.1521C145.016 92.1521 145.18 97.7882 145.839 101.573C146.703 106.51 147.196 108.155 148.348 109.801C148.883 110.624 149.336 111.611 149.336 111.981C149.336 112.393 149.665 113.051 150.076 113.462C150.487 113.874 151.146 114.861 151.516 115.725C151.927 116.548 152.462 117.247 152.75 117.247C153.038 117.247 153.532 117.864 153.902 118.605C154.807 120.456 156.782 120.662 157.851 119.057C158.51 118.07 158.633 116.589 158.839 107.991C159.003 102.56 159.291 96.9243 159.538 95.4433C159.785 93.9622 160.114 91.8641 160.237 90.7945C160.731 86.8863 160.937 89.3135 160.896 99.0635C160.813 112.927 161.842 120.538 164.146 123.048C164.804 123.706 165.586 124.241 165.915 124.241C167.519 124.241 176.693 114.244 176.693 112.475C176.693 112.146 176.899 111.734 177.146 111.57C177.763 111.158 178.874 108.69 179.614 106.098C179.984 104.864 180.437 103.219 180.642 102.437C181.918 98.0762 181.918 96.6363 180.848 90.3009C180.231 86.6806 180.025 85.9812 179.696 85.9812C179.491 85.9812 179.367 85.6521 179.408 85.2407C179.532 84.2122 177.722 79.8926 176.693 78.7407C176.446 78.4939 175.911 77.5065 175.5 76.5603C175.048 75.6553 174.554 74.8736 174.348 74.8736C174.184 74.8736 174.019 74.5857 174.019 74.2565C174.019 73.8863 173.567 73.1458 172.991 72.5698C172.415 71.9939 171.962 71.3768 171.962 71.1711C171.962 70.9654 171.592 70.5952 171.139 70.3483C170.687 70.1015 170.317 69.6078 170.317 69.2787C170.317 68.4148 166.573 64.7534 165.38 64.5065C164.804 64.3831 163.529 64.5477 162.5 64.9179Z" fill="#5B9C38"/>
<path d="M34.639 74.5031C31.5535 74.8734 29.2086 75.6139 29.2086 76.1487C29.2086 76.3544 28.8795 76.5189 28.4269 76.5189C27.2339 76.5189 26.2054 78.3702 26.5757 79.9335C26.9048 81.5791 28.3035 84.3354 28.7561 84.3354C28.9618 84.3354 29.2497 84.7879 29.3731 85.3227C29.6611 86.5569 32.4586 89.4367 34.1864 90.3417C34.9269 90.712 35.7497 91.2468 36.0377 91.4936C36.2845 91.7816 37.313 92.2341 38.3004 92.5221C39.2877 92.8101 40.6453 93.1803 41.3035 93.386C42.7434 93.8386 47.7212 93.2215 49.5725 92.3987C50.2719 92.0696 51.1358 91.6993 51.5472 91.5759C53.1928 91.0411 52.9048 88.3259 51.0947 87.5031C50.4776 87.2563 49.7371 86.7215 49.4491 86.3923C48.9554 85.8575 48.9143 85.8575 49.1611 86.3923C49.3257 86.8037 49.2434 86.7626 48.832 86.3101C48.1738 85.4873 44.0599 83.5126 42.8668 83.3892C42.4554 83.3892 41.9206 83.1423 41.6326 82.8544C41.3035 82.4841 41.4269 82.4018 42.2086 82.443C42.7434 82.443 43.1959 82.6075 43.1959 82.731C43.1959 82.9367 45.9111 83.924 46.8985 84.1297C47.0219 84.1297 47.639 84.4999 48.2972 84.9525C49.5725 85.8164 52.4111 85.981 53.1516 85.2405C53.7687 84.6234 51.7529 81.0031 49.5725 78.8639C47.7624 77.0537 46.1168 76.2721 40.6864 74.7088C39.4111 74.3386 38.1358 74.0917 37.8067 74.0917C37.4776 74.1329 36.0788 74.2974 34.639 74.5031Z" fill="#76B523"/>
<path d="M79.2668 27.1C76.1708 26.8321 73.724 27.0778 73.6147 27.6014C73.5727 27.8027 73.2169 27.8966 72.7739 27.8041C71.606 27.5603 70.221 29.1624 70.264 30.7684C70.25 32.4465 71.0561 35.4305 71.4991 35.5229C71.7004 35.5649 71.8899 36.0668 71.9014 36.6155C71.9311 37.8825 74.0812 41.2731 75.5877 42.5121C76.2369 43.0258 76.9331 43.7174 77.1646 44.0179C77.3473 44.3502 78.2617 45.0033 79.1694 45.487C80.077 45.9706 81.3303 46.6104 81.9327 46.9463C83.2497 47.6834 88.2486 48.0964 90.2289 47.6692C90.9808 47.49 91.9021 47.304 92.3301 47.2673C94.0502 47.08 94.3231 44.3632 92.7192 43.1879C92.1656 42.8202 91.55 42.1454 91.3353 41.7644C90.9613 41.14 90.921 41.1316 91.0534 41.7056C91.1304 42.1419 91.0583 42.0848 90.748 41.5578C90.2718 40.6179 86.6481 37.8443 85.5055 37.4797C85.1028 37.3957 84.6297 37.0448 84.4066 36.704C84.1601 36.2743 84.2977 36.219 85.0545 36.419C85.578 36.5283 85.9874 36.7818 85.9621 36.9026C85.9201 37.104 88.3763 38.6253 89.3008 39.0283C89.4216 39.0536 89.95 39.5421 90.5019 40.1195C91.5738 41.2258 94.3189 41.9669 95.1951 41.3933C95.9252 40.9153 94.6916 36.9595 92.9943 34.4199C91.5922 32.2782 90.1411 31.1768 85.1446 28.537C83.9719 27.914 82.7739 27.4118 82.4517 27.3445C82.1211 27.3175 80.7183 27.1928 79.2668 27.1Z" fill="#76B523"/>
<path d="M285.053 74.4624C282.091 74.7504 279.747 75.532 279.212 76.3959C279.047 76.6839 278.512 76.9307 278.06 76.9307C277.607 76.9307 277.155 77.2187 277.031 77.5478C276.867 77.8769 276.538 78.1649 276.25 78.1649C275.55 78.1649 274.398 79.5225 274.398 80.3453C274.398 80.7155 274.234 81.0447 274.028 81.0447C273.822 81.0447 273.37 81.7029 273 82.4845C272.629 83.2662 272.136 84.0067 271.93 84.1301C271.231 84.5826 271.478 85.0352 272.712 85.57C274.069 86.1048 275.262 85.8579 276.949 84.7061C277.525 84.2535 278.307 83.9244 278.677 83.9244C279.047 83.9244 279.335 83.7187 279.335 83.4719C279.335 83.2662 279.5 83.1428 279.705 83.2662C279.911 83.3896 280.734 83.225 281.557 82.8959C283.285 82.1554 283.86 82.1143 283.86 82.7314C283.86 82.9371 283.696 83.0605 283.531 82.9371C282.914 82.5668 275.139 86.3928 273.247 88.0383C271.519 89.4782 271.519 91.0415 273.288 91.2472C273.905 91.3295 274.398 91.5352 274.398 91.6997C274.398 92.975 281.927 93.839 285.547 92.975C287.974 92.3991 290.484 91.1649 290.978 90.2598C291.142 89.9307 291.841 89.3959 292.5 89.0668C293.158 88.7377 293.816 88.0383 293.981 87.5447C294.145 87.0098 294.803 86.0636 295.462 85.4054C296.902 84.0478 298.095 81.5383 298.506 79.1523L298.753 77.4655L296.531 76.4371C294.598 75.4909 292.294 74.9149 289.826 74.6681C289.373 74.6269 288.715 74.5035 288.386 74.3801C288.057 74.2567 286.535 74.2978 285.053 74.4624Z" fill="#76B523"/>
<path d="M306.832 123.16C303.87 123.448 301.525 124.23 300.99 125.094C300.825 125.382 300.291 125.628 299.838 125.628C299.386 125.628 298.933 125.916 298.81 126.246C298.645 126.575 298.316 126.863 298.028 126.863C297.329 126.863 296.177 128.22 296.177 129.043C296.177 129.413 296.012 129.742 295.806 129.742C295.601 129.742 295.148 130.401 294.778 131.182C294.408 131.964 293.914 132.704 293.708 132.828C293.009 133.28 293.256 133.733 294.49 134.268C295.848 134.803 297.041 134.556 298.727 133.404C299.303 132.951 300.085 132.622 300.455 132.622C300.825 132.622 301.113 132.416 301.113 132.17C301.113 131.964 301.278 131.841 301.484 131.964C301.689 132.087 302.512 131.923 303.335 131.594C305.063 130.853 305.639 130.812 305.639 131.429C305.639 131.635 305.474 131.758 305.31 131.635C304.693 131.265 296.917 135.091 295.025 136.736C293.297 138.176 293.297 139.739 295.066 139.945C295.683 140.027 296.177 140.233 296.177 140.397C296.177 141.673 303.705 142.537 307.325 141.673C309.753 141.097 312.262 139.863 312.756 138.958C312.92 138.628 313.62 138.094 314.278 137.765C314.936 137.435 315.594 136.736 315.759 136.242C315.924 135.708 316.582 134.761 317.24 134.103C318.68 132.746 319.873 130.236 320.284 127.85L320.531 126.163L318.31 125.135C316.376 124.189 314.072 123.613 311.604 123.366C311.151 123.325 310.493 123.201 310.164 123.078C309.835 122.954 308.313 122.996 306.832 123.16Z" fill="#76B523"/>
<path d="M63.2724 86.2686C62.6141 86.3509 62.1205 86.6389 62.1205 86.8446C62.1205 87.0502 61.7091 87.2148 61.1743 87.2148C59.7344 87.2148 59.2407 87.9964 59.2407 90.2591C59.2819 94.1262 60.9686 104.452 61.6268 104.864C61.8736 105.028 62.0382 105.522 61.9971 106.015C61.9971 106.509 62.2439 107.496 62.6141 108.278C62.9844 109.019 63.6838 110.623 64.2186 111.775C64.7122 112.968 65.2882 113.955 65.4527 113.955C65.6173 113.955 65.9053 114.326 66.0287 114.819C66.3167 115.683 66.7692 116.3 68.7027 118.439C69.2787 119.057 70.0192 119.92 70.4306 120.373C72.899 123.212 78.9876 126.873 82.1964 127.408C82.9369 127.531 83.6363 127.819 83.7597 127.984C83.8831 128.189 85.0762 128.354 86.3926 128.354C87.7502 128.354 88.9433 128.56 89.1078 128.807C89.4781 129.424 98.7755 128.971 100.01 128.313C100.75 127.943 100.832 127.614 100.586 126.174C100.215 123.87 98.7344 121.402 95.4021 117.411C92.4401 113.914 82.6078 104.164 80.8388 103.012C80.2629 102.642 79.9338 102.148 80.0983 101.902C80.2629 101.655 80.5097 101.696 80.7977 102.066C81.4559 102.889 84.2122 104.905 84.6648 104.905C84.9116 104.905 85.1584 105.028 85.2407 105.234C85.323 105.398 86.1869 106.18 87.2154 106.962C90.342 109.389 91.3705 110.335 95.7312 114.614C100.298 119.098 102.56 120.373 103.918 119.262C104.494 118.769 104.576 118.152 104.329 114.984C104.165 112.968 103.877 111.117 103.63 110.911C103.424 110.664 103.26 110.17 103.26 109.759C103.26 109.348 103.095 108.689 102.889 108.278C102.643 107.908 102.19 106.715 101.779 105.645C101.408 104.576 100.832 103.465 100.545 103.218C100.215 102.971 99.9686 102.436 99.9686 102.025C99.9686 101.161 97.8705 98.3635 97.2122 98.3224C96.9243 98.3224 96.6774 98.1578 96.6774 97.9933C96.6774 97.4173 93.6743 94.2085 93.1395 94.2085C92.8926 94.2085 92.5635 93.9205 92.399 93.5914C92.2755 93.2623 91.7819 92.9743 91.3293 92.9743C90.8768 92.9743 90.0952 92.5218 89.6015 91.9458C89.149 91.411 88.0793 90.7116 87.2565 90.4648C86.4749 90.1768 85.5287 89.7243 85.2407 89.3952C84.9527 89.1072 84.4591 88.8604 84.1711 88.8604C83.8831 88.8604 83.0603 88.5724 82.361 88.2021C81.6616 87.873 79.8926 87.3794 78.4939 87.1737C77.054 86.9268 75.3262 86.5977 74.6268 86.3509C73.3926 85.9806 65.535 85.9395 63.2724 86.2686Z" fill="#76B523"/>
<path d="M262.518 82.0904C263.176 82.1727 263.67 82.4606 263.67 82.6663C263.67 82.872 264.081 83.0366 264.616 83.0366C266.056 83.0366 266.549 83.8182 266.549 86.0809C266.508 89.948 264.821 100.274 264.163 100.685C263.916 100.85 263.752 101.344 263.793 101.837C263.793 102.331 263.546 103.318 263.176 104.1C262.806 104.84 262.106 106.445 261.571 107.597C261.078 108.79 260.502 109.777 260.337 109.777C260.173 109.777 259.885 110.147 259.761 110.641C259.473 111.505 259.021 112.122 257.087 114.261C256.511 114.878 255.771 115.742 255.359 116.195C252.891 119.033 246.802 122.695 243.594 123.23C242.853 123.353 242.154 123.641 242.03 123.806C241.907 124.011 240.714 124.176 239.397 124.176C238.04 124.176 236.847 124.382 236.682 124.628C236.312 125.245 227.015 124.793 225.78 124.135C225.04 123.764 224.958 123.435 225.204 121.995C225.575 119.692 227.056 117.223 230.388 113.233C233.35 109.736 243.182 99.9859 244.951 98.834C245.527 98.4638 245.856 97.9701 245.692 97.7233C245.527 97.4765 245.28 97.5176 244.992 97.8878C244.334 98.7106 241.578 100.726 241.125 100.726C240.878 100.726 240.632 100.85 240.549 101.056C240.467 101.22 239.603 102.002 238.575 102.783C235.448 105.211 234.42 106.157 230.059 110.435C225.492 114.919 223.23 116.195 221.872 115.084C221.296 114.59 221.214 113.973 221.461 110.806C221.625 108.79 221.913 106.938 222.16 106.733C222.366 106.486 222.53 105.992 222.53 105.581C222.53 105.169 222.695 104.511 222.901 104.1C223.147 103.73 223.6 102.537 224.011 101.467C224.382 100.397 224.958 99.2866 225.246 99.0397C225.575 98.7929 225.821 98.2581 225.821 97.8467C225.821 96.9828 227.92 94.1853 228.578 94.1442C228.866 94.1442 229.113 93.9796 229.113 93.8151C229.113 93.2391 232.116 90.0303 232.651 90.0303C232.897 90.0303 233.227 89.7423 233.391 89.4132C233.515 89.084 234.008 88.7961 234.461 88.7961C234.913 88.7961 235.695 88.3435 236.189 87.7676C236.641 87.2328 237.711 86.5334 238.533 86.2866C239.315 85.9986 240.261 85.5461 240.549 85.217C240.837 84.929 241.331 84.6822 241.619 84.6822C241.907 84.6822 242.73 84.3942 243.429 84.0239C244.128 83.6948 245.897 83.2011 247.296 82.9954C248.736 82.7486 250.464 82.4195 251.163 82.1727C252.397 81.8024 260.255 81.7613 262.518 82.0904Z" fill="#76B523"/>
<path d="M219.231 114.943C219.519 115.149 219.93 118.44 219.807 118.769C219.971 119.016 219.93 119.345 219.683 119.51C219.437 119.674 219.354 119.921 219.478 120.127C219.601 120.332 219.478 120.991 219.19 121.649C218.943 122.266 218.696 122.883 218.655 123.006C218.449 123.788 216.598 127.367 216.351 127.449C216.145 127.532 216.104 127.82 216.228 128.108C216.351 128.396 215.899 129.136 215.282 129.794C214.664 130.453 214.418 130.823 214.747 130.658C215.076 130.494 214.87 130.782 214.253 131.317C213.595 131.851 213.101 132.51 213.101 132.798C213.101 133.044 212.731 133.456 212.237 133.703C211.168 134.32 209.604 135.842 209.604 136.377C209.604 136.582 208.946 137.199 208.164 137.734C207.383 138.269 206.601 138.927 206.478 139.174C206.313 139.462 206.231 141.231 206.272 143.165C206.313 145.756 206.519 146.949 207.054 147.69C207.712 148.636 207.712 148.718 207.054 149.006C206.437 149.253 206.437 149.294 207.218 149.294C207.918 149.336 208.082 149.541 207.959 150.364C207.918 151.022 208.082 151.393 208.452 151.393C208.782 151.393 208.905 151.557 208.782 151.804C208.658 152.01 208.864 152.709 209.275 153.326C209.687 153.943 210.016 154.93 210.057 155.589C210.098 156.617 209.892 156.782 207.876 157.358C206.025 157.893 205.285 157.934 203.228 157.481C201.87 157.234 200.759 156.823 200.759 156.658C200.759 156.494 200.513 156.329 200.225 156.329C199.649 156.329 198.209 154.601 197.756 153.326C197.592 152.915 197.345 152.668 197.139 152.791C196.975 152.874 196.769 152.586 196.769 152.092C196.728 151.598 196.481 151.146 196.234 151.063C196.028 150.981 195.823 150.693 195.823 150.405C195.823 150.117 195.37 149.665 194.794 149.418C193.889 149.006 193.519 149.089 192.12 149.994C191.215 150.611 190.475 151.269 190.475 151.475C190.475 151.639 189.446 152.832 188.212 154.108C186.937 155.342 186.032 156.535 186.114 156.699C186.237 156.864 185.785 157.44 185.126 157.934C184.427 158.427 183.892 159.168 183.892 159.579C183.892 159.991 183.481 160.772 182.987 161.348C181.753 162.747 179.285 164.022 179.984 162.911C180.108 162.665 180.108 162.5 179.902 162.5C178.791 162.5 177.475 155.63 178.38 154.231C178.503 154.025 178.668 153.326 178.791 152.709C179.079 151.063 180.272 147.567 180.848 146.867C181.095 146.538 181.424 145.921 181.547 145.551C181.671 145.139 182.247 144.728 182.782 144.605C183.358 144.44 183.975 143.905 184.263 143.329C184.509 142.794 184.839 142.383 185.003 142.424C185.744 142.63 187.183 141.848 187.183 141.272C187.183 140.943 187.348 140.779 187.595 140.902C187.801 141.025 188.376 140.655 188.911 140.079C189.405 139.503 190.022 139.051 190.31 139.051C190.557 139.051 190.886 138.763 191.051 138.434C191.339 137.652 190.845 131.234 190.516 131.234C190.351 131.234 190.187 130 190.145 128.478C190.063 126.956 189.858 125.393 189.652 125.022C189.446 124.652 189.364 124.241 189.487 124.117C189.611 123.994 189.487 123.788 189.199 123.582C188.87 123.377 188.788 123.459 188.994 123.87C189.24 124.282 189.158 124.282 188.747 123.829C188.459 123.5 187.842 123.13 187.389 123.089C186.114 122.883 185.867 122.43 186.155 120.867C186.361 119.839 186.731 119.345 187.677 118.934C189.405 118.152 193.56 118.563 195.041 119.674C195.699 120.168 196.399 120.538 196.604 120.538C196.81 120.538 197.098 120.867 197.263 121.32C197.386 121.731 198.044 122.554 198.702 123.171C199.402 123.747 199.937 124.405 199.937 124.611C199.937 124.817 200.307 125.146 200.759 125.269C201.212 125.393 201.788 125.927 202.035 126.38C202.364 127.038 202.364 127.161 201.994 126.915C201.706 126.75 201.829 127.12 202.24 127.737C203.269 129.342 205.696 130 205.696 128.684C205.696 128.19 206.395 127.491 207.876 126.544C208.494 126.133 208.987 125.639 208.987 125.434C208.987 125.105 210.427 123.336 212.196 121.525C212.443 121.237 212.69 120.744 212.69 120.374C212.69 120.044 212.895 119.633 213.183 119.468C213.471 119.263 213.554 119.386 213.348 119.756C213.183 120.086 213.43 119.88 213.883 119.304C214.376 118.728 214.87 117.823 214.994 117.329C215.323 116.136 216.886 114.367 217.626 114.367C217.914 114.367 218.408 114.696 218.737 115.067C219.066 115.478 219.19 115.56 219.025 115.231C218.82 114.82 218.902 114.737 219.231 114.943Z" fill="#754D2A"/>
<path d="M31.4714 96.9245C31.0188 97.0479 29.579 97.2948 28.3037 97.5827C26.9872 97.8296 25.9176 98.1998 25.9176 98.3644C25.9176 98.5701 25.3828 98.7346 24.7245 98.7346C24.0663 98.7346 23.3258 98.9815 23.079 99.3106C22.791 99.6397 22.1328 100.01 21.5568 100.133C20.8986 100.298 20.3226 100.915 19.9112 101.861C19.3764 103.137 19.3764 103.383 19.9524 104.206C20.2815 104.7 20.5695 105.523 20.5695 106.016C20.5695 106.551 20.7752 106.962 20.9809 106.962C21.2277 106.962 21.3923 107.333 21.3923 107.744C21.3923 108.197 21.6802 108.814 22.0093 109.184C22.3385 109.513 22.6264 109.925 22.6264 110.13C22.6264 110.336 22.9967 110.788 23.4492 111.2C23.9018 111.57 24.272 112.228 24.272 112.64C24.272 113.051 24.6834 113.792 25.2182 114.244C26.3701 115.314 27.5631 116.754 27.5631 117.124C27.5631 117.618 31.3891 120.95 31.9239 120.95C32.1707 120.95 32.7055 121.32 33.1169 121.773C33.5283 122.225 34.2277 122.595 34.6802 122.595C35.1328 122.595 35.7087 122.883 35.9555 123.212C36.6138 124.076 39.8638 124.735 44.965 124.94C49.079 125.105 49.6961 125.064 53.522 123.83C58.541 122.266 59.4049 121.567 58.7055 119.633C58.4176 118.893 58.0473 118.07 57.8005 117.864C57.0188 117.083 55.1676 116.013 54.5093 116.013C54.1802 116.013 53.8923 115.766 53.8923 115.478C53.8923 114.861 45.7878 110.542 45.253 110.871C45.0885 110.994 44.8416 110.788 44.6771 110.459C44.5537 110.13 44.1423 109.842 43.7309 109.842C43.3195 109.842 42.6201 109.554 42.2087 109.225C41.7973 108.896 41.3037 108.731 41.1391 108.814C40.9334 108.937 40.7277 108.773 40.6043 108.485C40.4809 108.156 40.81 107.991 41.5916 107.991C42.2087 107.95 42.6201 108.114 42.5378 108.279C42.4144 108.444 42.6612 108.608 43.0726 108.608C43.5252 108.608 44.0188 108.773 44.2657 108.978C44.4714 109.143 45.9935 109.842 47.6391 110.459C49.3258 111.076 51.6707 112.105 52.8638 112.763C55.3321 114.08 59.3638 114.779 59.8163 113.997C60.1454 113.462 58.829 109.842 58.3353 109.842C58.1296 109.842 58.0062 109.472 58.0062 109.019C58.0062 108.567 57.8416 108.197 57.6359 108.197C57.4302 108.197 57.1011 107.785 56.9366 107.292C56.772 106.757 56.4018 106.14 56.0726 105.934C55.7435 105.687 55.291 105.029 55.003 104.494C54.715 103.918 53.9745 103.219 53.3574 102.931C52.7404 102.643 52.2467 102.231 52.2467 101.985C52.2467 101.779 51.9999 101.614 51.6707 101.614C51.3416 101.614 51.0125 101.368 50.8891 101.038C50.7657 100.709 50.1074 100.339 49.4081 100.175C48.7087 100.01 48.1328 99.722 48.1328 99.5163C48.1328 99.3106 47.8448 99.146 47.5157 99.146C47.1866 99.146 46.5695 98.9815 46.1581 98.7758C43.0315 97.1714 40.6043 96.6777 35.9967 96.7188C33.9809 96.76 31.9239 96.8422 31.4714 96.9245Z" fill="#5B9C38"/>
<path d="M284.478 96.9242C284.026 97.0476 282.586 97.2944 281.311 97.5824C279.994 97.8292 278.924 98.1995 278.924 98.364C278.924 98.5697 278.636 98.7343 278.307 98.7343C277.608 98.7343 276.168 99.4748 275.304 100.256C275.016 100.544 274.481 100.791 274.193 100.791C273.905 100.791 273 101.532 272.219 102.437C271.437 103.342 270.614 104.082 270.367 104.082C270.08 104.082 269.874 104.206 269.874 104.411C269.874 104.576 269.462 105.152 268.928 105.728C267.488 107.291 265.431 111.117 265.266 112.516C265.143 113.709 265.184 113.75 267.2 113.997C269.01 114.203 269.586 114.079 271.931 112.845C275.263 111.076 284.478 107.661 285.178 107.908C285.466 107.991 285.054 108.279 284.273 108.484C283.491 108.731 282.874 109.101 282.915 109.348C282.997 109.636 282.75 109.718 282.339 109.554C281.886 109.389 281.763 109.43 281.969 109.76C282.133 110.089 282.051 110.171 281.681 110.006C281.105 109.801 276.909 111.693 276.415 112.434C276.292 112.598 275.921 112.845 275.592 112.886C273.864 113.256 267.405 117 267.405 117.699C267.405 117.823 266.953 118.481 266.377 119.139C265.143 120.579 265.102 121.032 266.089 121.896C268.105 123.747 281.64 126.339 282.421 125.063C282.545 124.817 283.45 124.652 284.437 124.652C285.383 124.652 286.535 124.364 286.988 124.035C287.399 123.706 288.181 123.418 288.716 123.418C289.209 123.418 289.621 123.253 289.621 123.006C289.621 122.801 290.114 122.472 290.731 122.348C292.254 121.937 295.792 119.386 295.792 118.646C295.792 118.317 296.08 118.07 296.409 118.07C296.738 118.07 297.314 117.576 297.725 116.918C298.466 115.807 298.754 115.437 299.905 114.12C301.14 112.722 301.962 111.282 301.962 110.541C301.962 110.13 302.209 109.513 302.497 109.225C303.649 107.908 304.019 107.374 304.019 107.086C304.019 106.921 304.307 106.222 304.636 105.605C305.459 104.041 305.665 101.737 305.048 101.203C304.801 100.997 304.472 100.915 304.307 101.038C304.184 101.162 303.814 100.915 303.526 100.421C303.238 99.9273 302.58 99.5571 302.086 99.5571C301.551 99.5571 301.14 99.4337 301.14 99.228C301.14 97.7881 288.798 96.0602 284.478 96.9242Z" fill="#5B9C38"/>
<path d="M134.319 115.807C133.209 116.054 131.645 116.589 130.946 117C130.206 117.37 129.588 117.535 129.588 117.37C129.588 117.206 128.724 117.905 127.655 118.892C126.585 119.921 125.968 120.373 126.256 119.921C126.585 119.468 126.05 119.921 125.104 120.949C124.158 121.978 122.759 123.459 121.937 124.282C121.155 125.063 120.62 125.845 120.743 126.009C120.867 126.174 120.826 126.215 120.661 126.092C120.291 125.804 119.262 126.75 119.55 127.161C119.674 127.367 119.55 127.532 119.304 127.532C119.057 127.532 118.933 127.696 119.057 127.902C119.18 128.066 118.728 128.971 118.069 129.835C117.411 130.699 116.835 131.687 116.835 132.016C116.835 132.304 116.3 133.62 115.601 134.895C113.873 138.145 112.804 143.494 113.215 146.661C113.421 148.019 113.75 149.459 113.997 149.911C114.243 150.323 114.243 150.57 114.038 150.405C113.791 150.282 113.956 150.899 114.408 151.763C114.819 152.668 115.19 153.614 115.19 153.82C115.19 154.066 115.56 154.437 115.971 154.683C116.424 154.889 116.918 155.465 117.041 155.918C117.164 156.37 117.576 156.74 117.905 156.74C118.234 156.74 118.481 156.905 118.481 157.07C118.481 157.275 119.221 157.769 120.126 158.221C121.031 158.633 121.772 159.127 121.772 159.25C121.772 159.538 127.49 160.237 128.149 160.032C128.395 159.949 129.383 159.702 130.37 159.414C131.399 159.127 132.304 158.715 132.386 158.468C132.468 158.18 132.756 157.975 133.044 157.975C133.332 157.975 134.237 157.358 135.019 156.617C135.8 155.918 136.788 155.013 137.24 154.642C137.652 154.272 138.269 153.614 138.557 153.202C138.845 152.791 138.968 152.709 138.845 153.038C138.68 153.367 138.968 153.202 139.421 152.627C139.873 152.051 140.614 151.187 141.066 150.693C141.848 149.87 141.848 149.788 141.149 149.171C140.12 148.225 139.215 148.348 137.569 149.582C136.788 150.199 136.171 150.528 136.171 150.323C136.171 150.158 135.759 150.405 135.266 150.858C134.731 151.31 133.908 151.845 133.373 152.009C132.88 152.133 132.55 152.421 132.674 152.627C132.797 152.791 132.592 153.079 132.221 153.202C131.81 153.367 131.687 153.285 131.933 152.914C132.098 152.627 131.81 152.709 131.234 153.079C129.671 154.108 127.161 154.807 126.092 154.519C125.433 154.354 125.022 153.861 124.816 152.956C124.446 151.228 124.569 148.06 125.063 147.443C125.31 147.196 125.351 146.867 125.187 146.744C125.063 146.579 125.516 146.538 126.215 146.62C126.914 146.702 127.573 146.62 127.614 146.414C127.696 146.25 128.395 146.003 129.177 145.88C129.959 145.797 131.44 145.345 132.468 144.933C134.278 144.193 135.101 143.699 138.104 141.437C138.886 140.82 139.709 140.408 139.873 140.49C140.079 140.614 141.107 139.709 142.136 138.557C143.206 137.364 143.946 136.623 143.781 136.952C143.576 137.323 143.617 137.446 143.905 137.24C144.193 137.076 144.399 136.582 144.399 136.13C144.399 135.677 144.687 135.225 145.016 135.101C145.592 134.854 146.291 133.085 146.743 130.617C146.867 129.918 147.114 129.095 147.319 128.683C147.525 128.313 147.525 127.202 147.278 126.009C146.702 123.335 146.702 123.377 145.921 121.813C145.55 121.073 145.345 120.209 145.509 119.962C145.633 119.715 145.633 119.633 145.468 119.756C145.139 120.085 143 118.111 142.63 117.123C142.465 116.712 142.177 116.506 141.93 116.63C141.724 116.753 141.519 116.671 141.519 116.383C141.519 116.095 141.437 115.971 141.272 116.095C141.149 116.218 140.202 116.054 139.174 115.766C136.993 115.108 137.076 115.108 134.319 115.807ZM141.107 124.734C141.107 126.051 137.816 131.399 136.747 131.81C136.418 131.933 136.171 132.345 136.171 132.715C136.171 133.127 136.047 133.291 135.883 133.168C135.471 132.756 133.661 134.566 133.99 135.06C134.114 135.307 134.031 135.348 133.743 135.183C133.497 135.019 132.756 135.389 132.057 136.13C131.357 136.788 130.823 137.24 130.823 137.117C130.823 136.994 130.576 137.117 130.288 137.364C129.383 138.063 129.136 137.405 129.835 136.13C130.164 135.471 130.411 134.813 130.37 134.69C130.37 134.525 130.493 134.278 130.699 134.155C131.316 133.702 133.291 130.864 133.291 130.452C133.291 130.206 133.497 130 133.743 130C133.99 130 134.073 129.712 133.949 129.342C133.826 129.013 133.867 128.807 134.073 128.93C134.278 129.054 134.854 128.56 135.389 127.861C135.924 127.161 136.911 126.092 137.569 125.516C138.228 124.94 138.968 124.24 139.174 123.994C139.421 123.788 139.956 123.541 140.367 123.541C140.943 123.5 141.107 123.747 141.107 124.734ZM141.107 139.215C141.107 139.297 140.778 139.627 140.408 139.914C139.75 140.449 139.709 140.408 140.243 139.75C140.778 139.092 141.107 138.886 141.107 139.215Z" fill="#754D2A"/>
<path d="M174.966 116.548C174.842 116.754 174.719 118.44 174.678 120.292C174.678 122.349 174.431 123.871 174.102 124.241C173.402 125.064 169.453 131.728 169.371 132.263C169.33 132.469 169 132.88 168.671 133.168C168.342 133.415 168.054 133.785 168.054 133.991C168.054 134.197 167.561 134.896 166.902 135.554C166.285 136.254 165.874 137.035 165.997 137.323C166.121 137.611 166.038 137.776 165.874 137.652C165.709 137.57 165.01 138.311 164.352 139.38C162.624 142.178 161.842 142.959 161.554 142.219C161.431 141.89 161.513 141.396 161.678 141.108C162.048 140.491 161.76 139.38 161.266 139.668C161.102 139.792 160.855 139.504 160.731 139.01C160.608 138.516 160.731 138.105 161.102 137.94C161.472 137.817 161.554 137.57 161.307 137.241C161.102 136.994 160.814 135.102 160.649 133.086C160.402 129.671 159.374 126.216 158.222 124.694C158.016 124.406 157.769 123.871 157.687 123.459C157.564 122.595 154.766 120.045 154.273 120.333C154.026 120.456 153.655 120.456 153.367 120.292C153.08 120.127 152.339 119.921 151.722 119.839C150.364 119.716 150.405 119.345 150.323 126.915C150.2 134.855 149.912 139.997 149.336 143.165C148.184 149.747 148.019 151.311 148.225 153.038C148.595 156.33 149.007 158.181 149.418 158.675C149.665 158.963 149.706 159.209 149.5 159.209C149.295 159.209 149.583 159.456 150.159 159.744C150.735 160.073 151.845 160.279 152.627 160.197C153.409 160.156 154.396 160.073 154.807 160.073C155.219 160.032 155.424 159.868 155.301 159.621C155.178 159.374 155.342 159.333 155.671 159.456C156.042 159.58 156.33 159.497 156.33 159.25C156.33 159.004 156.617 158.921 156.947 159.045C157.276 159.168 158.016 158.921 158.633 158.428C159.209 157.975 159.909 157.687 160.114 157.811C160.32 157.934 160.937 157.728 161.472 157.399C162.048 157.029 162.5 156.864 162.5 156.988C162.5 157.152 162.83 156.864 163.282 156.412C163.693 155.918 164.146 155.63 164.311 155.795C164.434 155.918 164.557 155.671 164.557 155.178C164.557 154.519 164.722 154.355 165.257 154.561C165.668 154.725 165.833 154.643 165.668 154.396C165.38 153.944 167.561 151.804 168.301 151.804C168.507 151.804 168.671 151.516 168.671 151.187C168.671 150.858 169.33 150.076 170.111 149.459C170.893 148.842 171.551 148.102 171.551 147.896C171.551 147.649 171.962 147.279 172.497 147.073C172.991 146.826 173.402 146.333 173.402 145.963C173.402 145.592 173.814 144.893 174.349 144.399C174.842 143.947 175.254 143.288 175.254 142.959C175.254 142.63 175.459 142.342 175.665 142.342C175.912 142.342 176.076 142.054 176.076 141.643C176.076 141.273 176.2 141.108 176.323 141.232C176.57 141.478 178.504 138.269 178.75 137.241C178.915 136.377 179.532 135.143 179.861 134.896C180.067 134.773 180.273 134.114 180.396 133.456C180.478 132.798 180.766 131.152 180.972 129.795C181.548 126.668 181.548 121.485 181.013 121.156C180.807 121.032 180.602 120.538 180.602 120.127C180.602 119.716 180.273 119.14 179.902 118.934C179.491 118.687 179.326 118.482 179.491 118.482C180.067 118.482 178.75 117.371 177.804 117.083C177.311 116.918 176.981 116.589 177.105 116.383C177.269 116.178 176.858 116.054 176.282 116.095C175.665 116.178 175.089 116.342 174.966 116.548Z" fill="#754D2A"/>
<path d="M15.921 122.266C16.0033 122.471 15.5919 122.595 14.9748 122.595C13.2058 122.595 9.00962 123.911 8.76279 124.528C8.63937 124.816 8.18684 125.063 7.77544 125.063C7.32291 125.063 6.87038 125.351 6.74696 125.68C6.58241 126.009 6.25329 126.297 5.92418 126.297C5.26595 126.297 2.46848 128.683 2.46848 129.259C2.46848 129.465 2.18051 129.917 1.85139 130.247C0.740633 131.357 1.19316 132.345 3.90835 135.101C6.37671 137.611 10.5318 140.696 11.478 140.696C11.6837 140.696 12.5476 141.066 13.3704 141.56C15.3451 142.753 19.7058 143.205 23.6552 142.671C26.3704 142.3 27.5634 141.93 27.5634 141.478C27.5634 141.272 27.8925 141.107 28.3039 141.107C29.3735 141.107 32.4178 139.05 32.6235 138.145C32.747 137.734 33.1995 137.405 33.652 137.405C34.7628 137.405 35.7913 136.129 35.5033 135.019C35.3799 134.525 35.0508 134.114 34.8039 134.114C34.5159 134.114 33.8989 133.743 33.4463 133.332C32.9115 132.838 32.2533 132.592 31.7185 132.756C31.2659 132.879 30.8546 132.797 30.8546 132.592C30.8546 132.221 26.9463 131.481 22.3387 130.987C20.8989 130.823 19.747 130.535 19.747 130.37C19.747 129.876 22.6678 129.917 25.8767 130.452C28.8387 130.905 32.5001 130.617 33.6109 129.794C34.2691 129.3 34.1457 129.095 32.2122 127.161C31.0191 126.009 29.8672 125.063 29.5792 125.063C29.3324 125.063 28.8799 124.816 28.633 124.528C27.728 123.417 24.19 122.512 19.9527 122.224C17.6077 122.101 15.7976 122.101 15.921 122.266Z" fill="#76B523"/>
<path d="M54.9208 129.671C51.0537 130.659 51.0537 130.659 51.1772 133.251C51.2594 134.526 51.3417 136.13 51.3829 136.871C51.424 137.57 51.712 138.434 52.0411 138.804C52.3702 139.133 52.6582 139.792 52.6582 140.285C52.6582 141.89 53.9335 145.675 54.7563 146.497C55.1677 146.909 55.5379 147.567 55.5379 147.937C55.5379 148.966 57.7594 151.928 60.3512 154.273C64.6708 158.222 69.6075 159.827 77.2183 159.785C83.6772 159.703 84.5822 159.045 82.9366 155.63C81.867 153.491 74.0917 145.633 73.0221 145.633C72.693 145.633 72.405 145.345 72.405 145.016C72.405 144.687 72.117 144.399 71.7879 144.399C71.4177 144.399 71.0474 144.111 70.924 143.782C70.7594 143.453 70.4715 143.289 70.1835 143.453C69.9366 143.577 69.8544 143.577 70.0189 143.371C70.1835 143.206 69.9778 142.754 69.6075 142.383C69.1961 142.013 69.0727 141.849 69.3196 142.013C69.6075 142.178 70.2246 142.383 70.7594 142.466C71.2531 142.548 71.9113 142.918 72.1993 143.289C72.4873 143.659 72.8575 143.823 73.0221 143.659C73.2278 143.494 73.1866 143.618 73.0221 143.947C72.7753 144.399 72.8575 144.482 73.3512 144.276C73.7626 144.111 74.0506 144.235 74.0506 144.523C74.0506 144.811 74.5442 145.345 75.2025 145.716C75.8196 146.086 77.5063 147.444 78.905 148.719C82.4018 151.763 83.7183 152.421 85.0347 151.845C85.8575 151.475 86.0221 151.187 85.8164 150.447C85.6518 149.953 85.3639 148.472 85.1993 147.197C85.0347 145.88 84.5822 144.482 84.212 144.07C83.8417 143.659 83.5126 142.918 83.5126 142.425C83.5126 141.931 83.0601 141.108 82.4841 140.614C81.9082 140.121 81.4556 139.463 81.4556 139.133C81.4556 138.393 75.9018 133.168 74.9556 133.045C74.462 133.004 72.2816 132.058 70.5949 131.194C67.3037 129.507 58.9113 128.684 54.9208 129.671Z" fill="#5B9C38"/>
<path d="M258.601 129.877C256.832 130.165 254.693 130.782 253.87 131.193C253.048 131.604 251.69 132.263 250.867 132.592C247.7 133.99 243.544 138.228 241.858 141.848C241.158 143.37 240.294 145.098 240.006 145.674C239.719 146.25 239.431 147.896 239.348 149.377C239.225 151.804 239.307 152.009 240.13 152.133C241.323 152.297 243.092 151.351 245.684 149.089C249.88 145.468 250.456 145.016 250.785 144.934C250.95 144.892 251.237 144.563 251.361 144.193C251.484 143.823 251.731 143.535 251.896 143.535C252.965 143.658 253.418 143.535 253.212 143.165C253.048 142.918 253.089 142.794 253.294 142.835C253.459 142.877 254.241 142.589 254.981 142.218C256.298 141.478 256.339 141.478 255.804 142.342C255.516 142.794 255.146 143.165 254.981 143.165C254.775 143.165 254.282 143.535 253.829 143.987C253.377 144.44 253.006 144.728 253.006 144.604C253.006 144.152 247.453 149.13 244.779 151.927C241.241 155.712 240.624 157.481 242.351 159.003C242.927 159.579 243.956 159.703 247.124 159.744C253.253 159.744 255.393 159.456 258.848 158.016C262.427 156.494 266.5 153.12 268.557 149.87C271.108 145.921 273.412 139.256 274.152 133.826C274.44 131.687 273.617 130.535 271.313 129.918C268.845 129.301 262.263 129.259 258.601 129.877Z" fill="#76B523"/>
<path d="M278.924 145.839C277.895 146.374 276.497 146.949 275.756 147.073C275.057 147.237 274.111 147.649 273.699 148.019C273.288 148.431 272.424 149.006 271.725 149.336C270.161 150.117 259.177 160.772 259.177 161.554C259.177 161.842 258.971 162.089 258.725 162.089C258.272 162.089 257.079 163.076 254.323 165.668C253.541 166.408 252.801 167.025 252.636 167.025C252.183 167.025 248.481 170.563 248.481 171.016C248.481 171.263 247.946 171.674 247.247 171.921C246.589 172.127 246.013 172.538 246.013 172.744C246.013 172.991 245.807 173.196 245.56 173.196C245.313 173.196 244.573 173.608 243.914 174.101C243.297 174.636 241.652 175.87 240.294 176.899C238.937 177.927 237.826 178.997 237.785 179.244C237.785 179.532 237.497 179.779 237.168 179.779C236.839 179.779 235.933 180.437 235.152 181.218C234.329 182 233.301 182.658 232.807 182.658C232.354 182.658 231.449 182.987 230.873 183.44C229.269 184.51 225.978 185.662 225.237 185.415C224.908 185.25 224.62 185.291 224.62 185.456C224.62 186.237 220.589 186.608 213.801 186.567C207.959 186.525 206.354 186.361 206.066 185.908C205.408 184.88 205.655 184.345 207.054 183.728C207.753 183.399 209.193 182.329 210.221 181.342C211.291 180.355 212.69 179.12 213.348 178.544C214.047 177.968 214.706 177.187 214.87 176.775C214.994 176.405 215.57 175.912 216.145 175.665C216.68 175.459 217.626 174.636 218.244 173.855C218.861 173.032 219.601 172.374 219.93 172.374C220.712 172.374 226.266 167.478 226.266 166.779C226.266 166.449 226.513 166.203 226.801 166.203C227.089 166.203 227.582 165.832 227.911 165.339C228.24 164.845 228.94 164.31 229.475 164.105C229.968 163.899 230.38 163.487 230.38 163.158C230.38 162.87 230.75 162.5 231.244 162.377C231.696 162.253 232.19 161.76 232.313 161.307C232.437 160.855 232.766 160.402 233.095 160.279C233.424 160.155 233.671 159.662 233.671 159.209C233.671 158.756 233.876 158.386 234.082 158.386C234.329 158.386 234.494 158.016 234.494 157.605C234.494 157.152 234.699 156.658 234.946 156.494C235.275 156.288 235.358 155.26 235.152 153.162C234.905 149.829 234.452 149.13 232.025 147.937C230.626 147.279 230.544 147.279 229.886 148.101C229.516 148.554 228.899 148.924 228.57 148.924C228.199 148.924 227.335 149.459 226.718 150.117C226.06 150.775 224.538 151.763 223.345 152.339C222.111 152.915 220.753 153.737 220.342 154.231C219.889 154.684 219.272 155.095 218.943 155.095C218.367 155.095 216.104 156.535 215.364 157.399C214.829 158.016 211.003 160.032 210.345 160.032C210.057 160.032 209.81 160.196 209.81 160.443C209.81 160.649 209.152 160.937 208.37 161.101C207.589 161.225 206.93 161.513 206.93 161.677C206.93 161.883 206.354 162.13 205.655 162.294C204.956 162.459 203.927 162.829 203.31 163.158C202.693 163.487 201.706 163.734 201.089 163.734C200.43 163.734 199.937 163.899 199.937 164.146C199.937 164.351 199.484 164.557 198.949 164.557C198.414 164.557 197.756 164.845 197.468 165.174C197.18 165.503 196.604 165.791 196.193 165.791C195.74 165.791 195.411 165.956 195.411 166.203C195.411 166.408 194.918 166.737 194.301 166.861C193.683 167.025 192.902 167.396 192.614 167.684C192.326 168.013 191.339 168.424 190.475 168.671C189.57 168.918 188.829 169.288 188.829 169.494C188.829 169.741 188.623 169.905 188.377 169.905C188.13 169.905 187.183 170.563 186.237 171.345C185.332 172.127 184.263 172.785 183.933 172.785C183.111 172.826 181.835 173.772 181.835 174.307C181.835 174.554 181.218 175.048 180.478 175.377C178.75 176.199 173.608 180.889 173.608 181.63C173.608 181.959 173.114 182.576 172.497 183.029C170.975 184.18 169.082 186.073 169.082 186.484C169.082 186.649 168.547 187.389 167.848 188.13C167.19 188.87 166.614 189.734 166.614 190.105C166.614 190.475 166.326 191.01 165.997 191.298C165.215 191.956 165.215 193.313 165.956 193.601C166.285 193.725 166.778 194.424 167.066 195.124C167.354 195.864 167.848 196.687 168.136 196.975C168.424 197.263 168.671 197.798 168.671 198.127C168.671 198.456 169.041 199.402 169.494 200.225C169.946 201.089 170.316 202.076 170.316 202.487C170.316 202.858 170.563 203.351 170.851 203.516C171.18 203.681 171.551 204.462 171.674 205.203C171.839 205.943 172.25 206.848 172.579 207.177C172.908 207.548 173.196 208.288 173.196 208.864C173.196 209.44 173.484 210.551 173.854 211.374C174.225 212.237 174.677 213.266 174.842 213.718C175.377 214.912 176.035 218.326 176.323 221C176.446 222.317 176.734 223.386 176.94 223.386C177.145 223.386 177.31 223.921 177.31 224.579C177.31 225.196 177.475 226.266 177.68 226.924C177.886 227.582 178.174 229.022 178.297 230.092C178.421 231.203 178.668 232.313 178.873 232.56C179.12 232.848 179.408 234.041 179.573 235.193C179.737 236.386 180.025 237.497 180.231 237.62C180.93 238.032 181.835 236.88 181.835 235.563C181.835 234.823 182.041 234.041 182.329 233.753C182.576 233.506 182.864 232.684 182.946 231.943C183.028 231.203 183.358 230.38 183.687 230.133C184.016 229.886 184.304 229.475 184.304 229.269C184.304 229.022 184.88 227.87 185.538 226.636C186.237 225.402 186.978 223.921 187.225 223.263C187.471 222.646 187.924 222.152 188.212 222.152C188.541 222.152 188.829 221.741 188.911 221.247C188.994 220.712 189.528 220.095 190.145 219.766C190.763 219.478 191.668 218.737 192.244 218.079C192.778 217.421 193.601 216.763 194.095 216.639C194.589 216.475 195 216.063 195 215.775C195 215.446 195.494 215.035 196.152 214.912C196.769 214.747 197.551 214.418 197.88 214.13C198.209 213.842 198.99 213.513 199.649 213.348C200.266 213.225 200.759 212.896 200.759 212.69C200.759 212.443 201.13 212.279 201.541 212.279C201.994 212.279 202.446 212.114 202.57 211.908C202.693 211.744 203.68 211.332 204.75 211.044C205.861 210.756 206.93 210.386 207.136 210.222C207.383 210.057 208.494 209.769 209.604 209.605C210.756 209.44 211.744 209.152 211.867 208.987C211.99 208.782 213.142 208.535 214.459 208.453C215.775 208.329 217.092 208.041 217.38 207.794C217.668 207.548 219.313 207.301 221 207.26C222.728 207.177 224.044 207.013 223.962 206.848C223.839 206.684 224.661 206.478 225.731 206.313C228.899 205.943 232.395 204.915 234.37 203.845C235.358 203.269 236.386 202.817 236.674 202.817C236.962 202.817 237.62 202.446 238.114 201.994C238.608 201.541 239.266 201.171 239.636 201.171C240.006 201.171 240.376 200.883 240.5 200.554C240.664 200.225 241.117 199.937 241.528 199.937C241.94 199.937 242.31 199.772 242.31 199.567C242.31 199.361 242.845 198.991 243.544 198.785C245.025 198.25 247.699 196.275 247.452 195.864C247.37 195.699 247.823 195.247 248.522 194.836C249.18 194.465 249.715 193.972 249.715 193.807C249.715 193.601 250.373 193.149 251.196 192.737C252.019 192.367 252.801 191.668 252.883 191.256C253.006 190.845 253.459 190.475 253.87 190.475C254.323 190.475 254.611 190.228 254.528 189.94C254.487 189.693 254.693 189.487 254.981 189.57C255.31 189.611 255.639 189.364 255.763 188.953C255.845 188.541 256.585 187.76 257.326 187.184C258.108 186.608 258.848 185.785 259.013 185.332C259.136 184.88 260.082 183.728 261.07 182.782C262.057 181.836 262.88 180.848 262.88 180.601C262.88 180.396 263.168 180.19 263.538 180.19C263.867 180.19 264.402 179.573 264.731 178.832C265.019 178.133 265.677 177.269 266.13 176.981C266.623 176.693 266.994 176.241 266.994 175.912C266.994 175.582 267.282 175.253 267.611 175.089C267.94 174.965 268.228 174.472 268.228 174.019C268.228 173.567 268.516 173.196 268.886 173.196C269.215 173.196 269.873 172.415 270.326 171.345C270.778 170.317 271.313 169.494 271.56 169.494C271.766 169.494 272.136 169.041 272.342 168.465C272.547 167.889 273.041 167.313 273.37 167.19C273.699 167.025 273.987 166.696 273.987 166.408C273.987 166.162 274.358 165.586 274.81 165.174C275.263 164.763 275.633 164.105 275.633 163.734C275.633 163.323 275.921 162.788 276.25 162.5C276.579 162.212 276.867 161.718 276.867 161.43C276.867 161.101 277.073 160.855 277.278 160.855C277.525 160.855 277.69 160.567 277.69 160.196C277.69 159.867 277.895 159.703 278.101 159.826C278.348 159.949 278.513 159.703 278.513 159.25C278.513 158.798 278.677 158.345 278.883 158.222C279.089 158.057 279.664 157.193 280.117 156.206C280.611 155.218 281.31 154.067 281.68 153.614C283.367 151.804 284.683 149.747 284.683 149.048C284.683 148.595 284.848 148.101 285.054 147.896C285.259 147.649 285.506 146.908 285.589 146.25L285.712 145.016L283.244 144.934C281.351 144.893 280.323 145.098 278.924 145.839Z" fill="#8E6A46"/>
<path d="M41.2629 145.509C40.6458 145.756 40.5635 147.114 41.1395 147.484C41.3863 147.607 41.5509 148.019 41.5509 148.348C41.5509 148.965 43.6078 152.338 44.1426 152.544C44.3072 152.626 44.4306 152.997 44.4306 153.326C44.4306 153.696 44.8832 154.601 45.4591 155.342C46.0351 156.082 46.4876 156.864 46.4876 157.069C46.4876 157.275 46.9401 157.933 47.5161 158.55C48.092 159.168 48.5445 159.826 48.5445 160.073C48.5445 160.278 48.7502 160.443 48.9559 160.443C49.2028 160.443 49.3673 160.69 49.3673 160.978C49.3673 161.266 49.861 162.13 50.5192 162.911C51.1363 163.693 51.918 164.886 52.2471 165.585C53.1521 167.478 55.168 170.399 56.3199 171.592C57.6363 172.867 60.0635 176.364 60.0635 176.899C60.0635 177.145 60.3515 177.31 60.6806 177.31C61.0509 177.31 61.5445 177.804 61.8325 178.421C62.0794 179.079 63.2313 180.56 64.3832 181.712C67.0572 184.509 69.6078 187.471 70.0604 188.212C70.2249 188.541 70.6363 188.829 70.9243 188.829C71.1711 188.829 72.2819 189.611 73.3104 190.557C76.7661 193.807 78.1237 195 78.3294 195C78.4116 195 79.2756 195.74 80.2218 196.645C81.168 197.55 82.1964 198.291 82.5256 198.291C82.8547 198.291 83.1015 198.456 83.1015 198.702C83.1015 198.908 83.4718 199.114 83.9243 199.114C84.3768 199.114 85.0762 199.484 85.4465 199.937C85.8578 200.389 86.4749 200.759 86.8863 200.759C87.2977 200.759 87.6268 200.924 87.6268 201.13C87.6268 201.335 88.0794 201.623 88.6553 201.747C89.2313 201.911 89.6838 202.199 89.6838 202.405C89.6838 202.652 90.0129 202.816 90.4243 202.816C90.8357 202.816 91.9876 203.187 92.9749 203.68C95.2376 204.791 97.8705 205.449 103.795 206.478C106.427 206.93 108.937 207.465 109.389 207.712C109.842 207.959 110.459 208.082 110.747 207.959C111.57 207.63 117.165 208.864 118.193 209.604C118.687 209.933 119.51 210.221 120.003 210.221C120.538 210.221 121.279 210.386 121.69 210.55C122.06 210.756 123.212 211.291 124.241 211.744C128.602 213.677 130.576 214.747 132.386 216.187C134.032 217.462 136.994 220.506 136.994 220.918C136.994 221.123 137.364 221.411 137.817 221.535C138.269 221.658 138.639 222.111 138.639 222.522C138.639 222.933 138.969 223.55 139.38 223.921C139.791 224.291 140.655 225.772 141.355 227.171C142.013 228.611 142.671 229.845 142.836 229.968C142.959 230.092 143.371 231.285 143.782 232.642C144.152 234 144.605 235.481 144.81 235.933C145.551 237.702 146.456 241.816 146.662 244.367C146.744 245.848 146.991 248.275 147.114 249.797C147.402 252.883 146.086 269.462 145.551 269.462C145.386 269.462 145.222 270.449 145.222 271.601C145.222 273.946 144.317 279.829 143.576 282.626C143.329 283.573 143.041 285.218 143 286.329C142.918 287.399 142.63 288.921 142.424 289.661C142.177 290.443 141.684 292.623 141.314 294.557C140.943 296.49 140.203 299.617 139.668 301.55C138.434 305.994 137.57 309.408 137.076 312.041C136.829 313.152 136.541 314.509 136.377 315.003L136.089 315.949H162.871C178.174 315.949 189.652 315.785 189.652 315.579C189.652 315.373 189.2 312.781 188.583 309.819C188.007 306.857 187.636 304.266 187.76 304.06C187.883 303.895 187.719 302.702 187.389 301.509C187.019 300.275 186.484 297.807 186.196 295.997C185.867 294.187 185.333 291.307 185.003 289.62C184.098 285.177 182.782 277.607 182.206 273.781C181.959 271.971 181.465 269.297 181.136 267.816C180.314 263.949 179.038 256.997 179.038 256.297C178.956 254.899 178.421 251.937 178.133 251.566C177.927 251.319 177.681 250.044 177.516 248.687C177.352 247.329 176.94 245.025 176.652 243.544C176.323 242.063 175.871 239.842 175.624 238.607C175.418 237.373 175.048 235.522 174.842 234.494C174.595 233.465 174.143 230.873 173.814 228.734C173.484 226.595 172.95 223.921 172.579 222.81C172.25 221.699 171.962 220.218 171.962 219.56C171.962 217.709 170.317 211.744 169.658 211.209C169.329 210.962 169.083 210.345 169.083 209.892C169.083 209.44 168.918 208.905 168.671 208.781C168.465 208.658 168.26 208.082 168.26 207.506C168.26 206.93 167.972 206.19 167.643 205.861C167.314 205.49 167.026 204.832 167.026 204.338C167.026 203.351 163.117 196.316 160.69 192.861C159.744 191.585 158.345 189.611 157.564 188.459C156.782 187.307 155.877 186.361 155.63 186.361C155.342 186.361 155.095 186.196 155.095 185.99C155.095 185.744 154.231 184.674 153.162 183.563C152.051 182.411 150.446 180.725 149.541 179.778C148.636 178.832 147.361 177.557 146.662 176.94C145.181 175.541 138.722 171.345 137.446 170.933C136.994 170.81 136.583 170.399 136.583 170.069C136.583 169.74 136.212 169.494 135.76 169.494C135.307 169.494 134.937 169.329 134.937 169.123C134.937 168.918 133.703 168.218 132.181 167.601C130.617 166.943 129.342 166.285 129.26 166.12C129.177 165.914 128.766 165.791 128.355 165.791C127.943 165.791 127.491 165.626 127.367 165.462C127.244 165.256 125.927 164.763 124.446 164.351C122.965 163.981 121.649 163.487 121.526 163.281C121.402 163.076 120.867 162.911 120.374 162.911C119.839 162.911 118.81 162.5 118.029 161.965C117.247 161.471 115.725 160.607 114.573 160.031C113.462 159.456 112.475 158.88 112.393 158.674C112.31 158.509 111.94 158.386 111.611 158.386C111.241 158.386 109.965 157.728 108.772 156.946C107.579 156.164 106.51 155.506 106.345 155.506C106.181 155.506 105.522 155.054 104.823 154.478C104.165 153.902 103.26 153.449 102.807 153.449C102.396 153.449 102.026 153.326 102.026 153.12C102.026 152.626 95.2376 148.101 94.4148 148.101C94.0034 148.101 92.5635 149.376 91.4116 150.775C90.4654 151.927 90.6711 155.095 91.9053 157.645C92.7692 159.456 94.0857 160.978 97.7882 164.433C100.421 166.861 103.589 169.864 104.864 171.016C106.098 172.209 107.374 173.196 107.621 173.196C107.908 173.196 108.196 173.484 108.361 173.813C108.484 174.142 108.814 174.43 109.102 174.43C109.389 174.43 109.842 174.842 110.048 175.335C110.295 175.87 111.2 176.652 112.064 177.104C112.927 177.557 113.833 178.338 113.997 178.873C114.203 179.367 114.614 179.778 114.902 179.778C115.231 179.778 116.465 180.683 117.617 181.835C118.769 182.946 119.921 183.892 120.127 183.892C120.703 183.892 121.114 185.702 120.579 185.867C120.333 185.949 119.839 186.278 119.51 186.649C119.057 187.06 118.152 187.225 116.219 187.142C114.738 187.101 113.421 187.183 113.257 187.307C112.845 187.759 105.317 187.142 103.548 186.525C102.643 186.196 101.326 185.949 100.627 185.949C99.8863 185.949 98.611 185.579 97.7059 185.126C96.8009 184.674 95.7724 184.304 95.361 184.304C94.9496 184.304 94.6205 184.139 94.6205 183.933C94.6205 183.728 94.0034 183.44 93.2629 183.316C92.5224 183.193 91.4939 182.658 90.918 182.123C89.0256 180.395 86.1047 178.133 85.7756 178.133C85.2819 178.133 78.1648 172.332 78.1648 171.921C78.1648 171.715 77.918 171.55 77.63 171.55C77.3009 171.55 76.6427 171.098 76.1078 170.522C75.573 169.946 74.9971 169.494 74.8325 169.494C74.7091 169.494 73.804 168.794 72.9401 167.93C69.649 164.845 68.5382 163.94 67.7154 163.528C67.2629 163.281 66.6458 162.664 66.399 162.13C66.111 161.636 65.2471 160.484 64.4243 159.661C63.6015 158.797 63.0667 157.975 63.2313 157.769C63.437 157.604 63.3547 157.563 63.1078 157.687C62.6142 157.975 60.4749 156.247 60.4749 155.506C60.4749 155.3 60.187 155.095 59.8578 155.095C59.5287 155.095 59.2408 154.889 59.2408 154.683C59.2408 154.107 57.5952 152.462 56.649 152.092C56.2787 151.968 55.9496 151.639 55.9496 151.392C55.9496 151.187 55.7028 150.981 55.3737 150.981C55.0445 150.981 54.7154 150.857 54.6332 150.652C54.4686 150.323 51.9591 148.513 51.63 148.513C51.5066 148.513 50.7249 148.06 49.861 147.525C48.9971 146.99 47.7218 146.414 46.9813 146.25C46.2819 146.126 45.6648 145.797 45.6648 145.592C45.6648 145.221 42.168 145.139 41.2629 145.509Z" fill="#4E3425"/>
<path d="M18.9241 148.389C18.1424 148.512 17.4019 148.718 17.2785 148.841C17.1551 149.006 15.7152 149.582 14.1108 150.075C12.4652 150.61 11.1076 151.145 11.1076 151.31C11.1076 151.474 10.4082 151.968 9.58544 152.42C7.77532 153.367 6.99367 154.025 6.99367 154.642C6.99367 154.848 6.5 155.3 5.88291 155.588C5.26582 155.876 4.56646 156.493 4.31962 156.987C4.11392 157.439 3.41456 158.262 2.83861 158.838C1.02848 160.484 0 162.541 0 164.433C0 165.75 0.164557 166.202 0.617089 166.202C0.946203 166.202 1.23418 166.367 1.23418 166.613C1.23418 166.819 1.60443 167.025 2.05696 167.025C2.50949 167.025 2.87975 167.189 2.87975 167.436C2.87975 167.642 3.12658 167.848 3.4557 167.848C3.74367 167.848 4.23734 168.136 4.56646 168.506C5.18354 169.246 8.18671 170.563 8.92722 170.398C9.21519 170.316 9.87342 170.563 10.3671 170.892C12.3829 172.167 15.9209 172.867 19.3766 172.62C22.6677 172.373 25.7532 171.715 26.5348 171.057C26.7405 170.892 27.193 170.727 27.5633 170.727C29.0854 170.727 35.7911 165.256 35.7911 164.022C35.7911 163.734 36.2437 163.158 36.8196 162.746C37.3956 162.294 37.8481 161.553 37.8481 161.019C37.8481 160.484 38.0538 160.031 38.2595 160.031C38.8766 160.031 38.7532 159.414 37.8892 158.344C37.1899 157.481 36.7785 157.398 33.076 157.316C30.8133 157.275 27.5222 157.522 25.712 157.851C23.9019 158.139 21.9684 158.509 21.3924 158.55C20.8165 158.632 19.7057 158.838 18.8829 159.003C17.9778 159.167 17.2785 159.126 17.1139 158.879C16.9905 158.632 17.1962 158.55 17.6487 158.674C18.0601 158.797 19.0063 158.55 19.7468 158.18C20.4873 157.81 21.4747 157.439 21.9684 157.357C22.462 157.316 24.3956 156.987 26.3291 156.617C28.2627 156.246 30.5253 155.835 31.3892 155.712C32.212 155.588 32.9114 155.3 32.9114 155.094C32.9114 154.848 33.3639 154.683 33.8987 154.683C34.4335 154.683 34.9684 154.436 35.0918 154.148C35.3386 153.449 34.6804 151.803 34.1044 151.803C33.8576 151.803 33.1582 151.433 32.5411 151.022C31.9241 150.569 30.8956 150.075 30.1962 149.911C29.538 149.746 28.7975 149.458 28.5506 149.253C28.0981 148.924 21.7215 148.019 20.7753 148.183C20.5696 148.224 19.7057 148.307 18.9241 148.389Z" fill="#5B9C38"/>
<path d="M298.548 148.718C297.272 149.006 295.215 149.747 293.981 150.323C292.788 150.899 291.595 151.392 291.348 151.392C290.772 151.392 290.032 152.709 290.032 153.737C290.032 154.848 291.348 155.465 294.681 155.918C296.326 156.164 298.836 156.617 300.317 156.905C301.757 157.234 303.114 157.44 303.238 157.316C303.402 157.234 303.608 157.358 303.69 157.604C303.772 157.81 304.472 158.098 305.253 158.18C306.035 158.263 306.776 158.345 306.899 158.386C307.022 158.427 307.228 158.468 307.351 158.468C307.475 158.427 307.598 158.674 307.598 159.003C307.598 159.332 307.269 159.456 306.734 159.332C306.241 159.25 305.624 159.126 305.377 159.126C305.089 159.085 304.842 158.921 304.842 158.715C304.842 158.509 304.184 158.427 303.402 158.509C302.62 158.592 301.88 158.551 301.715 158.427C301.222 157.892 295.832 157.234 292.007 157.193C288.469 157.152 287.851 157.275 287.152 157.975C286.124 159.003 286.412 160.731 287.81 161.801C288.345 162.212 288.798 162.747 288.798 162.952C288.798 163.611 291.06 166.573 291.595 166.614C291.842 166.614 292.089 166.82 292.089 167.025C292.089 167.272 292.418 167.601 292.788 167.725C293.158 167.889 293.858 168.383 294.351 168.876C295.174 169.782 297.643 170.892 301.345 172.126C305.048 173.32 311.424 172.744 315.579 170.851C316.567 170.399 318.377 169.576 319.529 169.082C320.722 168.547 322.079 167.683 322.573 167.149C323.108 166.655 323.848 166.202 324.26 166.202C324.877 166.202 325 165.873 325 164.351C325 162.911 324.671 162.006 323.519 160.237C322.696 159.003 321.75 157.975 321.421 157.975C321.133 157.975 320.681 157.481 320.475 156.905C320.228 156.329 319.693 155.753 319.241 155.63C318.788 155.506 318.418 155.177 318.418 154.889C318.418 152.956 308.257 148.595 303.196 148.307C301.962 148.225 299.864 148.389 298.548 148.718Z" fill="#5B9C38"/>
<path d="M38.2597 173.937C37.478 173.978 36.4496 174.225 35.997 174.389C35.5445 174.595 34.1046 174.965 32.7882 175.253C31.5129 175.5 30.1964 175.994 29.8673 176.323C29.5382 176.652 29.0034 176.899 28.6742 176.899C28.3451 176.899 27.6046 177.351 26.9875 177.927C26.4116 178.462 25.9179 178.791 25.9179 178.668C25.9179 178.215 19.6647 184.839 18.8831 186.155C18.4306 186.813 18.1015 187.718 18.1015 188.089C18.1015 188.5 17.9369 188.829 17.7723 188.829C16.785 188.829 14.3989 195.946 14.3989 198.867C14.3989 200.266 14.5223 200.472 16.1679 201.171C17.1553 201.623 19.6236 202.158 21.6394 202.405C23.6553 202.652 26.0413 202.981 26.9464 203.146C27.8515 203.31 28.7977 203.434 29.0034 203.434C29.2502 203.392 30.8958 203.228 32.7059 203.063C36.6141 202.693 41.5097 201.294 41.8388 200.513C41.9622 200.184 42.3736 199.937 42.8261 199.937C43.2375 199.937 43.978 199.525 44.5129 198.991C45.0477 198.497 46.1584 197.551 47.0223 196.892C47.8451 196.234 48.5445 195.576 48.5445 195.37C48.5445 195.165 49.1616 194.383 49.9432 193.601C52.4116 191.133 55.4559 183.152 54.6742 181.136C54.3451 180.313 54.0983 180.19 52.3704 180.272C51.2597 180.354 50.1489 180.642 49.861 180.889C49.573 181.177 48.7502 181.424 48.1331 181.424C46.2818 181.424 43.0318 182.741 33.1173 187.472L31.8831 188.048L32.9116 187.225C34.6806 185.826 41.2217 182.041 43.7312 181.013C45.0065 180.478 46.0761 179.902 46.0761 179.737C46.0761 179.573 46.4875 179.285 46.9401 179.161C47.804 178.873 49.7375 176.981 49.7787 176.405C49.7787 175.87 46.5698 174.43 45.8704 174.677C45.5413 174.842 45.0065 174.718 44.7185 174.513C44.1426 174.019 40.6869 173.731 38.2597 173.937Z" fill="#76B523"/>
<path d="M280.981 174.101C279.952 174.348 278.8 174.554 278.43 174.554C278.06 174.595 277.813 174.76 277.937 174.883C278.019 175.048 277.607 175.253 276.99 175.336C275.55 175.5 275.221 176.981 276.332 178.215C276.949 178.956 282.462 181.836 283.202 181.836C283.655 181.836 293.323 187.842 293.323 188.171C293.323 188.212 291.512 187.389 289.332 186.279C282.421 182.823 277.361 180.972 273.987 180.643C271.889 180.437 270.819 180.478 270.614 180.766C269.832 181.918 270.737 187.019 271.889 188.294C272.3 188.747 272.794 189.652 272.918 190.31C273.247 191.75 275.838 195.412 276.579 195.412C276.867 195.412 277.278 195.823 277.484 196.317C277.731 196.851 278.307 197.427 278.842 197.674C279.335 197.88 279.747 198.25 279.747 198.456C279.747 198.991 281.063 199.896 281.886 199.937C282.256 199.937 282.832 200.184 283.12 200.472C284.93 202.241 293.487 203.886 297.19 203.187C298.3 202.981 299.329 202.899 299.493 203.022C299.864 203.228 305.294 202.241 307.721 201.5C310.601 200.595 311.383 197.427 309.614 193.972C309.243 193.272 308.956 192.326 308.956 191.791C308.956 191.298 308.791 190.886 308.544 190.886C308.338 190.886 308.133 190.639 308.133 190.31C308.133 189.981 307.886 189.446 307.598 189.158C307.269 188.87 306.693 187.924 306.281 187.06C305.911 186.237 305.418 185.538 305.212 185.538C305.006 185.538 304.842 185.25 304.842 184.921C304.842 184.098 299.123 178.339 297.93 177.968C297.437 177.804 297.025 177.516 297.025 177.351C297.025 176.899 295.133 176.076 294.145 176.076C293.693 176.076 293.323 175.912 293.323 175.747C293.323 175.582 292.459 175.212 291.389 174.924C290.278 174.636 288.838 174.225 288.139 174.019C286.576 173.525 283.449 173.567 280.981 174.101Z" fill="#76B523"/>
<path d="M72.6104 202.816C70.1009 203.269 67.0566 204.379 67.0566 204.914C67.0566 205.12 66.6864 205.284 66.2338 205.284C65.8224 205.284 65.2876 205.531 65.1231 205.819C64.9585 206.066 64.0535 206.807 63.1072 207.465C61.2971 208.699 59.6516 210.674 59.6516 211.62C59.6516 211.99 59.2813 212.443 58.8288 212.689C58.3762 212.936 58.006 213.389 58.006 213.718C58.006 214.006 57.5123 215.24 56.8952 216.474C55.4142 219.436 54.756 222.81 54.7148 227.541C54.7148 231.449 55.4142 234.493 56.3604 234.493C56.6072 234.493 56.7718 234.781 56.7718 235.152C56.7718 235.81 58.0883 235.769 63.3952 234.946C66.7275 234.411 75.2845 230.791 75.2845 229.927C75.2845 229.721 75.5724 229.433 75.9838 229.269C77.6705 228.61 81.8667 223.345 81.8667 221.864C81.8667 221.37 82.0313 220.917 82.1959 220.917C82.525 220.917 82.9364 219.848 83.8826 216.145C84.5408 213.595 84.4174 209.152 83.6357 206.683C83.0186 204.873 82.7718 204.503 82.1136 204.708C81.7022 204.832 81.1262 204.996 80.8383 205.038C79.6864 205.202 76.9712 207.506 73.4332 211.25C71.4174 213.43 69.7718 215.24 69.8129 215.364C69.8952 215.569 66.8921 218.778 66.7275 218.655C66.3572 218.367 71.3351 211.784 75.2845 207.341C76.5186 205.902 77.4648 203.68 76.9712 203.145C76.4775 202.61 74.6674 202.487 72.6104 202.816Z" fill="#76B523"/>
<path d="M248.193 202.734C247.658 203.063 247.946 204.874 248.522 204.874C248.728 204.874 248.892 205.244 248.892 205.738C248.892 206.19 249.468 207.177 250.167 207.877C250.908 208.576 252.389 210.386 253.5 211.867C254.61 213.348 255.804 214.87 256.091 215.241C258.025 217.627 257.12 217.298 254.816 214.747C250.826 210.386 246.917 206.519 246.465 206.519C246.259 206.519 245.807 206.272 245.519 205.984C244.984 205.45 242.927 204.462 242.392 204.462C242.186 204.462 241.734 205.491 241.322 206.725C240.664 208.576 240.582 209.646 240.788 213.184C241.117 217.791 241.693 219.931 243.585 223.263C244.984 225.69 249.016 229.969 249.921 229.969C250.25 229.969 250.538 230.133 250.538 230.298C250.538 230.462 251.566 231.079 252.8 231.614C254.035 232.149 255.063 232.725 255.063 232.848C255.063 232.972 256.174 233.342 257.531 233.589C258.889 233.877 260 234.247 260 234.412C260 234.782 264.772 235.728 266.5 235.728C267.117 235.728 268.063 235.44 268.557 235.07C269.338 234.535 269.462 234.206 269.215 233.013C269.05 232.19 269.133 231.614 269.379 231.614C269.585 231.614 269.997 230.75 270.243 229.722C270.778 227.582 270.285 222.646 269.256 220.095C268.968 219.313 268.598 217.956 268.433 217.133C268.31 216.269 267.94 215.323 267.61 214.994C267.281 214.665 266.993 214.294 266.993 214.212C266.993 213.965 264.566 210.181 263.455 208.658C263.085 208.165 262.509 207.753 262.221 207.753C261.933 207.753 261.481 207.383 261.234 206.972C261.028 206.519 260.164 205.943 259.383 205.655C258.601 205.367 257.943 204.956 257.943 204.791C257.943 204.627 257.572 204.462 257.12 204.462C256.667 204.462 256.297 204.298 256.297 204.133C256.297 203.969 255.228 203.598 253.952 203.351C250.003 202.529 248.728 202.405 248.193 202.734Z" fill="#76B523"/>
<path d="M42.1681 205.984C40.5637 206.149 37.8485 207.259 37.8485 207.794C37.8485 207.959 37.2314 208.329 36.532 208.617C35.051 209.234 31.6776 212.319 31.6776 213.06C31.6776 213.307 31.513 213.512 31.2662 213.512C31.0605 213.512 30.8548 213.883 30.8548 214.335C30.8548 214.788 30.7314 215.158 30.5668 215.158C30.0731 215.158 28.551 218.531 28.7156 219.19C28.7978 219.478 28.6333 220.012 28.3453 220.342C27.6048 221.247 27.6459 229.392 28.3864 231.079C28.9212 232.272 29.2092 232.437 30.5257 232.437C31.3485 232.437 32.4592 232.272 32.994 232.066C33.5288 231.861 34.8864 231.49 36.0383 231.243C38.1776 230.75 44.3073 227.829 45.0478 226.965C45.2947 226.677 45.9529 226.142 46.57 225.772C47.1459 225.361 47.8042 224.661 47.9276 224.168C48.0921 223.715 48.5858 222.933 48.9972 222.522C49.4086 222.111 49.7788 221.37 49.7788 220.918C49.7788 220.465 49.9434 220.095 50.1491 220.095C50.8485 220.095 51.5478 215.693 51.3421 212.402C51.0953 208.37 50.5193 207.342 48.7504 207.794C47.2282 208.206 43.8959 210.962 44.2662 211.497C44.3896 211.702 44.3073 211.826 44.1016 211.785C43.8548 211.702 43.6491 211.826 43.608 212.073C43.5668 212.278 43.2377 212.649 42.8263 212.895C41.9212 213.389 39.494 216.145 39.494 216.639C39.494 216.845 39.1238 217.256 38.6301 217.544C37.8896 218.038 37.8485 217.997 38.2187 217.297C38.4656 216.845 38.5067 216.392 38.3833 216.228C38.2599 216.104 38.3833 215.981 38.7124 215.981C39.3295 215.981 41.0162 213.718 40.8105 213.06C40.7693 212.854 40.9339 212.731 41.1807 212.772C41.4276 212.854 41.839 212.525 42.0858 212.114C42.3738 211.661 43.0731 210.838 43.7314 210.304C44.3485 209.769 45.0478 208.946 45.2535 208.535C45.8295 207.465 45.3358 205.696 44.4719 205.778C44.1016 205.819 43.0731 205.902 42.1681 205.984Z" fill="#5B9C38"/>
<path d="M129.548 235.113C127.944 235.278 125.228 236.389 125.228 236.924C125.228 237.088 124.611 237.458 123.912 237.746C122.431 238.363 119.057 241.449 119.057 242.189C119.057 242.436 118.893 242.642 118.646 242.642C118.44 242.642 118.235 243.012 118.235 243.465C118.235 243.917 118.111 244.287 117.947 244.287C117.453 244.287 115.931 247.661 116.095 248.319C116.178 248.607 116.013 249.142 115.725 249.471C114.985 250.376 115.026 258.522 115.766 260.208C116.301 261.401 116.589 261.566 117.906 261.566C118.728 261.566 119.839 261.401 120.374 261.196C120.909 260.99 122.266 260.62 123.418 260.373C125.557 259.879 131.687 256.958 132.428 256.094C132.675 255.806 133.333 255.272 133.95 254.901C134.526 254.49 135.184 253.791 135.307 253.297C135.472 252.844 135.966 252.063 136.377 251.651C136.788 251.24 137.159 250.499 137.159 250.047C137.159 249.594 137.323 249.224 137.529 249.224C138.228 249.224 138.928 244.822 138.722 241.531C138.475 237.499 137.899 236.471 136.13 236.924C134.608 237.335 131.276 240.091 131.646 240.626C131.769 240.832 131.687 240.955 131.482 240.914C131.235 240.832 131.029 240.955 130.988 241.202C130.947 241.408 130.618 241.778 130.206 242.025C129.301 242.518 126.874 245.275 126.874 245.768C126.874 245.974 126.504 246.386 126.01 246.674C125.269 247.167 125.228 247.126 125.599 246.427C125.845 245.974 125.887 245.522 125.763 245.357C125.64 245.234 125.763 245.11 126.092 245.11C126.709 245.11 128.396 242.848 128.19 242.189C128.149 241.984 128.314 241.86 128.561 241.901C128.807 241.984 129.219 241.655 129.466 241.243C129.754 240.791 130.453 239.968 131.111 239.433C131.728 238.898 132.428 238.075 132.633 237.664C133.209 236.594 132.716 234.825 131.852 234.908C131.482 234.949 130.453 235.031 129.548 235.113Z" fill="#76B523"/>
<path d="M279.253 205.943C278.431 206.724 281.393 211.332 282.339 210.756C282.586 210.633 282.627 210.674 282.503 210.921C282.174 211.456 283.203 212.895 283.943 212.895C284.231 212.937 284.437 213.183 284.355 213.471C284.272 213.8 284.478 214.335 284.807 214.706C285.918 215.981 286.041 216.598 285.013 215.652C284.478 215.158 283.861 214.87 283.738 215.035C283.573 215.158 283.45 214.952 283.45 214.541C283.45 213.636 278.472 208.699 276.991 208.123C276.374 207.918 275.386 207.835 274.728 207.959L273.576 208.247V212.484C273.576 214.87 273.741 216.886 273.988 217.009C274.234 217.133 274.399 217.791 274.399 218.408C274.399 219.848 275.345 222.234 276.209 222.974C276.579 223.262 276.867 223.715 276.867 223.962C276.867 224.497 278.554 226.266 279.089 226.266C279.253 226.266 279.953 226.8 280.693 227.5C281.393 228.158 282.627 229.022 283.45 229.392C284.231 229.762 285.383 230.338 286 230.668C286.617 230.997 288.057 231.367 289.209 231.49C290.361 231.614 291.389 231.902 291.513 232.066C291.636 232.272 292.706 232.437 293.899 232.437C295.997 232.437 296.12 232.354 296.655 231.079C297.396 229.351 297.437 220.753 296.696 220.012C296.45 219.766 296.203 219.149 296.203 218.737C296.203 218.326 295.833 217.503 295.38 216.927C294.927 216.351 294.557 215.487 294.557 214.993C294.557 214.541 294.064 213.677 293.529 213.142C292.953 212.607 292.5 211.99 292.5 211.743C292.5 211.003 289.086 208.164 288.222 208.164C287.769 208.164 287.111 207.876 286.7 207.506C285.219 206.19 280.076 205.079 279.253 205.943Z" fill="#5B9C38"/>
<path d="M106.756 212.114C104.494 212.443 102.601 212.855 102.519 213.101C102.437 213.307 101.984 213.513 101.491 213.513C100.997 213.513 99.7627 213.965 98.7342 214.541C97.7057 215.076 96.4716 215.734 95.9779 215.94C95.4842 216.187 94.826 216.722 94.538 217.215C94.25 217.668 93.7975 218.038 93.5095 218.038C93.2216 218.038 92.9747 218.203 92.9747 218.449C92.9747 218.655 92.7279 218.861 92.4399 218.861C91.6994 218.861 89.0253 221.741 88.6551 222.975C88.4905 223.551 87.9969 224.291 87.6266 224.62C87.2564 224.949 86.5981 225.978 86.1867 226.883C85.7342 227.788 85.2817 228.611 85.1171 228.734C84.7057 229.063 83.4716 232.807 83.0602 235.111C81.7848 242.022 81.6614 245.108 82.4431 247.535C82.8545 248.81 83.4716 249.756 84.0475 250.044C85.5285 250.785 88.9019 251.032 91.1235 250.538C92.2753 250.332 94.9494 249.798 97.1298 249.345C100.873 248.605 106.551 246.301 106.551 245.519C106.551 245.355 106.921 245.19 107.415 245.19C107.908 245.19 108.813 244.614 109.43 243.956C110.048 243.256 110.788 242.722 111.076 242.722C111.693 242.722 114.367 239.883 114.367 239.225C114.367 238.978 114.82 238.32 115.396 237.785C115.972 237.25 116.424 236.468 116.424 236.098C116.424 235.687 116.794 235.029 117.247 234.576C118.193 233.712 120.085 228.282 120.127 226.266C120.168 225.484 120.209 222.81 120.25 220.342L120.332 215.899L118.358 215.734C116.877 215.57 116.342 215.693 116.177 216.187C116.054 216.516 115.642 216.804 115.354 216.804C115.025 216.804 114.655 217.092 114.532 217.421C114.367 217.75 113.873 218.038 113.339 218.038C111.94 218.038 101.614 226.965 101.614 228.199C101.614 228.487 101.408 228.693 101.12 228.652C100.873 228.57 100.421 228.981 100.092 229.557C99.8038 230.133 99.557 230.38 99.557 230.174C99.557 229.927 99.3102 230.051 99.0222 230.38C98.364 231.203 97.4589 231.367 97.7469 230.586C97.9114 230.256 98.1583 229.968 98.364 229.968C98.5697 229.968 98.7342 229.804 98.7342 229.598C98.7342 229.022 102.19 225.279 107.044 220.465C109.472 218.079 111.487 215.899 111.487 215.652C111.487 215.364 111.611 215.158 111.816 215.158C112.31 215.158 112.31 212.608 111.858 211.991C111.57 211.703 111.282 211.497 111.117 211.497C110.994 211.538 109.019 211.826 106.756 212.114Z" fill="#5B9C38"/>
<path d="M213.019 212.649C212.402 213.39 212.402 213.554 213.184 215.076C213.636 216.064 215.735 218.326 218.079 220.466C220.301 222.522 222.152 224.291 222.193 224.374C222.193 224.497 223.016 225.443 224.045 226.472C225.032 227.541 225.855 228.652 225.855 228.94C225.855 229.269 226.266 229.845 226.801 230.257C227.295 230.668 227.747 231.285 227.829 231.614C227.912 231.984 227.5 231.82 226.801 231.162C226.184 230.586 225.197 229.804 224.621 229.434C224.086 229.022 223.757 228.734 223.921 228.734C224.086 228.734 223.633 228.076 222.934 227.295C222.193 226.513 221.329 225.855 221.042 225.855C220.712 225.855 220.548 225.69 220.671 225.526C220.918 225.073 216.804 221.494 216.228 221.659C215.981 221.741 215.899 221.659 216.064 221.494C216.228 221.329 215.323 220.383 214.007 219.437C212.731 218.45 211.415 217.421 211.127 217.216C210.839 216.969 209.852 216.475 208.905 216.146C207.589 215.693 206.89 215.652 205.82 216.022L204.462 216.475L204.504 219.602C204.545 222.769 204.874 225.69 205.655 229.146C206.437 232.766 206.602 233.26 207.178 233.712C207.507 233.959 207.754 234.535 207.754 234.988C207.754 235.399 208.042 235.852 208.371 235.975C208.7 236.14 208.988 236.592 208.988 237.003C208.988 238.361 215.076 244.121 218.038 245.56C219.519 246.301 221.371 247.247 222.152 247.659C222.934 248.111 224.004 248.44 224.497 248.481C224.991 248.481 225.896 248.687 226.513 248.893C227.13 249.14 229.598 249.716 231.985 250.168C237.209 251.197 240.788 251.073 241.652 249.88C243.421 247.494 242.722 234.412 240.624 230.874C240.212 230.133 239.842 229.269 239.842 228.981C239.842 228.652 239.554 228.2 239.225 227.912C238.896 227.624 238.608 226.966 238.608 226.472C238.608 225.937 238.197 225.155 237.662 224.744C237.127 224.333 236.345 223.386 235.893 222.605C234.947 220.959 232.725 218.45 232.149 218.45C231.943 218.45 231.244 217.874 230.586 217.216C229.928 216.516 229.064 215.981 228.652 215.981C228.241 215.981 227.912 215.776 227.912 215.57C227.912 215.323 227.542 215.159 227.089 215.159C226.678 215.159 225.978 214.829 225.567 214.377C224.867 213.678 222.769 212.855 222.029 213.06C221.823 213.102 221 212.937 220.178 212.69C219.355 212.443 217.545 212.155 216.187 212.032C214.089 211.867 213.636 211.95 213.019 212.649Z" fill="#5B9C38"/>
<path d="M195.288 235.193C195.123 235.317 195 235.728 195 236.057C195 236.428 194.712 237.045 194.342 237.456C193.684 238.114 193.684 238.197 194.342 238.443C194.712 238.567 195 238.937 195 239.225C195 239.513 195.288 239.966 195.658 240.254C196.481 240.953 197.345 242.516 196.646 242.105C196.316 241.899 196.316 242.064 196.687 242.64C196.975 243.133 197.345 243.421 197.468 243.339C197.633 243.257 197.756 243.421 197.756 243.75C197.756 244.573 196.275 244.532 195.987 243.75C195.823 243.421 195.494 243.133 195.165 243.133C194.835 243.133 194.589 242.845 194.589 242.516C194.589 242.228 194.342 241.776 194.013 241.611C193.19 241.118 192.449 239.513 192.696 238.69C192.984 237.826 192.655 237.374 191.215 236.428C189.858 235.564 189.981 235.564 188.87 236.51C188.089 237.168 188.006 237.744 187.924 241.118C187.842 244.943 188.541 248.893 189.282 248.893C189.487 248.893 189.652 249.181 189.652 249.51C189.652 249.839 190.022 250.292 190.475 250.538C190.927 250.785 191.298 251.238 191.298 251.526C191.298 252.307 194.959 255.064 196.316 255.352C196.934 255.475 197.674 255.845 197.921 256.133C198.168 256.462 198.908 256.709 199.566 256.709C200.225 256.709 200.76 256.874 200.76 257.08C200.76 257.285 201.5 257.614 202.364 257.861C204.051 258.273 204.873 257.943 204.873 256.833C204.873 256.545 205.079 256.298 205.285 256.298C205.532 256.298 205.696 255.804 205.696 255.228C205.696 254.652 205.861 254.282 206.066 254.447C206.684 254.817 206.354 246.424 205.737 244.779C205.408 243.997 204.997 242.845 204.791 242.269C204.133 240.418 200.348 236.839 197.756 235.605C196.07 234.823 195.699 234.782 195.288 235.193Z" fill="#76B523"/>
</g>
<defs>
<clipPath id="clip0_287_78">
<rect width="325" height="315.949" fill="white"/>
</clipPath>
</defs>
</svg>
