<svg width="134" height="150" viewBox="0 0 134 150" fill="none" xmlns="http://www.w3.org/2000/svg">
<g clip-path="url(#clip0_771_361)">
<path fill-rule="evenodd" clip-rule="evenodd" d="M0 110.978C1.82163 111.946 4.21252 113.426 5.9203 114.565C6.54649 114.992 7.25806 115.362 7.94118 115.789C8.3112 116.016 8.5389 116.13 8.88046 116.358C9.05123 116.472 9.19355 116.586 9.36433 116.671C9.56357 116.785 9.67742 116.842 9.87666 116.956L31.7932 130.447C32.1063 130.618 32.3909 130.817 32.7324 131.016L52.6281 143.284C52.8558 143.426 52.9412 143.455 53.1404 143.597L62.6471 149.432C63.074 149.66 63.2448 149.944 63.7286 149.973V75.6843L60.7116 73.9481C60.4269 73.8058 60.2562 73.6919 59.9715 73.5212L57.6091 72.1549C54.2505 70.3902 51.1195 68.227 47.7324 66.4623C47.3909 66.2916 47.277 66.1777 46.907 66.0069L43.8899 64.2707C43.1499 63.8153 39.7913 61.7944 39.1935 61.6521V73.3788L51.5465 80.5231C51.888 80.7223 52.1157 80.8646 52.4288 81.0354C52.7704 81.2062 52.9412 81.4054 53.3681 81.4908V131.785C51.2049 130.333 48.8994 129.024 46.6793 127.686L41.2998 124.356C39.1082 122.876 36.7457 121.652 34.5541 120.2C34.2979 120.03 34.1556 119.973 33.8994 119.802L29.1461 116.87C28.6338 116.586 28.2638 116.358 27.7799 116.016C26.0436 114.849 24.1651 113.825 22.4004 112.686C21.9165 112.373 21.518 112.174 21.0342 111.861C18.4156 110.096 15.5977 108.502 12.9222 106.88C12.6945 106.737 12.4953 106.595 12.296 106.453L10.2182 105.172V44.802C9.81973 44.5458 9.42125 44.3181 8.96584 44.062C8.51044 43.8058 8.16888 43.6066 7.71347 43.3219L1.3093 39.6787C0.825427 39.4225 0.455408 39.1379 0 38.9102V110.978Z" fill="white"/>
<path fill-rule="evenodd" clip-rule="evenodd" d="M69.8772 75.5699V104.118L73.6628 101.984C75.3991 101.073 76.993 99.9627 78.7292 99.0519C79.0423 98.8811 79.1562 98.8242 79.3839 98.6534C79.6116 98.5111 79.8393 98.4257 80.067 98.3119V81.4902C80.4085 81.4048 80.5224 81.3479 80.7786 81.1771C81.0347 81.0064 81.2055 80.9494 81.4617 80.8071C82.7994 80.0386 84.1087 79.1278 85.475 78.4447C87.3251 77.5339 89.0898 76.3954 90.8545 75.3422C91.3099 75.0861 91.6799 74.8583 92.1638 74.5737L94.8393 73.0652C95.1239 72.8944 95.2093 72.8375 95.4939 72.6667C96.6609 72.069 97.7425 71.272 98.938 70.6458L100.247 69.8773C100.475 69.735 100.703 69.6496 100.93 69.5358L109.669 64.4694C111.519 63.5016 113.226 62.3346 115.048 61.3669L117.752 59.773C118.663 59.2322 119.545 58.7483 120.456 58.179C120.94 57.8944 121.338 57.6952 121.765 57.4105L123.188 56.6136V105.314C122.79 105.399 122.676 105.541 122.335 105.741L119.83 107.278C119.574 107.448 119.374 107.591 119.061 107.79C118.72 107.989 118.492 108.16 118.207 108.331C117.894 108.502 117.724 108.644 117.41 108.815L114.877 110.323C112.6 111.633 110.465 113.113 108.188 114.422L101.528 118.549C101.215 118.748 101.044 118.834 100.731 119.033C97.7425 121.054 94.5547 122.733 91.5376 124.697C90.9968 125.067 90.4275 125.38 89.8867 125.722L81.5471 130.845C81.2909 130.987 81.0063 131.158 80.7501 131.329C78.2738 132.951 75.6837 134.346 73.2074 135.968L69.8203 138.046V150.001C70.3896 149.858 71.3004 149.175 71.8127 148.862C72.4958 148.435 73.1505 148.094 73.8336 147.638C75.7406 146.357 77.8184 145.304 79.7254 144.023C80.0955 143.796 80.3801 143.596 80.7216 143.397L85.7596 140.295C86.1011 140.096 86.3573 139.925 86.6989 139.726L113.511 123.217C113.881 122.989 114.194 122.79 114.507 122.591L132.41 111.576C132.752 111.348 133.094 111.149 133.435 110.978V39.0234C132.923 39.1373 132.837 39.3081 132.439 39.5358C132.069 39.735 131.813 39.8773 131.471 40.0766L125.522 43.5206C123.502 44.6022 121.623 45.9399 119.574 46.9646L103.663 56.1297C102.951 56.5282 102.382 56.8982 101.699 57.2967L98.7672 59.0045C96.6894 60.0576 93.6723 61.8508 91.7653 63.0462C91.4237 63.2739 91.1391 63.3593 90.7975 63.587L84.3364 67.3441C84.0518 67.4864 84.1087 67.4864 83.8241 67.6572L81.8032 68.7673C80.6078 69.3935 79.5547 70.162 78.3592 70.7881C78.0746 70.9305 78.0746 70.9874 77.8469 71.1012L75.826 72.2113C74.4882 72.8659 70.9588 75.3422 69.8772 75.5699Z" fill="white"/>
<path fill-rule="evenodd" clip-rule="evenodd" d="M3.95312 34.1271C4.35161 34.2125 4.57931 34.4402 4.94933 34.6395C6.28709 35.351 7.48254 36.2049 8.84876 36.888L19.6647 43.1499C24.8165 46.2808 30.1675 49.0702 35.3478 52.2011L36.3156 52.7419C36.6856 52.9412 36.9417 53.112 37.2833 53.2827L43.1751 56.6983C43.4313 56.8406 43.4028 56.8406 43.6021 56.9545C46.363 58.6338 49.2662 60.0569 51.9987 61.7932L60.7653 66.8311C61.1068 67.0304 61.363 67.2011 61.7045 67.4004C62.7292 68.0266 66.4009 70.2467 66.771 70.2467C67.3118 70.2467 70.4427 68.2543 71.2397 67.7704L72.7767 66.8596C73.289 66.5465 73.7444 66.3472 74.2567 66.0342C74.7975 65.7211 75.196 65.4934 75.7368 65.1803L78.7254 63.4156C79.2378 63.1025 79.6932 62.8748 80.177 62.5617L84.7027 60C84.9873 59.8577 85.1865 59.7154 85.4427 59.5731C85.6989 59.4023 85.8696 59.3169 86.1827 59.1461L89.1998 57.4099C89.6837 57.1252 90.2245 56.6983 90.7937 56.556C90.7083 56.2144 90.6514 56.2429 90.3668 56.0721L80.7178 50.5218C76.8753 52.5427 73.2321 54.9051 69.418 56.9829C69.1049 57.1537 68.8488 57.3245 68.5641 57.5237C67.9664 57.8937 67.4256 58.2068 66.7994 58.5484L60.993 55.1897C58.9721 54.1651 57.122 52.8273 55.1011 51.7742C54.6457 51.518 54.1903 51.2334 53.7918 51.0057L42.0082 44.2315C41.7805 44.0892 41.5812 43.9753 41.3535 43.833C41.0973 43.6622 40.9266 43.6053 40.6704 43.463L25.585 34.7533C25.3004 34.5825 25.2719 34.4972 24.8734 34.4118C25.1865 33.9564 25.5565 33.9279 26.0689 33.6148C26.4958 33.3302 26.8943 33.1879 27.3497 32.9317L40.4712 25.8444C40.7558 25.6736 40.7558 25.6452 41.0404 25.5028C41.325 25.3605 41.4674 25.3036 41.7235 25.1328C42.1789 24.8482 42.6343 24.649 43.0897 24.4213L59.456 15.5977C59.7406 15.4554 59.826 15.37 60.1106 15.1992L66.771 11.6414C67.141 11.6414 72.1789 14.5731 73.3459 15.1708C73.6305 15.3131 73.8298 15.3985 74.1144 15.5693C74.456 15.7685 74.5414 15.8539 74.9398 16.0247L93.0423 25.7875C94.6362 26.7837 99.4749 29.3169 101.183 30.1708C103.118 31.1385 104.968 32.3055 106.904 33.2732L117.663 39.1082C118.033 39.3074 118.147 39.3643 118.488 39.5636C119.769 40.3321 119.798 39.6774 121.875 38.5389L125.718 36.3472C126.401 35.9772 128.991 34.3264 129.589 34.1841C129.475 33.814 129.133 33.6717 128.792 33.4725L124.892 31.3378C122.928 30.3416 120.965 29.1176 119.001 28.1784L115.101 26.0436C113.763 25.3605 112.426 24.7343 111.173 23.9374L91.5053 13.3207C91.1068 13.1214 90.8791 13.0076 90.5376 12.7799L82.6248 8.51044C82.2548 8.3112 82.0271 8.16888 81.6571 7.96964C81.4579 7.85579 81.3725 7.82732 81.2017 7.74194L70.8127 2.10626C70.1581 1.70778 67.1125 0 66.7425 0C66.4294 0 64.2378 1.3093 63.7539 1.537L41.2397 13.7192C40.8696 13.8899 40.585 14.0323 40.2434 14.2315L24.4749 22.7419C24.1049 22.9412 23.9341 23.0835 23.5072 23.2827L22.0841 24.0512C21.7994 24.1935 21.7994 24.2505 21.5717 24.3643C21.2586 24.5636 20.9171 24.649 20.5755 24.8767L17.5584 26.499C17.16 26.6983 16.9607 26.8691 16.5907 27.0398L12.0082 29.5446C11.8374 29.63 11.8374 29.6015 11.6951 29.6869C11.0404 30.0569 10.3573 30.3131 9.73111 30.74C9.36109 30.9677 9.13339 31.0531 8.73491 31.2524L4.32314 33.7002C3.98159 33.8994 4.06698 33.7287 3.95312 34.1271Z" fill="white"/>
</g>
<defs>
<clipPath id="clip0_771_361">
<rect width="133.491" height="150" fill="white"/>
</clipPath>
</defs>
</svg>
