<?xml version="1.0" encoding="utf-8"?>
<!-- Generator: Adobe Illustrator 16.0.0, SVG Export Plug-In . SVG Version: 6.00 Build 0)  -->
<!DOCTYPE svg PUBLIC "-//W3C//DTD SVG 1.1//EN" "http://www.w3.org/Graphics/SVG/1.1/DTD/svg11.dtd">
<svg version="1.1" id="Layer_1" xmlns="http://www.w3.org/2000/svg" xmlns:xlink="http://www.w3.org/1999/xlink" x="0px" y="0px"
	 width="32px" height="32px" viewBox="0 0 32 32" enable-background="new 0 0 32 32" xml:space="preserve">
<circle fill-rule="evenodd" clip-rule="evenodd" fill="#FFAE0D" cx="15.917" cy="15.926" r="14.917"/>
<g>
	<g>
		<path fill-rule="evenodd" clip-rule="evenodd" fill="#FFF3E1" d="M12.243,24.549c-0.003-0.025-0.006-0.06-0.009-0.072
			c-0.241-0.112-0.475-0.212-0.701-0.326c-0.146-0.076-0.278-0.177-0.42-0.259c-0.078-0.045-0.166-0.071-0.245-0.113
			c-0.032-0.016-0.048-0.059-0.077-0.079c-0.112-0.079-0.219-0.18-0.344-0.223c-0.235-0.081-0.365-0.291-0.565-0.417
			c-0.202-0.127-0.363-0.321-0.535-0.494c-0.242-0.244-0.484-0.487-0.713-0.742c-0.133-0.148-0.248-0.315-0.359-0.481
			c-0.17-0.255-0.313-0.527-0.5-0.769c-0.099-0.129-0.124-0.281-0.211-0.403c-0.148-0.202-0.214-0.443-0.339-0.654
			c-0.113-0.191-0.122-0.402-0.205-0.594c-0.13-0.298-0.211-0.607-0.274-0.917c-0.085-0.417-0.137-0.842-0.179-1.264
			c-0.03-0.298-0.034-0.599-0.025-0.897c0.01-0.383,0.032-0.765,0.071-1.146c0.022-0.227,0.088-0.45,0.132-0.675
			c0.013-0.068,0.02-0.136,0.025-0.204c0.021-0.306,0.139-0.581,0.268-0.854c0.062-0.135,0.086-0.291,0.15-0.425
			c0.18-0.373,0.365-0.743,0.563-1.106c0.112-0.206,0.255-0.397,0.379-0.598c0.028-0.046,0.02-0.116,0.052-0.159
			c0.178-0.233,0.36-0.465,0.549-0.69c0.134-0.16,0.276-0.316,0.428-0.459c0.169-0.162,0.344-0.321,0.538-0.452
			C9.784,9.015,9.829,8.919,9.92,8.866c0.096-0.058,0.182-0.134,0.271-0.202c0.011-0.008,0.022-0.018,0.031-0.028
			c0.125-0.133,0.285-0.216,0.444-0.302c0.12-0.065,0.223-0.163,0.338-0.237c0.125-0.079,0.256-0.145,0.381-0.222
			c0.032-0.02,0.046-0.072,0.08-0.087c0.334-0.158,0.667-0.319,1.007-0.463c0.223-0.094,0.455-0.168,0.689-0.234
			c0.34-0.096,0.685-0.188,1.031-0.263c0.277-0.059,0.559-0.11,0.841-0.131c0.491-0.038,0.984-0.058,1.478-0.067
			c0.271-0.006,0.546,0.014,0.816,0.046c0.304,0.037,0.605,0.094,0.905,0.153c0.325,0.063,0.65,0.132,0.971,0.214
			c0.186,0.048,0.367,0.121,0.545,0.194c0.258,0.107,0.515,0.217,0.763,0.341c0.263,0.13,0.517,0.281,0.772,0.424
			c0.173,0.096,0.354,0.182,0.517,0.293c0.175,0.121,0.333,0.268,0.497,0.401c0.086,0.07,0.175,0.132,0.254,0.206
			c0.05,0.044,0.077,0.11,0.121,0.158c0.077,0.084,0.16,0.16,0.258,0.258c0.077,0.111,0.171,0.248,0.271,0.393
			c-0.338,0.267-0.679,0.534-1.025,0.807c-0.137-0.161-0.271-0.334-0.417-0.497c-0.375-0.405-0.813-0.724-1.302-0.974
			c-0.292-0.148-0.577-0.31-0.879-0.434c-0.331-0.138-0.67-0.299-1.018-0.343c-0.467-0.058-0.921-0.187-1.394-0.193
			c-0.475-0.007-0.949-0.042-1.422-0.031c-0.598,0.016-1.193,0.09-1.771,0.254c-0.458,0.129-0.915,0.272-1.368,0.422
			C12.459,8.77,12.33,8.866,12.19,8.929c-0.127,0.059-0.274,0.087-0.386,0.167s-0.229,0.152-0.341,0.234
			c-0.016,0.012-0.014,0.048-0.021,0.072c-0.158,0.017-0.713,0.433-0.742,0.554c-0.12,0.018-0.351,0.249-0.365,0.335
			c-0.071,0.059-0.126,0.093-0.166,0.14c-0.172,0.203-0.318,0.433-0.512,0.609c-0.244,0.222-0.39,0.501-0.552,0.773
			c-0.116,0.192-0.232,0.387-0.328,0.589c-0.129,0.272-0.248,0.55-0.355,0.831c-0.074,0.198-0.116,0.409-0.183,0.612
			c-0.025,0.077-0.08,0.144-0.118,0.217c-0.009,0.016-0.007,0.038-0.007,0.057c-0.001,0.104-0.001,0.208-0.001,0.313
			c0.001,0.139-0.018,0.271-0.103,0.387c-0.009,0.011-0.008,0.03-0.009,0.045c-0.017,0.259-0.042,0.518-0.046,0.777
			c-0.006,0.315-0.004,0.632,0.014,0.947c0.015,0.258,0.046,0.517,0.089,0.771c0.042,0.248,0.094,0.497,0.166,0.739
			c0.068,0.229,0.167,0.45,0.254,0.673c0.072,0.185,0.133,0.375,0.225,0.55c0.122,0.234,0.268,0.46,0.402,0.689
			c0.055,0.097,0.101,0.199,0.16,0.295c0.065,0.104,0.137,0.204,0.213,0.299c0.118,0.148,0.24,0.294,0.364,0.438
			c0.034,0.039,0.081,0.064,0.11,0.101c0.099,0.114,0.192,0.233,0.297,0.343c0.114,0.116,0.235,0.227,0.359,0.332
			c0.135,0.114,0.276,0.222,0.417,0.329c0.106,0.082,0.209,0.167,0.322,0.238c0.204,0.131,0.407,0.258,0.619,0.376
			c0.175,0.098,0.36,0.185,0.543,0.268c0.18,0.08,0.364,0.15,0.546,0.225c0.143,0.058,0.281,0.12,0.426,0.169
			c0.147,0.047,0.301,0.082,0.454,0.119c0.243,0.056,0.487,0.115,0.732,0.161c0.16,0.031,0.325,0.047,0.488,0.063
			c0.588,0.055,1.175,0.059,1.764,0.023c0.172-0.011,0.343,0.001,0.513-0.013c0.143-0.011,0.285-0.039,0.425-0.067
			c0.269-0.052,0.538-0.093,0.799-0.167c0.279-0.08,0.548-0.195,0.821-0.288c0.33-0.114,0.644-0.267,0.947-0.437
			c0.187-0.104,0.386-0.19,0.572-0.292c0.081-0.045,0.152-0.11,0.233-0.169c0.039-0.056,0.079-0.138,0.141-0.188
			c0.719-0.549,1.28-1.232,1.708-2.027c0.324-0.604,0.531-1.252,0.66-1.926c0.111-0.566,0.161-1.138,0.157-1.712
			c-0.002-0.22-0.027-0.439-0.042-0.668c-1.611,0-3.212,0-4.828,0c0,0.218,0,0.441,0,0.665c-0.002,0.401-0.006,0.803-0.004,1.204
			c0,0.073-0.015,0.104-0.094,0.104c-0.352-0.005-0.704-0.003-1.056-0.01c-0.059-0.001-0.116-0.033-0.183-0.053
			c-0.008-0.036-0.025-0.075-0.026-0.115c-0.014-1.062-0.027-2.122-0.04-3.195c0.079-0.005,0.143-0.011,0.206-0.011
			c1.975-0.005,3.949-0.011,5.923-0.012c0.329,0,0.659,0.013,0.99,0.029c0.104,0.006,0.208,0.042,0.312,0.065
			c0.057,0.335,0.125,0.656,0.162,0.979c0.04,0.35,0.059,0.704,0.073,1.055c0.011,0.236,0.013,0.478-0.004,0.713
			c-0.015,0.235-0.055,0.47-0.089,0.702c-0.041,0.279-0.073,0.562-0.136,0.835c-0.08,0.341-0.18,0.679-0.285,1.013
			c-0.074,0.228-0.163,0.451-0.269,0.666c-0.123,0.247-0.273,0.479-0.403,0.721c-0.071,0.131-0.117,0.271-0.188,0.4
			c-0.034,0.065-0.101,0.117-0.15,0.178c-0.06,0.071-0.118,0.146-0.179,0.22c-0.058,0.069-0.114,0.138-0.18,0.205
			c-0.238,0.246-0.481,0.491-0.725,0.733c-0.093,0.094-0.199,0.173-0.286,0.271c-0.064,0.07-0.133,0.103-0.225,0.127
			c-0.077,0.02-0.146,0.09-0.214,0.139c-0.065,0.043-0.127,0.085-0.188,0.132c-0.029,0.022-0.051,0.057-0.08,0.08
			c-0.057,0.044-0.089,0.122-0.182,0.107c-0.018-0.003-0.042,0-0.055,0.011c-0.188,0.163-0.396,0.29-0.618,0.396
			c-0.298,0.144-0.601,0.277-0.911,0.388c-0.377,0.134-0.764,0.237-1.147,0.351c-0.063,0.019-0.131,0.015-0.189,0.037
			c-0.355,0.147-0.737,0.132-1.108,0.195c-0.252,0.04-0.499,0.023-0.747,0.035c-0.355,0.016-0.715,0.053-1.065,0.013
			c-0.29-0.032-0.578-0.005-0.864-0.04c-0.196-0.023-0.386-0.09-0.581-0.131c-0.108-0.021-0.22-0.044-0.33-0.046
			c-0.099-0.002-0.181-0.039-0.269-0.074c-0.125-0.055-0.263-0.076-0.395-0.115c-0.122-0.033-0.243-0.072-0.364-0.108
			c-0.087-0.026-0.176-0.055-0.268-0.076C12.486,24.59,12.373,24.572,12.243,24.549z"/>
		<path fill-rule="evenodd" clip-rule="evenodd" fill="#FFF3E1" d="M10.384,12.998c0.029-0.027,0.067-0.053,0.091-0.088
			c0.12-0.175,0.236-0.353,0.354-0.529c0.012-0.018,0.031-0.038,0.034-0.058c0.02-0.164,0.127-0.266,0.241-0.373
			c0.137-0.125,0.246-0.277,0.379-0.406c0.094-0.09,0.212-0.154,0.309-0.241c0.045-0.039,0.068-0.103,0.088-0.135
			c0.12-0.093,0.227-0.178,0.333-0.263c0.017-0.014,0.028-0.055,0.037-0.053c0.18,0.021,0.228-0.182,0.376-0.215
			c0.125-0.028,0.194-0.152,0.331-0.18c0.085-0.017,0.157-0.103,0.235-0.157c0.006-0.004,0.014-0.01,0.02-0.01
			c0.095,0,0.167-0.012,0.236-0.109c0.054-0.075,0.181-0.102,0.28-0.141c0.534-0.21,1.086-0.36,1.657-0.424
			c0.563-0.063,1.124-0.057,1.686-0.003c0.452,0.043,0.894,0.131,1.324,0.267c0.521,0.164,1.002,0.412,1.457,0.711
			c0.419,0.276,0.798,0.603,1.161,0.975c-0.337,0.33-0.674,0.655-1.014,0.985c-0.153-0.141-0.295-0.28-0.446-0.409
			c-0.581-0.493-1.232-0.861-1.981-1.022c-0.822-0.179-1.65-0.215-2.48-0.054c-0.309,0.061-0.606,0.179-0.917,0.231
			c-0.169,0.028-0.286,0.156-0.438,0.181c-0.167,0.029-0.242,0.211-0.415,0.212c-0.009,0-0.025,0.027-0.031,0.044
			c-0.023,0.057-0.054,0.087-0.124,0.093c-0.055,0.005-0.11,0.051-0.156,0.089c-0.149,0.123-0.295,0.25-0.439,0.378
			c-0.016,0.015-0.012,0.05-0.019,0.083c-0.168-0.04-0.171,0.116-0.239,0.196c-0.101,0.118-0.2,0.239-0.29,0.366
			c-0.048,0.068-0.075,0.152-0.109,0.229c-0.038,0.076-0.071,0.153-0.108,0.229c-0.006,0.012-0.021,0.03-0.032,0.031
			c-0.144,0.018-0.149,0.121-0.14,0.234c-0.033,0.009-0.06,0.014-0.089,0.021c0.009,0.006,0.018,0.012,0.027,0.019
			c-0.039,0.086-0.083,0.171-0.115,0.261c-0.038,0.11-0.069,0.223-0.099,0.337c-0.053,0.199-0.105,0.399-0.151,0.601
			c-0.021,0.096-0.029,0.196-0.035,0.295c-0.011,0.164-0.023,0.329-0.022,0.493c0.001,0.23,0.01,0.461,0.022,0.691
			c0.011,0.209,0.022,0.419,0.048,0.627c0.017,0.13,0.036,0.271,0.097,0.385c0.081,0.149,0.085,0.319,0.16,0.461
			c0.153,0.301,0.339,0.584,0.492,0.884c0.063,0.125,0.146,0.233,0.229,0.338c0.058,0.073,0.089,0.186,0.202,0.211
			c0.012,0.002,0.02,0.02,0.027,0.032c0.051,0.087,0.123,0.151,0.21,0.202c0.02,0.01,0.028,0.042,0.04,0.063
			c0.012,0.02,0.018,0.054,0.034,0.059c0.177,0.056,0.268,0.234,0.44,0.302c0.07,0.026,0.119,0.104,0.183,0.144
			c0.101,0.057,0.196,0.127,0.303,0.166c0.117,0.045,0.215,0.14,0.35,0.144c0.027,0.001,0.054,0.041,0.068,0.079
			c0.236,0.071,0.474,0.144,0.709,0.216c-0.002,0.002-0.003,0.006-0.006,0.01c0.041,0.021,0.081,0.056,0.123,0.061
			c0.209,0.024,0.418,0.041,0.619,0.083c0.044,0.02,0.088,0.056,0.133,0.056c0.316,0.005,0.635,0.021,0.95-0.003
			c0.289-0.02,0.573-0.104,0.862-0.123c0.256-0.017,0.477-0.118,0.709-0.196c0.077-0.025,0.152-0.06,0.226-0.092
			c0.154-0.066,0.154-0.068,0.172-0.22c0.011,0.003,0.023,0.004,0.03,0.012c0.004,0.004,0,0.017,0,0.026
			c0,0.03-0.01,0.081,0.002,0.089c0.035,0.016,0.087,0.033,0.116,0.019c0.114-0.058,0.227-0.121,0.331-0.193
			c0.109-0.078,0.211-0.166,0.313-0.253c0.119-0.099,0.236-0.2,0.35-0.307c0.406-0.381,0.666-0.854,0.859-1.368
			c0.09-0.241,0.158-0.489,0.242-0.747c0.442,0.106,0.887,0.214,1.356,0.327c-0.061,0.204-0.108,0.403-0.173,0.601
			c-0.223,0.672-0.532,1.294-0.993,1.838c-0.258,0.303-0.55,0.565-0.884,0.777c-0.093,0.059-0.142,0.116-0.118,0.253
			c-0.065-0.022-0.108-0.042-0.152-0.054c-0.026-0.006-0.063-0.011-0.076,0.004c-0.195,0.2-0.444,0.314-0.694,0.424
			c-0.183,0.081-0.375,0.14-0.563,0.212c-0.062,0.024-0.112,0.074-0.177,0.088c-0.227,0.053-0.456,0.102-0.686,0.142
			c-0.218,0.036-0.435,0.062-0.652,0.092c-0.022,0.002-0.046,0.001-0.068,0.001c-0.458,0-0.914,0.018-1.369-0.006
			c-0.301-0.015-0.601-0.085-0.9-0.141c-0.172-0.032-0.34-0.083-0.508-0.13c-0.057-0.014-0.11-0.041-0.165-0.063
			c-0.035-0.016-0.07-0.046-0.103-0.046c-0.186,0.004-0.324-0.122-0.483-0.183c-0.269-0.103-0.523-0.246-0.766-0.401
			c-0.233-0.15-0.433-0.353-0.667-0.499c-0.183-0.114-0.295-0.295-0.466-0.417c-0.109-0.08-0.186-0.202-0.275-0.308
			c-0.11-0.128-0.205-0.268-0.303-0.403c-0.115-0.158-0.209-0.329-0.316-0.489c-0.062-0.094-0.078-0.236-0.208-0.285
			c-0.01-0.005-0.013-0.025-0.019-0.039c-0.091-0.235-0.186-0.467-0.271-0.703c-0.062-0.176-0.123-0.355-0.161-0.537
			c-0.068-0.321-0.121-0.646-0.177-0.97c-0.009-0.049,0.001-0.101-0.001-0.15c-0.007-0.211-0.023-0.421-0.021-0.633
			c0.001-0.128,0.043-0.257,0.04-0.386c-0.006-0.266,0.021-0.527,0.066-0.789c0.049-0.279,0.131-0.547,0.231-0.812
			c0.056-0.147,0.095-0.299,0.145-0.448c0.023-0.071,0.11-0.1,0.105-0.196C10.322,13.146,10.362,13.074,10.384,12.998z"/>
	</g>
</g>
</svg>
