<svg xmlns="http://www.w3.org/2000/svg" width="24.245" height="24.207" viewBox="0 0 24.245 24.207">
  <g id="lio" transform="translate(-0.007)">
    <g id="Bg">
      <circle id="Ellipse_25" data-name="Ellipse 25" cx="12" cy="12" r="12" transform="translate(0.253 0.103)"/>
    </g>
    <path id="Path_1289" data-name="Path 1289" d="M159.254,254.132a10.6,10.6,0,1,1-2.06-18.408q.341.143.66.308c.11.051.213.11.323.169.088.044.359.249.264.007-.161-.4-.345-.792-.535-1.18-.139-.271-.293-.762-.608-.88l-.506-.176a10.385,10.385,0,0,0-1.041-.279,12.134,12.134,0,0,0-2.177-.286c-.154-.007-.315-.007-.469-.007a12.1,12.1,0,1,0,5.66,22.8C158.946,255.518,159.108,254.829,159.254,254.132Z" transform="translate(-140.993 -233.4)" fill="#c9ad56"/>
    <path id="Path_1290" data-name="Path 1290" d="M264.34,267h4.679a2.91,2.91,0,0,0-1.08,1.969v4.074h2.818v1.1H267.85v.373h2.906v1.025h-2.94v.435h2.947v1.005H267.83v3.429a1.84,1.84,0,0,0,2.01,2.017c2.187,0,4.217-2.35,4.387-2.791a15.862,15.862,0,0,1-1.942,4.217s-.149-.761-1.99-.761H264a2.242,2.242,0,0,0,1.419-2.085v-3.986h-1.283v-1.114h1.345v-.374h-1.345v-1.073h1.345v-.34h-1.345v-1.134h1.372v-3.545C265.5,269.445,265.643,267.652,264.34,267Z" transform="translate(-255.123 -263.866)" fill="#c9ad56"/>
  </g>
</svg>
