<svg width="32" height="32" viewBox="0 0 32 32" fill="none" xmlns="http://www.w3.org/2000/svg">
<path d="M16 32C24.8366 32 32 24.8366 32 16C32 7.16344 24.8366 0 16 0C7.16344 0 0 7.16344 0 16C0 24.8366 7.16344 32 16 32Z" fill="white"/>
<path d="M21.9008 12.6383C21.517 12.4193 21.0235 12.4193 20.5849 12.6383L17.5144 14.4447L15.4308 15.5943L12.4151 17.4007C12.0313 17.6197 11.5379 17.6197 11.0992 17.4007L8.74151 15.9774C8.3577 15.7585 8.08355 15.3206 8.08355 14.8279V12.0909C8.08355 11.6529 8.30287 11.215 8.74151 10.9413L11.0992 9.57281C11.483 9.35384 11.9765 9.35384 12.4151 9.57281L14.7728 10.9961C15.1567 11.215 15.4308 11.6529 15.4308 12.1456V13.952L17.5144 12.7478V10.8866C17.5144 10.4487 17.295 10.0107 16.8564 9.73703L12.47 7.16422C12.0862 6.94526 11.5927 6.94526 11.154 7.16422L6.65796 9.79177C6.21932 10.0107 6 10.4487 6 10.8866V16.0322C6 16.4701 6.21932 16.908 6.65796 17.1817L11.0992 19.7545C11.483 19.9735 11.9765 19.9735 12.4151 19.7545L15.4308 18.0028L17.5144 16.7986L20.53 15.0469C20.9138 14.8279 21.4073 14.8279 21.846 15.0469L24.2037 16.4154C24.5875 16.6343 24.8616 17.0723 24.8616 17.5649V20.302C24.8616 20.7399 24.6423 21.1778 24.2037 21.4515L21.9008 22.82C21.517 23.039 21.0235 23.039 20.5849 22.82L18.2272 21.4515C17.8433 21.2325 17.5692 20.7946 17.5692 20.302V18.5503L15.4856 19.7545V21.561C15.4856 21.9989 15.705 22.4368 16.1436 22.7105L20.5849 25.2833C20.9687 25.5023 21.4621 25.5023 21.9008 25.2833L26.342 22.7105C26.7258 22.4916 27 22.0536 27 21.561V16.3606C27 15.9227 26.7807 15.4848 26.342 15.2111L21.9008 12.6383Z" fill="#8247E5"/>
</svg>
