<svg width="150" height="150" viewBox="0 0 150 150" fill="none" xmlns="http://www.w3.org/2000/svg">
<g clip-path="url(#clip0_771_344)">
<mask id="mask0_771_344" style="mask-type:luminance" maskUnits="userSpaceOnUse" x="-8" y="3" width="144" height="144">
<path d="M-7.125 146.52H135.645V3.74994H-7.125V146.52Z" fill="white"/>
</mask>
<g mask="url(#mask0_771_344)">
<mask id="mask1_771_344" style="mask-type:luminance" maskUnits="userSpaceOnUse" x="-8" y="3" width="144" height="144">
<path d="M-7.125 3.74994H135.645V146.52H-7.125V3.74994Z" fill="white"/>
</mask>
<g mask="url(#mask1_771_344)">
<path d="M95.4885 61.6396C95.4885 66.2825 91.7249 70.0456 87.0824 70.0456C84.3182 70.0456 81.8654 68.7118 80.3334 66.6522H10.443C10.009 69.4165 9.78359 72.2491 9.78359 75.133C9.78359 105.17 34.2203 129.607 64.2578 129.607C86.2548 129.607 105.248 116.502 113.841 97.6894H49.4947C47.9741 99.8564 45.457 101.273 42.6092 101.273C37.9655 101.273 34.2036 97.5093 34.2036 92.866C34.2036 88.2235 37.9655 84.4599 42.6092 84.4599C45.2883 84.4599 47.6748 85.7132 49.2143 87.6661V87.6636H117.278C118.229 83.639 118.732 79.4439 118.732 75.133C118.732 45.0956 94.2949 20.6581 64.2578 20.6581C40.7146 20.6581 20.6115 35.6709 13.02 56.6269H13.0196H80.3338C81.8658 54.5682 84.3182 53.2344 87.0824 53.2344C91.7249 53.2344 95.4885 56.9975 95.4885 61.6396ZM64.2578 139.633C28.6923 139.633 -0.242188 110.698 -0.242188 75.133C-0.242188 39.5676 28.6923 10.6328 64.2578 10.6328C99.8229 10.6328 128.758 39.5676 128.758 75.133C128.758 110.698 99.8229 139.633 64.2578 139.633Z" fill="white"/>
</g>
</g>
</g>
<defs>
<clipPath id="clip0_771_344">
<rect width="150" height="150" fill="white"/>
</clipPath>
</defs>
</svg>
