<svg width="151" height="150" viewBox="0 0 151 150" fill="none" xmlns="http://www.w3.org/2000/svg">
<g clip-path="url(#clip0_771_365)">
<path d="M120.333 7.66667L89 54.1667C86.8333 57.3333 91 61.1667 94 58.5L124.833 31.6667C125.667 31 126.833 31.5 126.833 32.6667V116.5C126.833 117.667 125.333 118.167 124.667 117.333L31.3333 5.66667C28.3333 2 24 0 19.1667 0H15.8333C7.16667 0 0 7.16667 0 16V134C0 142.833 7.16667 150 16 150C21.5 150 26.6667 147.167 29.6667 142.333L61 95.8333C63.1667 92.6667 59 88.8333 56 91.5L25.1667 118.167C24.3333 118.833 23.1667 118.333 23.1667 117.167V33.5C23.1667 32.3333 24.6667 31.8333 25.3333 32.6667L118.667 144.333C121.667 148 126.167 150 130.833 150H134.167C143 150 150.167 142.833 150.167 134V16C150.167 7.16667 143 0 134.167 0C128.5 0 123.333 2.83333 120.333 7.66667Z" fill="white"/>
</g>
<defs>
<clipPath id="clip0_771_365">
<rect width="150.167" height="150" fill="white"/>
</clipPath>
</defs>
</svg>
