<svg width="32" height="32" viewBox="0 0 32 32" fill="none" xmlns="http://www.w3.org/2000/svg">
<g clip-path="url(#clip0_2_271)">
<path d="M24.2338 5.01174L21.481 6.29757C21.4696 6.30318 21.4525 6.31441 21.4468 6.32564C21.4354 6.33687 21.4297 6.3481 21.424 6.36494C21.4183 6.38179 21.4183 6.39302 21.4183 6.40986C21.4183 6.42671 21.424 6.43794 21.4297 6.45478L25.6131 15.1411C27.1691 18.3754 26.753 20.8235 24.3877 21.9353C22.4727 22.828 20.8256 22.2048 19.5375 20.0262L14.5789 9.73393C12.5727 5.562 9.83696 4.45585 6.58825 5.97751C4.47944 6.96575 3.25406 8.72885 3.27685 10.9692C3.27685 10.9973 3.27115 11.0198 3.25406 11.0422C3.23696 11.0647 3.21416 11.0759 3.18566 11.0815C3.15717 11.0871 3.13437 11.0871 3.10587 11.0759C3.08307 11.0647 3.06027 11.0478 3.04888 11.0198L1.96597 8.77377C1.96027 8.76254 1.94888 8.74569 1.93748 8.74008C1.92608 8.72885 1.91468 8.72323 1.89758 8.71762C1.88618 8.70639 1.87478 8.70639 1.85768 8.70639C1.84059 8.70639 1.82919 8.712 1.81209 8.71762L-0.935061 10.0034C-0.963558 10.0147 -0.986356 10.0371 -0.992056 10.0708C-1.00345 10.0989 -1.00345 10.1326 -0.986356 10.1607L6.61105 25.9444C6.62245 25.9724 6.65095 25.9949 6.67944 26.0061C6.70794 26.0173 6.74214 26.0173 6.77064 26.0005L9.52348 24.7147C9.53488 24.7091 9.55198 24.6978 9.55768 24.6866C9.56908 24.6754 9.57478 24.6641 9.58048 24.6473C9.58618 24.6305 9.58618 24.6192 9.58618 24.6024C9.58618 24.5855 9.58048 24.5743 9.57478 24.5575L5.50535 16.1125C3.8468 12.6649 4.16027 10.1719 6.69654 8.98714C8.64576 8.07751 10.1618 8.68954 11.524 11.0254C11.524 11.0254 11.5297 11.031 11.5297 11.0366L16.437 21.2222C18.3292 25.1526 21.2701 26.5002 24.3706 25.0516C26.7701 23.9286 27.7675 22.2441 27.7048 20.0206C27.7048 19.9925 27.7105 19.97 27.7276 19.9476C27.7447 19.9251 27.7675 19.9139 27.796 19.9083C27.8245 19.9026 27.8473 19.9026 27.8758 19.9139C27.8986 19.9251 27.9214 19.9419 27.9328 19.97L29.0271 22.2385C29.0328 22.2497 29.0442 22.2665 29.0556 22.2722C29.067 22.2834 29.0784 22.289 29.0955 22.2946C29.1126 22.3002 29.124 22.3002 29.1411 22.3002C29.1582 22.3002 29.1696 22.2946 29.1867 22.289L31.9395 21.0032C31.9509 20.9976 31.968 20.9863 31.9737 20.9751C31.9851 20.9639 31.9908 20.9526 31.9965 20.9358C32.0022 20.919 32.0022 20.9077 32.0022 20.8909C32.0022 20.874 31.9965 20.8628 31.9908 20.846L24.3877 5.06789C24.3763 5.03981 24.3478 5.01735 24.3193 5.00612C24.2908 4.99489 24.2566 5.00051 24.2338 5.01174Z" fill="#1E65F3"/>
</g>
<defs>
<clipPath id="clip0_2_271">
<rect width="32" height="32" fill="white"/>
</clipPath>
</defs>
</svg>
