<?xml version="1.0" encoding="utf-8"?>
<!-- Generator: Adobe Illustrator 16.0.0, SVG Export Plug-In . SVG Version: 6.00 Build 0)  -->
<!DOCTYPE svg PUBLIC "-//W3C//DTD SVG 1.1//EN" "http://www.w3.org/Graphics/SVG/1.1/DTD/svg11.dtd">
<svg version="1.1" id="Layer_1" xmlns="http://www.w3.org/2000/svg" xmlns:xlink="http://www.w3.org/1999/xlink" x="0px" y="0px"
	 width="1563.382px" height="1563.385px" viewBox="0 0 1563.382 1563.385" enable-background="new 0 0 1563.382 1563.385"
	 xml:space="preserve">
<circle fill="#1C1C1C" cx="781.691" cy="781.691" r="749.998"/>
<g>
	<g>
		<g>
			<g>
				<path fill="#FFFFFF" d="M465.277,1193.746c-12.982,0-23.49-0.987-31.513-2.974c-8.027-1.988-14.922-4.507-20.693-7.577
					l5.411-16.775c5.23,2.536,11.537,4.701,18.929,6.5c7.394,1.8,15.877,2.698,25.434,2.698c6.493,0,12.489-0.627,17.989-1.889
					c5.504-1.269,10.234-3.204,14.2-5.816c3.973-2.614,7.079-5.989,9.337-10.146c2.258-4.144,3.384-9.103,3.384-14.878
					c0-5.774-1.176-10.546-3.521-14.339c-2.337-3.783-5.537-7.034-9.596-9.729c-4.063-2.714-8.709-5.013-13.939-6.901
					c-5.231-1.897-10.729-3.747-16.495-5.553c-5.778-1.804-11.641-3.967-17.588-6.497c-5.951-2.514-11.455-5.714-16.504-9.602
					c-5.056-3.874-9.156-8.697-12.311-14.46c-3.159-5.781-4.73-12.897-4.73-21.384c0-6.848,1.128-13.203,3.384-19.066
					c2.245-5.857,5.812-10.912,10.689-15.156c4.865-4.232,11.089-7.578,18.657-10.001c7.577-2.435,16.684-3.656,27.331-3.656
					c9.011,0,17.218,0.854,24.608,2.572c7.396,1.715,14.071,4.108,20.024,7.167l-5.415,16.764
					c-5.228-2.513-11.275-4.553-18.123-6.078c-6.853-1.531-13.891-2.296-21.095-2.296c-14.25,0-24.53,2.746-30.843,8.252
					c-6.318,5.494-9.472,12.571-9.472,21.237c0,5.225,1.078,9.646,3.251,13.244c2.164,3.613,5.089,6.731,8.796,9.337
					c3.685,2.619,8.014,4.919,12.973,6.902c4.966,1.982,10.238,3.876,15.823,5.683c6.496,2.16,12.941,4.551,19.35,7.166
					c6.395,2.617,12.173,5.956,17.312,10.007c5.139,4.062,9.288,9.023,12.448,14.882c3.15,5.866,4.731,13.125,4.731,21.777
					c0,8.649-1.533,16.142-4.596,22.455c-3.077,6.314-7.353,11.548-12.853,15.687c-5.504,4.15-12.086,7.269-19.748,9.337
					C482.634,1192.711,474.297,1193.746,465.277,1193.746z"/>
				<path fill="#FFFFFF" d="M465.277,1200.267c-13.458,0-24.584-1.062-33.072-3.169c-8.517-2.093-15.991-4.845-22.199-8.143
					l-4.812-2.562l9.386-29.093l6.743,3.258c4.785,2.315,10.721,4.348,17.638,6.031c6.851,1.666,14.884,2.508,23.885,2.508
					c5.978,0,11.548-0.576,16.535-1.725c4.712-1.084,8.772-2.723,12.074-4.901c3.081-2.027,5.44-4.58,7.189-7.818
					c1.72-3.159,2.6-7.119,2.6-11.763c0-4.507-0.864-8.172-2.546-10.908c-1.841-2.962-4.429-5.579-7.677-7.746
					c-3.599-2.399-7.826-4.483-12.543-6.197c-5.058-1.825-10.516-3.663-16.224-5.446c-5.939-1.854-12.062-4.112-18.189-6.725
					c-6.444-2.726-12.477-6.236-17.929-10.436c-5.733-4.391-10.468-9.94-14.055-16.503c-3.672-6.714-5.528-14.961-5.528-24.503
					c0-7.625,1.283-14.832,3.816-21.414c2.625-6.834,6.826-12.79,12.493-17.724c5.524-4.804,12.565-8.596,20.946-11.296
					c8.189-2.633,18.059-3.968,29.324-3.968c9.46,0,18.236,0.928,26.08,2.74c7.906,1.844,15.152,4.434,21.532,7.723l4.92,2.54
					l-9.401,29.15l-6.741-3.251c-4.769-2.297-10.395-4.182-16.717-5.595c-6.361-1.42-12.983-2.141-19.673-2.141
					c-12.568,0-21.505,2.231-26.564,6.647c-4.866,4.238-7.238,9.569-7.238,16.325c0,4.007,0.785,7.331,2.324,9.893
					c1.709,2.859,3.992,5.27,6.971,7.37c3.258,2.305,7.177,4.383,11.643,6.17c4.798,1.914,9.972,3.773,15.396,5.524
					c6.629,2.208,13.271,4.678,19.814,7.345c6.941,2.83,13.292,6.515,18.888,10.923c5.822,4.6,10.582,10.292,14.144,16.899
					c3.653,6.814,5.512,15.184,5.512,24.874c0,9.611-1.765,18.136-5.25,25.296c-3.517,7.231-8.491,13.296-14.794,18.052
					c-6.151,4.64-13.543,8.141-21.965,10.425C483.805,1199.148,474.812,1200.267,465.277,1200.267z M421.021,1179.772
					c4.215,1.795,9.004,3.363,14.306,4.675c7.479,1.847,17.552,2.783,29.95,2.783c8.384,0,16.236-0.969,23.333-2.882
					c6.807-1.84,12.7-4.613,17.521-8.254c4.701-3.538,8.274-7.905,10.915-13.331c2.612-5.383,3.938-11.974,3.938-19.602
					c0-7.521-1.331-13.809-3.956-18.695c-2.714-5.031-6.329-9.363-10.747-12.85c-4.627-3.652-9.925-6.711-15.729-9.08
					c-6.28-2.562-12.653-4.927-18.951-7.03c-5.645-1.809-11.113-3.775-16.18-5.813c-5.414-2.159-10.234-4.737-14.333-7.622
					c-4.418-3.131-7.989-6.933-10.61-11.31c-2.774-4.615-4.181-10.196-4.181-16.598c0-10.588,3.94-19.385,11.704-26.161
					c7.613-6.627,19.097-9.843,35.131-9.843c7.638,0,15.217,0.822,22.516,2.448c4.516,1.009,8.761,2.245,12.686,3.69l1.458-4.531
					c-4.158-1.733-8.691-3.183-13.527-4.302c-6.873-1.601-14.658-2.397-23.132-2.397c-9.911,0-18.438,1.126-25.343,3.334
					c-6.674,2.15-12.186,5.085-16.373,8.723c-4.097,3.56-6.992,7.672-8.877,12.573c-1.962,5.093-2.958,10.717-2.958,16.728
					c0,7.339,1.326,13.474,3.944,18.246c2.702,4.953,6.256,9.132,10.551,12.426c4.582,3.521,9.648,6.472,15.085,8.78
					c5.728,2.426,11.439,4.545,16.976,6.272c5.897,1.844,11.54,3.737,16.775,5.635c5.704,2.064,10.863,4.628,15.335,7.597
					c4.82,3.221,8.701,7.167,11.527,11.74c2.982,4.819,4.502,10.798,4.502,17.768c0,6.851-1.405,12.911-4.185,18.002
					c-2.765,5.073-6.62,9.268-11.469,12.469c-4.604,3.029-10.099,5.296-16.332,6.717c-5.939,1.376-12.482,2.059-19.447,2.059
					c-10.044,0-19.119-0.964-26.972-2.888c-4.857-1.177-9.336-2.53-13.381-4.042L421.021,1179.772z"/>
			</g>
			<g>
				<path fill="#FFFFFF" d="M671.424,1193.746c-10.469,0-19.89-1.493-28.274-4.459c-8.387-2.974-15.557-7.578-21.503-13.797
					c-5.952-6.223-10.513-14.019-13.67-23.402c-3.152-9.378-4.725-20.558-4.725-33.548v-109.559h20.558v109.841
					c0,19.103,4.099,33.224,12.302,42.325c8.211,9.115,19.979,13.667,35.312,13.667c15.322,0,27.092-4.552,35.306-13.667
					c8.204-9.102,12.309-23.223,12.309-42.325v-109.841h20.558v109.559c0,12.99-1.584,24.17-4.735,33.548
					c-3.159,9.384-7.71,17.18-13.659,23.402c-5.955,6.219-13.125,10.823-21.513,13.797
					C691.311,1192.253,681.877,1193.746,671.424,1193.746z"/>
				<path fill="#FFFFFF" d="M671.424,1200.267c-11.151,0-21.401-1.628-30.453-4.838c-9.318-3.305-17.402-8.496-24.034-15.429
					c-6.596-6.906-11.688-15.598-15.14-25.835c-3.358-9.985-5.065-21.979-5.065-35.625v-116.08h33.6v116.362
					c0,17.369,3.57,30.141,10.624,37.972c6.979,7.735,16.942,11.499,30.469,11.499c13.519,0,23.483-3.764,30.459-11.513
					c7.058-7.83,10.631-20.601,10.631-37.958V1002.46h33.6v116.08c0,13.616-1.705,25.605-5.072,35.625
					c-3.444,10.237-8.537,18.929-15.133,25.827c-6.634,6.94-14.716,12.132-24.037,15.437
					C692.82,1198.639,682.576,1200.267,671.424,1200.267z M609.768,1015.494v103.046c0,12.23,1.479,22.813,4.393,31.473
					c2.828,8.412,6.933,15.466,12.196,20.975c5.207,5.446,11.598,9.539,18.979,12.151c7.646,2.724,16.428,4.092,26.089,4.092
					c9.662,0,18.441-1.368,26.086-4.092c7.378-2.612,13.771-6.705,18.979-12.151c5.257-5.509,9.365-12.562,12.189-20.975
					c2.92-8.679,4.396-19.268,4.396-31.473v-103.046h-7.521v103.328c0,20.684-4.709,36.39-13.986,46.693
					c-9.466,10.487-22.964,15.82-40.144,15.82c-17.183,0-30.693-5.333-40.146-15.82c-9.28-10.294-13.986-26.003-13.986-46.693
					v-103.328H609.768z"/>
			</g>
			<path fill="#FFFFFF" d="M844.552,1191.311h-20.555v-182.329h20.555V1191.311z M904.989,1094.197l81.419,97.113h-25.152
				l-76.565-91.439v-10l74.405-80.89h24.33L904.989,1094.197z"/>
			<path fill="#FFFFFF" d="M1115.718,1193.746c-10.456,0-19.877-1.493-28.269-4.459c-8.38-2.974-15.557-7.578-21.505-13.797
				c-5.953-6.223-10.507-14.019-13.66-23.402c-3.159-9.378-4.734-20.558-4.734-33.548v-109.559h20.554v109.841
				c0,19.103,4.103,33.224,12.316,42.325c8.201,9.115,19.975,13.667,35.298,13.667c15.327,0,27.093-4.552,35.302-13.667
				c8.208-9.102,12.316-23.223,12.316-42.325v-109.841h20.561v109.559c0,12.99-1.585,24.17-4.737,33.548
				c-3.154,9.384-7.714,17.18-13.668,23.402c-5.944,6.219-13.125,10.823-21.505,13.797
				C1135.6,1192.253,1126.178,1193.746,1115.718,1193.746z"/>
		</g>
	</g>
	<g>
		<path fill="#A7BF2E" d="M918.29,760.445c2.321-9.741,4.011-19.6,3.768-29.584c-0.405-16.756-6.364-33.18-15.931-46.947
			c-23.67-34.08-66.395-49.824-103.553-64.123c-8.33-3.209-16.67-6.404-24.928-9.782c-13.287,9.558-24.796,17.842-36.419,26.193
			c-16.503,11.879-32.945,24.293-54.926,40.837c-24.564,18.496-52.077,43.104-62.176,72.388
			c-11.55,33.486-6.339,71.077,14.451,97.815l1.321-1.013l0.056,0.086l-1.368,0.933c18.745,28.199,52.725,45.082,88.15,44.777
			c30.972-0.275,63.185-18.349,88.388-35.956c38.565-26.949,60.853-42.99,94.966-67.539c1.812-4.434,3.197-9.077,4.455-13.701
			C915.843,770.065,917.143,765.269,918.29,760.445z"/>
		<path fill="#D8F40C" d="M918.29,760.445c2.321-9.741,4.011-19.6,3.768-29.584c-0.405-16.756-6.364-33.18-15.931-46.947
			c-23.67-34.08-66.395-49.824-103.553-64.123c-12.992-5.007-26.017-9.972-38.721-15.678c-34.642-15.54-67.969-36.831-95.623-62.937
			c-85.536-80.737-36.362-219.044,61.361-263.168c14.905-6.726,14.153,5.479,11.129,16.771
			c-14.361,53.677,31.59,112.482,74.573,135.35c56.003,29.792,117.226,46.134,165.093,90.104
			c43.024,39.533,63.134,107.784,39.419,162.834c-12.594,29.239-35.785,52.272-61.19,70.554
			c-16.014,11.518-38.734,27.869-48.525,34.909c1.812-4.434,3.197-9.077,4.455-13.701
			C915.843,770.065,917.143,765.269,918.29,760.445z"/>
		<path fill="#70801F" d="M918.29,760.445c2.321-9.741,4.011-19.6,3.768-29.584c-0.405-16.756-6.364-33.18-15.931-46.947
			c-23.67-34.08-66.395-49.824-103.553-64.123c-8.333-3.213-16.67-6.404-24.941-9.788c-12.441,8.963-24.85,17.888-36.343,26.161
			c37.652,15.699,78.594,30.824,109.938,58.143c28.28,24.645,47.056,58.631,58.861,94.224c1.812-4.434,3.197-9.077,4.455-13.701
			C915.843,770.065,917.143,765.269,918.29,760.445z"/>
	</g>
</g>
</svg>
