<svg width="32" height="32" viewBox="0 0 32 32" fill="none" xmlns="http://www.w3.org/2000/svg">
<g clip-path="url(#clip0_2_229)">
<path d="M6.66667 3.06665L31.4667 20L25.3333 29.0667L0.53334 12L6.66667 3.06665Z" fill="url(#paint0_linear_2_229)"/>
<path d="M31.4667 20C29.3333 23.0667 22.1333 21.8667 15.3333 17.0667C8.39999 12.4 4.66666 6.13334 6.66666 3.06667C8.79999 7.71172e-06 16 1.20001 22.8 6.00001C29.7333 10.5333 33.4667 16.9333 31.4667 20Z" fill="url(#paint1_linear_2_229)"/>
<path d="M25.3333 28.9333C23.2 32 16 30.8 9.2 26C2.4 21.2 -1.46667 15.0667 0.666667 11.8667C2.8 8.8 10 10 16.8 14.8C23.6 19.6 27.3333 25.8667 25.3333 28.9333Z" fill="url(#paint2_linear_2_229)"/>
<path d="M31.4667 20L25.3333 29.0667C23.2 32.1333 16 30.8 9.20001 26.1334C7.86668 25.2 6.66667 24.2667 5.46667 23.2C6.40001 23.0667 7.60001 22.5334 8.80001 21.2C10.9333 18.9334 12 18.4 12.9333 18.5334C13.8667 18.5334 14.9333 19.4667 16.6667 21.7333C18.4 24 20.8 24.6667 22.2667 23.4667C22.4 23.3334 22.5333 23.3334 22.6667 23.2C23.8667 22.2667 24.2667 21.8667 26.5333 17.6C27.0667 16.5334 28.9333 14.8 31.4667 15.6C32.1333 17.3334 32.1333 18.8 31.4667 20Z" fill="#0E0F23"/>
<path fill-rule="evenodd" clip-rule="evenodd" d="M30.5333 19.4667C28.6667 22.1334 22.1333 20.8 15.8667 16.4C9.46666 12 5.73333 6.40004 7.6 3.73337C9.46666 1.0667 16 2.40004 22.2667 6.80004C28.5333 11.2 32.2667 16.8 30.5333 19.4667ZM24.6667 15.4667C23.7333 16.8 20.5333 16.1334 17.3333 14C14.2667 11.8667 12.4 9.06671 13.3333 7.73337C14.2667 6.40004 17.4667 7.06671 20.6667 9.20004C23.7333 11.3334 25.6 14.1334 24.6667 15.4667Z" fill="white"/>
<path d="M6.13334 6.13332C6.13334 5.99999 6.00001 5.86666 5.86667 5.99999C5.73334 6.13333 5.60001 6.13332 5.60001 6.26666C5.73334 6.66666 5.86667 6.93333 5.86667 7.19999C5.86667 7.33333 6.00001 7.46666 6.13334 7.33333C6.26667 7.33333 6.40001 7.19999 6.26667 7.06666C6.26667 6.79999 6.26667 6.53332 6.13334 6.13332Z" fill="white"/>
<path d="M6.79999 8.26669C6.79999 8.13335 6.66666 8.00002 6.53333 8.13335C6.39999 8.26669 6.39999 8.26669 6.39999 8.40002C7.86666 11.7334 10.9333 15.3334 14.9333 18C15.0667 18.1334 15.2 18 15.3333 18C15.4667 17.8667 15.3333 17.7334 15.3333 17.6C11.2 14.9334 8.26666 11.4667 6.79999 8.26669Z" fill="white"/>
<path d="M22.9333 21.3333C22.8 21.3333 22.6667 21.3333 22.6667 21.4666C22.6667 21.6 22.6667 21.7333 22.8 21.7333C23.2 21.8666 23.7333 22 24.1333 22.1333C24.2667 22.1333 24.4 22.1333 24.4 22C24.4 21.8666 24.4 21.7333 24.2667 21.7333C23.8667 21.6 23.3333 21.4666 22.9333 21.3333Z" fill="white"/>
<path d="M25.3333 21.8667C25.2 21.8667 25.0667 22 25.0667 22.1334C25.0667 22.2667 25.2 22.4 25.3333 22.4C26.4 22.5334 27.6 22.6667 28.5333 22.5334C28.6667 22.5334 28.8 22.4 28.8 22.2667C28.8 22.1334 28.6667 22 28.5333 22C27.4667 22.1334 26.4 22 25.3333 21.8667Z" fill="white"/>
</g>
<defs>
<linearGradient id="paint0_linear_2_229" x1="11.5256" y1="0.65905" x2="16.4437" y2="17.5473" gradientUnits="userSpaceOnUse">
<stop stop-color="#03B8FF"/>
<stop offset="1" stop-color="#FA52A0"/>
</linearGradient>
<linearGradient id="paint1_linear_2_229" x1="15.5757" y1="-0.520526" x2="20.494" y2="16.3679" gradientUnits="userSpaceOnUse">
<stop stop-color="#03B8FF"/>
<stop offset="1" stop-color="#FA52A0"/>
</linearGradient>
<linearGradient id="paint2_linear_2_229" x1="7.488" y1="1.83479" x2="12.4063" y2="18.7232" gradientUnits="userSpaceOnUse">
<stop stop-color="#03B8FF"/>
<stop offset="1" stop-color="#FA52A0"/>
</linearGradient>
<clipPath id="clip0_2_229">
<rect width="32" height="32" fill="white"/>
</clipPath>
</defs>
</svg>
