<svg width="32" height="32" viewBox="0 0 32 32" fill="none" xmlns="http://www.w3.org/2000/svg">
<g clip-path="url(#clip0_792_1172)">
<mask id="mask0_792_1172" style="mask-type:luminance" maskUnits="userSpaceOnUse" x="0" y="0" width="32" height="32">
<path d="M32 0H0V32H32V0Z" fill="white"/>
</mask>
<g mask="url(#mask0_792_1172)">
<path d="M16 32C24.8365 32 32 24.8365 32 16C32 7.16346 24.8365 0 16 0C7.16346 0 0 7.16346 0 16C0 24.8365 7.16346 32 16 32Z" fill="#0088CC"/>
<path fill-rule="evenodd" clip-rule="evenodd" d="M11.5427 10.5703H20.5142C20.857 10.5703 21.1427 10.6274 21.4856 10.7989C21.8856 10.9703 22.1142 11.256 22.2284 11.4846C22.2284 11.4846 22.2284 11.5417 22.2856 11.5417C22.457 11.8274 22.5713 12.1703 22.5713 12.5703C22.5713 12.9132 22.5142 13.256 22.2856 13.5989L16.6284 23.3132C16.5142 23.5417 16.2856 23.656 15.9999 23.656C15.7713 23.656 15.5427 23.5417 15.3713 23.3132L9.82842 13.5989C9.71418 13.3703 9.48557 13.0846 9.48557 12.6274C9.42842 12.2274 9.54272 11.8846 9.71418 11.5417C9.88557 11.1989 10.1713 10.9132 10.5713 10.7989C10.9142 10.5703 11.3142 10.5703 11.5427 10.5703ZM15.3142 11.9417H11.5427C11.3142 11.9417 11.1999 11.9417 11.1427 11.9989C11.0284 12.056 10.9713 12.1132 10.9142 12.2274C10.857 12.2846 10.857 12.3989 10.857 12.5132C10.857 12.5703 10.9142 12.6274 11.0284 12.856L15.3142 20.2846V11.9417ZM16.6856 11.9417V20.3417L21.0284 12.856C21.0856 12.7417 21.0856 12.6274 21.0856 12.5132C21.0856 12.3989 21.0856 12.2846 21.0284 12.2274C20.9713 12.1703 20.9713 12.1132 20.9142 12.1132L20.857 12.056C20.7427 11.9989 20.6284 11.9989 20.457 11.9989H16.6856V11.9417Z" fill="white"/>
</g>
</g>
<defs>
<clipPath id="clip0_792_1172">
<rect width="32" height="32" fill="white"/>
</clipPath>
</defs>
</svg>
