<svg xmlns="http://www.w3.org/2000/svg" width="24" height="24" viewBox="0 0 24 24">
  <g id="trx" transform="translate(-0.103 -0.103)">
    <circle id="Ellipse_27" data-name="Ellipse 27" cx="12" cy="12" r="12" transform="translate(0.103 0.103)"/>
    <path id="Path_1292" data-name="Path 1292" d="M20.667,10.983c-.6-.429-1.251-.887-1.884-1.34-.014-.011-.028-.021-.045-.032a.847.847,0,0,0-.248-.141l-.008,0q-2.538-.623-5.075-1.251L8.881,7.1l-.119-.032A1.149,1.149,0,0,0,8.3,7.005a.318.318,0,0,0-.129.05l-.042.036a.522.522,0,0,0-.119.191L8,7.311v.163l.008.025c.953,2.712,1.932,5.463,2.876,8.125.727,2.05,1.483,4.173,2.219,6.258a.371.371,0,0,0,.336.248h.035a.393.393,0,0,0,.349-.2l2.769-4.095q1.011-1.494,2.024-2.992l.828-1.227c.454-.673.923-1.368,1.388-2.045l.024-.035V11.5a.541.541,0,0,0-.189-.514m-3.244,1.493c-.651.343-1.314.7-1.982,1.049l1.168-1.269c.486-.532.992-1.082,1.489-1.62l.011-.011a1.575,1.575,0,0,1,.151-.166c.038-.039.08-.078.119-.124.259.182.52.365.772.546q.272.2.556.393-1.145.593-2.283,1.2m-1.67-.17c-.5.549-1.017,1.113-1.531,1.67q-1.5-1.84-3-3.673L9.877,8.661l0,0c-.1-.116-.2-.244-.3-.365-.063-.082-.129-.16-.2-.241.405.106.815.206,1.216.3.353.085.72.174,1.08.266l6.086,1.5c-.675.731-1.353,1.471-2.01,2.188m-1.759,6.91c.039-.372.081-.755.116-1.131.032-.3.063-.61.095-.9.048-.472.1-.961.144-1.44l.01-.085c.035-.306.07-.62.091-.937a1.044,1.044,0,0,1,.126-.061,1.5,1.5,0,0,0,.157-.077q1.211-.645,2.426-1.284c.808-.425,1.636-.865,2.458-1.3q-1.118,1.642-2.227,3.291c-.626.924-1.269,1.878-1.909,2.818-.251.376-.514.759-.762,1.127-.28.412-.567.833-.846,1.256.035-.426.076-.855.122-1.273M9.123,8.888c-.045-.128-.1-.259-.137-.383.944,1.156,1.894,2.319,2.821,3.446.479.585.958,1.166,1.437,1.755.095.11.189.227.28.34.119.145.238.3.367.443-.042.365-.077.734-.116,1.088-.024.248-.048.5-.076.749v0c-.011.159-.032.319-.049.475l-.08.706,0,.024c-.063.716-.14,1.44-.213,2.142-.031.29-.059.589-.091.887-.017-.053-.038-.107-.056-.157q-.08-.217-.154-.436l-.374-1.053L9.122,8.888" transform="translate(-1.948 -1.705)" fill="#fff"/>
  </g>
</svg>
