<svg width="32" height="32" viewBox="0 0 32 32" fill="none" xmlns="http://www.w3.org/2000/svg">
<g clip-path="url(#clip0_2_162)">
<path d="M31.569 19.6741C33.5986 11.0747 28.2728 2.45812 19.6733 0.428469C11.0739 -1.60118 2.45736 3.72467 0.427717 12.3241C-1.60193 20.9235 3.72392 29.5401 12.3233 31.5697C20.9228 33.5994 29.5393 28.2735 31.569 19.6741Z" fill="#FF115B"/>
<path d="M12.3065 6.97365C12.0309 6.92981 12.0184 6.92667 12.1499 6.90475C12.5705 6.88061 12.9924 6.91752 13.4025 7.01435C14.3419 7.23982 15.2062 7.80974 16.1206 8.82432L16.3648 9.09362L16.7124 9.03725C18.1365 8.79726 19.5998 8.98016 20.921 9.56333C21.2525 9.71382 21.5674 9.89853 21.8605 10.1145C21.9065 10.2319 21.936 10.3552 21.9481 10.4808C22.0532 10.9569 22.0028 11.4542 21.8041 11.8994C21.7579 11.957 21.7297 12.0269 21.7231 12.1004C21.7164 12.1739 21.7315 12.2477 21.7665 12.3127C21.7991 12.3798 21.8498 12.4364 21.9129 12.4763C21.976 12.5161 22.0489 12.5375 22.1235 12.5382C22.4366 12.5382 22.7686 12.0403 22.9251 11.3451L22.9846 11.0695L23.1068 11.2073C23.7517 11.912 24.1952 12.7773 24.3906 13.7125L24.4126 13.9004L24.2998 13.7281C24.1425 13.4634 23.9286 13.2368 23.6735 13.0643C23.2258 12.7699 22.7529 12.6697 21.4972 12.6039C20.6809 12.5933 19.8698 12.4721 19.086 12.2438C18.0057 11.8931 17.4608 11.4265 16.1738 9.73869C15.789 9.20996 15.3628 8.7126 14.8993 8.25127C14.1962 7.55582 13.2863 7.10747 12.3065 6.97365Z" fill="white"/>
<path d="M22.1141 8.63643C22.1194 8.25111 22.1992 7.87045 22.349 7.51538C22.378 7.43922 22.4158 7.3667 22.4617 7.29932C22.4503 7.36664 22.4325 7.4327 22.4085 7.4966C22.3041 7.87194 22.288 8.26636 22.3615 8.64896C22.446 9.23767 22.4961 9.32222 23.1224 9.96103C23.4168 10.2585 23.7487 10.6343 23.8834 10.7971L24.1088 11.0883L23.8834 10.8785C23.5537 10.5784 23.2032 10.3022 22.8343 10.0518C22.7404 10.0017 22.7247 10.0049 22.6684 10.0518C22.612 10.0988 22.6026 10.1834 22.5964 10.5591C22.6131 11.0225 22.5152 11.4829 22.3114 11.8994C22.2081 12.1029 22.1893 12.0591 22.2863 11.8305C22.3552 11.6614 22.3615 11.5862 22.3615 11.0194C22.3615 9.88587 22.2268 9.61031 21.4221 9.14059C21.2185 9.0216 20.8866 8.8525 20.6831 8.76169C20.5589 8.71198 20.4386 8.65337 20.3229 8.58633C20.6997 8.66316 21.0702 8.76783 21.4315 8.89947C21.898 9.07483 21.9732 9.09988 22.0296 9.07796C22.0859 9.05604 22.0953 8.95584 22.1141 8.63643Z" fill="white"/>
<path d="M12.8388 10.5779C12.2612 9.75468 11.9697 8.7646 12.009 7.75966L12.0309 7.49036L12.1593 7.51228C12.4533 7.57684 12.7369 7.68224 13.0017 7.82542C13.5309 8.13856 13.7626 8.56443 13.9943 9.64478C14.0632 9.95792 14.154 10.3212 14.1947 10.4402C14.3359 10.77 14.5101 11.0848 14.7146 11.3796C14.8617 11.5925 14.7647 11.6927 14.439 11.6645C13.9474 11.6332 13.2741 11.1698 12.8388 10.5779Z" fill="white"/>
<path d="M21.4346 16.2834C18.823 15.2375 17.9023 14.3325 17.9023 12.8013C17.8967 12.6642 17.903 12.527 17.9211 12.3911C18.0005 12.4404 18.0759 12.4959 18.1466 12.557C18.6758 12.9766 19.2676 13.1582 20.9116 13.3962C21.5929 13.4759 22.2657 13.6163 22.922 13.8158C24.5159 14.3419 25.5023 15.4066 25.7403 16.8596C25.7998 17.3992 25.7713 17.9449 25.6557 18.4754C25.5673 18.8102 25.4234 19.1277 25.2299 19.4148C25.2111 19.4148 25.1923 19.3459 25.186 19.2457C25.1653 18.9626 25.0871 18.6867 24.9563 18.4347C24.8255 18.1828 24.6447 17.9601 24.4251 17.7802C23.8865 17.3293 23.1725 16.9692 21.4346 16.2834Z" fill="white"/>
<path d="M19.6027 16.7062C19.5709 16.5201 19.528 16.336 19.4743 16.155L19.4148 15.9703L19.5401 16.1112C19.729 16.3345 19.8716 16.5932 19.9597 16.8721C20.0391 17.1012 20.0669 17.345 20.0411 17.5861C20.0619 17.8247 20.0309 18.0651 19.9503 18.2907C19.84 18.6176 19.6569 18.9153 19.4148 19.1612C18.8759 19.6705 18.1758 19.9752 17.4358 20.0223C17.2823 20.0411 16.8345 20.0724 16.44 20.0944C15.6809 20.1049 14.9275 20.2273 14.2041 20.4576C14.1518 20.4809 14.0954 20.4937 14.0382 20.4952C14.2535 20.3257 14.4905 20.1857 14.7427 20.0787C15.369 19.8068 16.0333 19.6326 16.7124 19.562C17.226 19.4743 17.7583 19.371 17.893 19.3303C19.1581 18.9451 19.8125 17.9431 19.6027 16.7062Z" fill="white"/>
<path d="M20.7989 18.8199C20.4606 18.1645 20.3769 17.4071 20.564 16.6936C20.5828 16.6216 20.6173 16.5652 20.6361 16.5652C20.7008 16.589 20.7619 16.6217 20.8177 16.6623C20.9774 16.7688 21.2968 16.9504 22.1517 17.4139C23.2195 17.99 23.827 18.4378 24.2403 18.9483C24.6067 19.4053 24.8464 19.9507 24.9355 20.5296C24.9899 21.0519 24.9677 21.5794 24.8698 22.0953C24.7461 22.6232 24.5126 23.119 24.1846 23.5506C23.8565 23.9823 23.4413 24.34 22.9658 24.6005C22.8756 24.6517 22.7826 24.6977 22.6872 24.7383C22.7108 24.6383 22.7488 24.5424 22.7999 24.4533C22.9571 24.1404 23.0484 23.7987 23.0684 23.4492C23.0883 23.0996 23.0363 22.7497 22.9157 22.421C22.6424 21.7532 22.2868 21.122 21.8573 20.5422C21.459 19.9973 21.1051 19.4214 20.7989 18.8199V18.8199Z" fill="white"/>
<path d="M10.985 22.8218C11.9228 22.0249 13.0515 21.4854 14.2605 21.2561C14.8269 21.1818 15.4018 21.204 15.9609 21.3218C16.6197 21.4705 17.2064 21.8435 17.6205 22.3771C17.9336 22.8437 18.0777 23.2508 18.2186 24.1558C18.275 24.5096 18.3376 24.8697 18.3564 24.9511C18.4217 25.3534 18.6242 25.7207 18.9294 25.9908C19.3397 26.3039 20.0474 26.3039 20.7425 26.0377C20.8152 26.0045 20.8922 25.9813 20.9711 25.9689C20.8025 26.1261 20.6088 26.2542 20.3981 26.3478C20.1093 26.5022 19.7861 26.5809 19.4586 26.5763C18.8324 26.5763 18.2906 26.2632 17.8491 25.5993C17.6855 25.3215 17.5391 25.0339 17.4107 24.7382C16.9441 23.6829 16.7155 23.3604 16.1581 23.0097C15.9348 22.8592 15.6771 22.7674 15.409 22.7428C15.1408 22.7182 14.8707 22.7615 14.6237 22.8687C14.4851 22.9324 14.3631 23.0273 14.2673 23.1461C14.1715 23.2649 14.1046 23.4043 14.0719 23.5533C14.0391 23.7023 14.0413 23.8569 14.0784 24.0049C14.1155 24.1529 14.1864 24.2903 14.2855 24.4063C14.4859 24.6145 14.7486 24.7519 15.0339 24.7977C15.1507 24.8176 15.2704 24.8115 15.3845 24.7796C15.4986 24.7477 15.6042 24.691 15.6937 24.6134C15.7833 24.5359 15.8545 24.4394 15.9023 24.3311C15.9501 24.2227 15.9733 24.1051 15.9702 23.9867C15.977 23.8493 15.9383 23.7136 15.8602 23.6004C15.7821 23.4872 15.6689 23.4028 15.5381 23.3604C15.1154 23.1694 14.6613 23.3917 14.6644 23.7863C14.6649 23.8578 14.6873 23.9274 14.7288 23.9857C14.7703 24.044 14.8287 24.0881 14.8962 24.1119C15.0026 24.162 15.0058 24.1652 14.9181 24.1464C14.5298 24.0681 14.439 23.6046 14.7521 23.2946C15.1248 22.9251 15.8982 23.0879 16.1644 23.6078C16.2766 23.8921 16.2855 24.2069 16.1894 24.4971C16.0688 24.7763 15.8507 25.0021 15.5759 25.1323C15.301 25.2625 14.9882 25.2883 14.6958 25.2048C14.2574 25.0921 14.0695 24.9731 13.5497 24.4313C12.6321 23.4919 12.2752 23.3071 10.9506 23.1036L10.6969 23.0629L10.985 22.8218Z" fill="white"/>
<path fill-rule="evenodd" clip-rule="evenodd" d="M6.67932 5.99668C9.74499 9.70741 11.8556 11.2199 12.0904 11.5424C12.2846 11.8086 12.2125 12.0497 11.8806 12.2376C11.645 12.3557 11.3887 12.4269 11.1259 12.4474C11.0749 12.4536 11.0232 12.4496 10.9737 12.4356C10.9243 12.4216 10.8781 12.3979 10.8379 12.366C10.7126 12.247 10.6406 12.2689 10.0018 11.1385C9.11244 9.76691 8.37029 8.63333 8.34837 8.61141C8.32645 8.58949 8.30453 8.57071 9.91408 11.4297C9.99152 11.5653 10.0366 11.7169 10.0458 11.8728C10.0551 12.0287 10.0282 12.1846 9.96732 12.3284C9.96732 12.5006 9.92034 12.5915 9.70428 12.8294C9.34729 13.2271 9.18759 13.6718 9.07799 14.5924C8.9496 15.6258 8.58636 16.3554 7.57804 17.6017C7.25381 17.9534 6.97406 18.3435 6.74508 18.7635C6.56845 19.0834 6.47883 19.444 6.48518 19.8094C6.45439 20.2456 6.513 20.6836 6.6574 21.0964C6.80344 21.5376 7.01453 21.9545 7.28369 22.3333C7.50577 22.6196 7.67057 22.946 7.76906 23.2947C7.76906 23.4043 7.79098 23.4043 8.26695 23.2947C9.40366 23.0379 10.3274 22.5901 10.8472 22.0421C10.9878 21.9194 11.0974 21.7653 11.167 21.5922C11.2367 21.4192 11.2645 21.2321 11.2481 21.0463C11.2708 20.8594 11.2381 20.6699 11.1541 20.5014C11.0195 20.2133 10.7721 19.9753 10.2147 19.609C9.50387 19.1267 9.20012 18.7353 9.11557 18.203C9.04668 17.7614 9.11557 17.4546 9.51952 16.6372C9.86799 16.003 10.0652 15.2967 10.0957 14.5736C10.1427 14.0194 10.2022 13.8033 10.3619 13.6342C10.4557 13.5351 10.5689 13.4561 10.6943 13.4023C10.8198 13.3484 10.955 13.3208 11.0915 13.3211C11.6253 13.2875 12.134 13.0821 12.5413 12.7355C12.6795 12.6205 12.7913 12.477 12.8691 12.3149C12.9469 12.1528 12.9889 11.9758 12.9923 11.7961L13.0079 11.4829L12.8388 11.2731C12.2125 10.5592 6.26285 5.42676 6.21901 5.42676C6.17517 5.42676 6.42255 5.68667 6.67932 5.99668ZM8.10725 20.3699C8.17323 20.2507 8.19246 20.1113 8.1612 19.9787C8.12994 19.8461 8.05042 19.7299 7.93816 19.6528C7.71582 19.5088 7.3745 19.5777 7.3745 19.7655C7.3745 19.825 7.40581 19.8657 7.48097 19.9033C7.55612 19.9409 7.60936 20.038 7.51541 20.182C7.42147 20.3261 7.4246 20.4545 7.53733 20.5421C7.58465 20.5738 7.6384 20.5946 7.69471 20.603C7.75103 20.6114 7.80851 20.6072 7.86301 20.5908C7.91752 20.5743 7.96769 20.5459 8.00992 20.5077C8.05216 20.4696 8.0854 20.4225 8.10725 20.3699Z" fill="white"/>
<path fill-rule="evenodd" clip-rule="evenodd" d="M13.4401 13.487C13.2678 13.5508 13.113 13.6544 12.9884 13.7893C12.8637 13.9243 12.7728 14.0868 12.723 14.2636C12.6658 14.4966 12.6867 14.742 12.7825 14.9619C12.9234 15.1498 13.058 15.1968 13.4087 15.1968C14.129 15.1968 14.7521 14.8837 14.8242 14.5016C14.8271 14.3046 14.7727 14.1109 14.6676 13.9441C14.5626 13.7773 14.4113 13.6447 14.2323 13.5622C13.981 13.4614 13.7059 13.4353 13.4401 13.487V13.487ZM14.2793 14.1384C14.3053 14.1027 14.3228 14.0616 14.3304 14.0181C14.338 13.9746 14.3355 13.9299 14.3231 13.8876C14.3107 13.8452 14.2887 13.8062 14.2588 13.7737C14.229 13.7412 14.192 13.716 14.1509 13.7C13.7939 13.4808 13.2522 13.6624 13.2522 14.0131C13.2522 14.1822 13.534 14.3638 13.7939 14.3638C13.9788 14.3545 14.1528 14.2736 14.2793 14.1384V14.1384Z" fill="white"/>
</g>
<defs>
<clipPath id="clip0_2_162">
<rect width="32" height="32" fill="white"/>
</clipPath>
</defs>
</svg>
