<?xml version="1.0" encoding="utf-8"?>
<!-- Generator: Adobe Illustrator 16.0.0, SVG Export Plug-In . SVG Version: 6.00 Build 0)  -->
<!DOCTYPE svg PUBLIC "-//W3C//DTD SVG 1.1//EN" "http://www.w3.org/Graphics/SVG/1.1/DTD/svg11.dtd">
<svg version="1.1" id="Layer_1" xmlns="http://www.w3.org/2000/svg" xmlns:xlink="http://www.w3.org/1999/xlink" x="0px" y="0px"
	 width="32px" height="32px" viewBox="0 0 32 32" enable-background="new 0 0 32 32" xml:space="preserve">
<g>
	<circle fill="#5FB20F" cx="16" cy="16" r="16"/>
	<path fill="#FFFFFF" d="M22.5,19.154c0,2.57-2.086,4.275-5.166,4.533V26h-2.11v-2.336c-2.083-0.234-4.063-1.035-5.724-2.314
		l1.552-2.125c1.383,1.074,2.692,1.775,4.269,2.01v-4.58c-3.541-0.888-5.19-2.173-5.19-4.813c0-2.523,2.061-4.252,5.093-4.486V6
		h2.11v1.402c1.648,0.183,3.221,0.796,4.561,1.776l-1.359,2.196c-1.067-0.771-2.158-1.262-3.299-1.495v4.439
		C20.924,15.206,22.5,16.631,22.5,19.154z M15.32,13.827V9.715c-1.527,0.117-2.327,0.935-2.327,1.963
		C12.993,12.658,13.453,13.29,15.32,13.827L15.32,13.827z M19.639,19.316c0-1.049-0.511-1.681-2.402-2.219v4.23
		c1.529-0.118,2.402-0.889,2.402-2.01V19.316z"/>
</g>
</svg>
