<svg width="32" height="32" viewBox="0 0 32 32" fill="none" xmlns="http://www.w3.org/2000/svg">
<g clip-path="url(#clip0_2_148)">
<path d="M7.27274 28.0909C8.22175 29.2396 9.37599 30.1767 10.6685 30.8477C11.961 31.5187 13.3661 31.9104 14.8021 32C16.5179 31.9032 18.1366 31.1244 19.3369 29.8182C21.7044 27.6637 24.1901 25.6602 26.7808 23.8182L28.2353 23.1818C28.8342 22.9091 29.861 22.2727 30.8021 21.0909C31.8289 19.6364 32 18.0909 32 17.5455C31.8862 15.8252 31.3557 14.1654 30.4599 12.7273C28.1223 17.1529 24.7722 20.8808 20.7193 23.5662C16.6664 26.2516 12.0417 27.8078 7.27274 28.0909V28.0909Z" fill="#0293D6"/>
<path d="M10.5241 2.27273C11.1628 1.5559 11.9322 0.984732 12.7853 0.594004C13.6385 0.203276 14.5576 0.00117205 15.4866 2.28426e-06C16.0753 -0.041873 16.6659 0.0410474 17.224 0.243939C17.7822 0.44683 18.2968 0.765641 18.738 1.18182C21.1922 3.0292 24.1156 4.04342 27.123 4.09091C27.8931 4.18182 29.4332 4.45455 30.4599 5.81818C31.23 6.90909 31.3155 8.09091 31.3155 8.63637C31.2466 10.0411 30.9574 11.4237 30.4599 12.7273L10.5241 2.27273Z" fill="#EBE638"/>
<path d="M7.27273 28.0909C6.50267 28 5.47594 27.7273 4.27807 27.1818C3.08021 26.6364 1.62567 26 0.684492 24.2727C0.0855615 23.1818 0 22.0909 0 21.3636C0.0208892 19.4349 0.460074 17.5373 1.28342 15.8182C2.10258 13.6934 2.64936 11.4613 2.90909 9.18182L3.3369 7.36364C3.59358 6.45455 3.76471 5.54546 4.36364 4.63637L5.30481 3.54546C6.85932 2.50703 8.69895 2.05843 10.5241 2.27273C8.08021 5.98719 6.50966 10.2698 5.94397 14.7618C5.37828 19.2538 5.83392 23.8245 7.27273 28.0909V28.0909Z" fill="#BAD147"/>
<path d="M10.5241 2.27271C10.4385 2.27271 15.1444 2.54543 18.0535 3.63634L20.4492 4.72725C19.508 4.63634 13.5187 4.36361 8.98395 9.1818C3.25133 15.3636 5.13369 23.8182 5.21925 24.2727C3.89077 22.4968 3.22107 20.2651 3.3369 18C3.44953 14.9936 4.14617 12.0446 5.38302 9.33802C6.61987 6.63148 8.37022 4.22599 10.5241 2.27271V2.27271Z" fill="#78B650"/>
<path d="M21.9893 24.7273C23.608 21.6009 24.3251 18.0375 24.0513 14.4811C23.7774 10.9247 22.5247 7.53257 20.4492 4.72729C22.9275 5.16756 25.2072 6.44234 26.9519 8.36366C27.9786 9.27275 29.262 10.6364 30.4599 12.7273C28.7681 17.5019 25.8296 21.6648 21.9893 24.7273V24.7273Z" fill="#2F8260"/>
<path d="M24.7273 8.72729C23.3583 6.27275 21.3904 5.18184 20.5348 4.72729C19.8503 4.54547 13.4332 3.45456 8.55616 8.45456C4.62033 12.4546 4.36365 17.6364 4.36365 18.6364C4.38176 22.0624 5.46461 25.3862 7.44386 28.0909C9.98735 28.6113 12.6009 28.6113 15.1444 28.0909C16.4278 27.8182 19.4225 27.2727 21.9893 24.9091C22.3316 24.5455 26.0963 20.8182 26.353 14.9091C26.353 13.9091 26.353 11.3637 24.7273 8.72729ZM21.6471 21.9091C20.8525 22.8274 19.887 23.5602 18.8118 24.061C17.7366 24.5618 16.5751 24.8197 15.4011 24.8182C14.8877 24.8182 11.4653 24.7273 9.06953 21.7273C8.72729 21.2727 7.01605 19.0909 7.10162 15.8182C7.27274 11.4546 10.5241 8.90911 11.2086 8.36365C11.8075 7.90911 13.262 6.90911 15.4011 6.8182C15.9145 6.72729 17.7112 6.63638 19.508 7.72729C23.4439 10 23.615 15.4546 23.615 15.8182C23.615 16.8182 23.615 19.5455 21.6471 21.9091Z" fill="#085229"/>
</g>
<defs>
<clipPath id="clip0_2_148">
<rect width="32" height="32" fill="white"/>
</clipPath>
</defs>
</svg>
