<svg width="150" height="150" viewBox="0 0 150 150" fill="none" xmlns="http://www.w3.org/2000/svg">
<g clip-path="url(#clip0_44_11641)">
<path d="M122.309 31.4799L118.19 35.5985C128.018 46.3458 133.468 60.3818 133.468 74.945C133.468 89.5082 128.018 103.544 118.19 114.292L122.309 118.41C133.238 106.555 139.306 91.0213 139.306 74.897C139.306 58.7726 133.238 43.2388 122.309 31.3838V31.4799Z" fill="#5A5564"/>
<path d="M35.6942 31.8367C46.4415 22.009 60.4775 16.559 75.0407 16.559C89.6039 16.559 103.64 22.009 114.387 31.8367L118.506 27.7181C106.651 16.7886 91.117 10.7207 74.9927 10.7207C58.8683 10.7207 43.3345 16.7886 31.4795 27.7181L35.6942 31.8367Z" fill="#5A5564"/>
<path d="M31.8367 114.333C22.0206 103.588 16.5778 89.5606 16.5778 75.007C16.5778 60.4534 22.0206 46.426 31.8367 35.6811L27.7181 31.5625C16.7886 43.4175 10.7207 58.9514 10.7207 75.0757C10.7207 91.2 16.7886 106.734 27.7181 118.589L31.8367 114.333Z" fill="#5A5564"/>
<path d="M114.333 118.136C103.586 127.963 89.5498 133.413 74.9866 133.413C60.4234 133.413 46.3874 127.963 35.6401 118.136L31.5215 122.254C43.3765 133.184 58.9103 139.252 75.0347 139.252C91.159 139.252 106.693 133.184 118.548 122.254L114.333 118.136Z" fill="#5A5564"/>
<path d="M101.002 61.2574C100.178 52.6632 92.7646 49.7802 83.3878 48.9015V37.0674H76.1391V48.6819C74.2308 48.6819 72.2813 48.6819 70.3456 48.6819V37.0674H63.1517V48.9839H48.4482V56.7406C48.4482 56.7406 53.8024 56.6445 53.7201 56.7406C54.6855 56.6344 55.6544 56.9071 56.4227 57.5013C57.191 58.0954 57.6986 58.9646 57.8387 59.9257V92.5451C57.8181 92.8841 57.7297 93.2155 57.5788 93.5196C57.4278 93.8238 57.2175 94.0947 56.96 94.3161C56.7075 94.5418 56.4119 94.7141 56.091 94.8227C55.7702 94.9312 55.4307 94.9737 55.0929 94.9477C55.189 95.03 49.8211 94.9477 49.8211 94.9477L48.4482 103.61H63.0144V115.719H70.2632V103.789H76.0567V115.664H83.3192V103.693C95.5652 102.952 104.104 99.9312 105.175 88.4677C106.04 79.242 101.702 75.1234 94.7689 73.4622C98.9837 71.3892 101.592 67.5451 101.002 61.2574ZM90.8425 87.0399C90.8425 96.046 75.4114 95.0163 70.4966 95.0163V79.0361C75.4114 79.0498 90.8425 77.6358 90.8425 87.0399ZM87.479 64.5248C87.479 72.7621 74.6015 71.7599 70.5103 71.7599V57.2349C74.6015 57.2349 87.479 55.9444 87.479 64.5248Z" fill="#F09242"/>
<path d="M74.9863 150C60.1539 149.997 45.6553 145.597 33.3237 137.355C20.9921 129.112 11.3813 117.399 5.70644 103.695C0.0315711 89.991 -1.45252 74.9122 1.44181 60.3649C4.33614 45.8176 11.4789 32.4551 21.967 21.967C32.4551 11.4789 45.8176 4.33614 60.3649 1.44181C74.9122 -1.45252 89.991 0.0315711 103.695 5.70644C117.399 11.3813 129.112 20.9921 137.355 33.3237C145.597 45.6553 149.997 60.1539 150 74.9863C150.002 84.8377 148.063 94.593 144.294 103.695C140.524 112.797 134.999 121.067 128.033 128.033C121.067 134.999 112.797 140.524 103.695 144.294C94.593 148.063 84.8377 150.002 74.9863 150ZM74.9863 5.84847C61.3211 5.85933 47.9658 9.92112 36.6085 17.5204C25.2511 25.1198 16.4016 35.9155 11.1784 48.5431C5.95525 61.1708 4.59286 75.0634 7.26347 88.4651C9.93408 101.867 16.5178 114.176 26.1825 123.837C35.8472 133.498 48.159 140.077 61.5618 142.742C74.9646 145.407 88.8567 144.039 101.482 138.811C114.108 133.583 124.9 124.729 132.495 113.369C140.09 102.008 144.146 88.6515 144.152 74.9863C144.155 65.9037 142.368 56.9094 138.894 48.5178C135.419 40.1262 130.324 32.5018 123.9 26.0807C117.476 19.6596 109.85 14.5676 101.457 11.096C93.0639 7.62443 84.0689 5.84125 74.9863 5.84847Z" fill="#282138"/>
</g>
<defs>
<clipPath id="clip0_44_11641">
<rect width="150" height="150" fill="white"/>
</clipPath>
</defs>
</svg>
