<?xml version="1.0" encoding="utf-8"?>
<!-- Generator: Adobe Illustrator 16.0.0, SVG Export Plug-In . SVG Version: 6.00 Build 0)  -->
<!DOCTYPE svg PUBLIC "-//W3C//DTD SVG 1.1//EN" "http://www.w3.org/Graphics/SVG/1.1/DTD/svg11.dtd">
<svg version="1.1" id="Layer_1" xmlns="http://www.w3.org/2000/svg" xmlns:xlink="http://www.w3.org/1999/xlink" x="0px" y="0px"
	 width="35px" height="35px" viewBox="-1.5 -1.5 35 35" enable-background="new -1.5 -1.5 35 35" xml:space="preserve">
<g>
	<circle fill="#14B6E7" cx="16.177" cy="16.177" r="16.677"/>
	<path fill="#FFFFFF" d="M12.819,13.6c0.718-1.279,1.451-2.549,2.2-3.811c2.193-3.682,8.051-4.065,8.371-3.836L23.387,5.96
		l0.004-0.005c0.319,0.229,1.937,5.993-0.718,9.342c-0.903,1.137-1.82,2.263-2.753,3.379c0.969,1.522,1.629,4.096-0.652,7.724
		c-0.107,0.171-0.311,0.312-0.328-0.043c-0.034-0.864-0.336-2.583-1.983-4.188l-0.104,0.123c-0.505,0.608-0.927,0.525-1.622,0.025
		l-0.055-0.04c-0.081,0.305-0.214,0.593-0.393,0.854c-0.021,0.028-0.044,0.056-0.066,0.086c-1.542,2.169-3.718,3.239-4.904,2.383
		c-1.187-0.856-0.938-3.313,0.54-5.531c0.021-0.032,0.036-0.063,0.058-0.095c0.183-0.262,0.401-0.484,0.646-0.66h-0.001
		c-0.696-0.502-0.913-0.878-0.522-1.57l0.055-0.101c-2.035-0.993-3.721-0.697-4.536-0.441c-0.339,0.107-0.277-0.138-0.152-0.302
		C8.477,13.54,11.059,13.229,12.819,13.6z M11.729,19.799c-0.098,0.09-0.187,0.191-0.265,0.302c-0.015,0.021-0.025,0.043-0.04,0.063
		c-1.042,1.527-1.224,3.211-0.397,3.794c0.825,0.581,2.35-0.158,3.436-1.653c0.016-0.021,0.032-0.038,0.046-0.06
		c0.072-0.1,0.131-0.207,0.181-0.316l-1.546-1.112l-1.414-1.017H11.729z M16.871,10.657c-0.752,1.088-0.499,2.578,0.571,3.355
		c1.05,0.754,2.512,0.513,3.268-0.536c0.009-0.015,0.02-0.03,0.03-0.045c0.754-1.089,0.499-2.58-0.573-3.357
		c-1.05-0.753-2.512-0.512-3.266,0.538C16.892,10.627,16.881,10.642,16.871,10.657z"/>
</g>
</svg>
