<svg width="40" height="40" viewBox="0 0 40 40" fill="none" xmlns="http://www.w3.org/2000/svg">
<g clip-path="url(#clip0_4_225)">
<g clip-path="url(#clip1_4_225)">
<path d="M20 5.06875C18.6062 5.06875 17.4687 3.93125 17.4687 2.5375C17.4687 1.86559 17.7352 1.22112 18.2097 0.745423C18.6843 0.269728 19.3281 0.00165494 20 0C21.3937 0 22.5312 1.1375 22.5312 2.53125C22.5312 3.20316 22.2648 3.84763 21.7902 4.32333C21.3157 4.79902 20.6719 5.06709 20 5.06875ZM20 1.2125C19.275 1.2125 18.6812 1.80625 18.6812 2.53125C18.6812 2.79207 18.7586 3.04704 18.9035 3.26391C19.0484 3.48078 19.2544 3.6498 19.4953 3.74962C19.7363 3.84943 20.0015 3.87554 20.2573 3.82466C20.5131 3.77378 20.7481 3.64818 20.9325 3.46375C21.1169 3.27932 21.2425 3.04434 21.2934 2.78853C21.3443 2.53271 21.3182 2.26756 21.2184 2.02659C21.1185 1.78562 20.9495 1.57966 20.7326 1.43475C20.5158 1.28984 20.2608 1.2125 20 1.2125ZM20 24.95C17.275 24.95 15.05 22.7313 15.05 20C15.05 17.2687 17.2687 15.05 20 15.05C22.7312 15.05 24.95 17.2687 24.95 20C24.95 22.725 22.7312 24.95 20 24.95ZM20 16.2625C17.9375 16.2625 16.2625 17.9375 16.2625 20C16.2625 22.0625 17.9375 23.7375 20 23.7375C22.0625 23.7375 23.7375 22.0625 23.7375 20C23.7375 17.9375 22.0625 16.2625 20 16.2625Z" fill="#6ECAFE"/>
<path d="M20 27.4437C15.8938 27.4437 12.5563 24.1062 12.5563 20C12.5563 15.8937 15.8938 12.5562 20 12.5562C24.1063 12.5562 27.4438 15.8937 27.4438 20C27.4438 24.1062 24.1063 27.4437 20 27.4437ZM20 13.7687C16.5625 13.7687 13.7688 16.5625 13.7688 20C13.7688 23.4375 16.5625 26.2312 20 26.2312C23.4375 26.2312 26.2313 23.4375 26.2313 20C26.2313 16.5625 23.4375 13.7687 20 13.7687ZM20 8.8062C19.6625 8.8062 19.3938 8.53745 19.3938 8.19995V4.46245C19.3938 4.12495 19.6625 3.8562 20 3.8562C20.3375 3.8562 20.6063 4.12495 20.6063 4.46245V8.19995C20.6063 8.5312 20.3375 8.8062 20 8.8062ZM7.65001 10.1812C6.97501 10.1812 6.33751 9.9187 5.85626 9.43745C5.61934 9.20286 5.43155 8.92342 5.30385 8.61543C5.17615 8.30745 5.1111 7.97711 5.11251 7.6437C5.11276 7.14274 5.26144 6.65308 5.53977 6.23655C5.81811 5.82002 6.21361 5.4953 6.67636 5.30338C7.1391 5.11146 7.64833 5.06095 8.13976 5.15823C8.63119 5.25551 9.08278 5.49621 9.43751 5.84995C9.91176 6.3252 10.1781 6.96918 10.1781 7.64058C10.1781 8.31197 9.91176 8.95595 9.43751 9.4312C8.96251 9.9187 8.32501 10.1812 7.65001 10.1812ZM7.65001 6.3312C7.31251 6.3312 6.97501 6.46245 6.71876 6.7187C6.46876 6.9687 6.33126 7.29995 6.33126 7.64995C6.33126 7.99995 6.46876 8.3312 6.71876 8.5812C7.21876 9.0812 8.08751 9.0812 8.58751 8.5812C9.10001 8.0687 9.10001 7.2312 8.58751 6.71245C8.32501 6.4562 7.98751 6.3312 7.65001 6.3312Z" fill="#6ECAFE"/>
<path d="M11.6562 12.2625C11.5 12.2625 11.3437 12.2063 11.225 12.0875L8.58125 9.4438C8.52482 9.38769 8.48004 9.32098 8.44949 9.24751C8.41893 9.17404 8.4032 9.09525 8.4032 9.01567C8.4032 8.9361 8.41893 8.85731 8.44949 8.78384C8.48004 8.71036 8.52482 8.64366 8.58125 8.58755C8.81875 8.35005 9.2 8.35005 9.4375 8.58755L12.0813 11.2313C12.3188 11.4688 12.3188 11.85 12.0813 12.0875C11.9625 12.2 11.8062 12.2625 11.6562 12.2625ZM2.53125 22.5313C1.1375 22.5313 0 21.3938 0 20C0 18.6063 1.1375 17.4688 2.53125 17.4688C3.925 17.4688 5.0625 18.6063 5.0625 20C5.06875 21.3938 3.93125 22.5313 2.53125 22.5313ZM2.53125 18.6813C1.8 18.6813 1.2125 19.275 1.2125 20C1.2125 20.725 1.80625 21.3188 2.53125 21.3188C3.25625 21.3188 3.85 20.725 3.85 20C3.85625 19.2688 3.2625 18.6813 2.53125 18.6813Z" fill="#6ECAFE"/>
<path d="M8.20001 20.6063H4.46251C4.12501 20.6063 3.85626 20.3375 3.85626 20C3.85626 19.6625 4.12501 19.3938 4.46251 19.3938H8.20001C8.3608 19.3938 8.515 19.4577 8.6287 19.5714C8.74239 19.6851 8.80626 19.8393 8.80626 20C8.80626 20.1608 8.74239 20.315 8.6287 20.4287C8.515 20.5424 8.3608 20.6063 8.20001 20.6063ZM7.65001 34.8813C6.97501 34.8813 6.33751 34.6188 5.85626 34.1375C5.61934 33.903 5.43155 33.6235 5.30385 33.3155C5.17615 33.0075 5.1111 32.6772 5.11251 32.3438C5.11276 31.8428 5.26144 31.3532 5.53978 30.9366C5.81811 30.5201 6.21361 30.1954 6.67636 30.0035C7.1391 29.8116 7.64834 29.761 8.13976 29.8583C8.63119 29.9556 9.08278 30.1963 9.43751 30.55C9.91176 31.0253 10.1781 31.6693 10.1781 32.3407C10.1781 33.0121 9.91176 33.656 9.43751 34.1313C8.96251 34.6188 8.32501 34.8813 7.65001 34.8813ZM7.65001 31.0313C7.31251 31.0313 6.97501 31.1625 6.71876 31.4188C6.46876 31.6688 6.33126 32 6.33126 32.35C6.33126 32.7 6.46876 33.0313 6.71876 33.2813C7.21876 33.7813 8.08751 33.7813 8.58751 33.2813C9.10001 32.7688 9.10001 31.9313 8.58751 31.4125C8.32501 31.1625 7.98751 31.0313 7.65001 31.0313Z" fill="#6ECAFE"/>
<path d="M9.0125 31.5937C8.8926 31.5947 8.77512 31.56 8.67504 31.4939C8.57496 31.4279 8.49681 31.3335 8.45055 31.2229C8.40429 31.1123 8.39202 30.9904 8.41529 30.8728C8.43857 30.7552 8.49634 30.6471 8.58125 30.5625L11.225 27.9187C11.4625 27.6812 11.8437 27.6812 12.0812 27.9187C12.3187 28.1562 12.3187 28.5375 12.0812 28.775L9.4375 31.4187C9.31875 31.5375 9.16875 31.5937 9.0125 31.5937ZM20 40C18.6062 40 17.4687 38.8625 17.4687 37.4687C17.4687 36.075 18.6062 34.9375 20 34.9375C21.3937 34.9375 22.5312 36.075 22.5312 37.4687C22.5312 38.8625 21.3937 40 20 40ZM20 36.1437C19.275 36.1437 18.6812 36.7375 18.6812 37.4625C18.6812 37.7233 18.7586 37.9783 18.9035 38.1951C19.0484 38.412 19.2544 38.581 19.4953 38.6808C19.7363 38.7807 20.0015 38.8068 20.2573 38.7559C20.5131 38.705 20.7481 38.5794 20.9325 38.395C21.1169 38.2105 21.2425 37.9756 21.2934 37.7198C21.3443 37.4639 21.3182 37.1988 21.2184 36.9578C21.1186 36.7168 20.9495 36.5109 20.7327 36.366C20.5158 36.2211 20.2608 36.1437 20 36.1437Z" fill="#6ECAFE"/>
<path d="M20 36.1438C19.6625 36.1438 19.3937 35.875 19.3937 35.5375V31.8C19.3937 31.4625 19.6625 31.1938 20 31.1938C20.3375 31.1938 20.6062 31.4625 20.6062 31.8V35.5375C20.6062 35.875 20.3375 36.1438 20 36.1438ZM32.35 34.8813C31.675 34.8813 31.0375 34.6188 30.5562 34.1375C30.3193 33.9029 30.1315 33.6235 30.0038 33.3155C29.8761 33.0075 29.8111 32.6772 29.8125 32.3438C29.8127 31.8428 29.9614 31.3532 30.2398 30.9366C30.5181 30.5201 30.9136 30.1954 31.3763 30.0035C31.8391 29.8115 32.3483 29.761 32.8397 29.8583C33.3312 29.9556 33.7828 30.1963 34.1375 30.55C34.6117 31.0253 34.8781 31.6693 34.8781 32.3407C34.8781 33.0121 34.6117 33.656 34.1375 34.1313C33.6625 34.6188 33.025 34.8813 32.35 34.8813ZM32.35 31.0313C32.0125 31.0313 31.675 31.1625 31.4187 31.4188C31.1687 31.6688 31.0312 32 31.0312 32.35C31.0312 32.7 31.1687 33.0313 31.4187 33.2813C31.9187 33.7813 32.7875 33.7813 33.2875 33.2813C33.8 32.7688 33.8 31.9313 33.2875 31.4125C33.025 31.1625 32.6875 31.0313 32.35 31.0313Z" fill="#6ECAFE"/>
<path d="M30.9875 31.5937C30.8313 31.5937 30.675 31.5375 30.5563 31.4187L27.9125 28.775C27.8561 28.7189 27.8113 28.6522 27.7808 28.5787C27.7502 28.5052 27.7345 28.4264 27.7345 28.3469C27.7345 28.2673 27.7502 28.1885 27.7808 28.115C27.8113 28.0416 27.8561 27.9749 27.9125 27.9187C28.15 27.6812 28.5313 27.6812 28.7688 27.9187L31.4125 30.5625C31.65 30.8 31.65 31.1812 31.4125 31.4187C31.3 31.5375 31.1438 31.5937 30.9875 31.5937ZM37.4688 22.5312C36.075 22.5312 34.9375 21.3937 34.9375 20C34.9375 18.6062 36.075 17.4688 37.4688 17.4688C38.8625 17.4688 40 18.6062 40 20C40 21.3937 38.8625 22.5312 37.4688 22.5312ZM37.4688 18.6812C36.7375 18.6812 36.15 19.275 36.15 20C36.15 20.725 36.7438 21.3187 37.4688 21.3187C38.1938 21.3187 38.7875 20.725 38.7875 20C38.7875 19.2687 38.1938 18.6812 37.4688 18.6812Z" fill="#6ECAFE"/>
<path d="M35.5375 20.6062H31.8C31.4625 20.6062 31.1937 20.3375 31.1937 20C31.1937 19.6625 31.4625 19.3937 31.8 19.3937H35.5375C35.875 19.3937 36.1437 19.6625 36.1437 20C36.1437 20.3375 35.875 20.6062 35.5375 20.6062ZM32.35 10.1812C31.675 10.1812 31.0375 9.91871 30.5562 9.43746C30.3193 9.20287 30.1315 8.92342 30.0038 8.61544C29.8761 8.30746 29.8111 7.97711 29.8125 7.64371C29.8127 7.14274 29.9614 6.65309 30.2398 6.23656C30.5181 5.82003 30.9136 5.49531 31.3763 5.30339C31.8391 5.11147 32.3483 5.06096 32.8397 5.15824C33.3312 5.25552 33.7828 5.49622 34.1375 5.84996C34.6117 6.32521 34.8781 6.96919 34.8781 7.64058C34.8781 8.31198 34.6117 8.95596 34.1375 9.43121C33.6625 9.91871 33.025 10.1812 32.35 10.1812ZM32.35 6.33121C32.0125 6.33121 31.675 6.46246 31.4187 6.71871C31.1687 6.96871 31.0312 7.29996 31.0312 7.64996C31.0312 7.99996 31.1687 8.33121 31.4187 8.58121C31.9187 9.08121 32.7875 9.08121 33.2875 8.58121C33.8 8.06871 33.8 7.23121 33.2875 6.71246C33.025 6.45621 32.6875 6.33121 32.35 6.33121Z" fill="#6ECAFE"/>
<path d="M28.3437 12.2625C28.2238 12.2635 28.1064 12.2288 28.0063 12.1627C27.9062 12.0967 27.828 12.0024 27.7818 11.8918C27.7355 11.7811 27.7233 11.6592 27.7465 11.5416C27.7698 11.424 27.8276 11.316 27.9125 11.2313L30.5562 8.58755C30.7937 8.35005 31.175 8.35005 31.4125 8.58755C31.65 8.82505 31.65 9.2063 31.4125 9.4438L28.7687 12.0875C28.6555 12.1994 28.5029 12.2623 28.3437 12.2625Z" fill="#6ECAFE"/>
</g>
</g>
<defs>
<clipPath id="clip0_4_225">
<rect width="40" height="40" fill="white"/>
</clipPath>
<clipPath id="clip1_4_225">
<rect width="40" height="40" fill="white"/>
</clipPath>
</defs>
</svg>
