<svg width="32" height="32" viewBox="0 0 32 32" fill="none" xmlns="http://www.w3.org/2000/svg">
<g clip-path="url(#clip0_792_1160)">
<mask id="mask0_792_1160" style="mask-type:luminance" maskUnits="userSpaceOnUse" x="0" y="0" width="32" height="32">
<path d="M32 0H0V32H32V0Z" fill="white"/>
</mask>
<g mask="url(#mask0_792_1160)">
<path d="M16 32C24.8365 32 32 24.8365 32 16C32 7.16346 24.8365 0 16 0C7.16346 0 0 7.16346 0 16C0 24.8365 7.16346 32 16 32Z" fill="#0D1E30"/>
<g filter="url(#filter0_d_792_1160)">
<path d="M15.725 6.05958C16.204 5.81258 16.789 6.38358 16.535 6.85456C16.386 7.23856 15.8251 7.34058 15.5391 7.04758C15.236 6.76758 15.335 6.21158 15.725 6.05859V6.05958ZM10.57 6.6056C10.861 6.48758 11.2301 6.7496 11.2001 7.06256C11.2301 7.40061 10.81 7.65059 10.5131 7.48957C10.1201 7.33962 10.165 6.71158 10.57 6.6056ZM21.1281 7.49859C20.6731 7.44458 20.6011 6.74058 21.0381 6.59856C21.378 6.43658 21.69 6.7416 21.74 7.05859C21.668 7.32861 21.4381 7.57661 21.1281 7.49859ZM11.743 8.76362C12.2301 8.46058 12.924 8.91158 12.8491 9.46858C12.8241 10.0296 12.066 10.3556 11.6381 9.97558C11.2241 9.6776 11.287 8.99357 11.743 8.76362ZM19.173 9.0856C19.3901 8.53558 20.2701 8.5176 20.517 9.0536C20.762 9.47056 20.461 9.98762 20.026 10.1296C19.4491 10.2356 18.9021 9.6216 19.173 9.0856ZM15.1041 10.0986C15.0991 9.62461 15.5371 9.27261 15.994 9.23958C16.298 9.29962 16.628 9.42659 16.7581 9.72758C17.0011 10.1436 16.7851 10.7146 16.348 10.9056C16.148 11.0156 15.9101 10.9746 15.692 10.9616C15.359 10.8016 15.0781 10.4846 15.1041 10.0986ZM7.43807 10.7886C7.88306 10.5186 8.48306 11.0086 8.31404 11.4846C8.22207 11.8956 7.66002 12.0626 7.33906 11.8006C6.99602 11.5546 7.05003 10.9636 7.43903 10.7876L7.43807 10.7886ZM23.9 10.7866C24.277 10.4986 24.9 10.8296 24.8541 11.2976C24.8801 11.7246 24.341 12.0476 23.967 11.8276C23.5551 11.6446 23.5121 11.0206 23.9 10.7876V10.7866ZM17.26 11.6376C17.882 11.4176 18.6221 11.6806 18.9761 12.2276C19.444 12.8946 19.196 13.9106 18.469 14.2936C17.717 14.7466 16.618 14.3636 16.3391 13.5356C16.0241 12.7956 16.484 11.8696 17.2591 11.6376H17.26ZM13.607 11.7106C14.2971 11.3906 15.226 11.6586 15.559 12.3526C15.951 13.0286 15.6481 13.9696 14.9471 14.3186C14.245 14.7116 13.2541 14.4136 12.9151 13.6886C12.5341 12.9866 12.8721 12.0336 13.607 11.7106ZM9.95007 12.9396C10.0031 12.5026 10.4221 12.2176 10.845 12.1876C11.0657 12.2109 11.2718 12.3083 11.4299 12.464C11.5879 12.6197 11.6884 12.8244 11.7151 13.0446C11.685 13.4946 11.332 13.9326 10.8481 13.9306C10.3151 13.9756 9.84805 13.4536 9.95007 12.9396ZM20.7521 12.2836C21.2991 11.9706 22.058 12.4256 22.034 13.0436C22.071 13.6986 21.231 14.1596 20.687 13.7756C20.1211 13.4556 20.165 12.5556 20.7521 12.2836ZM12.122 14.5906C12.7601 14.4176 13.492 14.7136 13.805 15.2916C14.148 15.8736 14.0081 16.6816 13.4751 17.1096C12.7901 17.7356 11.5291 17.4836 11.165 16.6296C10.746 15.8466 11.255 14.7966 12.1211 14.5896L12.122 14.5906ZM19.0491 14.5876C19.6701 14.4126 20.4001 14.6476 20.7341 15.2046C21.1761 15.8416 20.965 16.7926 20.308 17.2026C19.618 17.6796 18.5521 17.4296 18.172 16.6836C17.7121 15.9126 18.175 14.8226 19.0491 14.5876ZM8.00907 15.3136C8.56107 15.1086 9.17304 15.7076 8.94904 16.2466C8.81304 16.7366 8.11007 16.9186 7.74706 16.5566C7.32203 16.2166 7.47903 15.4616 8.00907 15.3136ZM22.978 16.0956C22.9677 15.8754 23.0447 15.6601 23.1922 15.4965C23.3398 15.3328 23.546 15.234 23.7661 15.2216C24.1441 15.2816 24.5121 15.5816 24.482 15.9866C24.517 16.5216 23.8621 16.8846 23.3981 16.6336C23.181 16.5246 23.0701 16.3056 22.978 16.0956ZM5.29404 15.5796C5.62604 15.4366 6.03704 15.7196 5.96104 16.0826C5.94305 16.4936 5.32604 16.6526 5.10004 16.3086C4.90004 16.0696 5.02004 15.7026 5.29404 15.5786V15.5796ZM26.2431 15.5706C26.477 15.4076 26.853 15.5246 26.9451 15.7936C27.1021 16.0876 26.8141 16.4896 26.4781 16.4406C26.0061 16.4826 25.8541 15.7756 26.2431 15.5706ZM13.9261 17.5436C14.8001 17.3206 15.74 18.0376 15.746 18.9236C15.802 19.8186 14.876 20.6116 13.9821 20.4056C13.29 20.2956 12.7471 19.6396 12.77 18.9526C12.7681 18.2946 13.2721 17.6826 13.9261 17.5436ZM17.388 17.5426C18.2751 17.2986 19.2431 18.0286 19.229 18.9346C19.276 19.8126 18.3791 20.5796 17.503 20.4046C16.6781 20.3006 16.0701 19.4096 16.3 18.6216C16.4161 18.0976 16.8621 17.6716 17.388 17.5416V17.5426ZM10.7121 18.0876C11.3261 17.9846 11.9021 18.6576 11.653 19.2316C11.471 19.8436 10.567 20.0086 10.167 19.5096C9.69906 19.0296 10.0491 18.1536 10.7121 18.0876ZM20.866 18.1146C21.4141 17.8886 22.0861 18.3546 22.044 18.9396C22.066 19.5826 21.236 20.0266 20.701 19.6506C20.0941 19.3136 20.205 18.3206 20.866 18.1146ZM23.7041 20.9146C23.49 20.5216 23.879 20.0006 24.324 20.0736C24.5441 20.0696 24.6991 20.2406 24.8401 20.3846C24.869 20.6176 24.9181 20.8956 24.7211 21.0746C24.4541 21.4076 23.8491 21.3126 23.7041 20.9146ZM7.43602 20.1826C7.85106 19.9116 8.44805 20.3166 8.35404 20.7926C8.30405 21.2156 7.76402 21.4566 7.40907 21.2166C7.02706 20.9996 7.04107 20.3806 7.43602 20.1826ZM15.629 21.0656C16.172 20.8306 16.8641 21.2956 16.812 21.8836C16.852 22.5336 15.997 22.9836 15.466 22.5936C14.876 22.2586 14.975 21.2726 15.629 21.0656ZM11.8351 21.9366C12.2971 21.6976 12.917 22.1106 12.8751 22.6206C12.8891 23.0386 12.4751 23.3946 12.055 23.3326C11.708 23.3256 11.482 23.0186 11.37 22.7276C11.3761 22.4106 11.509 22.0576 11.8351 21.9376V21.9366ZM19.5211 21.9446C19.997 21.6546 20.6731 22.0706 20.628 22.6146C20.6401 23.1846 19.876 23.5486 19.4331 23.1746C19.005 22.8816 19.0571 22.1776 19.5211 21.9446ZM20.858 25.1946C20.6461 24.8806 20.895 24.5016 21.2381 24.4296C21.5151 24.4846 21.8081 24.6896 21.749 25.0036C21.709 25.4306 21.0751 25.5606 20.858 25.1956V25.1946ZM10.247 24.9216C10.3311 24.6716 10.535 24.4246 10.834 24.4896C11.269 24.5196 11.3981 25.1656 11.0171 25.3646C10.6751 25.5916 10.277 25.2806 10.247 24.9216ZM15.367 25.2086C15.45 24.8386 15.935 24.6596 16.255 24.8556C16.4671 24.9456 16.5291 25.1776 16.583 25.3756C16.5545 25.4784 16.5279 25.5818 16.503 25.6856C16.372 25.8376 16.2031 25.9906 15.9851 25.9856C15.58 26.0326 15.2141 25.5816 15.3661 25.2086H15.367Z" fill="black"/>
</g>
<path d="M15.725 6.05958C16.204 5.81258 16.789 6.38358 16.535 6.85456C16.386 7.23856 15.8251 7.34058 15.5391 7.04758C15.236 6.76758 15.335 6.21158 15.725 6.05859V6.05958ZM10.57 6.6056C10.861 6.48758 11.2301 6.7496 11.2001 7.06256C11.2301 7.40061 10.81 7.65059 10.5131 7.48957C10.1201 7.33962 10.165 6.71158 10.57 6.6056ZM21.1281 7.49859C20.6731 7.44458 20.6011 6.74058 21.0381 6.59856C21.378 6.43658 21.69 6.7416 21.74 7.05859C21.668 7.32861 21.4381 7.57661 21.1281 7.49859ZM11.743 8.76362C12.2301 8.46058 12.924 8.91158 12.8491 9.46858C12.8241 10.0296 12.066 10.3556 11.6381 9.97558C11.2241 9.6776 11.287 8.99357 11.743 8.76362ZM19.173 9.0856C19.3901 8.53558 20.2701 8.5176 20.517 9.0536C20.762 9.47056 20.461 9.98762 20.026 10.1296C19.4491 10.2356 18.9021 9.6216 19.173 9.0856ZM15.1041 10.0986C15.0991 9.62461 15.5371 9.27261 15.994 9.23958C16.298 9.29962 16.628 9.42659 16.7581 9.72758C17.0011 10.1436 16.7851 10.7146 16.348 10.9056C16.148 11.0156 15.9101 10.9746 15.692 10.9616C15.359 10.8016 15.0781 10.4846 15.1041 10.0986ZM7.43807 10.7886C7.88306 10.5186 8.48306 11.0086 8.31404 11.4846C8.22207 11.8956 7.66002 12.0626 7.33906 11.8006C6.99602 11.5546 7.05003 10.9636 7.43903 10.7876L7.43807 10.7886ZM23.9 10.7866C24.277 10.4986 24.9 10.8296 24.8541 11.2976C24.8801 11.7246 24.341 12.0476 23.967 11.8276C23.5551 11.6446 23.5121 11.0206 23.9 10.7876V10.7866ZM17.26 11.6376C17.882 11.4176 18.6221 11.6806 18.9761 12.2276C19.444 12.8946 19.196 13.9106 18.469 14.2936C17.717 14.7466 16.618 14.3636 16.3391 13.5356C16.0241 12.7956 16.484 11.8696 17.2591 11.6376H17.26ZM13.607 11.7106C14.2971 11.3906 15.226 11.6586 15.559 12.3526C15.951 13.0286 15.6481 13.9696 14.9471 14.3186C14.245 14.7116 13.2541 14.4136 12.9151 13.6886C12.5341 12.9866 12.8721 12.0336 13.607 11.7106ZM9.95007 12.9396C10.0031 12.5026 10.4221 12.2176 10.845 12.1876C11.0657 12.2109 11.2718 12.3083 11.4299 12.464C11.5879 12.6197 11.6884 12.8244 11.7151 13.0446C11.685 13.4946 11.332 13.9326 10.8481 13.9306C10.3151 13.9756 9.84805 13.4536 9.95007 12.9396ZM20.7521 12.2836C21.2991 11.9706 22.058 12.4256 22.034 13.0436C22.071 13.6986 21.231 14.1596 20.687 13.7756C20.1211 13.4556 20.165 12.5556 20.7521 12.2836ZM12.122 14.5906C12.7601 14.4176 13.492 14.7136 13.805 15.2916C14.148 15.8736 14.0081 16.6816 13.4751 17.1096C12.7901 17.7356 11.5291 17.4836 11.165 16.6296C10.746 15.8466 11.255 14.7966 12.1211 14.5896L12.122 14.5906ZM19.0491 14.5876C19.6701 14.4126 20.4001 14.6476 20.7341 15.2046C21.1761 15.8416 20.965 16.7926 20.308 17.2026C19.618 17.6796 18.5521 17.4296 18.172 16.6836C17.7121 15.9126 18.175 14.8226 19.0491 14.5876ZM8.00907 15.3136C8.56107 15.1086 9.17304 15.7076 8.94904 16.2466C8.81304 16.7366 8.11007 16.9186 7.74706 16.5566C7.32203 16.2166 7.47903 15.4616 8.00907 15.3136ZM22.978 16.0956C22.9677 15.8754 23.0447 15.6601 23.1922 15.4965C23.3398 15.3328 23.546 15.234 23.7661 15.2216C24.1441 15.2816 24.5121 15.5816 24.482 15.9866C24.517 16.5216 23.8621 16.8846 23.3981 16.6336C23.181 16.5246 23.0701 16.3056 22.978 16.0956ZM5.29404 15.5796C5.62604 15.4366 6.03704 15.7196 5.96104 16.0826C5.94305 16.4936 5.32604 16.6526 5.10004 16.3086C4.90004 16.0696 5.02004 15.7026 5.29404 15.5786V15.5796ZM26.2431 15.5706C26.477 15.4076 26.853 15.5246 26.9451 15.7936C27.1021 16.0876 26.8141 16.4896 26.4781 16.4406C26.0061 16.4826 25.8541 15.7756 26.2431 15.5706ZM13.9261 17.5436C14.8001 17.3206 15.74 18.0376 15.746 18.9236C15.802 19.8186 14.876 20.6116 13.9821 20.4056C13.29 20.2956 12.7471 19.6396 12.77 18.9526C12.7681 18.2946 13.2721 17.6826 13.9261 17.5436ZM17.388 17.5426C18.2751 17.2986 19.2431 18.0286 19.229 18.9346C19.276 19.8126 18.3791 20.5796 17.503 20.4046C16.6781 20.3006 16.0701 19.4096 16.3 18.6216C16.4161 18.0976 16.8621 17.6716 17.388 17.5416V17.5426ZM10.7121 18.0876C11.3261 17.9846 11.9021 18.6576 11.653 19.2316C11.471 19.8436 10.567 20.0086 10.167 19.5096C9.69906 19.0296 10.0491 18.1536 10.7121 18.0876ZM20.866 18.1146C21.4141 17.8886 22.0861 18.3546 22.044 18.9396C22.066 19.5826 21.236 20.0266 20.701 19.6506C20.0941 19.3136 20.205 18.3206 20.866 18.1146ZM23.7041 20.9146C23.49 20.5216 23.879 20.0006 24.324 20.0736C24.5441 20.0696 24.6991 20.2406 24.8401 20.3846C24.869 20.6176 24.9181 20.8956 24.7211 21.0746C24.4541 21.4076 23.8491 21.3126 23.7041 20.9146ZM7.43602 20.1826C7.85106 19.9116 8.44805 20.3166 8.35404 20.7926C8.30405 21.2156 7.76402 21.4566 7.40907 21.2166C7.02706 20.9996 7.04107 20.3806 7.43602 20.1826ZM15.629 21.0656C16.172 20.8306 16.8641 21.2956 16.812 21.8836C16.852 22.5336 15.997 22.9836 15.466 22.5936C14.876 22.2586 14.975 21.2726 15.629 21.0656ZM11.8351 21.9366C12.2971 21.6976 12.917 22.1106 12.8751 22.6206C12.8891 23.0386 12.4751 23.3946 12.055 23.3326C11.708 23.3256 11.482 23.0186 11.37 22.7276C11.3761 22.4106 11.509 22.0576 11.8351 21.9376V21.9366ZM19.5211 21.9446C19.997 21.6546 20.6731 22.0706 20.628 22.6146C20.6401 23.1846 19.876 23.5486 19.4331 23.1746C19.005 22.8816 19.0571 22.1776 19.5211 21.9446ZM20.858 25.1946C20.6461 24.8806 20.895 24.5016 21.2381 24.4296C21.5151 24.4846 21.8081 24.6896 21.749 25.0036C21.709 25.4306 21.0751 25.5606 20.858 25.1956V25.1946ZM10.247 24.9216C10.3311 24.6716 10.535 24.4246 10.834 24.4896C11.269 24.5196 11.3981 25.1656 11.0171 25.3646C10.6751 25.5916 10.277 25.2806 10.247 24.9216ZM15.367 25.2086C15.45 24.8386 15.935 24.6596 16.255 24.8556C16.4671 24.9456 16.5291 25.1776 16.583 25.3756C16.5545 25.4784 16.5279 25.5818 16.503 25.6856C16.372 25.8376 16.2031 25.9906 15.9851 25.9856C15.58 26.0326 15.2141 25.5816 15.3661 25.2086H15.367Z" fill="white"/>
</g>
</g>
<defs>
<filter id="filter0_d_792_1160" x="-19.9995" y="-6.5" width="71.9888" height="69.9922" filterUnits="userSpaceOnUse" color-interpolation-filters="sRGB">
<feFlood flood-opacity="0" result="BackgroundImageFix"/>
<feColorMatrix in="SourceAlpha" type="matrix" values="0 0 0 0 0 0 0 0 0 0 0 0 0 0 0 0 0 0 127 0" result="hardAlpha"/>
<feOffset dy="12.5"/>
<feGaussianBlur stdDeviation="12.5"/>
<feColorMatrix type="matrix" values="0 0 0 0 0 0 0 0 0 0 0 0 0 0 0 0 0 0 0.204257 0"/>
<feBlend mode="normal" in2="BackgroundImageFix" result="effect1_dropShadow_792_1160"/>
<feBlend mode="normal" in="SourceGraphic" in2="effect1_dropShadow_792_1160" result="shape"/>
</filter>
<clipPath id="clip0_792_1160">
<rect width="32" height="32" fill="white"/>
</clipPath>
</defs>
</svg>
