<svg width="12" height="12" viewBox="0 0 12 12" fill="none" xmlns="http://www.w3.org/2000/svg">
<path d="M11.0472 5.6954V7.19257C11.0472 7.60585 10.7119 7.94115 10.2986 7.94115H7.05479V11.185C7.05479 11.5983 6.71949 11.9336 6.30621 11.9336H4.80904C4.39576 11.9336 4.06046 11.5983 4.06046 11.185V7.94115H0.816598C0.403317 7.94115 0.0680146 7.60585 0.0680146 7.19257V5.6954C0.0680146 5.28212 0.403317 4.94682 0.816598 4.94682H4.06046V1.70296C4.06046 1.28968 4.39576 0.954377 4.80904 0.954377H6.30621C6.71949 0.954377 7.05479 1.28968 7.05479 1.70296V4.94682H10.2986C10.7119 4.94682 11.0472 5.28212 11.0472 5.6954Z" fill="#2356B0"/>
</svg>
