<?xml version="1.0" encoding="UTF-8"?>
<svg version="1.1" xmlns="http://www.w3.org/2000/svg" width="2000" height="2000">
<path d="M0 0 C1.71058614 -0.00478258 3.42116811 -0.01131482 5.13174167 -0.0194332 C9.83946016 -0.03668194 14.54685994 -0.02901695 19.25458338 -0.01732175 C24.37356405 -0.00898689 29.49248624 -0.02378177 34.61145276 -0.03562677 C43.58556893 -0.05316713 52.55959382 -0.05576921 61.53372288 -0.04862022 C74.87857005 -0.03801741 88.22332868 -0.05018546 101.56816622 -0.06678609 C126.09358969 -0.09645546 150.6189716 -0.10096303 175.14440563 -0.09614533 C178.61922575 -0.09546844 182.09404588 -0.09482424 185.56886601 -0.09421396 C186.2590539 -0.09409188 186.94924178 -0.09396979 187.66034445 -0.093844 C202.95681716 -0.09130006 218.25328429 -0.09650324 233.54975534 -0.1032661 C237.04262855 -0.10480758 240.53550177 -0.10629704 244.028375 -0.10779613 C245.43021044 -0.10839951 246.83204588 -0.10900327 248.23388132 -0.10960741 C248.92874684 -0.10990677 249.62361236 -0.11020613 250.33953441 -0.11051456 C251.74505548 -0.11112162 253.15057655 -0.11173099 254.55609761 -0.11234265 C294.43808203 -0.12968925 334.32006152 -0.13897613 374.20204926 -0.13044739 C374.94056034 -0.13029127 375.67907143 -0.13013516 376.43996163 -0.12997432 C384.67513528 -0.12822872 392.9103089 -0.12637019 401.14548252 -0.12447305 C401.88899666 -0.12430203 402.6325108 -0.12413101 403.39855567 -0.12395481 C409.57651826 -0.12253323 409.57651826 -0.12253323 412.41904697 -0.12187036 C459.97759511 -0.11079858 507.53606561 -0.12588345 555.09459972 -0.16341209 C567.07799704 -0.17285652 579.06139441 -0.18221755 591.04479218 -0.19108582 C592.15159051 -0.19190578 592.15159051 -0.19190578 593.28074841 -0.19274231 C616.02201159 -0.20948475 638.76326829 -0.21884422 661.50453758 -0.22050095 C662.57549442 -0.22058005 662.57549442 -0.22058005 663.66808674 -0.22066074 C679.34136692 -0.22174231 695.01464658 -0.2209974 710.68792659 -0.21858131 C716.296068 -0.21773006 721.90420943 -0.21699981 727.51235086 -0.21632243 C728.90751044 -0.21615183 730.30267001 -0.21597396 731.69782958 -0.21578879 C753.92757982 -0.21289138 776.15727729 -0.22714289 798.38701487 -0.24979671 C821.39855431 -0.27309541 844.41001317 -0.27422407 867.42155973 -0.25010987 C880.68989345 -0.23682872 893.95797911 -0.2401697 907.22629312 -0.2672869 C916.08559686 -0.28373584 924.94471416 -0.27843323 933.80400265 -0.25533636 C938.8541649 -0.24278339 943.90384197 -0.23972391 948.95397679 -0.26306303 C953.55048899 -0.28411057 958.14610415 -0.27742935 962.74256809 -0.24885397 C964.39289812 -0.24340748 966.04330008 -0.24795486 967.69356236 -0.26386826 C978.48570978 -0.36081402 987.82571706 0.81654833 996.3128926 8.25080818 C1002.56095885 14.74359593 1004.92992812 22.75331164 1004.84572887 31.55883217 C1004.85337997 32.4237683 1004.86103106 33.28870444 1004.86891401 34.17985076 C1004.88941358 37.05388302 1004.88162128 39.9271041 1004.87365246 42.80118752 C1004.88235445 44.87169566 1004.89272334 46.94219738 1004.9046278 49.01268959 C1004.93134889 54.62029449 1004.93257168 60.2276293 1004.9275012 65.83528543 C1004.92535753 70.52444226 1004.93513949 75.21354492 1004.94471204 79.90269011 C1004.96688253 90.97013433 1004.96778868 102.03744278 1004.95568371 113.10489845 C1004.9436074 124.50384334 1004.96822207 135.90229429 1005.01082385 147.30115491 C1005.0461086 157.1044471 1005.05805021 166.90758245 1005.05154836 176.71093577 C1005.04793034 182.55867461 1005.05311762 188.40606116 1005.08097744 194.25374222 C1005.10621102 199.75581873 1005.10217478 205.25712808 1005.07615566 210.75919342 C1005.07144139 212.77147244 1005.07683154 214.7838061 1005.09340191 216.79602242 C1005.18583402 228.89889443 1004.94881189 238.74866756 996.70102406 248.41059017 C987.70793098 256.9201281 977.39513576 257.08596711 965.6486721 257.01790237 C963.93808597 257.02268496 962.22750399 257.0292172 960.51693043 257.03733557 C955.80921194 257.05458431 951.10181216 257.04691933 946.39408872 257.03522413 C941.27510806 257.02688926 936.15618586 257.04168414 931.03721935 257.05352914 C922.06310318 257.0710695 913.08907828 257.07367159 904.11494923 257.0665226 C890.77010205 257.05591978 877.42534342 257.06808783 864.08050588 257.08468846 C839.55508242 257.11435783 815.0297005 257.1188654 790.50426647 257.11404771 C787.02944635 257.11337081 783.55462622 257.11272662 780.07980609 257.11211634 C779.38961821 257.11199425 778.69943032 257.11187216 777.98832766 257.11174638 C762.69185495 257.10920244 747.39538782 257.11440562 732.09891676 257.12116847 C728.60604356 257.12270995 725.11317033 257.12419941 721.62029711 257.1256985 C720.21846167 257.12630188 718.81662622 257.12690565 717.41479078 257.12750978 C716.71992526 257.12780914 716.02505974 257.1281085 715.30913769 257.12841694 C713.90361662 257.129024 712.49809556 257.12963336 711.09257449 257.13024502 C671.21059008 257.14759162 631.32861058 257.1568785 591.44662285 257.14834976 C590.70811176 257.14819365 589.96960068 257.14803753 589.20871047 257.14787669 C580.97353682 257.14613109 572.7383632 257.14427257 564.50318959 257.14237542 C563.75967545 257.14220441 563.01616131 257.14203339 562.25011644 257.14185719 C556.07215384 257.1404356 556.07215384 257.1404356 553.22962514 257.13977273 C505.671077 257.12870096 458.11260649 257.14378582 410.55407238 257.18131447 C398.57067506 257.1907589 386.58727769 257.20011992 374.60387993 257.20898819 C373.49708159 257.20980816 373.49708159 257.20980816 372.36792369 257.21064469 C349.62666052 257.22738712 326.88540381 257.23674659 304.14413452 257.23840332 C303.4301633 257.23845605 302.71619208 257.23850879 301.98058536 257.23856312 C286.30730518 257.23964468 270.63402552 257.23889978 254.96074551 257.23648369 C249.3526041 257.23563244 243.74446268 257.23490219 238.13632124 257.23422481 C236.74116167 257.2340542 235.34600209 257.23387633 233.95084252 257.23369117 C211.72109228 257.23079375 189.49139481 257.24504527 167.26165723 257.26769909 C144.2501178 257.29099779 121.23865894 257.29212645 98.22711238 257.26801224 C84.95877865 257.25473109 71.69069299 257.25807207 58.42237898 257.28518927 C49.56307524 257.30163822 40.70395795 257.2963356 31.84466946 257.27323873 C26.7945072 257.26068576 21.74483013 257.25762629 16.69469532 257.2809654 C12.09818312 257.30201294 7.50256796 257.29533172 2.90610401 257.26675635 C1.25577399 257.26130985 -0.39462797 257.26585723 -2.04489026 257.28177064 C-12.83703767 257.37871639 -22.17704496 256.20135404 -30.66422049 248.76709419 C-36.91228674 242.27430644 -39.28125602 234.26459074 -39.19705677 225.45907021 C-39.20470786 224.59413407 -39.21235896 223.72919794 -39.2202419 222.83805162 C-39.24074147 219.96401936 -39.23294918 217.09079827 -39.22498035 214.21671486 C-39.23368235 212.14620671 -39.24405123 210.075705 -39.2559557 208.00521278 C-39.28267679 202.39760789 -39.28389958 196.79027308 -39.2788291 191.18261695 C-39.27668542 186.49346012 -39.28646739 181.80435746 -39.29603994 177.11521226 C-39.31821043 166.04776804 -39.31911657 154.98045959 -39.3070116 143.91300392 C-39.2949353 132.51405904 -39.31954997 121.11560809 -39.36215174 109.71674746 C-39.39743649 99.91345527 -39.4093781 90.11031992 -39.40287626 80.3069666 C-39.39925823 74.45922777 -39.40444551 68.61184122 -39.43230534 62.76416016 C-39.45753892 57.26208365 -39.45350267 51.76077429 -39.42748356 46.25870895 C-39.42276928 44.24642993 -39.42815943 42.23409628 -39.4447298 40.22187996 C-39.53716192 28.11900794 -39.30013978 18.26923481 -31.05235195 8.6073122 C-22.05925887 0.09777427 -11.74646365 -0.06806474 0 0 Z " fill="#68B94B" transform="translate(517.6756639480591,875.4910488128662)"/>
<path d="M0 0 C3.56484465 0.03059952 4.81689559 0.05660648 7.8125 2.125 C9.1875 4.3125 9.1875 4.3125 9.1875 7.3125 C19.7475 7.3125 30.3075 7.3125 41.1875 7.3125 C43.6625 13.2525 43.6625 13.2525 46.1875 19.3125 C51.22242172 24.5871799 55.26505581 28.11234037 62.78125 28.41796875 C65.25465816 28.43533819 67.71583245 28.40042493 70.1875 28.3125 C71.48134282 32.63897533 70.80532732 36.43724711 70.0625 40.8125 C69.95679688 41.57175781 69.85109375 42.33101562 69.7421875 43.11328125 C69.5565625 44.21736328 69.5565625 44.21736328 69.3671875 45.34375 C69.26132324 46.00955078 69.15545898 46.67535156 69.04638672 47.36132812 C67.66961892 50.48899392 66.13774418 51.57798069 63.1875 53.3125 C59.88998844 53.90728168 56.63744045 53.91738298 53.29296875 53.921875 C52.34561356 53.93841125 51.39825836 53.95494751 50.42219543 53.97198486 C47.4063975 54.02043891 44.39110374 54.04183023 41.375 54.0625 C39.32614655 54.09066182 37.27731655 54.12058955 35.22851562 54.15234375 C30.21488526 54.22619737 25.20153435 54.27578801 20.1875 54.3125 C20.1875 55.9625 20.1875 57.6125 20.1875 59.3125 C21.48896973 59.28631592 22.79043945 59.26013184 24.13134766 59.2331543 C28.97296876 59.14246127 33.81451519 59.08518091 38.65673828 59.0378418 C40.7499658 59.0127412 42.84310605 58.97865323 44.93603516 58.93530273 C47.94976359 58.87445549 50.96233059 58.8462455 53.9765625 58.82421875 C54.90804108 58.79841232 55.83951965 58.7726059 56.79922485 58.74601746 C61.22977329 58.74411706 64.24660582 58.87362695 67.78027344 61.71191406 C70.1875 64.3125 70.1875 64.3125 70.9140625 66.41015625 C70.74799326 69.62295725 70.35899311 72.01425111 68.75 74.8125 C64.94177109 77.04170717 61.48615635 77.21955593 57.1875 76.3125 C54.625 74.1875 54.625 74.1875 53.1875 71.3125 C53.1875 69.3325 53.1875 67.3525 53.1875 65.3125 C40.3175 64.8175 40.3175 64.8175 27.1875 64.3125 C27.5175 66.2925 27.8475 68.2725 28.1875 70.3125 C26.875 73.6875 26.875 73.6875 24.1875 76.3125 C20.70429855 77.12697994 17.67636352 77.08329543 14.1875 76.3125 C11.04827382 73.77122167 10.34621267 72.26477601 9.6875 68.3125 C10.3024133 64.62302021 11.56461593 62.93538407 14.1875 60.3125 C14.8475 60.3125 15.5075 60.3125 16.1875 60.3125 C15.93355469 59.30832031 15.67960938 58.30414062 15.41796875 57.26953125 C11.15767954 40.37197966 7.5551327 23.41048087 4.1875 6.3125 C1.2175 5.9825 -1.7525 5.6525 -4.8125 5.3125 C-5.1425 3.9925 -5.4725 2.6725 -5.8125 1.3125 C-4.16284831 -0.33715169 -2.2648645 0.06300502 0 0 Z " fill="#FBFDFA" transform="translate(560.8125,967.6875)"/>
<path d="M0 0 C0.63550781 0.29519531 1.27101563 0.59039063 1.92578125 0.89453125 C8.41864294 4.35494529 12.32574425 9.96702386 14.640625 16.92578125 C16.35238724 26.80562634 15.15184219 35.67053452 9.64453125 44.06640625 C5.16913475 49.81363124 0.11417386 51.77891046 -7 53 C-14.15854754 53.65272257 -20.12364881 53.43521644 -26 49 C-31.67042749 43.7403077 -35.91971591 37.87308487 -36.43359375 29.9140625 C-36.45749272 28.48457417 -36.45823191 27.05453777 -36.4375 25.625 C-36.42775146 24.87549072 -36.41800293 24.12598145 -36.40795898 23.35375977 C-36.13064293 14.69679861 -33.9630842 9.56925096 -27.625 3.5625 C-19.80635177 -2.82188321 -9.37567705 -4.37531595 0 0 Z " fill="#FAFCF9" transform="translate(1211,978)"/>
<path d="M0 0 C6.991875 -0.0928125 6.991875 -0.0928125 14.125 -0.1875 C15.58437988 -0.21481201 17.04375977 -0.24212402 18.54736328 -0.27026367 C19.70993652 -0.27775635 20.87250977 -0.28524902 22.0703125 -0.29296875 C23.25383301 -0.3086792 24.43735352 -0.32438965 25.65673828 -0.34057617 C30.4834238 0.15111554 33.74276109 1.90818726 37.375 5.0625 C39.758924 9.37190108 40.03032208 13.19183029 39 18 C37.32661112 20.72772061 35.37442472 22.86584445 33 25 C33.928125 25.5775 34.85625 26.155 35.8125 26.75 C39.33209413 29.23441938 41.63883737 31.02824724 42.43359375 35.3671875 C42.44245417 41.05557406 42.09923484 44.69580342 38 49 C30.5172232 54.04353829 23.28583996 53.46424254 14.5 53.25 C9.715 53.1675 4.93 53.085 0 53 C0 35.51 0 18.02 0 0 Z " fill="#F8FBF7" transform="translate(1247,977)"/>
<path d="M0 0 C10 0 10 0 13.46875 3.4453125 C14.51333451 4.98253729 15.52247965 6.54428155 16.5 8.125 C17.59754482 9.77090764 18.69520253 11.41674001 19.79296875 13.0625 C20.32712402 13.89007812 20.8612793 14.71765625 21.41162109 15.5703125 C23.76571272 19.17128389 26.28894346 22.64200822 28.8125 26.125 C30.194375 28.06375 31.57625 30.0025 33 32 C33.33 21.44 33.66 10.88 34 0 C37.63 0 41.26 0 45 0 C45 17.49 45 34.98 45 53 C36 53 36 53 33.828125 51.48046875 C33.30734375 50.72378906 32.7865625 49.96710938 32.25 49.1875 C31.61191406 48.29160156 30.97382812 47.39570312 30.31640625 46.47265625 C29.54400397 45.31528222 28.77190495 44.15770578 28 43 C26.90706721 41.41390215 25.81183389 39.82938813 24.71484375 38.24609375 C21.91765575 34.19575622 19.1522231 30.12525366 16.40698242 26.03955078 C14.99183245 23.98816039 13.49529486 21.99372648 12 20 C11.67 30.89 11.34 41.78 11 53 C7.37 53 3.74 53 0 53 C0 35.51 0 18.02 0 0 Z " fill="#F9FCF8" transform="translate(1347,977)"/>
<path d="M0 0 C4.62 0 9.24 0 14 0 C16.56543253 7.38661108 19.12887161 14.77390966 21.69042969 22.16186523 C22.56292228 24.67735703 23.4359685 27.19265688 24.30957031 29.70776367 C25.56198889 33.31379199 26.81244334 36.92049608 28.0625 40.52734375 C28.45622803 41.65961899 28.84995605 42.79189423 29.25561523 43.95848083 C29.79617554 45.51998619 29.79617554 45.51998619 30.34765625 47.11303711 C30.66742432 48.03459091 30.98719238 48.95614471 31.31665039 49.90562439 C32 52 32 52 32 53 C28.04 53 24.08 53 20 53 C16 43.375 16 43.375 16 40 C9.73 40 3.46 40 -3 40 C-3.33 42.31 -3.66 44.62 -4 47 C-4.62256028 49.01416562 -5.27566653 51.02015519 -6 53 C-9.96 53 -13.92 53 -18 53 C-15.54377597 43.18420102 -12.21381482 33.72160904 -8.84716797 24.19018555 C-7.86670399 21.41400993 -6.89188821 18.63589939 -5.91796875 15.85742188 C-5.29719763 14.09103242 -4.67611537 12.32475227 -4.0546875 10.55859375 C-3.76302704 9.72847275 -3.47136658 8.89835175 -3.17086792 8.04307556 C-1.11711957 2.23423914 -1.11711957 2.23423914 0 0 Z " fill="#FAFCF9" transform="translate(1310,977)"/>
<path d="M0 0 C1.98 0 3.96 0 6 0 C6 17.49 6 34.98 6 53 C4.02 53 2.04 53 0 53 C-0.33 51.68 -0.66 50.36 -1 49 C-1.74443359 49.54140625 -1.74443359 49.54140625 -2.50390625 50.09375 C-7.13647891 53.25831577 -10.21890628 54.85645833 -16 54 C-21.80829232 51.90901476 -25.44871867 48.23816418 -28.1171875 42.66796875 C-30.13307496 36.5757071 -30.05488968 29.43592488 -27.375 23.5625 C-24.87368644 19.2745339 -21.45752558 16.22876279 -17 14 C-10.56568321 13.45471892 -7.31011237 14.31543223 -2 18 C-1.67 18.66 -1.34 19.32 -1 20 C-0.67 13.4 -0.34 6.8 0 0 Z " fill="#F9FCF8" transform="translate(795,977)"/>
<path d="M0 0 C1.98 0 3.96 0 6 0 C6 17.49 6 34.98 6 53 C4.02 53 2.04 53 0 53 C-0.33 51.68 -0.66 50.36 -1 49 C-1.74443359 49.54140625 -1.74443359 49.54140625 -2.50390625 50.09375 C-7.13647891 53.25831577 -10.21890628 54.85645833 -16 54 C-21.80829232 51.90901476 -25.44871867 48.23816418 -28.1171875 42.66796875 C-30.13307496 36.5757071 -30.05488968 29.43592488 -27.375 23.5625 C-24.87368644 19.2745339 -21.45752558 16.22876279 -17 14 C-10.56568321 13.45471892 -7.31011237 14.31543223 -2 18 C-1.67 18.66 -1.34 19.32 -1 20 C-0.67 13.4 -0.34 6.8 0 0 Z " fill="#F9FCF8" transform="translate(754,977)"/>
<path d="M0 0 C4.16942806 3.0177329 7.40395383 6.66334038 8.81640625 11.6875 C9.109375 13.6171875 9.109375 13.6171875 9.234375 16.6171875 C5.604375 16.6171875 1.974375 16.6171875 -1.765625 16.6171875 C-2.384375 15.225 -2.384375 15.225 -3.015625 13.8046875 C-4.77898319 10.59285651 -5.69266929 9.45235019 -8.765625 7.6171875 C-12.49445611 6.95033246 -16.02731195 7.02371644 -19.765625 7.6171875 C-23.68681107 10.41803469 -25.27361784 13.12178932 -26.765625 17.6171875 C-27.59874279 25.18305953 -27.61342647 32.41835939 -22.765625 38.6171875 C-19.28348646 41.71242176 -16.19017319 42.03947836 -11.6953125 41.8359375 C-9.00713282 41.53120458 -7.07865276 41.04582229 -4.765625 39.6171875 C-3.45494167 37.17430122 -3.45494167 37.17430122 -2.765625 34.6171875 C-2.270625 33.6271875 -2.270625 33.6271875 -1.765625 32.6171875 C1.864375 32.6171875 5.494375 32.6171875 9.234375 32.6171875 C8.09465916 39.11356778 6.18929657 43.18011997 1.234375 47.6171875 C-5.5216061 51.75350246 -12.97827975 52.54375665 -20.765625 51.6171875 C-28.56288413 48.99269106 -32.90574075 45.13277316 -36.8359375 38.0078125 C-39.05953411 33.51098999 -39.38777839 29.64038429 -39.265625 24.6796875 C-39.25281494 23.88844482 -39.24000488 23.09720215 -39.22680664 22.28198242 C-38.94626482 14.20787237 -36.95832076 8.81054784 -31.578125 2.7421875 C-22.83951015 -5.25429445 -10.07648828 -5.68005868 0 0 Z " fill="#FAFCF9" transform="translate(1160.765625,979.3828125)"/>
<path d="M0 0 C4.68427986 -1.12334611 8.37080164 -1.47176934 13 0 C17.09516236 4.36604362 19.59312217 10.04283947 22.0612793 15.43945312 C22.37105713 15.95443359 22.68083496 16.46941406 23 17 C23.66 17 24.32 17 25 17 C26.01636397 15.37653683 26.01636397 15.37653683 26.92578125 13.28125 C31.77391175 3.43948317 31.77391175 3.43948317 35 0 C39.62919836 -1.47176934 43.31572014 -1.12334611 48 0 C42.03472622 10.64542427 42.03472622 10.64542427 38.49609375 15.515625 C37.87432251 16.37377808 37.87432251 16.37377808 37.23999023 17.24926758 C36.04786801 18.87232825 34.83679852 20.48142039 33.625 22.08984375 C31.74951212 24.80027336 31.74951212 24.80027336 32.23266602 27.41625977 C33.03677003 30.12381077 34.04306832 31.93919068 35.65234375 34.25 C36.18150391 35.0234375 36.71066406 35.796875 37.25585938 36.59375 C37.81080078 37.3878125 38.36574219 38.181875 38.9375 39 C40.03425478 40.58035308 41.12684291 42.16360753 42.21484375 43.75 C42.70073975 44.44609375 43.18663574 45.1421875 43.68725586 45.859375 C45.09955051 48.16233195 46.06479088 50.46998703 47 53 C42.87800216 53.54026185 39.10288927 53.76174 35 53 C32.11093007 50.45692647 30.67539139 47.42477484 29 44 C28.10111862 42.48927499 27.18556947 40.98828342 26.25 39.5 C25.86328125 38.8503125 25.4765625 38.200625 25.078125 37.53125 C24.06461786 35.83486006 24.06461786 35.83486006 22 35 C21.73960938 35.68449219 21.47921875 36.36898437 21.2109375 37.07421875 C18.79552002 42.91017905 16.29465561 48.34411167 12 53 C7.79764114 54.10966933 4.23846406 53.82650049 0 53 C1.3170544 49.4054644 2.9078346 46.42859475 5.07421875 43.27734375 C5.65880859 42.40916016 6.24339844 41.54097656 6.84570312 40.64648438 C8.07909568 38.83236404 9.3187486 37.02248511 10.56445312 35.21679688 C11.14517578 34.34990234 11.72589844 33.48300781 12.32421875 32.58984375 C12.86135498 31.80472412 13.39849121 31.01960449 13.9519043 30.21069336 C15.17710436 28.1044279 15.17710436 28.1044279 14.83300781 26.00219727 C13.85277289 23.64612851 12.68114664 21.55219953 11.34765625 19.375 C10.81849609 18.50359375 10.28933594 17.6321875 9.74414062 16.734375 C9.18919922 15.83203125 8.63425781 14.9296875 8.0625 14 C6.96877828 12.20911064 5.87628339 10.41747132 4.78515625 8.625 C4.29926025 7.83351563 3.81336426 7.04203125 3.31274414 6.2265625 C2.11064153 4.18766054 1.02856811 2.13071396 0 0 Z " fill="#FAFCF9" transform="translate(1399,977)"/>
<path d="M0 0 C11.55 0 23.1 0 35 0 C35 2.97 35 5.94 35 9 C27.08 9 19.16 9 11 9 C11 13.29 11 17.58 11 22 C18.59 22 26.18 22 34 22 C34 24.97 34 27.94 34 31 C26.41 31 18.82 31 11 31 C11 35.29 11 39.58 11 44 C18.92 44 26.84 44 35 44 C35 46.97 35 49.94 35 53 C23.45 53 11.9 53 0 53 C0 35.51 0 18.02 0 0 Z " fill="#F9FCF8" transform="translate(1080,977)"/>
<path d="M0 0 C4.48293182 1.91883067 7.59445729 4.49457771 9.96484375 8.77734375 C12.22030695 15.7100348 12.15908774 24.32881786 9.25 31.0703125 C6.89776309 34.94855256 3.86726051 36.50560856 -0.1875 38.3828125 C-1.1775 38.8778125 -1.1775 38.8778125 -2.1875 39.3828125 C-8.04605005 40.23363927 -12.5480911 39.51412927 -17.390625 36.046875 C-22.49962695 31.31549493 -24.47965153 26.22727996 -24.75 19.3203125 C-24.43590706 12.47134137 -22.66708063 7.7384141 -17.6875 3.0078125 C-11.82172845 -0.80493901 -6.88248585 -1.94184422 0 0 Z " fill="#F7FBF6" transform="translate(881.1875,991.6171875)"/>
<path d="M0 0 C2.31 0 4.62 0 7 0 C11.11902454 9.5373387 14.76964843 19.229494 18.35864258 28.97583008 C19.32290971 31.59072903 20.29510661 34.20259591 21.26757812 36.81445312 C21.88329416 38.48159302 22.49854602 40.14890444 23.11328125 41.81640625 C23.54910271 42.98351891 23.54910271 42.98351891 23.99372864 44.17420959 C25.11662639 47.24267287 26 49.70532386 26 53 C23.69 53 21.38 53 19 53 C17.33333333 48 15.66666667 43 14 38 C3.605 38.495 3.605 38.495 -7 39 C-7.639375 41.124375 -8.27875 43.24875 -8.9375 45.4375 C-10.875 51.875 -10.875 51.875 -12 53 C-14.33297433 53.04092937 -16.66705225 53.04241723 -19 53 C-17.05750565 46.2782361 -14.88223465 39.68852666 -12.4609375 33.125 C-12.13461334 32.23385498 -11.80828918 31.34270996 -11.47207642 30.42456055 C-10.78939907 28.56199576 -10.10533366 26.69993918 -9.41992188 24.83837891 C-8.36788051 21.98066093 -7.3203167 19.12133136 -6.2734375 16.26171875 C-5.60702856 14.44521793 -4.94037097 12.6288083 -4.2734375 10.8125 C-3.95990326 9.95736816 -3.64636902 9.10223633 -3.32333374 8.22119141 C-3.03278107 7.43276855 -2.74222839 6.6443457 -2.44287109 5.83203125 C-2.06006485 4.79139526 -2.06006485 4.79139526 -1.66952515 3.72973633 C-1 2 -1 2 0 0 Z " fill="#F7FBF6" transform="translate(696,977)"/>
<path d="M0 0 C3.97190025 2.31560176 6.88901139 6.04364778 8.9296875 10.125 C9.69487763 16.87372608 9.09769953 22.60588926 4.9296875 28.125 C-1.11467336 32.93581783 -6.51964216 33.97312522 -14.0703125 33.125 C-19.77881277 30.27074986 -23.53528528 25.95016893 -26.0703125 20.125 C-26.93445122 15.28582318 -26.48964354 11.17603296 -24.0703125 6.875 C-17.94995902 -1.76956706 -9.7658748 -3.95194933 0 0 Z " fill="#F9FCF8" transform="translate(633.0703125,958.875)"/>
<path d="M0 0 C3.65430345 1.51859299 6.88272344 3.29624104 9.08740234 6.65820312 C10.32709164 9.8393427 10.22420973 12.54325141 10.1953125 15.953125 C10.1924826 16.61334656 10.18965271 17.27356812 10.18673706 17.95379639 C10.17558415 20.05271897 10.15048946 22.15120742 10.125 24.25 C10.11496384 25.67707715 10.1058391 27.10416102 10.09765625 28.53125 C10.07566111 32.02097328 10.04116536 35.51044423 10 39 C8.02 39 6.04 39 4 39 C3.505 36.525 3.505 36.525 3 34 C2.154375 34.804375 1.30875 35.60875 0.4375 36.4375 C-2.93920419 39.22764055 -5.55764944 39.92206403 -10 40 C-13.97693982 39.3259424 -16.3171826 38.56026043 -19.4375 36 C-21.69346929 31.66853895 -22.05895895 27.77708149 -21 23 C-18.66551367 19.77270072 -15.76247285 18.25415762 -12 17 C-9.42734182 16.92970879 -6.88358569 16.90629168 -4.3125 16.9375 C-3.61060547 16.94201172 -2.90871094 16.94652344 -2.18554688 16.95117188 C-0.45699462 16.96293073 1.27151365 16.98086546 3 17 C2.63627047 12.1564539 2.63627047 12.1564539 0.375 8.0625 C-3.02619871 6.5409111 -5.31282731 6.48250208 -9 7 C-10.68711423 8.6459651 -12.3545622 10.31237149 -14 12 C-17.3125 12.3125 -17.3125 12.3125 -20 12 C-19.58443583 7.15175132 -17.62551755 5.11963138 -14 2 C-9.4884271 -0.69375752 -5.12257228 -0.75918362 0 0 Z " fill="#F7FBF6" transform="translate(985,991)"/>
<path d="M0 0 C5.06395999 2.393872 6.87967804 4.91122729 9 10 C9.90881814 17.0576688 10.02149718 24.30998553 6.18359375 30.51171875 C3.69006107 33.64715093 1.62917551 34.75985353 -2.33203125 35.34375 C-6.6201539 35.60090878 -9.95570861 35.57338833 -13.4375 32.875 C-18.86140232 26.78964618 -19.49963913 22.07010136 -19.28125 14.0625 C-18.78698294 8.6804809 -16.96300778 6.08044775 -13.4375 2.125 C-9.36445886 -1.01357784 -4.90077659 -0.85265544 0 0 Z " fill="#69B94D" transform="translate(1205,986)"/>
<path d="M0 0 C5.39999111 3.02570931 9.38498277 6.96950003 11.625 12.875 C11.625 13.865 11.625 14.855 11.625 15.875 C8.4375 16.375 8.4375 16.375 4.625 15.875 C3.05506237 13.95958863 2.02535492 12.05318814 0.9609375 9.8203125 C-0.83484293 7.20540415 -2.35108376 6.7352142 -5.375 5.875 C-10.65837303 5.21361706 -15.04248725 5.23253849 -19.875 7.5625 C-24.80989215 12.12727523 -26.10094204 16.36615955 -26.61328125 22.92578125 C-26.76935767 29.784929 -26.64727152 35.27970245 -22.375 40.875 C-17.7671238 45.25810175 -13.91437186 46.24304454 -7.7265625 46.15234375 C-3.71721694 45.67948074 -1.60408247 44.32910267 1.625 41.875 C3.58683059 38.79119214 3.58683059 38.79119214 4.625 35.875 C6.935 35.875 9.245 35.875 11.625 35.875 C11.28647275 41.29143597 8.24432379 45.0731226 4.625 48.875 C-0.64764046 53.17699528 -6.4941065 53.55822838 -13.12109375 53.3125 C-19.27418678 52.48519337 -24.0999088 50.44807612 -28.25390625 45.75 C-34.4458838 36.91710673 -35.24491053 28.49011076 -34.375 17.875 C-32.77543088 10.63383681 -29.25127419 5.36641977 -23.375 0.875 C-15.93803756 -3.55857376 -7.77918354 -3.59395961 0 0 Z " fill="#F6FAF5" transform="translate(947.375,978.125)"/>
<path d="M0 0 C13.2 0 26.4 0 40 0 C40 1.98 40 3.96 40 6 C34.39 6 28.78 6 23 6 C23 21.51 23 37.02 23 53 C20.69 53 18.38 53 16 53 C16 37.49 16 21.98 16 6 C10.72 6 5.44 6 0 6 C0 4.02 0 2.04 0 0 Z " fill="#F6FAF5" transform="translate(823,977)"/>
<path d="M0 0 C4.22882569 1.82608382 5.95470514 3.93245586 8 8 C8.78262537 13.23865453 9.14416565 19.01942466 6.1875 23.625 C3.14557407 26.92766244 1.65340737 27.93676703 -2.875 28.375 C-6.01181815 28.28850685 -7.05126163 27.96991165 -9.875 26.3125 C-14.13100748 21.68096245 -14.33711218 17.45374166 -14.18359375 11.3671875 C-13.84638748 7.01937896 -12.79493295 4.84035769 -9.8125 1.6875 C-6.21852832 -0.46888301 -4.13327601 -0.5166595 0 0 Z " fill="#6BBA4E" transform="translate(878,997)"/>
<path d="M0 0 C4.21944877 1.59911567 5.41888142 3.81165036 7.23828125 7.78125 C8.88914677 12.58992496 8.57585576 16.54664976 6.6875 21.3125 C3.38904243 26.56559909 3.38904243 26.56559909 -0.0859375 27.65234375 C-4.17492396 28.16172261 -6.27037457 28.41914652 -9.9375 26.3125 C-14.29410954 21.42781657 -14.42567482 17.32141201 -14.32421875 10.921875 C-13.86574106 6.79005198 -12.79576666 5.0354038 -10 2 C-6.29873141 -0.46751239 -4.37776468 -0.30721156 0 0 Z " fill="#6BBA4E" transform="translate(787,997)"/>
<path d="M0 0 C4.21944877 1.59911567 5.41888142 3.81165036 7.23828125 7.78125 C8.88914677 12.58992496 8.57585576 16.54664976 6.6875 21.3125 C3.38904243 26.56559909 3.38904243 26.56559909 -0.0859375 27.65234375 C-4.17492396 28.16172261 -6.27037457 28.41914652 -9.9375 26.3125 C-14.29410954 21.42781657 -14.42567482 17.32141201 -14.32421875 10.921875 C-13.86574106 6.79005198 -12.79576666 5.0354038 -10 2 C-6.29873141 -0.46751239 -4.37776468 -0.30721156 0 0 Z " fill="#6BBA4E" transform="translate(746,997)"/>
<path d="M0 0 C1.98 0 3.96 0 6 0 C6 2.97 6 5.94 6 9 C8.64 9 11.28 9 14 9 C14 10.65 14 12.3 14 14 C11.36 14 8.72 14 6 14 C6.1097257 17.93808228 6.24039131 21.87519589 6.375 25.8125 C6.4059375 26.93205078 6.436875 28.05160156 6.46875 29.20507812 C6.50742188 30.27822266 6.54609375 31.35136719 6.5859375 32.45703125 C6.6173584 33.44678955 6.6487793 34.43654785 6.68115234 35.45629883 C6.83773433 38.24075094 6.83773433 38.24075094 9 41 C11.56282742 41.72965366 11.56282742 41.72965366 14 42 C14 43.65 14 45.3 14 47 C12.41906283 47.1357675 10.83473048 47.23234745 9.25 47.3125 C8.36828125 47.37050781 7.4865625 47.42851563 6.578125 47.48828125 C4 47 4 47 1.86328125 44.86914062 C-0.35625259 41.45143076 -0.46719132 39.64434193 -0.390625 35.60546875 C-0.37773438 34.40341797 -0.36484375 33.20136719 -0.3515625 31.96289062 C-0.31804687 30.71701172 -0.28453125 29.47113281 -0.25 28.1875 C-0.23195313 26.92228516 -0.21390625 25.65707031 -0.1953125 24.35351562 C-0.14823916 21.23490665 -0.08249094 18.11784027 0 15 C-1.98 15 -3.96 15 -6 15 C-6 13.02 -6 11.04 -6 9 C-4.02 9 -2.04 9 0 9 C0 6.03 0 3.06 0 0 Z " fill="#F8FBF7" transform="translate(1028,983)"/>
<path d="M0 0 C0.886875 0.103125 1.77375 0.20625 2.6875 0.3125 C2.6875 2.6225 2.6875 4.9325 2.6875 7.3125 C2.04941406 7.43367187 1.41132812 7.55484375 0.75390625 7.6796875 C-0.07238281 7.84726562 -0.89867187 8.01484375 -1.75 8.1875 C-2.98556641 8.43113281 -2.98556641 8.43113281 -4.24609375 8.6796875 C-4.92800781 8.88851562 -5.60992188 9.09734375 -6.3125 9.3125 C-7.70810045 12.10370091 -7.53058288 14.51455692 -7.62890625 17.6328125 C-7.67080078 18.88964844 -7.71269531 20.14648438 -7.75585938 21.44140625 C-7.79517578 22.76011719 -7.83449219 24.07882812 -7.875 25.4375 C-7.91819512 26.77735751 -7.96180973 28.11720156 -8.00585938 29.45703125 C-8.11220981 32.74207815 -8.21423808 36.02720281 -8.3125 39.3125 C-10.6225 39.3125 -12.9325 39.3125 -15.3125 39.3125 C-15.3125 26.7725 -15.3125 14.2325 -15.3125 1.3125 C-13.3325 1.3125 -11.3525 1.3125 -9.3125 1.3125 C-8.9825 2.6325 -8.6525 3.9525 -8.3125 5.3125 C-7.61125 4.4875 -6.91 3.6625 -6.1875 2.8125 C-3.3125 0.3125 -3.3125 0.3125 0 0 Z " fill="#F2F8F0" transform="translate(1018.3125,990.6875)"/>
<path d="M0 0 C3.5578125 -0.12375 3.5578125 -0.12375 7.1875 -0.25 C7.92508545 -0.28641602 8.6626709 -0.32283203 9.42260742 -0.36035156 C12.99085078 -0.42010338 14.89904062 -0.06279834 17.9453125 1.83203125 C20 4 20 4 20.6875 6.9375 C19.94683376 10.23683141 18.98494934 12.03176179 16.265625 14.09765625 C11.15758283 16.13206615 5.36954921 15.25328062 0 15 C0 10.05 0 5.1 0 0 Z " fill="#70BC56" transform="translate(1258,1007)"/>
<path d="M0 0 C2 1 2 1 2.7109375 2.93359375 C3.03964844 4.17302734 3.03964844 4.17302734 3.375 5.4375 C4.68445902 10.10454623 6.34524834 14.50635562 8.23046875 18.96875 C9 21 9 21 9 23 C3.72 23 -1.56 23 -7 23 C-5.875 15.125 -5.875 15.125 -4.58984375 11.81640625 C-4.32236328 11.11708984 -4.05488281 10.41777344 -3.77929688 9.69726562 C-3.36260742 8.64055664 -3.36260742 8.64055664 -2.9375 7.5625 C-2.65583984 6.83095703 -2.37417969 6.09941406 -2.08398438 5.34570312 C-1.39586753 3.56126454 -0.69885394 1.78026095 0 0 Z " fill="#6CBA51" transform="translate(699,986)"/>
<path d="M0 0 C12.34444896 -0.49377796 12.34444896 -0.49377796 15.421875 1.82421875 C17 4 17 4 17 7.0625 C15.83162169 10.49461129 15.10349546 11.22954957 12 13 C8.984375 13.29296875 8.984375 13.29296875 5.75 13.1875 C2.90375 13.0946875 2.90375 13.0946875 0 13 C0 8.71 0 4.42 0 0 Z " fill="#6BBA4E" transform="translate(1259,986)"/>
<path d="M0 0 C1.74216797 0.05414062 1.74216797 0.05414062 3.51953125 0.109375 C4.39996094 0.15578125 5.28039062 0.2021875 6.1875 0.25 C6.4140625 5.8984375 6.4140625 5.8984375 4.375 9.0625 C1.51296756 11.92453244 -0.23937764 12.20831837 -4.25 12.5 C-7.8125 12.25 -7.8125 12.25 -10.25 11.0625 C-11.8125 9.25 -11.8125 9.25 -12.375 6.8125 C-10.98811447 0.49446592 -5.65584582 -0.22851902 0 0 Z " fill="#6BBA4F" transform="translate(981.8125,1012.75)"/>
<path d="M0 0 C2 1 2 1 3.2890625 4.45703125 C3.74239729 5.90636923 4.18735478 7.35834744 4.625 8.8125 C4.85445312 9.53759766 5.08390625 10.26269531 5.3203125 11.00976562 C6.39846378 14.51696606 7 17.30136712 7 21 C2.71 21 -1.58 21 -6 21 C-4.875 14.25 -4.875 14.25 -3.80859375 11.1328125 C-3.58623047 10.47539063 -3.36386719 9.81796875 -3.13476562 9.140625 C-2.90466797 8.47546875 -2.67457031 7.8103125 -2.4375 7.125 C-2.20353516 6.43664062 -1.96957031 5.74828125 -1.72851562 5.0390625 C-1.15647501 3.35796355 -0.57881544 1.67877837 0 0 Z " fill="#6DBB52" transform="translate(1316,988)"/>
<path d="M0 0 C1.32 0.33 2.64 0.66 4 1 C4 3.31 4 5.62 4 8 C6.31 8 8.62 8 11 8 C11 9.32 11 10.64 11 12 C8.69 12 6.38 12 4 12 C4 14.31 4 16.62 4 19 C2.68 19 1.36 19 0 19 C0 16.69 0 14.38 0 12 C-2.31 12 -4.62 12 -7 12 C-7.33 10.68 -7.66 9.36 -8 8 C-5.36 8 -2.72 8 0 8 C0 5.36 0 2.72 0 0 Z " fill="#6CBB50" transform="translate(623,965)"/>
<path d="M0 0 C1.32 0 2.64 0 4 0 C4.38218767 1.65614657 4.71395102 3.32457024 5 5 C4 6 4 6 1.4375 6.0625 C0.2309375 6.0315625 0.2309375 6.0315625 -1 6 C-1.625 4.125 -1.625 4.125 -2 2 C-1.34 1.34 -0.68 0.68 0 0 Z " fill="#72BD57" transform="translate(621,1033)"/>
<path d="M0 0 C1.67542976 0.28604898 3.34385343 0.61781233 5 1 C4.67 2.65 4.34 4.3 4 6 C2.35 5.67 0.7 5.34 -1 5 C-1 1 -1 1 0 0 Z " fill="#71BD56" transform="translate(578,1033)"/>
</svg>
