<?xml version="1.0" encoding="utf-8"?>
<!-- Generator: Adobe Illustrator 16.0.0, SVG Export Plug-In . SVG Version: 6.00 Build 0)  -->
<!DOCTYPE svg PUBLIC "-//W3C//DTD SVG 1.1//EN" "http://www.w3.org/Graphics/SVG/1.1/DTD/svg11.dtd">
<svg version="1.1" id="Layer_1" xmlns="http://www.w3.org/2000/svg" xmlns:xlink="http://www.w3.org/1999/xlink" x="0px" y="0px"
	 width="35px" height="35px" viewBox="15 15 35 35" enable-background="new 15 15 35 35" xml:space="preserve">
<g>
	<circle fill="#F7931A" cx="32.312" cy="32.493" r="16.333"/>
	<path fill="#FFFFFF" d="M39.649,30.472c0.321-2.139-1.307-3.291-3.536-4.06l0.725-2.896l-1.766-0.438L34.367,25.9
		c-0.46-0.117-0.939-0.225-1.415-0.333l0.71-2.84l-1.764-0.442l-0.722,2.898c-0.384-0.087-0.762-0.172-1.128-0.266l0.003-0.008
		l-2.434-0.606l-0.468,1.882c0,0,1.31,0.301,1.282,0.319c0.712,0.178,0.842,0.65,0.822,1.027l-0.825,3.303
		c0.05,0.01,0.112,0.03,0.184,0.058l-0.186-0.047l-1.154,4.625c-0.086,0.219-0.309,0.544-0.809,0.419
		c0.019,0.028-1.282-0.318-1.282-0.318l-0.876,2.02l2.297,0.574c0.427,0.107,0.845,0.218,1.256,0.324l-0.73,2.931l1.762,0.438
		l0.725-2.897c0.483,0.131,0.949,0.253,1.406,0.365l-0.72,2.886l1.762,0.439l0.731-2.926c3.009,0.57,5.273,0.339,6.224-2.382
		c0.767-2.188-0.037-3.454-1.62-4.277C38.551,32.798,39.421,32.039,39.649,30.472z M35.616,36.128
		c-0.54,2.188-4.231,1.004-5.43,0.709l0.971-3.886C32.355,33.25,36.189,33.84,35.616,36.128z M36.163,30.44
		c-0.494,1.994-3.567,0.979-4.562,0.73l0.877-3.522C33.476,27.897,36.684,28.36,36.163,30.44z"/>
</g>
</svg>
