<svg width="541" height="585" viewBox="0 0 541 585" fill="none" xmlns="http://www.w3.org/2000/svg">
<g clip-path="url(#clip0_419_169)">
<path d="M339.968 185.531V199.664L412.594 157.035V142.884L339.968 185.531Z" fill="url(#paint0_linear_419_169)"/>
<path d="M340.006 185.532V199.664L267.399 157.344V143.25L340.006 185.532Z" fill="url(#paint1_linear_419_169)"/>
<path d="M267.399 143.25L340.006 185.531L412.594 142.884L339.91 100.563L267.399 143.25Z" fill="url(#paint2_linear_419_169)"/>
<path style="mix-blend-mode:screen" d="M340.006 184.357L268.401 142.672L267.399 143.25L340.006 185.531L412.594 142.884L411.593 142.306L340.006 184.357Z" fill="url(#paint3_radial_419_169)"/>
<path d="M339.968 165.623V179.775L412.594 137.127V122.995L339.968 165.623Z" fill="url(#paint4_linear_419_169)"/>
<path d="M340.006 165.623V179.775L267.399 137.454V123.341L340.006 165.623Z" fill="url(#paint5_linear_419_169)"/>
<path d="M267.399 123.341L340.006 165.623L412.594 122.994L339.91 80.6742L267.399 123.341Z" fill="url(#paint6_linear_419_169)"/>
<path style="mix-blend-mode:screen" d="M340.006 164.467L268.401 122.763L267.399 123.341L340.006 165.623L412.594 122.994L411.593 122.417L340.006 164.467Z" fill="url(#paint7_radial_419_169)"/>
<path d="M339.968 145.734V159.885L412.594 117.238V103.086L339.968 145.734Z" fill="url(#paint8_linear_419_169)"/>
<path d="M340.006 145.733V159.885L267.399 117.565V103.452L340.006 145.733Z" fill="url(#paint9_linear_419_169)"/>
<path d="M267.399 103.452L340.006 145.733L412.594 103.086L339.91 60.7656L267.399 103.452Z" fill="url(#paint10_linear_419_169)"/>
<path style="mix-blend-mode:screen" d="M340.006 144.578L268.401 102.874L267.399 103.452L340.006 145.733L412.594 103.086L411.593 102.508L340.006 144.578Z" fill="url(#paint11_radial_419_169)"/>
<path d="M339.968 125.844V139.976L412.594 97.3481V83.1964L339.968 125.844Z" fill="url(#paint12_linear_419_169)"/>
<path d="M340.006 125.844V139.977L267.399 97.6563V83.5624L340.006 125.844Z" fill="url(#paint13_linear_419_169)"/>
<path d="M267.399 83.5623L340.006 125.844L412.594 83.1965L339.91 40.8762L267.399 83.5623Z" fill="url(#paint14_linear_419_169)"/>
<path d="M278.836 83.5237L339.929 47.5573L401.138 83.2156L339.987 119.144L278.836 83.5237Z" fill="#0974FF"/>
<path d="M339.929 50.4453L398.673 84.6597L401.138 83.2156L339.929 47.5573L278.836 83.5237L281.301 84.9677L339.929 50.4453Z" fill="url(#paint15_linear_419_169)"/>
<path d="M339.929 50.4453L398.673 84.6597L401.138 83.2156L339.929 47.5573V50.4453Z" fill="#0054B8"/>
<path style="mix-blend-mode:screen" d="M340.006 124.67L268.401 82.9847L267.399 83.5623L340.006 125.844L412.594 83.1965L411.593 82.6189L340.006 124.67Z" fill="url(#paint16_radial_419_169)"/>
<path d="M377.378 86.9318C369.85 82.6575 364.786 77.1316 362.918 71.1436C353.307 70.3076 343.979 67.4607 335.539 62.7873L335.27 62.6333L331.169 65.4636C316.901 75.3409 314.533 85.2375 316.439 97.8874L316.728 98.0414C338.601 99.1389 355.756 97.7718 372.853 89.5311L377.705 87.2014L377.378 86.9318Z" fill="#43E8E1"/>
<path style="mix-blend-mode:color-dodge" d="M362.976 81.9642C353.365 81.1283 344.037 78.2813 335.597 73.608L335.327 73.4347L331.169 76.2073C321.734 82.7344 317.518 89.3 316.285 96.6357C316.285 97.0208 316.285 97.3867 316.42 97.791L316.728 97.945C336.868 98.9655 353.022 97.945 368.81 91.2446C366.154 88.6601 364.154 85.4783 362.976 81.9642Z" fill="url(#paint17_radial_419_169)"/>
<path style="mix-blend-mode:screen" d="M315.765 0V97.868L316.42 97.7525L316.728 97.9065C338.601 99.004 355.756 97.637 372.853 89.3963L377.705 87.0665V0H315.765Z" fill="url(#paint18_linear_419_169)"/>
<path d="M386.177 362.707V436.526L458.803 393.898V320.059L386.177 362.707Z" fill="url(#paint19_linear_419_169)"/>
<path d="M386.216 362.707V436.526L313.628 394.206V320.425L386.216 362.707Z" fill="#0054B8"/>
<path d="M313.628 320.425L386.216 362.707L458.803 320.059L386.139 277.739L313.628 320.425Z" fill="#0974FF"/>
<path style="mix-blend-mode:screen" d="M386.216 361.551L314.61 319.847L313.628 320.425L386.216 362.706L458.803 320.059L457.821 319.481L386.216 361.551Z" fill="url(#paint20_radial_419_169)"/>
<path d="M299.919 411.631V485.451L372.545 442.822V368.983L299.919 411.631Z" fill="url(#paint21_linear_419_169)"/>
<path d="M299.958 411.631V485.451L227.351 443.13V369.349L299.958 411.631Z" fill="#0054B8"/>
<path d="M227.351 369.349L299.958 411.631L372.545 368.983L299.861 326.663L227.351 369.349Z" fill="#0974FF"/>
<path style="mix-blend-mode:screen" d="M299.958 410.476L228.352 368.772L227.351 369.349L299.958 411.631L372.545 368.983L371.544 368.406L299.958 410.476Z" fill="url(#paint22_radial_419_169)"/>
<path style="mix-blend-mode:screen" d="M339.679 126.21L266.995 83.8895L222.152 110.903V184.703L294.701 226.985V227.024L294.721 227.004L294.74 227.024V226.985L339.679 200.03V126.21Z" fill="url(#paint23_linear_419_169)"/>
<path d="M468.353 412.44V486.279L540.96 443.65V369.811L468.353 412.44Z" fill="url(#paint24_linear_419_169)"/>
<path d="M468.392 412.44V486.279L395.785 443.958V370.177L468.392 412.44Z" fill="#0054B8"/>
<path d="M395.785 370.177L468.392 412.44L540.96 369.811L468.296 327.491L395.785 370.177Z" fill="#0974FF"/>
<path d="M384.136 461.364V535.203L456.743 492.575V418.736L384.136 461.364Z" fill="url(#paint25_linear_419_169)"/>
<path d="M384.175 461.364V535.203L311.568 492.883V419.102L384.175 461.364Z" fill="#0054B8"/>
<path d="M311.568 419.101L384.175 461.364L456.743 418.736L384.079 376.415L311.568 419.101Z" fill="#0974FF"/>
<path style="mix-blend-mode:screen" d="M96.1158 352.329L64.6355 371.024L137.223 413.287L137.204 413.306V487.126L168.8 468.488V394.649L96.1158 352.329Z" fill="url(#paint26_linear_419_169)"/>
<path d="M106.07 431.905V505.744L137.666 487.087V413.248L106.07 431.905Z" fill="url(#paint27_linear_419_169)"/>
<path d="M106.109 431.905V505.745L33.5211 463.424V389.643L106.109 431.905Z" fill="url(#paint28_linear_419_169)"/>
<path d="M39.2782 460.112V399.674L100.333 435.236V495.694L39.2782 460.112Z" fill="#0054B8"/>
<path d="M41.3769 458.976V400.906L39.2782 399.674V460.112L100.333 495.694V493.364L41.3769 458.976Z" fill="url(#paint29_linear_419_169)"/>
<path d="M41.3769 458.977L39.2782 460.113L100.333 495.694V493.364L41.3769 458.977Z" fill="#0974FF"/>
<path d="M33.5211 389.643L106.109 431.906L137.666 413.248L64.9821 370.928L33.5211 389.643Z" fill="url(#paint30_linear_419_169)"/>
<path style="mix-blend-mode:screen" d="M106.109 430.75L34.4839 389.046L33.502 389.643L106.109 431.906L137.666 413.248L136.684 412.69L106.109 430.75Z" fill="url(#paint31_radial_419_169)"/>
<path d="M73.1652 451.641V467.756L65.9257 463.578V447.463C62.9987 444.261 61.2706 440.145 61.0352 435.814C61.0352 430.404 64.886 428.247 69.5454 430.962C72.019 432.565 74.0792 434.729 75.558 437.278C77.0369 439.828 77.8927 442.691 78.0557 445.634C78.0749 449.542 76.0725 451.737 73.1652 451.641Z" fill="#43E8E1"/>
<path style="mix-blend-mode:color-dodge" d="M73.1652 451.641V467.756L65.9257 463.578V447.463C62.9987 444.261 61.2706 440.145 61.0352 435.814C61.0352 430.404 64.886 428.247 69.5454 430.962C72.019 432.565 74.0792 434.729 75.558 437.278C77.0369 439.828 77.8927 442.691 78.0557 445.634C78.0749 449.542 76.0725 451.737 73.1652 451.641Z" fill="url(#paint32_radial_419_169)"/>
<path style="mix-blend-mode:screen" d="M69.5647 430.943C66.33 429.017 63.5189 429.537 62.0749 431.751L0 465.272V506.38L73.1652 467.756V451.641C76.0532 451.737 78.0557 449.542 78.0557 445.633C77.8917 442.69 77.0377 439.827 75.5627 437.275C74.0876 434.723 72.033 432.554 69.5647 430.943Z" fill="url(#paint33_linear_419_169)"/>
<path d="M217.743 462.115V535.954L290.369 493.306V419.487L217.743 462.115Z" fill="url(#paint34_linear_419_169)"/>
<path d="M217.801 462.115V535.954L145.194 493.634V419.833L217.801 462.115Z" fill="#0054B8"/>
<path style="mix-blend-mode:lighten" opacity="0.2" d="M166.913 470.202V432.483L145.194 419.833V482.967L166.913 470.202Z" fill="url(#paint35_radial_419_169)"/>
<path d="M145.194 419.833L217.801 462.115L290.369 419.487L217.705 377.147L145.194 419.833Z" fill="#0974FF"/>
<path style="mix-blend-mode:screen" d="M217.801 460.96L146.176 419.256L145.194 419.833L217.801 462.115L290.369 419.487L289.388 418.909L217.801 460.96Z" fill="url(#paint36_radial_419_169)"/>
<path d="M135.587 329.724V403.564L208.213 360.916V287.077L135.587 329.724Z" fill="url(#paint37_linear_419_169)"/>
<path d="M135.625 329.725V403.564L63.0375 361.243V287.443L135.625 329.725Z" fill="#0054B8"/>
<path d="M63.0375 287.443L135.625 329.724L208.213 287.077L135.529 244.757L63.0375 287.443Z" fill="#0974FF"/>
<path style="mix-blend-mode:screen" d="M135.625 328.569L64.0195 286.865L63.0375 287.443L135.625 329.725L208.213 287.077L207.231 286.499L135.625 328.569Z" fill="url(#paint38_radial_419_169)"/>
<path style="mix-blend-mode:lighten" opacity="0.2" d="M104.645 364.555L92.419 357.47C87.5285 354.659 83.1001 354.37 79.8847 356.16L73.5501 360.011C76.7463 358.317 81.1169 358.625 85.9112 361.397L98.1952 368.406C105.897 372.834 112.385 382.172 114.888 391.511L122.59 395.939V395.342C122.436 383.982 114.465 370.235 104.645 364.555Z" fill="url(#paint39_radial_419_169)"/>
<path d="M299.919 510.288V584.128L372.545 541.499V467.66L299.919 510.288Z" fill="url(#paint40_linear_419_169)"/>
<path d="M299.958 510.288V584.127L227.351 541.807V468.026L299.958 510.288Z" fill="#0054B8"/>
<path d="M227.351 468.026L299.958 510.288L372.545 467.66L299.861 425.34L227.351 468.026Z" fill="#0974FF"/>
<path style="mix-blend-mode:screen" d="M299.958 509.133L228.352 467.429L227.351 468.026L299.958 510.288L372.545 467.66L371.544 467.082L299.958 509.133Z" fill="url(#paint41_radial_419_169)"/>
<path d="M217.743 377.898V451.737L290.369 409.089V335.25L217.743 377.898Z" fill="url(#paint42_linear_419_169)"/>
<path d="M217.801 377.898V451.737L145.194 409.417V335.616L217.801 377.898Z" fill="#0054B8"/>
<path d="M145.194 335.616L217.801 377.898L290.369 335.25L217.705 292.93L145.194 335.616Z" fill="#0974FF"/>
<path style="mix-blend-mode:screen" d="M217.801 376.743L146.176 335.038L145.194 335.616L217.801 377.898L290.369 335.25L289.388 334.692L217.801 376.743Z" fill="url(#paint43_radial_419_169)"/>
<path d="M299.919 485.759V499.911L372.545 457.282V443.13L299.919 485.759Z" fill="url(#paint44_linear_419_169)"/>
<path d="M299.958 485.759V499.91L227.351 457.59V443.496L299.958 485.759Z" fill="#0054B8"/>
<path d="M227.351 443.496L299.958 485.759L372.545 443.131L299.861 400.791L227.351 443.496Z" fill="#0974FF"/>
<path d="M234.302 437.759L299.958 475.978L365.575 437.47L299.862 399.193L234.302 437.759ZM299.958 478.057C299.787 478.063 299.619 478.016 299.477 477.922L231.914 438.587C231.766 438.505 231.642 438.386 231.555 438.24C231.469 438.094 231.423 437.928 231.423 437.759C231.423 437.589 231.469 437.423 231.555 437.277C231.642 437.132 231.766 437.012 231.914 436.931L299.303 397.21C299.45 397.125 299.616 397.081 299.785 397.081C299.954 397.081 300.12 397.125 300.266 397.21L367.905 436.584C368.053 436.668 368.177 436.79 368.262 436.937C368.348 437.084 368.393 437.251 368.393 437.422C368.393 437.592 368.348 437.759 368.262 437.906C368.177 438.054 368.053 438.175 367.905 438.259L300.362 477.922C300.241 478 300.102 478.047 299.958 478.057Z" fill="#43E8E1"/>
<path d="M234.302 429.364L299.958 467.602L365.575 429.094L299.862 390.837L234.302 429.364ZM299.958 469.682C299.787 469.687 299.619 469.64 299.476 469.547L231.914 430.211C231.771 430.124 231.652 430.003 231.568 429.858C231.484 429.714 231.438 429.55 231.433 429.383C231.434 429.215 231.479 429.05 231.563 428.905C231.648 428.76 231.769 428.639 231.914 428.555L299.303 388.834C299.446 388.739 299.613 388.688 299.785 388.688C299.956 388.688 300.123 388.739 300.266 388.834L367.905 428.209C368.054 428.29 368.178 428.41 368.264 428.555C368.351 428.701 368.396 428.867 368.396 429.037C368.396 429.206 368.351 429.372 368.264 429.518C368.178 429.664 368.054 429.783 367.905 429.864L300.362 469.508C300.238 469.58 300.1 469.626 299.958 469.643V469.682Z" fill="#43E8E1"/>
<path d="M234.302 420.911L299.958 459.131L365.575 420.623L299.862 382.346L234.302 420.911ZM299.958 461.21C299.787 461.216 299.619 461.169 299.477 461.075L231.914 421.662C231.766 421.581 231.642 421.461 231.555 421.316C231.469 421.17 231.423 421.004 231.423 420.834C231.423 420.665 231.469 420.499 231.555 420.353C231.642 420.207 231.766 420.088 231.914 420.006L299.303 380.285C299.45 380.201 299.616 380.156 299.785 380.156C299.954 380.156 300.12 380.201 300.266 380.285L367.982 419.737C368.13 419.821 368.254 419.943 368.339 420.09C368.425 420.237 368.47 420.404 368.47 420.574C368.47 420.745 368.425 420.912 368.339 421.059C368.254 421.206 368.13 421.328 367.982 421.412L300.362 461.075C300.241 461.153 300.102 461.199 299.958 461.21Z" fill="#43E8E1"/>
<path d="M234.302 412.478L299.958 450.717L365.575 412.209L299.862 373.951L234.302 412.478ZM299.958 452.796C299.787 452.802 299.619 452.755 299.476 452.661L231.914 413.325C231.771 413.239 231.652 413.117 231.568 412.973C231.484 412.828 231.438 412.665 231.433 412.497C231.434 412.329 231.479 412.165 231.563 412.019C231.648 411.874 231.769 411.754 231.914 411.67L299.303 371.949C299.447 371.858 299.614 371.81 299.785 371.81C299.955 371.81 300.122 371.858 300.266 371.949L367.905 411.323C368.054 411.404 368.178 411.524 368.264 411.67C368.351 411.815 368.396 411.982 368.396 412.151C368.396 412.32 368.351 412.487 368.264 412.632C368.178 412.778 368.054 412.898 367.905 412.979L300.362 452.661C300.238 452.733 300.1 452.779 299.958 452.796Z" fill="#43E8E1"/>
<g opacity="0.5">
<path d="M234.302 404.064L299.958 442.283L365.575 403.775L299.862 365.498L234.302 404.064ZM299.958 444.363C299.787 444.369 299.619 444.321 299.477 444.228L231.914 404.892C231.766 404.811 231.642 404.691 231.555 404.546C231.469 404.4 231.423 404.234 231.423 404.064C231.423 403.895 231.469 403.729 231.555 403.583C231.642 403.437 231.766 403.317 231.914 403.236L299.303 363.515C299.45 363.431 299.616 363.386 299.785 363.386C299.954 363.386 300.12 363.431 300.266 363.515L367.905 402.89C368.053 402.974 368.177 403.095 368.262 403.243C368.348 403.39 368.393 403.557 368.393 403.727C368.393 403.898 368.348 404.065 368.262 404.212C368.177 404.359 368.053 404.481 367.905 404.565L300.362 444.228C300.241 444.306 300.102 444.352 299.958 444.363Z" fill="#43E8E1"/>
</g>
<path d="M299.919 426.071V438.298L372.545 395.669V383.443L299.919 426.071Z" fill="url(#paint45_linear_419_169)"/>
<path d="M299.958 426.071V438.298L227.351 395.977V383.809L299.958 426.071Z" fill="#0054B8"/>
<path d="M227.351 383.809L299.958 426.071L372.545 383.443L299.861 341.104L227.351 383.809Z" fill="#0974FF"/>
<path style="mix-blend-mode:screen" d="M299.958 424.916L228.352 383.212L227.351 383.809L299.958 426.071L372.545 383.443L371.544 382.865L299.958 424.916Z" fill="url(#paint46_radial_419_169)"/>
<path style="mix-blend-mode:lighten" opacity="0.2" d="M372.545 395.669V383.443L320.733 413.845L331.188 419.929L372.545 395.669Z" fill="url(#paint47_radial_419_169)"/>
<path opacity="0.3" d="M299.919 426.071V499.911L372.545 457.282V383.443L299.919 426.071Z" fill="url(#paint48_linear_419_169)"/>
<path opacity="0.1" d="M299.958 426.071V499.91L227.351 457.59V383.809L299.958 426.071Z" fill="#0054B8"/>
<path d="M468.353 328.223V402.062L540.96 359.433V285.594L468.353 328.223Z" fill="url(#paint49_linear_419_169)"/>
<path d="M468.392 328.223V402.062L395.785 359.741V285.941L468.392 328.223Z" fill="#0054B8"/>
<path d="M395.785 285.941L468.392 328.223L540.96 285.594L468.296 243.274L395.785 285.941Z" fill="#0974FF"/>
<path style="mix-blend-mode:screen" d="M468.392 327.068L396.767 285.363L395.785 285.941L468.392 328.223L540.96 285.594L539.978 285.017L468.392 327.068Z" fill="url(#paint50_radial_419_169)"/>
<path style="mix-blend-mode:screen" d="M461.249 337.715L388.565 295.395L316.073 338.081V411.881L388.622 454.182V454.202L388.642 454.182L388.661 454.202V454.182L461.249 411.554V337.715Z" fill="url(#paint51_linear_419_169)"/>
<path d="M456.647 479.193V493.345L529.273 450.716V436.565L456.647 479.193Z" fill="url(#paint52_linear_419_169)"/>
<path d="M456.685 479.193V493.345L384.098 451.024V436.931L456.685 479.193Z" fill="url(#paint53_linear_419_169)"/>
<path d="M384.098 436.931L456.685 479.193L529.273 436.565L456.608 394.225L384.098 436.931Z" fill="url(#paint54_linear_419_169)"/>
<path style="mix-blend-mode:screen" d="M456.685 478.038L385.08 436.334L384.098 436.931L456.685 479.193L529.273 436.565L528.291 435.987L456.685 478.038Z" fill="url(#paint55_radial_419_169)"/>
<path d="M456.647 459.304V473.456L529.273 430.808V416.656L456.647 459.304Z" fill="url(#paint56_linear_419_169)"/>
<path d="M456.685 459.304V473.455L384.098 431.135V417.022L456.685 459.304Z" fill="url(#paint57_linear_419_169)"/>
<path d="M384.098 417.022L456.685 459.304L529.273 416.656L456.608 374.336L384.098 417.022Z" fill="url(#paint58_linear_419_169)"/>
<path style="mix-blend-mode:screen" d="M456.685 458.149L385.08 416.444L384.098 417.022L456.685 459.304L529.273 416.656L528.291 416.079L456.685 458.149Z" fill="url(#paint59_radial_419_169)"/>
<path d="M456.647 439.415V453.547L529.273 410.919V396.767L456.647 439.415Z" fill="url(#paint60_linear_419_169)"/>
<path d="M456.685 439.414V453.547L384.098 411.227V397.133L456.685 439.414Z" fill="url(#paint61_linear_419_169)"/>
<path d="M384.098 397.133L456.685 439.414L529.273 396.767L456.608 354.447L384.098 397.133Z" fill="url(#paint62_linear_419_169)"/>
<path style="mix-blend-mode:screen" d="M456.685 438.259L385.08 396.555L384.098 397.133L456.685 439.415L529.273 396.767L528.291 396.189L456.685 438.259Z" fill="url(#paint63_radial_419_169)"/>
<path d="M456.647 419.506V433.657L529.273 391.029V376.877L456.647 419.506Z" fill="url(#paint64_linear_419_169)"/>
<path d="M456.685 419.506V433.657L384.098 391.337V377.243L456.685 419.506Z" fill="url(#paint65_linear_419_169)"/>
<path d="M384.098 377.243L456.685 419.506L529.273 376.877L456.608 334.538L384.098 377.243Z" fill="url(#paint66_linear_419_169)"/>
<path d="M395.535 377.205L456.608 341.238L517.836 376.897L456.685 412.825L395.535 377.205Z" fill="#0974FF"/>
<path d="M456.608 344.126L515.371 378.341L517.836 376.897L456.608 341.238L395.535 377.205L397.999 378.649L456.608 344.126Z" fill="url(#paint67_linear_419_169)"/>
<path d="M456.608 344.126L515.372 378.341L517.836 376.897L456.608 341.238V344.126Z" fill="#0054B8"/>
<path style="mix-blend-mode:screen" d="M456.685 418.351L385.08 376.646L384.098 377.243L456.685 419.506L529.273 376.877L528.291 376.3L456.685 418.351Z" fill="url(#paint68_radial_419_169)"/>
<path d="M435.93 391.992L440.108 389.566C438.991 388.95 437.759 388.257 436.411 387.467L434.582 386.408L430.442 388.815C430.123 388.976 429.77 389.06 429.412 389.06C429.054 389.06 428.702 388.976 428.382 388.815L424.531 386.659C423.973 386.312 423.973 385.792 424.531 385.465L428.671 383.058L424.358 380.574C423.78 380.228 423.78 379.708 424.358 379.381L460.228 358.663C460.548 358.502 460.901 358.419 461.258 358.419C461.616 358.419 461.969 358.502 462.288 358.663L466.621 361.166L470.779 358.779C471.099 358.618 471.452 358.534 471.809 358.534C472.167 358.534 472.52 358.618 472.84 358.779L476.575 360.935C476.697 360.98 476.803 361.061 476.878 361.168C476.952 361.275 476.992 361.402 476.992 361.532C476.992 361.662 476.952 361.79 476.878 361.896C476.803 362.003 476.697 362.084 476.575 362.129L472.435 364.517L476.517 366.885L477.903 367.713L482.081 365.306C482.401 365.145 482.754 365.061 483.112 365.061C483.469 365.061 483.822 365.145 484.142 365.306L487.877 367.462C487.999 367.507 488.105 367.588 488.18 367.695C488.254 367.802 488.294 367.929 488.294 368.059C488.294 368.19 488.254 368.317 488.18 368.423C488.105 368.53 487.999 368.611 487.877 368.656L483.256 371.313C484.189 372.07 484.895 373.069 485.297 374.201C485.495 374.774 485.579 375.38 485.542 375.984C485.506 376.589 485.351 377.18 485.085 377.725C484.305 379.21 483.061 380.4 481.542 381.113C479.944 381.966 478.212 382.539 476.421 382.808C473.7 383.274 470.915 383.209 468.219 382.615C468.946 383.228 469.505 384.017 469.842 384.907C470.179 385.796 470.283 386.757 470.144 387.698C469.844 388.658 469.347 389.545 468.684 390.301C468.02 391.057 467.206 391.666 466.293 392.088C464.347 393.154 462.24 393.895 460.055 394.283C457.673 394.762 455.232 394.879 452.815 394.63C450.474 394.353 448.193 393.703 446.057 392.704L441.648 395.246C441.33 395.411 440.977 395.498 440.618 395.498C440.259 395.498 439.906 395.411 439.588 395.246L435.853 393.089C435.371 392.781 435.352 392.319 435.93 391.992ZM462.731 366.172L453.971 371.236L459.015 374.144C462.019 375.876 463.925 376.935 464.791 377.301C466.198 377.953 467.727 378.301 469.278 378.322C470.708 378.335 472.116 377.97 473.359 377.263C474.534 376.589 475.169 375.838 475.285 375.048C475.4 374.259 474.842 373.431 473.706 372.603C473.032 372.103 470.876 370.813 467.256 368.752L462.731 366.172ZM447.655 374.875L437.508 380.651L444.652 384.772C446.422 385.86 448.261 386.831 450.158 387.679C451.527 388.231 452.997 388.487 454.471 388.43C455.984 388.389 457.461 387.965 458.765 387.198C459.702 386.762 460.443 385.993 460.844 385.041C460.947 384.619 460.939 384.177 460.821 383.759C460.703 383.341 460.479 382.96 460.17 382.654C458.256 380.974 456.142 379.539 453.874 378.379L447.655 374.875Z" fill="#43E8E1"/>
<path style="mix-blend-mode:color-dodge" d="M485.374 374.201C484.973 373.074 484.275 372.076 483.352 371.313L484.257 370.774C483.937 370.613 483.585 370.529 483.227 370.529C482.869 370.529 482.516 370.613 482.197 370.774L478.019 373.181L476.632 372.353L472.551 370.004L476.69 367.597C476.872 367.506 477.01 367.347 477.075 367.154L476.632 366.904L472.551 364.536L472.993 364.285C472.674 364.125 472.321 364.041 471.963 364.041C471.606 364.041 471.253 364.125 470.933 364.285L466.774 366.673L462.442 364.189C462.124 364.024 461.771 363.938 461.412 363.938C461.054 363.938 460.7 364.024 460.382 364.189L428.209 382.769L428.844 383.135L424.704 385.542C424.539 385.63 424.41 385.773 424.339 385.946L424.531 386.1L428.844 388.603L428.401 388.854C428.721 389.014 429.074 389.098 429.431 389.098C429.789 389.098 430.142 389.014 430.461 388.854L434.601 386.447L436.43 387.506C437.778 388.295 439.01 388.988 440.127 389.605L435.949 392.031C435.857 392.073 435.775 392.134 435.709 392.21C435.642 392.287 435.593 392.376 435.564 392.473L436.43 392.955L440.127 395.073L439.646 395.342C439.964 395.508 440.317 395.594 440.676 395.594C441.034 395.594 441.388 395.508 441.706 395.342L446.115 392.801C448.25 393.799 450.532 394.449 452.873 394.726C455.29 394.975 457.731 394.858 460.113 394.379C462.297 393.991 464.404 393.25 466.351 392.185C467.539 391.537 468.571 390.637 469.374 389.547C469.691 389.261 469.896 388.872 469.951 388.449C470.054 388.239 470.138 388.02 470.202 387.795C470.34 386.854 470.236 385.893 469.899 385.003C469.562 384.113 469.004 383.325 468.276 382.712C470.972 383.305 473.758 383.371 476.478 382.904C478.27 382.635 480.002 382.062 481.6 381.21C482.856 380.581 483.935 379.648 484.738 378.495C484.337 377.895 483.865 377.345 483.333 376.858L485.586 375.568C485.595 375.104 485.523 374.641 485.374 374.201ZM460.844 385.08C460.443 386.032 459.702 386.801 458.765 387.236C457.457 387.996 455.982 388.419 454.471 388.469C452.997 388.525 451.527 388.269 450.158 387.718C448.261 386.87 446.422 385.898 444.652 384.81L437.508 380.69L447.655 374.914L453.874 378.514C456.144 379.661 458.259 381.091 460.17 382.769C460.466 383.068 460.683 383.435 460.801 383.839C460.918 384.243 460.933 384.669 460.844 385.08ZM473.302 377.224C472.058 377.931 470.65 378.296 469.22 378.283C467.669 378.262 466.141 377.914 464.733 377.263C463.925 376.897 462.019 375.838 458.957 374.105L453.913 371.198L462.673 366.134L467.102 368.675C470.721 370.774 472.878 372.064 473.552 372.526C474.688 373.354 475.208 374.163 475.131 374.971C475.054 375.78 474.476 376.589 473.302 377.263V377.224Z" fill="url(#paint69_radial_419_169)"/>
<path d="M386.177 195.832V269.671L458.803 227.024V153.185L386.177 195.832Z" fill="url(#paint70_linear_419_169)"/>
<path d="M386.216 195.832V269.671L313.628 227.351V153.551L386.216 195.832Z" fill="#0054B8"/>
<path d="M313.628 153.55L386.216 195.832L458.803 153.185L386.139 110.864L313.628 153.55Z" fill="#0974FF"/>
<path style="mix-blend-mode:screen" d="M386.216 194.677L314.61 152.973L313.628 153.551L386.216 195.832L458.803 153.185L457.821 152.626L386.216 194.677Z" fill="url(#paint71_radial_419_169)"/>
<g style="mix-blend-mode:multiply">
<path d="M528.329 278.182H527.771L513.87 271.443C513.273 269.248 509.788 267.592 505.436 267.361L469.816 250.032L467.487 254.865L494.442 267.9L477.229 264.819C476.151 262.894 472.589 261.296 468.334 261.296C463.212 261.296 459.073 263.433 459.073 266.071C459.073 268.343 462.134 270.23 466.235 270.711L465.08 313.59C461.576 314.283 459.073 316.016 459.073 318.057C459.073 320.694 463.212 322.832 468.334 322.832C473.455 322.832 477.576 320.694 477.576 318.057C477.571 317.683 477.485 317.316 477.325 316.978L528.406 287.327C529.09 287.412 529.778 287.457 530.466 287.462C534.471 287.462 537.86 286.133 539.15 284.285L528.329 278.182ZM470.567 311.183L471.665 270.634C472.561 270.457 473.438 270.193 474.283 269.845L496.156 273.695C496.424 274.087 496.748 274.438 497.119 274.735L493.268 278.239H492.44C487.337 278.239 483.179 280.377 483.179 283.014C483.179 284.439 484.411 285.691 486.317 286.557L470.567 311.183ZM476.921 311.183L491.862 287.809H492.401C497.523 287.809 501.662 285.671 501.662 283.034C501.59 282.365 501.344 281.727 500.949 281.184C500.554 280.64 500.023 280.209 499.41 279.934L502.856 276.815C503.495 276.891 504.138 276.929 504.782 276.93C506.759 276.951 508.721 276.585 510.558 275.852L521.706 281.262C521.372 281.708 521.184 282.246 521.167 282.803C521.207 283.588 521.553 284.327 522.129 284.863L476.921 311.183Z" fill="#BCBCD6"/>
</g>
<g opacity="0.7">
<path opacity="0.7" d="M479.738 205.559L464.817 243.594L470.912 245.984L485.833 207.949L479.738 205.559Z" fill="#BFE1FF"/>
<g style="mix-blend-mode:screen" opacity="0.5">
<path d="M480.479 207.333L466.958 241.78L469.467 242.765L482.988 208.318L480.479 207.333Z" fill="#BFE1FF"/>
</g>
</g>
<g opacity="0.7">
<path opacity="0.7" d="M450.062 276.487C449.395 276.486 448.744 276.28 448.197 275.898C447.649 275.516 447.232 274.976 447.001 274.35L433.523 238.249C433.234 237.512 433.234 236.694 433.523 235.958L446.038 202.744C446.09 202.598 446.155 202.457 446.23 202.321L465.003 168.145L470.779 171.283L452.122 205.267L440.127 237.113L452.18 269.556L491.535 262.644L492.671 269.094L450.543 276.429C450.385 276.464 450.224 276.483 450.062 276.487Z" fill="#BFE1FF"/>
<g style="mix-blend-mode:screen" opacity="0.5">
<path d="M449.677 273.791C449.402 273.785 449.134 273.697 448.908 273.54C448.683 273.382 448.508 273.162 448.406 272.906L434.928 236.805C434.823 236.499 434.823 236.167 434.928 235.861L447.424 202.648C447.424 202.648 447.424 202.513 447.52 202.455L465.369 169.974L467.718 171.283L449.927 203.688L437.624 236.42L450.524 271.077L489.571 264.203L490.033 266.86L449.889 273.907L449.677 273.791Z" fill="#BFE1FF"/>
</g>
</g>
<g opacity="0.7">
<path opacity="0.7" d="M503.973 232.203C503.53 232.203 503.091 232.113 502.684 231.937C502.276 231.762 501.909 231.505 501.605 231.182L481.35 209.868L450.986 207.404L451.506 200.877L483.121 203.437C483.92 203.503 484.666 203.859 485.22 204.439L504.32 224.405L528.945 204.631L533.027 209.734L506.072 231.394C505.491 231.906 504.747 232.193 503.973 232.203Z" fill="#BFE1FF"/>
<g style="mix-blend-mode:screen" opacity="0.5">
<path d="M503.588 229.507C503.407 229.507 503.228 229.469 503.062 229.396C502.896 229.324 502.748 229.217 502.625 229.084L481.792 207.307L452.603 204.939L452.834 202.263L482.524 204.67C482.853 204.694 483.161 204.838 483.39 205.074L503.703 226.253L528.195 206.576L529.889 208.675L504.454 229.122C504.222 229.351 503.914 229.488 503.588 229.507Z" fill="#BFE1FF"/>
</g>
</g>
<g opacity="0.7">
<path opacity="0.7" d="M528.214 270.711L505.109 236.343L495.29 266.822L489.051 264.896L500.931 228.006C501.117 227.418 501.465 226.895 501.935 226.497C502.405 226.098 502.978 225.84 503.588 225.753C504.196 225.67 504.815 225.758 505.376 226.006C505.936 226.254 506.418 226.653 506.765 227.159L533.721 267.111L528.214 270.711Z" fill="#BFE1FF"/>
<g style="mix-blend-mode:screen" opacity="0.5">
<path d="M504.031 231.202L493.595 263.626L490.977 262.817L502.259 227.736C502.337 227.494 502.481 227.279 502.675 227.116C502.869 226.952 503.106 226.847 503.357 226.812H503.569C503.785 226.813 503.997 226.867 504.188 226.967C504.379 227.068 504.543 227.213 504.666 227.39L530.582 265.705L528.349 267.226L504.031 231.202Z" fill="#BFE1FF"/>
</g>
</g>
<g opacity="0.7">
<path opacity="0.7" d="M467.872 248.088C467.454 248.09 467.041 248.005 466.659 247.837C466.25 247.68 465.878 247.439 465.567 247.131C465.255 246.823 465.011 246.454 464.849 246.047L449.061 207.539L405.99 210.427C405.258 210.488 404.527 210.296 403.921 209.882C403.314 209.469 402.868 208.859 402.659 208.155C402.421 207.447 402.433 206.679 402.692 205.978C402.951 205.278 403.442 204.687 404.083 204.304L466.178 166.759L469.566 172.362L419.005 202.937L450.967 200.8C451.643 200.739 452.32 200.892 452.904 201.238C453.488 201.583 453.949 202.104 454.221 202.725L469.624 240.193L503.28 225.272L505.956 231.24L469.22 247.799C468.796 247.99 468.337 248.089 467.872 248.088Z" fill="#BFE1FF"/>
<g style="mix-blend-mode:screen" opacity="0.5">
<path d="M467.487 245.392C467.321 245.419 467.152 245.419 466.986 245.392C466.817 245.323 466.664 245.221 466.535 245.092C466.406 244.963 466.304 244.81 466.235 244.641L449.927 204.939L405.47 207.924C405.172 207.943 404.876 207.862 404.628 207.695C404.381 207.528 404.196 207.283 404.103 206.999C404.009 206.71 404.017 206.398 404.125 206.114C404.234 205.83 404.437 205.592 404.699 205.44L465.138 168.857L466.543 171.168L417.619 200.665L418.736 204.246L450.716 202.167C450.999 202.151 451.279 202.224 451.517 202.376C451.756 202.528 451.94 202.751 452.045 203.014L468.199 242.311L501.913 227.139L503.03 229.604L468.045 245.334C467.867 245.4 467.675 245.42 467.487 245.392Z" fill="#BFE1FF"/>
</g>
</g>
<g opacity="0.7">
<path opacity="0.7" d="M467.872 310.182C467.282 310.181 466.703 310.022 466.197 309.72L404.103 272.656C403.62 272.361 403.219 271.949 402.94 271.457C402.66 270.965 402.51 270.41 402.505 269.845V207.269H409.051V267.977L467.872 303.077L523.497 269.556L466.697 247.876L469.046 241.772L532.103 265.84C532.655 266.068 533.134 266.444 533.488 266.925C533.842 267.406 534.057 267.975 534.111 268.571C534.165 269.166 534.054 269.764 533.792 270.301C533.53 270.838 533.125 271.293 532.623 271.616L469.566 309.643C469.06 309.971 468.475 310.157 467.872 310.182Z" fill="#BFE1FF"/>
<g style="mix-blend-mode:screen" opacity="0.5">
<path d="M467.487 307.486C467.243 307.482 467.005 307.415 466.794 307.294L404.7 270.23C404.501 270.109 404.337 269.939 404.223 269.737C404.108 269.535 404.047 269.307 404.045 269.074V208.424H406.741V268.304L467.487 304.56L527.559 268.381L468.873 245.989L469.836 243.467L531.102 266.841C531.341 266.93 531.55 267.085 531.705 267.288C531.859 267.491 531.953 267.733 531.975 267.987C531.997 268.241 531.947 268.496 531.83 268.723C531.713 268.949 531.534 269.138 531.314 269.267L468.18 307.294C467.969 307.415 467.731 307.482 467.487 307.486Z" fill="#BFE1FF"/>
</g>
</g>
<g opacity="0.7">
<path opacity="0.7" d="M529.215 210.042L475.708 177.137L486.028 206.018L479.867 208.232L466.389 170.686C466.174 170.051 466.159 169.364 466.347 168.72C466.535 168.076 466.916 167.505 467.44 167.084C467.963 166.664 468.603 166.415 469.272 166.37C469.942 166.326 470.609 166.488 471.184 166.836L532.642 204.554L529.215 210.042Z" fill="#BFE1FF"/>
<g style="mix-blend-mode:screen" opacity="0.5">
<path d="M471.723 171.938L483.275 204.092L480.753 205.016L467.872 169.242C467.778 168.979 467.768 168.693 467.844 168.424C467.92 168.155 468.078 167.916 468.295 167.741C468.536 167.546 468.834 167.438 469.143 167.433C469.392 167.437 469.637 167.503 469.855 167.625L529.658 204.343L528.252 206.634L471.723 171.938Z" fill="#BFE1FF"/>
</g>
</g>
<g opacity="0.7">
<path opacity="0.7" d="M407.01 272.868L404.545 266.803L464.599 242.6V170.032H471.145V244.815C471.143 245.464 470.948 246.098 470.585 246.637C470.221 247.175 469.706 247.593 469.104 247.837L407.01 272.868Z" fill="#BFE1FF"/>
<g style="mix-blend-mode:screen" opacity="0.5">
<path d="M406.683 267.091L466.139 243.12V171.187H468.834V244.044C468.835 244.314 468.754 244.577 468.603 244.8C468.452 245.023 468.237 245.196 467.987 245.296L407.684 269.556L406.683 267.091Z" fill="#BFE1FF"/>
</g>
</g>
<g opacity="0.7">
<path d="M408.15 205.025L403.438 209.569L433.924 241.183L438.637 236.639L408.15 205.025Z" fill="#BFE1FF"/>
<g style="mix-blend-mode:screen" opacity="0.5">
<path d="M407.713 206.904L405.772 208.774L433.57 237.63L435.511 235.76L407.713 206.904Z" fill="#BFE1FF"/>
</g>
</g>
<g opacity="0.7">
<path opacity="0.7" d="M452.835 274.947L447.29 271.481L465.099 243.082C465.521 242.418 466.166 241.926 466.918 241.697C467.671 241.467 468.48 241.514 469.201 241.83L497.6 254.345L494.943 260.333L469.143 248.954L452.835 274.947Z" fill="#BFE1FF"/>
<g style="mix-blend-mode:screen" opacity="0.5">
<path d="M449.562 270.095L466.351 243.313C466.474 243.123 466.642 242.967 466.84 242.86C467.039 242.752 467.261 242.696 467.487 242.697C467.665 242.658 467.848 242.658 468.026 242.697L494.674 254.442L493.576 256.906L468.007 245.643L451.833 271.481L449.562 270.095Z" fill="#BFE1FF"/>
</g>
</g>
<g opacity="0.7">
<path opacity="0.7" d="M467.872 310.182C467.287 310.167 466.717 309.998 466.219 309.69C465.722 309.382 465.315 308.947 465.042 308.43L448.079 276.333L405.585 273.098C404.969 273.052 404.379 272.832 403.883 272.464C403.386 272.096 403.004 271.595 402.781 271.019C402.557 270.443 402.501 269.815 402.619 269.209C402.737 268.602 403.025 268.042 403.448 267.592L434.254 234.86L439.029 239.346L412.921 267.091L450.37 269.941C450.919 269.987 451.448 270.17 451.909 270.473C452.369 270.775 452.747 271.188 453.008 271.674L468.045 300.112L493.48 255.693C493.857 255.044 494.444 254.543 495.144 254.273C495.844 254.004 496.616 253.982 497.331 254.21L527.694 264.184V210.061H482.832V203.515H530.967C531.835 203.515 532.668 203.859 533.282 204.473C533.896 205.087 534.24 205.92 534.24 206.788V268.709C534.242 269.226 534.121 269.737 533.886 270.199C533.652 270.661 533.311 271.061 532.893 271.366C532.471 271.665 531.985 271.862 531.474 271.942C530.963 272.023 530.44 271.983 529.947 271.828L497.831 261.257L470.76 308.526C470.468 309.032 470.046 309.452 469.539 309.743C469.032 310.034 468.457 310.185 467.872 310.182Z" fill="#BFE1FF"/>
<g style="mix-blend-mode:screen" opacity="0.5">
<path d="M467.429 307.486C467.192 307.475 466.962 307.401 466.763 307.273C466.563 307.144 466.401 306.965 466.293 306.754L448.83 273.714L405.297 270.403C405.043 270.387 404.8 270.298 404.595 270.148C404.39 269.998 404.233 269.792 404.141 269.556C404.05 269.32 404.027 269.063 404.074 268.814C404.122 268.566 404.239 268.335 404.411 268.15L433.889 236.824L435.814 238.749L408.262 268.035L449.735 271.192C449.964 271.206 450.185 271.279 450.377 271.404C450.57 271.529 450.726 271.701 450.832 271.905L467.487 303.423L494.674 255.982C494.794 255.777 494.966 255.607 495.172 255.489C495.378 255.371 495.611 255.308 495.848 255.308C495.989 255.288 496.131 255.288 496.272 255.308L529.157 266.109V207.365H484.296V204.67H530.505C530.863 204.67 531.206 204.812 531.458 205.064C531.711 205.317 531.853 205.66 531.853 206.017V267.938C531.854 268.152 531.804 268.364 531.707 268.555C531.609 268.745 531.468 268.91 531.295 269.036C531.062 269.195 530.787 269.283 530.505 269.286C530.365 269.306 530.222 269.306 530.082 269.286L496.464 258.234L468.623 306.851C468.505 307.059 468.334 307.232 468.128 307.354C467.922 307.476 467.688 307.541 467.448 307.544L467.429 307.486Z" fill="#BFE1FF"/>
</g>
</g>
<path d="M415.559 269.845C415.555 271.778 414.978 273.668 413.901 275.274C412.824 276.879 411.295 278.13 409.508 278.867C407.72 279.605 405.754 279.796 403.858 279.416C401.962 279.037 400.221 278.104 398.855 276.735C397.489 275.366 396.559 273.623 396.183 271.727C395.808 269.83 396.002 267.864 396.743 266.078C397.484 264.292 398.738 262.765 400.346 261.692C401.954 260.618 403.844 260.044 405.778 260.044C407.064 260.044 408.337 260.298 409.525 260.791C410.713 261.284 411.792 262.006 412.701 262.916C413.609 263.826 414.329 264.907 414.82 266.096C415.31 267.285 415.561 268.559 415.559 269.845Z" fill="url(#paint72_radial_419_169)"/>
<path d="M415.559 207.269C415.555 209.203 414.978 211.092 413.901 212.698C412.824 214.304 411.295 215.555 409.508 216.292C407.72 217.029 405.754 217.22 403.858 216.841C401.962 216.461 400.221 215.528 398.855 214.159C397.489 212.791 396.559 211.048 396.183 209.151C395.808 207.254 396.002 205.289 396.743 203.503C397.484 201.716 398.738 200.19 400.346 199.116C401.954 198.042 403.844 197.469 405.778 197.469C407.064 197.469 408.337 197.723 409.525 198.215C410.713 198.708 411.792 199.43 412.701 200.341C413.609 201.251 414.329 202.331 414.82 203.52C415.31 204.709 415.561 205.983 415.559 207.269Z" fill="url(#paint73_radial_419_169)"/>
<path d="M477.653 244.815C477.649 246.748 477.072 248.637 475.995 250.243C474.918 251.849 473.389 253.1 471.602 253.837C469.814 254.575 467.848 254.766 465.952 254.386C464.056 254.006 462.315 253.073 460.949 251.705C459.583 250.336 458.653 248.593 458.277 246.696C457.902 244.8 458.096 242.834 458.837 241.048C459.578 239.262 460.832 237.735 462.44 236.661C464.048 235.587 465.938 235.014 467.872 235.014C469.158 235.014 470.432 235.268 471.619 235.761C472.807 236.253 473.886 236.976 474.795 237.886C475.703 238.796 476.424 239.877 476.914 241.066C477.404 242.255 477.656 243.528 477.653 244.815Z" fill="url(#paint74_radial_419_169)"/>
<path d="M459.843 273.214C459.839 275.148 459.262 277.037 458.185 278.643C457.108 280.249 455.579 281.499 453.792 282.237C452.004 282.974 450.038 283.165 448.142 282.786C446.246 282.406 444.505 281.473 443.139 280.104C441.773 278.736 440.843 276.993 440.468 275.096C440.092 273.199 440.287 271.234 441.027 269.447C441.768 267.661 443.022 266.135 444.63 265.061C446.238 263.987 448.128 263.414 450.062 263.414C451.348 263.414 452.622 263.667 453.81 264.16C454.997 264.653 456.077 265.375 456.985 266.285C457.894 267.196 458.614 268.276 459.104 269.465C459.594 270.654 459.846 271.928 459.843 273.214Z" fill="url(#paint75_radial_419_169)"/>
<path d="M540.71 207.269C540.706 209.203 540.129 211.092 539.052 212.698C537.975 214.304 536.446 215.555 534.658 216.292C532.871 217.029 530.905 217.22 529.009 216.841C527.113 216.461 525.372 215.528 524.006 214.159C522.64 212.791 521.71 211.048 521.334 209.151C520.958 207.254 521.153 205.289 521.894 203.503C522.635 201.716 523.889 200.19 525.497 199.116C527.105 198.042 528.995 197.469 530.929 197.469C532.215 197.469 533.488 197.723 534.676 198.215C535.864 198.708 536.943 199.43 537.852 200.341C538.76 201.251 539.48 202.331 539.971 203.52C540.461 204.709 540.712 205.983 540.71 207.269Z" fill="url(#paint76_radial_419_169)"/>
<path d="M540.71 268.882C540.706 270.816 540.129 272.705 539.052 274.311C537.975 275.917 536.446 277.167 534.658 277.905C532.871 278.642 530.905 278.833 529.009 278.454C527.113 278.074 525.372 277.141 524.006 275.772C522.64 274.404 521.71 272.661 521.334 270.764C520.958 268.867 521.153 266.901 521.894 265.115C522.635 263.329 523.889 261.803 525.497 260.729C527.105 259.655 528.995 259.082 530.929 259.082C532.215 259.082 533.488 259.335 534.676 259.828C535.864 260.321 536.943 261.043 537.852 261.953C538.76 262.864 539.48 263.944 539.971 265.133C540.461 266.322 540.712 267.596 540.71 268.882Z" fill="url(#paint77_radial_419_169)"/>
<path d="M477.653 306.909C477.649 308.842 477.072 310.732 475.995 312.337C474.918 313.943 473.389 315.194 471.602 315.931C469.814 316.669 467.848 316.86 465.952 316.48C464.056 316.101 462.315 315.168 460.949 313.799C459.583 312.43 458.653 310.687 458.277 308.791C457.902 306.894 458.096 304.928 458.837 303.142C459.578 301.356 460.832 299.829 462.44 298.755C464.048 297.682 465.938 297.108 467.872 297.108C469.158 297.108 470.432 297.362 471.619 297.855C472.807 298.348 473.886 299.07 474.795 299.98C475.703 300.89 476.424 301.971 476.914 303.16C477.404 304.349 477.656 305.623 477.653 306.909Z" fill="url(#paint78_radial_419_169)"/>
<path d="M477.653 169.724C477.649 171.658 477.072 173.547 475.995 175.153C474.918 176.759 473.389 178.009 471.602 178.747C469.814 179.484 467.848 179.675 465.952 179.295C464.056 178.916 462.315 177.983 460.949 176.614C459.583 175.245 458.653 173.503 458.277 171.606C457.902 169.709 458.096 167.743 458.837 165.957C459.578 164.171 460.832 162.645 462.44 161.571C464.048 160.497 465.938 159.924 467.872 159.924C469.158 159.924 470.432 160.177 471.619 160.67C472.807 161.163 473.886 161.885 474.795 162.795C475.703 163.706 476.424 164.786 476.914 165.975C477.404 167.164 477.656 168.438 477.653 169.724Z" fill="url(#paint79_radial_419_169)"/>
<path d="M492.575 206.788C492.571 208.722 491.994 210.611 490.917 212.217C489.84 213.823 488.311 215.073 486.524 215.811C484.736 216.548 482.77 216.739 480.874 216.359C478.978 215.98 477.237 215.047 475.871 213.678C474.505 212.309 473.575 210.567 473.199 208.67C472.824 206.773 473.018 204.807 473.759 203.021C474.5 201.235 475.754 199.709 477.362 198.635C478.97 197.561 480.86 196.988 482.794 196.988C484.08 196.988 485.353 197.241 486.541 197.734C487.729 198.227 488.808 198.949 489.717 199.859C490.625 200.77 491.345 201.85 491.836 203.039C492.326 204.228 492.577 205.502 492.575 206.788Z" fill="url(#paint80_radial_419_169)"/>
<path d="M513.754 228.93C513.75 230.864 513.173 232.753 512.096 234.359C511.019 235.965 509.49 237.215 507.703 237.953C505.915 238.69 503.949 238.881 502.053 238.502C500.157 238.122 498.416 237.189 497.05 235.82C495.684 234.452 494.755 232.709 494.379 230.812C494.003 228.915 494.198 226.949 494.938 225.163C495.679 223.377 496.933 221.851 498.541 220.777C500.149 219.703 502.039 219.13 503.973 219.13C505.259 219.13 506.533 219.383 507.721 219.876C508.909 220.369 509.988 221.091 510.896 222.001C511.805 222.912 512.525 223.992 513.015 225.181C513.506 226.37 513.757 227.644 513.754 228.93Z" fill="url(#paint81_radial_419_169)"/>
<path d="M501.971 265.031C501.971 266.97 501.395 268.866 500.318 270.478C499.24 272.09 497.708 273.346 495.916 274.087C494.124 274.828 492.153 275.021 490.251 274.642C488.35 274.262 486.604 273.327 485.234 271.954C483.864 270.582 482.932 268.833 482.556 266.931C482.18 265.029 482.377 263.058 483.122 261.267C483.866 259.477 485.125 257.948 486.74 256.873C488.354 255.798 490.251 255.227 492.19 255.231C494.786 255.236 497.273 256.271 499.107 258.108C500.941 259.945 501.971 262.435 501.971 265.031Z" fill="url(#paint82_radial_419_169)"/>
<path d="M446.365 237.113C446.361 239.047 445.785 240.936 444.708 242.542C443.63 244.148 442.102 245.398 440.314 246.136C438.526 246.873 436.56 247.064 434.664 246.684C432.768 246.305 431.027 245.372 429.661 244.003C428.295 242.634 427.366 240.892 426.99 238.995C426.614 237.098 426.809 235.132 427.55 233.346C428.29 231.56 429.544 230.034 431.152 228.96C432.76 227.886 434.651 227.313 436.584 227.313C437.87 227.313 439.144 227.566 440.332 228.059C441.52 228.552 442.599 229.274 443.507 230.184C444.416 231.095 445.136 232.175 445.626 233.364C446.117 234.553 446.368 235.827 446.365 237.113Z" fill="url(#paint83_radial_419_169)"/>
<path d="M458.88 203.9C458.877 205.833 458.3 207.723 457.223 209.329C456.146 210.935 454.617 212.185 452.829 212.923C451.042 213.66 449.075 213.851 447.179 213.471C445.283 213.092 443.542 212.159 442.176 210.79C440.81 209.421 439.881 207.678 439.505 205.782C439.129 203.885 439.324 201.919 440.065 200.133C440.806 198.347 442.059 196.82 443.667 195.747C445.275 194.673 447.166 194.099 449.099 194.099C450.385 194.099 451.659 194.353 452.847 194.846C454.035 195.339 455.114 196.061 456.022 196.971C456.931 197.881 457.651 198.962 458.141 200.151C458.632 201.34 458.883 202.614 458.88 203.9Z" fill="url(#paint84_radial_419_169)"/>
<path d="M219.804 196.583V270.422L292.43 227.775V153.936L219.804 196.583Z" fill="url(#paint85_linear_419_169)"/>
<path d="M219.842 196.583V270.422L147.254 228.102V154.302L219.842 196.583Z" fill="#0054B8"/>
<path d="M147.254 154.301L219.842 196.583L292.43 153.935L219.746 111.615L147.254 154.301Z" fill="#0974FF"/>
<path style="mix-blend-mode:screen" d="M219.842 195.428L148.236 153.724L147.254 154.301L219.842 196.583L292.43 153.936L291.448 153.358L219.842 195.428Z" fill="url(#paint86_radial_419_169)"/>
<path d="M299.919 244.757V318.596L372.545 275.948V202.109L299.919 244.757Z" fill="url(#paint87_linear_419_169)"/>
<path d="M299.958 244.757V318.596L227.351 276.276V202.475L299.958 244.757Z" fill="#0054B8"/>
<path d="M227.351 202.475L299.958 244.757L372.545 202.109L299.861 159.789L227.351 202.475Z" fill="#0974FF"/>
<path style="mix-blend-mode:screen" d="M299.958 243.601L228.352 201.897L227.351 202.475L299.958 244.757L372.545 202.109L371.544 201.531L299.958 243.601Z" fill="url(#paint88_radial_419_169)"/>
<path d="M384.136 292.93V366.769L456.743 324.122V250.302L384.136 292.93Z" fill="url(#paint89_linear_419_169)"/>
<path d="M384.175 292.93V366.769L311.568 324.449V250.648L384.175 292.93Z" fill="#0054B8"/>
<path d="M311.568 250.648L384.175 292.93L456.743 250.302L384.079 207.962L311.568 250.648Z" fill="#0974FF"/>
<path style="mix-blend-mode:screen" d="M384.175 291.775L312.569 250.071L311.568 250.648L384.175 292.93L456.743 250.302L455.761 249.724L384.175 291.775Z" fill="url(#paint90_radial_419_169)"/>
<path style="mix-blend-mode:lighten" opacity="0.2" d="M384.849 292.507L384.136 292.93V299.188L435.795 329.282L384.136 359.607V366.769L447.982 329.282L384.849 292.507Z" fill="url(#paint91_radial_419_169)"/>
<path style="mix-blend-mode:lighten" opacity="0.2" d="M384.136 348.709L417.195 329.609C417.773 329.282 417.754 328.762 417.195 328.435L412.863 325.932L417.003 323.525C417.58 323.197 417.58 322.678 417.003 322.35L413.268 320.194C412.949 320.028 412.596 319.942 412.237 319.942C411.879 319.942 411.526 320.028 411.207 320.194L407.048 322.601L405.239 321.542L401.542 319.443L405.701 317.036C405.823 316.992 405.929 316.91 406.003 316.804C406.078 316.697 406.118 316.57 406.118 316.439C406.118 316.309 406.078 316.182 406.003 316.075C405.929 315.968 405.823 315.887 405.701 315.842L401.965 313.686C401.646 313.525 401.293 313.441 400.935 313.441C400.578 313.441 400.225 313.525 399.905 313.686L395.496 316.228C393.366 315.216 391.082 314.565 388.738 314.302C387.208 314.148 385.666 314.148 384.136 314.302V321.06C385.099 320.675 386.122 320.46 387.159 320.425C388.633 320.378 390.101 320.633 391.472 321.176C393.376 322.022 395.222 322.993 396.998 324.083L404.122 328.204L393.994 333.98L387.756 330.398C386.312 329.551 385.099 328.82 384.136 328.184V335.578L387.679 337.638L384.136 339.679V348.709Z" fill="url(#paint92_radial_419_169)"/>
<path d="M135.587 245.508V319.347L208.213 276.699V202.86L135.587 245.508Z" fill="url(#paint93_linear_419_169)"/>
<path d="M135.625 245.508V319.347L63.0375 277.026V203.226L135.625 245.508Z" fill="#0054B8"/>
<path d="M63.0375 203.226L135.625 245.508L208.213 202.86L135.529 160.54L63.0375 203.226Z" fill="#0974FF"/>
<path style="mix-blend-mode:screen" d="M135.625 244.352L64.0195 202.648L63.0375 203.226L135.625 245.508L208.213 202.86L207.231 202.282L135.625 244.352Z" fill="url(#paint94_radial_419_169)"/>
<path d="M217.743 293.681V367.52L290.369 324.872V251.033L217.743 293.681Z" fill="url(#paint95_linear_419_169)"/>
<path d="M217.801 293.681V367.52L145.194 325.2V251.399L217.801 293.681Z" fill="#0054B8"/>
<path d="M145.194 251.399L217.801 293.681L290.369 251.034L217.705 208.713L145.194 251.399Z" fill="#0974FF"/>
<path d="M217.84 331.708V367.27L290.331 324.988V289.426L217.84 331.708Z" fill="url(#paint96_linear_419_169)"/>
<path d="M222.268 359.549V334.268L285.902 297.147V322.446L222.268 359.549ZM225.695 336.232V353.561L282.475 320.463V303.135L225.695 336.232Z" fill="url(#paint97_linear_419_169)"/>
<path d="M217.878 331.708V367.27L145.156 324.873V289.368L217.878 331.708Z" fill="url(#paint98_linear_419_169)"/>
<path d="M151.298 321.33V300.054L211.736 335.25V356.565L151.298 321.33Z" fill="#2E3192"/>
<path d="M213.45 359.549L149.584 322.312V297.07L213.45 334.269V359.549ZM153.011 320.348L210.022 353.6V336.271L153.011 303.019V320.348Z" fill="url(#paint99_linear_419_169)"/>
<path d="M203.476 337.407L205.806 338.755V336.059L203.476 334.711V337.407Z" fill="#2AF6FF"/>
<path d="M199.086 334.865L201.416 336.213V333.537L199.086 332.189V334.865Z" fill="#2AF6FF"/>
<path d="M194.696 332.324L197.026 333.672V330.995L194.696 329.647V332.324Z" fill="#4B61B8"/>
<path d="M190.287 329.782L192.636 331.149V328.454L190.287 327.106V329.782Z" fill="#2E3192"/>
<path d="M185.897 327.26L188.246 328.608V325.912L185.897 324.565V327.26Z" fill="#2E3192"/>
<path d="M181.507 324.718L183.837 326.066V323.39L181.507 322.023V324.718Z" fill="#4B61B8"/>
<path d="M177.117 322.177L179.447 323.525V320.848L177.117 319.5V322.177Z" fill="#4B61B8"/>
<path d="M172.708 319.635L175.057 320.983V318.307L172.708 316.959V319.635Z" fill="#4B61B8"/>
<path d="M168.318 317.094L170.667 318.461V315.765L168.318 314.418V317.094Z" fill="#2E3192"/>
<path d="M163.928 314.572L166.258 315.919V313.224L163.928 311.876V314.572Z" fill="#4B61B8"/>
<path d="M159.538 312.03L161.868 313.378V310.702L159.538 309.335V312.03Z" fill="#2AF6FF"/>
<path d="M155.129 309.489L157.478 310.836V308.16L155.129 306.812V309.489Z" fill="#2AF6FF"/>
<path d="M203.476 342.182L205.806 343.53V340.834L203.476 339.486V342.182Z" fill="#4B61B8"/>
<path d="M199.086 339.64L201.416 340.988V338.293L199.086 336.945V339.64Z" fill="#2AF6FF"/>
<path d="M194.696 337.099L197.026 338.446V335.77L194.696 334.422V337.099Z" fill="#2AF6FF"/>
<path d="M190.287 334.557L192.636 335.905V333.229L190.287 331.881V334.557Z" fill="#2E3192"/>
<path d="M185.897 332.016L188.246 333.383V330.687L185.897 329.339V332.016Z" fill="#2AF6FF"/>
<path d="M181.507 329.493L183.837 330.841V328.146L181.507 326.798V329.493Z" fill="#2AF6FF"/>
<path d="M177.117 326.952L179.447 328.3V325.623L177.117 324.256V326.952Z" fill="#2AF6FF"/>
<path d="M172.708 324.41L175.057 325.758V323.082L172.708 321.734V324.41Z" fill="#4B61B8"/>
<path d="M168.318 321.869L170.667 323.217V320.54L168.318 319.193V321.869Z" fill="#4B61B8"/>
<path d="M163.928 319.327L166.258 320.694V317.999L163.928 316.651V319.327Z" fill="#4B61B8"/>
<path d="M159.538 316.805L161.868 318.153V315.457L159.538 314.11V316.805Z" fill="#4B61B8"/>
<path d="M155.129 314.264L157.478 315.611V312.935L155.129 311.568V314.264Z" fill="#4B61B8"/>
<path d="M203.476 346.899L205.806 348.266V345.571L203.476 344.223V346.899Z" fill="#2AF6FF"/>
<path d="M199.086 344.377L201.416 345.724V343.029L199.086 341.681V344.377Z" fill="#4B61B8"/>
<path d="M194.696 341.835L197.026 343.183V340.488L194.696 339.14V341.835Z" fill="#4B61B8"/>
<path d="M190.287 339.294L192.636 340.641V337.965L190.287 336.617V339.294Z" fill="#4B61B8"/>
<path d="M185.897 336.752L188.246 338.1V335.424L185.897 334.076V336.752Z" fill="#4B61B8"/>
<path d="M181.507 334.23L183.837 335.578V332.882L181.507 331.534V334.23Z" fill="#4B61B8"/>
<path d="M177.117 331.688L179.447 333.036V330.341L177.117 328.993V331.688Z" fill="#2E3192"/>
<path d="M172.708 329.147L175.057 330.495V327.818L172.708 326.471V329.147Z" fill="#2AF6FF"/>
<path d="M168.318 326.605L170.667 327.953V325.277L168.318 323.929V326.605Z" fill="#4B61B8"/>
<path d="M163.928 324.064L166.258 325.412V322.735L163.928 321.388V324.064Z" fill="#4B61B8"/>
<path d="M159.538 321.541L161.868 322.889V320.194L159.538 318.846V321.541Z" fill="#2AF6FF"/>
<path d="M155.129 319L157.478 320.348V317.672L155.129 316.305V319Z" fill="#2AF6FF"/>
<path d="M231.645 337.407L229.296 338.755V336.059L231.645 334.711V337.407Z" fill="#2AF6FF"/>
<path d="M236.035 334.865L233.705 336.213V333.537L236.035 332.189V334.865Z" fill="#2E3192"/>
<path d="M240.444 332.324L238.095 333.672V330.995L240.444 329.647V332.324Z" fill="#4B61B8"/>
<path d="M244.834 329.782L242.485 331.149V328.454L244.834 327.106V329.782Z" fill="#2E3192"/>
<path d="M249.224 327.26L246.875 328.608V325.912L249.224 324.565V327.26Z" fill="#2E3192"/>
<path d="M253.614 324.718L251.284 326.066V323.39L253.614 322.023V324.718Z" fill="#4B61B8"/>
<path d="M258.004 322.177L255.674 323.525V320.848L258.004 319.5V322.177Z" fill="#4B61B8"/>
<path d="M262.413 319.635L260.064 320.983V318.307L262.413 316.959V319.635Z" fill="#4B61B8"/>
<path d="M266.802 317.094L264.453 318.461V315.765L266.802 314.418V317.094Z" fill="#2E3192"/>
<path d="M271.192 314.572L268.863 315.919V313.224L271.192 311.876V314.572Z" fill="#2E3192"/>
<path d="M275.582 312.03L273.253 313.378V310.702L275.582 309.335V312.03Z" fill="#2AF6FF"/>
<path d="M279.991 309.489L277.642 310.836V308.16L279.991 306.812V309.489Z" fill="#2AF6FF"/>
<path d="M231.645 342.182L229.296 343.53V340.834L231.645 339.486V342.182Z" fill="#4B61B8"/>
<path d="M236.035 339.64L233.705 340.988V338.293L236.035 336.945V339.64Z" fill="#2E3192"/>
<path d="M240.444 337.099L238.095 338.446V335.77L240.444 334.422V337.099Z" fill="#2AF6FF"/>
<path d="M244.834 334.557L242.485 335.905V333.229L244.834 331.881V334.557Z" fill="#2E3192"/>
<path d="M249.224 332.016L246.875 333.383V330.687L249.224 329.339V332.016Z" fill="#2AF6FF"/>
<path d="M253.614 329.493L251.284 330.841V328.146L253.614 326.798V329.493Z" fill="#2AF6FF"/>
<path d="M258.004 326.952L255.674 328.3V325.623L258.004 324.256V326.952Z" fill="#2AF6FF"/>
<path d="M262.413 324.41L260.064 325.758V323.082L262.413 321.734V324.41Z" fill="#4B61B8"/>
<path d="M266.802 321.869L264.453 323.217V320.54L266.802 319.193V321.869Z" fill="#4B61B8"/>
<path d="M271.192 319.327L268.863 320.694V317.999L271.192 316.651V319.327Z" fill="#4B61B8"/>
<path d="M275.582 316.805L273.253 318.153V315.457L275.582 314.11V316.805Z" fill="#4B61B8"/>
<path d="M279.991 314.264L277.642 315.611V312.935L279.991 311.568V314.264Z" fill="#4B61B8"/>
<path d="M231.645 346.899L229.296 348.266V345.571L231.645 344.223V346.899Z" fill="#2AF6FF"/>
<path d="M236.035 344.377L233.705 345.724V343.029L236.035 341.681V344.377Z" fill="#4B61B8"/>
<path d="M240.444 341.835L238.095 343.183V340.488L240.444 339.14V341.835Z" fill="#4B61B8"/>
<path d="M244.834 339.294L242.485 340.641V337.965L244.834 336.617V339.294Z" fill="#4B61B8"/>
<path d="M249.224 336.752L246.875 338.1V335.424L249.224 334.076V336.752Z" fill="#4B61B8"/>
<path d="M253.614 334.23L251.284 335.578V332.882L253.614 331.534V334.23Z" fill="#4B61B8"/>
<path d="M258.004 331.688L255.674 333.036V330.341L258.004 328.993V331.688Z" fill="#2E3192"/>
<path d="M262.413 329.147L260.064 330.495V327.818L262.413 326.471V329.147Z" fill="#2AF6FF"/>
<path d="M266.802 326.605L264.453 327.953V325.277L266.802 323.929V326.605Z" fill="#4B61B8"/>
<path d="M271.192 324.064L268.863 325.412V322.735L271.192 321.388V324.064Z" fill="#4B61B8"/>
<path d="M275.582 321.541L273.253 322.889V320.194L275.582 318.846V321.541Z" fill="#4B61B8"/>
<path d="M279.991 319L277.642 320.348V317.672L279.991 316.305V319Z" fill="#2AF6FF"/>
<path d="M145.156 289.368L217.878 331.708L290.331 289.426L217.512 247.048L145.156 289.368Z" fill="url(#paint100_linear_419_169)"/>
<path d="M217.84 318.191V330.052L285.19 290.754V278.913L217.84 318.191Z" fill="url(#paint101_linear_419_169)"/>
<path d="M217.878 318.192V330.052L150.297 290.658V278.836L217.878 318.192Z" fill="url(#paint102_linear_419_169)"/>
<path d="M217.84 293.681V329.243L290.331 286.962V251.399L217.84 293.681Z" fill="url(#paint103_linear_419_169)"/>
<path d="M217.878 293.681V329.243L145.156 286.846V251.342L217.878 293.681Z" fill="url(#paint104_linear_419_169)"/>
<path d="M151.298 283.303V262.027L211.736 297.224V318.538L151.298 283.303Z" fill="#2E3192"/>
<path d="M213.45 321.542L149.584 284.285V259.043L213.45 296.242V321.542ZM153.011 282.321L210.022 315.573V298.244L153.011 264.993V282.321Z" fill="url(#paint105_linear_419_169)"/>
<path d="M203.476 299.38L205.806 300.728V298.032L203.476 296.685V299.38Z" fill="#2AF6FF"/>
<path d="M199.086 296.839L201.416 298.187V295.51L199.086 294.162V296.839Z" fill="#2AF6FF"/>
<path d="M194.696 294.297L197.026 295.645V292.969L194.696 291.621V294.297Z" fill="#4B61B8"/>
<path d="M190.287 291.756L192.636 293.123V290.427L190.287 289.079V291.756Z" fill="#2E3192"/>
<path d="M185.897 289.234L188.246 290.581V287.886L185.897 286.538V289.234Z" fill="#2E3192"/>
<path d="M181.507 286.692L183.837 288.04V285.363L181.507 283.996V286.692Z" fill="#4B61B8"/>
<path d="M177.117 284.15L179.447 285.498V282.822L177.117 281.474V284.15Z" fill="#4B61B8"/>
<path d="M172.708 281.609L175.057 282.957V280.28L172.708 278.932V281.609Z" fill="#4B61B8"/>
<path d="M168.318 279.067L170.667 280.434V277.739L168.318 276.391V279.067Z" fill="#2E3192"/>
<path d="M163.928 276.545L166.258 277.893V275.197L163.928 273.849V276.545Z" fill="#4B61B8"/>
<path d="M159.538 274.004L161.868 275.351V272.675L159.538 271.308V274.004Z" fill="#2AF6FF"/>
<path d="M155.129 271.462L157.478 272.81V270.133L155.129 268.786V271.462Z" fill="#2AF6FF"/>
<path d="M203.476 304.155L205.806 305.503V302.807L203.476 301.46V304.155Z" fill="#4B61B8"/>
<path d="M199.086 301.614L201.416 302.961V300.266L199.086 298.918V301.614Z" fill="#2AF6FF"/>
<path d="M194.696 299.072L197.026 300.42V297.744L194.696 296.396V299.072Z" fill="#2AF6FF"/>
<path d="M190.287 296.531L192.636 297.878V295.202L190.287 293.854V296.531Z" fill="#2E3192"/>
<path d="M185.897 293.989L188.246 295.356V292.661L185.897 291.313V293.989Z" fill="#2AF6FF"/>
<path d="M181.507 291.467L183.837 292.815V290.119L181.507 288.771V291.467Z" fill="#2AF6FF"/>
<path d="M177.117 288.925L179.447 290.273V287.597L177.117 286.23V288.925Z" fill="#2AF6FF"/>
<path d="M172.708 286.384L175.057 287.731V285.055L172.708 283.707V286.384Z" fill="#4B61B8"/>
<path d="M168.318 283.842L170.667 285.19V282.514L168.318 281.166V283.842Z" fill="#4B61B8"/>
<path d="M163.928 281.301L166.258 282.668V279.972L163.928 278.624V281.301Z" fill="#4B61B8"/>
<path d="M159.538 278.778L161.868 280.126V277.431L159.538 276.083V278.778Z" fill="#4B61B8"/>
<path d="M155.129 276.237L157.478 277.585V274.909L155.129 273.542V276.237Z" fill="#4B61B8"/>
<path d="M203.476 308.872L205.806 310.24V307.544L203.476 306.196V308.872Z" fill="#2AF6FF"/>
<path d="M199.086 306.35L201.416 307.698V305.002L199.086 303.655V306.35Z" fill="#4B61B8"/>
<path d="M194.696 303.809L197.026 305.156V302.461L194.696 301.113V303.809Z" fill="#4B61B8"/>
<path d="M190.287 301.267L192.636 302.615V299.938L190.287 298.591V301.267Z" fill="#4B61B8"/>
<path d="M185.897 298.726L188.246 300.073V297.397L185.897 296.049V298.726Z" fill="#4B61B8"/>
<path d="M181.507 296.203L183.837 297.551V294.855L181.507 293.508V296.203Z" fill="#4B61B8"/>
<path d="M177.117 293.662L179.447 295.01V292.314L177.117 290.966V293.662Z" fill="#2E3192"/>
<path d="M172.708 291.12L175.057 292.468V289.792L172.708 288.444V291.12Z" fill="#2AF6FF"/>
<path d="M168.318 288.579L170.667 289.926V287.25L168.318 285.902V288.579Z" fill="#4B61B8"/>
<path d="M163.928 286.037L166.258 287.385V284.709L163.928 283.361V286.037Z" fill="#4B61B8"/>
<path d="M159.538 283.515L161.868 284.863V282.167L159.538 280.819V283.515Z" fill="#2AF6FF"/>
<path d="M155.129 280.974L157.478 282.321V279.645L155.129 278.278V280.974Z" fill="#2AF6FF"/>
<path style="mix-blend-mode:screen" d="M217.878 292.526L146.138 250.764L145.156 251.342L217.878 293.681L290.331 251.399L289.33 250.841L217.878 292.526Z" fill="url(#paint106_radial_419_169)"/>
<path d="M164.082 251.958L217.358 282.995L271.366 251.919L218.032 220.862L164.082 251.958Z" fill="url(#paint107_linear_419_169)"/>
<g style="mix-blend-mode:color-dodge">
<path d="M191.038 267.553L217.531 282.995L244.41 267.534L217.878 252.092L191.038 267.553Z" fill="url(#paint108_radial_419_169)"/>
</g>
<path style="mix-blend-mode:screen" d="M271.366 139.746L217.551 108.4L164.082 139.688V251.958L217.358 282.995L271.366 251.919V139.746Z" fill="url(#paint109_linear_419_169)"/>
<path d="M299.919 341.855V415.694L372.545 373.046V299.226L299.919 341.855Z" fill="url(#paint110_linear_419_169)"/>
<path d="M299.958 341.855V415.694L227.351 373.373V299.573L299.958 341.855Z" fill="#0054B8"/>
<path d="M227.351 299.573L299.958 341.855L372.545 299.226L299.861 256.887L227.351 299.573Z" fill="#0974FF"/>
<path style="mix-blend-mode:screen" d="M299.958 340.699L228.352 298.995L227.351 299.573L299.958 341.855L372.545 299.226L371.544 298.649L299.958 340.699Z" fill="url(#paint111_radial_419_169)"/>
</g>
<defs>
<linearGradient id="paint0_linear_419_169" x1="379.978" y1="179.582" x2="395.419" y2="214.22" gradientUnits="userSpaceOnUse">
<stop offset="0.04" stop-color="#FFA98C"/>
<stop offset="0.32" stop-color="#FFB892"/>
<stop offset="0.86" stop-color="#FEE1A3"/>
<stop offset="1" stop-color="#FEECA8"/>
</linearGradient>
<linearGradient id="paint1_linear_419_169" x1="226.465" y1="77.3819" x2="374.798" y2="258.003" gradientUnits="userSpaceOnUse">
<stop offset="0.04" stop-color="#FFA98C"/>
<stop offset="0.32" stop-color="#FFB892"/>
<stop offset="0.86" stop-color="#FEE1A3"/>
<stop offset="1" stop-color="#FEECA8"/>
</linearGradient>
<linearGradient id="paint2_linear_419_169" x1="376.223" y1="-18.4839" x2="330.013" y2="187.534" gradientUnits="userSpaceOnUse">
<stop offset="0.04" stop-color="#FFA98C"/>
<stop offset="0.32" stop-color="#FFB892"/>
<stop offset="0.86" stop-color="#FEE1A3"/>
<stop offset="1" stop-color="#FEECA8"/>
</linearGradient>
<radialGradient id="paint3_radial_419_169" cx="0" cy="0" r="1" gradientUnits="userSpaceOnUse" gradientTransform="translate(339.987 163.909) scale(53.5453 53.5453)">
<stop offset="0.1" stop-color="#FFE4A7"/>
<stop offset="0.42" stop-color="#F4BE4C"/>
<stop offset="0.67" stop-color="#ECA30A"/>
<stop offset="1"/>
</radialGradient>
<linearGradient id="paint4_linear_419_169" x1="379.978" y1="159.673" x2="395.419" y2="194.311" gradientUnits="userSpaceOnUse">
<stop offset="0.04" stop-color="#FFA98C"/>
<stop offset="0.32" stop-color="#FFB892"/>
<stop offset="0.86" stop-color="#FEE1A3"/>
<stop offset="1" stop-color="#FEECA8"/>
</linearGradient>
<linearGradient id="paint5_linear_419_169" x1="226.465" y1="57.4925" x2="374.798" y2="238.114" gradientUnits="userSpaceOnUse">
<stop offset="0.04" stop-color="#FFA98C"/>
<stop offset="0.32" stop-color="#FFB892"/>
<stop offset="0.86" stop-color="#FEE1A3"/>
<stop offset="1" stop-color="#FEECA8"/>
</linearGradient>
<linearGradient id="paint6_linear_419_169" x1="376.223" y1="-38.3732" x2="330.013" y2="167.644" gradientUnits="userSpaceOnUse">
<stop offset="0.04" stop-color="#FFA98C"/>
<stop offset="0.32" stop-color="#FFB892"/>
<stop offset="0.86" stop-color="#FEE1A3"/>
<stop offset="1" stop-color="#FEECA8"/>
</linearGradient>
<radialGradient id="paint7_radial_419_169" cx="0" cy="0" r="1" gradientUnits="userSpaceOnUse" gradientTransform="translate(339.987 144.02) scale(53.5453 53.5453)">
<stop offset="0.1" stop-color="#FFE4A7"/>
<stop offset="0.42" stop-color="#F4BE4C"/>
<stop offset="0.67" stop-color="#ECA30A"/>
<stop offset="1"/>
</radialGradient>
<linearGradient id="paint8_linear_419_169" x1="379.978" y1="139.784" x2="395.419" y2="174.422" gradientUnits="userSpaceOnUse">
<stop offset="0.04" stop-color="#FFA98C"/>
<stop offset="0.32" stop-color="#FFB892"/>
<stop offset="0.86" stop-color="#FEE1A3"/>
<stop offset="1" stop-color="#FEECA8"/>
</linearGradient>
<linearGradient id="paint9_linear_419_169" x1="226.465" y1="37.5838" x2="374.798" y2="218.225" gradientUnits="userSpaceOnUse">
<stop offset="0.04" stop-color="#FFA98C"/>
<stop offset="0.32" stop-color="#FFB892"/>
<stop offset="0.86" stop-color="#FEE1A3"/>
<stop offset="1" stop-color="#FEECA8"/>
</linearGradient>
<linearGradient id="paint10_linear_419_169" x1="376.223" y1="-58.2818" x2="330.013" y2="147.736" gradientUnits="userSpaceOnUse">
<stop offset="0.04" stop-color="#FFA98C"/>
<stop offset="0.32" stop-color="#FFB892"/>
<stop offset="0.86" stop-color="#FEE1A3"/>
<stop offset="1" stop-color="#FEECA8"/>
</linearGradient>
<radialGradient id="paint11_radial_419_169" cx="0" cy="0" r="1" gradientUnits="userSpaceOnUse" gradientTransform="translate(339.987 124.13) scale(53.5453 53.5453)">
<stop offset="0.1" stop-color="#FFE4A7"/>
<stop offset="0.42" stop-color="#F4BE4C"/>
<stop offset="0.67" stop-color="#ECA30A"/>
<stop offset="1"/>
</radialGradient>
<linearGradient id="paint12_linear_419_169" x1="379.978" y1="119.895" x2="395.419" y2="154.532" gradientUnits="userSpaceOnUse">
<stop offset="0.04" stop-color="#FFA98C"/>
<stop offset="0.32" stop-color="#FFB892"/>
<stop offset="0.86" stop-color="#FEE1A3"/>
<stop offset="1" stop-color="#FEECA8"/>
</linearGradient>
<linearGradient id="paint13_linear_419_169" x1="226.465" y1="17.6945" x2="374.798" y2="198.316" gradientUnits="userSpaceOnUse">
<stop offset="0.04" stop-color="#FFA98C"/>
<stop offset="0.32" stop-color="#FFB892"/>
<stop offset="0.86" stop-color="#FEE1A3"/>
<stop offset="1" stop-color="#FEECA8"/>
</linearGradient>
<linearGradient id="paint14_linear_419_169" x1="387.525" y1="-128.501" x2="341.315" y2="77.5166" gradientUnits="userSpaceOnUse">
<stop offset="0.04" stop-color="#FFA98C"/>
<stop offset="0.32" stop-color="#FFB892"/>
<stop offset="0.86" stop-color="#FEE1A3"/>
<stop offset="1" stop-color="#FEECA8"/>
</linearGradient>
<linearGradient id="paint15_linear_419_169" x1="284.951" y1="47.5573" x2="398.798" y2="91.0874" gradientUnits="userSpaceOnUse">
<stop stop-color="#0054B8"/>
<stop offset="1" stop-color="#6ECAFE"/>
</linearGradient>
<radialGradient id="paint16_radial_419_169" cx="0" cy="0" r="1" gradientUnits="userSpaceOnUse" gradientTransform="translate(339.987 104.222) scale(53.5453 53.5453)">
<stop offset="0.1" stop-color="#FFE4A7"/>
<stop offset="0.42" stop-color="#F4BE4C"/>
<stop offset="0.67" stop-color="#ECA30A"/>
<stop offset="1"/>
</radialGradient>
<radialGradient id="paint17_radial_419_169" cx="0" cy="0" r="1" gradientUnits="userSpaceOnUse" gradientTransform="translate(344.05 102.45) scale(33.579 33.579)">
<stop stop-color="white"/>
<stop offset="1"/>
</radialGradient>
<linearGradient id="paint18_linear_419_169" x1="346.764" y1="88.1833" x2="346.764" y2="2.65705" gradientUnits="userSpaceOnUse">
<stop stop-color="#1BB0D4"/>
<stop offset="0.05" stop-color="#189DBD"/>
<stop offset="0.18" stop-color="#12738B"/>
<stop offset="0.31" stop-color="#0C5060"/>
<stop offset="0.45" stop-color="#08333E"/>
<stop offset="0.58" stop-color="#041D23"/>
<stop offset="0.72" stop-color="#020D0F"/>
<stop offset="0.85" stop-color="#000304"/>
<stop offset="1"/>
</linearGradient>
<linearGradient id="paint19_linear_419_169" x1="389.809" y1="320.059" x2="466.888" y2="325.681" gradientUnits="userSpaceOnUse">
<stop stop-color="#0054B8"/>
<stop offset="1" stop-color="#6ECAFE"/>
</linearGradient>
<radialGradient id="paint20_radial_419_169" cx="0" cy="0" r="1" gradientUnits="userSpaceOnUse" gradientTransform="translate(386.216 341.084) scale(74.4359 74.436)">
<stop offset="0.1" stop-color="#45108A"/>
<stop offset="0.67" stop-color="#25054D"/>
<stop offset="1"/>
</radialGradient>
<linearGradient id="paint21_linear_419_169" x1="303.551" y1="368.983" x2="380.63" y2="374.605" gradientUnits="userSpaceOnUse">
<stop stop-color="#0054B8"/>
<stop offset="1" stop-color="#6ECAFE"/>
</linearGradient>
<radialGradient id="paint22_radial_419_169" cx="0" cy="0" r="1" gradientUnits="userSpaceOnUse" gradientTransform="translate(299.938 390.009) scale(74.4359 74.4359)">
<stop offset="0.1" stop-color="#45108A"/>
<stop offset="0.67" stop-color="#25054D"/>
<stop offset="1"/>
</radialGradient>
<linearGradient id="paint23_linear_419_169" x1="322.678" y1="101.969" x2="265.57" y2="175.134" gradientUnits="userSpaceOnUse">
<stop stop-color="#972A74"/>
<stop offset="0.04" stop-color="#8A266A"/>
<stop offset="0.19" stop-color="#601B4A"/>
<stop offset="0.35" stop-color="#3D112F"/>
<stop offset="0.51" stop-color="#230A1B"/>
<stop offset="0.67" stop-color="#0F040C"/>
<stop offset="0.83" stop-color="#040103"/>
<stop offset="1"/>
</linearGradient>
<linearGradient id="paint24_linear_419_169" x1="471.984" y1="369.811" x2="549.042" y2="375.43" gradientUnits="userSpaceOnUse">
<stop stop-color="#0054B8"/>
<stop offset="1" stop-color="#6ECAFE"/>
</linearGradient>
<linearGradient id="paint25_linear_419_169" x1="387.767" y1="418.736" x2="464.825" y2="424.354" gradientUnits="userSpaceOnUse">
<stop stop-color="#0054B8"/>
<stop offset="1" stop-color="#6ECAFE"/>
</linearGradient>
<linearGradient id="paint26_linear_419_169" x1="94.3637" y1="432.098" x2="155.649" y2="398.076" gradientUnits="userSpaceOnUse">
<stop stop-color="#972A74"/>
<stop offset="0.04" stop-color="#8A266A"/>
<stop offset="0.19" stop-color="#601B4A"/>
<stop offset="0.35" stop-color="#3D112F"/>
<stop offset="0.51" stop-color="#230A1B"/>
<stop offset="0.67" stop-color="#0F040C"/>
<stop offset="0.83" stop-color="#040103"/>
<stop offset="1"/>
</linearGradient>
<linearGradient id="paint27_linear_419_169" x1="133.738" y1="486.144" x2="183.298" y2="597.355" gradientUnits="userSpaceOnUse">
<stop offset="0.04" stop-color="#FFA98C"/>
<stop offset="0.32" stop-color="#FFB892"/>
<stop offset="0.86" stop-color="#FEE1A3"/>
<stop offset="1" stop-color="#FEECA8"/>
</linearGradient>
<linearGradient id="paint28_linear_419_169" x1="-84.0052" y1="260.333" x2="181.738" y2="583.973" gradientUnits="userSpaceOnUse">
<stop offset="0.04" stop-color="#FFA98C"/>
<stop offset="0.32" stop-color="#FFB892"/>
<stop offset="0.86" stop-color="#FEE1A3"/>
<stop offset="1" stop-color="#FEECA8"/>
</linearGradient>
<linearGradient id="paint29_linear_419_169" x1="42.3309" y1="399.674" x2="107.115" y2="404.492" gradientUnits="userSpaceOnUse">
<stop stop-color="#0054B8"/>
<stop offset="1" stop-color="#6ECAFE"/>
</linearGradient>
<linearGradient id="paint30_linear_419_169" x1="110.171" y1="291.833" x2="82.0219" y2="417.369" gradientUnits="userSpaceOnUse">
<stop offset="0.04" stop-color="#FFA98C"/>
<stop offset="0.32" stop-color="#FFB892"/>
<stop offset="0.86" stop-color="#FEE1A3"/>
<stop offset="1" stop-color="#FEECA8"/>
</linearGradient>
<radialGradient id="paint31_radial_419_169" cx="0" cy="0" r="1" gradientUnits="userSpaceOnUse" gradientTransform="translate(85.584 410.476) scale(69.0833 69.0833)">
<stop offset="0.1" stop-color="#FFE4A7"/>
<stop offset="0.42" stop-color="#F4BE4C"/>
<stop offset="0.67" stop-color="#ECA30A"/>
<stop offset="1"/>
</radialGradient>
<radialGradient id="paint32_radial_419_169" cx="0" cy="0" r="1" gradientUnits="userSpaceOnUse" gradientTransform="translate(86.643 442.168) scale(33.6175)">
<stop stop-color="white"/>
<stop offset="1"/>
</radialGradient>
<linearGradient id="paint33_linear_419_169" x1="76.7464" y1="446.981" x2="-0.616123" y2="483.737" gradientUnits="userSpaceOnUse">
<stop stop-color="#1BB0D4"/>
<stop offset="0.05" stop-color="#189DBD"/>
<stop offset="0.18" stop-color="#12738B"/>
<stop offset="0.31" stop-color="#0C5060"/>
<stop offset="0.45" stop-color="#08333E"/>
<stop offset="0.58" stop-color="#041D23"/>
<stop offset="0.72" stop-color="#020D0F"/>
<stop offset="0.85" stop-color="#000304"/>
<stop offset="1"/>
</linearGradient>
<linearGradient id="paint34_linear_419_169" x1="221.375" y1="419.487" x2="298.454" y2="425.108" gradientUnits="userSpaceOnUse">
<stop stop-color="#0054B8"/>
<stop offset="1" stop-color="#6ECAFE"/>
</linearGradient>
<radialGradient id="paint35_radial_419_169" cx="0" cy="0" r="1" gradientUnits="userSpaceOnUse" gradientTransform="translate(127.558 464.945) scale(91.803 91.803)">
<stop stop-color="#FDD65B"/>
<stop offset="0.21" stop-color="#B19540"/>
<stop offset="0.47" stop-color="#52461E"/>
<stop offset="0.66" stop-color="#171308"/>
<stop offset="0.75"/>
</radialGradient>
<radialGradient id="paint36_radial_419_169" cx="0" cy="0" r="1" gradientUnits="userSpaceOnUse" gradientTransform="translate(217.782 440.512) scale(73.9353 73.9353)">
<stop offset="0.1" stop-color="#45108A"/>
<stop offset="0.67" stop-color="#25054D"/>
<stop offset="1"/>
</radialGradient>
<linearGradient id="paint37_linear_419_169" x1="139.218" y1="287.077" x2="216.297" y2="292.698" gradientUnits="userSpaceOnUse">
<stop stop-color="#0054B8"/>
<stop offset="1" stop-color="#6ECAFE"/>
</linearGradient>
<radialGradient id="paint38_radial_419_169" cx="0" cy="0" r="1" gradientUnits="userSpaceOnUse" gradientTransform="translate(135.625 308.122) scale(74.4359 74.4359)">
<stop offset="0.1" stop-color="#45108A"/>
<stop offset="0.67" stop-color="#25054D"/>
<stop offset="1"/>
</radialGradient>
<radialGradient id="paint39_radial_419_169" cx="0" cy="0" r="1" gradientUnits="userSpaceOnUse" gradientTransform="translate(91.4563 398.769) scale(88.2988 88.2988)">
<stop stop-color="#FDD65B"/>
<stop offset="0.21" stop-color="#B19540"/>
<stop offset="0.47" stop-color="#52461E"/>
<stop offset="0.66" stop-color="#171308"/>
<stop offset="0.75"/>
</radialGradient>
<linearGradient id="paint40_linear_419_169" x1="303.551" y1="467.66" x2="380.63" y2="473.282" gradientUnits="userSpaceOnUse">
<stop stop-color="#0054B8"/>
<stop offset="1" stop-color="#6ECAFE"/>
</linearGradient>
<radialGradient id="paint41_radial_419_169" cx="0" cy="0" r="1" gradientUnits="userSpaceOnUse" gradientTransform="translate(299.938 488.685) scale(74.4359 74.4359)">
<stop offset="0.1" stop-color="#45108A"/>
<stop offset="0.67" stop-color="#25054D"/>
<stop offset="1"/>
</radialGradient>
<linearGradient id="paint42_linear_419_169" x1="221.375" y1="335.25" x2="298.454" y2="340.871" gradientUnits="userSpaceOnUse">
<stop stop-color="#0054B8"/>
<stop offset="1" stop-color="#6ECAFE"/>
</linearGradient>
<radialGradient id="paint43_radial_419_169" cx="0" cy="0" r="1" gradientUnits="userSpaceOnUse" gradientTransform="translate(217.782 356.295) scale(74.4359 74.4359)">
<stop offset="0.1" stop-color="#45108A"/>
<stop offset="0.67" stop-color="#25054D"/>
<stop offset="1"/>
</radialGradient>
<linearGradient id="paint44_linear_419_169" x1="303.551" y1="443.13" x2="379.343" y2="454.469" gradientUnits="userSpaceOnUse">
<stop stop-color="#0054B8"/>
<stop offset="1" stop-color="#6ECAFE"/>
</linearGradient>
<linearGradient id="paint45_linear_419_169" x1="303.551" y1="383.443" x2="379.225" y2="395.161" gradientUnits="userSpaceOnUse">
<stop stop-color="#0054B8"/>
<stop offset="1" stop-color="#6ECAFE"/>
</linearGradient>
<radialGradient id="paint46_radial_419_169" cx="0" cy="0" r="1" gradientUnits="userSpaceOnUse" gradientTransform="translate(299.938 404.468) scale(73.5887 73.5887)">
<stop offset="0.1" stop-color="#45108A"/>
<stop offset="0.67" stop-color="#25054D"/>
<stop offset="1"/>
</radialGradient>
<radialGradient id="paint47_radial_419_169" cx="0" cy="0" r="1" gradientUnits="userSpaceOnUse" gradientTransform="translate(377.859 415.366) scale(74.4552 74.4552)">
<stop stop-color="#FDD65B"/>
<stop offset="0.21" stop-color="#B19540"/>
<stop offset="0.47" stop-color="#52461E"/>
<stop offset="0.66" stop-color="#171308"/>
<stop offset="0.75"/>
</radialGradient>
<linearGradient id="paint48_linear_419_169" x1="303.551" y1="383.443" x2="380.63" y2="389.065" gradientUnits="userSpaceOnUse">
<stop stop-color="#0054B8"/>
<stop offset="1" stop-color="#6ECAFE"/>
</linearGradient>
<linearGradient id="paint49_linear_419_169" x1="471.984" y1="285.594" x2="549.042" y2="291.213" gradientUnits="userSpaceOnUse">
<stop stop-color="#0054B8"/>
<stop offset="1" stop-color="#6ECAFE"/>
</linearGradient>
<radialGradient id="paint50_radial_419_169" cx="0" cy="0" r="1" gradientUnits="userSpaceOnUse" gradientTransform="translate(468.373 306.62) scale(74.4359 74.4359)">
<stop offset="0.1" stop-color="#45108A"/>
<stop offset="0.67" stop-color="#25054D"/>
<stop offset="1"/>
</radialGradient>
<linearGradient id="paint51_linear_419_169" x1="492.806" y1="431.54" x2="342.875" y2="349.903" gradientUnits="userSpaceOnUse">
<stop stop-color="#972A74"/>
<stop offset="0.04" stop-color="#8A266A"/>
<stop offset="0.19" stop-color="#601B4A"/>
<stop offset="0.35" stop-color="#3D112F"/>
<stop offset="0.51" stop-color="#230A1B"/>
<stop offset="0.67" stop-color="#0F040C"/>
<stop offset="0.83" stop-color="#040103"/>
<stop offset="1"/>
</linearGradient>
<linearGradient id="paint52_linear_419_169" x1="496.657" y1="473.263" x2="512.098" y2="507.901" gradientUnits="userSpaceOnUse">
<stop offset="0.04" stop-color="#FFA98C"/>
<stop offset="0.32" stop-color="#FFB892"/>
<stop offset="0.86" stop-color="#FEE1A3"/>
<stop offset="1" stop-color="#FEECA8"/>
</linearGradient>
<linearGradient id="paint53_linear_419_169" x1="343.164" y1="371.063" x2="491.477" y2="551.684" gradientUnits="userSpaceOnUse">
<stop offset="0.04" stop-color="#FFA98C"/>
<stop offset="0.32" stop-color="#FFB892"/>
<stop offset="0.86" stop-color="#FEE1A3"/>
<stop offset="1" stop-color="#FEECA8"/>
</linearGradient>
<linearGradient id="paint54_linear_419_169" x1="492.921" y1="275.197" x2="446.712" y2="481.215" gradientUnits="userSpaceOnUse">
<stop offset="0.04" stop-color="#FFA98C"/>
<stop offset="0.32" stop-color="#FFB892"/>
<stop offset="0.86" stop-color="#FEE1A3"/>
<stop offset="1" stop-color="#FEECA8"/>
</linearGradient>
<radialGradient id="paint55_radial_419_169" cx="0" cy="0" r="1" gradientUnits="userSpaceOnUse" gradientTransform="translate(456.685 457.59) scale(53.5453 53.5453)">
<stop offset="0.1" stop-color="#FFE4A7"/>
<stop offset="0.42" stop-color="#F4BE4C"/>
<stop offset="0.67" stop-color="#ECA30A"/>
<stop offset="1"/>
</radialGradient>
<linearGradient id="paint56_linear_419_169" x1="496.657" y1="453.354" x2="512.098" y2="487.992" gradientUnits="userSpaceOnUse">
<stop offset="0.04" stop-color="#FFA98C"/>
<stop offset="0.32" stop-color="#FFB892"/>
<stop offset="0.86" stop-color="#FEE1A3"/>
<stop offset="1" stop-color="#FEECA8"/>
</linearGradient>
<linearGradient id="paint57_linear_419_169" x1="343.164" y1="351.154" x2="491.477" y2="531.795" gradientUnits="userSpaceOnUse">
<stop offset="0.04" stop-color="#FFA98C"/>
<stop offset="0.32" stop-color="#FFB892"/>
<stop offset="0.86" stop-color="#FEE1A3"/>
<stop offset="1" stop-color="#FEECA8"/>
</linearGradient>
<linearGradient id="paint58_linear_419_169" x1="492.921" y1="255.308" x2="446.712" y2="461.326" gradientUnits="userSpaceOnUse">
<stop offset="0.04" stop-color="#FFA98C"/>
<stop offset="0.32" stop-color="#FFB892"/>
<stop offset="0.86" stop-color="#FEE1A3"/>
<stop offset="1" stop-color="#FEECA8"/>
</linearGradient>
<radialGradient id="paint59_radial_419_169" cx="0" cy="0" r="1" gradientUnits="userSpaceOnUse" gradientTransform="translate(456.685 437.701) scale(53.5453 53.5453)">
<stop offset="0.1" stop-color="#FFE4A7"/>
<stop offset="0.42" stop-color="#F4BE4C"/>
<stop offset="0.67" stop-color="#ECA30A"/>
<stop offset="1"/>
</radialGradient>
<linearGradient id="paint60_linear_419_169" x1="496.657" y1="433.465" x2="512.098" y2="468.103" gradientUnits="userSpaceOnUse">
<stop offset="0.04" stop-color="#FFA98C"/>
<stop offset="0.32" stop-color="#FFB892"/>
<stop offset="0.86" stop-color="#FEE1A3"/>
<stop offset="1" stop-color="#FEECA8"/>
</linearGradient>
<linearGradient id="paint61_linear_419_169" x1="343.164" y1="331.265" x2="491.477" y2="511.886" gradientUnits="userSpaceOnUse">
<stop offset="0.04" stop-color="#FFA98C"/>
<stop offset="0.32" stop-color="#FFB892"/>
<stop offset="0.86" stop-color="#FEE1A3"/>
<stop offset="1" stop-color="#FEECA8"/>
</linearGradient>
<linearGradient id="paint62_linear_419_169" x1="492.921" y1="235.399" x2="446.712" y2="441.417" gradientUnits="userSpaceOnUse">
<stop offset="0.04" stop-color="#FFA98C"/>
<stop offset="0.32" stop-color="#FFB892"/>
<stop offset="0.86" stop-color="#FEE1A3"/>
<stop offset="1" stop-color="#FEECA8"/>
</linearGradient>
<radialGradient id="paint63_radial_419_169" cx="0" cy="0" r="1" gradientUnits="userSpaceOnUse" gradientTransform="translate(456.685 417.792) scale(53.5453 53.5453)">
<stop offset="0.1" stop-color="#FFE4A7"/>
<stop offset="0.42" stop-color="#F4BE4C"/>
<stop offset="0.67" stop-color="#ECA30A"/>
<stop offset="1"/>
</radialGradient>
<linearGradient id="paint64_linear_419_169" x1="496.657" y1="413.576" x2="512.098" y2="448.213" gradientUnits="userSpaceOnUse">
<stop offset="0.04" stop-color="#FFA98C"/>
<stop offset="0.32" stop-color="#FFB892"/>
<stop offset="0.86" stop-color="#FEE1A3"/>
<stop offset="1" stop-color="#FEECA8"/>
</linearGradient>
<linearGradient id="paint65_linear_419_169" x1="343.164" y1="311.375" x2="491.477" y2="491.997" gradientUnits="userSpaceOnUse">
<stop offset="0.04" stop-color="#FFA98C"/>
<stop offset="0.32" stop-color="#FFB892"/>
<stop offset="0.86" stop-color="#FEE1A3"/>
<stop offset="1" stop-color="#FEECA8"/>
</linearGradient>
<linearGradient id="paint66_linear_419_169" x1="504.204" y1="165.18" x2="457.995" y2="371.198" gradientUnits="userSpaceOnUse">
<stop offset="0.04" stop-color="#FFA98C"/>
<stop offset="0.32" stop-color="#FFB892"/>
<stop offset="0.86" stop-color="#FEE1A3"/>
<stop offset="1" stop-color="#FEECA8"/>
</linearGradient>
<linearGradient id="paint67_linear_419_169" x1="401.65" y1="341.238" x2="515.496" y2="384.768" gradientUnits="userSpaceOnUse">
<stop stop-color="#0054B8"/>
<stop offset="1" stop-color="#6ECAFE"/>
</linearGradient>
<radialGradient id="paint68_radial_419_169" cx="0" cy="0" r="1" gradientUnits="userSpaceOnUse" gradientTransform="translate(456.685 397.903) scale(53.5453 53.5453)">
<stop offset="0.1" stop-color="#FFE4A7"/>
<stop offset="0.42" stop-color="#F4BE4C"/>
<stop offset="0.67" stop-color="#ECA30A"/>
<stop offset="1"/>
</radialGradient>
<radialGradient id="paint69_radial_419_169" cx="0" cy="0" r="1" gradientUnits="userSpaceOnUse" gradientTransform="translate(465.792 399.405) scale(40.0483 40.0483)">
<stop stop-color="white"/>
<stop offset="1"/>
</radialGradient>
<linearGradient id="paint70_linear_419_169" x1="389.809" y1="153.185" x2="466.888" y2="158.805" gradientUnits="userSpaceOnUse">
<stop stop-color="#0054B8"/>
<stop offset="1" stop-color="#6ECAFE"/>
</linearGradient>
<radialGradient id="paint71_radial_419_169" cx="0" cy="0" r="1" gradientUnits="userSpaceOnUse" gradientTransform="translate(386.216 174.229) scale(74.4359 74.4359)">
<stop offset="0.1" stop-color="#45108A"/>
<stop offset="0.67" stop-color="#25054D"/>
<stop offset="1"/>
</radialGradient>
<radialGradient id="paint72_radial_419_169" cx="0" cy="0" r="1" gradientUnits="userSpaceOnUse" gradientTransform="translate(402.524 266.572) scale(13.5933 13.5933)">
<stop offset="0.15" stop-color="#0974FF"/>
<stop offset="0.97" stop-color="#08105C"/>
</radialGradient>
<radialGradient id="paint73_radial_419_169" cx="0" cy="0" r="1" gradientUnits="userSpaceOnUse" gradientTransform="translate(402.524 203.996) scale(13.5933 13.5933)">
<stop offset="0.15" stop-color="#0974FF"/>
<stop offset="0.97" stop-color="#08105C"/>
</radialGradient>
<radialGradient id="paint74_radial_419_169" cx="0" cy="0" r="1" gradientUnits="userSpaceOnUse" gradientTransform="translate(464.618 241.541) scale(13.5933 13.5933)">
<stop offset="0.15" stop-color="#0974FF"/>
<stop offset="0.97" stop-color="#08105C"/>
</radialGradient>
<radialGradient id="paint75_radial_419_169" cx="0" cy="0" r="1" gradientUnits="userSpaceOnUse" gradientTransform="translate(446.808 269.941) scale(13.5933 13.5933)">
<stop offset="0.15" stop-color="#0974FF"/>
<stop offset="0.97" stop-color="#08105C"/>
</radialGradient>
<radialGradient id="paint76_radial_419_169" cx="0" cy="0" r="1" gradientUnits="userSpaceOnUse" gradientTransform="translate(527.675 203.996) scale(13.5933 13.5933)">
<stop offset="0.15" stop-color="#0974FF"/>
<stop offset="0.97" stop-color="#08105C"/>
</radialGradient>
<radialGradient id="paint77_radial_419_169" cx="0" cy="0" r="1" gradientUnits="userSpaceOnUse" gradientTransform="translate(527.675 265.609) scale(13.5933 13.5933)">
<stop offset="0.15" stop-color="#0974FF"/>
<stop offset="0.97" stop-color="#08105C"/>
</radialGradient>
<radialGradient id="paint78_radial_419_169" cx="0" cy="0" r="1" gradientUnits="userSpaceOnUse" gradientTransform="translate(464.618 303.636) scale(13.5933 13.5933)">
<stop offset="0.15" stop-color="#0974FF"/>
<stop offset="0.97" stop-color="#08105C"/>
</radialGradient>
<radialGradient id="paint79_radial_419_169" cx="0" cy="0" r="1" gradientUnits="userSpaceOnUse" gradientTransform="translate(464.618 166.451) scale(13.5933 13.5933)">
<stop offset="0.15" stop-color="#0974FF"/>
<stop offset="0.97" stop-color="#08105C"/>
</radialGradient>
<radialGradient id="paint80_radial_419_169" cx="0" cy="0" r="1" gradientUnits="userSpaceOnUse" gradientTransform="translate(479.54 203.515) scale(13.5933 13.5933)">
<stop offset="0.15" stop-color="#0974FF"/>
<stop offset="0.97" stop-color="#08105C"/>
</radialGradient>
<radialGradient id="paint81_radial_419_169" cx="0" cy="0" r="1" gradientUnits="userSpaceOnUse" gradientTransform="translate(500.719 225.657) scale(13.5933 13.5933)">
<stop offset="0.15" stop-color="#0974FF"/>
<stop offset="0.97" stop-color="#08105C"/>
</radialGradient>
<radialGradient id="paint82_radial_419_169" cx="0" cy="0" r="1" gradientUnits="userSpaceOnUse" gradientTransform="translate(488.916 261.758) scale(13.5933 13.5933)">
<stop offset="0.15" stop-color="#0974FF"/>
<stop offset="0.97" stop-color="#0054B8"/>
</radialGradient>
<radialGradient id="paint83_radial_419_169" cx="0" cy="0" r="1" gradientUnits="userSpaceOnUse" gradientTransform="translate(433.33 233.84) scale(13.5933 13.5933)">
<stop offset="0.15" stop-color="#0974FF"/>
<stop offset="0.97" stop-color="#08105C"/>
</radialGradient>
<radialGradient id="paint84_radial_419_169" cx="0" cy="0" r="1" gradientUnits="userSpaceOnUse" gradientTransform="translate(445.845 200.627) scale(13.5933 13.5933)">
<stop offset="0.15" stop-color="#0974FF"/>
<stop offset="0.97" stop-color="#08105C"/>
</radialGradient>
<linearGradient id="paint85_linear_419_169" x1="223.435" y1="153.936" x2="300.514" y2="159.556" gradientUnits="userSpaceOnUse">
<stop stop-color="#0054B8"/>
<stop offset="1" stop-color="#6ECAFE"/>
</linearGradient>
<radialGradient id="paint86_radial_419_169" cx="0" cy="0" r="1" gradientUnits="userSpaceOnUse" gradientTransform="translate(219.842 174.98) scale(74.4359 74.4359)">
<stop offset="0.1" stop-color="#45108A"/>
<stop offset="0.67" stop-color="#25054D"/>
<stop offset="1"/>
</radialGradient>
<linearGradient id="paint87_linear_419_169" x1="303.551" y1="202.109" x2="380.63" y2="207.73" gradientUnits="userSpaceOnUse">
<stop stop-color="#0054B8"/>
<stop offset="1" stop-color="#6ECAFE"/>
</linearGradient>
<radialGradient id="paint88_radial_419_169" cx="0" cy="0" r="1" gradientUnits="userSpaceOnUse" gradientTransform="translate(299.938 223.154) scale(74.4359 74.4359)">
<stop offset="0.1" stop-color="#45108A"/>
<stop offset="0.67" stop-color="#25054D"/>
<stop offset="1"/>
</radialGradient>
<linearGradient id="paint89_linear_419_169" x1="387.767" y1="250.302" x2="464.825" y2="255.92" gradientUnits="userSpaceOnUse">
<stop stop-color="#0054B8"/>
<stop offset="1" stop-color="#6ECAFE"/>
</linearGradient>
<radialGradient id="paint90_radial_419_169" cx="0" cy="0" r="1" gradientUnits="userSpaceOnUse" gradientTransform="translate(384.156 271.327) scale(79.8848 79.8848)">
<stop offset="0.1" stop-color="#45108A"/>
<stop offset="0.67" stop-color="#25054D"/>
<stop offset="1"/>
</radialGradient>
<radialGradient id="paint91_radial_419_169" cx="0" cy="0" r="1" gradientUnits="userSpaceOnUse" gradientTransform="translate(403.371 399.963) scale(178.292 178.292)">
<stop stop-color="#FDD65B"/>
<stop offset="0.21" stop-color="#B19540"/>
<stop offset="0.47" stop-color="#52461E"/>
<stop offset="0.66" stop-color="#171308"/>
<stop offset="0.75"/>
</radialGradient>
<radialGradient id="paint92_radial_419_169" cx="0" cy="0" r="1" gradientUnits="userSpaceOnUse" gradientTransform="translate(377.705 367.559) scale(122.725 122.725)">
<stop stop-color="#43E8E1"/>
<stop offset="0.16" stop-color="#33B1AB"/>
<stop offset="0.45" stop-color="#185250"/>
<stop offset="0.66" stop-color="#071716"/>
<stop offset="0.75"/>
</radialGradient>
<linearGradient id="paint93_linear_419_169" x1="139.218" y1="202.86" x2="216.297" y2="208.481" gradientUnits="userSpaceOnUse">
<stop stop-color="#0054B8"/>
<stop offset="1" stop-color="#6ECAFE"/>
</linearGradient>
<radialGradient id="paint94_radial_419_169" cx="0" cy="0" r="1" gradientUnits="userSpaceOnUse" gradientTransform="translate(135.625 223.905) scale(74.4359 74.4359)">
<stop offset="0.1" stop-color="#45108A"/>
<stop offset="0.67" stop-color="#25054D"/>
<stop offset="1"/>
</radialGradient>
<linearGradient id="paint95_linear_419_169" x1="221.375" y1="251.033" x2="298.454" y2="256.654" gradientUnits="userSpaceOnUse">
<stop stop-color="#0054B8"/>
<stop offset="1" stop-color="#6ECAFE"/>
</linearGradient>
<linearGradient id="paint96_linear_419_169" x1="221.464" y1="289.426" x2="297.903" y2="297.751" gradientUnits="userSpaceOnUse">
<stop stop-color="#0054B8"/>
<stop offset="1" stop-color="#6ECAFE"/>
</linearGradient>
<linearGradient id="paint97_linear_419_169" x1="225.45" y1="297.147" x2="292.393" y2="305.131" gradientUnits="userSpaceOnUse">
<stop stop-color="#0054B8"/>
<stop offset="1" stop-color="#6ECAFE"/>
</linearGradient>
<linearGradient id="paint98_linear_419_169" x1="148.792" y1="289.368" x2="225.47" y2="297.74" gradientUnits="userSpaceOnUse">
<stop stop-color="#0054B8"/>
<stop offset="1" stop-color="#6ECAFE"/>
</linearGradient>
<linearGradient id="paint99_linear_419_169" x1="152.777" y1="297.07" x2="219.959" y2="305.102" gradientUnits="userSpaceOnUse">
<stop stop-color="#0054B8"/>
<stop offset="1" stop-color="#6ECAFE"/>
</linearGradient>
<linearGradient id="paint100_linear_419_169" x1="152.415" y1="247.048" x2="301.321" y2="276.913" gradientUnits="userSpaceOnUse">
<stop stop-color="#0054B8"/>
<stop offset="1" stop-color="#6ECAFE"/>
</linearGradient>
<linearGradient id="paint101_linear_419_169" x1="205.864" y1="318.153" x2="351.443" y2="274.562" gradientUnits="userSpaceOnUse">
<stop offset="0.03" stop-color="#7C1DC9"/>
<stop offset="0.21" stop-color="#6E41D2"/>
<stop offset="0.62" stop-color="#4C9BE8"/>
<stop offset="1" stop-color="#2AF6FF"/>
</linearGradient>
<linearGradient id="paint102_linear_419_169" x1="90.4361" y1="325.431" x2="281.898" y2="282.514" gradientUnits="userSpaceOnUse">
<stop offset="0.04" stop-color="#138BBD"/>
<stop offset="0.23" stop-color="#169AC7"/>
<stop offset="0.59" stop-color="#1FC3DF"/>
<stop offset="1" stop-color="#2AF6FF"/>
</linearGradient>
<linearGradient id="paint103_linear_419_169" x1="221.464" y1="251.399" x2="297.903" y2="259.725" gradientUnits="userSpaceOnUse">
<stop stop-color="#0054B8"/>
<stop offset="1" stop-color="#6ECAFE"/>
</linearGradient>
<linearGradient id="paint104_linear_419_169" x1="148.792" y1="251.342" x2="225.47" y2="259.713" gradientUnits="userSpaceOnUse">
<stop stop-color="#0054B8"/>
<stop offset="1" stop-color="#6ECAFE"/>
</linearGradient>
<linearGradient id="paint105_linear_419_169" x1="152.777" y1="259.043" x2="219.96" y2="267.073" gradientUnits="userSpaceOnUse">
<stop stop-color="#0054B8"/>
<stop offset="1" stop-color="#6ECAFE"/>
</linearGradient>
<radialGradient id="paint106_radial_419_169" cx="0" cy="0" r="1" gradientUnits="userSpaceOnUse" gradientTransform="translate(217.743 272.213) scale(74.3204 74.3204)">
<stop offset="0.1" stop-color="#45108A"/>
<stop offset="0.67" stop-color="#25054D"/>
<stop offset="1"/>
</radialGradient>
<linearGradient id="paint107_linear_419_169" x1="217.724" y1="212.083" x2="217.724" y2="274.389" gradientUnits="userSpaceOnUse">
<stop offset="0.03" stop-color="#7C1DC9"/>
<stop offset="0.21" stop-color="#6E41D2"/>
<stop offset="0.62" stop-color="#4C9BE8"/>
<stop offset="1" stop-color="#2AF6FF"/>
</linearGradient>
<radialGradient id="paint108_radial_419_169" cx="0" cy="0" r="1" gradientUnits="userSpaceOnUse" gradientTransform="translate(217.377 282.302) scale(30.6138 30.6138)">
<stop stop-color="white"/>
<stop offset="1"/>
</radialGradient>
<linearGradient id="paint109_linear_419_169" x1="217.724" y1="282.995" x2="217.724" y2="111.769" gradientUnits="userSpaceOnUse">
<stop stop-color="#1BB0D4"/>
<stop offset="0.05" stop-color="#189DBD"/>
<stop offset="0.18" stop-color="#12738B"/>
<stop offset="0.31" stop-color="#0C5060"/>
<stop offset="0.45" stop-color="#08333E"/>
<stop offset="0.58" stop-color="#041D23"/>
<stop offset="0.72" stop-color="#020D0F"/>
<stop offset="0.85" stop-color="#000304"/>
<stop offset="1"/>
</linearGradient>
<linearGradient id="paint110_linear_419_169" x1="303.551" y1="299.226" x2="380.63" y2="304.848" gradientUnits="userSpaceOnUse">
<stop stop-color="#0054B8"/>
<stop offset="1" stop-color="#6ECAFE"/>
</linearGradient>
<radialGradient id="paint111_radial_419_169" cx="0" cy="0" r="1" gradientUnits="userSpaceOnUse" gradientTransform="translate(299.938 320.252) scale(74.4359 74.4359)">
<stop offset="0.1" stop-color="#45108A"/>
<stop offset="0.67" stop-color="#25054D"/>
<stop offset="1"/>
</radialGradient>
<clipPath id="clip0_419_169">
<rect width="540.96" height="584.127" fill="white"/>
</clipPath>
</defs>
</svg>
