<svg width="53" height="53" viewBox="0 0 53 53" fill="none" xmlns="http://www.w3.org/2000/svg">
<g clip-path="url(#clip0_2915_2533)">
<g clip-path="url(#clip1_2915_2533)">
<path d="M26.3369 52.6758C40.8829 52.6758 52.6748 40.8839 52.6748 26.3379C52.6748 11.7919 40.8829 0 26.3369 0C11.7909 0 -0.000976562 11.7919 -0.000976562 26.3379C-0.000976562 40.8839 11.7909 52.6758 26.3369 52.6758Z" fill="white"/>
<path d="M26.4893 36.2148H16.155C14.299 36.2148 13.1603 35.0779 13.1602 33.2225C13.1602 28.6223 13.1602 24.0221 13.1602 19.4218C13.1602 17.6088 14.307 16.4572 16.1121 16.457C22.9327 16.457 29.7531 16.457 36.5735 16.457C38.3575 16.457 39.5097 17.611 39.5103 19.4022C39.5121 24.1285 39.5121 28.8545 39.5103 33.5804C39.5103 35.2277 38.5291 36.213 36.8899 36.2136C33.4232 36.2162 29.9564 36.2166 26.4893 36.2148ZM14.2586 18.829C14.2489 19.041 14.2373 19.1725 14.2373 19.304C14.2358 20.5975 14.2358 21.8909 14.2373 23.1842C14.2373 26.5838 14.2367 29.9835 14.2355 33.3834C14.2107 33.7997 14.3522 34.2089 14.6289 34.5211C14.7159 34.4581 14.7911 34.4068 14.8619 34.351C17.2183 32.4788 19.5744 30.6064 21.9302 28.7339C22.1987 28.5193 22.4618 28.2983 22.7419 28.0998C22.794 28.0583 22.854 28.0278 22.9183 28.0103C22.9826 27.9928 23.0498 27.9887 23.1158 27.9981C23.1818 28.0075 23.2451 28.0303 23.302 28.0651C23.3588 28.0999 23.408 28.1459 23.4464 28.2003C23.4911 28.2494 23.5256 28.3068 23.548 28.3693C23.5703 28.4318 23.5801 28.4981 23.5766 28.5643C23.5732 28.6306 23.5566 28.6955 23.5279 28.7554C23.4992 28.8152 23.4589 28.8687 23.4094 28.9129C23.3183 28.9997 23.2217 29.0806 23.1202 29.1551C20.7457 31.0409 18.3714 32.9272 15.997 34.814C15.8957 34.8952 15.8005 34.9829 15.6639 35.1006H37.4718C37.316 34.9749 37.2316 34.9017 37.1426 34.8349C35.2485 33.4134 33.354 31.9923 31.459 30.5715C30.7543 30.0429 30.046 29.5198 29.3467 28.983C29.0683 28.77 29.0235 28.4814 29.1999 28.2304C29.384 27.9685 29.6822 27.9298 29.9849 28.1311C30.0419 28.1691 30.0944 28.2133 30.1493 28.2548C32.7683 30.2172 35.3873 32.1796 38.0063 34.1421C38.1022 34.2139 38.2046 34.2767 38.3122 34.3491C38.4573 33.972 38.492 19.2537 38.3528 18.8743C38.2412 18.9671 38.1362 19.0502 38.0358 19.1372C34.3182 22.3457 30.6017 25.5548 26.8864 28.7644C26.4121 29.1746 26.2645 29.1755 25.8008 28.7746C22.0673 25.5501 18.3338 22.3259 14.6004 19.1018C14.509 19.0249 14.4133 18.953 14.2586 18.829ZM37.8108 17.9175C37.495 17.6466 37.0868 17.5081 36.6714 17.5309C32.4495 17.5337 28.2275 17.5342 24.0053 17.5326C21.3279 17.5326 18.6505 17.5326 15.9732 17.5326C15.772 17.5206 15.5705 17.5487 15.3802 17.6152C15.19 17.6818 15.0149 17.7855 14.865 17.9203C18.7032 21.2345 22.5275 24.5364 26.3378 27.8261C30.1765 24.5111 33.9762 21.2291 37.8108 17.9175Z" fill="black"/>
</g>
</g>
<defs>
<clipPath id="clip0_2915_2533">
<rect width="52.6758" height="52.6758" fill="white"/>
</clipPath>
<clipPath id="clip1_2915_2533">
<rect width="52.6758" height="52.6758" fill="white"/>
</clipPath>
</defs>
</svg>
