<svg width="26" height="24" viewBox="0 0 26 24" fill="none" xmlns="http://www.w3.org/2000/svg">
<g clip-path="url(#clip0_368_426)">
<path fill-rule="evenodd" clip-rule="evenodd" d="M0.504883 12C0.504883 5.37258 5.87747 0 12.5049 0C19.1323 0 24.5049 5.37258 24.5049 12C24.5049 18.6274 19.1323 24 12.5049 24C5.87747 24 0.504883 18.6274 0.504883 12ZM13.7557 19.0557V12.5271H15.5578L15.7967 10.2773H13.7557L13.7587 9.15125C13.7587 8.56447 13.8145 8.25006 14.6573 8.25006H15.7839V6H13.9815C11.8165 6 11.0544 7.0914 11.0544 8.92678V10.2776H9.70488V12.5274H11.0544V19.0557H13.7557Z" fill="white"/>
</g>
<defs>
<clipPath id="clip0_368_426">
<rect width="25" height="24" fill="white" transform="translate(0.5)"/>
</clipPath>
</defs>
</svg>
