<?xml version="1.0"?>
<svg xmlns="http://www.w3.org/2000/svg" width="342" height="219" viewBox="0 0 342 219" fill="none">
<g clip-path="url(#clip0)">
<path d="M265.271 118.173C265.271 118.173 254.986 120.233 242.928 114.221C230.87 108.209 206.97 111.402 193.277 121.103C179.584 130.804 178.29 131.159 153.641 129.132C137.721 127.818 40.125 120.254 8.00078 131.688C-23.0134 142.714 44.4198 141.351 71.0044 165.941C102.309 194.903 186.397 198.632 244.67 176.754C268.999 167.621 310.493 185.077 318.536 172.848C320.845 169.336 312.929 162.781 299.321 156.67C285.713 150.558 295.714 148.282 314.291 144.614C332.868 140.946 346.883 134.7 340.39 127.569C333.896 120.439 316.532 113.202 265.271 118.173Z" fill="#D5DEEE"/>
<path d="M253.908 60.0507C250.699 56.1446 238.797 73.8285 233.551 86.8251C233.551 86.8251 257.483 64.429 253.908 60.0507Z" fill="#1DD6BF"/>
<path d="M277.521 78.8531C278.826 83.3522 259.097 83.1818 246.432 80.3801C246.432 80.3943 276.06 73.8533 277.521 78.8531Z" fill="#1DD6BF"/>
<path d="M268.023 86.7967C269.041 91.7681 247.808 89.8896 234.434 85.7953C234.434 85.7953 266.881 81.2536 268.023 86.7967Z" fill="#1DD6BF"/>
<path d="M156.44 146.741C159.774 141.936 163.484 137.402 167.533 133.183C171.555 128.972 175.811 124.977 180.219 121.17C184.627 117.364 189.185 113.738 193.859 110.272C198.533 106.807 203.328 103.504 208.229 100.372C218.019 94.0873 228.241 88.5043 238.818 83.6647C249.401 78.8851 260.398 74.9115 271.776 72.5253C260.427 75.011 249.482 79.1052 238.967 83.995C228.457 88.9243 218.311 94.599 208.609 100.976C203.752 104.15 199.012 107.488 194.387 110.99C189.763 114.491 185.27 118.148 180.911 121.962C176.566 125.797 172.371 129.803 168.427 134.035C164.471 138.24 160.854 142.752 157.61 147.529L156.44 146.741Z" fill="#0094B9"/>
<path d="M154.684 107.907C149.411 107.506 154.135 129.291 160.132 142.654C160.132 142.654 160.564 108.351 154.684 107.907Z" fill="#1DD6BF"/>
<path d="M160.132 142.654C160.132 142.654 155.557 121.401 154.684 107.907L160.132 142.654Z" fill="#1DD6BF"/>
<path d="M155.67 116.646C156.078 119.547 156.55 122.442 157.057 125.328C157.564 128.215 158.121 131.095 158.678 133.972C159.234 136.848 159.845 139.717 160.479 142.572L159.788 142.721C159.217 139.856 158.664 136.962 158.153 134.071C157.642 131.181 157.153 128.283 156.706 125.389C156.259 122.495 155.841 119.579 155.496 116.668C155.152 113.756 154.851 110.837 154.684 107.907C154.908 110.812 155.266 113.745 155.67 116.646Z" fill="#004B22"/>
<path d="M194.576 146.156C195.161 151.412 173.254 147.42 159.717 141.87C159.717 141.87 193.937 140.286 194.576 146.156Z" fill="#1DD6BF"/>
<path d="M159.731 141.858C159.731 141.858 181.088 145.729 194.59 146.148L159.731 141.858Z" fill="#1DD6BF"/>
<path d="M185.805 145.644C182.882 145.395 179.971 145.072 177.059 144.727C174.147 144.383 171.246 143.985 168.345 143.573C165.444 143.161 162.547 142.718 159.653 142.235L159.777 141.524C162.65 142.064 165.532 142.568 168.423 143.037C171.314 143.506 174.19 143.975 177.105 144.365C180.02 144.756 182.921 145.143 185.83 145.431C188.738 145.718 191.66 145.992 194.589 146.123C191.653 146.073 188.713 145.896 185.805 145.644Z" fill="#004B22"/>
<path d="M201.542 137.76C202.457 142.973 180.337 140.402 166.474 135.74C166.474 135.74 200.513 131.944 201.542 137.76Z" fill="#1DD6BF"/>
<path d="M166.48 135.744C166.48 135.744 188.046 138.229 201.548 137.764L166.48 135.744Z" fill="#1DD6BF"/>
<path d="M192.766 137.821C189.83 137.775 186.911 137.633 183.982 137.466C181.052 137.299 178.127 137.111 175.208 136.869C172.289 136.628 169.363 136.39 166.444 136.095L166.522 135.385C169.421 135.74 172.329 136.057 175.247 136.337C178.162 136.624 181.088 136.88 184 137.104C186.911 137.327 189.834 137.515 192.763 137.633C195.692 137.75 198.615 137.821 201.548 137.757C198.611 137.878 195.703 137.871 192.766 137.821Z" fill="#004B22"/>
<path d="M206.425 129.778C207.259 134.554 187.004 132.196 174.319 127.931C174.319 127.931 205.482 124.459 206.425 129.778Z" fill="#1DD6BF"/>
<path d="M174.311 127.935C174.311 127.935 194.061 130.193 206.417 129.781L174.311 127.935Z" fill="#1DD6BF"/>
<path d="M198.384 129.824C195.7 129.774 193.015 129.654 190.341 129.508C187.667 129.362 184.993 129.174 182.311 128.979C179.63 128.784 176.963 128.542 174.289 128.269L174.367 127.558C177.024 127.885 179.687 128.173 182.354 128.439C185.021 128.705 187.674 128.95 190.362 129.149C193.05 129.348 195.717 129.504 198.388 129.639C201.058 129.774 203.747 129.835 206.417 129.774C203.747 129.899 201.069 129.877 198.384 129.824Z" fill="#004B22"/>
<path d="M213 123.095C213.833 127.871 193.583 125.513 180.893 121.252C180.911 121.252 212.056 117.776 213 123.095Z" fill="#1DD6BF"/>
<path d="M180.889 121.256C180.889 121.256 200.636 123.51 212.992 123.102L180.889 121.256Z" fill="#1DD6BF"/>
<path d="M204.963 123.145C202.282 123.095 199.597 122.978 196.923 122.832C194.249 122.687 191.572 122.477 188.89 122.3C186.209 122.122 183.542 121.863 180.868 121.589L180.943 120.879C183.6 121.201 186.262 121.493 188.929 121.756C191.596 122.019 194.249 122.271 196.941 122.466C199.633 122.662 202.293 122.822 204.963 122.953C207.634 123.084 210.325 123.145 212.992 123.091C210.315 123.212 207.644 123.194 204.963 123.145Z" fill="#00ABE9"/>
<path d="M218.441 116.415C219.214 120.836 200.46 118.66 188.714 114.718C188.714 114.718 217.558 111.473 218.441 116.415Z" fill="#1DD6BF"/>
<path d="M188.713 114.718C188.713 114.718 207.009 116.81 218.457 116.43L188.713 114.718Z" fill="#1DD6BF"/>
<path d="M210.988 116.472C208.506 116.43 206.023 116.316 203.541 116.188C201.058 116.06 198.576 115.886 196.093 115.702C193.611 115.517 191.146 115.308 188.667 115.063L188.741 114.352C191.206 114.654 193.689 114.935 196.143 115.173C198.597 115.411 201.08 115.645 203.555 115.833C206.03 116.021 208.52 116.188 211.003 116.295C213.485 116.401 215.968 116.458 218.45 116.416C215.957 116.519 213.471 116.515 210.988 116.472Z" fill="#0093C9"/>
<path d="M226.914 110.642C227.556 115.08 208.873 112.321 197.24 108C197.226 108 226.201 105.681 226.914 110.642Z" fill="#1DD6BF"/>
<path d="M197.246 108.004C197.246 108.004 215.475 110.66 226.923 110.646L197.246 108.004Z" fill="#1DD6BF"/>
<path d="M219.468 110.459C216.986 110.334 214.503 110.142 212.021 109.944C209.538 109.745 207.055 109.496 204.594 109.233C202.133 108.971 199.657 108.679 197.186 108.356L197.288 107.646C199.74 108.027 202.197 108.382 204.658 108.711C207.119 109.031 209.588 109.344 212.052 109.606C214.517 109.869 216.989 110.118 219.468 110.316C221.947 110.515 224.433 110.622 226.916 110.672C224.426 110.668 221.951 110.593 219.468 110.459Z" fill="#008FD4"/>
<path d="M164.21 101.164C159.032 100.099 160.983 122.31 165.274 136.319C165.26 136.319 169.987 102.347 164.21 101.164Z" fill="#1DD6BF"/>
<path d="M165.261 136.319C165.261 136.319 163.388 114.658 164.197 101.164L165.261 136.319Z" fill="#1DD6BF"/>
<path d="M164.093 109.956C164.132 112.889 164.239 115.823 164.377 118.749C164.515 121.675 164.696 124.604 164.902 127.527C165.107 130.449 165.342 133.372 165.611 136.287L164.902 136.347C164.693 133.414 164.512 130.492 164.37 127.555C164.228 124.618 164.097 121.692 164.015 118.763C163.934 115.833 163.887 112.893 163.909 109.96C163.93 107.027 164.001 104.094 164.203 101.164C164.068 104.094 164.058 107.023 164.093 109.956Z" fill="#00D8E7"/>
<path d="M174.474 93.7673C169.416 92.2368 169.335 114.533 172.314 128.872C172.314 128.872 180.12 95.4753 174.474 93.7673Z" fill="#1DD6BF"/>
<path d="M172.315 128.872C172.315 128.872 172.425 107.133 174.475 93.7673L172.315 128.872Z" fill="#1DD6BF"/>
<path d="M173.58 102.531C173.36 105.461 173.193 108.38 173.062 111.309C172.931 114.239 172.839 117.169 172.782 120.098C172.725 123.028 172.686 125.964 172.693 128.894H171.984C172.027 125.947 172.119 123.01 172.239 120.08C172.36 117.151 172.502 114.214 172.697 111.288C172.892 108.362 173.112 105.443 173.406 102.514C173.701 99.5841 174.023 96.6723 174.488 93.7747C174.073 96.6687 173.818 99.6018 173.58 102.531Z" fill="#17BDFF"/>
<path d="M184.376 87.6986C179.442 85.8024 177.715 108.028 179.623 122.548C179.623 122.548 189.873 89.815 184.376 87.6986Z" fill="#1DD6BF"/>
<path d="M179.637 122.555C179.637 122.555 181.365 100.873 184.386 87.7092L179.637 122.555Z" fill="#1DD6BF"/>
<path d="M182.829 96.363C182.379 99.257 182.006 102.165 181.662 105.077C181.318 107.989 181.013 110.904 180.733 113.823C180.453 116.742 180.201 119.665 179.992 122.58L179.283 122.512C179.552 119.59 179.864 116.668 180.201 113.756C180.538 110.844 180.911 107.914 181.308 105.02C181.705 102.126 182.138 99.2251 182.641 96.3346C183.145 93.4441 183.705 90.5642 184.376 87.7092C183.769 90.5713 183.28 93.4689 182.829 96.363Z" fill="#17C3FF"/>
<path d="M196.066 81.9602C191.363 79.5314 187.242 101.437 187.576 116.085C187.576 116.085 201.304 84.6625 196.066 81.9602Z" fill="#1DD6BF"/>
<path d="M187.582 116.075C187.582 116.075 191.632 94.7154 196.072 81.946L187.582 116.075Z" fill="#1DD6BF"/>
<path d="M193.572 90.3738C192.816 93.2146 192.118 96.0554 191.472 98.8962C190.827 101.737 190.192 104.62 189.614 107.5C189.036 110.38 188.454 113.246 187.933 116.126L187.223 115.994C187.81 113.113 188.43 110.244 189.085 107.387C189.734 104.524 190.405 101.669 191.128 98.8251C191.852 95.9808 192.593 93.1436 193.405 90.3205C194.217 87.4975 195.079 84.6958 196.061 81.9331C195.136 84.7419 194.323 87.5401 193.572 90.3738Z" fill="#009EB9"/>
<path d="M209.229 75.2773C204.811 72.3726 198.406 93.7211 197.171 108.301C197.186 108.326 214.156 78.5229 209.229 75.2773Z" fill="#1DD6BF"/>
<path d="M197.186 108.326C197.186 108.326 203.466 87.5209 209.244 75.302L197.186 108.326Z" fill="#1DD6BF"/>
<path d="M205.85 83.4125C204.786 86.1468 203.818 88.9059 202.86 91.6792C201.902 94.4525 200.987 97.233 200.094 100.024C199.2 102.815 198.32 105.617 197.508 108.426L196.827 108.22C197.714 105.414 198.622 102.623 199.587 99.8571C200.551 97.0909 201.505 94.3318 202.534 91.5656C203.562 88.7994 204.591 86.0509 205.701 83.338C206.811 80.625 207.963 77.9263 209.247 75.2772C208.017 77.9511 206.899 80.6783 205.85 83.4125Z" fill="#0076B9"/>
<path d="M223.44 69.9934C219.475 66.8472 211.602 86.683 209.254 100.482C209.236 100.482 227.877 73.4805 223.44 69.9934Z" fill="#1DD6BF"/>
<path d="M209.244 100.471C209.244 100.471 216.943 81.1647 223.447 69.9756L209.244 100.471Z" fill="#1DD6BF"/>
<path d="M219.567 77.4348C218.34 79.956 217.174 82.5127 216.021 85.0694C214.868 87.6262 213.783 90.2113 212.701 92.7999C211.62 95.3886 210.574 97.9879 209.545 100.612L208.882 100.349C209.965 97.7453 211.074 95.1649 212.208 92.6082C213.347 90.0444 214.5 87.4806 215.698 84.9416C216.897 82.4026 218.099 79.8637 219.39 77.3744C220.681 74.8852 222.004 72.4031 223.433 69.9919C222.068 72.435 220.791 74.9207 219.567 77.4348Z" fill="#00A6E7"/>
<path d="M236.616 106.941C236.566 111.252 219.238 105.851 208.846 100.017C208.846 100.017 236.672 102.13 236.616 106.941Z" fill="#1DD6BF"/>
<path d="M208.85 100.021C208.85 100.021 225.749 105.262 236.623 106.945L208.85 100.021Z" fill="#1DD6BF"/>
<path d="M229.562 105.691C227.221 105.205 224.894 104.662 222.575 104.097C220.255 103.532 217.936 102.943 215.634 102.322C213.333 101.7 211.024 101.05 208.74 100.376L208.949 99.7009C211.219 100.429 213.492 101.139 215.787 101.8C218.082 102.46 220.38 103.124 222.681 103.742C224.983 104.36 227.292 104.967 229.615 105.517C231.938 106.068 234.275 106.583 236.623 106.963C234.246 106.59 231.899 106.196 229.562 105.691Z" fill="#00ACE7"/>
<path d="M238.826 64.3615C235.219 60.8105 225.25 79.6627 221.405 93.1423C221.405 93.1423 242.851 68.3209 238.826 64.3615Z" fill="#1DD6BF"/>
<path d="M221.405 93.1422C221.405 93.1422 231.151 74.7729 238.826 64.3615L221.405 93.1422Z" fill="#1DD6BF"/>
<path d="M234.172 71.3711C232.689 73.7432 231.271 76.1543 229.852 78.5796C228.434 81.0049 227.058 83.4409 225.71 85.9017C224.362 88.3626 223.029 90.8234 221.734 93.3126L221.103 92.9575C222.444 90.5026 223.823 88.0619 225.242 85.6354C226.66 83.2065 228.079 80.7883 229.537 78.395C230.994 76.0016 232.48 73.6118 234.027 71.2717C235.573 68.9316 237.155 66.6057 238.836 64.3615C237.19 66.6483 235.661 68.9955 234.172 71.3711Z" fill="#00A1D4"/>
<path d="M254.678 97.1834C255.164 102.226 234.257 98.1173 221.376 92.6346C221.383 92.6346 254.142 91.5587 254.678 97.1834Z" fill="#1DD6BF"/>
<path d="M221.369 92.6239C221.369 92.6239 241.762 96.6081 254.678 97.1727L221.369 92.6239Z" fill="#1DD6BF"/>
<path d="M246.273 96.5726C243.482 96.2992 240.701 95.9512 237.921 95.5854C235.14 95.2197 232.374 94.7935 229.601 94.3639C226.827 93.9342 224.064 93.469 221.302 92.9683L221.437 92.2759C224.179 92.8298 226.931 93.3507 229.693 93.8383C232.448 94.3319 235.208 94.8042 237.977 95.2268C240.747 95.6493 243.514 96.0612 246.301 96.3915C249.089 96.7217 251.873 97.0094 254.671 97.1727C251.876 97.0839 249.064 96.8496 246.273 96.5726Z" fill="#00A9DF"/>
<path d="M248.273 66.4495C246.646 68.5304 245.059 70.6409 243.51 72.7809C240.417 77.0634 237.403 81.4098 234.53 85.8379L234.399 85.568C237.148 85.8024 239.896 85.9409 242.645 86.0758L250.908 86.4309L267.445 87.0488L259.175 86.9103L250.908 86.6901C248.149 86.6156 245.397 86.5055 242.641 86.3847C239.885 86.264 237.13 86.1255 234.374 85.9089L234.08 85.8876L234.254 85.6461C235.701 83.4303 237.179 81.2382 238.69 79.0697C240.205 76.9001 241.726 74.7375 243.301 72.6176C244.875 70.4976 246.475 68.3848 248.149 66.3359C249.823 64.287 251.536 62.2771 253.334 60.3347C251.582 62.3126 249.901 64.3686 248.273 66.4495Z" fill="#00A1D4"/>
<path d="M271.258 60.0507C269.13 55.8747 254.841 69.4927 247.496 80.1989C247.511 80.1989 273.63 64.7131 271.258 60.0507Z" fill="#1DD6BF"/>
<path d="M265.115 64.848C263.104 66.4886 261.129 68.1753 259.168 69.8798C255.267 73.31 251.394 76.7864 247.624 80.3552L247.518 80.0498C249.968 80.2273 252.44 80.2913 254.909 80.309C257.377 80.3268 259.838 80.2806 262.314 80.206C264.789 80.1315 267.254 80.0178 269.719 79.8865C272.184 79.7551 274.648 79.6166 277.12 79.4355C274.638 79.6876 272.201 79.8935 269.733 80.0604C267.265 80.2273 264.803 80.3694 262.331 80.4724C259.859 80.5753 257.391 80.6357 254.916 80.6251C252.44 80.6144 249.968 80.5647 247.496 80.3942L247.085 80.3587L247.379 80.0818C249.271 78.3015 251.186 76.545 253.125 74.8121C255.061 73.0792 257.001 71.3499 258.983 69.6703C260.966 67.9907 262.945 66.3323 265.013 64.7167C267.08 63.101 269.141 61.5208 271.272 60.0507C269.155 61.5776 267.123 63.2075 265.115 64.848Z" fill="#0098B4"/>
<path d="M153.514 55.5445C153.078 51.958 168.703 51.6775 169.927 36.7243C170.033 36.0085 169.965 35.2775 169.728 34.5937C167.946 30.4095 165.635 26.4713 162.852 22.8755C158.872 31.5044 147.648 35.9644 146.07 32.6016C144.605 29.4945 155.088 27.5841 157.504 19.3138C157.684 18.6785 157.69 18.0063 157.522 17.3678C157.353 16.7292 157.016 16.1479 156.546 15.6847C155.432 14.5768 154.25 13.4701 152.999 12.3645C152.98 12.4479 152.949 12.528 152.907 12.6025C150.46 18.1811 146.261 20.9934 144.495 17.6804C142.729 14.3673 151.482 11.2886 146.729 7.24046C143.227 4.63092 139.585 2.21387 135.82 0C133.586 3.95935 130.883 7.49968 128.018 10.8838C124.613 14.8112 134.451 20.6703 134.277 23.717C134.054 27.5876 124.588 21.487 124.613 14.8112C121.521 18.2734 118.41 21.693 115.612 25.3221C114.005 27.4092 113.223 30.0159 113.413 32.6442C114.091 41.93 123.12 47.0364 121.503 49.8026C120.006 52.3735 108.913 43.3611 109.952 34.0682C108.702 36.4927 107.694 39.0344 106.941 41.6566C106.408 43.5083 106.034 45.4018 105.82 47.3169V47.2707C106.327 61.1835 129.582 62.121 129.49 66.4709C129.383 71.2399 112.218 67.9126 106.64 58.016C106.508 57.774 106.39 57.5251 106.285 57.2703C109.094 70.7179 120.992 80.1884 138.374 73.3101C154.737 83.2742 173.633 69.2549 172.842 48.1727C167.079 54.3798 154.024 59.8164 153.514 55.5445ZM163.756 35.659C165.292 37.0332 161.844 40.9109 159.855 39.2988C157.865 37.6866 162.196 34.2812 163.731 35.6555L163.756 35.659ZM151.765 41.2873C154.326 40.0693 156.436 38.4465 157.401 40.3108C159.071 43.5067 146.836 49.6002 145.307 45.6373C144.154 42.6687 149.073 42.5515 151.758 41.2873H151.765ZM129.341 55.1113C128.504 57.3165 122.957 55.2178 123.868 52.4445C124.78 49.6712 130.174 52.9026 129.334 55.1113H129.341ZM121.957 27.9498C123.507 26.3803 125.752 29.7892 127.787 32.5661C130.603 36.4047 136.349 39.0715 134.27 41.7667C131.508 45.3674 119.293 30.6592 121.964 27.9498H121.957ZM150.12 68.2429C150.389 70.5865 144.502 71.2825 144.034 68.4026C143.566 65.5228 149.85 65.8992 150.12 68.2429ZM151.627 68.1257C150.794 65.2494 156.021 65.64 159.298 63.9462C161.674 62.7211 164.387 61.1054 165.143 62.9164C166.444 66.0412 152.73 71.9607 151.623 68.1221L151.627 68.1257Z" fill="#15CCC7"/>
<path d="M129.926 145.139C146.608 145.139 160.131 128.766 160.131 108.568C160.131 88.3699 146.608 71.9962 129.926 71.9962C113.244 71.9962 99.7202 88.3699 99.7202 108.568C99.7202 128.766 113.244 145.139 129.926 145.139Z" fill="white"/>
<path d="M197.508 185.905C214.19 185.905 227.714 169.531 227.714 149.333C227.714 129.135 214.19 112.761 197.508 112.761C180.826 112.761 167.302 129.135 167.302 149.333C167.302 169.531 180.826 185.905 197.508 185.905Z" fill="white"/>
<path d="M81.2537 160.1H127.085C156.418 160.1 180.283 136.202 180.283 106.835C180.283 77.4683 156.418 53.5702 127.085 53.5702C97.752 53.5702 73.533 77.4648 73.533 106.835C73.533 120.872 79.4166 134.273 89.1766 144.202L81.2537 160.1ZM132.419 138.794H121.78V128.141H132.419V138.794ZM127.099 74.8761C131.861 74.8773 136.485 76.4777 140.231 79.4213C143.977 82.365 146.629 86.4817 147.762 91.1127C148.895 95.7438 148.444 100.622 146.481 104.965C144.518 109.309 141.156 112.869 136.934 115.073C134.139 116.54 132.401 119.668 132.401 122.822H121.762C121.762 115.425 125.684 108.941 131.997 105.638C133.671 104.765 135.082 103.462 136.087 101.863C137.092 100.264 137.654 98.4255 137.715 96.537C137.777 94.6485 137.336 92.7776 136.437 91.1162C135.538 89.4548 134.214 88.0627 132.6 87.0826C130.987 86.1025 129.142 85.5697 127.255 85.5389C125.368 85.508 123.507 85.9802 121.863 86.907C120.218 87.8338 118.85 89.1819 117.897 90.813C116.944 92.4442 116.442 94.2996 116.442 96.1891H105.803C105.805 90.538 108.048 85.1192 112.039 81.1229C116.03 77.1267 121.441 74.8799 127.085 74.8761H127.099Z" fill="#1C60DD"/>
<path d="M178.963 100.422C178.492 127.448 161.203 150.377 137.136 159.244C140.459 185.44 162.611 205.833 189.66 205.833H235.505L227.568 189.939C237.328 179.996 243.212 166.609 243.212 152.568C243.212 123.152 219.039 99.3033 189.66 99.3033C186.065 99.3029 182.48 99.6778 178.963 100.422ZM216.258 168.548H173.7V157.895H216.258V168.548ZM216.258 147.242H173.7V136.589H216.258V147.242Z" fill="#20263B"/>
<path d="M243.992 139.358C256.093 139.358 265.903 129.536 265.903 117.42C265.903 105.304 256.093 95.4824 243.992 95.4824C231.892 95.4824 222.082 105.304 222.082 117.42C222.082 129.536 231.892 139.358 243.992 139.358Z" fill="#9BADCC"/>
<path fill-rule="evenodd" clip-rule="evenodd" d="M232.353 105.255L252.717 110.052L257.16 112.943L243.169 132.519L232.353 105.255ZM234.2 106.576L251.617 110.812L244.748 117.687L234.2 106.576ZM234.2 107.9L242.91 129.6L244.159 118.628L234.2 107.9ZM252.415 111.075L255.458 112.964L246.212 117.42L252.415 111.075ZM255.628 113.823L243.978 129.856L245.297 119.011L255.628 113.823Z" fill="white"/>
<path d="M231.753 50.8857C238.714 50.8857 244.357 45.2354 244.357 38.2655C244.357 31.2955 238.714 25.6453 231.753 25.6453C224.792 25.6453 219.149 31.2955 219.149 38.2655C219.149 45.2354 224.792 50.8857 231.753 50.8857Z" fill="#20263B"/>
<path d="M237.477 38.7448C237.041 38.2227 236.436 37.8687 235.768 37.7435C236.737 37.2463 237.164 36.4047 237.048 35.2187C237.02 34.8219 236.898 34.4373 236.693 34.0966C236.496 33.78 236.221 33.5186 235.895 33.3367C235.548 33.1409 235.176 32.9929 234.789 32.8964C234.339 32.7865 233.881 32.7117 233.42 32.6726V30.2047H231.916V32.6052C231.657 32.6052 231.257 32.6052 230.717 32.6265V30.2047H229.21V32.6691C228.997 32.6691 228.682 32.6691 228.267 32.6691H226.192V34.2706H227.281C227.484 34.2433 227.69 34.298 227.853 34.4225C228.016 34.547 228.122 34.7312 228.15 34.9346V37.7364C228.202 37.7327 228.254 37.7327 228.306 37.7364H228.15V41.6708C228.147 41.7393 228.131 41.8065 228.102 41.8686C228.073 41.9307 228.032 41.9864 227.982 42.0326C227.932 42.0789 227.872 42.1146 227.808 42.1379C227.744 42.1611 227.675 42.1713 227.607 42.168H226.501L226.199 43.9612H229.214V46.4469H230.721V44.018H231.92V46.4718H233.423V43.9861C233.899 43.9679 234.373 43.9192 234.842 43.8405C235.249 43.7637 235.647 43.6447 236.03 43.4854C236.377 43.3514 236.697 43.158 236.977 42.9137C237.244 42.6692 237.459 42.3733 237.608 42.0437C237.783 41.6563 237.891 41.2421 237.928 40.8186C238.009 39.9309 237.85 39.2313 237.477 38.7448ZM230.739 34.3807H231.125H231.65C231.84 34.3783 232.029 34.3866 232.218 34.4055C232.419 34.4191 232.619 34.4452 232.817 34.4837C233.001 34.5219 233.182 34.5765 233.356 34.647C233.529 34.7056 233.688 34.7986 233.824 34.9204C233.948 35.0341 234.049 35.1703 234.122 35.3217C234.207 35.5 234.25 35.6957 234.246 35.8934C234.247 36.0631 234.217 36.2316 234.158 36.3905C234.102 36.5353 234.012 36.6644 233.895 36.7669C233.783 36.8637 233.665 36.9526 233.541 37.0333C233.392 37.1153 233.231 37.1751 233.065 37.2108C232.874 37.2605 232.711 37.296 232.562 37.3209C232.384 37.3492 232.206 37.367 232.026 37.3742L231.537 37.3955H230.742V34.3913L230.739 34.3807ZM234.839 41.0423C234.781 41.1878 234.701 41.3232 234.601 41.4436C234.492 41.5642 234.36 41.663 234.214 41.7348C234.066 41.8094 233.912 41.8723 233.753 41.923C233.576 41.9833 233.395 42.0296 233.211 42.0615C232.998 42.097 232.81 42.1254 232.657 42.1431C232.505 42.1609 232.303 42.1715 232.083 42.1822C231.863 42.1928 231.682 42.1822 231.565 42.1822H230.739V38.862H231.203C231.459 38.862 231.668 38.862 231.835 38.862C232.001 38.862 232.221 38.862 232.508 38.894C232.746 38.9089 232.983 38.9373 233.218 38.9792C233.434 39.0254 233.648 39.0859 233.856 39.1603C234.059 39.2289 234.249 39.3296 234.42 39.4586C234.565 39.5859 234.685 39.7387 234.775 39.9096C234.862 40.083 234.912 40.2728 234.921 40.4667C234.93 40.6607 234.898 40.8543 234.828 41.0352L234.839 41.0423Z" fill="white"/>
<path d="M42.4163 61.6132L42.849 63.9285C42.2437 64.0729 41.6101 64.2078 40.9481 64.3333C40.2388 64.4647 39.5295 64.5747 38.8734 64.6635L38.5187 62.8135L38.4336 62.3625C34.8126 63.2183 32.2272 64.3546 32.3691 65.1038C32.5322 65.988 36.4369 66.0022 41.0864 65.1322C45.7359 64.2623 49.3746 62.8419 49.2114 61.9364C49.0802 61.1942 46.1792 61.0983 42.4163 61.6132Z" fill="#9BADCC"/>
<path d="M37.9547 48.2863C34.9065 48.8722 32.0999 50.349 29.8891 52.5304C27.6782 54.7117 26.1623 57.4999 25.5324 60.543C24.9026 63.5862 25.1871 66.7479 26.3501 69.6293C27.5131 72.5107 29.5024 74.9826 32.0671 76.7332C34.6317 78.4837 37.6568 79.4344 40.7605 79.4652C43.8642 79.4961 46.9075 78.6058 49.5064 76.9067C52.1053 75.2075 54.1433 72.7757 55.3632 69.918C56.5831 67.0603 56.9304 63.9048 56.361 60.8497C55.9809 58.8124 55.2025 56.8704 54.0706 55.1352C52.9387 53.4 51.4756 51.9058 49.7653 50.7384C48.0549 49.571 46.1311 48.7534 44.1043 48.3326C42.0775 47.9118 39.9876 47.8961 37.9547 48.2863ZM43.239 66.02L44.5086 72.8414L40.5365 73.5942L39.2492 66.7515C34.9473 67.3019 31.5816 66.9113 31.3617 65.7324C31.1419 64.5534 34.1422 62.9732 38.3483 61.9328L37.9866 60.033L32.5746 61.045L31.837 57.0857L46.633 54.3195L47.4061 58.2575L41.9942 59.2696L42.3488 61.1729C46.7252 60.5905 50.1724 60.9776 50.3958 62.1707C50.6192 63.3638 47.5267 64.9795 43.239 66.02Z" fill="#9BADCC"/>
<path d="M95.1102 201.362C91.0565 201.941 96.4189 214.856 105.615 218.808C88.8754 219.753 77.0549 210.169 78.9878 193.692C67.9014 181.892 72.4906 164.549 87.2334 155.107C81.8746 161.854 80.2432 180.674 83.9174 180.319C87.5916 179.964 86.5738 155.966 96.9686 150.583C102.877 148.712 109.736 147.916 117.315 148.644C110.576 157.167 104.25 169.979 109.513 171.463C114.776 172.947 118.631 150.842 131.856 151.716C138.334 153.847 144.556 156.688 150.411 160.189C144.832 163.21 140.683 168.32 144.584 169.119C148.404 169.908 153.213 161.786 159.575 166.151C159.72 166.254 159.869 166.357 160.015 166.474C162.866 168.526 165.754 170.788 168.679 173.26C164.177 176.111 159.988 179.43 156.181 183.16C147.024 188.628 140.796 179.201 137.739 182.961C134.547 186.885 148.822 190.301 149.28 190.418C146.318 193.756 143.545 197.08 140.697 200.226C133.703 205.531 121.638 189.79 118.294 192.005C113.548 195.155 128.625 206.841 135.147 205.907C130.242 210.467 124.723 214.252 117.503 216.539C103.026 213.553 101.427 200.45 95.1102 201.362Z" fill="#15CCC7"/>
<path opacity="0.46" d="M94.8016 207.577C93.383 204.31 93.3049 201.611 95.1101 201.352C95.8783 201.234 96.6641 201.341 97.3728 201.661C99.7725 194.71 100.343 187.258 99.0282 180.023C97.7137 172.788 94.559 166.014 89.8684 160.355C86.7404 169.13 86.3999 180.078 83.9209 180.308C80.4772 180.639 81.6937 164.162 86.2651 156.517L85.7899 156.073C72.2068 165.696 68.2772 182.279 78.9912 193.681C77.7854 203.979 81.9455 211.578 89.3187 215.605C91.446 213.147 93.2856 210.453 94.8016 207.577Z" fill="#1E273C"/>
<path d="M64.1953 201.671C70.6145 197.329 77.4068 193.568 84.492 190.432C91.5389 187.287 98.7748 184.584 106.158 182.34C113.522 180.084 121.003 178.229 128.568 176.782C136.119 175.309 143.76 174.343 151.439 173.892C143.783 174.521 136.177 175.664 128.674 177.315C121.172 178.923 113.764 180.938 106.48 183.352C99.2055 185.746 92.0869 188.593 85.1658 191.874C78.2558 195.123 71.6486 198.981 65.4224 203.404L64.1953 201.671Z" fill="#006BA2"/>
<path d="M64.3689 219C82.5024 219 97.2025 204.281 97.2025 186.125C97.2025 167.969 82.5024 153.25 64.3689 153.25C46.2355 153.25 31.5354 167.969 31.5354 186.125C31.5354 204.281 46.2355 219 64.3689 219Z" fill="#20263B"/>
<path d="M62.1035 193.344L62.334 163.576L47.9919 187.95L62.1035 193.344Z" fill="white"/>
<path d="M64.6457 196.121L64.5464 207.676L79.0232 190.88L64.6457 196.121Z" fill="white"/>
<path d="M64.9009 163.598L64.6704 193.362L78.8564 188.192L64.9009 163.598Z" fill="white"/>
<path d="M62.0638 196.096L47.7607 190.631L61.9751 207.654L62.0638 196.096Z" fill="white"/>
</g>
<defs>
<clipPath id="clip0">
<rect width="342" height="219" fill="white"/>
</clipPath>
</defs>
</svg>
