<svg width="53" height="53" viewBox="0 0 53 53" fill="none" xmlns="http://www.w3.org/2000/svg">
<g clip-path="url(#clip0_2915_2513)">
<g clip-path="url(#clip1_2915_2513)">
<path d="M26.3369 52.6758C40.8829 52.6758 52.6748 40.8839 52.6748 26.3379C52.6748 11.7919 40.8829 0 26.3369 0C11.7909 0 -0.000976562 11.7919 -0.000976562 26.3379C-0.000976562 40.8839 11.7909 52.6758 26.3369 52.6758Z" fill="white"/>
<path d="M13.425 29.7985C13.425 30.0429 13.4096 30.2537 13.428 30.4621C13.4668 30.9028 13.8146 31.1817 14.3139 31.182C16.2553 31.1835 18.1964 31.1835 20.1372 31.182H29.8812C30.2369 31.182 30.4271 31.2998 30.4803 31.5521C30.5453 31.8582 30.3155 32.1032 29.9495 32.1033C28.7099 32.1059 27.4704 32.1062 26.2309 32.1042H25.8964V35.7957H26.2044C27.4537 35.7957 28.7029 35.787 29.9519 35.8062C30.0422 35.8148 30.1299 35.8413 30.2099 35.8842C30.2899 35.9271 30.3605 35.9855 30.4177 36.056C30.451 36.1256 30.4666 36.2024 30.4632 36.2795C30.4599 36.3566 30.4376 36.4317 30.3984 36.4981C30.3444 36.5609 30.2781 36.612 30.2036 36.6483C30.1291 36.6846 30.048 36.7053 29.9653 36.7091C26.1696 36.7207 22.3737 36.7234 18.5777 36.7175C18.239 36.7175 18.0331 36.5356 18.0335 36.2561C18.0338 35.9766 18.2416 35.7953 18.5788 35.7953C19.7797 35.7939 20.981 35.7939 22.1825 35.7953H22.6284V32.1061H22.1386L14.3258 32.1044C13.2291 32.1044 12.4966 31.3761 12.4963 30.2846C12.4963 26.1045 12.4963 21.9243 12.4963 17.7441C12.4877 17.508 12.5277 17.2726 12.6139 17.0525C12.7001 16.8325 12.8306 16.6325 12.9973 16.465C13.164 16.2975 13.3633 16.1661 13.5829 16.0788C13.8026 15.9916 14.0378 15.9504 14.274 15.9579C20.9143 15.9579 27.5546 15.9579 34.195 15.9579C35.2931 15.9579 36.0225 16.6833 36.025 17.7766C36.0265 18.3724 36.0277 18.9685 36.0231 19.5639C36.0212 19.9042 35.8446 20.108 35.5627 20.1084C35.2807 20.1087 35.1039 19.9037 35.1021 19.5639C35.0994 18.968 35.1028 18.3722 35.1004 17.7766C35.0985 17.2034 34.7805 16.8805 34.2107 16.8805C27.5807 16.8805 20.9503 16.8809 14.3196 16.8817C13.7517 16.8817 13.4218 17.1932 13.4213 17.737C13.419 21.3887 13.4185 25.0402 13.4198 28.6917C13.4198 28.739 13.4246 28.7862 13.4283 28.8607C13.5242 28.8658 13.6163 28.874 13.7084 28.874C19.0898 28.8747 24.4714 28.8762 29.853 28.8785C30.0043 28.8729 30.1547 28.9048 30.2907 28.9713C30.3762 29.0191 30.4412 29.0967 30.4732 29.1893C30.5052 29.2818 30.5021 29.383 30.4644 29.4734C30.4368 29.572 30.376 29.658 30.2923 29.717C30.2085 29.776 30.1071 29.8044 30.0049 29.7972C29.2548 29.7972 28.5063 29.7972 27.7554 29.7972C23.0661 29.7972 18.3767 29.7972 13.6873 29.7972C13.6133 29.7985 13.5375 29.7985 13.425 29.7985ZM23.592 32.1157V35.7813H24.9359V32.1157H23.592Z" fill="black"/>
<path d="M40.1772 28.9043C40.1778 31.0181 40.1778 33.1323 40.1772 35.247C40.1763 36.1315 39.5975 36.7163 38.7215 36.7172C36.7699 36.7194 34.819 36.7194 32.8686 36.7172C32.0034 36.7155 31.4138 36.1329 31.4138 35.2751C31.4117 31.0088 31.4117 26.742 31.4138 22.4745C31.4043 22.284 31.4345 22.0936 31.5026 21.9154C31.5707 21.7372 31.6752 21.5752 31.8094 21.4397C31.9436 21.3041 32.1046 21.198 32.2821 21.1281C32.4596 21.0583 32.6497 21.0261 32.8403 21.0338C34.8108 21.0304 36.7809 21.0304 38.7507 21.0338C39.5896 21.0353 40.1758 21.629 40.1771 22.4751C40.179 24.618 40.1791 26.761 40.1772 28.9043ZM39.2356 33.4734V23.8223H32.3491V33.4734H39.2356ZM32.335 34.4217C32.335 34.7349 32.329 35.0219 32.3369 35.3078C32.3326 35.373 32.3423 35.4384 32.3654 35.4995C32.3886 35.5607 32.4245 35.6161 32.4709 35.6622C32.5173 35.7082 32.5731 35.7438 32.6344 35.7664C32.6957 35.789 32.7612 35.7982 32.8264 35.7934C33.104 35.8005 33.3832 35.7951 33.6616 35.7951C35.332 35.7951 37.0024 35.7951 38.6728 35.7951C39.0178 35.7951 39.2251 35.6671 39.2438 35.3996C39.2676 35.0782 39.2492 34.7544 39.2492 34.4217H32.335ZM39.2549 22.8681C39.2549 22.7724 39.2549 22.7062 39.2549 22.6399C39.2594 22.0885 39.1297 21.9558 38.5868 21.9553H37.2905C35.8218 21.9553 34.3531 21.9557 32.8842 21.9564C32.5299 21.9564 32.3503 22.1185 32.3358 22.4417C32.3304 22.5809 32.3349 22.7212 32.3349 22.8684L39.2549 22.8681Z" fill="black"/>
<path d="M30.028 22.8971C30.0246 23.9005 29.7238 24.8804 29.1636 25.7129C28.6034 26.5454 27.809 27.1932 26.8808 27.5744C25.9526 27.9556 24.9322 28.053 23.9486 27.8544C22.965 27.6558 22.0623 27.1701 21.3547 26.4587C20.6471 25.7472 20.1663 24.842 19.973 23.8573C19.7797 22.8727 19.8826 21.8528 20.2688 20.9267C20.655 20.0005 21.307 19.2096 22.1425 18.6539C22.9781 18.0982 23.9596 17.8027 24.963 17.8047C26.3088 17.8121 27.5969 18.3519 28.546 19.306C29.4951 20.2602 30.0279 21.5513 30.028 22.8971ZM29.1043 22.8816C29.1045 22.0623 28.8623 21.2614 28.4081 20.5795C27.954 19.8976 27.3082 19.3654 26.5522 19.0498C25.7962 18.7342 24.9637 18.6493 24.1595 18.8059C23.3554 18.9625 22.6155 19.3535 22.0331 19.9297C21.4508 20.5059 21.0519 21.2416 20.8868 22.044C20.7216 22.8465 20.7976 23.6798 21.1052 24.4392C21.4127 25.1985 21.9381 25.8499 22.6151 26.3112C23.2921 26.7726 24.0904 27.0234 24.9096 27.0319C25.4581 27.0364 26.0019 26.9325 26.51 26.726C27.0181 26.5196 27.4804 26.2147 27.8702 25.829C28.26 25.4432 28.5697 24.9842 28.7816 24.4783C28.9934 23.9725 29.1031 23.4297 29.1043 22.8813V22.8816Z" fill="black"/>
<path d="M35.7938 31.6458C35.1998 31.6456 34.6192 31.469 34.1256 31.1384C33.6321 30.8078 33.2479 30.338 33.0217 29.7887C32.7956 29.2394 32.7376 28.6353 32.8553 28.053C32.973 27.4707 33.261 26.9365 33.6828 26.5182C34.1045 26.0998 34.641 25.8162 35.2242 25.7032C35.8074 25.5902 36.4111 25.653 36.9585 25.8836C37.506 26.1142 37.9727 26.5022 38.2993 26.9984C38.6259 27.4945 38.7978 28.0766 38.7931 28.6706C38.7867 29.4619 38.4679 30.2185 37.9061 30.7758C37.3444 31.3331 36.5851 31.6457 35.7938 31.6458ZM37.8709 28.6584C37.8731 28.2477 37.7534 27.8455 37.527 27.5029C37.3005 27.1602 36.9775 26.8924 36.5988 26.7335C36.2202 26.5745 35.8028 26.5314 35.3996 26.6097C34.9964 26.6881 34.6256 26.8843 34.3339 27.1735C34.0423 27.4627 33.8431 27.8319 33.7614 28.2344C33.6797 28.637 33.7193 29.0547 33.8752 29.4347C34.031 29.8146 34.2961 30.1399 34.6369 30.3691C34.9777 30.5984 35.3788 30.7214 35.7895 30.7226C36.3388 30.7235 36.8662 30.5069 37.2562 30.1201C37.6463 29.7332 37.8673 29.2077 37.8709 28.6584Z" fill="black"/>
<path d="M24.0283 24.5242C25.097 23.4579 26.1371 22.4207 27.1776 21.3829C27.2385 21.322 27.2976 21.2592 27.3613 21.2002C27.5905 20.9893 27.8621 20.98 28.0527 21.1753C28.2432 21.3707 28.2272 21.6336 28.0088 21.865C27.883 21.9979 27.7511 22.1242 27.6221 22.2531C26.5834 23.2922 25.5442 24.3311 24.5047 25.3697C24.1215 25.753 23.9431 25.7548 23.5677 25.3801C23.0238 24.837 22.4806 24.2936 21.9381 23.7498C21.682 23.4921 21.6554 23.2239 21.8575 23.0183C22.0597 22.8128 22.3331 22.8344 22.5887 23.0875C23.0644 23.5601 23.538 24.0348 24.0283 24.5242Z" fill="black"/>
<path d="M35.4176 28.708C35.8097 28.3561 36.1945 28.0095 36.5808 27.6646C36.8449 27.4289 37.1263 27.4196 37.3143 27.6361C37.4949 27.8455 37.4556 28.1156 37.206 28.3429C36.7356 28.768 36.2639 29.1917 35.7908 29.6141C35.5065 29.8673 35.3203 29.8673 35.0329 29.618C34.8164 29.4292 34.5999 29.2371 34.3895 29.0402C34.1599 28.8237 34.1379 28.5541 34.3246 28.3522C34.5049 28.1577 34.7593 28.153 34.9946 28.3439C35.0687 28.404 35.1372 28.4729 35.2099 28.5357C35.2742 28.592 35.3412 28.645 35.4176 28.708Z" fill="black"/>
</g>
</g>
<defs>
<clipPath id="clip0_2915_2513">
<rect width="52.6758" height="52.6758" fill="white"/>
</clipPath>
<clipPath id="clip1_2915_2513">
<rect width="52.6758" height="52.6758" fill="white"/>
</clipPath>
</defs>
</svg>
