<svg width="1512" height="947" viewBox="0 0 1512 947" fill="none" xmlns="http://www.w3.org/2000/svg">
<mask id="mask0_4_7" style="mask-type:alpha" maskUnits="userSpaceOnUse" x="-3" y="0" width="1517" height="947">
<path d="M1514 0L-3 352V946.5L1514 566V0Z" fill="#D9D9D9"/>
</mask>
<g mask="url(#mask0_4_7)">
<mask id="mask1_4_7" style="mask-type:luminance" maskUnits="userSpaceOnUse" x="-86" y="0" width="1680" height="945">
<path d="M1594 0H-86V945H1594V0Z" fill="white"/>
</mask>
<g mask="url(#mask1_4_7)">
<path d="M1594 0H-86V945H1594V0Z" fill="url(#paint0_linear_4_7)"/>
<path opacity="0.33" d="M257.368 384.202L-49.1697 77.6644C-67.8578 58.9763 -98.1571 58.9763 -116.845 77.6644C-135.533 96.3524 -135.533 126.652 -116.845 145.34L189.693 451.878C208.381 470.566 238.68 470.566 257.368 451.878C276.056 433.19 276.056 402.89 257.368 384.202Z" fill="#0054B8"/>
<path d="M1647.25 -120.141L1647.24 -120.147C1634.3 -133.084 1613.33 -133.084 1600.39 -120.147L1279.63 200.609C1266.7 213.546 1266.7 234.521 1279.63 247.458L1279.64 247.465C1292.58 260.402 1313.55 260.402 1326.49 247.465L1647.25 -73.2913C1660.18 -86.2284 1660.18 -107.204 1647.25 -120.141Z" fill="#6ECAFE"/>
<path d="M443.5 -108C271.466 -108 132 31.4662 132 203.5C132 375.534 271.466 515 443.5 515C615.534 515 755 375.534 755 203.5C755 31.4662 615.534 -108 443.5 -108ZM443.5 413.5C327.519 413.5 233.5 319.481 233.5 203.5C233.5 87.5188 327.519 -6.5 443.5 -6.5C559.481 -6.5 653.5 87.5188 653.5 203.5C653.5 319.481 559.481 413.5 443.5 413.5Z" fill="url(#paint1_linear_4_7)"/>
<path opacity="0.73" d="M1418.52 570.907L1111.98 264.369C1093.29 245.681 1062.99 245.681 1044.3 264.369C1025.62 283.057 1025.62 313.357 1044.3 332.045L1350.84 638.583C1369.53 657.271 1399.83 657.271 1418.52 638.583C1437.2 619.895 1437.2 589.595 1418.52 570.907Z" fill="#0054B8"/>
<path opacity="0.33" d="M484.01 793.059L177.472 486.521C158.784 467.833 128.485 467.833 109.797 486.521C91.1086 505.209 91.1086 535.508 109.797 554.196L416.334 860.734C435.023 879.422 465.322 879.422 484.01 860.734C502.698 842.046 502.698 811.747 484.01 793.059Z" fill="#0054B8"/>
<path d="M1459 587.641H1174.46V303.109H1459V587.641ZM1176.74 585.375H1456.74V305.375H1176.74V585.375Z" fill="url(#paint2_linear_4_7)"/>
<path d="M296.909 1188.42L64.8673 956.375L296.909 724.334L528.95 956.375L296.909 1188.42ZM68.5773 956.375L296.952 1184.75L525.284 956.375L296.952 728L68.5773 956.375Z" fill="#0054B8"/>
<path d="M296.909 1120.34L132.951 956.375L296.909 792.409L460.875 956.375L296.909 1120.34ZM135.567 956.375L296.909 1117.72L458.25 956.375L296.909 795.034L135.567 956.375Z" fill="#0054B8"/>
<path d="M1202.62 133.875L970.58 -98.1663L1202.62 -330.208L1434.66 -98.1663L1202.62 133.875ZM974.246 -98.1663L1202.62 130.209L1431 -98.1225L1202.62 -326.454L974.246 -98.1663Z" fill="#0054B8"/>
<path d="M284.125 607.04H64.8673V387.782H284.125V607.04ZM66.6261 605.29H282.375V389.541H66.6261V605.29Z" fill="#0054B8"/>
<path d="M1383.76 874.531C1379.22 874.537 1374.73 873.645 1370.53 871.908C1366.34 870.17 1362.53 867.621 1359.32 864.407L890.323 395.407L598.826 686.975C592.328 693.38 583.562 696.956 574.438 696.923C565.315 696.89 556.574 693.252 550.123 686.8C543.672 680.349 540.033 671.608 540 662.485C539.967 653.361 543.543 644.595 549.948 638.097L865.92 322.126C869.128 318.916 872.938 316.369 877.132 314.632C881.325 312.894 885.819 312 890.358 312C894.897 312 899.392 312.894 903.585 314.632C907.778 316.369 911.588 318.916 914.797 322.126L1408.2 815.53C1413.03 820.363 1416.33 826.522 1417.66 833.226C1418.99 839.93 1418.31 846.88 1415.69 853.195C1413.08 859.51 1408.65 864.908 1402.96 868.706C1397.28 872.504 1390.6 874.531 1383.76 874.531Z" fill="#0054B8"/>
<path d="M307.405 612.842C322.574 597.673 322.575 573.082 307.409 557.915C292.242 542.748 267.65 542.75 252.482 557.918L-166.892 977.292C-182.06 992.46 -182.061 1017.05 -166.895 1032.22C-151.728 1047.39 -127.137 1047.38 -111.968 1032.22L307.405 612.842Z" fill="#0054B8"/>
<path d="M1083.27 778.759L1066.32 808.106H1100.21L1083.27 778.759Z" fill="#6ECAFE"/>
<path d="M372.815 457.835L355.875 487.174H389.755L372.815 457.835Z" fill="url(#paint3_linear_4_7)"/>
<path d="M1281.63 827.864L1264.69 857.203H1298.57L1281.63 827.864Z" fill="url(#paint4_linear_4_7)"/>
<path d="M355.875 468.072L338.935 497.411H372.815L355.875 468.072Z" stroke="url(#paint5_linear_4_7)" stroke-width="4" stroke-miterlimit="10"/>
<path d="M1100.21 787.22L1083.27 816.567H1117.15L1100.21 787.22Z" stroke="#6ECAFE" stroke-width="2" stroke-miterlimit="10"/>
<path d="M261.777 307.816C273.148 307.816 282.366 298.598 282.366 287.227C282.366 275.857 273.148 266.639 261.777 266.639C250.407 266.639 241.189 275.857 241.189 287.227C241.189 298.598 250.407 307.816 261.777 307.816Z" stroke="#6ECAFE" stroke-width="7" stroke-miterlimit="10"/>
<path d="M38.6965 714.814C46.989 714.814 53.7115 708.091 53.7115 699.799C53.7115 691.506 46.989 684.784 38.6965 684.784C30.4039 684.784 23.6815 691.506 23.6815 699.799C23.6815 708.091 30.4039 714.814 38.6965 714.814Z" stroke="#6ECAFE" stroke-width="4" stroke-miterlimit="10"/>
<path d="M1494.47 445.375C1498.94 445.375 1502.56 441.751 1502.56 437.281C1502.56 432.811 1498.94 429.188 1494.47 429.188C1490 429.188 1486.38 432.811 1486.38 437.281C1486.38 441.751 1490 445.375 1494.47 445.375Z" fill="url(#paint6_linear_4_7)"/>
<path d="M330.001 832.755C333.109 832.755 335.628 830.236 335.628 827.129C335.628 824.021 333.109 821.502 330.001 821.502C326.894 821.502 324.375 824.021 324.375 827.129C324.375 830.236 326.894 832.755 330.001 832.755Z" fill="url(#paint7_linear_4_7)"/>
<path d="M372.815 376.084C375.922 376.084 378.441 373.565 378.441 370.458C378.441 367.35 375.922 364.831 372.815 364.831C369.708 364.831 367.189 367.35 367.189 370.458C367.189 373.565 369.708 376.084 372.815 376.084Z" fill="#6ECAFE"/>
<path d="M18.0637 783.755C21.171 783.755 23.69 781.236 23.69 778.129C23.69 775.021 21.171 772.502 18.0637 772.502C14.9565 772.502 12.4375 775.021 12.4375 778.129C12.4375 781.236 14.9565 783.755 18.0637 783.755Z" fill="url(#paint8_linear_4_7)"/>
<path d="M978.91 888.764C982.017 888.764 984.536 886.245 984.536 883.138C984.536 880.03 982.017 877.511 978.91 877.511C975.803 877.511 973.284 880.03 973.284 883.138C973.284 886.245 975.803 888.764 978.91 888.764Z" fill="url(#paint9_linear_4_7)"/>
<path d="M1456.72 246.575C1459.83 246.575 1462.35 244.056 1462.35 240.949C1462.35 237.841 1459.83 235.323 1456.72 235.323C1453.61 235.323 1451.1 237.841 1451.1 240.949C1451.1 244.056 1453.61 246.575 1456.72 246.575Z" fill="url(#paint10_linear_4_7)"/>
<path d="M395.381 673.627C398.489 673.627 401.008 671.109 401.008 668.001C401.008 664.894 398.489 662.375 395.381 662.375C392.274 662.375 389.755 664.894 389.755 668.001C389.755 671.109 392.274 673.627 395.381 673.627Z" fill="url(#paint11_linear_4_7)"/>
<path d="M1270.31 590.992C1273.42 590.992 1275.94 588.473 1275.94 585.366C1275.94 582.259 1273.42 579.74 1270.31 579.74C1267.2 579.74 1264.69 582.259 1264.69 585.366C1264.69 588.473 1267.2 590.992 1270.31 590.992Z" fill="url(#paint12_linear_4_7)"/>
<path d="M1338.57 100.091C1341.68 100.091 1344.2 97.5724 1344.2 94.4651C1344.2 91.3578 1341.68 88.8389 1338.57 88.8389C1335.46 88.8389 1332.94 91.3578 1332.94 94.4651C1332.94 97.5724 1335.46 100.091 1338.57 100.091Z" fill="url(#paint13_linear_4_7)"/>
<path d="M75.884 94.4649C78.9913 94.4649 81.5102 91.9459 81.5102 88.8386C81.5102 85.7314 78.9913 83.2124 75.884 83.2124C72.7767 83.2124 70.2577 85.7314 70.2577 88.8386C70.2577 91.9459 72.7767 94.4649 75.884 94.4649Z" fill="url(#paint14_linear_4_7)"/>
<path d="M20.9686 198.607C25.4387 198.607 29.0624 194.984 29.0624 190.514C29.0624 186.044 25.4387 182.42 20.9686 182.42C16.4986 182.42 12.8749 186.044 12.8749 190.514C12.8749 194.984 16.4986 198.607 20.9686 198.607Z" fill="url(#paint15_linear_4_7)"/>
<path d="M1029.07 459.576C1033.54 459.576 1037.17 455.952 1037.17 451.482C1037.17 447.012 1033.54 443.389 1029.07 443.389C1024.6 443.389 1020.98 447.012 1020.98 451.482C1020.98 455.952 1024.6 459.576 1029.07 459.576Z" fill="#6ECAFE"/>
<mask id="mask2_4_7" style="mask-type:luminance" maskUnits="userSpaceOnUse" x="1373" y="-57" width="548" height="515">
<path d="M1920.91 301.779L1373 -56.665L1480.55 457.826L1920.91 301.779Z" fill="white"/>
</mask>
<g mask="url(#mask2_4_7)">
<path d="M1909.53 -164.325L1107.87 3.24629" stroke="url(#paint16_linear_4_7)" stroke-width="2" stroke-miterlimit="10"/>
<path d="M1912.26 -151.244L1110.61 16.3276" stroke="url(#paint17_linear_4_7)" stroke-width="2" stroke-miterlimit="10"/>
<path d="M1915 -138.154L1113.34 29.4174" stroke="url(#paint18_linear_4_7)" stroke-width="2" stroke-miterlimit="10"/>
<path d="M1917.74 -125.064L1116.08 42.4988" stroke="url(#paint19_linear_4_7)" stroke-width="2" stroke-miterlimit="10"/>
<path d="M1920.47 -111.982L1118.81 55.5888" stroke="url(#paint20_linear_4_7)" stroke-width="2" stroke-miterlimit="10"/>
<path d="M1923.21 -98.8923L1121.54 68.6789" stroke="url(#paint21_linear_4_7)" stroke-width="2" stroke-miterlimit="10"/>
<path d="M1925.95 -85.8113L1124.28 81.76" stroke="url(#paint22_linear_4_7)" stroke-width="2" stroke-miterlimit="10"/>
<path d="M1928.68 -72.7212L1127.02 94.8501" stroke="url(#paint23_linear_4_7)" stroke-width="2" stroke-miterlimit="10"/>
<path d="M1931.42 -59.6311L1129.75 107.94" stroke="url(#paint24_linear_4_7)" stroke-width="2" stroke-miterlimit="10"/>
<path d="M1934.15 -46.55L1132.49 121.021" stroke="url(#paint25_linear_4_7)" stroke-width="2" stroke-miterlimit="10"/>
<path d="M1936.89 -33.46L1135.23 134.111" stroke="url(#paint26_linear_4_7)" stroke-width="2" stroke-miterlimit="10"/>
<path d="M1939.63 -20.3699L1137.96 147.201" stroke="url(#paint27_linear_4_7)" stroke-width="2" stroke-miterlimit="10"/>
<path d="M1942.36 -7.28882L1140.7 160.282" stroke="url(#paint28_linear_4_7)" stroke-width="2" stroke-miterlimit="10"/>
<path d="M1945.09 5.80127L1143.43 173.373" stroke="url(#paint29_linear_4_7)" stroke-width="2" stroke-miterlimit="10"/>
<path d="M1947.83 18.8826L1146.17 186.454" stroke="url(#paint30_linear_4_7)" stroke-width="2" stroke-miterlimit="10"/>
<path d="M1950.56 31.9727L1148.91 199.544" stroke="url(#paint31_linear_4_7)" stroke-width="2" stroke-miterlimit="10"/>
<path d="M1953.3 45.0625L1151.64 212.634" stroke="url(#paint32_linear_4_7)" stroke-width="2" stroke-miterlimit="10"/>
<path d="M1956.03 58.1438L1154.37 225.715" stroke="url(#paint33_linear_4_7)" stroke-width="2" stroke-miterlimit="10"/>
<path d="M1958.77 71.2339L1157.11 238.805" stroke="url(#paint34_linear_4_7)" stroke-width="2" stroke-miterlimit="10"/>
<path d="M1961.51 84.3237L1159.84 251.895" stroke="url(#paint35_linear_4_7)" stroke-width="2" stroke-miterlimit="10"/>
<path d="M1964.24 97.405L1162.58 264.976" stroke="url(#paint36_linear_4_7)" stroke-width="2" stroke-miterlimit="10"/>
<path d="M1966.98 110.495L1165.31 278.066" stroke="url(#paint37_linear_4_7)" stroke-width="2" stroke-miterlimit="10"/>
<path d="M1969.72 123.576L1168.05 291.147" stroke="url(#paint38_linear_4_7)" stroke-width="2" stroke-miterlimit="10"/>
<path d="M1972.45 136.666L1170.79 304.238" stroke="url(#paint39_linear_4_7)" stroke-width="2" stroke-miterlimit="10"/>
<path d="M1975.18 149.756L1173.52 317.328" stroke="url(#paint40_linear_4_7)" stroke-width="2" stroke-miterlimit="10"/>
<path d="M1977.92 162.837L1176.26 330.409" stroke="url(#paint41_linear_4_7)" stroke-width="2" stroke-miterlimit="10"/>
<path d="M1980.65 175.927L1179 343.499" stroke="url(#paint42_linear_4_7)" stroke-width="2" stroke-miterlimit="10"/>
<path d="M1983.39 189.018L1181.73 356.589" stroke="url(#paint43_linear_4_7)" stroke-width="2" stroke-miterlimit="10"/>
<path d="M1986.12 202.099L1184.47 369.67" stroke="url(#paint44_linear_4_7)" stroke-width="2" stroke-miterlimit="10"/>
<path d="M1988.86 215.189L1187.2 382.76" stroke="url(#paint45_linear_4_7)" stroke-width="2" stroke-miterlimit="10"/>
<path d="M1991.6 228.27L1189.93 395.841" stroke="url(#paint46_linear_4_7)" stroke-width="2" stroke-miterlimit="10"/>
<path d="M1994.33 241.36L1192.67 408.931" stroke="url(#paint47_linear_4_7)" stroke-width="2" stroke-miterlimit="10"/>
<path d="M1997.07 254.45L1195.4 422.021" stroke="url(#paint48_linear_4_7)" stroke-width="2" stroke-miterlimit="10"/>
<path d="M1999.81 267.531L1198.14 435.103" stroke="url(#paint49_linear_4_7)" stroke-width="2" stroke-miterlimit="10"/>
<path d="M2002.54 280.621L1200.88 448.193" stroke="url(#paint50_linear_4_7)" stroke-width="2" stroke-miterlimit="10"/>
<path d="M2005.28 293.711L1203.61 461.282" stroke="url(#paint51_linear_4_7)" stroke-width="2" stroke-miterlimit="10"/>
<path d="M2008.01 306.792L1206.35 474.364" stroke="url(#paint52_linear_4_7)" stroke-width="2" stroke-miterlimit="10"/>
<path d="M2010.74 319.883L1209.09 487.454" stroke="url(#paint53_linear_4_7)" stroke-width="2" stroke-miterlimit="10"/>
<path d="M2013.48 332.964L1211.82 500.535" stroke="url(#paint54_linear_4_7)" stroke-width="2" stroke-miterlimit="10"/>
<path d="M2016.21 346.054L1214.56 513.625" stroke="url(#paint55_linear_4_7)" stroke-width="2" stroke-miterlimit="10"/>
<path d="M2018.95 359.144L1217.29 526.715" stroke="url(#paint56_linear_4_7)" stroke-width="2" stroke-miterlimit="10"/>
<path d="M2021.69 372.225L1220.03 539.796" stroke="url(#paint57_linear_4_7)" stroke-width="2" stroke-miterlimit="10"/>
<path d="M2024.42 385.315L1222.76 552.886" stroke="url(#paint58_linear_4_7)" stroke-width="2" stroke-miterlimit="10"/>
<path d="M2027.16 398.405L1225.49 565.976" stroke="url(#paint59_linear_4_7)" stroke-width="2" stroke-miterlimit="10"/>
<path d="M2029.9 411.486L1228.23 579.058" stroke="url(#paint60_linear_4_7)" stroke-width="2" stroke-miterlimit="10"/>
<path d="M2032.63 424.576L1230.97 592.147" stroke="url(#paint61_linear_4_7)" stroke-width="2" stroke-miterlimit="10"/>
</g>
</g>
</g>
<defs>
<linearGradient id="paint0_linear_4_7" x1="-2.00001" y1="6.92287e-05" x2="1716.21" y2="357.262" gradientUnits="userSpaceOnUse">
<stop stop-color="#0054B8"/>
<stop offset="1" stop-color="#6ECAFE"/>
</linearGradient>
<linearGradient id="paint1_linear_4_7" x1="163.15" y1="-108" x2="818.895" y2="-31.3046" gradientUnits="userSpaceOnUse">
<stop stop-color="#0054B8"/>
<stop offset="1" stop-color="#6ECAFE"/>
</linearGradient>
<linearGradient id="paint2_linear_4_7" x1="1174.46" y1="303.109" x2="1459.74" y2="303.855" gradientUnits="userSpaceOnUse">
<stop offset="0.0073" stop-color="#5D7BFE"/>
<stop offset="1" stop-color="#0974FF"/>
</linearGradient>
<linearGradient id="paint3_linear_4_7" x1="359.174" y1="467.6" x2="404.079" y2="510.151" gradientUnits="userSpaceOnUse">
<stop stop-color="#627CF0"/>
<stop offset="1" stop-color="#0917B3"/>
</linearGradient>
<linearGradient id="paint4_linear_4_7" x1="1267.99" y1="837.638" x2="1312.9" y2="880.18" gradientUnits="userSpaceOnUse">
<stop stop-color="#627CF0"/>
<stop offset="1" stop-color="#0917B3"/>
</linearGradient>
<linearGradient id="paint5_linear_4_7" x1="342.514" y1="478.669" x2="370.313" y2="505.006" gradientUnits="userSpaceOnUse">
<stop stop-color="#627CF0"/>
<stop offset="1" stop-color="#0917B3"/>
</linearGradient>
<linearGradient id="paint6_linear_4_7" x1="1487.18" y1="429.188" x2="1504.22" y2="431.18" gradientUnits="userSpaceOnUse">
<stop stop-color="#0054B8"/>
<stop offset="1" stop-color="#6ECAFE"/>
</linearGradient>
<linearGradient id="paint7_linear_4_7" x1="324.938" y1="821.502" x2="336.782" y2="822.888" gradientUnits="userSpaceOnUse">
<stop stop-color="#0054B8"/>
<stop offset="1" stop-color="#6ECAFE"/>
</linearGradient>
<linearGradient id="paint8_linear_4_7" x1="12.4375" y1="772.502" x2="23.7194" y2="772.532" gradientUnits="userSpaceOnUse">
<stop offset="0.0073" stop-color="#5D7BFE"/>
<stop offset="1" stop-color="#0974FF"/>
</linearGradient>
<linearGradient id="paint9_linear_4_7" x1="973.284" y1="877.511" x2="984.565" y2="877.541" gradientUnits="userSpaceOnUse">
<stop offset="0.0073" stop-color="#5D7BFE"/>
<stop offset="1" stop-color="#0974FF"/>
</linearGradient>
<linearGradient id="paint10_linear_4_7" x1="1451.1" y1="240.949" x2="1462.35" y2="240.949" gradientUnits="userSpaceOnUse">
<stop stop-color="#627CF0"/>
<stop offset="1" stop-color="#0917B3"/>
</linearGradient>
<linearGradient id="paint11_linear_4_7" x1="389.755" y1="662.375" x2="401.037" y2="662.405" gradientUnits="userSpaceOnUse">
<stop offset="0.0073" stop-color="#5D7BFE"/>
<stop offset="1" stop-color="#0974FF"/>
</linearGradient>
<linearGradient id="paint12_linear_4_7" x1="1264.69" y1="585.366" x2="1275.94" y2="585.366" gradientUnits="userSpaceOnUse">
<stop stop-color="#627CF0"/>
<stop offset="1" stop-color="#0917B3"/>
</linearGradient>
<linearGradient id="paint13_linear_4_7" x1="1332.94" y1="88.8389" x2="1344.23" y2="88.8684" gradientUnits="userSpaceOnUse">
<stop offset="0.0073" stop-color="#5D7BFE"/>
<stop offset="1" stop-color="#0974FF"/>
</linearGradient>
<linearGradient id="paint14_linear_4_7" x1="70.2577" y1="83.2124" x2="81.5396" y2="83.2419" gradientUnits="userSpaceOnUse">
<stop offset="0.0073" stop-color="#5D7BFE"/>
<stop offset="1" stop-color="#0974FF"/>
</linearGradient>
<linearGradient id="paint15_linear_4_7" x1="13.6843" y1="182.42" x2="30.7226" y2="184.413" gradientUnits="userSpaceOnUse">
<stop stop-color="#0054B8"/>
<stop offset="1" stop-color="#6ECAFE"/>
</linearGradient>
<linearGradient id="paint16_linear_4_7" x1="1107.87" y1="-164.325" x2="1911.51" y2="-154.26" gradientUnits="userSpaceOnUse">
<stop offset="0.0073" stop-color="#5D7BFE"/>
<stop offset="1" stop-color="#0974FF"/>
</linearGradient>
<linearGradient id="paint17_linear_4_7" x1="1110.61" y1="-151.244" x2="1914.24" y2="-141.179" gradientUnits="userSpaceOnUse">
<stop offset="0.0073" stop-color="#5D7BFE"/>
<stop offset="1" stop-color="#0974FF"/>
</linearGradient>
<linearGradient id="paint18_linear_4_7" x1="1113.34" y1="-138.154" x2="1916.98" y2="-128.089" gradientUnits="userSpaceOnUse">
<stop offset="0.0073" stop-color="#5D7BFE"/>
<stop offset="1" stop-color="#0974FF"/>
</linearGradient>
<linearGradient id="paint19_linear_4_7" x1="1116.08" y1="-125.064" x2="1919.71" y2="-114.998" gradientUnits="userSpaceOnUse">
<stop offset="0.0073" stop-color="#5D7BFE"/>
<stop offset="1" stop-color="#0974FF"/>
</linearGradient>
<linearGradient id="paint20_linear_4_7" x1="1118.81" y1="-111.982" x2="1922.44" y2="-101.917" gradientUnits="userSpaceOnUse">
<stop offset="0.0073" stop-color="#5D7BFE"/>
<stop offset="1" stop-color="#0974FF"/>
</linearGradient>
<linearGradient id="paint21_linear_4_7" x1="1121.54" y1="-98.8923" x2="1925.18" y2="-88.8271" gradientUnits="userSpaceOnUse">
<stop offset="0.0073" stop-color="#5D7BFE"/>
<stop offset="1" stop-color="#0974FF"/>
</linearGradient>
<linearGradient id="paint22_linear_4_7" x1="1124.28" y1="-85.8113" x2="1927.92" y2="-75.746" gradientUnits="userSpaceOnUse">
<stop offset="0.0073" stop-color="#5D7BFE"/>
<stop offset="1" stop-color="#0974FF"/>
</linearGradient>
<linearGradient id="paint23_linear_4_7" x1="1127.02" y1="-72.7212" x2="1930.65" y2="-62.6562" gradientUnits="userSpaceOnUse">
<stop offset="0.0073" stop-color="#5D7BFE"/>
<stop offset="1" stop-color="#0974FF"/>
</linearGradient>
<linearGradient id="paint24_linear_4_7" x1="1129.75" y1="-59.6311" x2="1933.39" y2="-49.5658" gradientUnits="userSpaceOnUse">
<stop offset="0.0073" stop-color="#5D7BFE"/>
<stop offset="1" stop-color="#0974FF"/>
</linearGradient>
<linearGradient id="paint25_linear_4_7" x1="1132.49" y1="-46.55" x2="1936.12" y2="-36.485" gradientUnits="userSpaceOnUse">
<stop offset="0.0073" stop-color="#5D7BFE"/>
<stop offset="1" stop-color="#0974FF"/>
</linearGradient>
<linearGradient id="paint26_linear_4_7" x1="1135.23" y1="-33.46" x2="1938.86" y2="-23.3949" gradientUnits="userSpaceOnUse">
<stop offset="0.0073" stop-color="#5D7BFE"/>
<stop offset="1" stop-color="#0974FF"/>
</linearGradient>
<linearGradient id="paint27_linear_4_7" x1="1137.96" y1="-20.3699" x2="1941.6" y2="-10.3046" gradientUnits="userSpaceOnUse">
<stop offset="0.0073" stop-color="#5D7BFE"/>
<stop offset="1" stop-color="#0974FF"/>
</linearGradient>
<linearGradient id="paint28_linear_4_7" x1="1140.7" y1="-7.28882" x2="1944.33" y2="2.77622" gradientUnits="userSpaceOnUse">
<stop offset="0.0073" stop-color="#5D7BFE"/>
<stop offset="1" stop-color="#0974FF"/>
</linearGradient>
<linearGradient id="paint29_linear_4_7" x1="1143.43" y1="5.80127" x2="1947.07" y2="15.8665" gradientUnits="userSpaceOnUse">
<stop offset="0.0073" stop-color="#5D7BFE"/>
<stop offset="1" stop-color="#0974FF"/>
</linearGradient>
<linearGradient id="paint30_linear_4_7" x1="1146.17" y1="18.8826" x2="1949.81" y2="28.9478" gradientUnits="userSpaceOnUse">
<stop offset="0.0073" stop-color="#5D7BFE"/>
<stop offset="1" stop-color="#0974FF"/>
</linearGradient>
<linearGradient id="paint31_linear_4_7" x1="1148.91" y1="31.9727" x2="1952.54" y2="42.0377" gradientUnits="userSpaceOnUse">
<stop offset="0.0073" stop-color="#5D7BFE"/>
<stop offset="1" stop-color="#0974FF"/>
</linearGradient>
<linearGradient id="paint32_linear_4_7" x1="1151.64" y1="45.0625" x2="1955.27" y2="55.1278" gradientUnits="userSpaceOnUse">
<stop offset="0.0073" stop-color="#5D7BFE"/>
<stop offset="1" stop-color="#0974FF"/>
</linearGradient>
<linearGradient id="paint33_linear_4_7" x1="1154.37" y1="58.1438" x2="1958" y2="68.2088" gradientUnits="userSpaceOnUse">
<stop offset="0.0073" stop-color="#5D7BFE"/>
<stop offset="1" stop-color="#0974FF"/>
</linearGradient>
<linearGradient id="paint34_linear_4_7" x1="1157.11" y1="71.2339" x2="1960.74" y2="81.2989" gradientUnits="userSpaceOnUse">
<stop offset="0.0073" stop-color="#5D7BFE"/>
<stop offset="1" stop-color="#0974FF"/>
</linearGradient>
<linearGradient id="paint35_linear_4_7" x1="1159.84" y1="84.3237" x2="1963.48" y2="94.389" gradientUnits="userSpaceOnUse">
<stop offset="0.0073" stop-color="#5D7BFE"/>
<stop offset="1" stop-color="#0974FF"/>
</linearGradient>
<linearGradient id="paint36_linear_4_7" x1="1162.58" y1="97.405" x2="1966.21" y2="107.47" gradientUnits="userSpaceOnUse">
<stop offset="0.0073" stop-color="#5D7BFE"/>
<stop offset="1" stop-color="#0974FF"/>
</linearGradient>
<linearGradient id="paint37_linear_4_7" x1="1165.31" y1="110.495" x2="1968.95" y2="120.56" gradientUnits="userSpaceOnUse">
<stop offset="0.0073" stop-color="#5D7BFE"/>
<stop offset="1" stop-color="#0974FF"/>
</linearGradient>
<linearGradient id="paint38_linear_4_7" x1="1168.05" y1="123.576" x2="1971.69" y2="133.641" gradientUnits="userSpaceOnUse">
<stop offset="0.0073" stop-color="#5D7BFE"/>
<stop offset="1" stop-color="#0974FF"/>
</linearGradient>
<linearGradient id="paint39_linear_4_7" x1="1170.79" y1="136.666" x2="1974.42" y2="146.731" gradientUnits="userSpaceOnUse">
<stop offset="0.0073" stop-color="#5D7BFE"/>
<stop offset="1" stop-color="#0974FF"/>
</linearGradient>
<linearGradient id="paint40_linear_4_7" x1="1173.52" y1="149.756" x2="1977.16" y2="159.822" gradientUnits="userSpaceOnUse">
<stop offset="0.0073" stop-color="#5D7BFE"/>
<stop offset="1" stop-color="#0974FF"/>
</linearGradient>
<linearGradient id="paint41_linear_4_7" x1="1176.26" y1="162.837" x2="1979.9" y2="172.903" gradientUnits="userSpaceOnUse">
<stop offset="0.0073" stop-color="#5D7BFE"/>
<stop offset="1" stop-color="#0974FF"/>
</linearGradient>
<linearGradient id="paint42_linear_4_7" x1="1179" y1="175.927" x2="1982.63" y2="185.993" gradientUnits="userSpaceOnUse">
<stop offset="0.0073" stop-color="#5D7BFE"/>
<stop offset="1" stop-color="#0974FF"/>
</linearGradient>
<linearGradient id="paint43_linear_4_7" x1="1181.73" y1="189.018" x2="1985.37" y2="199.083" gradientUnits="userSpaceOnUse">
<stop offset="0.0073" stop-color="#5D7BFE"/>
<stop offset="1" stop-color="#0974FF"/>
</linearGradient>
<linearGradient id="paint44_linear_4_7" x1="1184.47" y1="202.099" x2="1988.1" y2="212.164" gradientUnits="userSpaceOnUse">
<stop offset="0.0073" stop-color="#5D7BFE"/>
<stop offset="1" stop-color="#0974FF"/>
</linearGradient>
<linearGradient id="paint45_linear_4_7" x1="1187.2" y1="215.189" x2="1990.83" y2="225.254" gradientUnits="userSpaceOnUse">
<stop offset="0.0073" stop-color="#5D7BFE"/>
<stop offset="1" stop-color="#0974FF"/>
</linearGradient>
<linearGradient id="paint46_linear_4_7" x1="1189.93" y1="228.27" x2="1993.57" y2="238.335" gradientUnits="userSpaceOnUse">
<stop offset="0.0073" stop-color="#5D7BFE"/>
<stop offset="1" stop-color="#0974FF"/>
</linearGradient>
<linearGradient id="paint47_linear_4_7" x1="1192.67" y1="241.36" x2="1996.3" y2="251.425" gradientUnits="userSpaceOnUse">
<stop offset="0.0073" stop-color="#5D7BFE"/>
<stop offset="1" stop-color="#0974FF"/>
</linearGradient>
<linearGradient id="paint48_linear_4_7" x1="1195.4" y1="254.45" x2="1999.04" y2="264.515" gradientUnits="userSpaceOnUse">
<stop offset="0.0073" stop-color="#5D7BFE"/>
<stop offset="1" stop-color="#0974FF"/>
</linearGradient>
<linearGradient id="paint49_linear_4_7" x1="1198.14" y1="267.531" x2="2001.78" y2="277.597" gradientUnits="userSpaceOnUse">
<stop offset="0.0073" stop-color="#5D7BFE"/>
<stop offset="1" stop-color="#0974FF"/>
</linearGradient>
<linearGradient id="paint50_linear_4_7" x1="1200.88" y1="280.621" x2="2004.51" y2="290.686" gradientUnits="userSpaceOnUse">
<stop offset="0.0073" stop-color="#5D7BFE"/>
<stop offset="1" stop-color="#0974FF"/>
</linearGradient>
<linearGradient id="paint51_linear_4_7" x1="1203.61" y1="293.711" x2="2007.25" y2="303.776" gradientUnits="userSpaceOnUse">
<stop offset="0.0073" stop-color="#5D7BFE"/>
<stop offset="1" stop-color="#0974FF"/>
</linearGradient>
<linearGradient id="paint52_linear_4_7" x1="1206.35" y1="306.792" x2="2009.98" y2="316.858" gradientUnits="userSpaceOnUse">
<stop offset="0.0073" stop-color="#5D7BFE"/>
<stop offset="1" stop-color="#0974FF"/>
</linearGradient>
<linearGradient id="paint53_linear_4_7" x1="1209.09" y1="319.883" x2="2012.72" y2="329.948" gradientUnits="userSpaceOnUse">
<stop offset="0.0073" stop-color="#5D7BFE"/>
<stop offset="1" stop-color="#0974FF"/>
</linearGradient>
<linearGradient id="paint54_linear_4_7" x1="1211.82" y1="332.964" x2="2015.46" y2="343.029" gradientUnits="userSpaceOnUse">
<stop offset="0.0073" stop-color="#5D7BFE"/>
<stop offset="1" stop-color="#0974FF"/>
</linearGradient>
<linearGradient id="paint55_linear_4_7" x1="1214.56" y1="346.054" x2="2018.19" y2="356.119" gradientUnits="userSpaceOnUse">
<stop offset="0.0073" stop-color="#5D7BFE"/>
<stop offset="1" stop-color="#0974FF"/>
</linearGradient>
<linearGradient id="paint56_linear_4_7" x1="1217.29" y1="359.144" x2="2020.93" y2="369.209" gradientUnits="userSpaceOnUse">
<stop offset="0.0073" stop-color="#5D7BFE"/>
<stop offset="1" stop-color="#0974FF"/>
</linearGradient>
<linearGradient id="paint57_linear_4_7" x1="1220.03" y1="372.225" x2="2023.66" y2="382.29" gradientUnits="userSpaceOnUse">
<stop offset="0.0073" stop-color="#5D7BFE"/>
<stop offset="1" stop-color="#0974FF"/>
</linearGradient>
<linearGradient id="paint58_linear_4_7" x1="1222.76" y1="385.315" x2="2026.39" y2="395.38" gradientUnits="userSpaceOnUse">
<stop offset="0.0073" stop-color="#5D7BFE"/>
<stop offset="1" stop-color="#0974FF"/>
</linearGradient>
<linearGradient id="paint59_linear_4_7" x1="1225.49" y1="398.405" x2="2029.13" y2="408.47" gradientUnits="userSpaceOnUse">
<stop offset="0.0073" stop-color="#5D7BFE"/>
<stop offset="1" stop-color="#0974FF"/>
</linearGradient>
<linearGradient id="paint60_linear_4_7" x1="1228.23" y1="411.486" x2="2031.87" y2="421.552" gradientUnits="userSpaceOnUse">
<stop offset="0.0073" stop-color="#5D7BFE"/>
<stop offset="1" stop-color="#0974FF"/>
</linearGradient>
<linearGradient id="paint61_linear_4_7" x1="1230.97" y1="424.576" x2="2034.6" y2="434.641" gradientUnits="userSpaceOnUse">
<stop offset="0.0073" stop-color="#5D7BFE"/>
<stop offset="1" stop-color="#0974FF"/>
</linearGradient>
</defs>
</svg>
