<svg width="26" height="25" viewBox="0 0 26 25" fill="none" xmlns="http://www.w3.org/2000/svg">
<g clip-path="url(#clip0_368_432)">
<path d="M12.5049 24.0029C19.1323 24.0029 24.5049 18.6303 24.5049 12.0029C24.5049 5.37551 19.1323 0.00292969 12.5049 0.00292969C5.8775 0.00292969 0.504913 5.37551 0.504913 12.0029C0.504913 18.6303 5.8775 24.0029 12.5049 24.0029Z" fill="white"/>
<path d="M16.5049 6.50293H8.50488C7.67646 6.50293 7.00488 7.1745 7.00488 8.00293V16.0029C7.00488 16.8314 7.67646 17.5029 8.50488 17.5029H16.5049C17.3333 17.5029 18.0049 16.8314 18.0049 16.0029V8.00293C18.0049 7.1745 17.3333 6.50293 16.5049 6.50293Z" fill="#0B1D3A" stroke="#0B1D39"/>
<path d="M15.7549 12.0029C15.7549 13.7979 14.2998 15.2529 12.5049 15.2529C10.71 15.2529 9.25488 13.7979 9.25488 12.0029C9.25488 10.208 10.71 8.75293 12.5049 8.75293C14.2998 8.75293 15.7549 10.208 15.7549 12.0029Z" stroke="white" stroke-width="1.5"/>
<path d="M16.2549 8.50293C16.6691 8.50293 17.0049 8.16714 17.0049 7.75293C17.0049 7.33872 16.6691 7.00293 16.2549 7.00293C15.8407 7.00293 15.5049 7.33872 15.5049 7.75293C15.5049 8.16714 15.8407 8.50293 16.2549 8.50293Z" fill="white"/>
</g>
<defs>
<clipPath id="clip0_368_432">
<rect width="25" height="25" fill="white" transform="translate(0.5)"/>
</clipPath>
</defs>
</svg>
