<svg width="80" height="80" viewBox="0 0 80 80" fill="none" xmlns="http://www.w3.org/2000/svg">
<g clip-path="url(#clip0_1148_1952)">
<path d="M9.37274 69.5158C9.37274 69.1264 9.37274 68.8271 9.37274 68.5277C9.37274 61.8545 9.37247 55.1812 9.37377 48.5079C9.37383 48.2272 9.36988 47.945 9.40022 47.666C9.52218 46.5442 10.4155 45.8138 11.7586 45.8098C16.4262 45.7958 21.094 45.7938 25.7615 45.8115C27.243 45.8171 28.1271 46.6698 28.1281 48.0276C28.1327 54.8882 28.1302 61.7488 28.1303 68.6094C28.1303 68.8845 28.1303 69.1596 28.1303 69.4749H32.8101V68.5901C32.8101 57.8894 32.8098 47.1888 32.8103 36.4882C32.8104 34.6276 33.617 33.9408 35.8157 33.9394C40.0943 33.9367 44.3731 33.9357 48.6518 33.94C50.7503 33.9421 51.5873 34.6468 51.5877 36.4106C51.59 47.1113 51.5889 57.8119 51.5889 68.5125C51.5889 68.8137 51.5889 69.1149 51.5889 69.4658H56.2339V26.024C55.5416 26.024 54.884 26.0303 54.2267 26.0228C51.9416 25.9969 50.9089 24.4467 52.1064 22.789C55.3685 18.273 58.6536 13.7688 61.9294 9.25978C62.4657 8.52156 62.9829 7.77299 63.5403 7.04629C64.5988 5.6662 66.7117 5.64065 67.7311 7.03354C71.5927 12.31 75.4367 17.5957 79.2554 22.8943C80.3637 24.432 79.294 25.9836 77.1636 26.0216C76.4771 26.0338 75.79 26.0235 75.0568 26.0235V69.5159C75.7913 69.5159 76.5034 69.5129 77.2156 69.5165C78.9924 69.5253 80.0175 70.2617 79.9998 71.5129C79.9828 72.7167 78.9312 73.467 77.2267 73.4678C70.0863 73.4713 62.9458 73.4694 55.8054 73.4694C38.1628 73.4694 20.5201 73.4697 2.87751 73.4687C1.40315 73.4686 0.500165 73.0251 0.136235 72.1358C-0.385961 70.8596 0.64808 69.5701 2.29797 69.5341C4.32484 69.4899 6.35394 69.5186 8.38209 69.5159C8.67983 69.5154 8.97767 69.5158 9.37274 69.5158Z" fill="#2155FF"/>
</g>
<defs>
<clipPath id="clip0_1148_1952">
<rect width="80" height="67.4699" fill="white" transform="translate(0 6)"/>
</clipPath>
</defs>
</svg>
