<svg width="80" height="80" viewBox="0 0 80 80" fill="none" xmlns="http://www.w3.org/2000/svg">
<g clip-path="url(#clip0_1148_1942)">
<path d="M66.589 34.4358C53.45 31.3712 43.4731 39.1372 39.7863 46.8274C37.2856 52.0436 36.6442 57.4494 38.0204 63.0697C39.3881 68.6556 42.5016 73.0924 47.2015 76.6556C46.7496 76.6855 46.5001 76.7165 46.2506 76.7165C33.2808 76.7189 20.311 76.7233 7.34126 76.716C2.89297 76.7134 0.0164466 73.8166 0.0159512 69.3615C0.0137222 49.5105 0.0184774 29.6594 1.65065e-06 9.80844C-0.00061751 9.13276 0.172797 8.74845 0.777766 8.39891C3.07126 7.07383 5.34014 5.70322 7.5811 4.28999C8.18248 3.91074 8.59685 3.94904 9.17522 4.31026C11.4474 5.72947 13.7652 7.07477 16.0383 8.49251C16.5487 8.81083 16.8992 8.78348 17.3928 8.47757C19.6953 7.05064 22.0362 5.68629 24.3344 4.25252C24.8725 3.9168 25.2465 3.93652 25.7733 4.26476C28.0725 5.69726 30.4107 7.06612 32.7128 8.49388C33.1798 8.78348 33.5112 8.8016 33.9869 8.50767C36.3168 7.06829 38.6821 5.68698 41.011 4.24604C41.5061 3.93971 41.8549 3.91022 42.3654 4.22871C44.6888 5.67826 47.0521 7.06291 49.3791 8.5066C49.8522 8.80008 50.1841 8.79108 50.6544 8.50006C52.9834 7.05902 55.3486 5.67706 57.6754 4.23255C58.1807 3.91889 58.539 3.92545 59.0367 4.23452C61.3633 5.6793 63.7246 7.06769 66.0455 8.52141C66.3311 8.70032 66.6191 9.14937 66.6203 9.47434C66.6518 17.6182 66.6452 25.7623 66.6424 33.9063C66.6424 34.0814 66.6079 34.2566 66.589 34.4358ZM33.3141 31.2797C38.4615 31.2797 43.6089 31.2799 48.7563 31.2796C50.0952 31.2795 51.4351 31.3107 52.7728 31.27C54.758 31.2096 55.9535 29.2331 55.0637 27.5123C54.503 26.4279 53.5461 26.0841 52.3888 26.0847C39.684 26.0911 26.9792 26.0885 14.2743 26.0901C14.0368 26.0901 13.7944 26.085 13.5627 26.1282C12.4737 26.3308 11.7168 26.9384 11.4299 28.0368C10.978 29.7673 12.2214 31.2726 14.123 31.2756C20.52 31.2858 26.917 31.2795 33.3141 31.2797ZM24.6501 40.2454V40.2398C21.1415 40.2398 17.6329 40.2305 14.1244 40.2443C12.7093 40.2498 11.7381 40.9586 11.4336 42.1398C10.9781 43.9073 12.2134 45.3922 14.192 45.3992C18.5033 45.4146 22.8148 45.4043 27.1262 45.4044C29.8023 45.4044 32.4783 45.3981 35.1544 45.4068C36.2835 45.4105 37.1959 45.0324 37.7363 43.9838C38.6284 42.2529 37.449 40.2817 35.4433 40.2576C31.8461 40.2145 28.2479 40.2454 24.6501 40.2454ZM22.5986 59.506C25.4232 59.506 28.2478 59.5109 31.0724 59.5042C32.8108 59.5 33.962 58.4527 33.9543 56.9043C33.9467 55.3901 32.8206 54.3312 31.1273 54.3269C25.4781 54.3125 19.8287 54.3133 14.1795 54.3265C12.5052 54.3304 11.3424 55.4058 11.3242 56.8949C11.3055 58.425 12.4871 59.5003 14.2138 59.5042C17.0087 59.5106 19.8037 59.5059 22.5986 59.506Z" fill="#2155FF"/>
<path d="M60.8269 38.0781C71.4391 38.091 80.0067 46.7186 80.003 57.3885C79.9993 68.0364 71.3893 76.7151 60.8189 76.7256C50.2093 76.7362 41.5941 68.0403 41.6094 57.3363C41.6247 46.6689 50.2102 38.0652 60.8269 38.0781ZM58.5496 53.8927C59.4846 52.8536 60.5584 52.765 61.602 52.6795C61.8541 52.6589 62.241 52.8987 62.3808 53.1314C63.1151 54.3529 64.3166 54.8806 65.5527 54.4494C66.7582 54.0289 67.4678 52.7895 67.243 51.4378C66.9201 49.4959 65.8631 48.1865 63.9634 47.5781C63.6883 47.4901 63.3708 47.201 63.2765 46.9325C62.8111 45.6084 61.7808 44.8325 60.5453 44.9673C59.2458 45.1091 58.3257 46.0814 58.2441 47.5094C58.217 47.9836 58.0286 48.1556 57.6383 48.3386C56.97 48.6521 56.2993 48.996 55.7078 49.4343C53.1642 51.319 52.2822 56.1093 56.2024 58.3267C57.5761 59.1037 59.1766 59.4746 60.6739 60.03C61.421 60.3071 62.1689 60.582 63.0363 60.9022C62.1013 61.9047 61.0538 61.9107 60.0858 62.134C59.6099 62.2438 59.3644 62.107 59.1388 61.6363C58.588 60.4872 57.41 59.9685 56.2403 60.259C55.0934 60.5438 54.3028 61.5953 54.296 62.8447C54.2855 64.7941 55.6141 66.5891 57.5786 67.1623C58.0486 67.2994 58.2414 67.5011 58.3767 67.9536C58.7491 69.1992 59.753 69.8703 60.9999 69.7879C62.1522 69.7118 63.1796 68.8739 63.2888 67.6531C63.3637 66.8145 63.7628 66.5363 64.4288 66.2292C66.6278 65.2152 67.9692 63.5239 68.0338 61.0182C68.0987 58.5021 66.6353 56.9465 64.5302 55.9822C63.2712 55.4054 61.891 55.099 60.5712 54.6533C59.9421 54.4408 59.3268 54.1868 58.5496 53.8927Z" fill="#2155FF"/>
</g>
<defs>
<clipPath id="clip0_1148_1942">
<rect width="80" height="72.7273" fill="white" transform="translate(0 4)"/>
</clipPath>
</defs>
</svg>
