<svg width="82" height="82" viewBox="0 0 82 82" fill="none" xmlns="http://www.w3.org/2000/svg">
<g clip-path="url(#clip0_1148_1930)">
<path d="M10.2388 80.0007C8.78533 79.5196 7.24009 79.2139 5.89702 78.5217C2.89243 76.973 0.982997 74.4593 0.0896672 71.2053C0.0431311 71.0358 0.0335884 70.8563 0 70.6367H80C79.5904 72.7017 78.6812 74.4586 77.3218 75.9805C75.391 78.1422 72.9875 79.4654 70.0885 79.8681C69.9658 79.8852 69.8505 79.9553 69.7317 80.0007L10.2388 80.0007Z" fill="#2155FF"/>
<path d="M75.51 23.5397V65.8451H4.48438V23.5924C4.71716 23.5756 4.9655 23.5424 5.21388 23.5421C8.80753 23.5387 12.4014 23.5581 15.9946 23.5228C16.6344 23.5165 16.8095 23.7576 16.9651 24.3166C19.6542 33.979 25.9445 40.0034 35.8249 41.9491C47.9563 44.3381 60.033 36.4582 62.9593 24.5141C63.1492 23.739 63.4335 23.5028 64.2493 23.5162C67.6584 23.5721 71.069 23.5397 74.479 23.5397H75.51ZM66.024 61.1326V47.1015H47.1304V61.1326H66.024ZM13.9518 61.1164H39.9508V56.5105H13.9518V61.1164ZM25.7094 51.6976V47.1066H13.9493V51.6976H25.7094Z" fill="#2155FF"/>
<path d="M21.0313 18.8277C21.0283 8.43785 29.5336 -0.00638281 39.995 3.62018e-06C50.4548 0.00639005 58.973 8.48744 58.9322 18.8545C58.8912 29.2352 50.4324 37.6359 40.0069 37.6497C29.5538 37.6636 21.0342 29.2129 21.0313 18.8277ZM37.6153 26.6096C41.7827 22.4723 45.9988 18.2867 50.1588 14.1569C49.1267 13.1271 48.0424 12.0453 46.8477 10.8533C43.798 13.9102 40.7098 17.0057 37.512 20.2112C36.2278 18.9088 34.9901 17.6535 33.8402 16.4873C32.7345 17.5858 31.6515 18.6618 30.6288 19.6779C32.9349 21.9659 35.2992 24.3116 37.6153 26.6096Z" fill="#2155FF"/>
<path d="M61.2673 51.8047V56.4221H51.8906V51.8047H61.2673Z" fill="#2155FF"/>
</g>
<defs>
<clipPath id="clip0_1148_1930">
<rect width="80" height="80" fill="white"/>
</clipPath>
</defs>
</svg>
