<svg width="53" height="52" viewBox="0 0 53 52" fill="none" xmlns="http://www.w3.org/2000/svg">
<g clip-path="url(#clip0_2915_2548)">
<path d="M26.3389 52.6758C40.8849 52.6758 52.6768 40.8839 52.6768 26.3379C52.6768 11.7919 40.8849 0 26.3389 0C11.7929 0 0.000976562 11.7919 0.000976562 26.3379C0.000976562 40.8839 11.7929 52.6758 26.3389 52.6758Z" fill="white"/>
<path d="M22.6784 38.1353C22.0218 38.2206 21.2294 38.3222 20.4379 38.4292C19.7601 38.5198 19.0844 38.6247 18.4057 38.7076C18.2147 38.7366 18.0198 38.7277 17.8322 38.6814C17.6447 38.635 17.4681 38.5522 17.3125 38.4375C17.157 38.3229 17.0256 38.1787 16.9259 38.0133C16.8261 37.8478 16.7599 37.6643 16.7311 37.4732C16.5199 36.1122 16.3485 34.744 16.1632 33.3786C15.8557 31.1167 15.5496 28.8546 15.2448 26.5923C14.9604 24.4858 14.6769 22.3798 14.3941 20.2745C14.261 19.2831 14.1289 18.2925 13.9977 17.3026C13.8802 16.421 14.4079 15.6809 15.2912 15.556C17.2074 15.2845 19.1269 15.0372 21.0448 14.7789C23.1506 14.4956 25.2563 14.2114 27.3619 13.9263C28.1854 13.8149 29.0074 13.6918 29.8326 13.5931C30.0321 13.5686 30.2345 13.5848 30.4275 13.6408C30.6205 13.6968 30.8002 13.7914 30.9556 13.9188C31.1111 14.0462 31.239 14.2039 31.3318 14.3822C31.4245 14.5605 31.4801 14.7558 31.4952 14.9562C31.5313 15.3141 31.6788 15.393 32.0038 15.4141C33.7786 15.5289 35.5528 15.6572 37.3263 15.7991C37.7242 15.8387 38.0905 16.0333 38.3461 16.3409C38.6016 16.6484 38.7259 17.0442 38.692 17.4426C38.5041 19.9406 38.3189 22.4389 38.1363 24.9377C37.9352 27.6247 37.7278 30.312 37.5272 32.9984C37.4127 34.5309 37.3022 36.0637 37.1959 37.5971C37.134 38.5096 36.4489 39.1535 35.541 39.089C33.1472 38.9198 30.7552 38.7303 28.3606 38.5509C26.5134 38.413 24.666 38.2806 22.6784 38.1353ZM18.2999 37.4703C18.3627 37.4629 18.4258 37.4571 18.4885 37.4486C21.0086 37.1006 23.5287 36.7529 26.0488 36.4056C28.2451 36.1058 30.4418 35.8106 32.6388 35.5199C32.9114 35.4839 33.0073 35.3557 32.972 35.0999C32.8396 34.1321 32.7075 33.1641 32.5756 32.196C32.3727 30.7076 32.1701 29.2192 31.9679 27.7307C31.768 26.2525 31.5699 24.7741 31.3737 23.2956C31.1722 21.807 30.97 20.3186 30.7671 18.8304C30.6032 17.612 30.4426 16.3932 30.2853 15.1741C30.2494 14.8903 30.1079 14.7963 29.8368 14.8338C28.544 15.0126 27.2515 15.1886 25.9593 15.3619C24.0096 15.6261 22.0601 15.8902 20.1107 16.1541C18.6204 16.3551 17.1286 16.5526 15.6389 16.7599C15.2126 16.8193 15.1809 16.8824 15.2411 17.2947C15.2969 17.6799 15.3421 18.0667 15.3941 18.4526C15.6746 20.5378 15.9558 22.6229 16.2374 24.7079C16.5248 26.8345 16.8127 28.9612 17.1009 31.0878C17.3745 33.1109 17.6477 35.1333 17.9207 37.1552C17.9507 37.3832 18.063 37.4981 18.2999 37.4711V37.4703ZM31.7524 16.6278C31.7653 16.7693 31.7707 16.8522 31.7818 16.935C31.8988 17.7881 32.0196 18.6403 32.1335 19.4938C32.3536 21.1277 32.5655 22.7623 32.7869 24.3967C33.0287 26.1866 33.2784 27.9753 33.5224 29.7648C33.752 31.4507 33.9696 33.1376 34.2096 34.8213C34.3488 35.7957 33.8519 36.6154 32.9805 36.748C32.1708 36.8717 31.3565 36.9645 30.5448 37.0742C30.0361 37.143 29.5265 37.2177 29.0178 37.2893C29.1838 37.3587 29.361 37.3972 29.5407 37.403C30.2752 37.4585 31.0098 37.5132 31.7446 37.5673C33.0042 37.6601 34.2634 37.7508 35.5227 37.8487C35.8151 37.8713 35.9388 37.7624 35.9598 37.4621C36.0484 36.1711 36.1586 34.8809 36.2537 33.5903C36.4326 31.1661 36.6035 28.7412 36.7836 26.3175C37.0026 23.3685 37.2259 20.4199 37.4536 17.4717C37.4759 17.1831 37.38 17.0434 37.0768 17.0231C36.0271 16.9525 34.9786 16.8665 33.9288 16.7879C33.2184 16.7339 32.5069 16.6829 31.7524 16.6278Z" fill="black"/>
<path d="M22.4276 28.3986C20.9496 27.0994 21.1775 25.3287 22.0201 24.3741C22.4642 23.866 23.0783 23.5373 23.7473 23.4494C24.4164 23.3615 25.0945 23.5206 25.6547 23.8968C26.7031 24.6082 27.387 26.2293 26.3164 27.8647C26.4001 27.9063 26.4786 27.9492 26.5602 27.9833C28.3134 28.7213 29.2642 30.0559 29.471 31.9299C29.5398 32.3437 29.5481 32.7653 29.4957 33.1815C29.3089 34.1694 28.5417 34.786 27.5096 34.9172C25.9775 35.1114 24.4472 35.3186 22.9187 35.5386C21.9752 35.673 20.8968 35.0254 20.6216 34.0442C20.3567 33.0972 20.2603 32.119 20.5016 31.1441C20.7366 30.1624 21.2967 29.289 22.0908 28.6657C22.1976 28.5808 22.3044 28.497 22.4276 28.3986ZM21.5508 32.2397C21.5983 32.5933 21.6436 32.9473 21.6942 33.3004C21.8102 34.1064 22.2219 34.4185 23.0154 34.3087C24.5035 34.1025 25.9914 33.8971 27.4792 33.6925C27.6123 33.6777 27.741 33.636 27.8576 33.5701C27.9741 33.5042 28.0762 33.4154 28.1575 33.309C28.2389 33.2026 28.2979 33.0809 28.3309 32.9511C28.364 32.8213 28.3705 32.6862 28.3499 32.5539C28.3153 32.3143 28.2771 32.076 28.2469 31.837C28.1553 31.0166 27.7611 30.2599 27.1413 29.7146C26.5215 29.1694 25.7207 28.8749 24.8953 28.8886C22.9793 28.9415 21.5734 30.3995 21.5508 32.2397ZM25.654 26.1923C25.6532 25.7834 25.4935 25.3908 25.2085 25.0976C24.9235 24.8044 24.5357 24.6335 24.1269 24.6211C23.7127 24.6246 23.3162 24.7893 23.0213 25.0801C22.7263 25.371 22.5562 25.7652 22.5469 26.1793C22.5506 26.9836 23.2559 27.7209 24.0352 27.7357C24.2432 27.7417 24.4503 27.7064 24.6445 27.6319C24.8387 27.5574 25.0162 27.445 25.1668 27.3015C25.3173 27.1579 25.4379 26.9858 25.5215 26.7954C25.6051 26.6049 25.6501 26.3997 25.654 26.1917V26.1923Z" fill="black"/>
<path d="M17.4245 19.0068C17.4173 18.8522 17.4706 18.7008 17.573 18.5846C17.6754 18.4685 17.8189 18.3966 17.9732 18.3843C19.2221 18.2103 20.4723 18.044 21.7218 17.8753C23.6691 17.6124 25.6164 17.3499 27.5639 17.088C27.7196 17.0629 27.8766 17.0471 28.0342 17.0406C28.1881 17.0296 28.3401 17.0793 28.4579 17.179C28.5756 17.2787 28.6496 17.4204 28.6642 17.574C28.6759 17.6499 28.6726 17.7273 28.6543 17.8019C28.636 17.8764 28.6032 17.9467 28.5578 18.0085C28.5123 18.0704 28.4551 18.1227 28.3893 18.1624C28.3236 18.202 28.2507 18.2284 28.1748 18.2398C27.5945 18.3379 27.0102 18.4115 26.4271 18.4905C24.2927 18.7807 22.1583 19.0694 20.0239 19.3567C19.3989 19.4413 18.7744 19.528 18.1491 19.6083C18.0608 19.6242 17.9701 19.6207 17.8833 19.5978C17.7965 19.575 17.7158 19.5335 17.6468 19.4762C17.5778 19.4189 17.5221 19.3472 17.4837 19.2661C17.4453 19.185 17.4251 19.0965 17.4245 19.0068Z" fill="black"/>
<path d="M25.2134 19.9623C25.3766 19.9514 25.5376 20.0048 25.6619 20.1111C25.7862 20.2174 25.8639 20.3681 25.8785 20.531C25.9051 20.8713 25.6598 21.1461 25.264 21.2023C24.6299 21.2926 23.9936 21.3755 23.358 21.46C22.7952 21.5347 22.2318 21.6055 21.6693 21.6811C21.2581 21.7362 20.9446 21.531 20.9007 21.1731C20.8543 20.7912 21.0708 20.5235 21.4884 20.465C22.6756 20.2988 23.8628 20.1353 25.0502 19.9744C25.1115 19.9659 25.1751 19.9654 25.2134 19.9623Z" fill="black"/>
</g>
<defs>
<clipPath id="clip0_2915_2548">
<rect width="52.6758" height="52.6758" fill="white"/>
</clipPath>
</defs>
</svg>
