<svg width="53" height="52" viewBox="0 0 53 52" fill="none" xmlns="http://www.w3.org/2000/svg">
<g clip-path="url(#clip0_2915_2564)">
<path d="M26.3389 52.6758C40.8849 52.6758 52.6768 40.8839 52.6768 26.3379C52.6768 11.7919 40.8849 0 26.3389 0C11.7929 0 0.000976562 11.7919 0.000976562 26.3379C0.000976562 40.8839 11.7929 52.6758 26.3389 52.6758Z" fill="white"/>
<path d="M16.2959 35.7263V29.0828C16.2987 29.0551 16.3024 29.0278 16.3043 29.0001C16.3058 28.7442 16.323 28.4886 16.3558 28.2348C16.6314 26.7655 17.4873 25.7991 18.9077 25.3333C19.0213 25.2963 19.1388 25.2714 19.2568 25.2405V25.1599C19.2568 23.6326 19.2568 22.1053 19.2568 20.5781C19.2546 20.0741 19.3017 19.5712 19.3976 19.0764C19.6062 18.0017 20.0618 16.9903 20.7284 16.1219C21.3951 15.2536 22.2544 14.552 23.2387 14.0728C24.0001 13.7009 24.8209 13.4658 25.6637 13.3782C25.8029 13.3627 25.9421 13.3527 26.0804 13.3398H26.6236C26.6398 13.3439 26.6564 13.3467 26.6731 13.3484C27.1183 13.3681 27.5605 13.4331 27.9927 13.5421C29.5235 13.9189 30.8878 14.7891 31.8748 16.0185C32.5625 16.8556 33.0324 17.8498 33.2426 18.9126C33.3486 19.4931 33.4025 20.0819 33.404 20.6719C33.4154 21.223 33.418 21.7745 33.4194 22.3256C33.4225 22.9891 33.4213 23.6525 33.4216 24.3157C33.4216 24.445 33.42 24.5742 33.42 24.7035C33.42 24.8818 33.42 25.0604 33.42 25.2401C33.4476 25.2471 33.4702 25.2533 33.4929 25.2589C34.0312 25.3765 34.5374 25.6099 34.9764 25.9428C35.8905 26.6662 36.3086 27.6387 36.3623 28.7829C36.3802 29.1738 36.3743 29.5665 36.3777 29.9584C36.3809 30.3741 36.3824 30.7898 36.3821 31.2055C36.3813 32.6186 36.3821 34.0314 36.376 35.4445C36.3782 35.7156 36.3619 35.9866 36.3271 36.2554C36.2206 37.0621 35.8323 37.8051 35.2309 38.3532C34.5433 38.9931 33.6353 39.3431 32.6961 39.3302C31.9184 39.3362 31.1409 39.3335 30.3631 39.3331C26.9123 39.3325 23.4614 39.3319 20.0105 39.3313C19.6679 39.3318 19.3266 39.2883 18.9951 39.2018C18.2903 39.0244 17.6571 38.6346 17.1813 38.0853C16.7054 37.536 16.41 36.8537 16.3349 36.1308C16.3182 35.9961 16.3087 35.8607 16.2959 35.7263ZM26.3452 37.9657C28.3746 37.9657 30.4037 37.9657 32.4327 37.9657C32.6912 37.9739 32.9499 37.9557 33.2047 37.9113C33.6527 37.8298 34.0647 37.6121 34.3844 37.2878C34.7799 36.8757 35.003 36.3279 35.0078 35.7567C35.0247 35.2854 35.0196 34.8132 35.0193 34.3421C35.0187 32.6209 35.0172 30.8997 35.0148 29.1786C35.0251 28.8987 35.007 28.6186 34.9607 28.3424C34.9074 28.027 34.7838 27.7276 34.5991 27.4664C34.4143 27.2052 34.1732 26.989 33.8935 26.8337C33.5135 26.626 33.086 26.5208 32.6531 26.5282C28.4461 26.527 24.2392 26.5274 20.0323 26.5294C19.8602 26.5296 19.6884 26.5448 19.519 26.5749C18.4239 26.7692 17.7038 27.6296 17.6678 28.7557C17.6542 29.1864 17.6594 29.617 17.6588 30.0481C17.6576 30.8016 17.6576 31.5557 17.6588 32.3102C17.6599 33.3764 17.6615 34.4427 17.6636 35.509C17.66 35.7612 17.687 36.0128 17.744 36.2584C17.8126 36.5868 17.9593 36.8939 18.1717 37.1536C18.3842 37.4133 18.656 37.618 18.9643 37.7503C19.3182 37.9004 19.6998 37.9739 20.0841 37.9659C22.1708 37.9653 24.2578 37.9652 26.3452 37.9657ZM20.6139 25.1504H32.0551V25.077C32.0567 24.8337 32.0583 24.5904 32.0601 24.347C32.0641 23.8152 32.0703 23.2832 32.0723 22.7514C32.0738 22.4025 32.0738 22.0536 32.0672 21.7048C32.0577 21.2164 32.0424 20.7279 32.0291 20.2396C31.986 18.7543 31.3648 17.3446 30.2978 16.3104C29.2308 15.2762 27.8023 14.6994 26.3164 14.7026C25.9222 14.7057 25.5295 14.7518 25.1453 14.8401C23.8615 15.1173 22.7116 15.8264 21.8874 16.8489C21.0631 17.8714 20.6144 19.1456 20.616 20.459C20.6046 21.3441 20.6125 22.2294 20.6123 23.1146C20.6123 23.7696 20.6129 24.4244 20.614 25.0788C20.6139 25.0999 20.6139 25.1214 20.6139 25.1504Z" fill="black"/>
<path d="M24.6803 33.4468C24.6803 33.2621 24.6927 33.0756 24.6772 32.8926C24.6492 32.6587 24.5684 32.4342 24.441 32.236C24.2319 31.8828 24.1418 31.4717 24.184 31.0634C24.2255 30.5846 24.432 30.135 24.7682 29.7916C24.9853 29.5562 25.2526 29.3727 25.5504 29.2549C25.8482 29.1371 26.1687 29.0879 26.4881 29.111C26.9608 29.146 27.4092 29.3346 27.7648 29.6481C28.1204 29.9616 28.3637 30.3828 28.4576 30.8475C28.5568 31.3496 28.4622 31.8708 28.1929 32.3061C28.0481 32.5522 27.9807 32.8361 27.9993 33.121C28.0293 33.4756 28.0096 33.8325 27.9408 34.1816C27.8575 34.4982 27.6803 34.7822 27.4324 34.9961C27.1845 35.2101 26.8777 35.3439 26.5522 35.3799C26.3048 35.4139 26.0529 35.3916 25.8153 35.3148C25.5777 35.238 25.3604 35.1086 25.1797 34.9362C25.0199 34.786 24.8933 34.6041 24.8078 34.4021C24.7224 34.2001 24.6801 33.9825 24.6836 33.7632C24.6822 33.6574 24.6836 33.5519 24.6836 33.4462L24.6803 33.4468ZM26.0406 33.0699C26.0406 33.2937 26.0381 33.5184 26.042 33.7417C26.0375 33.7883 26.0457 33.8353 26.0657 33.8776C26.0857 33.92 26.1168 33.9561 26.1557 33.9822C26.2085 34.0121 26.268 34.0285 26.3287 34.03C26.3894 34.0315 26.4496 34.018 26.5038 33.9907C26.5485 33.9659 26.5849 33.9284 26.6084 33.8829C26.6319 33.8375 26.6414 33.7861 26.6358 33.7352C26.6418 33.5866 26.6445 33.4381 26.6438 33.2896C26.6427 33.048 26.6358 32.8075 26.6354 32.5663C26.6321 32.414 26.6593 32.2627 26.7154 32.1212C26.7716 31.9796 26.8555 31.8508 26.9623 31.7422C27.0026 31.7007 27.0371 31.6539 27.0648 31.603C27.1118 31.5105 27.1382 31.4089 27.1422 31.3053C27.1463 31.2016 27.1279 31.0983 27.0883 31.0024C27.0359 30.851 26.9389 30.719 26.8101 30.6238C26.6812 30.5286 26.5265 30.4746 26.3664 30.469C26.2063 30.4634 26.0482 30.5065 25.913 30.5925C25.7779 30.6785 25.6719 30.8034 25.6091 30.9508C25.5403 31.092 25.5188 31.2515 25.5477 31.4059C25.5766 31.5602 25.6543 31.7012 25.7695 31.8079C25.8586 31.8917 25.9288 31.9936 25.9753 32.1067C26.0219 32.2198 26.0439 32.3415 26.0397 32.4637C26.0414 32.6657 26.0406 32.8675 26.0406 33.0699Z" fill="black"/>
</g>
<defs>
<clipPath id="clip0_2915_2564">
<rect width="52.6758" height="52.6758" fill="white"/>
</clipPath>
</defs>
</svg>
