<svg width="19" height="19" viewBox="0 0 19 19" fill="none" xmlns="http://www.w3.org/2000/svg">
<path fill-rule="evenodd" clip-rule="evenodd" d="M15.1026 8.11613C14.945 8.67772 14.5626 8.92093 14.1034 9.06573C13.589 9.22813 13.0642 9.23693 12.5442 9.09453C12.0426 8.95693 11.6178 8.71693 11.453 8.16253C11.0506 8.94173 10.2978 9.30173 9.3258 9.17213C9.077 9.13853 8.8258 9.07773 8.5906 8.98973C8.2066 8.84573 7.9138 8.59373 7.7922 8.14173C7.7634 8.20653 7.7458 8.24173 7.7322 8.27773C7.5994 8.63853 7.3226 8.85533 6.9826 8.99133C6.3186 9.25533 5.6442 9.26333 4.9746 9.01053C4.5234 8.84013 4.3386 8.64733 4.1162 8.15133C3.9826 8.62493 3.6482 8.87533 3.2282 9.02973C2.8154 9.18173 2.3858 9.22653 1.9522 9.17213C1.1298 9.06973 0.706597 8.63373 0.544997 7.73693C0.508197 7.53133 0.471397 7.32093 0.475397 7.11373C0.479397 6.89693 0.500197 6.66893 0.570597 6.46573C1.137 4.84973 1.7178 3.23853 2.2938 1.62573C2.4682 1.13933 2.749 0.760926 3.2978 0.667326C3.4034 0.648926 3.513 0.649726 3.6202 0.649726C7.6106 0.648926 11.601 0.648926 15.5914 0.648926C16.2698 0.648926 16.661 0.908126 16.897 1.54413C17.1842 2.31693 17.4562 3.09533 17.7338 3.87133C18.0314 4.70173 18.3162 5.53613 18.629 6.36013C18.7482 6.67453 18.793 6.98413 18.7346 7.30893C18.6778 7.61933 18.633 7.93693 18.5314 8.23373C18.3442 8.78172 17.9402 9.08572 17.3626 9.16092C16.9146 9.21933 16.4754 9.19293 16.0466 9.04573C15.609 8.89613 15.2538 8.65133 15.1026 8.11613Z" fill="#424242"/>
<path fill-rule="evenodd" clip-rule="evenodd" d="M7.7898 12.8593C6.5506 12.8593 5.3466 12.8593 4.1282 12.8593C4.1282 14.8865 4.1282 16.9041 4.1282 18.9513C3.9146 18.9513 3.7146 18.9553 3.5138 18.9505C3.2226 18.9433 2.925 18.9625 2.641 18.9121C2.089 18.8137 1.6866 18.3217 1.685 17.7609C1.6794 15.3273 1.6826 12.8945 1.6826 10.4609C1.6826 10.4361 1.6882 10.4121 1.6922 10.3793C2.057 10.3793 2.417 10.3953 2.7746 10.3753C3.2034 10.3505 3.6066 10.2169 3.9962 10.0353C4.0674 10.0017 4.181 10.0033 4.2538 10.0361C5.3858 10.5417 6.5138 10.5433 7.6466 10.0385C7.7242 10.0041 7.8442 10.0049 7.9218 10.0401C9.0482 10.5393 10.1722 10.5465 11.2946 10.0353C11.4034 9.98573 11.4842 9.98653 11.5938 10.0361C12.7162 10.5449 13.8402 10.5417 14.9658 10.0377C15.0354 10.0065 15.1426 9.99213 15.2066 10.0225C15.9018 10.3577 16.6306 10.4665 17.3938 10.3801C17.4362 10.3753 17.4802 10.3793 17.5434 10.3793C17.5434 10.4449 17.5434 10.5073 17.5434 10.5689C17.5434 12.9137 17.5434 15.2577 17.5434 17.6017C17.5434 18.4537 17.0474 18.9497 16.1946 18.9497C13.469 18.9497 10.7434 18.9497 8.0178 18.9497C7.949 18.9497 7.8794 18.9497 7.7898 18.9497C7.7898 16.9193 7.7898 14.8961 7.7898 12.8593ZM15.0898 16.5025C15.0898 15.2785 15.0898 14.0697 15.0898 12.8657C13.461 12.8657 11.845 12.8657 10.233 12.8657C10.233 14.0849 10.233 15.2897 10.233 16.5025C11.8538 16.5025 13.465 16.5025 15.0898 16.5025Z" fill="#424242"/>
</svg>
