<svg width="18" height="20" viewBox="0 0 18 20" fill="none" xmlns="http://www.w3.org/2000/svg">
<path fill-rule="evenodd" clip-rule="evenodd" d="M9.60741 17.5128C9.21941 17.5608 8.83301 17.6176 8.44421 17.6552C6.91381 17.8032 5.42261 17.58 3.95381 17.1656C2.85941 16.8568 1.80021 16.452 0.777008 15.9552C0.682608 15.9096 0.611408 15.872 0.617008 15.7368C0.697808 13.8352 1.16981 12.0584 2.35061 10.532C3.71061 8.77358 5.51061 7.86718 7.74821 7.96558C9.71621 8.05278 11.2842 8.95438 12.4994 10.4888C12.5114 10.504 12.517 10.524 12.5322 10.5584C12.3186 10.6576 12.3034 10.8472 12.3114 11.052C12.3194 11.248 12.317 11.4448 12.3098 11.64C12.3082 11.6928 12.2722 11.7448 12.2522 11.7968C12.1954 11.7744 12.125 11.7656 12.0834 11.7272C11.929 11.5848 11.785 11.4328 11.6354 11.2848C11.3906 11.0408 11.241 11.0384 11.0018 11.2776C10.5946 11.684 10.1874 12.0904 9.78181 12.4976C9.55301 12.7272 9.55541 12.8824 9.78901 13.1168C9.93701 13.2656 10.089 13.4104 10.2314 13.564C10.2714 13.6072 10.2842 13.6752 10.3098 13.7312C10.253 13.7544 10.197 13.796 10.1402 13.7976C9.90341 13.8056 9.66661 13.7984 9.42981 13.8016C9.18821 13.8056 9.06501 13.9248 9.06341 14.164C9.05941 14.7864 9.06021 15.4088 9.06341 16.0312C9.06501 16.2728 9.18581 16.3944 9.42501 16.3984C9.66821 16.4032 9.91221 16.396 10.1554 16.4024C10.2074 16.404 10.2842 16.4312 10.301 16.468C10.317 16.5048 10.2834 16.5808 10.249 16.6184C10.1066 16.772 9.94581 16.9096 9.80981 17.0688C9.71141 17.1848 9.64101 17.3256 9.55861 17.456C9.57621 17.4752 9.59221 17.4944 9.60741 17.5128Z" fill="#424242"/>
<path fill-rule="evenodd" clip-rule="evenodd" d="M7.41061 7.30238C5.62181 7.29198 4.17941 5.82158 4.19061 4.01918C4.20181 2.23198 5.67541 0.791183 7.47861 0.804783C9.25781 0.818383 10.6978 2.28558 10.689 4.07678C10.6794 5.86798 9.21221 7.31198 7.41061 7.30238Z" fill="#424242"/>
<path fill-rule="evenodd" clip-rule="evenodd" d="M11.337 18.3128C11.021 17.9952 10.725 17.6984 10.4058 17.3792C10.5642 17.2248 10.7282 17.0584 10.8986 16.9C11.0594 16.7512 11.1018 16.5888 10.993 16.392C10.9538 16.3216 10.9226 16.2456 10.8938 16.1704C10.7314 15.752 10.7314 15.7512 10.2746 15.7512C10.0986 15.7512 9.92341 15.7512 9.73061 15.7512C9.73061 15.3224 9.73061 14.9008 9.73061 14.4512C9.96021 14.4512 10.1946 14.444 10.4282 14.4536C10.6514 14.4624 10.7826 14.3624 10.8506 14.1544C10.8906 14.0328 10.9426 13.9144 10.9994 13.8C11.0898 13.6184 11.0666 13.464 10.9178 13.3232C10.7458 13.1608 10.5786 12.9936 10.4218 12.8408C10.7322 12.5328 11.0322 12.2352 11.3562 11.9144C11.485 12.0472 11.6418 12.2104 11.8018 12.3712C12.0034 12.5736 12.0858 12.5872 12.3394 12.4712C12.401 12.4432 12.4618 12.4128 12.5242 12.3888C12.9634 12.2168 12.9634 12.2176 12.9634 11.7424C12.9634 11.5736 12.9634 11.4048 12.9634 11.2192C13.3914 11.2192 13.8138 11.2192 14.2634 11.2192C14.2634 11.4488 14.2706 11.6832 14.261 11.9176C14.2522 12.1416 14.3522 12.272 14.5602 12.34C14.6818 12.3792 14.801 12.4312 14.9146 12.4888C15.097 12.58 15.2506 12.5552 15.3914 12.4072C15.5546 12.236 15.7234 12.0696 15.8738 11.9176C16.1802 12.224 16.4786 12.5232 16.8026 12.848C16.6602 12.9856 16.4898 13.1552 16.3138 13.3192C16.1658 13.4576 16.1306 13.6112 16.225 13.7936C16.265 13.8712 16.301 13.952 16.333 14.0336C16.4962 14.4528 16.4962 14.4536 16.953 14.4528C17.129 14.4528 17.3042 14.4528 17.4962 14.4528C17.4962 14.8816 17.4962 15.304 17.4962 15.7528C17.2658 15.7528 17.0314 15.76 16.7978 15.7504C16.5738 15.7416 16.4434 15.8408 16.3754 16.0496C16.3354 16.1712 16.2842 16.2904 16.2266 16.4048C16.1354 16.5872 16.1594 16.7408 16.3082 16.8808C16.4802 17.0432 16.6482 17.2104 16.801 17.3584C16.4906 17.6688 16.1914 17.9672 15.865 18.2936C15.7466 18.1704 15.6018 18.0136 15.4522 17.8624C15.2138 17.6216 15.1482 17.6112 14.8482 17.7488C14.781 17.78 14.713 17.8096 14.6434 17.836C14.2794 17.9752 14.2618 18.0008 14.2618 18.4008C14.2618 18.5768 14.261 18.7528 14.2602 18.9288C14.2602 18.9424 14.2562 18.9552 14.2498 19.0016C14.0426 19.0016 13.829 19.0016 13.6162 19.0016C13.4074 19.0016 13.1986 19.0016 12.9618 19.0016C12.9618 18.7832 12.9618 18.576 12.9618 18.3696C12.9618 18.0112 12.929 17.964 12.589 17.8376C12.5514 17.8232 12.5114 17.8128 12.4754 17.7952C12.0074 17.556 11.981 17.6504 11.677 17.9576C11.5642 18.0704 11.4546 18.1896 11.337 18.3128ZM13.6266 13.8016C12.9074 13.7968 12.3186 14.3752 12.3146 15.092C12.3106 15.8104 12.8922 16.3968 13.6098 16.3992C14.3178 16.4016 14.905 15.824 14.9122 15.1184C14.9194 14.3992 14.3418 13.8072 13.6266 13.8016Z" fill="#424242"/>
<path fill-rule="evenodd" clip-rule="evenodd" d="M14.2626 15.0944C14.2658 15.448 13.9778 15.744 13.625 15.7504C13.2722 15.756 12.9722 15.4688 12.9642 15.1176C12.9562 14.7544 13.249 14.4528 13.6114 14.452C13.9642 14.4504 14.2594 14.7416 14.2626 15.0944Z" fill="#424242"/>
</svg>
