<svg width="23" height="23" viewBox="0 0 23 23" fill="none" xmlns="http://www.w3.org/2000/svg">
<g clip-path="url(#clip0_503_1167)">
<path fill-rule="evenodd" clip-rule="evenodd" d="M22.9916 3.473C22.9846 3.13162 22.8432 2.80674 22.5979 2.56885C22.3527 2.33095 22.0234 2.19923 21.6816 2.20225C21.4074 2.20397 21.1405 2.29033 20.9174 2.4495C20.1644 2.93743 19.2818 3.18786 18.3844 3.16825C17.126 3.1625 15.483 2.69675 14.9945 1.37425C14.8612 0.979812 14.6092 0.63612 14.2729 0.390145C13.9367 0.14417 13.5326 0.00791401 13.1158 0H9.89204C9.47458 0.00777595 9.06967 0.143891 8.73246 0.389803C8.39525 0.635714 8.14213 0.979468 8.00756 1.37425C7.51824 2.69675 5.87583 3.16825 4.6174 3.16825C3.72013 3.18688 2.83787 2.93653 2.08442 2.4495C1.86144 2.29031 1.59459 2.20394 1.3205 2.20225C0.978612 2.19915 0.649281 2.33084 0.403987 2.56874C0.158692 2.80664 0.017222 3.13157 0.0102645 3.473C-0.242457 14.9557 3.58981 21.5222 11.3983 22.9942C11.4325 22.999 11.4671 23.0009 11.5016 23C11.5382 23.0008 11.5747 22.9989 11.611 22.9942C13.5112 22.6651 15.3146 21.9188 16.8911 20.8093C17.198 20.867 17.5097 20.8958 17.822 20.8955C19.1941 20.8921 20.509 20.3455 21.4783 19.3755C22.4476 18.4054 22.9923 17.091 22.993 15.7205C22.9953 14.6533 22.6639 13.612 22.0451 12.742C22.7567 10.1315 23.0722 7.04183 22.9916 3.473ZM18.1884 19.7225C18.0665 19.7389 17.9435 19.7466 17.8205 19.7455C17.4088 19.7475 16.9995 19.6834 16.6082 19.5558C16.0813 19.3905 15.5947 19.1175 15.1793 18.7542C14.7638 18.3909 14.4286 17.9452 14.1949 17.4455C14.0188 17.0912 13.9022 16.7105 13.8495 16.3185C13.8149 16.121 13.7976 15.921 13.7977 15.7205C13.7986 14.864 14.0724 14.0301 14.5796 13.3395C15.0868 12.6489 15.8009 12.1376 16.6185 11.8795H16.6243C17.0108 11.757 17.4139 11.6949 17.8194 11.6955H17.8712C18.4166 11.7029 18.9548 11.8215 19.4527 12.044C19.9506 12.2664 20.3978 12.5881 20.7669 12.9892C21.1151 13.3599 21.3866 13.7957 21.5656 14.2715C21.7485 14.7327 21.8421 15.2244 21.8413 15.7205C21.8416 16.7224 21.4672 17.6882 20.7914 18.4286C20.1156 19.169 19.1872 19.6304 18.1884 19.7225ZM21.1071 11.73C20.2678 11.0358 19.2299 10.6252 18.1424 10.557C18.3158 9.74653 18.4424 8.92676 18.5214 8.10175C18.531 8.02418 18.5237 7.94547 18.4999 7.87101C18.4761 7.79656 18.4364 7.72815 18.3835 7.6705C18.3334 7.61032 18.2712 7.56132 18.201 7.52666C18.1307 7.49199 18.054 7.47243 17.9757 7.46925C15.5003 7.36575 13.3044 6.3365 11.9483 4.64025C11.8931 4.57539 11.8244 4.52329 11.7471 4.48756C11.6697 4.45183 11.5854 4.43333 11.5002 4.43333C11.4149 4.43333 11.3307 4.45183 11.2533 4.48756C11.1759 4.52329 11.1073 4.57539 11.052 4.64025C9.69603 6.3365 7.50125 7.36575 5.02498 7.46925C4.8723 7.47531 4.72829 7.5417 4.62462 7.65382C4.52095 7.76594 4.46611 7.9146 4.47218 8.0671C4.47825 8.2196 4.54473 8.36345 4.65698 8.467C4.76923 8.57054 4.91807 8.62531 5.07075 8.61925C7.62761 8.51575 9.93175 7.521 11.5002 5.87075C13.0502 7.44019 15.1142 8.39957 17.3145 8.57325C17.2313 9.25937 17.1125 9.94071 16.9585 10.6145C15.7527 10.8215 14.6591 11.4474 13.8706 12.3817C13.0821 13.316 12.6495 14.4985 12.6492 15.7205C12.6489 16.1409 12.6991 16.5598 12.7986 16.9683C12.8893 17.3351 13.0223 17.6901 13.195 18.0262C13.6914 19.0242 14.4977 19.835 15.4934 20.3378C14.2628 21.0738 12.9104 21.584 11.4999 21.8442C4.40411 20.4527 0.922136 14.283 1.15788 3.50175C1.15966 3.4726 1.16943 3.44449 1.18611 3.4205C1.20278 3.39651 1.22572 3.37755 1.25245 3.36569C1.27917 3.35383 1.30863 3.34952 1.33763 3.35323C1.36664 3.35695 1.39408 3.36854 1.41694 3.38675C2.36346 4.01624 3.4802 4.3413 4.61712 4.31825C6.76036 4.31825 8.51271 3.31775 9.08724 1.771C9.14147 1.59763 9.24773 1.44508 9.39162 1.33401C9.53552 1.22294 9.71011 1.1587 9.89176 1.15H13.1155C13.2962 1.1597 13.4695 1.22441 13.6123 1.33543C13.755 1.44645 13.8603 1.59845 13.914 1.771C14.2251 2.56478 14.81 3.22142 15.563 3.6225C16.4272 4.09438 17.3991 4.33411 18.3838 4.31825C19.5208 4.34129 20.6377 4.01623 21.5843 3.38675C21.6119 3.36441 21.6464 3.35223 21.6819 3.35225C21.723 3.35123 21.7628 3.3663 21.7929 3.39424C21.8229 3.42218 21.8408 3.46077 21.8428 3.50175C21.9454 6.2645 21.6982 9.02913 21.1071 11.73ZM13.1953 18.0262C12.6976 18.2657 12.1755 18.4507 11.6381 18.5782C11.5476 18.6012 11.4528 18.6012 11.3623 18.5782C8.00698 17.7617 5.89828 15.226 4.90984 10.8273C4.89359 10.7538 4.89199 10.6778 4.90513 10.6037C4.91827 10.5296 4.9459 10.4588 4.98644 10.3953C5.02697 10.3319 5.07962 10.277 5.14137 10.2339C5.20313 10.1908 5.27278 10.1602 5.34636 10.144C5.41993 10.1278 5.49598 10.1262 5.57018 10.1393C5.64437 10.1524 5.71526 10.18 5.77878 10.2205C5.8423 10.261 5.89722 10.3136 5.94039 10.3753C5.98357 10.4369 6.01414 10.5065 6.03039 10.58C7.28854 16.1805 10.3223 17.135 11.4993 17.4282C11.9476 17.3221 12.383 17.1679 12.7981 16.9683C12.889 17.3351 13.0223 17.6901 13.1953 18.0262ZM17.1718 17.9604C17.0193 17.9602 16.8731 17.8996 16.7653 17.7919L15.1166 16.142C15.0166 16.0328 14.9626 15.8893 14.9659 15.7414C14.9691 15.5934 15.0293 15.4524 15.134 15.3477C15.2386 15.243 15.3797 15.1826 15.5278 15.1791C15.6759 15.1756 15.8197 15.2293 15.9292 15.3289L17.1718 16.5724L19.7131 14.0286C19.7656 13.9712 19.8292 13.9251 19.9 13.893C19.9709 13.8609 20.0475 13.8434 20.1253 13.8417C20.2031 13.8401 20.2804 13.8541 20.3526 13.8831C20.4248 13.9121 20.4904 13.9554 20.5453 14.0104C20.6003 14.0654 20.6435 14.1309 20.6724 14.2031C20.7013 14.2753 20.7152 14.3525 20.7134 14.4302C20.7116 14.5079 20.694 14.5844 20.6617 14.6551C20.6294 14.7258 20.5831 14.7893 20.5256 14.8416L17.5779 17.7919C17.5245 17.8454 17.4612 17.8878 17.3914 17.9167C17.3216 17.9456 17.2467 17.9605 17.1712 17.9604H17.1718Z" fill="black"/>
</g>
<defs>
<clipPath id="clip0_503_1167">
<rect width="23" height="23" fill="white"/>
</clipPath>
</defs>
</svg>
