<svg width="17" height="18" viewBox="0 0 17 18" fill="none" xmlns="http://www.w3.org/2000/svg">
<path fill-rule="evenodd" clip-rule="evenodd" d="M8.91767 1.89624C7.32255 0.301112 4.93383 -0.0242618 3.01333 0.912179L5.89408 3.79293C6.20358 4.10243 6.20358 4.60239 5.89408 4.91189L4.63226 6.17371C4.32276 6.49115 3.8228 6.49115 3.51329 6.17371L0.632546 3.29296C-0.295959 5.2214 0.0294144 7.59424 1.62454 9.18937C3.10062 10.6655 5.2592 11.0543 7.0924 10.3639L13.4094 16.6809C14.2268 17.4983 15.5442 17.4983 16.3536 16.6809C17.1711 15.8635 17.1711 14.5461 16.3536 13.7367L10.0684 7.44346C10.7985 5.58645 10.4176 3.39613 8.91767 1.89624Z" fill="#424242"/>
</svg>
