<svg width="20" height="16" viewBox="0 0 20 16" fill="none" xmlns="http://www.w3.org/2000/svg">
<path fill-rule="evenodd" clip-rule="evenodd" d="M17.3546 2.46012C12.4138 2.46012 7.50181 2.46012 2.57781 2.46012C2.57781 2.76812 2.57781 3.06092 2.57781 3.38332C2.64901 3.38332 2.72421 3.38332 2.79861 3.38332C7.91141 3.38332 13.0234 3.38332 18.1362 3.38332C18.8426 3.38332 19.2002 3.74252 19.2002 4.44812C19.2002 7.46172 19.2018 10.4753 19.1994 13.4889C19.1986 14.4121 18.637 15.1385 17.765 15.3433C17.6026 15.3817 17.4322 15.3953 17.2642 15.3953C12.3922 15.3977 7.52021 15.3985 2.64741 15.3969C1.51381 15.3969 0.721015 14.5985 0.720215 13.4633C0.720215 9.82412 0.720215 6.18572 0.720215 2.54572C0.721015 1.41132 1.51621 0.610524 2.64661 0.609724C7.21221 0.608124 11.777 0.608124 16.3434 0.608924C16.9698 0.609724 17.353 0.994524 17.3546 1.62252C17.3554 1.89292 17.3546 2.16172 17.3546 2.46012ZM14.581 9.38092C14.577 10.1449 15.2002 10.7745 15.9618 10.7769C16.7218 10.7793 17.3538 10.1489 17.3538 9.38812C17.353 8.63292 16.7338 8.00892 15.9786 8.00332C15.2122 7.99852 14.5842 8.61692 14.581 9.38092Z" fill="#424242"/>
</svg>
