<svg width="18" height="19" viewBox="0 0 18 19" fill="none" xmlns="http://www.w3.org/2000/svg">
<path fill-rule="evenodd" clip-rule="evenodd" d="M6.61223 13.811C6.61223 14.3198 6.61223 14.8102 6.61223 15.3006C6.61223 15.7966 6.42423 15.9822 5.92343 15.9822C5.43783 15.9822 4.95222 15.9822 4.44102 15.9822C4.44102 16.0494 4.44102 16.1086 4.44102 16.1686C4.44102 16.6318 4.44263 17.0958 4.44023 17.559C4.43863 17.9302 4.22023 18.1526 3.85143 18.1526C2.79383 18.1542 1.73703 18.155 0.680225 18.1526C0.321825 18.1518 0.0994254 17.9278 0.0994254 17.5678C0.0978254 16.499 0.103425 15.431 0.0962254 14.363C0.0938254 13.9894 0.218625 13.687 0.483425 13.4238C1.72183 12.1918 2.95543 10.955 4.19063 9.71976C4.66263 9.24776 5.13223 8.77496 5.60743 8.30616C5.68583 8.22856 5.70343 8.15976 5.67943 8.05256C4.97143 4.89816 6.89623 1.76056 10.0234 0.966959C13.333 0.126159 16.641 2.19176 17.3506 5.54136C18.0338 8.77256 15.825 12.0294 12.573 12.5974C11.7882 12.7342 11.009 12.7134 10.2306 12.5702C10.1082 12.5478 10.0218 12.5646 9.93143 12.659C9.64263 12.9614 9.33623 13.247 9.04903 13.551C8.87383 13.7374 8.67783 13.8206 8.41943 13.815C7.82583 13.8022 7.23223 13.811 6.61223 13.811ZM12.853 4.04056C12.1034 4.04136 11.4962 4.65256 11.4986 5.40296C11.501 6.14376 12.1082 6.75096 12.849 6.75336C13.5994 6.75656 14.2106 6.14856 14.2114 5.39896C14.2122 4.64936 13.6026 4.03976 12.853 4.04056Z" fill="#424242"/>
</svg>
