<svg width="19" height="19" viewBox="0 0 19 19" fill="none" xmlns="http://www.w3.org/2000/svg">
<path fill-rule="evenodd" clip-rule="evenodd" d="M16.586 11.5491C13.862 11.0771 11.2348 13.5027 11.8588 16.6043C11.7804 16.6043 11.706 16.6043 11.6316 16.6043C8.79718 16.6043 5.96278 16.6051 3.12758 16.6043C1.82918 16.6043 0.91238 15.6987 0.91158 14.4059C0.90838 10.3331 0.90838 6.2611 0.91158 2.1891C0.91238 0.921904 1.80438 0.00830356 3.06758 0.00590356C6.86518 -0.00209644 10.662 -0.00209642 14.4596 0.00670358C15.6996 0.00990358 16.5948 0.914704 16.5972 2.1579C16.6044 5.2219 16.6004 8.2859 16.5996 11.3491C16.6004 11.4147 16.5908 11.4811 16.586 11.5491ZM8.76118 10.5355C10.3188 10.5355 11.8772 10.5387 13.434 10.5339C13.8292 10.5331 14.078 10.2995 14.07 9.9667C14.0628 9.6419 13.8164 9.4307 13.4332 9.4219C13.4028 9.4211 13.3724 9.4219 13.3412 9.4219C10.2868 9.4219 7.23238 9.4211 4.17798 9.4227C4.07158 9.4227 3.96278 9.4251 3.85958 9.4483C3.53158 9.5227 3.35238 9.8699 3.47878 10.1795C3.59798 10.4723 3.84438 10.5371 4.13238 10.5371C5.67638 10.5347 7.21878 10.5363 8.76118 10.5355ZM8.74678 7.1747C10.2588 7.1747 11.7708 7.1747 13.2828 7.1747C13.382 7.1747 13.482 7.1771 13.5804 7.1667C13.8444 7.1395 14.0452 6.9331 14.0692 6.6707C14.0932 6.4139 13.9308 6.1675 13.6732 6.0995C13.5652 6.0707 13.4476 6.0667 13.334 6.0667C10.2796 6.0651 7.22518 6.0651 4.17078 6.0651C3.70358 6.0651 3.43078 6.2755 3.43718 6.6307C3.44358 6.9795 3.70358 7.1747 4.16438 7.1747C5.69158 7.1747 7.21878 7.1747 8.74678 7.1747ZM8.75478 3.8163C10.2972 3.8163 11.8396 3.8163 13.382 3.8163C13.4428 3.8163 13.5044 3.8195 13.5652 3.8123C13.854 3.7819 14.0732 3.5395 14.07 3.2563C14.0668 2.9707 13.8476 2.7371 13.5548 2.7115C13.494 2.7059 13.4324 2.7083 13.3716 2.7083C10.9436 2.7083 8.51478 2.7083 6.08678 2.7083C5.40678 2.7083 4.72758 2.7099 4.04758 2.7083C3.78438 2.7075 3.58598 2.8115 3.48198 3.0563C3.32038 3.4411 3.60278 3.8147 4.05798 3.8155C5.62358 3.8179 7.18998 3.8155 8.75478 3.8163ZM7.41558 12.7883C6.69798 12.7883 5.97958 12.7883 5.26198 12.7883C4.82678 12.7891 4.39078 12.7827 3.95638 12.7955C3.67958 12.8027 3.47078 13.0171 3.44118 13.2883C3.41238 13.5491 3.58758 13.8035 3.85718 13.8683C3.96678 13.8947 4.08358 13.8971 4.19798 13.8971C6.22998 13.8987 8.26118 13.8979 10.2932 13.8979C10.4764 13.8979 10.6596 13.9035 10.8428 13.8947C11.0732 13.8843 11.254 13.7811 11.354 13.5659C11.5292 13.1859 11.2564 12.7923 10.8084 12.7899C9.67638 12.7851 8.54598 12.7891 7.41558 12.7883Z" fill="#424242"/>
<path fill-rule="evenodd" clip-rule="evenodd" d="M15.9124 18.7219C14.2172 18.7171 12.8692 17.3531 12.8764 15.6491C12.8836 13.9611 14.2556 12.6139 15.9604 12.6211C17.6292 12.6283 18.982 14.0091 18.9756 15.6971C18.97 17.3763 17.602 18.7267 15.9124 18.7219ZM16.4756 15.1203C16.4756 14.7539 16.478 14.4195 16.4748 14.0859C16.4708 13.6867 16.254 13.4395 15.918 13.4427C15.5924 13.4459 15.3692 13.6923 15.3652 14.0715C15.3596 14.5835 15.3588 15.0947 15.366 15.6067C15.3716 16.0107 15.5892 16.2251 15.9972 16.2299C16.4396 16.2363 16.8828 16.2371 17.326 16.2291C17.6924 16.2227 17.9276 16.0019 17.9308 15.6803C17.934 15.3435 17.702 15.1291 17.318 15.1219C17.0524 15.1155 16.7852 15.1203 16.4756 15.1203Z" fill="#424242"/>
</svg>
