<svg width="14" height="18" viewBox="0 0 14 18" fill="none" xmlns="http://www.w3.org/2000/svg">
<path fill-rule="evenodd" clip-rule="evenodd" d="M0.0561523 8.74959C0.0561523 6.60159 0.0561523 4.45359 0.0561523 2.30479C0.0561523 0.978386 0.996152 0.0359863 2.31775 0.0351863C4.18175 0.0343863 6.04575 0.0383863 7.90975 0.0319863C8.28495 0.0311863 8.59055 0.152786 8.85535 0.419186C10.1586 1.72879 11.4642 3.03519 12.7738 4.33759C13.0354 4.59759 13.1562 4.89919 13.1562 5.26799C13.1522 8.59279 13.1546 11.9176 13.1538 15.2424C13.1538 16.5504 12.205 17.4976 10.8938 17.4976C8.03535 17.4984 5.17695 17.4984 2.31775 17.4976C0.996952 17.4976 0.0561523 16.5528 0.0561523 15.228C0.0561523 13.0688 0.0561523 10.9096 0.0561523 8.74959ZM4.10975 10.9512C4.15775 10.9 4.19855 10.8544 4.24175 10.8112C4.78015 10.2728 5.31935 9.73599 5.85615 9.19599C6.11215 8.93919 6.12815 8.60879 5.89855 8.38079C5.66895 8.15279 5.34015 8.17039 5.08335 8.42639C4.38335 9.12479 3.68495 9.82319 2.98655 10.5232C2.71375 10.7976 2.71295 11.1016 2.98495 11.3744C3.68335 12.0744 4.38175 12.7728 5.08175 13.4712C5.33935 13.7288 5.66655 13.748 5.89615 13.5208C6.13055 13.2896 6.11215 12.9592 5.84655 12.6936C5.31295 12.1584 4.77775 11.6256 4.24415 11.0912C4.20015 11.0472 4.15855 11.0024 4.10975 10.9512ZM9.10655 10.9448C9.05215 11.0024 9.01135 11.0472 8.96735 11.0912C8.42175 11.6376 7.87375 12.1824 7.32895 12.7304C7.09535 12.9664 7.09215 13.3016 7.31455 13.5208C7.53295 13.736 7.85775 13.732 8.09295 13.5064C8.20815 13.3968 8.31855 13.2824 8.43135 13.1696C9.03375 12.5672 9.63695 11.9656 10.2378 11.3616C10.4746 11.124 10.5002 10.8072 10.281 10.5848C9.54735 9.84079 8.80575 9.10319 8.06415 8.36719C7.92575 8.22879 7.74895 8.18959 7.55935 8.23919C7.13775 8.34879 7.01295 8.85119 7.33055 9.17119C7.91535 9.75999 8.50415 10.344 9.10655 10.9448ZM8.24895 1.72239C8.24735 1.73119 8.24335 1.74239 8.24335 1.75359C8.24255 2.43519 8.24175 3.11679 8.24255 3.79839C8.24415 4.48079 8.70575 4.94479 9.38575 4.94719C10.033 4.94879 10.681 4.94719 11.3282 4.94719C11.3762 4.94719 11.4242 4.94159 11.4682 4.93839C10.3922 3.86319 9.32175 2.79359 8.24895 1.72239Z" fill="#424242"/>
</svg>
