<svg xmlns="http://www.w3.org/2000/svg" width="15" height="15" viewBox="0 0 15 15" fill="none">
<path fill-rule="evenodd" clip-rule="evenodd" d="M1.17079 8.4733H5.93236C6.36883 8.4733 6.72595 8.11618 6.72595 7.6797V1.33095C6.72595 0.894471 6.36883 0.537354 5.93236 0.537354H1.17079C0.734315 0.537354 0.377197 0.894471 0.377197 1.33095V7.6797C0.377197 8.11618 0.734315 8.4733 1.17079 8.4733ZM1.17088 14.8221H5.93245C6.36893 14.8221 6.72604 14.465 6.72604 14.0285V10.8542C6.72604 10.4177 6.36893 10.0606 5.93245 10.0606H1.17088C0.734406 10.0606 0.377288 10.4177 0.377288 10.8542V14.0285C0.377288 14.465 0.734406 14.8221 1.17088 14.8221ZM9.10683 14.8221H13.8684C14.3049 14.8221 14.662 14.465 14.662 14.0285V7.67979C14.662 7.24332 14.3049 6.8862 13.8684 6.8862H9.10683C8.67035 6.8862 8.31323 7.24332 8.31323 7.67979V14.0285C8.31323 14.465 8.67035 14.8221 9.10683 14.8221ZM8.31323 1.33104V4.50542C8.31323 4.94189 8.67035 5.29901 9.10683 5.29901H13.8684C14.3049 5.29901 14.662 4.94189 14.662 4.50542V1.33104C14.662 0.894562 14.3049 0.537445 13.8684 0.537445H9.10683C8.67035 0.537445 8.31323 0.894562 8.31323 1.33104Z" fill="#424243"/>
</svg>