<svg width="26" height="24" viewBox="0 0 26 24" fill="none" xmlns="http://www.w3.org/2000/svg">
<g clip-path="url(#clip0_368_438)">
<path fill-rule="evenodd" clip-rule="evenodd" d="M0.504883 12C0.504883 5.37258 5.87747 0 12.5049 0C19.1323 0 24.5049 5.37258 24.5049 12C24.5049 18.6274 19.1323 24 12.5049 24C5.87747 24 0.504883 18.6274 0.504883 12ZM8.98509 9.94043H6.26562V18.1113H8.98509V9.94043ZM9.16436 7.41135C9.14671 6.6102 8.57381 6 7.6435 6C6.71319 6 6.10498 6.6102 6.10498 7.41135C6.10498 8.1959 6.69521 8.82368 7.60819 8.82368H7.62557C8.57381 8.82368 9.16436 8.1959 9.16436 7.41135ZM18.7924 13.4249C18.7924 10.9151 17.4508 9.74707 15.6613 9.74707C14.2174 9.74707 13.571 10.5401 13.21 11.0965V9.93915H10.4902C10.5261 10.7059 10.4902 18.11 10.4902 18.11H13.21V13.5467C13.21 13.3025 13.2277 13.0589 13.2996 12.8841C13.4961 12.3962 13.9436 11.8911 14.6949 11.8911C15.6794 11.8911 16.0729 12.6404 16.0729 13.7384V18.1098H18.7923L18.7924 13.4249Z" fill="white"/>
</g>
<defs>
<clipPath id="clip0_368_438">
<rect width="25" height="24" fill="white" transform="translate(0.5)"/>
</clipPath>
</defs>
</svg>
