<svg width="57" height="57" viewBox="0 0 57 57" fill="none" xmlns="http://www.w3.org/2000/svg">
<g clip-path="url(#clip0_2915_1879)">
<path d="M21.1607 37.2852C21.1607 37.1522 21.1607 36.9971 21.1607 36.8641C21.1607 34.1601 21.1607 31.434 21.1607 28.7301C21.1607 28.3533 21.0721 28.176 20.6953 28.0651C14.7554 26.1591 10.9654 20.6847 11.2314 14.4789C11.5195 7.94059 16.6837 2.42185 23.1998 1.71262C30.5802 0.914727 37.0742 5.90154 38.2045 13.2155C39.1797 19.6208 35.3454 25.8931 29.0953 27.9987C28.4304 28.2203 28.2752 28.5306 28.4082 28.996C29.2061 28.9295 30.0483 28.7079 30.8019 28.8187C31.5554 28.9517 32.2425 29.4171 33.0404 29.7717C35.1681 27.7549 38.0715 28.7522 39.0246 31.0572C39.4457 30.9021 39.8446 30.7248 40.2657 30.614C42.4599 30.1042 44.632 31.7221 44.6541 33.9828C44.6985 38.5485 44.6763 43.1364 44.6541 47.7021C44.6541 48.5443 44.3882 49.3644 43.8784 50.0293C43.0362 51.071 42.7259 52.2456 42.8589 53.5533C42.9032 53.9079 42.8589 54.2625 42.8589 54.6171C42.8589 55.5037 42.5486 55.814 41.6842 55.814C38.67 55.814 35.6557 55.814 32.6415 55.814C29.2283 55.814 25.8372 55.814 22.424 55.814C21.4488 55.814 21.1829 55.5259 21.1829 54.5728C21.1385 50.9823 21.4932 52.157 19.6314 48.9211C17.2156 44.7543 14.8662 40.5433 12.3396 36.4652C11.0319 34.3374 11.985 32.0768 14.8219 31.7665C16.7945 31.5448 18.3016 32.3427 19.3211 34.0493C19.9417 35.1132 20.518 36.1992 21.1164 37.2852C21.0942 37.3074 21.1164 37.3074 21.1607 37.2852ZM41.0193 53.9966C41.1966 51.2261 41.2188 51.2261 42.5043 48.8103C42.7037 48.4335 42.8367 47.9902 42.8367 47.5691C42.8589 43.0699 42.8589 38.5707 42.8367 34.0715C42.8367 33.0963 42.0167 32.3206 41.0636 32.3206C40.0663 32.3206 39.2684 33.0741 39.2462 34.0936C39.224 34.6477 39.2462 35.1797 39.2462 35.7338C39.2462 36.4208 38.8694 36.8419 38.3153 36.8419C37.7834 36.8198 37.451 36.4208 37.451 35.7338C37.451 34.6477 37.451 33.5396 37.451 32.4535C37.451 31.3232 36.6752 30.5031 35.6335 30.5031C34.614 30.5031 33.8605 31.3232 33.8383 32.4314C33.8383 33.5396 33.8383 34.6477 33.8383 35.7559C33.8383 36.4208 33.4837 36.8198 32.9296 36.8198C32.3755 36.8198 32.043 36.4208 32.0209 35.7559C32.0209 34.6699 32.0209 33.5617 32.0209 32.4757C32.0209 31.3232 31.2673 30.5031 30.2256 30.5031C29.1839 30.5031 28.4082 31.301 28.4082 32.4535C28.4082 33.5396 28.4082 34.6477 28.4082 35.7338C28.4082 36.3987 28.0758 36.8198 27.5217 36.8198C26.9454 36.8419 26.5908 36.4208 26.5908 35.7116C26.5908 34.5148 26.5908 33.3401 26.5908 32.1433C26.5908 29.2177 26.5908 26.3142 26.5908 23.3886C26.5908 22.5021 26.1475 21.8372 25.4161 21.5712C24.175 21.1058 22.9781 22.0145 22.9781 23.433C22.9781 29.2398 22.9781 35.0688 22.9781 40.8757C22.9781 41.053 23.0446 41.2525 22.956 41.3855C22.7565 41.6736 22.557 42.0947 22.2689 42.1612C22.0029 42.2277 21.604 41.9617 21.3159 41.7844C21.1829 41.6958 21.1385 41.452 21.0499 41.2968C19.9417 39.1913 18.8557 37.0636 17.7253 34.958C17.0604 33.739 15.7528 33.2293 14.5116 33.6504C13.4699 33.9828 13.2926 34.4483 13.8467 35.4013C16.6393 40.1886 19.4319 44.9981 22.2246 49.7855C22.7343 50.6499 23.0224 51.5586 22.9781 52.5781C22.956 53.0435 22.9781 53.509 22.9781 53.9744C29.0288 53.9966 34.9908 53.9966 41.0193 53.9966ZM28.386 26.2699C32.309 25.2725 37.0077 20.7733 36.4758 14.2794C35.9438 7.82977 30.6467 3.19758 24.2414 3.41922C18.1908 3.64085 13.1596 8.76064 13.0267 14.7891C12.9602 17.9142 13.9797 20.6625 16.0631 23.0118C17.4372 24.5633 19.1217 25.6715 21.1607 26.3364C21.1607 25.3169 21.1607 24.4082 21.1607 23.4773C21.1607 21.3052 22.7122 19.6873 24.7955 19.6873C26.8568 19.6873 28.386 21.3052 28.4082 23.4994C28.386 24.4303 28.386 25.339 28.386 26.2699Z" fill="#2356B0"/>
<path d="M23.4436 16.9598C23.2663 17.3809 23.1111 17.7799 22.9116 18.1566C22.6457 18.6886 22.1802 18.888 21.7148 18.6886C21.2272 18.4891 21.0277 18.0015 21.2494 17.4696C22.1138 15.3862 23.0003 13.325 23.9312 11.2638C24.0642 10.9756 24.4853 10.6875 24.7734 10.6875C25.0615 10.6875 25.4826 10.9978 25.6156 11.2638C26.5465 13.3028 27.4109 15.364 28.2752 17.4252C28.519 18.0015 28.3417 18.4891 27.8541 18.7107C27.3665 18.9102 26.7903 18.7329 26.6573 18.1345C26.3913 17.0928 25.7486 16.8047 24.7734 16.9598C24.3301 17.0263 23.8868 16.9598 23.4436 16.9598ZM24.2193 15.1424C24.6404 15.1424 24.9507 15.1424 25.3275 15.1424C25.1502 14.7213 24.995 14.3445 24.7734 13.8569C24.5518 14.3667 24.3966 14.7213 24.2193 15.1424Z" fill="#2356B0"/>
<path d="M17.548 16.073C17.548 16.6936 17.548 17.2255 17.548 17.7796C17.5258 18.4002 17.1712 18.7991 16.6393 18.7991C16.1074 18.7991 15.7306 18.4002 15.7306 17.7796C15.7306 15.7405 15.7306 13.7236 15.7306 11.6846C15.7306 11.0197 16.063 10.6651 16.728 10.6651C17.3264 10.6429 17.9248 10.6429 18.5232 10.6651C19.9638 10.7094 21.1163 11.8841 21.1385 13.3247C21.1607 14.7875 20.0303 16.0065 18.5675 16.073C18.2572 16.073 17.947 16.073 17.548 16.073ZM17.5923 12.4603C17.5923 13.0366 17.5923 13.6128 17.5923 14.2112C18.7892 14.3442 19.3433 14.0783 19.3433 13.369C19.3654 12.6819 18.8557 12.416 17.5923 12.4603Z" fill="#2356B0"/>
<path d="M31.09 13.658C31.7549 12.7937 32.3533 11.9736 32.9739 11.1757C33.395 10.6216 33.8826 10.5108 34.3259 10.8433C34.7913 11.1757 34.8356 11.7076 34.4145 12.2839C33.7053 13.2369 32.9739 14.1678 32.2868 15.143C32.1317 15.3646 32.043 15.6749 32.0209 15.963C31.9765 16.5836 32.0209 17.2042 31.9987 17.8248C31.9765 18.4232 31.5997 18.8222 31.0678 18.8222C30.5581 18.8 30.2034 18.4232 30.1813 17.847C30.1813 17.7805 30.1813 17.7361 30.1813 17.6696C30.4472 16.096 29.9153 14.8327 28.8515 13.7024C28.4303 13.2591 28.0979 12.7272 27.7211 12.2174C27.3443 11.7076 27.4108 11.1979 27.8319 10.8654C28.253 10.5551 28.785 10.6438 29.1617 11.1314C29.8045 11.9071 30.4251 12.7493 31.09 13.658Z" fill="#2356B0"/>
</g>
<defs>
<clipPath id="clip0_2915_1879">
<rect width="55.409" height="55.409" fill="white" transform="translate(0.659424 0.871094)"/>
</clipPath>
</defs>
</svg>
