<svg width="56" height="57" viewBox="0 0 56 57" fill="none" xmlns="http://www.w3.org/2000/svg">
<g clip-path="url(#clip0_2915_1893)">
<path d="M27.9417 5.03779C34.2805 5.03779 40.6193 5.03779 46.9581 5.03779C50.1497 5.03779 52.4325 7.29848 52.4325 10.5122C52.4325 19.7101 52.4325 28.908 52.4325 38.0837C52.4325 41.098 50.1718 43.4695 47.2906 43.4916C46.271 43.4916 45.4731 42.7824 45.4288 41.8072C45.3845 40.832 46.1159 40.0563 47.1576 39.9898C48.2658 39.9011 48.9307 39.2141 48.9307 38.1059C48.9307 28.8858 48.9307 19.6436 48.9307 10.4235C48.9307 9.24887 48.1993 8.51747 47.0246 8.51747C34.3248 8.51747 21.6473 8.51747 8.94752 8.51747C7.68419 8.51747 6.97496 9.20455 6.97496 10.4679C6.97496 19.6658 6.97496 28.8637 6.97496 38.0616C6.97496 39.2362 7.59554 39.9011 8.79237 39.9898C9.76757 40.0563 10.499 40.8542 10.4546 41.8072C10.4103 42.7603 9.63459 43.4916 8.65939 43.4916C5.84461 43.5138 3.47311 41.1423 3.47311 38.2389C3.45094 33.784 3.47311 29.3069 3.47311 24.8521C3.47311 20.0869 3.47311 15.3217 3.47311 10.5344C3.47311 7.25415 5.71163 5.01562 8.99185 5.01562C15.3085 5.01563 21.6251 5.03779 27.9417 5.03779Z" fill="#2356B0"/>
<path d="M27.9195 24.2526C31.909 24.2526 35.8984 24.2526 39.8879 24.2526C41.262 24.2526 41.9269 24.9175 41.9269 26.2917C41.9269 28.4194 41.9269 30.5471 41.9269 32.6748C41.9269 34.0711 41.262 34.736 39.8879 34.736C38.9348 34.736 38.004 34.736 37.0509 34.736C36.785 34.736 36.6742 34.8025 36.6742 35.0906C36.6963 36.5978 36.6963 38.1049 36.6742 39.6342C36.6742 39.9445 36.785 39.9888 37.0509 39.9888C38.0483 39.9666 39.0457 39.9888 40.0652 39.9888C41.1955 39.9888 41.9269 40.698 41.9269 41.8284C41.9269 42.9366 41.9269 44.0447 41.9269 45.1529C41.9269 46.2168 41.1512 46.9925 40.1538 46.9703C39.1786 46.9703 38.4472 46.1946 38.4251 45.1529C38.4251 44.7761 38.3808 44.3772 38.4251 44.0004C38.4694 43.5128 38.2921 43.4242 37.8488 43.4463C36.918 43.4685 35.9871 43.4685 35.0562 43.4463C33.9037 43.4463 33.1723 42.7371 33.1723 41.5846C33.1723 39.4569 33.1501 37.3292 33.1723 35.2015C33.1723 34.8247 33.0837 34.6917 32.7069 34.7139C31.8425 34.736 31.0003 34.736 30.1359 34.7139C29.7369 34.6917 29.6705 34.8468 29.6705 35.2015C29.6926 38.5038 29.6926 41.784 29.6705 45.0864C29.6705 46.4162 28.4958 47.2806 27.299 46.8373C26.5897 46.5714 26.1686 45.9286 26.1686 45.0864C26.1686 41.8284 26.1464 38.5703 26.1686 35.3123C26.1686 34.8247 26.0578 34.6917 25.5702 34.7139C24.7723 34.7582 23.9744 34.7582 23.1765 34.7139C22.7776 34.6917 22.6446 34.8025 22.6668 35.2236C22.6889 37.307 22.6889 39.4125 22.6668 41.4959C22.6668 42.7592 21.9797 43.4463 20.7164 43.4463C19.7412 43.4463 18.7881 43.4685 17.8129 43.4463C17.5026 43.4463 17.3918 43.535 17.414 43.8453C17.4361 44.3107 17.4361 44.754 17.414 45.2194C17.3918 46.1946 16.6161 46.9482 15.6631 46.9482C14.71 46.9482 13.9343 46.1946 13.9121 45.2194C13.89 44.0447 13.89 42.8922 13.9121 41.7176C13.9343 40.698 14.6657 39.9666 15.6852 39.9445C16.6826 39.9223 17.6799 39.9223 18.6995 39.9445C19.0984 39.9445 19.1871 39.8336 19.1871 39.4569C19.1649 37.3735 19.1871 35.2679 19.1871 33.1846C19.1871 31.8991 19.8741 31.212 21.1818 31.212C26.7227 31.212 32.2414 31.212 37.7823 31.2342C38.3364 31.2342 38.4472 31.079 38.4251 30.5693C38.3808 29.7492 38.4029 28.9292 38.4251 28.1091C38.4251 27.7988 38.3364 27.7102 38.0261 27.7102C31.3106 27.7102 24.595 27.7102 17.8794 27.7102C17.4805 27.7102 17.4361 27.8653 17.4583 28.1978C17.4805 29.727 17.4583 31.2563 17.4583 32.7856C17.4583 33.9381 16.7269 34.736 15.6852 34.7139C14.6879 34.7139 13.9565 33.916 13.9565 32.8078C13.9565 30.5914 13.9565 28.3751 13.9565 26.1365C13.9565 24.9397 14.6657 24.2305 15.8625 24.2305C19.8741 24.2526 23.9079 24.2526 27.9195 24.2526Z" fill="#2356B0"/>
<path d="M29.6926 50.4736C29.6926 51.4266 28.9169 52.2245 27.9639 52.2245C26.9887 52.2245 26.1908 51.4488 26.1908 50.4736C26.1908 49.5205 26.9665 48.7227 27.9196 48.7227C28.8948 48.7227 29.6926 49.4984 29.6926 50.4736Z" fill="#2356B0"/>
<path d="M17.4583 50.474C17.4583 51.4492 16.6604 52.2471 15.6852 52.225C14.7321 52.225 13.9564 51.4271 13.9564 50.474C13.9564 49.4988 14.7543 48.7009 15.7295 48.7231C16.6825 48.7453 17.4583 49.521 17.4583 50.474Z" fill="#2356B0"/>
<path d="M40.1981 48.7227C41.1512 48.7227 41.9269 49.5205 41.9269 50.4736C41.9269 51.4488 41.129 52.2467 40.1538 52.2467C39.2008 52.2467 38.425 51.4488 38.425 50.4957C38.425 49.4984 39.2229 48.7227 40.1981 48.7227Z" fill="#2356B0"/>
<path d="M27.9639 12.0195C28.8282 12.0195 29.7148 12.9282 29.6926 13.7926C29.6705 14.657 28.7839 15.5435 27.9195 15.5214C27.0773 15.4992 26.2129 14.6348 26.2129 13.7705C26.1908 12.9061 27.0773 12.0195 27.9639 12.0195Z" fill="#2356B0"/>
<path d="M19.2092 13.7265C19.2313 12.8622 20.1622 11.9978 21.0044 12.0199C21.8688 12.0643 22.711 12.9287 22.6888 13.793C22.6888 14.6574 21.7801 15.544 20.9158 15.5218C20.0514 15.4996 19.187 14.5909 19.2092 13.7265Z" fill="#2356B0"/>
<path d="M13.9564 15.5231C13.092 15.5231 12.2054 14.6365 12.2054 13.7721C12.2054 12.9078 13.1142 12.0212 13.9785 12.0434C14.8207 12.0655 15.6851 12.9299 15.7073 13.7721C15.7073 14.6144 14.8429 15.5231 13.9564 15.5231Z" fill="#2356B0"/>
</g>
<defs>
<clipPath id="clip0_2915_1893">
<rect width="55.409" height="55.409" fill="white" transform="translate(0.281494 0.871094)"/>
</clipPath>
</defs>
</svg>
