<svg width="56" height="57" viewBox="0 0 56 57" fill="none" xmlns="http://www.w3.org/2000/svg">
<g clip-path="url(#clip0_2915_1867)">
<path d="M20.9503 5.99219C26.0701 5.99219 31.2121 5.99219 36.3319 5.99219C38.4818 5.99219 40.0775 7.01171 40.8089 8.82913C41.0527 9.40538 41.1414 10.026 41.1414 10.6465C41.1414 15.988 41.1414 21.3072 41.1192 26.6487C41.1192 27.1584 41.2965 27.3579 41.762 27.4909C44.3773 28.2223 46.9926 28.9758 49.6079 29.7516C50.6939 30.0619 50.8712 30.8154 50.0733 31.6133C49.1424 32.5442 48.2116 33.5194 47.2364 34.4281C46.8374 34.8049 46.9039 34.9822 47.2585 35.3368C49.7187 37.7526 52.1345 40.1906 54.5725 42.6286C55.3483 43.4044 55.3261 43.7811 54.5725 44.5569C53.4643 45.665 52.334 46.7954 51.2258 47.9036C50.4279 48.7015 50.0512 48.7015 49.2533 47.9257C46.7931 45.4656 44.3329 43.0276 41.9171 40.5674C41.5847 40.235 41.4295 40.235 41.0971 40.5674C40.144 41.5648 39.1688 42.5178 38.1936 43.4708C37.4179 44.2244 36.7087 44.0471 36.3984 43.0276C35.6226 40.3901 34.8469 37.7305 34.0934 35.0708C33.9604 34.6054 33.7831 34.4724 33.2955 34.4724C24.0311 34.4946 14.7667 34.4724 5.52447 34.4946C3.57407 34.4946 2.13344 33.741 1.22473 32.0123C0.936602 31.4582 0.781457 30.8598 0.781457 30.217C0.781457 23.6344 0.759293 17.0518 0.781457 10.4692C0.781457 7.8096 2.73185 5.99219 5.52447 5.99219C10.6664 5.99219 15.8084 5.99219 20.9503 5.99219ZM20.9503 7.92042C15.7641 7.92042 10.5778 7.92042 5.39149 7.92042C3.70705 7.92042 2.6432 8.98427 2.6432 10.6687C2.6432 15.1236 2.6432 19.6006 2.6432 24.0555C2.6432 25.9173 3.70705 26.9811 5.54663 26.9811C13.9688 26.9811 22.391 26.9811 30.8353 26.9811C31.744 26.9811 31.744 26.9811 31.5002 26.1167C31.2564 25.2302 31.877 24.6096 32.7635 24.8534C34.7361 25.4075 36.6865 25.9616 38.6591 26.5379C38.9915 26.6265 39.2353 26.7595 39.2353 26.2054C39.2131 20.997 39.2353 15.7885 39.2132 10.5801C39.2132 8.89562 38.1493 7.92042 36.4649 7.89826C31.3007 7.92042 26.1366 7.92042 20.9503 7.92042ZM47.8126 31.1922C43.2248 29.8846 38.8142 28.6212 34.3815 27.3801C34.2485 27.3357 34.0712 27.1363 33.9382 27.3357C33.8496 27.4687 33.9604 27.646 34.0047 27.8012C34.7804 30.5495 35.5562 33.2756 36.3319 36.0239C36.8195 37.7083 37.3071 39.3927 37.8168 41.1658C38.7255 40.2571 39.5456 39.4371 40.3878 38.5949C41.363 37.6197 41.629 37.6197 42.6042 38.617C45.02 41.0107 47.458 43.4265 49.8738 45.8645C50.1398 46.1305 50.2728 46.1526 50.5387 45.8645C51.115 45.2439 51.7134 44.6234 52.334 44.0693C52.7108 43.7146 52.7773 43.5152 52.3562 43.1162C49.8738 40.7004 47.4358 38.2181 44.9978 35.7801C44.2886 35.0708 44.2886 34.6719 45.02 33.9405C45.9066 33.054 46.8153 32.1674 47.8126 31.1922ZM2.6432 28.1115C2.6432 28.732 2.6432 29.2418 2.6432 29.7516C2.6432 31.5468 3.70705 32.6107 5.50231 32.6107C11.3978 32.6107 17.2933 32.6107 23.1889 32.6107C26.3804 32.6107 29.572 32.6107 32.7857 32.6107C33.2733 32.6107 33.3841 32.522 33.2068 32.0344C32.9187 31.2365 32.6749 30.3943 32.4976 29.5521C32.3868 29.0202 32.143 28.8872 31.611 28.8872C23.1445 28.9094 14.678 28.8872 6.21154 28.9094C4.99254 28.9094 3.77354 28.9094 2.6432 28.1115Z" fill="#2356B0"/>
<path d="M6.01208 17.4062C6.01208 15.7217 6.01208 14.0373 6.01208 12.3529C6.01208 11.555 6.32238 11.1782 7.12027 11.2003C8.71604 11.2225 10.3118 11.0674 11.9076 11.3112C13.2374 11.5106 14.1683 12.2642 14.6559 13.5054C15.1435 14.7687 15.0105 15.9877 14.1461 17.0294C13.8358 17.4062 13.9245 17.5835 14.1683 17.8938C15.0548 19.0684 15.1878 20.3539 14.5451 21.6616C13.9023 22.9471 12.8385 23.6785 11.3314 23.6563C9.91288 23.6341 8.51657 23.6563 7.0981 23.6563C6.30021 23.6563 6.01208 23.3682 6.01208 22.5924C6.01208 20.8415 6.01208 19.1349 6.01208 17.4062ZM9.64692 16.431C9.64692 16.4531 9.64692 16.4531 9.64692 16.4753C9.93504 16.4753 10.2232 16.4753 10.5113 16.4753C10.8216 16.4753 11.1319 16.4088 11.4422 16.431C12.2622 16.4753 13.0158 15.6109 12.9936 14.7687C12.9715 13.9043 12.1736 13.1729 11.2649 13.1729C10.6664 13.1729 10.068 13.1507 9.46961 13.1729C8.95984 13.1951 8.29494 12.9291 7.98465 13.2837C7.74085 13.5719 7.89599 14.2368 7.89599 14.7244C7.91816 15.3006 7.63003 16.0542 8.02897 16.3866C8.33926 16.6526 9.09283 16.431 9.64692 16.431ZM9.80206 18.4035C9.31446 18.4035 8.8047 18.4035 8.3171 18.4035C8.05114 18.4035 7.89599 18.4257 7.89599 18.7581C7.91816 19.6447 7.91816 20.5312 7.89599 21.4399C7.89599 21.7281 8.02897 21.7724 8.27277 21.7724C9.24797 21.7724 10.2232 21.7946 11.1984 21.7502C12.2622 21.7059 13.0379 20.9302 12.9936 20.0215C12.9493 19.1128 12.1514 18.4035 11.1097 18.3814C10.6664 18.4035 10.2232 18.4035 9.80206 18.4035Z" fill="#2356B0"/>
<path d="M25.4052 17.4947C25.4052 19.157 25.4052 20.8193 25.4052 22.4815C25.4052 23.2794 25.0063 23.6784 24.3414 23.634C24.1641 23.634 23.9646 23.5897 23.8981 23.4789C23.5213 22.7697 23.078 23.1243 22.5904 23.3238C19.7092 24.4984 16.5176 22.3707 16.4733 19.2678C16.4511 16.985 16.4733 14.7021 16.4733 12.4193C16.4733 11.71 16.8279 11.2889 17.4042 11.2668C18.0247 11.2446 18.3794 11.6435 18.4015 12.4193C18.4015 14.5913 18.4015 16.7855 18.4015 18.9575C18.4015 20.4203 19.1108 21.3512 20.3741 21.6615C21.9255 22.0383 23.4327 20.8858 23.4548 19.29C23.477 17.0071 23.4548 14.7243 23.4548 12.4414C23.4548 11.5992 23.8981 11.1559 24.6073 11.2889C25.2501 11.3997 25.3831 11.8873 25.4052 12.4414C25.4274 14.1259 25.4052 15.8103 25.4052 17.4947Z" fill="#2356B0"/>
<path d="M31.4338 17.0495C32.3425 15.2543 33.1847 13.5477 34.0269 11.8411C34.2485 11.3978 34.6031 11.2205 35.0907 11.287C35.5119 11.3535 35.7335 11.6416 35.8443 12.0184C35.9551 12.3508 35.7557 12.6168 35.6227 12.9049C34.6918 14.7667 33.7831 16.6506 32.8301 18.4902C32.5198 19.0886 32.3425 19.687 32.3868 20.3741C32.4311 21.0833 32.4089 21.7925 32.3868 22.5018C32.3868 23.211 32.0322 23.6321 31.4338 23.6543C30.8132 23.6764 30.4586 23.2553 30.4364 22.5018C30.4364 22.4574 30.4364 22.4131 30.4364 22.3688C30.7024 20.2854 30.1483 18.4237 29.0844 16.6506C28.353 15.4316 27.7989 14.1018 27.1562 12.8384C26.8459 12.1957 26.9789 11.6416 27.4665 11.3978C27.9984 11.1318 28.5525 11.3535 28.8849 12.0184C29.6385 13.5255 30.3921 15.0326 31.1456 16.5619C31.2343 16.6506 31.3008 16.7836 31.4338 17.0495Z" fill="#2356B0"/>
</g>
<defs>
<clipPath id="clip0_2915_1867">
<rect width="55.409" height="55.409" fill="white" transform="translate(0.0278931 0.871094)"/>
</clipPath>
</defs>
</svg>
