<svg width="56" height="57" viewBox="0 0 56 57" fill="none" xmlns="http://www.w3.org/2000/svg">
<g clip-path="url(#clip0_2915_1932)">
<g clip-path="url(#clip1_2915_1932)">
<path d="M19.8265 31.0239H20.7574C24.8577 31.0239 28.9358 31.0239 33.036 31.0239C34.1664 31.0239 34.4323 31.2676 34.4323 32.398C34.4323 36.6091 34.4323 40.798 34.4323 45.0091C34.4323 46.0951 34.1442 46.3832 33.0139 46.3832C28.9136 46.3832 24.8355 46.3832 20.7352 46.3832H19.8265V48.8656C19.8265 49.9737 19.8265 51.0819 19.8265 52.1901C19.8265 52.6777 19.8265 53.1874 19.2946 53.4312C18.7627 53.675 18.3859 53.4312 17.987 53.0988C12.3796 48.5996 6.77216 44.1004 1.16477 39.6233C0.344718 38.9584 0.322552 38.4043 1.18693 37.7173C5.35369 34.3705 9.52045 31.046 13.6872 27.7214C15.1278 26.5689 16.5685 25.4165 18.0091 24.264C18.3859 23.9758 18.7627 23.6877 19.2724 23.9315C19.8044 24.1753 19.8487 24.6629 19.8487 25.1505C19.8265 27.1009 19.8265 29.007 19.8265 31.0239ZM3.04868 38.7146L17.8983 50.6165C17.8983 48.8877 17.8983 47.3806 17.8983 45.8513C17.8983 44.7874 18.1864 44.4993 19.2724 44.4993C23.3949 44.4993 27.4951 44.4993 31.6176 44.4993H32.482V32.9521H31.6176C27.5173 32.9521 23.4392 32.9521 19.3389 32.9521C18.1864 32.9521 17.9205 32.664 17.9205 31.5114C17.9205 30.2038 17.9205 28.874 17.9205 27.5663C17.9205 27.3668 17.8983 27.1896 17.854 26.8793L3.04868 38.7146Z" fill="#2356B0"/>
<path d="M38.5548 25.8853H37.6239C33.5236 25.8853 29.4455 25.8853 25.3453 25.8853C24.2371 25.8853 23.949 25.5972 23.949 24.489C23.949 20.2779 23.949 16.089 23.949 11.8779C23.949 10.8362 24.2593 10.5037 25.3231 10.5037C29.4234 10.5037 33.5015 10.5037 37.6018 10.5037H38.5105C38.5326 10.2378 38.5326 9.994 38.5326 9.7502C38.5326 8.0436 38.5326 6.33698 38.5326 4.63038C38.5326 4.14278 38.6213 3.69952 39.1089 3.47789C39.5965 3.27842 39.9954 3.45572 40.3722 3.81034C45.3812 8.33172 50.4123 12.8309 55.4213 17.3301C56.1305 17.9507 56.1084 18.4827 55.3991 19.1254C50.3902 23.6468 45.359 28.146 40.35 32.6452C39.9954 32.9777 39.5522 33.3101 39.131 32.9555C38.7986 32.6674 38.5991 32.2463 38.5548 31.803C38.5105 29.8526 38.5548 27.9244 38.5548 25.8853ZM40.4609 29.9412L53.5374 18.1945L40.4609 6.44779C40.4609 8.11006 40.4609 9.59503 40.4609 11.0578C40.4609 12.166 40.1949 12.432 39.0645 12.432C34.9643 12.432 30.8419 12.432 26.7416 12.432H25.9437V23.957H26.8302C30.864 23.957 34.92 23.957 38.9537 23.957C40.2614 23.957 40.483 24.1787 40.483 25.4864C40.4609 26.927 40.4609 28.3454 40.4609 29.9412Z" fill="#2356B0"/>
</g>
</g>
<defs>
<clipPath id="clip0_2915_1932">
<rect width="55.409" height="55.409" fill="white" transform="translate(0.544189 0.871094)"/>
</clipPath>
<clipPath id="clip1_2915_1932">
<rect width="55.409" height="55.409" fill="white" transform="translate(0.544189 0.871094)"/>
</clipPath>
</defs>
</svg>
