<svg width="57" height="57" viewBox="0 0 57 57" fill="none" xmlns="http://www.w3.org/2000/svg">
<g clip-path="url(#clip0_2915_1911)">
<path d="M4.90454 28.575C4.90454 21.527 4.90454 14.5011 4.90454 7.45311C4.90454 4.32804 6.89927 1.77922 9.89135 1.06998C10.4233 0.937001 10.9995 0.892663 11.5536 0.892663C21.904 0.892663 35.3352 0.870499 45.6856 0.892663C49.4977 0.892663 52.3125 3.70742 52.3125 7.51956C52.3125 21.5713 52.3125 35.6009 52.3125 49.6526C52.3125 53.4647 49.4977 56.2795 45.6856 56.2795C35.3352 56.2795 21.904 56.2795 11.5536 56.2795C7.74148 56.2795 4.92671 53.4647 4.92671 49.6526C4.90455 42.6267 4.90454 35.6008 4.90454 28.575ZM50.4508 28.6415C50.4508 21.66 50.4508 14.6784 50.4508 7.69688C50.4508 4.66047 48.5225 2.73225 45.4639 2.73225C35.2465 2.73225 21.9484 2.73225 11.7531 2.73225C8.67236 2.73225 6.74413 4.63832 6.74413 7.71907C6.74413 21.6156 6.74413 35.5344 6.74413 49.431C6.74413 52.5117 8.67236 54.44 11.7531 54.44C21.9484 54.44 35.2244 54.44 45.4196 54.44C48.5447 54.44 50.4508 52.5338 50.4508 49.4088C50.4508 42.4937 50.4508 35.5565 50.4508 28.6415Z" fill="#2356B0"/>
<path d="M28.6195 17.4956C23.4776 17.4956 18.3578 17.4956 13.2158 17.4956C11.2654 17.4956 10.1572 16.3652 10.1572 14.4148C10.1572 12.132 10.1572 9.82697 10.1572 7.54412C10.1572 5.70454 11.3097 4.57422 13.1493 4.57422C23.4554 4.57422 33.7615 4.57422 44.0675 4.57422C45.9515 4.57422 47.0818 5.70453 47.0818 7.58844C47.0818 9.89345 47.0818 12.1985 47.0818 14.5035C47.0818 16.3431 45.9293 17.4734 44.0897 17.4734C38.9256 17.4956 33.7615 17.4956 28.6195 17.4956ZM28.5973 6.41375C23.4554 6.41375 18.3356 6.41375 13.1936 6.41375C12.2849 6.41375 11.9746 6.72405 11.9746 7.63275C11.9746 9.89344 11.9746 12.1763 11.9746 14.437C11.9746 15.3457 12.2849 15.656 13.1936 15.656C23.4554 15.656 33.7393 15.656 44.0011 15.656C44.9098 15.656 45.2201 15.3457 45.2201 14.437C45.2201 12.1985 45.2201 9.9821 45.2201 7.74357C45.2201 6.67972 44.9541 6.41375 43.8902 6.41375C38.7926 6.41375 33.695 6.41375 28.5973 6.41375Z" fill="#2356B0"/>
<path d="M47.0818 42.4282C47.0818 44.8219 47.0818 47.1934 47.0818 49.5871C47.0818 51.471 45.9293 52.6014 44.0454 52.6014C42.361 52.6014 40.6543 52.6014 38.9699 52.6014C37.1525 52.6014 36 51.4488 36 49.6536C36 44.8441 36 40.0346 36 35.2251C36 33.4298 37.1747 32.2773 38.9699 32.2773C40.6765 32.2773 42.3831 32.2773 44.1119 32.2773C45.9515 32.2773 47.0818 33.4299 47.0818 35.2694C47.0818 37.6631 47.0818 40.0346 47.0818 42.4282ZM45.2201 42.4947C45.2201 40.1011 45.2201 37.6852 45.2201 35.2916C45.2201 34.4715 44.8876 34.1391 44.0675 34.1391C42.3831 34.1391 40.6765 34.1391 38.9921 34.1391C38.172 34.1391 37.8396 34.4715 37.8396 35.2916C37.8396 40.0567 37.8396 44.8219 37.8396 49.6093C37.8396 50.4293 38.172 50.7618 38.9921 50.7618C40.6765 50.7618 42.3388 50.7618 44.0232 50.7618C44.9319 50.7618 45.2422 50.4515 45.2422 49.5428C45.22 47.1713 45.2201 44.8441 45.2201 42.4947Z" fill="#2356B0"/>
<path d="M15.6761 30.4163C14.7673 30.4163 13.8586 30.4163 12.9721 30.4163C11.4428 30.4607 10.1795 29.2417 10.1352 27.7346C10.1352 27.6902 10.1352 27.6681 10.1352 27.6238C10.113 26.4048 10.113 25.2079 10.1352 23.9889C10.113 22.4596 11.332 21.2185 12.8391 21.1963C12.8834 21.1963 12.9278 21.1963 12.9499 21.1963C14.7673 21.1741 16.5626 21.1741 18.38 21.1963C19.9093 21.152 21.1726 22.3488 21.217 23.8781C21.217 23.9224 21.217 23.9668 21.217 24.0111C21.2391 25.2301 21.2391 26.4269 21.217 27.6459C21.2391 29.1752 20.0201 30.4164 18.513 30.4385C18.4687 30.4385 18.4465 30.4385 18.4022 30.4385C17.4935 30.4385 16.5848 30.4163 15.6761 30.4163ZM15.6761 28.5767C16.5404 28.5767 17.4048 28.5767 18.2692 28.5767C19.0228 28.5767 19.3552 28.2443 19.3552 27.4908C19.3552 26.3826 19.3552 25.2522 19.3552 24.144C19.3552 23.3905 19.0228 23.058 18.2692 23.058C16.5404 23.058 14.8117 23.058 13.0829 23.058C12.3293 23.058 11.9969 23.3905 11.9969 24.144C11.9969 25.2522 11.9969 26.3826 11.9969 27.4908C11.9969 28.2443 12.3293 28.5767 13.0829 28.5767C13.9473 28.5767 14.8117 28.5767 15.6761 28.5767Z" fill="#2356B0"/>
<path d="M28.6417 21.197C29.5504 21.197 30.4591 21.197 31.3457 21.197C32.875 21.1748 34.1161 22.3938 34.1383 23.923C34.1383 23.9452 34.1383 23.9674 34.1383 23.9895C34.1604 25.2307 34.1604 26.4497 34.1383 27.6909C34.1383 29.198 32.9193 30.4391 31.4122 30.4613H31.39C29.5282 30.4835 27.6665 30.4835 25.8048 30.4613C24.2976 30.4613 23.0565 29.2202 23.0786 27.713V27.6909C23.0565 26.4497 23.0565 25.2307 23.0786 23.9895C23.0786 22.4603 24.2976 21.2413 25.8269 21.2191C26.7578 21.1748 27.6887 21.197 28.6417 21.197ZM28.553 28.5774C29.4396 28.5774 30.3261 28.5774 31.2127 28.5774C31.9662 28.5774 32.2987 28.245 32.2987 27.4914C32.2987 26.3832 32.2987 25.2529 32.2987 24.1447C32.2987 23.3911 31.9662 23.0587 31.2127 23.0587C29.4839 23.0587 27.7552 23.0587 26.0264 23.0587C25.2728 23.0587 24.9404 23.3911 24.9404 24.1447C24.9404 25.2529 24.9404 26.3832 24.9404 27.4914C24.9404 28.245 25.2728 28.5774 26.0264 28.5774C26.8465 28.5774 27.7108 28.5774 28.553 28.5774Z" fill="#2356B0"/>
<path d="M41.5188 21.197C42.4496 21.197 43.3583 21.197 44.2892 21.197C45.8185 21.1748 47.0597 22.3938 47.0597 23.923C47.0597 23.9452 47.0597 23.9674 47.0597 23.9895C47.0818 25.2307 47.0818 26.4497 47.0597 27.6909C47.0597 29.198 45.8407 30.4392 44.3335 30.4392H44.3114C42.4718 30.4613 40.6101 30.4613 38.7705 30.4392C37.2633 30.4613 36 29.2424 36 27.7352C36 27.7131 36 27.6909 36 27.6687C35.9779 26.4276 35.9779 25.2086 36 23.9674C36 22.4381 37.2412 21.2191 38.7483 21.2191C39.6792 21.1748 40.5879 21.197 41.5188 21.197ZM41.5409 28.5774C42.4053 28.5774 43.2697 28.5774 44.1341 28.5774C44.8876 28.5774 45.2201 28.245 45.2201 27.4914C45.2201 26.3832 45.2201 25.2529 45.2201 24.1447C45.2201 23.3911 44.8876 23.0587 44.1341 23.0587C42.4053 23.0587 40.6765 23.0587 38.9478 23.0587C38.1942 23.0587 37.8618 23.3911 37.8618 24.1447C37.8618 25.2529 37.8618 26.3832 37.8618 27.4914C37.8618 28.245 38.1942 28.5774 38.9478 28.5774C39.79 28.5774 40.6544 28.5774 41.5409 28.5774Z" fill="#2356B0"/>
<path d="M15.7425 32.2755C16.6513 32.2755 17.56 32.2533 18.4465 32.2755C19.9758 32.2755 21.1948 33.4944 21.217 35.0016C21.2391 36.2427 21.2391 37.5061 21.217 38.7472C21.217 40.2544 19.9758 41.4955 18.4687 41.4955H18.4465C16.6069 41.5177 14.7452 41.5177 12.9056 41.4955C11.3985 41.5177 10.1573 40.2765 10.1352 38.7694C10.1352 38.7472 10.1352 38.7251 10.1352 38.7029C10.113 37.4839 10.113 36.2871 10.1352 35.0681C10.113 33.5388 11.332 32.2976 12.8613 32.2755C12.9056 32.2755 12.9278 32.2755 12.9721 32.2755C13.8808 32.2533 14.8117 32.2755 15.7425 32.2755ZM15.6539 39.6559C16.5404 39.6559 17.427 39.6559 18.3135 39.6559C19.0228 39.6559 19.3774 39.3013 19.3774 38.5921C19.3774 37.4618 19.3774 36.3314 19.3774 35.1789C19.3774 34.4696 19.0228 34.115 18.3135 34.115C16.5626 34.115 14.8117 34.115 13.0608 34.115C12.3294 34.115 11.9969 34.4696 11.9969 35.1789C11.9969 36.3092 11.9969 37.4396 11.9969 38.5921C11.9969 39.3013 12.3515 39.6559 13.0608 39.6559C13.9251 39.6559 14.7895 39.6559 15.6539 39.6559Z" fill="#2356B0"/>
<path d="M28.5974 32.2755C29.5283 32.2755 30.437 32.2755 31.3678 32.2755C32.8971 32.2533 34.1383 33.4944 34.1383 35.0016C34.1383 35.0237 34.1383 35.0459 34.1383 35.0681C34.1604 36.2871 34.1604 37.4839 34.1383 38.7029C34.1604 40.2322 32.9636 41.4734 31.4343 41.5177C31.39 41.5177 31.3457 41.5177 31.3235 41.5177C29.5061 41.5399 27.7108 41.5399 25.8934 41.5177C24.2533 41.4955 23.0786 40.3208 23.0565 38.6586C23.0565 37.4617 23.0343 36.2649 23.0565 35.0902C23.0343 33.561 24.2312 32.3198 25.7604 32.2755C25.8048 32.2755 25.8269 32.2755 25.8713 32.2755C26.78 32.2533 27.6887 32.2755 28.5974 32.2755ZM28.5531 39.6559C29.4396 39.6559 30.3261 39.6559 31.2127 39.6559C31.9662 39.6559 32.2987 39.3235 32.2987 38.5699C32.2987 37.4617 32.2987 36.3314 32.2987 35.2232C32.2987 34.4696 31.9662 34.1372 31.2127 34.1372C29.4839 34.1372 27.7552 34.1372 26.0264 34.1372C25.2728 34.1372 24.9404 34.4696 24.9404 35.2232C24.9404 36.3314 24.9404 37.4617 24.9404 38.5699C24.9404 39.3235 25.2728 39.6559 26.0264 39.6559C26.8465 39.6559 27.7108 39.6559 28.5531 39.6559Z" fill="#2356B0"/>
<path d="M15.6538 52.5804C14.7673 52.5804 13.8807 52.5804 12.9942 52.5804C11.3319 52.5582 10.1573 51.4057 10.1351 49.7434C10.1351 48.5466 10.1351 47.3498 10.1351 46.1751C10.0908 44.6459 11.2876 43.3825 12.8169 43.3604C12.8612 43.3604 12.9055 43.3604 12.9277 43.3604C14.7451 43.3382 16.5847 43.3382 18.4021 43.3604C19.9093 43.3382 21.1726 44.535 21.1947 46.0643C21.1947 46.0865 21.1947 46.1087 21.1947 46.1308C21.2169 47.372 21.2169 48.591 21.1947 49.8321C21.1947 51.3614 19.9757 52.6026 18.4465 52.6026C18.4243 52.6026 18.4021 52.6026 18.38 52.6026C17.4934 52.6026 16.5625 52.5804 15.6538 52.5804ZM15.7203 50.7408C16.5626 50.7408 17.4048 50.7408 18.2691 50.7408C19.0227 50.7408 19.3773 50.4084 19.3773 49.6548C19.3773 48.5245 19.3773 47.3941 19.3773 46.2416C19.3773 45.5324 19.0227 45.1999 18.2913 45.1999C16.5404 45.1999 14.7895 45.1999 13.0385 45.1999C12.3293 45.1999 11.9968 45.5546 11.9747 46.286C11.9747 47.4163 11.9747 48.5466 11.9747 49.6991C11.9747 50.4084 12.3293 50.7408 13.0607 50.763C13.9472 50.7408 14.8338 50.7408 15.7203 50.7408Z" fill="#2356B0"/>
<path d="M28.5753 52.5804C27.6666 52.5804 26.7579 52.5804 25.8713 52.5804C24.342 52.6026 23.1009 51.4057 23.0565 49.8765C23.0565 49.8321 23.0565 49.81 23.0565 49.7656C23.0344 48.5466 23.0344 47.3498 23.0565 46.1308C23.0344 44.6237 24.2534 43.3604 25.7827 43.3604C25.8048 43.3604 25.827 43.3604 25.8491 43.3604C27.6666 43.3382 29.5061 43.3382 31.3236 43.3604C32.8529 43.3382 34.094 44.535 34.1383 46.0421C34.1383 46.0865 34.1383 46.1308 34.1383 46.1751C34.1605 47.3941 34.1605 48.591 34.1383 49.8099C34.1605 51.3392 32.9415 52.5804 31.4122 52.5804C31.3901 52.5804 31.3679 52.5804 31.3457 52.5804C30.437 52.6026 29.5062 52.5804 28.5753 52.5804ZM28.5974 50.7408C29.4397 50.7408 30.2819 50.7408 31.1463 50.7408C31.9885 50.7408 32.2988 50.4306 32.3209 49.6105C32.3209 48.5245 32.3209 47.4606 32.3209 46.3746C32.3209 45.5324 32.0106 45.1999 31.1906 45.1999C29.5062 45.1999 27.7995 45.1999 26.1151 45.1999C25.2507 45.1999 24.9404 45.5102 24.9404 46.3968C24.9404 47.4606 24.9404 48.5023 24.9404 49.5662C24.9404 50.4306 25.2729 50.7408 26.1373 50.7408C26.9352 50.7408 27.7552 50.7408 28.5974 50.7408Z" fill="#2356B0"/>
<path d="M38.7706 11.0217C38.7706 10.667 38.7484 10.3346 38.7706 9.97998C38.8371 8.45069 40.1447 7.27604 41.6519 7.34253C43.0703 7.40902 44.2007 8.53932 44.2893 9.95779C44.3115 10.667 44.3115 11.3763 44.2893 12.0855C44.2228 13.6148 42.9373 14.7895 41.4081 14.723C39.9674 14.6565 38.8149 13.504 38.7706 12.0412C38.7484 11.7088 38.7706 11.3541 38.7706 11.0217ZM40.6102 11.0217C40.6102 11.3098 40.6102 11.5979 40.6102 11.8861C40.6102 11.9304 40.6102 11.9526 40.6102 11.9969C40.6323 12.4845 41.0313 12.8612 41.5189 12.8612C42.0065 12.8834 42.4054 12.4845 42.4276 11.9969C42.4498 11.3541 42.4498 10.6892 42.4276 10.0465C42.4054 9.55888 42.0065 9.18207 41.5189 9.18207C41.0313 9.18207 40.6323 9.55888 40.6102 10.0465C40.588 10.3789 40.6102 10.6892 40.6102 11.0217Z" fill="#2356B0"/>
</g>
<defs>
<clipPath id="clip0_2915_1911">
<rect width="55.409" height="55.409" fill="white" transform="translate(0.912842 0.871094)"/>
</clipPath>
</defs>
</svg>
