<svg width="214" height="53" viewBox="0 0 214 53" fill="none" xmlns="http://www.w3.org/2000/svg">
<path d="M214 42.6391C214 48.3177 209.838 53 204.722 53H9.278C4.16207 53 0 48.4173 0 42.6391V10.3609C0 4.6823 4.16207 0 9.278 0H204.635C209.751 0 213.913 4.5827 213.913 10.3609L214 42.6391Z" fill="#0C4CDD"/>
<path d="M134.021 19.04V21.3H128.201V24.88H132.661V27.1H128.201V33H125.401V19.04H134.021ZM135.327 26C135.327 24.6267 135.634 23.4 136.247 22.32C136.874 21.2267 137.72 20.38 138.787 19.78C139.867 19.1667 141.074 18.86 142.407 18.86C143.967 18.86 145.334 19.26 146.507 20.06C147.68 20.86 148.5 21.9667 148.967 23.38H145.747C145.427 22.7133 144.974 22.2133 144.387 21.88C143.814 21.5467 143.147 21.38 142.387 21.38C141.574 21.38 140.847 21.5733 140.207 21.96C139.58 22.3333 139.087 22.8667 138.727 23.56C138.38 24.2533 138.207 25.0667 138.207 26C138.207 26.92 138.38 27.7333 138.727 28.44C139.087 29.1333 139.58 29.6733 140.207 30.06C140.847 30.4333 141.574 30.62 142.387 30.62C143.147 30.62 143.814 30.4533 144.387 30.12C144.974 29.7733 145.427 29.2667 145.747 28.6H148.967C148.5 30.0267 147.68 31.14 146.507 31.94C145.347 32.7267 143.98 33.12 142.407 33.12C141.074 33.12 139.867 32.82 138.787 32.22C137.72 31.6067 136.874 30.76 136.247 29.68C135.634 28.6 135.327 27.3733 135.327 26Z" fill="white"/>
<path d="M63 29.9999V21.2726H66.4432C67.1052 21.2726 67.6691 21.399 68.135 21.6519C68.6009 21.9019 68.956 22.2499 69.2003 22.6959C69.4475 23.1391 69.5711 23.6505 69.5711 24.23C69.5711 24.8096 69.4461 25.3209 69.1961 25.7641C68.9461 26.2073 68.5839 26.5526 68.1094 26.7997C67.6378 27.0469 67.0668 27.1705 66.3964 27.1705H64.2017V25.6917H66.0981C66.4532 25.6917 66.7458 25.6306 66.9759 25.5084C67.2089 25.3834 67.3821 25.2115 67.4958 24.9928C67.6123 24.7712 67.6705 24.5169 67.6705 24.23C67.6705 23.9402 67.6123 23.6874 67.4958 23.4715C67.3821 23.2527 67.2089 23.0837 66.9759 22.9644C66.7429 22.8422 66.4475 22.7811 66.0895 22.7811H64.8452V29.9999H63ZM72.4262 30.1235C72.0086 30.1235 71.6364 30.051 71.3097 29.9061C70.983 29.7584 70.7245 29.5411 70.5341 29.2542C70.3466 28.9644 70.2529 28.6037 70.2529 28.1719C70.2529 27.8082 70.3196 27.5027 70.4532 27.2556C70.5867 27.0084 70.7685 26.8096 70.9986 26.659C71.2287 26.5084 71.4901 26.3948 71.7827 26.3181C72.0782 26.2414 72.3878 26.1874 72.7117 26.1561C73.0924 26.1164 73.3992 26.0795 73.6321 26.0455C73.8651 26.0085 74.0341 25.9544 74.1392 25.8834C74.2444 25.8124 74.2969 25.7073 74.2969 25.5681V25.5425C74.2969 25.2726 74.2117 25.0638 74.0412 24.9161C73.8736 24.7684 73.635 24.6945 73.3253 24.6945C72.9986 24.6945 72.7387 24.7669 72.5455 24.9118C72.3523 25.0539 72.2245 25.2329 72.162 25.4488L70.483 25.3124C70.5682 24.9147 70.7358 24.5709 70.9858 24.2811C71.2358 23.9885 71.5583 23.7641 71.9532 23.6079C72.3509 23.4488 72.8111 23.3692 73.3339 23.3692C73.6975 23.3692 74.0455 23.4118 74.3779 23.4971C74.7131 23.5823 75.01 23.7144 75.2685 23.8934C75.5299 24.0723 75.7358 24.3025 75.8864 24.5837C76.037 24.8621 76.1123 25.1959 76.1123 25.5851V29.9999H74.3907V29.0922H74.3395C74.2344 29.2968 74.0938 29.4772 73.9177 29.6334C73.7415 29.7868 73.5299 29.9076 73.2827 29.9956C73.0356 30.0809 72.75 30.1235 72.4262 30.1235ZM72.9461 28.8706C73.2131 28.8706 73.4489 28.8181 73.6535 28.713C73.858 28.605 74.0185 28.4601 74.135 28.2783C74.2515 28.0965 74.3097 27.8905 74.3097 27.6604V26.9658C74.2529 27.0027 74.1748 27.0368 74.0753 27.0681C73.9787 27.0965 73.8694 27.1235 73.7472 27.149C73.625 27.1718 73.5029 27.1931 73.3807 27.213C73.2586 27.23 73.1478 27.2456 73.0483 27.2598C72.8353 27.2911 72.6492 27.3408 72.4901 27.409C72.331 27.4772 72.2074 27.5695 72.1194 27.686C72.0313 27.7996 71.9873 27.9418 71.9873 28.1122C71.9873 28.3594 72.0767 28.5482 72.2557 28.6789C72.4375 28.8067 72.6677 28.8706 72.9461 28.8706ZM78.407 32.4544C78.1769 32.4544 77.961 32.436 77.7593 32.399C77.5604 32.365 77.3956 32.3209 77.265 32.2669L77.6741 30.9118C77.8871 30.9772 78.0789 31.0127 78.2493 31.0184C78.4226 31.024 78.5718 30.9843 78.6968 30.899C78.8246 30.8138 78.9283 30.6689 79.0079 30.4644L79.1144 30.1874L76.7664 23.4544H78.6755L80.0306 28.2613H80.0988L81.4667 23.4544H83.3885L80.8445 30.7073C80.7223 31.0596 80.5562 31.3664 80.3459 31.6277C80.1385 31.8919 79.8758 32.0952 79.5576 32.2372C79.2394 32.3821 78.8559 32.4544 78.407 32.4544ZM91.2923 27.213V23.4544H93.1076V29.9999H91.3647V28.811H91.2966C91.1488 29.1945 90.9031 29.5028 90.5593 29.7358C90.2184 29.9687 89.8022 30.0851 89.3108 30.0851C88.8733 30.0851 88.4883 29.9857 88.1559 29.7868C87.8236 29.588 87.5636 29.3053 87.3761 28.9388C87.1915 28.5723 87.0977 28.1334 87.0949 27.6221V23.4544H88.9102V27.2983C88.913 27.6847 89.0167 27.99 89.2213 28.2144C89.4258 28.4388 89.7 28.5511 90.0437 28.5511C90.2625 28.5511 90.467 28.5013 90.6574 28.4019C90.8477 28.2996 91.0011 28.149 91.1176 27.9502C91.2369 27.7513 91.2951 27.5056 91.2923 27.213ZM100.006 25.3209L98.3438 25.4233C98.3154 25.2812 98.2543 25.1533 98.1606 25.0397C98.0668 24.9232 97.9432 24.8309 97.7898 24.7627C97.6392 24.6917 97.4589 24.6561 97.2486 24.6561C96.9674 24.6561 96.7302 24.7158 96.537 24.8351C96.3438 24.9516 96.2472 25.1079 96.2472 25.3039C96.2472 25.4601 96.3097 25.5922 96.4347 25.7002C96.5597 25.8081 96.7742 25.8948 97.0782 25.9601L98.2628 26.1988C98.8992 26.3294 99.3736 26.5397 99.6861 26.8294C99.9986 27.1192 100.155 27.4999 100.155 27.9715C100.155 28.4005 100.029 28.7769 99.7756 29.1008C99.5256 29.4246 99.1819 29.6776 98.7444 29.8594C98.3097 30.0384 97.8083 30.1277 97.2401 30.1277C96.3736 30.1277 95.6833 29.9473 95.1691 29.5865C94.6577 29.2229 94.358 28.7286 94.2699 28.1036L96.0554 28.0098C96.1094 28.274 96.2401 28.4758 96.4475 28.615C96.6549 28.7513 96.9205 28.8195 97.2444 28.8195C97.5625 28.8195 97.8182 28.7584 98.0114 28.6363C98.2074 28.5113 98.3069 28.3508 98.3097 28.1547C98.3069 27.99 98.2373 27.855 98.1009 27.7499C97.9645 27.6419 97.7543 27.5596 97.4702 27.5027L96.3367 27.2769C95.6975 27.149 95.2216 26.9276 94.9091 26.6122C94.5995 26.2969 94.4446 25.8948 94.4446 25.4061C94.4446 24.9857 94.5583 24.6235 94.7856 24.3195C95.0157 24.0155 95.3381 23.7811 95.7529 23.6164C96.1705 23.4516 96.6591 23.3692 97.2188 23.3692C98.0455 23.3692 98.6961 23.5439 99.1705 23.8934C99.6478 24.2428 99.9262 24.7186 100.006 25.3209ZM101.298 29.9999V23.4544H103.113V29.9999H101.298ZM102.21 22.6107C101.94 22.6107 101.709 22.5212 101.515 22.3422C101.325 22.1604 101.23 21.9431 101.23 21.6902C101.23 21.4402 101.325 21.2258 101.515 21.0468C101.709 20.865 101.94 20.774 102.21 20.774C102.48 20.774 102.71 20.865 102.9 21.0468C103.093 21.2258 103.19 21.4402 103.19 21.6902C103.19 21.9431 103.093 22.1604 102.9 22.3422C102.71 22.5212 102.48 22.6107 102.21 22.6107ZM106.383 26.2158V29.9999H104.568V23.4544H106.298V24.6094H106.374C106.519 24.2287 106.762 23.9275 107.103 23.7059C107.444 23.4814 107.857 23.3692 108.343 23.3692C108.798 23.3692 109.194 23.4687 109.532 23.6675C109.87 23.8664 110.133 24.1505 110.32 24.5198C110.508 24.8863 110.602 25.3238 110.602 25.8323V29.9999H108.786V26.1561C108.789 25.7556 108.687 25.4431 108.479 25.2187C108.272 24.9914 107.987 24.8777 107.623 24.8777C107.379 24.8777 107.163 24.9303 106.975 25.0354C106.791 25.1405 106.646 25.2939 106.541 25.4956C106.438 25.6945 106.386 25.9346 106.383 26.2158ZM114.981 32.5908C114.393 32.5908 113.889 32.5098 113.468 32.3479C113.051 32.1888 112.718 31.9715 112.471 31.6959C112.224 31.4204 112.064 31.1107 111.99 30.7669L113.669 30.5411C113.72 30.6718 113.801 30.7939 113.912 30.9076C114.022 31.0212 114.169 31.1121 114.351 31.1803C114.535 31.2513 114.76 31.2868 115.024 31.2868C115.419 31.2868 115.744 31.1902 116 30.9971C116.258 30.8067 116.388 30.4871 116.388 30.0383V28.8408H116.311C116.231 29.0226 116.112 29.1945 115.953 29.3564C115.794 29.5184 115.589 29.6505 115.339 29.7527C115.089 29.855 114.791 29.9061 114.444 29.9061C113.953 29.9061 113.505 29.7925 113.102 29.5652C112.701 29.3351 112.382 28.9843 112.143 28.5127C111.907 28.0383 111.79 27.4388 111.79 26.7144C111.79 25.9729 111.91 25.3536 112.152 24.8564C112.393 24.3593 112.714 23.9871 113.115 23.74C113.518 23.4928 113.96 23.3692 114.44 23.3692C114.807 23.3692 115.113 23.4317 115.361 23.5567C115.608 23.6789 115.806 23.8323 115.957 24.0169C116.11 24.1988 116.228 24.3777 116.311 24.5539H116.379V23.4544H118.182V30.0638C118.182 30.6206 118.045 31.0865 117.772 31.4615C117.5 31.8365 117.122 32.1178 116.639 32.3053C116.159 32.4956 115.606 32.5908 114.981 32.5908ZM115.02 28.5425C115.312 28.5425 115.559 28.4701 115.761 28.3252C115.966 28.1775 116.122 27.9672 116.23 27.6945C116.341 27.4189 116.396 27.0894 116.396 26.7059C116.396 26.3223 116.342 25.99 116.234 25.7087C116.126 25.4246 115.97 25.2045 115.765 25.0483C115.561 24.892 115.312 24.8138 115.02 24.8138C114.721 24.8138 114.47 24.8948 114.265 25.0567C114.061 25.2158 113.906 25.4374 113.801 25.7215C113.696 26.0056 113.643 26.3337 113.643 26.7059C113.643 27.0837 113.696 27.4104 113.801 27.686C113.909 27.9587 114.064 28.1704 114.265 28.3209C114.47 28.4686 114.721 28.5425 115.02 28.5425Z" fill="white"/>
</svg>
