<svg width="250" height="68" viewBox="0 0 250 68" fill="none" xmlns="http://www.w3.org/2000/svg">
<path d="M216 50.6391C216 56.3177 211.838 61 206.722 61H11.278C6.16207 61 2 56.4173 2 50.6391V18.3609C2 12.6823 6.16207 8 11.278 8H206.635C211.751 8 215.913 12.5827 215.913 18.3609L216 50.6391Z" fill="#0C4CDD"/>
<path d="M122.203 40L118.457 26.9091H121.48L123.647 36.005H123.756L126.147 26.9091H128.735L131.12 36.0241H131.235L133.402 26.9091H136.425L132.679 40H129.982L127.489 31.4411H127.387L124.9 40H122.203ZM139.6 40.1854C138.974 40.1854 138.416 40.0767 137.926 39.8594C137.435 39.6378 137.048 39.3118 136.762 38.8814C136.481 38.4467 136.34 37.9055 136.34 37.2578C136.34 36.7124 136.44 36.2543 136.641 35.8835C136.841 35.5128 137.114 35.2145 137.459 34.9886C137.804 34.7628 138.196 34.5923 138.635 34.4773C139.078 34.3622 139.543 34.2812 140.028 34.2344C140.6 34.1747 141.06 34.1193 141.409 34.0682C141.759 34.0128 142.012 33.9318 142.17 33.8253C142.328 33.7187 142.406 33.5611 142.406 33.3523V33.3139C142.406 32.9091 142.278 32.5959 142.023 32.3743C141.771 32.1527 141.413 32.0419 140.949 32.0419C140.459 32.0419 140.069 32.1506 139.779 32.3679C139.489 32.581 139.298 32.8494 139.204 33.1733L136.685 32.9688C136.813 32.3722 137.065 31.8565 137.44 31.4219C137.815 30.983 138.298 30.6463 138.891 30.4119C139.487 30.1733 140.178 30.054 140.962 30.054C141.507 30.054 142.029 30.1179 142.528 30.2457C143.031 30.3736 143.476 30.5717 143.864 30.8402C144.256 31.1087 144.565 31.4538 144.791 31.8757C145.016 32.2933 145.129 32.794 145.129 33.3778V40H142.547V38.6385H142.47C142.313 38.9453 142.102 39.2159 141.837 39.4503C141.573 39.6804 141.256 39.8615 140.885 39.9936C140.514 40.1214 140.086 40.1854 139.6 40.1854ZM140.38 38.3061C140.781 38.3061 141.134 38.2273 141.441 38.0696C141.748 37.9077 141.989 37.6903 142.163 37.4176C142.338 37.1449 142.426 36.8359 142.426 36.4908V35.4489C142.34 35.5043 142.223 35.5554 142.074 35.6023C141.929 35.6449 141.765 35.6854 141.582 35.7237C141.399 35.7578 141.215 35.7898 141.032 35.8196C140.849 35.8452 140.683 35.8686 140.533 35.8899C140.214 35.9368 139.935 36.0114 139.696 36.1136C139.457 36.2159 139.272 36.3544 139.14 36.5291C139.008 36.6996 138.942 36.9126 138.942 37.1683C138.942 37.5391 139.076 37.8224 139.345 38.0185C139.617 38.2102 139.962 38.3061 140.38 38.3061ZM149.965 26.9091V40H147.242V26.9091H149.965ZM154.869 26.9091V40H152.146V26.9091H154.869ZM161.525 40.1918C160.515 40.1918 159.646 39.9872 158.917 39.5781C158.193 39.1648 157.634 38.581 157.242 37.8267C156.85 37.0682 156.654 36.1712 156.654 35.1357C156.654 34.1257 156.85 33.2393 157.242 32.4766C157.634 31.7138 158.186 31.1193 158.898 30.6932C159.614 30.267 160.453 30.054 161.416 30.054C162.064 30.054 162.667 30.1584 163.225 30.3672C163.788 30.5717 164.278 30.8807 164.695 31.294C165.117 31.7074 165.445 32.2273 165.68 32.8537C165.914 33.4759 166.031 34.2045 166.031 35.0398V35.7876H157.741V34.1001H163.468C163.468 33.7081 163.383 33.3608 163.212 33.0582C163.042 32.7557 162.805 32.5192 162.503 32.3487C162.205 32.174 161.857 32.0866 161.461 32.0866C161.048 32.0866 160.681 32.1825 160.362 32.3743C160.046 32.5618 159.799 32.8153 159.62 33.1349C159.441 33.4503 159.35 33.8018 159.345 34.1896V35.794C159.345 36.2798 159.435 36.6996 159.614 37.0533C159.797 37.407 160.055 37.6797 160.387 37.8714C160.72 38.0632 161.114 38.1591 161.57 38.1591C161.872 38.1591 162.149 38.1165 162.401 38.0312C162.652 37.946 162.867 37.8182 163.046 37.6477C163.225 37.4773 163.362 37.2685 163.455 37.0213L165.974 37.1875C165.846 37.7926 165.584 38.321 165.188 38.7727C164.796 39.2202 164.288 39.5696 163.666 39.821C163.048 40.0682 162.335 40.1918 161.525 40.1918ZM169.908 30.1818L171.711 33.6143L173.558 30.1818H176.351L173.507 35.0909L176.428 40H173.647L171.711 36.6058L169.806 40H166.993L169.908 35.0909L167.096 30.1818H169.908Z" fill="white"/>
<path d="M41.9284 38V29.2727H45.3716C46.0336 29.2727 46.5975 29.3991 47.0634 29.652C47.5293 29.902 47.8844 30.25 48.1287 30.696C48.3759 31.1392 48.4995 31.6506 48.4995 32.2301C48.4995 32.8097 48.3745 33.321 48.1245 33.7642C47.8745 34.2074 47.5123 34.5526 47.0378 34.7997C46.5662 35.0469 45.9952 35.1705 45.3248 35.1705H43.1301V33.6918H45.0265C45.3816 33.6918 45.6742 33.6307 45.9043 33.5085C46.1373 33.3835 46.3105 33.2116 46.4242 32.9929C46.5407 32.7713 46.5989 32.517 46.5989 32.2301C46.5989 31.9403 46.5407 31.6875 46.4242 31.4716C46.3105 31.2528 46.1373 31.0838 45.9043 30.9645C45.6713 30.8423 45.3759 30.7812 45.0179 30.7812H43.7736V38H41.9284ZM51.3546 38.1236C50.937 38.1236 50.5648 38.0511 50.2381 37.9062C49.9114 37.7585 49.6529 37.5412 49.4625 37.2543C49.275 36.9645 49.1813 36.6037 49.1813 36.1719C49.1813 35.8082 49.248 35.5028 49.3816 35.2557C49.5151 35.0085 49.6969 34.8097 49.927 34.6591C50.1571 34.5085 50.4185 34.3949 50.7111 34.3182C51.0066 34.2415 51.3162 34.1875 51.6401 34.1562C52.0208 34.1165 52.3276 34.0795 52.5605 34.0455C52.7935 34.0085 52.9625 33.9545 53.0676 33.8835C53.1728 33.8125 53.2253 33.7074 53.2253 33.5682V33.5426C53.2253 33.2727 53.1401 33.0639 52.9696 32.9162C52.802 32.7685 52.5634 32.6946 52.2537 32.6946C51.927 32.6946 51.6671 32.767 51.4739 32.9119C51.2807 33.054 51.1529 33.233 51.0904 33.4489L49.4114 33.3125C49.4966 32.9148 49.6642 32.571 49.9142 32.2812C50.1642 31.9886 50.4867 31.7642 50.8816 31.608C51.2793 31.4489 51.7395 31.3693 52.2623 31.3693C52.6259 31.3693 52.9739 31.4119 53.3063 31.4972C53.6415 31.5824 53.9384 31.7145 54.1969 31.8935C54.4583 32.0724 54.6642 32.3026 54.8148 32.5838C54.9654 32.8622 55.0407 33.196 55.0407 33.5852V38H53.3191V37.0923H53.2679C53.1628 37.2969 53.0222 37.4773 52.8461 37.6335C52.6699 37.7869 52.4583 37.9077 52.2111 37.9957C51.964 38.081 51.6784 38.1236 51.3546 38.1236ZM51.8745 36.8707C52.1415 36.8707 52.3773 36.8182 52.5819 36.7131C52.7864 36.6051 52.9469 36.4602 53.0634 36.2784C53.1799 36.0966 53.2381 35.8906 53.2381 35.6605V34.9659C53.1813 35.0028 53.1032 35.0369 53.0037 35.0682C52.9071 35.0966 52.7978 35.1236 52.6756 35.1491C52.5534 35.1719 52.4313 35.1932 52.3091 35.2131C52.187 35.2301 52.0762 35.2457 51.9767 35.2599C51.7637 35.2912 51.5776 35.3409 51.4185 35.4091C51.2594 35.4773 51.1358 35.5696 51.0478 35.6861C50.9597 35.7997 50.9157 35.9418 50.9157 36.1122C50.9157 36.3594 51.0051 36.5483 51.1841 36.679C51.3659 36.8068 51.5961 36.8707 51.8745 36.8707ZM57.3354 40.4545C57.1053 40.4545 56.8894 40.4361 56.6877 40.3991C56.4888 40.3651 56.324 40.321 56.1934 40.267L56.6025 38.9119C56.8155 38.9773 57.0073 39.0128 57.1777 39.0185C57.351 39.0241 57.5002 38.9844 57.6252 38.8991C57.753 38.8139 57.8567 38.669 57.9363 38.4645L58.0428 38.1875L55.6948 31.4545H57.6039L58.959 36.2614H59.0272L60.3951 31.4545H62.3169L59.7729 38.7074C59.6507 39.0597 59.4846 39.3665 59.2743 39.6278C59.0669 39.892 58.8042 40.0952 58.486 40.2372C58.1678 40.3821 57.7843 40.4545 57.3354 40.4545ZM70.2207 35.2131V31.4545H72.036V38H70.2931V36.8111H70.225C70.0772 37.1946 69.8315 37.5028 69.4877 37.7358C69.1468 37.9687 68.7306 38.0852 68.2392 38.0852C67.8017 38.0852 67.4167 37.9858 67.0843 37.7869C66.752 37.5881 66.492 37.3054 66.3045 36.9389C66.1199 36.5724 66.0261 36.1335 66.0233 35.6222V31.4545H67.8386V35.2983C67.8414 35.6847 67.9451 35.9901 68.1497 36.2145C68.3542 36.4389 68.6284 36.5511 68.9721 36.5511C69.1909 36.5511 69.3954 36.5014 69.5858 36.402C69.7761 36.2997 69.9295 36.1491 70.046 35.9503C70.1653 35.7514 70.2235 35.5057 70.2207 35.2131ZM78.9341 33.321L77.2722 33.4233C77.2438 33.2812 77.1827 33.1534 77.089 33.0398C76.9952 32.9233 76.8716 32.831 76.7182 32.7628C76.5676 32.6918 76.3873 32.6562 76.177 32.6562C75.8958 32.6562 75.6586 32.7159 75.4654 32.8352C75.2722 32.9517 75.1756 33.108 75.1756 33.304C75.1756 33.4602 75.2381 33.5923 75.3631 33.7003C75.4881 33.8082 75.7026 33.8949 76.0066 33.9602L77.1912 34.1989C77.8276 34.3295 78.302 34.5398 78.6145 34.8295C78.927 35.1193 79.0833 35.5 79.0833 35.9716C79.0833 36.4006 78.9569 36.777 78.704 37.1009C78.454 37.4247 78.1103 37.6776 77.6728 37.8594C77.2381 38.0384 76.7367 38.1278 76.1685 38.1278C75.302 38.1278 74.6117 37.9474 74.0975 37.5866C73.5861 37.223 73.2864 36.7287 73.1983 36.1037L74.9838 36.0099C75.0378 36.2741 75.1685 36.4759 75.3759 36.6151C75.5833 36.7514 75.8489 36.8196 76.1728 36.8196C76.4909 36.8196 76.7466 36.7585 76.9398 36.6364C77.1358 36.5114 77.2353 36.3509 77.2381 36.1548C77.2353 35.9901 77.1657 35.8551 77.0293 35.75C76.8929 35.642 76.6827 35.5597 76.3986 35.5028L75.2651 35.277C74.6259 35.1491 74.15 34.9276 73.8375 34.6122C73.5279 34.2969 73.373 33.8949 73.373 33.4062C73.373 32.9858 73.4867 32.6236 73.714 32.3196C73.9441 32.0156 74.2665 31.7812 74.6813 31.6165C75.0989 31.4517 75.5875 31.3693 76.1472 31.3693C76.9739 31.3693 77.6245 31.544 78.0989 31.8935C78.5762 32.2429 78.8546 32.7187 78.9341 33.321ZM80.2264 38V31.4545H82.0417V38H80.2264ZM81.1383 30.6108C80.8684 30.6108 80.6369 30.5213 80.4437 30.3423C80.2534 30.1605 80.1582 29.9432 80.1582 29.6903C80.1582 29.4403 80.2534 29.2259 80.4437 29.0469C80.6369 28.8651 80.8684 28.7741 81.1383 28.7741C81.4082 28.7741 81.6383 28.8651 81.8287 29.0469C82.0218 29.2259 82.1184 29.4403 82.1184 29.6903C82.1184 29.9432 82.0218 30.1605 81.8287 30.3423C81.6383 30.5213 81.4082 30.6108 81.1383 30.6108ZM85.3113 34.2159V38H83.4959V31.4545H85.226V32.6094H85.3027C85.4476 32.2287 85.6905 31.9276 86.0314 31.706C86.3723 31.4815 86.7857 31.3693 87.2715 31.3693C87.726 31.3693 88.1223 31.4688 88.4604 31.6676C88.7985 31.8665 89.0613 32.1506 89.2488 32.5199C89.4363 32.8864 89.53 33.3239 89.53 33.8324V38H87.7147V34.1562C87.7175 33.7557 87.6152 33.4432 87.4078 33.2188C87.2005 32.9915 86.915 32.8778 86.5513 32.8778C86.307 32.8778 86.0911 32.9304 85.9036 33.0355C85.7189 33.1406 85.574 33.294 85.4689 33.4957C85.3667 33.6946 85.3141 33.9347 85.3113 34.2159ZM93.9096 40.5909C93.3216 40.5909 92.8173 40.5099 92.3968 40.348C91.9792 40.1889 91.6468 39.9716 91.3997 39.696C91.1525 39.4205 90.992 39.1108 90.9181 38.767L92.5971 38.5412C92.6483 38.6719 92.7292 38.794 92.84 38.9077C92.9508 39.0213 93.0971 39.1122 93.2789 39.1804C93.4636 39.2514 93.688 39.2869 93.9522 39.2869C94.3471 39.2869 94.6724 39.1903 94.9281 38.9972C95.1866 38.8068 95.3159 38.4872 95.3159 38.0384V36.8409H95.2392C95.1596 37.0227 95.0403 37.1946 94.8812 37.3565C94.7221 37.5185 94.5176 37.6506 94.2676 37.7528C94.0176 37.8551 93.7193 37.9062 93.3727 37.9062C92.8812 37.9062 92.4338 37.7926 92.0304 37.5653C91.6298 37.3352 91.3102 36.9844 91.0716 36.5128C90.8358 36.0384 90.7179 35.4389 90.7179 34.7145C90.7179 33.973 90.8386 33.3537 91.0801 32.8565C91.3216 32.3594 91.6426 31.9872 92.0431 31.7401C92.4466 31.4929 92.8883 31.3693 93.3684 31.3693C93.7349 31.3693 94.0417 31.4318 94.2889 31.5568C94.536 31.679 94.7349 31.8324 94.8855 32.017C95.0389 32.1989 95.1568 32.3778 95.2392 32.554H95.3074V31.4545H97.1099V38.0639C97.1099 38.6207 96.9735 39.0866 96.7008 39.4616C96.4281 39.8366 96.0502 40.1179 95.5673 40.3054C95.0872 40.4957 94.5346 40.5909 93.9096 40.5909ZM93.948 36.5426C94.2406 36.5426 94.4877 36.4702 94.6895 36.3253C94.894 36.1776 95.0502 35.9673 95.1582 35.6946C95.269 35.419 95.3244 35.0895 95.3244 34.706C95.3244 34.3224 95.2704 33.9901 95.1625 33.7088C95.0545 33.4247 94.8983 33.2045 94.6937 33.0483C94.4892 32.892 94.2406 32.8139 93.948 32.8139C93.6497 32.8139 93.3983 32.8949 93.1937 33.0568C92.9892 33.2159 92.8343 33.4375 92.7292 33.7216C92.6241 34.0057 92.5716 34.3338 92.5716 34.706C92.5716 35.0838 92.6241 35.4105 92.7292 35.6861C92.8372 35.9588 92.992 36.1705 93.1937 36.321C93.3983 36.4687 93.6497 36.5426 93.948 36.5426Z" fill="white"/>
</svg>
