<svg width="40" height="40" viewBox="0 0 40 40" fill="none" xmlns="http://www.w3.org/2000/svg">
<g clip-path="url(#clip0_907_9955)">
<path d="M20 40C31.0457 40 40 31.0457 40 20C40 8.9543 31.0457 0 20 0C8.9543 0 0 8.9543 0 20C0 31.0457 8.9543 40 20 40Z" fill="#F00500"/>
<path d="M25.3721 11.8492C24.8256 12.3895 24.3248 12.9751 23.8798 13.5996L23.739 13.5543C22.9274 13.2922 22.0863 13.1304 21.2386 13.0754C20.9833 13.056 20.031 13.056 19.72 13.0754C18.7808 13.1369 18.0608 13.276 17.2426 13.5575C17.2098 13.5704 17.1804 13.5801 17.1509 13.5899C16.6895 12.9686 16.1756 12.3863 15.6094 11.8524C18.3258 10.4774 21.5037 10.3124 24.3478 11.3962C24.6521 11.5095 24.9499 11.6421 25.2412 11.7845L25.3721 11.8492Z" fill="#F00500"/>
<path d="M30.4395 24.1177C30.0271 25.2792 29.4086 26.3566 28.6067 27.2949C28.1715 27.7996 27.6904 28.2623 27.1733 28.6829C25.9623 29.6471 24.5485 30.3362 23.0397 30.6986C21.3706 31.0965 19.6295 31.0965 17.9604 30.6986C16.4484 30.3362 15.0378 29.6471 13.8269 28.6829C13.3098 28.2623 12.8287 27.7996 12.3934 27.2949C10.0861 24.5998 9.38571 20.8985 10.5606 17.5627C10.7832 16.9447 11.0614 16.3494 11.3952 15.7832C11.549 15.5244 11.7388 15.2332 11.8305 15.1135C12.1447 16.4497 12.5308 17.6242 12.6748 18.048C12.665 18.0707 12.6519 18.0966 12.6388 18.1192C11.8763 19.6463 11.4639 21.1185 11.3657 22.6844C11.3657 22.7038 11.3625 22.7265 11.3625 22.7459C11.3363 23.215 11.3494 23.4383 11.4279 23.7327C11.6734 24.6548 12.4294 25.6707 13.6141 26.6672C15.5549 28.2979 18.1862 29.4756 20.1793 29.6115C22.2575 29.7506 25.3241 28.5503 27.3664 26.7967C27.6871 26.5152 27.9882 26.2175 28.2696 25.9004C28.4726 25.6675 28.7737 25.2663 28.7507 25.2663C28.7442 25.2663 28.7507 25.2598 28.7638 25.2533C28.7737 25.2469 28.7835 25.2372 28.7769 25.2307C28.7736 25.2275 28.7802 25.2178 28.79 25.2145C28.7998 25.2113 28.8064 25.2048 28.8031 25.1983C28.7998 25.1919 28.8031 25.1854 28.8162 25.1822C28.826 25.1789 28.8293 25.1692 28.826 25.1628C28.8227 25.1563 28.826 25.1498 28.8326 25.1498C28.8391 25.1498 28.8457 25.1401 28.8457 25.1336C28.8457 25.1272 28.8522 25.1175 28.8587 25.1175C28.8653 25.1175 28.8718 25.111 28.8718 25.1045C28.8817 25.0786 28.898 25.0528 28.9144 25.0301C28.9635 24.9557 29.1598 24.6095 29.186 24.5513C29.3726 24.1339 29.4904 23.7618 29.546 23.3897C29.5722 23.2118 29.5886 22.885 29.5755 22.8074C29.5722 22.7944 29.5722 22.7718 29.5689 22.7362C29.5624 22.6715 29.5591 22.5744 29.5526 22.4773C29.546 22.3317 29.5329 22.1279 29.5231 22.0276C29.3824 20.5587 29.0027 19.3584 28.2827 18.0869C28.2533 18.0383 28.2271 17.9898 28.2107 17.951C28.2042 17.9413 28.2009 17.9316 28.1976 17.9251C28.2991 17.6242 28.7147 16.3656 29.0453 14.9258L29.0518 14.9323L29.1009 14.997C29.186 15.1103 29.4118 15.4467 29.5133 15.6085C29.9748 16.3527 30.3348 17.1518 30.59 17.9866C31.1824 19.9958 31.1333 22.1376 30.4395 24.1177Z" fill="#F00500"/>
<path d="M26.189 20.255C26.1792 20.3068 26.0254 20.4621 25.8715 20.5753C25.4199 20.9021 24.6115 21.2062 23.79 21.3518C23.322 21.4359 22.854 21.4489 22.7133 21.3809C22.6217 21.3356 22.6086 21.3 22.6413 21.1836C22.71 20.9409 22.9326 20.6756 23.2795 20.4265C23.4562 20.3003 24.173 19.87 24.5068 19.6888C25.0566 19.3911 25.5017 19.2132 25.8028 19.1711C25.8977 19.1582 26.0123 19.155 26.0483 19.1711C26.1072 19.1938 26.1726 19.3653 26.1988 19.5723C26.2119 19.6823 26.2054 20.1676 26.189 20.255Z" fill="white"/>
<path d="M18.4813 21.3235C18.4616 21.3624 18.3634 21.4044 18.2522 21.4206C18.1409 21.4368 17.8005 21.4271 17.6074 21.4044C16.9136 21.3138 16.1772 21.1035 15.6405 20.8447C15.3394 20.6991 15.1234 20.5535 14.963 20.395L14.8714 20.3011L14.8616 20.1782C14.8452 19.9647 14.8485 19.6282 14.8747 19.5085C14.891 19.4082 14.927 19.3111 14.9761 19.2237C14.9935 19.2022 15.0415 19.1914 15.1201 19.1914C15.2641 19.1914 15.3852 19.214 15.5816 19.2755C15.9841 19.3985 16.583 19.6961 17.3129 20.1297C17.9151 20.4856 18.1409 20.6603 18.3143 20.8997C18.4322 21.0485 18.5107 21.2588 18.4813 21.3235Z" fill="white"/>
<path d="M23.1142 25.8272C23.1142 25.8369 23.0749 25.9922 23.0258 26.1766C22.9767 26.3611 22.9375 26.5099 22.9375 26.5164C22.9015 26.5196 22.8687 26.5228 22.8327 26.5196H22.728L22.584 26.8561C22.5054 27.0405 22.4334 27.212 22.4236 27.2379L22.404 27.2832L22.3353 27.1732L22.2665 27.0632V26.1669L22.2404 26.1734C22.1847 26.1863 21.7887 26.2381 21.6153 26.2543C20.8985 26.3255 20.1785 26.3093 19.465 26.209C19.3505 26.1928 19.2523 26.1799 19.249 26.1831C19.2458 26.1863 19.249 26.3934 19.2556 26.649L19.2654 27.1084L19.2098 27.1926C19.1803 27.2379 19.1508 27.2767 19.1508 27.2799C19.141 27.2896 19.1083 27.2379 19.033 27.089C18.9512 26.9337 18.8923 26.7687 18.8498 26.5972L18.8268 26.5034L18.7254 26.5099L18.6239 26.5196L18.5977 26.3999C18.5847 26.3352 18.5683 26.2349 18.5617 26.1799L18.5519 26.0763L18.4668 26.0019C18.4177 25.9599 18.3687 25.9178 18.3588 25.9113C18.3425 25.8984 18.3359 25.8757 18.3359 25.8563V25.8175L18.745 25.8207L19.1541 25.824L19.1672 25.866L19.1803 25.9081L19.321 25.9146C19.3996 25.9178 19.6483 25.9243 19.8709 25.9307L20.28 25.9405L20.3847 25.7787L20.4927 25.6169H20.6301L20.6269 25.2804L20.6236 24.9439L20.4436 24.8663C19.8643 24.6139 19.5239 24.326 19.3963 23.9765C19.3701 23.9054 19.3701 23.8795 19.3636 23.5559C19.3603 23.2356 19.3603 23.2065 19.3832 23.1353C19.429 22.9736 19.5567 22.8474 19.7203 22.8053C19.776 22.7891 19.9232 22.7891 20.6956 22.7891L21.6054 22.7924L21.7069 22.8409C21.828 22.8991 21.8836 22.9412 21.9523 23.0318C22.0309 23.1353 22.0538 23.2162 22.0538 23.4136C22.0538 23.6951 22.0342 23.9377 22.0047 24.0348C21.9622 24.1674 21.8967 24.2936 21.8149 24.4069C21.6513 24.6139 21.3534 24.821 21.0818 24.9148L21.0032 24.9439L21.0065 25.2837L21.0098 25.6234L21.0818 25.6299L21.1538 25.6363L21.252 25.7819L21.3469 25.9275H21.7854C22.0276 25.9275 22.2404 25.9307 22.26 25.934C22.2927 25.9405 22.2993 25.9372 22.332 25.8822L22.3713 25.824H22.7476C23.0291 25.811 23.1142 25.8175 23.1142 25.8272Z" fill="white"/>
<path d="M21.3881 26.7594C21.3259 26.795 21.2834 26.8112 21.2736 26.8047C21.2637 26.8015 21.2179 26.7627 21.1688 26.7271L21.0805 26.6559L20.9888 26.753C20.7892 26.9665 20.7826 26.9762 20.7237 26.9794C20.6321 26.9891 20.6125 26.973 20.5012 26.808C20.4423 26.7238 20.3965 26.6527 20.3965 26.6527C20.3965 26.6527 20.3539 26.6462 20.3048 26.643L20.2132 26.6333L20.1707 26.7206L20.1281 26.808L20.0529 26.7853C19.994 26.7659 19.935 26.7433 19.8794 26.7174L19.7812 26.6688V26.4844L20.6518 26.4877L21.5224 26.4909L21.5257 26.5782C21.5289 26.6818 21.5321 26.6785 21.3881 26.7594Z" fill="white"/>
<path d="M29.5702 22.8114C29.567 22.7985 29.567 22.7759 29.5637 22.7403C28.7782 22.6561 26.5364 22.6044 24.4549 24.303C24.4549 24.303 23.7839 21.2617 20.6421 21.2617C17.5003 21.2617 16.3351 24.303 16.3351 24.303C14.5743 22.4297 12.2179 22.5655 11.367 22.6885C11.367 22.7079 11.3638 22.7306 11.3638 22.75C11.3376 23.2191 11.3507 23.4423 11.4292 23.7368C11.6747 24.6589 12.4307 25.6748 13.6154 26.6713C15.5562 28.302 18.1875 29.4797 20.1806 29.6156C22.2588 29.7547 25.3254 28.5543 27.3676 26.8007C27.6884 26.5192 27.9895 26.2216 28.2709 25.9045C28.4738 25.6716 28.7749 25.2704 28.752 25.2704C28.7455 25.2704 28.752 25.2639 28.7651 25.2574C28.7749 25.251 28.7848 25.2413 28.7782 25.2348C28.7749 25.2315 28.7815 25.2218 28.7913 25.2186C28.8011 25.2154 28.8077 25.2089 28.8044 25.2024C28.8011 25.196 28.8044 25.1895 28.8175 25.1862C28.8273 25.183 28.8306 25.1733 28.8273 25.1668C28.824 25.1604 28.8273 25.1539 28.8339 25.1539C28.8404 25.1539 28.8469 25.1442 28.8469 25.1377C28.8469 25.1312 28.8535 25.1215 28.86 25.1215C28.8666 25.1215 28.8731 25.1151 28.8731 25.1086C28.8829 25.0827 28.8993 25.0568 28.9157 25.0342C28.9648 24.9598 29.1611 24.6136 29.1873 24.5553C29.3739 24.138 29.4917 23.7659 29.5473 23.3938C29.567 23.2159 29.5833 22.8891 29.5702 22.8114ZM21.3883 26.7587C21.3261 26.7943 21.2835 26.8104 21.2737 26.804C21.2639 26.8007 21.2181 26.7619 21.169 26.7263L21.0806 26.6551L20.989 26.7522C20.7894 26.9657 20.7828 26.9754 20.7239 26.9787C20.6323 26.9884 20.6126 26.9722 20.5014 26.8072C20.4424 26.7231 20.3966 26.6519 20.3966 26.6519C20.3966 26.6519 20.3541 26.6454 20.305 26.6422L20.2133 26.6325L20.1708 26.7198L20.1283 26.8072L20.053 26.7846C19.9941 26.7651 19.9352 26.7425 19.8795 26.7166L19.7813 26.6681V26.4837L20.6519 26.4869L21.5225 26.4901L21.5257 26.5775C21.529 26.681 21.5323 26.6778 21.3883 26.7587ZM23.0247 26.1763C22.9756 26.3607 22.9363 26.5095 22.9363 26.516C22.9003 26.5193 22.8676 26.5225 22.8316 26.5192H22.7268L22.5861 26.859C22.5076 27.0434 22.4356 27.2149 22.4257 27.2408L22.4061 27.286L22.3374 27.176L22.2687 27.066V26.1698L22.2425 26.1763C22.1868 26.1892 21.7908 26.241 21.6174 26.2572C20.9006 26.3284 20.1806 26.3122 19.4672 26.2119C19.3526 26.1957 19.2544 26.1828 19.2512 26.186C19.2479 26.1892 19.2512 26.3963 19.2577 26.6519L19.2675 27.1113L19.2119 27.1955C19.1824 27.2408 19.153 27.2796 19.153 27.2828C19.1431 27.2925 19.1104 27.2408 19.0351 27.0919C18.9533 26.9366 18.8944 26.7716 18.8519 26.6001L18.829 26.5063L18.7275 26.5128L18.6261 26.5225L18.5999 26.4028C18.5868 26.3381 18.5704 26.2378 18.5639 26.1828L18.5541 26.0792L18.469 26.0048C18.4199 25.9628 18.3708 25.9207 18.361 25.9142C18.3446 25.9013 18.338 25.8786 18.338 25.8592V25.8204L18.7471 25.8236L19.1562 25.8269L19.1693 25.8689L19.1824 25.911L19.3232 25.9175C19.4017 25.9207 19.6504 25.9272 19.873 25.9336L20.2821 25.9433L20.3868 25.7816L20.4948 25.6198H20.6323L20.629 25.2833L20.6257 24.9468L20.4457 24.8692C19.8664 24.6168 19.5261 24.3289 19.3984 23.9794C19.3722 23.9083 19.3722 23.8824 19.3657 23.5588C19.3624 23.2385 19.3624 23.2094 19.3853 23.1382C19.4312 22.9764 19.5588 22.8503 19.7224 22.8082C19.7781 22.792 19.9253 22.792 20.6977 22.792L21.6076 22.7953L21.709 22.8438C21.8301 22.902 21.8857 22.9441 21.9545 23.0347C22.033 23.1382 22.0559 23.2191 22.0559 23.4165C22.0559 23.6979 22.0363 23.9406 22.0068 24.0377C21.9643 24.1703 21.8988 24.2965 21.817 24.4097C21.6534 24.6168 21.3555 24.8239 21.0839 24.9177L21.0054 24.9468L21.0086 25.2865L21.0119 25.6263L21.0839 25.6327L21.1559 25.6392L21.2541 25.7848L21.349 25.9304H21.7876C22.0297 25.9304 22.2425 25.9336 22.2621 25.9369C22.2948 25.9433 22.3014 25.9401 22.3341 25.8851L22.3734 25.8269H22.7498C23.041 25.8269 23.1261 25.8301 23.1261 25.8398C23.1163 25.8366 23.0738 25.9951 23.0247 26.1763Z" fill="white"/>
<path d="M29.5429 22.4803C29.5364 22.3347 29.5233 22.1309 29.5135 22.0306C29.3728 20.5617 28.9931 19.3613 28.2731 18.0898C28.2436 18.0413 28.2175 17.9927 28.2011 17.9539C28.1946 17.9442 28.1913 17.9345 28.188 17.928C28.2895 17.6271 28.7051 16.3685 29.0357 14.9288C29.484 12.9746 29.7688 10.6904 28.8982 10.0044C28.8982 10.0044 27.3927 9.89441 25.3767 11.8486C24.8301 12.389 24.3294 12.9746 23.8843 13.599L23.7436 13.5537C22.9319 13.2916 22.0908 13.1299 21.2432 13.0749C20.9879 13.0555 20.0355 13.0555 19.7246 13.0749C18.7853 13.1363 18.0653 13.2755 17.2471 13.557C17.2144 13.5699 17.1849 13.5796 17.1555 13.5893C16.694 12.9681 16.1802 12.3857 15.614 11.8519C13.5161 9.88801 11.955 10.0012 11.955 10.0012C11.0321 10.7098 11.3463 13.0975 11.8241 15.1164C12.1383 16.4527 12.5245 17.6271 12.6685 18.051C12.6587 18.0736 12.6456 18.0995 12.6325 18.1222C11.8699 19.6493 11.4576 21.1214 11.3594 22.6874C12.2136 22.5644 14.5667 22.4253 16.3307 24.3018C16.3307 24.3018 17.4958 21.2605 20.6377 21.2605C23.7796 21.2605 24.4505 24.3018 24.4505 24.3018C26.532 22.6032 28.7738 22.6582 29.5593 22.7391C29.556 22.6744 29.5495 22.5774 29.5429 22.4803ZM13.287 16.8312C13.287 16.8312 12.063 13.8061 12.3772 12.0784C12.4296 11.7872 12.5278 11.5316 12.6816 11.3374C12.6816 11.3374 14.0692 11.4733 16.3078 13.9323C16.3078 13.9323 15.8824 14.1361 15.3129 14.5696C15.3129 14.5696 15.3096 14.5729 15.3063 14.5729C14.6878 15.042 13.8958 15.7862 13.287 16.8312ZM18.4809 21.3252C18.4613 21.3641 18.3631 21.4061 18.2518 21.4223C18.1406 21.4385 17.8002 21.4288 17.6071 21.4061C16.9133 21.3155 16.1769 21.1052 15.6402 20.8464C15.3391 20.7008 15.1231 20.5552 14.9627 20.3967L14.8711 20.3028L14.8612 20.1799C14.8449 19.9664 14.8482 19.6299 14.8743 19.5102C14.8907 19.4099 14.9267 19.3128 14.9758 19.2254C14.9932 19.2039 15.0412 19.1931 15.1198 19.1931C15.2638 19.1931 15.3849 19.2157 15.5813 19.2772C15.9838 19.4002 16.5827 19.6978 17.3126 20.1314C17.9148 20.4873 18.1406 20.662 18.314 20.9014C18.4319 21.0502 18.5104 21.2605 18.4809 21.3252ZM26.1916 20.2543C26.1818 20.3061 26.028 20.4614 25.8742 20.5746C25.4225 20.9014 24.6141 21.2055 23.7927 21.3511C23.3247 21.4352 22.8566 21.4482 22.7159 21.3802C22.6243 21.3349 22.6112 21.2994 22.6439 21.1829C22.7126 20.9402 22.9352 20.6749 23.2821 20.4258C23.4588 20.2996 24.1756 19.8693 24.5094 19.6881C25.0592 19.3904 25.5043 19.2125 25.8054 19.1704C25.9003 19.1575 26.0149 19.1543 26.0509 19.1704C26.1098 19.1931 26.1752 19.3646 26.2014 19.5716C26.2145 19.6816 26.208 20.167 26.1916 20.2543ZM25.6483 14.5696L25.6418 14.5664C25.092 14.1329 24.6796 13.929 24.6796 13.929C26.8429 11.4701 28.1815 11.3342 28.1815 11.3342C28.3287 11.5316 28.4236 11.7839 28.476 12.0751C28.7804 13.8028 27.5989 16.8312 27.5989 16.8312C27.1047 15.9609 26.4403 15.1909 25.6483 14.5696Z" fill="#FFA409"/>
<path d="M28.4794 12.0768C28.2241 12.0444 27.0165 12.038 25.6485 14.5713L25.6419 14.5681C25.0921 14.1345 24.6797 13.9307 24.6797 13.9307C26.843 11.4717 28.1816 11.3359 28.1816 11.3359C28.3321 11.5332 28.427 11.7856 28.4794 12.0768Z" fill="#FF9300"/>
<path d="M27.6023 16.8329C27.1048 15.9593 26.4437 15.1925 25.6484 14.5713C27.0165 12.0379 28.2209 12.0444 28.4794 12.0768C28.7838 13.8077 27.6023 16.8329 27.6023 16.8329Z" fill="#FF8300"/>
<path d="M28.5251 12.0839C28.509 12.0807 28.4928 12.0774 28.4766 12.0742L28.5251 12.0839Z" fill="#FF8300"/>
<path d="M16.3089 13.9307C16.3089 13.9307 15.8834 14.1345 15.314 14.5681C15.314 14.5681 15.3107 14.5713 15.3074 14.5713C13.8903 12.0347 12.6434 12.0444 12.375 12.0768C12.4274 11.7856 12.5256 11.53 12.6794 11.3359C12.6827 11.3359 14.0703 11.4717 16.3089 13.9307Z" fill="#FF9300"/>
<path d="M15.3121 14.5713C14.6902 15.0437 13.8982 15.7846 13.2895 16.8329C13.2895 16.8329 12.0655 13.8077 12.3797 12.0768C12.6448 12.0444 13.895 12.0379 15.3121 14.5713Z" fill="#FF8300"/>
<path d="M12.3799 12.0742C12.3637 12.0774 12.3443 12.0807 12.3281 12.0839L12.3799 12.0742Z" fill="#FF8300"/>
<path d="M24.2871 18.5097C24.2871 18.5097 23.2398 18.5744 23.3707 17.7655C23.5016 16.9566 24.3198 16.8596 24.5489 16.8919C24.778 16.9243 25.6944 17.2478 25.5308 17.9273C25.3671 18.6067 25.138 18.4773 25.0071 18.5097C24.8762 18.542 24.2871 18.5097 24.2871 18.5097Z" fill="white"/>
<path d="M16.5683 18.5097C16.5683 18.5097 15.521 18.5744 15.6519 17.7655C15.7828 16.9566 16.601 16.8596 16.8301 16.8919C17.0592 16.9243 17.9756 17.2478 17.8119 17.9273C17.6483 18.6067 17.4192 18.4773 17.2883 18.5097C17.1574 18.542 16.5683 18.5097 16.5683 18.5097Z" fill="white"/>
</g>
<defs>
<clipPath id="clip0_907_9955">
<rect width="40" height="40" fill="white"/>
</clipPath>
</defs>
</svg>
