<?xml version="1.0"?>
<svg xmlns="http://www.w3.org/2000/svg" width="125" height="105" viewBox="0 0 125 105" fill="none">
<path d="M33.73 85.0271L31.63 82.2371C33.55 80.8371 34.51 79.2171 34.51 77.3771C34.51 76.4971 34.32 75.8071 33.94 75.3071C33.54 74.8071 33 74.5571 32.32 74.5571C31.76 74.5571 31.33 74.7271 31.03 75.0671C30.71 75.4071 30.32 76.0771 29.86 77.0771L28.9 79.2071C27.48 82.4071 25.58 84.0071 23.2 84.0071C21.52 84.0071 20.17 83.3871 19.15 82.1471C18.11 80.9071 17.59 79.3371 17.59 77.4371C17.59 75.9571 17.93 74.6571 18.61 73.5371C19.27 72.4171 20.18 71.5371 21.34 70.8971L23.47 73.6571C21.95 74.6771 21.19 75.9371 21.19 77.4371C21.19 78.1571 21.36 78.7471 21.7 79.2071C22.04 79.6671 22.51 79.8971 23.11 79.8971C23.61 79.8971 24.02 79.7371 24.34 79.4171C24.64 79.0771 24.99 78.4671 25.39 77.5871L26.38 75.3371C27.14 73.6371 27.97 72.3971 28.87 71.6171C29.75 70.8371 30.85 70.4471 32.17 70.4471C33.95 70.4471 35.39 71.0971 36.49 72.3971C37.57 73.6971 38.11 75.3571 38.11 77.3771C38.11 79.0371 37.72 80.5371 36.94 81.8771C36.16 83.1971 35.09 84.2471 33.73 85.0271ZM37.75 62.4193H21.61V68.7493H17.95L17.95 52.0092H21.61L21.61 58.3693H37.75V62.4193ZM37.75 49.3404L17.95 49.3404V36.0204H21.61V45.2904H25.63V38.4804H29.08V45.2904H34.09V35.6604L37.75 35.6604V49.3404ZM37.75 32.1432L17.95 32.1432L17.95 24.7032C17.95 22.6232 18.54 20.9132 19.72 19.5732C20.9 18.2332 22.44 17.5632 24.34 17.5632C26.22 17.5632 27.76 18.2332 28.96 19.5732C30.16 20.9132 30.76 22.6232 30.76 24.7032V28.0932L37.75 28.0932V32.1432ZM27.22 28.0932V24.7032C27.22 23.7632 26.96 23.0332 26.44 22.5132C25.9 21.9732 25.2 21.7032 24.34 21.7032C23.5 21.7032 22.82 21.9832 22.3 22.5432C21.78 23.0832 21.52 23.8032 21.52 24.7032V28.0932H27.22Z" fill="#20263B"/>
<path d="M118.064 57.584V72.176H107.312V86H90.0321V72.176H48.0481V67.568L74.1601 1.52002H91.9521L69.5521 57.584H90.0321V33.904H107.312V57.584H118.064Z" fill="#1C60DD"/>
</svg>
