<?xml version="1.0"?>
<svg xmlns="http://www.w3.org/2000/svg" width="125" height="105" viewBox="0 0 125 105" fill="none">
<rect y="43.6772" width="125" height="60.6628" fill="white"/>
<path d="M115 57.3263C115 65.5832 111.828 72.4499 105.483 77.9264C99.2255 83.4029 91.5772 86.1412 82.5383 86.1412C75.5854 86.1412 69.3712 84.4561 63.8957 81.0859C58.4202 77.7158 54.205 73.0818 51.25 67.184L63.5046 58.8429C66.1989 62.8028 68.9801 65.7096 71.8482 67.5632C74.8032 69.4168 78.1927 70.3436 82.0169 70.3436C86.4494 70.3436 90.0562 69.2061 92.8374 66.9313C95.6186 64.5722 97.0092 61.4127 97.0092 57.4527C97.0092 53.577 95.4882 50.6282 92.4463 48.6061C89.4913 46.4997 85.1457 45.4465 79.4095 45.4465H68.589V41.0232L86.5798 16.6317H57.8988V1.21326H113.305V5.76297L94.2715 31.7974C100.008 33.2297 104.918 36.2207 109.003 40.7705C113.001 45.1517 115 50.6703 115 57.3263Z" fill="#1C60DD"/>
<path d="M33.73 84.0279L31.63 81.2379C33.55 79.8379 34.51 78.2179 34.51 76.3779C34.51 75.4979 34.32 74.8079 33.94 74.3079C33.54 73.8079 33 73.5579 32.32 73.5579C31.76 73.5579 31.33 73.7279 31.03 74.0679C30.71 74.4079 30.32 75.0779 29.86 76.0779L28.9 78.2079C27.48 81.4079 25.58 83.0079 23.2 83.0079C21.52 83.0079 20.17 82.3879 19.15 81.1479C18.11 79.9079 17.59 78.3379 17.59 76.4379C17.59 74.9579 17.93 73.6579 18.61 72.5379C19.27 71.4179 20.18 70.5379 21.34 69.8979L23.47 72.6579C21.95 73.6779 21.19 74.9379 21.19 76.4379C21.19 77.1579 21.36 77.7479 21.7 78.2079C22.04 78.6679 22.51 78.8979 23.11 78.8979C23.61 78.8979 24.02 78.7379 24.34 78.4179C24.64 78.0779 24.99 77.4679 25.39 76.5879L26.38 74.3379C27.14 72.6379 27.97 71.3979 28.87 70.6179C29.75 69.8379 30.85 69.4479 32.17 69.4479C33.95 69.4479 35.39 70.0979 36.49 71.3979C37.57 72.6979 38.11 74.3579 38.11 76.3779C38.11 78.0379 37.72 79.5379 36.94 80.8779C36.16 82.1979 35.09 83.2479 33.73 84.0279ZM37.75 61.4201H21.61V67.7501H17.95V51.0101H21.61V57.3701H37.75V61.4201ZM37.75 48.3413H17.95L17.95 35.0213H21.61V44.2913H25.63V37.4813H29.08V44.2913H34.09V34.6613H37.75V48.3413ZM37.75 31.144H17.95V23.704C17.95 21.624 18.54 19.914 19.72 18.574C20.9 17.234 22.44 16.564 24.34 16.564C26.22 16.564 27.76 17.234 28.96 18.574C30.16 19.914 30.76 21.624 30.76 23.704V27.094H37.75V31.144ZM27.22 27.094V23.704C27.22 22.764 26.96 22.034 26.44 21.514C25.9 20.974 25.2 20.704 24.34 20.704C23.5 20.704 22.82 20.984 22.3 21.544C21.78 22.084 21.52 22.804 21.52 23.704V27.094H27.22Z" fill="#20263B"/>
</svg>
