<?xml version="1.0"?>
<svg xmlns="http://www.w3.org/2000/svg" width="125" height="105" viewBox="0 0 125 105" fill="none">
<rect y="41.8381" width="125" height="62.5" fill="white"/>
<path d="M82.9557 0H88.8251V86.0845H71.2169V20.869L54.9131 26.0862L50.7393 10.5649L82.9557 0Z" fill="#1C60DD"/>
<path d="M33.7305 88.4381L31.6305 85.6481C33.5505 84.2481 34.5105 82.6281 34.5105 80.7881C34.5105 79.9081 34.3205 79.2181 33.9405 78.7181C33.5405 78.2181 33.0005 77.9681 32.3205 77.9681C31.7605 77.9681 31.3305 78.1381 31.0305 78.4781C30.7105 78.8181 30.3205 79.4881 29.8605 80.4881L28.9005 82.6181C27.4805 85.8181 25.5805 87.4181 23.2005 87.4181C21.5205 87.4181 20.1705 86.7981 19.1505 85.5581C18.1105 84.3181 17.5905 82.7481 17.5905 80.8481C17.5905 79.3681 17.9305 78.0681 18.6105 76.9481C19.2705 75.8281 20.1805 74.9481 21.3405 74.3081L23.4705 77.0681C21.9505 78.0881 21.1905 79.3481 21.1905 80.8481C21.1905 81.5681 21.3605 82.1581 21.7005 82.6181C22.0405 83.0781 22.5105 83.3081 23.1105 83.3081C23.6105 83.3081 24.0205 83.1481 24.3405 82.8281C24.6405 82.4881 24.9905 81.8781 25.3905 80.9981L26.3805 78.7481C27.1405 77.0481 27.9705 75.8081 28.8705 75.0281C29.7505 74.2481 30.8505 73.8581 32.1705 73.8581C33.9505 73.8581 35.3905 74.5081 36.4905 75.8081C37.5705 77.1081 38.1105 78.7681 38.1105 80.7881C38.1105 82.4481 37.7205 83.9481 36.9405 85.2881C36.1605 86.6081 35.0905 87.6581 33.7305 88.4381ZM37.7505 65.8303H21.6105V72.1603H17.9505L17.9505 55.4203H21.6105L21.6105 61.7803H37.7505V65.8303ZM37.7505 52.7514L17.9505 52.7514V39.4314H21.6105V48.7014H25.6305V41.8914H29.0805V48.7014H34.0905V39.0714L37.7505 39.0714V52.7514ZM37.7505 35.5542L17.9505 35.5542L17.9505 28.1142C17.9505 26.0342 18.5405 24.3242 19.7205 22.9842C20.9005 21.6442 22.4405 20.9742 24.3405 20.9742C26.2205 20.9742 27.7605 21.6442 28.9605 22.9842C30.1605 24.3242 30.7605 26.0342 30.7605 28.1142V31.5042L37.7505 31.5042V35.5542ZM27.2205 31.5042L27.2205 28.1142C27.2205 27.1742 26.9605 26.4442 26.4405 25.9242C25.9005 25.3842 25.2005 25.1142 24.3405 25.1142C23.5005 25.1142 22.8205 25.3942 22.3005 25.9542C21.7805 26.4942 21.5205 27.2142 21.5205 28.1142V31.5042H27.2205Z" fill="#20263B"/>
</svg>
