<svg width="26" height="24" viewBox="0 0 26 24" fill="none" xmlns="http://www.w3.org/2000/svg">
<g clip-path="url(#clip0_368_429)">
<path fill-rule="evenodd" clip-rule="evenodd" d="M0.504883 12C0.504883 5.37258 5.87747 0 12.5049 0C19.1323 0 24.5049 5.37258 24.5049 12C24.5049 18.6274 19.1323 24 12.5049 24C5.87747 24 0.504883 18.6274 0.504883 12ZM12.1455 9.75375L12.1707 10.169L11.751 10.1181C10.2233 9.92323 8.88871 9.26226 7.75555 8.15216L7.20156 7.60135L7.05887 8.0081C6.7567 8.91482 6.94975 9.87239 7.57928 10.5164C7.91503 10.8723 7.83949 10.9232 7.26032 10.7113C7.05887 10.6435 6.8826 10.5927 6.86581 10.6181C6.80706 10.6774 7.00851 11.4486 7.16799 11.7536C7.38623 12.1773 7.8311 12.5925 8.31793 12.8383L8.72923 13.0332L8.24239 13.0417C7.77234 13.0417 7.75555 13.0501 7.80591 13.2281C7.97379 13.7789 8.6369 14.3636 9.37555 14.6178L9.89596 14.7958L9.4427 15.067C8.7712 15.4568 7.98218 15.6771 7.19317 15.694C6.81545 15.7025 6.50488 15.7364 6.50488 15.7618C6.50488 15.8466 7.52892 16.3211 8.12488 16.5075C9.91275 17.0584 12.0364 16.8211 13.6312 15.8805C14.7643 15.211 15.8975 13.8806 16.4263 12.5925C16.7117 11.9062 16.9971 10.652 16.9971 10.0503C16.9971 9.66054 17.0223 9.60969 17.4923 9.14362C17.7693 8.87245 18.0295 8.57586 18.0799 8.49112C18.1638 8.33012 18.1554 8.33011 17.7273 8.47417C17.0139 8.72839 16.9131 8.6945 17.2657 8.31317C17.5259 8.042 17.8364 7.5505 17.8364 7.40645C17.8364 7.38102 17.7105 7.42339 17.5678 7.49966C17.4168 7.5844 17.081 7.71151 16.8292 7.78778L16.3759 7.93184L15.9646 7.65219C15.738 7.49966 15.419 7.33018 15.2512 7.27934C14.8231 7.1607 14.1684 7.17765 13.7823 7.31323C12.733 7.69456 12.0699 8.67755 12.1455 9.75375Z" fill="white"/>
</g>
<defs>
<clipPath id="clip0_368_429">
<rect width="25" height="24" fill="white" transform="translate(0.5)"/>
</clipPath>
</defs>
</svg>
