<?xml version="1.0" encoding="utf-8"?>
<!-- Generator: Adobe Illustrator 16.0.0, SVG Export Plug-In . SVG Version: 6.00 Build 0)  -->
<!DOCTYPE svg PUBLIC "-//W3C//DTD SVG 1.1//EN" "http://www.w3.org/Graphics/SVG/1.1/DTD/svg11.dtd">
<svg version="1.1" id="Layer_1" xmlns="http://www.w3.org/2000/svg" xmlns:xlink="http://www.w3.org/1999/xlink" x="0px" y="0px"
	 width="32px" height="32px" viewBox="0 0 32 32" enable-background="new 0 0 32 32" xml:space="preserve">
<path fill="#2775CA" d="M15.667,31.396c8.469,0,15.282-6.813,15.282-15.282S24.136,0.833,15.667,0.833
	c-8.468,0-15.281,6.813-15.281,15.282S7.199,31.396,15.667,31.396z"/>
<path fill="#FFFFFF" d="M19.869,18.534c0-2.229-1.337-2.993-4.011-3.311c-1.91-0.255-2.292-0.764-2.292-1.655
	c0-0.892,0.638-1.465,1.911-1.465c1.146,0,1.782,0.382,2.101,1.337c0.063,0.191,0.255,0.318,0.445,0.318h1.019
	c0.254,0,0.446-0.19,0.446-0.446v-0.063c-0.255-1.401-1.401-2.482-2.865-2.61V9.11c0-0.254-0.192-0.445-0.51-0.509h-0.955
	c-0.254,0-0.446,0.191-0.509,0.509v1.464c-1.91,0.255-3.12,1.528-3.12,3.121c0,2.101,1.273,2.929,3.948,3.247
	c1.782,0.319,2.356,0.7,2.356,1.719S16.94,20.38,15.73,20.38c-1.655,0-2.229-0.7-2.419-1.655c-0.063-0.254-0.254-0.382-0.446-0.382
	h-1.082c-0.255,0-0.445,0.191-0.445,0.445v0.064c0.253,1.592,1.272,2.737,3.374,3.057v1.527c0,0.255,0.191,0.446,0.509,0.511h0.956
	c0.253,0,0.446-0.192,0.509-0.511v-1.527C18.596,21.59,19.869,20.254,19.869,18.534L19.869,18.534z"/>
<path fill="#FFFFFF" d="M12.419,25.22c-4.966-1.783-7.513-7.322-5.667-12.226c0.955-2.674,3.056-4.711,5.667-5.667
	c0.255-0.127,0.382-0.317,0.382-0.636V5.8c0-0.255-0.127-0.446-0.382-0.51c-0.063,0-0.19,0-0.254,0.064
	c-6.049,1.91-9.361,8.342-7.451,14.39c1.146,3.566,3.885,6.305,7.451,7.45c0.254,0.127,0.509,0,0.573-0.255
	c0.063-0.063,0.063-0.126,0.063-0.254v-0.893C12.801,25.603,12.61,25.347,12.419,25.22z M19.169,5.354
	c-0.255-0.127-0.51,0-0.573,0.255c-0.063,0.063-0.063,0.127-0.063,0.255v0.892c0,0.255,0.191,0.509,0.382,0.636
	c4.966,1.782,7.514,7.322,5.667,12.225c-0.955,2.675-3.057,4.712-5.667,5.667c-0.255,0.127-0.382,0.319-0.382,0.638v0.892
	c0,0.254,0.127,0.445,0.382,0.508c0.063,0,0.191,0,0.255-0.063c6.049-1.911,9.36-8.342,7.45-14.391
	C25.473,9.238,22.671,6.5,19.169,5.354z"/>
</svg>
