<svg width="40" height="40" viewBox="0 0 40 40" fill="none" xmlns="http://www.w3.org/2000/svg">
<g clip-path="url(#clip0_907_9994)">
<path d="M20 40C31.0457 40 40 31.0457 40 20C40 8.9543 31.0457 0 20 0C8.9543 0 0 8.9543 0 20C0 31.0457 8.9543 40 20 40Z" fill="#F0F3FA"/>
<path fill-rule="evenodd" clip-rule="evenodd" d="M20.4388 11.2434C20.7884 11.2613 21.0889 10.9985 21.1134 10.658C21.1379 10.3175 20.8619 10.0248 20.5124 10.0009C20.1628 9.98295 19.8623 10.2398 19.8377 10.5803C19.8193 10.9268 20.0892 11.2195 20.4388 11.2434ZM26.394 11.3271C26.2406 11.5541 25.934 11.6198 25.7009 11.4705C25.474 11.3211 25.4066 11.0165 25.5537 10.7895C25.7071 10.5685 26.0137 10.5028 26.2468 10.6521C26.4798 10.8015 26.5473 11.1001 26.394 11.3271ZM15.2074 11.5177C15.4527 11.3982 15.5508 11.0995 15.4281 10.8606C15.3055 10.6216 14.9988 10.5261 14.7535 10.6455C14.5082 10.765 14.4101 11.0577 14.5327 11.2966C14.6554 11.5416 14.9559 11.6431 15.2074 11.5177ZM16.7648 21.864C15.9123 21.8162 15.2561 21.1054 15.3051 20.2751C15.3481 19.4746 16.0288 18.8474 16.8507 18.8474C17.7093 18.8414 18.4023 19.5164 18.4023 20.3527C18.4084 21.189 17.7154 21.864 16.8568 21.864H16.7648ZM9.00051 20.3472C9.01278 20.0784 9.25197 19.8693 9.52796 19.8873C9.80395 19.9052 10.0186 20.1322 10.0002 20.401C9.9818 20.6698 9.74875 20.8789 9.47276 20.8609C9.19677 20.849 8.98825 20.616 9.00051 20.3472ZM17.1206 13.1789C17.3108 13.5493 17.1574 14.0033 16.7772 14.1885C16.3969 14.3736 15.9308 14.2243 15.7407 13.8539C15.5506 13.4836 15.7039 13.0296 16.0842 12.8444C16.4644 12.6592 16.9305 12.8086 17.1206 13.1789ZM11.4903 16.0227C11.7847 16.2079 12.1772 16.1303 12.3735 15.8435C12.5636 15.5568 12.4839 15.1745 12.1895 14.9833C11.8951 14.7982 11.5026 14.8758 11.3063 15.1626C11.1101 15.4493 11.1959 15.8376 11.4903 16.0227ZM11.6129 20.3288C11.6375 19.9106 11.9993 19.594 12.4286 19.6179C12.858 19.6418 13.183 20.0002 13.1585 20.4124C13.1339 20.8305 12.7721 21.1471 12.3428 21.1232C11.9135 21.0994 11.5884 20.7469 11.6129 20.3288ZM11.5765 24.6776C11.2638 24.8329 11.135 25.2033 11.2944 25.5139C11.4539 25.8185 11.8341 25.944 12.1531 25.7887C12.4658 25.6334 12.5946 25.263 12.4352 24.9524C12.2757 24.6477 11.8893 24.5223 11.5765 24.6776ZM15.8388 17.8019C15.5689 18.214 15.0047 18.3275 14.5815 18.0587C14.1583 17.7899 14.0418 17.2404 14.3178 16.8342C14.5876 16.422 15.1519 16.3085 15.575 16.5773C15.9982 16.8401 16.1148 17.3897 15.8388 17.8019ZM24.1184 14.1283C24.4741 14.3553 24.9587 14.2597 25.1917 13.9132C25.4248 13.5668 25.3266 13.0948 24.9709 12.8679C24.6152 12.6409 24.1307 12.7364 23.8976 13.0829C23.6584 13.4353 23.7566 13.9013 24.1184 14.1283ZM24.2352 18.8353C23.3827 18.7875 22.6467 19.4267 22.6038 20.257C22.5547 21.0873 23.211 21.8041 24.0635 21.8459H24.1493C25.0018 21.8459 25.6949 21.1709 25.6949 20.3346C25.701 19.5402 25.057 18.8771 24.2352 18.8353ZM18.6721 18.7818C18.0834 18.7818 17.5498 18.4593 17.2861 17.9515C16.8997 17.2108 17.2063 16.3028 17.973 15.9205C18.7335 15.5442 19.6657 15.8429 20.0521 16.5896C20.1625 16.8046 20.2177 17.0376 20.2177 17.2705C20.2177 18.1068 19.5246 18.7818 18.6721 18.7818ZM29.4233 16.0224C29.7361 15.8671 29.8588 15.4908 29.6993 15.1861C29.5399 14.8815 29.1535 14.762 28.8407 14.9173C28.5279 15.0726 28.4053 15.443 28.5586 15.7477C28.7242 16.0523 29.1044 16.1777 29.4233 16.0224ZM25.0935 17.689C24.8665 17.253 25.0505 16.7213 25.4982 16.5003C25.946 16.2852 26.4918 16.4585 26.7187 16.8945C26.9456 17.3306 26.7617 17.8623 26.3139 18.0833C25.8662 18.3043 25.3204 18.1251 25.0935 17.689ZM21.3894 14.3083C21.3649 14.7981 20.9356 15.1744 20.4327 15.1446C19.9298 15.1207 19.5495 14.7025 19.574 14.2127C19.5986 13.7229 20.0279 13.3466 20.5308 13.3764C21.0337 13.4003 21.4201 13.8185 21.3894 14.3083ZM15.5018 24.1998C15.9495 23.9787 16.1335 23.4471 15.9066 23.011C15.6797 22.575 15.1338 22.3958 14.6861 22.6168C14.2384 22.8378 14.0544 23.3694 14.2813 23.8055C14.5082 24.2416 15.0541 24.4208 15.5018 24.1998ZM21.4692 18.5247C20.7516 18.0707 20.5554 17.1389 21.0215 16.44C21.3097 16.0158 21.7943 15.759 22.3156 15.759C22.6161 15.759 22.9105 15.8426 23.1619 16.0039C23.8795 16.4579 24.0758 17.3898 23.6096 18.0887C23.1435 18.7876 22.1868 18.9787 21.4692 18.5247ZM23.7138 22.7483C23.3274 22.0017 22.3952 21.703 21.6347 22.0793C20.868 22.4556 20.5614 23.3636 20.9478 24.1043C21.3341 24.851 22.2664 25.1497 23.0269 24.7734C23.7874 24.403 24.1002 23.507 23.7199 22.7603C23.7199 22.7578 23.7194 22.755 23.7194 22.755L23.7181 22.7528L23.7168 22.7514L23.7138 22.7483ZM25.1613 22.8975C25.4312 22.4853 25.9954 22.3718 26.4186 22.6406C26.8418 22.9094 26.9583 23.459 26.6823 23.8652C26.4125 24.2774 25.8482 24.3909 25.4251 24.1221C25.0019 23.8592 24.8854 23.3097 25.1613 22.8975ZM29.3871 20.3765C29.4116 19.9583 29.0865 19.6059 28.6572 19.582C28.2279 19.5581 27.8661 19.8747 27.8415 20.2928C27.817 20.711 28.1421 21.0634 28.5714 21.0873C28.9946 21.1112 29.3625 20.7886 29.3871 20.3765ZM30.9999 20.2989C31.0121 20.0301 31.2513 19.821 31.5273 19.839C31.8033 19.8569 32.0118 20.0839 31.9996 20.3527C31.9812 20.6215 31.7481 20.8306 31.4721 20.8126C31.1961 20.8007 30.9876 20.5677 30.9999 20.2989ZM29.5092 24.6775C29.2148 24.4923 28.8223 24.57 28.6261 24.8567C28.4359 25.1434 28.5157 25.5257 28.8101 25.7169C29.1044 25.9021 29.497 25.8244 29.6932 25.5377C29.8895 25.2509 29.8036 24.8627 29.5092 24.6775ZM14.6002 29.3669C14.7535 29.1459 15.0601 29.0802 15.2932 29.2296C15.5263 29.3789 15.5937 29.6835 15.4343 29.9046C15.2809 30.1256 14.9743 30.1913 14.7412 30.042C14.5143 29.8926 14.4468 29.5939 14.6002 29.3669ZM25.7931 29.1816C25.5477 29.3011 25.4496 29.5998 25.5723 29.8387C25.6949 30.0777 26.0016 30.1732 26.2469 30.0538C26.4922 29.9343 26.5904 29.6416 26.4677 29.4027C26.345 29.1577 26.0445 29.0562 25.7931 29.1816ZM19.531 22.1693C20.2485 22.6293 20.4448 23.5612 19.9787 24.2601C19.6904 24.6902 19.2059 24.947 18.6785 24.9411C18.378 24.9411 18.0836 24.8574 17.8321 24.6961C17.1145 24.2362 16.9122 23.3043 17.3844 22.6054C17.8566 21.9065 18.8134 21.7154 19.531 22.1693ZM16.8813 26.5713C16.5255 26.3443 16.041 26.4399 15.808 26.7863C15.5749 27.1328 15.6731 27.6047 16.0288 27.8317C16.3845 28.0587 16.869 27.9631 17.1021 27.6166C17.3412 27.2702 17.2431 26.7983 16.8813 26.5713ZM19.8193 30.0419C19.8438 29.7014 20.1443 29.4386 20.4939 29.4565C20.8435 29.4804 21.1133 29.7731 21.0949 30.1196C21.0704 30.4601 20.7699 30.7169 20.4203 30.699C20.0707 30.6751 19.7947 30.3824 19.8193 30.0419ZM20.4999 25.5559C19.997 25.526 19.5677 25.9023 19.5432 26.3922C19.5125 26.882 19.8989 27.3001 20.4018 27.324C20.9047 27.3479 21.334 26.9776 21.3586 26.4877C21.3892 26.0039 21.0029 25.5798 20.4999 25.5559ZM23.8856 27.5267C23.6894 27.1563 23.8427 26.7023 24.223 26.5112C24.6093 26.32 25.0755 26.4753 25.2717 26.8457C25.4618 27.216 25.3085 27.67 24.9283 27.8552C24.548 28.0463 24.0819 27.897 23.8856 27.5267Z" fill="#0033AD"/>
</g>
<defs>
<clipPath id="clip0_907_9994">
<rect width="40" height="40" fill="white"/>
</clipPath>
</defs>
</svg>
