<svg width="80" height="80" viewBox="0 0 80 80" fill="none" xmlns="http://www.w3.org/2000/svg">
<g clip-path="url(#clip0_983_2968)">
<path d="M8 66.3256C8 48.4423 8 30.5591 8 12.6759C8.04492 12.5432 8.0982 12.4126 8.13327 12.2774C8.60443 10.4628 9.70046 9.17394 11.4111 8.41952C11.8157 8.24118 12.2534 8.1379 12.6759 8C16.9826 8 21.2894 8 25.5961 8C25.9929 8.55772 26.4465 9.0838 26.7769 9.67838C28.2487 12.3262 29.7107 14.9803 31.1215 17.661C31.6538 18.6726 32.3842 19.0924 33.5253 19.0903C45.7451 19.0685 57.9649 19.0767 70.1847 19.0767C70.443 19.0767 70.7013 19.0767 70.9991 19.0767C70.9991 19.2966 70.9991 19.4367 70.9991 19.577C70.9989 34.8928 71.0029 50.2086 70.995 65.5243C70.9934 68.5442 68.5358 70.9943 65.511 70.9955C48.1653 71.0022 30.8198 71.0004 13.4742 70.9955C11.9207 70.995 10.6176 70.3837 9.52704 69.2855C8.70427 68.4569 8.31147 67.4141 8 66.3256ZM24.2351 59.2242C24.4823 59.6367 24.6714 60.1807 25.0421 60.5336C27.3931 62.7721 30.1509 64.3406 33.2426 65.3182C34.293 65.6502 34.9912 65.3729 35.6048 64.4387C37.5521 61.4737 41.433 61.458 43.3735 64.4073C44.0112 65.3767 44.705 65.6534 45.7821 65.3118C48.812 64.3505 51.5122 62.8081 53.8561 60.6566C54.7597 59.8271 54.8703 59.1412 54.3084 58.0287C53.8416 57.1042 53.6446 56.1322 53.8421 55.1121C54.2752 52.8748 55.9138 51.5218 58.3596 51.3481C59.3533 51.2775 59.9667 50.7678 60.1748 49.8233C60.8587 46.7196 60.9031 43.6123 60.2157 40.5024C59.931 39.2141 59.4919 38.8303 58.1831 38.7198C54.6283 38.4198 52.7835 35.1455 54.3672 31.9471C54.8545 30.9631 54.7333 30.228 53.9064 29.4665C51.5827 27.327 48.9207 25.7646 45.9025 24.8149C44.6826 24.4311 44.0485 24.6463 43.3436 25.7123C41.438 28.5938 37.5442 28.5836 35.6436 25.6922C34.9706 24.6681 34.3097 24.4244 33.1325 24.7981C30.1617 25.7411 27.5211 27.2621 25.2157 29.3604C24.2375 30.2506 24.1208 30.8924 24.7075 32.0741C25.1575 32.9804 25.3527 33.9351 25.1636 34.9343C24.7372 37.187 23.1037 38.553 20.669 38.7267C19.6637 38.7985 19.0352 39.2984 18.8306 40.2233C18.1444 43.3257 18.0935 46.4341 18.7775 49.5446C19.0702 50.8756 19.4927 51.2385 20.8497 51.3578C24.3698 51.6672 26.2101 54.9406 24.6505 58.1052C24.4997 58.411 24.4103 58.7467 24.2351 59.2242Z" fill="#0047FF"/>
<path d="M30.0234 8C42.1234 8 54.2232 8 66.3231 8C66.3752 8.03089 66.4237 8.0785 66.4797 8.09044C69.8888 8.82143 71.4961 11.7563 70.9066 15.3806C70.7719 15.3806 70.6311 15.3806 70.4904 15.3806C58.523 15.3806 46.5556 15.3781 34.5883 15.3914C34.1677 15.3918 33.9839 15.23 33.7981 14.8866C32.5526 12.5841 31.2844 10.294 30.0234 8Z" fill="#0047FF"/>
<path d="M12.6759 8C12.2534 8.1379 11.8157 8.24118 11.4111 8.41952C9.70046 9.17394 8.60443 10.4628 8.13327 12.2774C8.0982 12.4126 8.04477 12.5432 8 12.6759C8 11.1275 8 9.57898 8 8C9.55853 8 11.1172 8 12.6759 8Z" fill="white"/>
<path d="M22.1887 47.8103C21.8727 46.1542 21.8999 44.5045 22.0693 42.8479C22.1148 42.4032 22.3158 42.2144 22.7531 42.0932C25.7536 41.261 27.7154 39.3424 28.5928 36.349C29.0175 34.9 29.0144 33.4333 28.5676 31.9901C28.428 31.5394 28.5049 31.2712 28.9081 31.0432C30.2055 30.3096 31.4942 29.5607 32.7863 28.818C33.0947 28.6407 33.3111 28.7041 33.5767 28.9714C36.9857 32.4013 42.0123 32.4017 45.4164 28.9745C45.6762 28.7129 45.8874 28.6293 46.2053 28.815C47.545 29.5971 48.8857 30.3777 50.23 31.1521C50.5375 31.3293 50.5379 31.5425 50.4496 31.8646C49.1768 36.5047 51.6799 40.8558 56.3529 42.1275C56.6952 42.2206 56.8492 42.3564 56.8958 42.7224C57.1117 44.4196 57.1149 46.1076 56.8071 47.8178C54.9207 48.2308 53.294 49.0892 52.0617 50.5792C50.2235 52.802 49.665 55.3278 50.4353 58.1133C50.5567 58.5525 50.4829 58.7983 50.1123 59.0116C48.8561 59.7346 47.6188 60.4917 46.3442 61.1808C45.6685 61.5461 45.0402 61.0933 45.0384 60.2989C45.033 57.9821 45.0806 55.6641 45.0161 53.349C44.9876 52.3282 45.2473 51.6199 46.0156 50.8637C50.2193 46.7257 49.3718 39.7114 44.3744 36.5923C43.6988 36.1707 43.0203 36.0116 42.2963 36.4266C41.581 36.8367 41.3278 37.4929 41.3379 38.2889C41.3491 39.1703 41.3625 40.053 41.3248 40.933C41.3154 41.1531 41.1676 41.4401 40.9908 41.569C39.5398 42.6266 39.5246 42.6296 38.0658 41.6005C37.861 41.4561 37.6851 41.1307 37.6719 40.8798C37.6248 39.9802 37.6652 39.0764 37.6506 38.1745C37.6239 36.526 36.1488 35.6994 34.7368 36.5327C29.3547 39.7098 28.7388 47.2483 33.5318 51.425C33.839 51.6926 33.9692 51.947 33.9666 52.3542C33.9488 54.9578 33.9583 57.5618 33.957 60.1656C33.9566 61.1523 33.3803 61.5858 32.5447 61.1363C31.2689 60.4499 30.0385 59.6788 28.7931 58.9363C28.5613 58.7981 28.4109 58.6595 28.5191 58.3007C29.9433 53.5781 27.072 48.9195 22.4372 47.8766C22.36 47.8593 22.2846 47.8362 22.1887 47.8103Z" fill="#0047FF"/>
<path d="M41.341 58.628H37.654C37.654 58.4717 37.654 58.254 37.654 58.0364C37.654 55.7403 37.6422 53.4439 37.6598 51.148C37.6667 50.2482 37.3294 49.6033 36.5606 49.1035C34.6577 47.8663 33.8244 46.0724 33.979 43.816C33.9922 43.625 34.058 43.4376 34.0755 43.3573C35.6089 44.3757 37.1272 45.4056 38.6705 46.3966C39.1852 46.727 39.7937 46.7312 40.3105 46.4021C41.6743 45.5334 43.0119 44.6236 44.3564 43.7248C44.5411 43.6014 44.7057 43.4483 44.9043 43.2891C45.1337 44.1291 45.0816 45.0046 44.8431 45.871C44.4693 47.2292 43.6983 48.3278 42.4991 49.0637C41.6492 49.5853 41.3186 50.2843 41.3315 51.2566C41.3612 53.5114 41.3409 55.7669 41.3409 58.0219L41.341 58.628Z" fill="#0047FF"/>
</g>
<defs>
<clipPath id="clip0_983_2968">
<rect width="63.0288" height="63" fill="white" transform="translate(8 8)"/>
</clipPath>
</defs>
</svg>
