<svg width="40" height="40" viewBox="0 0 40 40" fill="none" xmlns="http://www.w3.org/2000/svg">
<g clip-path="url(#clip0_907_9927)">
<mask id="mask0_907_9927" style="mask-type:luminance" maskUnits="userSpaceOnUse" x="0" y="0" width="40" height="40">
<path d="M40 0H0V40H40V0Z" fill="white"/>
</mask>
<g mask="url(#mask0_907_9927)">
<path d="M32.3379 6.86328H7.64062V29.3101H32.3379V6.86328Z" fill="white"/>
<path fill-rule="evenodd" clip-rule="evenodd" d="M39.989 20.0008C39.989 31.0319 31.0407 39.9742 20.0023 39.9742C8.96397 39.9742 0.015625 31.0319 0.015625 20.0008C0.015625 8.96974 8.96397 0.0273438 20.0023 0.0273438C31.0407 0.0273438 39.989 8.96974 39.989 20.0008ZM14.3386 27.9492H10.4598C9.64474 27.9492 9.24213 27.9492 8.99665 27.7923C8.7315 27.6204 8.56948 27.3359 8.54984 27.0218C8.53509 26.7324 8.73642 26.379 9.13903 25.6724L18.7164 8.80221C19.1239 8.08583 19.3301 7.72764 19.5903 7.59517C19.8702 7.45288 20.2041 7.45288 20.484 7.59517C20.7442 7.72764 20.9504 8.08583 21.3579 8.80221L23.3268 12.2369L23.3369 12.2544C23.777 13.023 24.0002 13.4127 24.0977 13.8218C24.2057 14.2683 24.2057 14.7393 24.0977 15.1858C23.9995 15.598 23.7785 15.9905 23.3317 16.7707L18.301 25.6577L18.2879 25.6805C17.8449 26.4554 17.6203 26.8481 17.3092 27.1444C16.9704 27.4683 16.5628 27.7037 16.116 27.8364C15.7085 27.9492 15.2519 27.9492 14.3386 27.9492ZM24.134 27.9492H29.692C30.5119 27.9492 30.9244 27.9492 31.1701 27.7875C31.4351 27.6157 31.602 27.326 31.6169 27.0122C31.631 26.7322 31.4341 26.3925 31.0482 25.727C31.0349 25.7044 31.0216 25.6813 31.008 25.6578L28.224 20.8984L28.1923 20.8448C27.8011 20.1837 27.6036 19.8498 27.35 19.7208C27.0703 19.5785 26.7411 19.5785 26.4613 19.7208C26.206 19.8532 25.9998 20.2016 25.5923 20.9033L22.8181 25.6628L22.8086 25.6791C22.4025 26.3797 22.1996 26.7298 22.2142 27.017C22.2339 27.3311 22.3959 27.6204 22.661 27.7923C22.9016 27.9492 23.3141 27.9492 24.134 27.9492Z" fill="#E84142"/>
</g>
</g>
<defs>
<clipPath id="clip0_907_9927">
<rect width="40" height="40" fill="white"/>
</clipPath>
</defs>
</svg>
