<svg width="40" height="40" viewBox="0 0 40 40" fill="none" xmlns="http://www.w3.org/2000/svg">
<g clip-path="url(#clip0_907_9677)">
<path d="M20 40C31.0457 40 40 31.0457 40 20C40 8.9543 31.0457 0 20 0C8.9543 0 0 8.9543 0 20C0 31.0457 8.9543 40 20 40Z" fill="#FF7700"/>
<mask id="mask0_907_9677" style="mask-type:luminance" maskUnits="userSpaceOnUse" x="7" y="7" width="26" height="27">
<path d="M17.9981 7.2199L7.45312 25.4844L21.9764 33.8694L32.5214 15.6049L17.9981 7.2199Z" fill="white"/>
</mask>
<g mask="url(#mask0_907_9677)">
<path d="M27.6539 18.4975C27.8878 16.3924 26.3867 15.0523 24.1083 14.1987L24.9278 11.2193L23.1166 10.7164L22.2798 13.6858C21.8041 13.5497 21.3297 13.3913 20.8354 13.2675L21.6622 10.3154L19.851 9.8125L19.0229 12.7869C18.6301 12.6872 15.3609 11.7696 15.3609 11.7696L14.8189 13.7084C14.8189 13.7084 16.1694 14.0493 16.1371 14.0653C16.6614 14.137 17.0264 14.6249 16.9633 15.1542L14.6942 23.3243C14.5749 23.6711 14.192 23.8542 13.8452 23.7348C13.8612 23.7671 12.5321 23.3693 12.5321 23.3693L11.5703 25.4351C11.5703 25.4351 14.7999 26.3413 15.2273 26.4611L14.3878 29.4751L16.1989 29.9781L17.0484 26.9467C17.5415 27.0928 18.0258 27.2339 18.4928 27.365L17.6533 30.379L19.4645 30.882L20.299 27.8766C23.0639 28.6877 25.6723 28.1498 26.6722 25.5979C27.1298 23.9453 26.541 22.1851 25.1838 21.1359C26.4971 20.9011 27.5029 19.819 27.6453 18.4925L27.6539 18.4975ZM23.3218 24.2409C22.2936 26.7419 18.907 25.1676 17.6818 24.8298L18.7601 20.822C19.9853 21.1599 23.9735 21.8921 23.3218 24.2409ZM24.1119 18.3924C23.251 20.6435 20.3571 19.296 19.3351 19.0062L20.3063 15.3639C21.3284 15.6537 24.5328 16.0835 24.1083 18.3787L24.1119 18.3924Z" fill="white"/>
</g>
</g>
<defs>
<clipPath id="clip0_907_9677">
<rect width="40" height="40" fill="white"/>
</clipPath>
</defs>
</svg>
