<svg width="40" height="40" viewBox="0 0 40 40" fill="none" xmlns="http://www.w3.org/2000/svg">
<g clip-path="url(#clip0_907_9769)">
<path d="M20 40C31.0457 40 40 31.0457 40 20C40 8.9543 31.0457 0 20 0C8.9543 0 0 8.9543 0 20C0 31.0457 8.9543 40 20 40Z" fill="#F0B90B"/>
<path d="M19.9967 10L22.4743 12.5298L16.2355 18.75L13.7578 16.2798L19.9967 10Z" fill="white"/>
<path d="M23.7579 13.75L26.2355 16.2798L16.2355 26.25L13.7578 23.7798L23.7579 13.75Z" fill="white"/>
<path d="M12.4776 17.5L14.9552 20.0298L12.4776 22.5L10 20.0298L12.4776 17.5Z" fill="white"/>
<path d="M27.5234 17.5L30.001 20.0298L20.001 30L17.5234 27.5298L27.5234 17.5Z" fill="white"/>
</g>
<defs>
<clipPath id="clip0_907_9769">
<rect width="40" height="40" fill="white"/>
</clipPath>
</defs>
</svg>
