<svg width="40" height="40" viewBox="0 0 40 40" fill="none" xmlns="http://www.w3.org/2000/svg">
<g clip-path="url(#clip0_907_9814)">
<path d="M20 40C31.0457 40 40 31.0457 40 20C40 8.9543 31.0457 0 20 0C8.9543 0 0 8.9543 0 20C0 31.0457 8.9543 40 20 40Z" fill="#008DEB"/>
<path fill-rule="evenodd" clip-rule="evenodd" d="M16.2357 12H22.7882C28.5518 12 29.5685 15.3858 28.7534 20.1471C28.203 23.3439 26.8322 25.7926 24.5289 26.9451C23.4876 27.459 22.5095 27.75 20.2026 27.75H13.6642L14.2058 24.4738L19.9555 24.4776C23.4122 24.4813 24.3343 22.8678 24.783 21.4508C24.9513 20.9179 25.3405 19.278 25.3545 18.3106C25.379 16.4212 24.5201 15.28 21.6067 15.28L15.6923 15.2724L16.2357 12ZM11.2898 20.1399C11.4513 19.4083 11.7111 18.2314 13.4085 18.2314H20.1188C20.1188 18.2314 20.0486 18.6207 19.8348 19.5729C19.8329 19.5816 19.8309 19.5904 19.829 19.5992C19.6674 20.3308 19.4076 21.5077 17.7102 21.5077H11C11 21.5077 11.0701 21.1184 11.284 20.1662C11.2859 20.1575 11.2878 20.1487 11.2898 20.1399Z" fill="white"/>
</g>
<defs>
<clipPath id="clip0_907_9814">
<rect width="40" height="40" fill="white"/>
</clipPath>
</defs>
</svg>
