<svg width="40" height="40" viewBox="0 0 40 40" fill="none" xmlns="http://www.w3.org/2000/svg">
<g clip-path="url(#clip0_907_10016)">
<path d="M19.5122 39.6572C30.2885 39.6572 39.0244 30.9213 39.0244 20.145C39.0244 9.36872 30.2885 0.632812 19.5122 0.632812C8.73591 0.632812 0 9.36872 0 20.145C0 30.9213 8.73591 39.6572 19.5122 39.6572Z" fill="#BDA649"/>
<path fill-rule="evenodd" clip-rule="evenodd" d="M28.5097 16.1928C26.9129 12.1182 22.9655 11.3633 22.9655 11.3633H11.7033L11.7467 15.5136H13.9896V24.7814H11.7031V28.9243H22.6537C25.2929 28.9243 27.4084 26.3037 27.4084 26.3037C30.7962 21.5525 28.5097 16.1928 28.5097 16.1928ZM22.7125 23.5115C22.7125 23.5115 21.8535 24.736 20.9189 24.736H19.0495L19.0052 15.5239H21.4043C21.4043 15.5239 22.5159 15.7535 23.2925 17.9271C23.2925 17.9271 24.3221 21.0392 22.7125 23.5115Z" fill="white"/>
</g>
<defs>
<clipPath id="clip0_907_10016">
<rect width="39.0244" height="40" fill="white"/>
</clipPath>
</defs>
</svg>
