<svg width="40" height="40" viewBox="0 0 40 40" fill="none" xmlns="http://www.w3.org/2000/svg">
<g clip-path="url(#clip0_907_9837)">
<path d="M20 40C31.0457 40 40 31.0457 40 20C40 8.9543 31.0457 0 20 0C8.9543 0 0 8.9543 0 20C0 31.0457 8.9543 40 20 40Z" fill="#2057E3"/>
<path d="M28 12H12V28H28V12Z" fill="#2057E3"/>
<path fill-rule="evenodd" clip-rule="evenodd" d="M14.332 27.9885C12.7828 27.9885 11.9363 26.5212 12.6089 24.9929C12.8914 24.351 13.1791 23.7116 13.4668 23.0722C13.5998 22.7765 13.7332 22.4801 13.8658 22.1841C14.1994 21.4389 14.5334 20.6939 14.8674 19.949C15.7157 18.057 16.5639 16.1653 17.4054 14.2696C18.0906 12.7261 19.2146 11.9952 20.7768 12C22.4692 12.0052 24.1619 12.0043 25.8545 12.0033C27.0182 12.0027 28.1819 12.002 29.3454 12.0033C30.0091 12.0033 30.1451 12.2392 29.8572 12.884C29.7809 13.0558 29.7042 13.2274 29.6277 13.399C29.41 13.8869 29.1919 14.3756 28.9801 14.8666C28.8752 15.1095 28.7212 15.2195 28.4734 15.219C26.0166 15.2164 23.5602 15.2152 21.1041 15.2152C21.0074 15.2152 20.9108 15.2111 20.8139 15.207C20.7276 15.2033 20.6411 15.1996 20.5544 15.1988C20.1291 15.1956 19.8373 15.3987 19.6493 15.8273C19.1671 16.926 18.6781 18.0218 18.1894 19.117C17.9513 19.6506 17.7131 20.1842 17.4759 20.7178C17.2746 21.1693 17.0723 21.6202 16.8701 22.0711C16.5871 22.7022 16.3038 23.3338 16.0232 23.9662C15.7953 24.4798 15.9852 24.8006 16.5079 24.7996C18.4813 24.7944 20.4544 24.789 22.4274 24.7832C22.6994 24.7832 22.9714 24.7828 23.2434 24.7823C23.7875 24.7815 24.3316 24.7807 24.8761 24.7832C25.6172 24.7876 25.7326 24.9951 25.4098 25.7091C25.3656 25.807 25.3214 25.9048 25.2771 26.0026C25.0385 26.5303 24.8 27.0577 24.5752 27.5925C24.4508 27.8888 24.2754 28.0021 23.9755 28C22.3503 27.9918 15.9222 27.9891 14.332 27.9885ZM25.0131 18.4128C25.5063 18.4128 25.6497 18.6508 25.4383 19.1394C25.2541 19.5655 25.0626 19.9889 24.8713 20.412C24.7429 20.6957 24.6147 20.9794 24.4888 21.2636C24.3824 21.5026 24.2169 21.6116 23.9741 21.611H19.208C18.7722 21.611 18.6163 21.349 18.8022 20.9155C18.9896 20.4787 19.1826 20.0449 19.3756 19.611C19.5121 19.3042 19.6486 18.9974 19.7832 18.6895C19.8796 18.4689 20.0396 18.4046 20.2489 18.4057C21.0456 18.4052 24.2229 18.409 25.0131 18.4128ZM12.833 18.4102C12.7248 18.411 12.6166 18.4118 12.5084 18.4118L11.5344 18.4107C11.3261 18.4107 11.1621 18.5017 11.0682 18.7097C10.9946 18.8727 10.9208 19.0355 10.8469 19.1984C10.5823 19.7818 10.3176 20.3653 10.0637 20.9543C9.90378 21.3252 10.0517 21.5905 10.4325 21.6008C10.9904 21.6159 11.5488 21.611 12.1068 21.6061C12.2141 21.6052 12.3213 21.6043 12.4285 21.6035C12.5944 21.6018 12.7398 21.5354 12.8188 21.3606C12.9086 21.1621 12.9988 20.9639 13.089 20.7657C13.3494 20.1937 13.6098 19.6218 13.8588 19.0441C14.0202 18.6694 13.8638 18.4227 13.4814 18.4118C13.2659 18.4071 13.0494 18.4087 12.833 18.4102Z" fill="white"/>
</g>
<defs>
<clipPath id="clip0_907_9837">
<rect width="40" height="40" fill="white"/>
</clipPath>
</defs>
</svg>
