<svg width="2104" height="1913" viewBox="0 0 2104 1913" fill="none" xmlns="http://www.w3.org/2000/svg">
<path d="M551.9 1883.4C529.2 1876.9 505.8 1870.2 482.4 1865L482.6 1864.2C506 1869.5 529.4 1876.2 552.1 1882.7C602.8 1897.2 655.2 1912.1 709.5 1912.1C710.7 1912.1 711.8 1912.1 713 1912.1C785.7 1911.2 860.6 1878.4 918.4 1822C976 1765.8 1009.3 1693.6 1009.6 1623.9C1009.7 1605.9 1007.9 1587.5 1006.2 1569.7C1002.8 1533.9 999.3 1496.9 1010.8 1461.6C1025.9 1415.1 1066.7 1372.8 1131.9 1335.8C1149.6 1325.8 1168.1 1316.4 1186 1307.4C1221.1 1289.7 1257.4 1271.4 1288.9 1247.2C1334.3 1212.3 1369.9 1162.6 1388.9 1107.4C1408 1052.2 1409.8 993.7 1394.1 942.7C1384.8 912.5 1369.7 883.7 1355.1 855.9C1333.3 814.3 1310.8 771.4 1307.7 723.6C1301.7 630.6 1370.8 547.6 1437.4 501C1504.6 454 1584.1 426.1 1660.9 399.2C1670.2 395.9 1679.6 392.7 1688.8 389.4C1774.6 359 1864.5 323.2 1941.3 268.2C2025.5 207.8 2082.3 130.6 2101.3 50.9C2104.2 38.6 2104.8 20.4 2096.8 9.3C2093.2 4.2 2088.1 1.4 2081.9 0.9L2082 0C2088.5 0.6 2093.7 3.5 2097.5 8.8C2105.6 20.1 2105.1 38.6 2102.1 51C2083.1 130.9 2026.2 208.2 1941.9 268.7C1865 323.8 1775 359.6 1689.2 390C1679.9 393.3 1670.6 396.6 1661.3 399.8C1584.5 426.7 1505.1 454.5 1437.9 501.5C1336.5 572.5 1304.5 662.7 1308.5 723.5C1311.6 771.1 1334.1 814 1355.9 855.5C1370.5 883.4 1385.6 912.2 1395 942.4C1410.8 993.5 1409 1052.2 1389.8 1107.6C1370.7 1163 1335.1 1212.8 1289.5 1247.8C1258 1272 1221.6 1290.3 1186.5 1308.1C1168.6 1317.1 1150.1 1326.5 1132.4 1336.5C1067.3 1373.4 1026.7 1415.5 1011.7 1461.9C1000.3 1497.1 1003.8 1534 1007.2 1569.7C1008.9 1587.5 1010.7 1605.9 1010.6 1624C1010.2 1693.9 976.9 1766.3 919.1 1822.6C861.2 1879.1 786.1 1912 713.2 1912.9C712 1912.9 710.9 1912.9 709.7 1912.9C655.1 1912.8 602.7 1897.9 551.9 1883.4ZM695.3 1868.6C766.7 1868.6 840.6 1838 898.3 1784.4C956.3 1730.5 990.5 1660.5 992.1 1592.3C992.5 1574.7 991.1 1556.7 989.8 1539.3C987.1 1504.4 984.3 1468.4 996.2 1434.2C1011.9 1389.3 1052.7 1348.9 1117.6 1314.1C1135.2 1304.7 1153.7 1295.9 1171.5 1287.4C1206.5 1270.8 1242.6 1253.6 1274.2 1230.6C1319.8 1197.3 1355.8 1149.4 1375.7 1095.7C1395.6 1042 1398.5 984.8 1383.8 934.6C1375.1 904.9 1360.7 876.5 1346.8 849.1C1326.1 808.2 1304.7 766 1302.5 719.5C1299.7 660.2 1332.8 572.7 1434.2 505.4C1501.3 460.8 1580.1 435.2 1656.4 410.3C1665.7 407.3 1674.9 404.3 1684.1 401.2C1769.3 373.1 1858.7 339.9 1935.5 287.6C2019.8 230.2 2077.4 155.8 2097.5 78.2C2100.6 66.2 2101.5 48.2 2093.8 37C2090.2 31.7 2085 28.7 2078.6 28L2078.5 28.8C2084.7 29.5 2089.6 32.4 2093.1 37.4C2100.7 48.4 2099.8 66.1 2096.7 77.9C2076.6 155.3 2019.2 229.5 1935 286.9C1858.2 339.2 1768.9 372.4 1683.8 400.4C1674.6 403.4 1665.3 406.5 1656.1 409.5C1579.8 434.3 1500.9 460 1433.7 504.7C1367.1 549 1297.4 628.6 1301.7 719.5C1303.9 766.1 1325.4 808.5 1346.1 849.4C1360 876.8 1374.4 905.2 1383 934.8C1397.6 984.8 1394.7 1041.9 1374.9 1095.4C1355.1 1148.9 1319.1 1196.7 1273.7 1229.9C1242.2 1252.9 1206.1 1270.1 1171.1 1286.7C1153.3 1295.2 1134.8 1303.9 1117.2 1313.4C1052.2 1348.2 1011.2 1388.8 995.5 1433.9C983.5 1468.2 986.3 1504.3 989 1539.3C990.3 1556.7 991.7 1574.7 991.3 1592.2C989.7 1660.2 955.6 1730 897.7 1783.7C840.2 1837.2 766.4 1867.7 695.2 1867.7H693.4C638.6 1867.3 586 1851.4 535.2 1836C512.9 1829.3 489.9 1822.3 466.9 1816.7L466.7 1817.4C489.6 1823 512.6 1829.9 534.9 1836.7C585.8 1852.1 638.4 1868 693.3 1868.4C694.1 1868.6 694.7 1868.6 695.3 1868.6ZM680.6 1824.4C749.6 1824.4 821 1796.1 877.6 1746.2C935.8 1694.8 970.9 1627.2 973.8 1560.7C974.5 1543.5 973.5 1525.9 972.5 1508.9C970.5 1474.8 968.4 1439.6 980.8 1406.6C997.1 1363.1 1038.2 1324.5 1102.8 1291.9C1120.4 1283 1138.7 1274.9 1156.5 1266.9C1191.3 1251.4 1227.3 1235.3 1258.9 1213.4C1304.5 1181.8 1341 1135.8 1361.6 1083.9C1382.2 1031.9 1386.1 976.2 1372.6 927C1364.6 897.9 1350.9 869.9 1337.7 842.9C1318 802.6 1297.7 761 1296.4 715.7C1294.8 657.8 1329.1 573.2 1430.3 509.5C1497.3 467.3 1575.6 443.8 1651.3 421.1C1660.5 418.3 1669.7 415.6 1678.9 412.8C1763.5 387.1 1852.3 356.4 1929.1 306.9C2013.4 252.5 2071.6 181.1 2092.9 105.8C2096.2 94.2 2097.4 76.8 2090.1 65.7C2086.6 60.4 2081.6 57.3 2075.2 56.5L2075.1 57.3C2081.2 58.1 2086.1 61 2089.5 66.1C2096.7 76.9 2095.5 94.1 2092.2 105.6C2070.9 180.7 2012.8 252 1928.7 306.2C1852 355.7 1763.2 386.3 1678.7 412.1C1669.5 414.9 1660.4 417.6 1651.1 420.4C1575.3 443.1 1497 466.7 1429.9 508.9C1363.3 550.8 1293.1 627.1 1295.6 715.8C1296.9 761.3 1317.3 803 1337 843.3C1350.2 870.3 1363.9 898.2 1371.8 927.3C1385.3 976.4 1381.4 1031.9 1360.8 1083.7C1340.2 1135.5 1303.9 1181.4 1258.4 1212.9C1226.9 1234.7 1190.9 1250.8 1156.1 1266.3C1138.3 1274.2 1120 1282.4 1102.4 1291.3C1037.6 1324 996.4 1362.8 980 1406.4C967.5 1439.6 969.6 1474.9 971.7 1509.1C972.7 1526.1 973.7 1543.6 973 1560.8C970.1 1627.1 935.2 1694.5 877.1 1745.8C820.7 1795.6 749.4 1823.8 680.6 1823.9C678.4 1823.9 676.2 1823.9 673.9 1823.8C619.8 1822.3 568.3 1805.8 518.4 1789.8C496.6 1782.8 474 1775.6 451.4 1769.7L451.2 1770.4C473.7 1776.3 496.3 1783.5 518.1 1790.5C568 1806.5 619.6 1823 673.8 1824.5C676.2 1824.3 678.4 1824.4 680.6 1824.4ZM666.2 1780.3C732.7 1780.3 801.6 1754.3 856.9 1707.9C915.4 1658.9 951.3 1593.7 955.5 1529C956.6 1512.3 955.9 1495.1 955.2 1478.5C953.9 1445.3 952.5 1410.9 965.4 1378.9C982.4 1336.8 1023.6 1300 1088.1 1269.5C1105.6 1261.2 1123.9 1253.6 1141.6 1246.2C1176.3 1231.8 1212.1 1216.8 1243.7 1196.1C1289.3 1166.2 1326.2 1122.1 1347.6 1071.9C1369 1021.7 1373.9 967.4 1361.5 919.1C1354.2 890.6 1341.2 863 1328.7 836.4C1310.1 796.8 1290.8 755.8 1290.4 711.5C1289.9 655 1325.4 573.2 1426.6 513.1C1493.6 473.3 1571.3 452 1646.5 431.4C1655.6 428.9 1664.7 426.4 1673.8 423.9C1757.8 400.5 1846.1 372.4 1922.8 325.6C2007 274.3 2065.8 205.8 2088.4 132.8C2091.9 121.6 2093.4 104.7 2086.5 93.8C2083.1 88.5 2078.2 85.4 2071.9 84.4L2071.8 85.2C2077.9 86.1 2082.6 89.1 2085.9 94.2C2092.7 104.9 2091.1 121.6 2087.7 132.6C2065.2 205.4 2006.5 273.7 1922.4 324.9C1845.7 371.6 1757.5 399.7 1673.6 423.1C1664.5 425.6 1655.4 428.1 1646.3 430.6C1571.1 451.2 1493.3 472.6 1426.3 512.4C1359.8 551.9 1289 624.9 1289.7 711.4C1290.1 755.8 1309.4 796.9 1328 836.6C1340.5 863.2 1353.4 890.7 1360.7 919.2C1373 967.3 1368.1 1021.4 1346.8 1071.5C1325.5 1121.6 1288.7 1165.6 1243.2 1195.4C1211.7 1216.1 1175.9 1231 1141.2 1245.4C1123.5 1252.8 1105.2 1260.4 1087.7 1268.7C1023.1 1299.3 981.7 1336.2 964.7 1378.5C951.8 1410.6 953.1 1445.1 954.5 1478.4C955.2 1495 955.8 1512.1 954.8 1528.8C950.7 1593.4 914.8 1658.4 856.5 1707.2C801.3 1753.4 732.5 1779.4 666.2 1779.4C662.3 1779.4 658.4 1779.3 654.5 1779.1C601.2 1776.6 550.6 1759.4 501.7 1742.9C480.3 1735.6 458.1 1728.1 436 1721.9L435.8 1722.6C457.9 1728.8 480 1736.3 501.5 1743.6C550.4 1760.2 601 1777.4 654.5 1779.9C658.3 1780.2 662.2 1780.3 666.2 1780.3ZM651.9 1736.3C715.9 1736.3 782.1 1712.5 836.2 1669.7C894.9 1623.2 931.7 1560.4 937.1 1497.4C938.5 1481.1 938.2 1464.4 937.9 1448.2C937.3 1415.8 936.6 1382.2 950 1351.3C967.6 1310.6 1009.1 1275.6 1073.3 1247.2C1090.7 1239.5 1108.9 1232.5 1126.5 1225.6C1161 1212.3 1196.7 1198.5 1228.3 1178.9C1273.9 1150.7 1311.2 1108.5 1333.3 1060C1355.4 1011.5 1361.4 958.7 1350.2 911.4C1343.6 883.4 1331.3 856.3 1319.5 830.1C1301.9 791.1 1283.7 750.7 1284.3 707.6C1285 652.5 1321.7 573.6 1422.8 517.1C1489.7 479.7 1566.9 460.6 1641.5 442C1650.6 439.7 1659.6 437.5 1668.6 435.2C1752 414.1 1839.7 388.6 1916.4 344.6C2000.6 296.3 2060.1 230.8 2083.8 160.2C2087.4 149.4 2089.3 133.1 2082.8 122.2C2079.6 116.9 2074.8 113.7 2068.5 112.6L2068.4 113.4C2074.5 114.4 2079.1 117.5 2082.2 122.6C2088.6 133.2 2086.7 149.3 2083.1 159.9C2059.4 230.4 2000.1 295.7 1916.1 343.9C1839.5 387.8 1751.8 413.4 1668.5 434.4C1659.5 436.7 1650.4 438.9 1641.4 441.2C1566.7 459.8 1489.6 478.9 1422.5 516.4C1356 553.5 1284.7 623.2 1283.6 707.5C1283.1 750.8 1301.3 791.2 1318.9 830.3C1330.7 856.5 1342.9 883.6 1349.5 911.5C1360.7 958.7 1354.7 1011.3 1332.7 1059.6C1310.6 1108 1273.4 1150.1 1227.9 1178.2C1196.4 1197.7 1160.7 1211.5 1126.2 1224.8C1108.6 1231.6 1090.4 1238.6 1072.9 1246.4C1008.5 1274.9 966.9 1310 949.2 1350.8C935.8 1381.9 936.4 1415.5 937.1 1448C937.4 1464.2 937.7 1480.9 936.3 1497.1C930.9 1559.9 894.2 1622.6 835.7 1668.9C776.9 1715.4 703.7 1739.4 634.9 1734.8C582.3 1731.3 532.8 1713.5 484.8 1696.3C463.8 1688.8 442.1 1681 420.4 1674.5L420.2 1675.2C441.9 1681.7 463.6 1689.5 484.6 1697C532.6 1714.2 582.2 1732 634.9 1735.6C640.5 1736.2 646.2 1736.3 651.9 1736.3ZM637.8 1692.5C699.2 1692.5 762.8 1670.9 815.5 1631.5C874.5 1587.5 912.1 1527.1 918.8 1465.7C920.5 1449.9 920.6 1433.5 920.6 1417.8C920.7 1386.2 920.7 1353.5 934.6 1323.7C952.8 1284.5 994.5 1251.3 1058.5 1225C1075.9 1217.9 1094 1211.4 1111.5 1205.2C1145.9 1192.9 1181.4 1180.3 1213 1161.9C1258.6 1135.4 1296.4 1095.1 1319.2 1048.3C1342.1 1001.5 1349.1 950.2 1339 903.8C1333 876.4 1321.5 849.7 1310.4 823.9C1293.9 785.5 1276.8 745.8 1278.2 703.8C1280.1 650 1318 573.8 1419 521C1485.9 486 1562.4 469 1636.5 452.6C1645.5 450.6 1654.5 448.6 1663.4 446.6C1746.2 427.9 1833.3 404.9 1910 363.7C1994.2 318.5 2054.2 255.9 2079.2 187.6C2083 177.3 2085.2 161.4 2079.1 150.7C2076.1 145.4 2071.3 142.1 2065.1 140.9L2065 141.7C2071 142.8 2075.6 146 2078.5 151.1C2084.5 161.6 2082.3 177.2 2078.6 187.4C2053.7 255.6 1993.8 318 1909.8 363.1C1833.2 404.2 1746.1 427.2 1663.4 445.9C1654.4 447.9 1645.4 449.9 1636.5 451.9C1562.4 468.4 1485.8 485.4 1418.8 520.4C1352.4 555.1 1280.4 621.5 1277.6 703.7C1276.2 745.9 1293.3 785.7 1309.9 824.2C1321 850 1332.5 876.6 1338.4 904C1348.5 950.2 1341.5 1001.3 1318.7 1048C1295.9 1094.7 1258.3 1134.9 1212.8 1161.3C1181.2 1179.6 1145.8 1192.2 1111.4 1204.5C1093.9 1210.8 1075.8 1217.2 1058.3 1224.4C994.1 1250.7 952.3 1284.1 934 1323.5C920.1 1353.5 920 1386.3 920 1418C920 1433.8 919.9 1450.1 918.2 1465.9C911.5 1527 874 1587.2 815.2 1631.1C756.2 1675.2 683.4 1697 615.5 1690.9C563.6 1686.3 515.1 1667.9 468.1 1650.1C447.5 1642.3 426.2 1634.2 404.9 1627.4L404.7 1628.1C426 1634.9 447.3 1643 467.8 1650.8C514.8 1668.6 563.4 1687 615.4 1691.6C622.8 1692.2 630.3 1692.5 637.8 1692.5ZM624 1648.8C682.8 1648.8 743.7 1629.2 794.8 1593.3C854 1551.7 892.5 1493.7 900.5 1434.1C902.6 1418.7 902.9 1402.8 903.3 1387.4C904.1 1356.6 904.8 1324.7 919.2 1296C938.1 1258.2 980 1226.8 1043.8 1202.6C1061.1 1196 1079.2 1190.2 1096.6 1184.5C1130.8 1173.3 1166.2 1161.8 1197.8 1144.6C1243.5 1119.8 1281.6 1081.4 1305.2 1036.3C1328.8 991.2 1336.9 941.3 1327.9 895.9C1322.6 869.1 1311.8 842.8 1301.4 817.4C1285.9 779.6 1269.9 740.5 1272.2 699.6C1275.2 647.4 1314.3 574 1415.2 524.9C1482 492.3 1558 477.5 1631.5 463.1C1640.4 461.4 1649.4 459.6 1658.2 457.8C1740.4 441.4 1827 421 1903.6 382.6C1987.7 340.4 2048.4 280.9 2074.6 214.8C2078.5 204.9 2081.1 189.5 2075.4 179C2072.5 173.7 2067.9 170.3 2061.7 169L2061.6 169.7C2067.6 170.9 2072 174.1 2074.8 179.3C2080.4 189.6 2077.9 204.7 2074 214.5C2047.9 280.4 1987.4 339.8 1903.4 381.9C1826.9 420.3 1740.3 440.7 1658.2 457C1649.3 458.8 1640.4 460.5 1631.5 462.3C1557.9 476.7 1481.9 491.5 1415 524.1C1348.6 556.4 1276.1 619.5 1271.6 699.5C1269.3 740.6 1285.3 779.7 1300.8 817.6C1311.2 843 1322 869.2 1327.2 896C1336.1 941.2 1328.1 990.9 1304.6 1035.8C1281.1 1080.8 1243 1119.1 1197.5 1143.8C1165.9 1160.9 1130.6 1172.4 1096.4 1183.6C1079 1189.3 1060.9 1195.2 1043.6 1201.8C979.6 1226 937.6 1257.6 918.6 1295.6C904.2 1324.5 903.4 1356.4 902.7 1387.3C902.3 1402.6 901.9 1418.5 899.9 1433.9C892 1493.3 853.6 1551.1 794.6 1592.6C735.4 1634.2 663 1653.8 596.1 1646.4C545 1640.7 497.4 1621.7 451.4 1603.3C431.2 1595.2 410.4 1586.9 389.5 1579.8L389.3 1580.5C410.2 1587.6 431 1595.9 451.1 1604C497.1 1622.4 544.7 1641.5 596 1647.1C605.1 1648.3 614.5 1648.8 624 1648.8ZM610.4 1605.2C666.6 1605.2 724.7 1587.6 774.1 1555.1C833.5 1516 872.9 1460.3 882.1 1402.5C884.5 1387.6 885.2 1372.1 885.9 1357.1C887.3 1327.1 888.8 1296.1 903.6 1268.4C923.1 1232 965.2 1202.4 1028.8 1180.3C1046.1 1174.3 1064 1169 1081.4 1163.9C1115.4 1153.8 1150.7 1143.4 1182.3 1127.4C1228 1104.4 1266.6 1067.8 1290.9 1024.4C1315.3 981 1324.4 932.6 1316.5 888.2C1311.9 861.9 1301.8 836.1 1292.1 811.1C1277.7 773.9 1262.7 735.5 1265.9 695.7C1272.2 618.2 1345.1 558.7 1411.2 528.8C1478 498.7 1553.4 486 1626.4 473.7C1635.3 472.2 1644.1 470.7 1652.9 469.2C1734.5 455.2 1820.5 437.3 1897.1 401.7C1981.2 362.6 2042.5 306 2069.8 242.3C2073.9 232.8 2076.8 218 2071.4 207.5C2068.7 202.1 2064.2 198.7 2058 197.3L2057.8 198C2063.7 199.3 2068 202.6 2070.7 207.8C2075.9 218 2073.1 232.6 2069 241.9C2041.8 305.4 1980.6 361.9 1896.6 400.9C1820.1 436.5 1734.1 454.3 1652.6 468.3C1643.8 469.8 1634.9 471.3 1626.1 472.8C1553.1 485.1 1477.6 497.8 1410.8 528C1344.5 557.9 1271.4 617.7 1265.1 695.5C1261.9 735.5 1276.8 774 1291.3 811.3C1301 836.3 1311 862.1 1315.6 888.3C1323.4 932.6 1314.3 980.8 1290.1 1024C1265.8 1067.3 1227.4 1103.7 1181.8 1126.7C1150.2 1142.6 1115 1153 1081 1163.1C1063.6 1168.2 1045.7 1173.6 1028.4 1179.5C964.6 1201.6 922.4 1231.3 902.8 1267.9C887.9 1295.7 886.4 1326.8 885 1356.9C884.3 1371.8 883.5 1387.3 881.2 1402.2C872 1459.9 832.8 1515.3 773.5 1554.3C714 1593.4 642.1 1610.8 576.1 1602.1C525.7 1595.4 479.2 1575.8 434.1 1556.7C414.4 1548.4 394 1539.8 373.5 1532.3L373.2 1533C393.7 1540.4 414.1 1549 433.8 1557.3C478.9 1576.3 525.5 1596 576 1602.7C587.5 1604.5 598.9 1605.2 610.4 1605.2ZM597.2 1561.8C650.6 1561.8 705.9 1546.2 753.5 1516.9C813.2 1480.2 853.4 1427 863.9 1370.8C866.6 1356.3 867.7 1341.2 868.8 1326.7C870.9 1297.5 873.1 1267.3 888.4 1240.8C908.5 1205.8 950.9 1178 1014.2 1158.1C1031.4 1152.7 1049.3 1147.9 1066.6 1143.4C1100.5 1134.4 1135.5 1125.1 1167.2 1110.3C1212.9 1089 1251.9 1054.3 1277 1012.6C1302.1 970.9 1312.2 924 1305.6 880.5C1301.6 854.8 1292.3 829.4 1283.3 804.8C1269.9 768.2 1256 730.4 1260.2 691.7C1268.3 616.4 1341.7 560.2 1407.8 532.7C1474.5 505 1549.4 494.4 1621.8 484.3C1630.6 483.1 1639.4 481.8 1648.1 480.6C1729 468.9 1814.5 453.6 1891 420.8C1975 384.8 2037 331.1 2065.5 269.7C2069.7 260.6 2072.9 246.3 2068 236C2065.4 230.6 2061 227.2 2054.9 225.6L2054.7 226.3C2060.6 227.8 2064.8 231.1 2067.2 236.3C2072 246.4 2068.8 260.4 2064.7 269.3C2036.3 330.5 1974.4 384.1 1890.6 420C1814.1 452.8 1728.7 468.1 1647.8 479.8C1639 481.1 1630.3 482.3 1621.5 483.5C1549.1 493.7 1474.1 504.2 1407.3 532C1341 559.6 1267.4 616 1259.3 691.6C1255.1 730.5 1269 768.4 1282.5 805C1291.5 829.5 1300.8 854.9 1304.7 880.6C1311.4 923.9 1301.3 970.6 1276.2 1012.2C1251.2 1053.7 1212.3 1088.3 1166.7 1109.6C1135.1 1124.3 1100.1 1133.6 1066.2 1142.6C1048.9 1147.2 1031 1151.9 1013.8 1157.3C950.2 1177.3 907.7 1205.2 887.5 1240.4C872.1 1267.1 869.9 1297.4 867.8 1326.7C866.7 1341.2 865.6 1356.3 862.9 1370.8C852.5 1426.8 812.4 1479.8 752.9 1516.3C693.2 1553 621.7 1568.2 556.6 1558C507 1550.2 461.4 1530 417.3 1510.4C398 1501.8 378 1492.9 358 1485.2L357.7 1485.9C377.8 1493.6 397.7 1502.5 417 1511.1C461.1 1530.7 506.7 1551 556.4 1558.8C570 1560.8 583.5 1561.8 597.2 1561.8ZM584.2 1518.6C634.9 1518.6 687.1 1504.8 732.8 1478.7C792.7 1444.5 833.8 1393.7 845.6 1339.2C848.6 1325.1 850.1 1310.5 851.5 1296.3C854.3 1267.9 857.2 1238.6 873 1213.1C893.8 1179.5 936.3 1153.5 999.5 1135.7C1016.7 1130.9 1034.5 1126.7 1051.7 1122.7C1085.4 1114.8 1120.3 1106.6 1152 1093C1197.7 1073.4 1237.1 1040.6 1263 1000.6C1288.8 960.6 1300 915.2 1294.5 872.7C1291.2 847.6 1282.6 822.6 1274.3 798.4C1261.9 762.4 1249.2 725.3 1254.2 687.7C1264 614.5 1338 561.6 1404 536.6C1470.7 511.3 1545 502.9 1616.8 494.8C1625.5 493.8 1634.2 492.8 1642.9 491.8C1723.2 482.5 1808.1 469.7 1884.6 439.7C1968.6 406.7 2031.2 356 2060.9 296.9C2065.3 288.2 2068.8 274.4 2064.3 264.3C2061.9 258.9 2057.6 255.4 2051.6 253.7L2051.4 254.4C2057.2 256 2061.3 259.4 2063.6 264.5C2068 274.4 2064.6 287.9 2060.2 296.5C2030.6 355.4 1968.1 406 1884.3 438.9C1807.9 468.9 1723 481.7 1642.8 491C1634.1 492 1625.4 493 1616.7 494C1544.8 502.1 1470.4 510.4 1403.7 535.8C1337.5 561 1263.2 614.1 1253.4 687.6C1248.3 725.3 1261.1 762.6 1273.5 798.7C1281.8 822.8 1290.4 847.8 1293.6 872.9C1299.1 915.2 1288 960.5 1262.2 1000.3C1236.4 1040.1 1197.1 1072.8 1151.6 1092.4C1120 1106 1085.1 1114.1 1051.4 1122C1034.2 1126 1016.4 1130.2 999.2 1135C935.8 1152.9 893.1 1179 872.3 1212.7C856.4 1238.4 853.5 1267.8 850.7 1296.2C849.3 1310.3 847.8 1325 844.8 1339C833.1 1393.2 792.2 1443.9 732.4 1478C672.4 1512.2 601.3 1525.2 537.3 1513.7C488.4 1504.9 443.8 1484 400.8 1463.8C381.9 1454.9 362.4 1445.8 342.7 1437.7L342.4 1438.4C362 1446.4 381.6 1455.6 400.4 1464.4C443.5 1484.6 488.1 1505.6 537.1 1514.4C552.5 1517.2 568.3 1518.6 584.2 1518.6ZM571.5 1475.5C619.3 1475.5 668.5 1463.5 712.1 1440.4C772.3 1408.7 814.2 1360.2 827.2 1307.5C830.6 1293.9 832.4 1279.6 834.1 1265.9C837.6 1238.3 841.3 1209.9 857.5 1185.4C878.9 1153.3 921.7 1129 984.6 1113.3C1001.7 1109 1019.4 1105.5 1036.5 1102C1070.1 1095.2 1104.8 1088.1 1136.5 1075.7C1182.2 1057.8 1222.1 1026.9 1248.7 988.6C1275.3 950.3 1287.5 906.4 1283.1 864.8C1280.5 840.2 1272.6 815.7 1265 791.9C1253.7 756.6 1242 720 1247.9 683.6C1259.5 612.6 1334.1 563 1400 540.3C1466.6 517.4 1540.3 511.2 1611.6 505.2C1620.3 504.5 1628.9 503.7 1637.5 503C1717.2 496 1801.6 485.8 1878 458.6C1962 428.7 2025.2 380.9 2056.1 324.1C2060.6 315.8 2064.5 302.5 2060.3 292.5C2058.1 287.1 2053.9 283.5 2047.9 281.7L2047.7 282.4C2053.5 284.1 2057.5 287.6 2059.6 292.7C2063.6 302.4 2059.9 315.4 2055.4 323.6C2024.6 380.2 1961.5 427.8 1877.7 457.7C1801.3 484.9 1717 495.1 1637.4 502.1C1628.8 502.9 1620.1 503.6 1611.4 504.3C1540.1 510.3 1466.3 516.5 1399.6 539.4C1333.5 562.2 1258.6 611.9 1247 683.3C1241 719.9 1252.8 756.6 1264.1 792C1271.7 815.7 1279.5 840.2 1282.1 864.7C1286.5 906.1 1274.3 949.9 1247.8 988C1221.3 1026.1 1181.6 1056.9 1136 1074.8C1104.4 1087.2 1069.7 1094.2 1036.1 1101C1019 1104.5 1001.2 1108.1 984.1 1112.3C921 1128 878 1152.4 856.5 1184.7C840.1 1209.3 836.5 1237.9 833 1265.5C831.2 1279.2 829.4 1293.4 826.1 1307C813.2 1359.5 771.3 1407.8 711.4 1439.4C651.2 1471.2 580.5 1482 517.4 1469C469.2 1459.1 425.7 1437.6 383.6 1416.8C365.1 1407.7 346.1 1398.2 326.8 1389.9L326.5 1390.6C345.7 1398.9 364.8 1408.4 383.3 1417.5C425.5 1438.3 469.1 1459.9 517.3 1469.8C535.1 1473.8 553.2 1475.5 571.5 1475.5ZM559.2 1432.7C604 1432.7 650 1422.3 691.4 1402.3C751.8 1373 794.6 1327 808.9 1276C812.6 1262.8 814.8 1249 816.9 1235.7C821.1 1209 825.5 1181.3 842.2 1158C864.2 1127.3 907.2 1104.8 970 1091.3C987 1087.6 1004.7 1084.6 1021.7 1081.7C1055.1 1076 1089.7 1070.1 1121.4 1058.8C1167.2 1042.6 1207.4 1013.5 1234.8 977C1262.1 940.5 1275.4 898 1272.1 857.4C1270.2 833.4 1263 809.2 1256.1 785.9C1245.8 751.2 1235.2 715.3 1242.1 679.9C1255.4 611.1 1330.6 564.8 1396.5 544.5C1463 524 1536.2 519.9 1607 516.1C1615.6 515.6 1624.2 515.2 1632.8 514.7C1711.9 510.1 1795.7 502.4 1872.1 478C1956 451.1 2019.9 406.3 2052 351.9C2056.7 344 2060.8 331.2 2057.1 321.4C2055.1 316 2051 312.4 2045.1 310.4L2044.9 311.1C2050.6 312.9 2054.5 316.5 2056.4 321.6C2060 331.2 2056 343.7 2051.4 351.5C2019.4 405.8 1955.7 450.5 1872 477.3C1795.6 501.7 1712 509.4 1632.9 514C1624.3 514.5 1615.7 515 1607.1 515.4C1536.3 519.3 1463.1 523.3 1396.4 543.9C1330.3 564.3 1254.9 610.7 1241.5 679.9C1234.6 715.4 1245.3 751.4 1255.6 786.2C1262.5 809.5 1269.6 833.6 1271.5 857.5C1274.8 897.9 1261.5 940.2 1234.3 976.6C1207.1 1013 1166.9 1042 1121.3 1058.1C1089.7 1069.3 1055.1 1075.2 1021.7 1080.9C1004.6 1083.8 987 1086.8 969.9 1090.5C907 1104.1 863.8 1126.7 841.7 1157.5C824.9 1181 820.5 1208.7 816.3 1235.6C814.2 1248.9 812 1262.7 808.4 1275.8C794.2 1326.6 751.5 1372.5 691.3 1401.6C630.9 1430.9 560.6 1439.5 498.5 1425.2C451.1 1414.3 408.5 1392.1 367.4 1370.7C349.4 1361.3 330.7 1351.6 311.9 1343L311.6 1343.7C330.4 1352.3 349.1 1362 367.1 1371.4C408.3 1392.8 450.9 1415 498.4 1425.9C517.8 1430.5 538.4 1432.7 559.2 1432.7ZM547.3 1390.1C589.1 1390.1 631.8 1381.3 670.8 1364.1C731.5 1337.3 775.1 1293.6 790.7 1244.4C794.7 1231.7 797.2 1218.3 799.7 1205.3C804.6 1179.4 809.7 1152.6 826.9 1130.3C849.6 1101 892.8 1080.3 955.3 1068.9C972.3 1065.8 989.8 1063.3 1006.8 1061C1040.1 1056.4 1074.5 1051.6 1106.2 1041.5C1152 1027 1192.7 999.8 1220.7 965C1248.8 930.2 1263.1 889.2 1261 849.5C1259.7 826.1 1253.3 802.3 1247.1 779.4C1237.9 745.3 1228.3 710 1236.1 675.8C1251.2 609.1 1326.9 566.2 1392.7 548.2C1459.2 530.1 1531.8 528.2 1602 526.4C1610.5 526.2 1619 526 1627.6 525.7C1706.1 523.4 1789.3 518.3 1865.7 496.6C1949.6 472.8 2014.1 431 2047.4 378.8C2052.2 371.3 2056.6 359 2053.3 349.3C2051.4 344 2047.5 340.2 2041.6 338.2L2041.4 338.9C2047.1 340.9 2050.8 344.5 2052.6 349.6C2055.9 359 2051.5 371 2046.8 378.4C2013.6 430.4 1949.3 472.1 1865.6 495.9C1789.3 517.6 1706.2 522.7 1627.7 524.9C1619.2 525.1 1610.7 525.4 1602.2 525.6C1532 527.4 1459.3 529.3 1392.7 547.4C1326.7 565.4 1250.7 608.5 1235.5 675.5C1227.7 709.9 1237.3 745.3 1246.5 779.5C1252.7 802.4 1259.1 826.1 1260.3 849.4C1262.4 888.9 1248.2 929.7 1220.2 964.4C1192.2 999.1 1151.7 1026.2 1106 1040.6C1074.4 1050.6 1040 1055.4 1006.7 1060C989.7 1062.4 972.2 1064.8 955.2 1067.9C892.5 1079.4 849.1 1100.1 826.3 1129.6C809 1152 803.9 1178.9 799 1204.9C796.6 1217.8 794 1231.2 790 1243.9C774.5 1293 731 1336.4 670.6 1363.2C609.9 1390 540.1 1396.4 478.9 1380.8C432.2 1368.8 390.6 1346.1 350.5 1324C332.9 1314.3 314.7 1304.4 296.3 1295.4L296 1296.1C314.4 1305 332.6 1315 350.2 1324.7C390.4 1346.7 432 1369.5 478.8 1381.5C500.6 1387.3 523.8 1390.1 547.3 1390.1ZM535.8 1347.8C574.4 1347.8 613.8 1340.4 650.1 1325.9C711 1301.5 755.5 1260.3 772.3 1212.7C776.6 1200.4 779.5 1187.4 782.3 1174.9C787.9 1149.8 793.7 1123.8 811.4 1102.6C834.7 1074.7 878.1 1055.8 940.4 1046.5C957.3 1044 974.8 1042.1 991.7 1040.3C1024.8 1036.8 1059.1 1033.1 1090.8 1024.2C1136.6 1011.4 1177.7 986.1 1206.5 953C1235.3 919.9 1250.7 880.3 1249.7 841.7C1249.1 818.8 1243.4 795.5 1237.9 773C1229.7 739.5 1221.3 704.8 1229.9 671.7C1246.7 607.2 1323 567.6 1388.8 552C1455.2 536.3 1527.3 536.6 1596.9 536.9C1605.4 536.9 1613.8 537 1622.3 537C1700.2 537.1 1782.8 534.5 1859.2 515.6C1943 494.9 2008.2 456 2042.6 406.1C2047.6 398.9 2052.3 387.2 2049.3 377.7C2047.6 372.4 2043.8 368.6 2038 366.4L2037.7 367.1C2043.3 369.2 2046.9 372.8 2048.5 377.9C2051.4 387.2 2046.7 398.6 2041.9 405.7C2007.5 455.4 1942.6 494.1 1858.9 514.8C1782.6 533.7 1700 536.2 1622.2 536.1C1613.8 536.1 1605.3 536.1 1596.8 536C1527.1 535.7 1455 535.4 1388.5 551.1C1322.5 566.7 1246 606.5 1229 671.3C1220.3 704.6 1228.8 739.3 1237 772.9C1242.5 795.4 1248.2 818.6 1248.7 841.4C1249.7 879.9 1234.4 919.3 1205.7 952.2C1177 985.2 1136 1010.4 1090.3 1023.1C1058.6 1031.9 1024.4 1035.6 991.3 1039.1C974.4 1040.9 956.9 1042.8 940 1045.3C877.5 1054.7 833.9 1073.6 810.5 1101.6C792.7 1122.9 786.9 1149 781.3 1174.2C778.5 1186.7 775.6 1199.7 771.3 1211.9C754.6 1259.2 710.2 1300.3 649.5 1324.6C588.6 1349 519.1 1353.2 458.9 1336.1C412.9 1323.1 372.4 1299.7 333.2 1277.1C316 1267.2 298.2 1256.9 280.2 1247.7L279.9 1248.4C297.9 1257.6 315.7 1267.9 332.8 1277.8C372.1 1300.4 412.7 1323.9 458.7 1336.9C483.5 1344.3 509.5 1347.8 535.8 1347.8ZM524.7 1305.7C560 1305.7 595.9 1299.7 629.4 1287.7C690.5 1265.8 736 1226.9 754 1181.1C758.7 1169.3 761.9 1156.7 765 1144.6C771.3 1120.3 777.8 1095.2 796 1075.1C819.9 1048.6 863.6 1031.6 925.7 1024.3C942.6 1022.3 960 1021 976.8 1019.8C1009.8 1017.3 1043.9 1014.8 1075.6 1007.1C1121.4 996 1162.9 972.6 1192.5 941.3C1222.1 909.9 1238.5 871.8 1238.6 834.1C1238.7 811.8 1233.7 788.9 1228.9 766.8C1221.8 733.9 1214.4 699.9 1223.9 667.9C1242.5 605.5 1319.3 569.3 1385.1 556.1C1451.5 542.8 1522.9 545.3 1592 547.6C1600.4 547.9 1608.8 548.2 1617.2 548.4C1694.5 550.8 1776.6 550.8 1852.9 534.7C1936.7 517 2002.5 481.1 2038.1 433.6C2043.2 426.8 2048.2 415.5 2045.6 406.2C2044.1 400.9 2040.5 397 2034.7 394.7L2034.4 395.4C2039.9 397.6 2043.4 401.3 2044.9 406.4C2047.4 415.5 2042.5 426.5 2037.5 433.1C2002 480.5 1936.3 516.3 1852.7 533.9C1776.5 550 1694.5 550 1617.2 547.6C1608.8 547.3 1600.4 547 1592 546.8C1522.8 544.4 1451.3 541.9 1384.9 555.3C1319 568.5 1241.9 605 1223.2 667.7C1213.6 699.9 1221 734 1228.2 767C1233 789.1 1237.9 811.9 1237.9 834.1C1237.7 871.6 1221.4 909.5 1192 940.8C1162.5 972.1 1121.1 995.4 1075.5 1006.4C1043.8 1014.1 1009.8 1016.6 976.8 1019C960 1020.2 942.6 1021.5 925.7 1023.5C863.4 1030.7 819.6 1047.9 795.5 1074.5C777.2 1094.7 770.7 1120 764.4 1144.4C761.3 1156.5 758 1169 753.4 1180.8C735.4 1226.4 690.2 1265.1 629.3 1286.9C568.1 1308.8 499.1 1310.8 439.9 1292.4C394.7 1278.3 355.1 1254.3 316.9 1231.1C300.1 1220.9 282.8 1210.4 265.2 1200.8L264.8 1201.5C282.4 1211.1 299.7 1221.6 316.5 1231.7C354.8 1254.9 394.4 1279 439.7 1293.1C466.4 1301.5 495.4 1305.7 524.7 1305.7ZM514.1 1263.9C546 1263.9 578.2 1259.1 608.7 1249.4C670.1 1230 716.4 1193.5 735.7 1149.4C740.7 1138 744.3 1125.9 747.8 1114.1C754.8 1090.6 762 1066.3 780.7 1047.3C805.3 1022.3 849.1 1007 911 1001.9C927.8 1000.5 945.1 999.8 961.9 999.1C994.7 997.7 1028.7 996.3 1060.4 989.8C1106.2 980.4 1148.2 958.9 1178.5 929.3C1208.8 899.6 1226.3 863 1227.5 826.2C1228.3 804.5 1224 782 1219.9 760.3C1213.8 728 1207.5 694.6 1218 663.8C1238.4 603.6 1315.8 570.6 1381.4 559.8C1447.7 548.9 1518.6 553.5 1587.2 558C1595.5 558.5 1603.8 559.1 1612.1 559.6C1688.8 564.4 1770.3 566.9 1846.6 553.6C1930.3 539 1996.8 506 2033.6 460.8C2038.8 454.4 2044.2 443.6 2041.9 434.4C2040.6 429.1 2037.1 425.2 2031.4 422.7L2031.1 423.4C2036.6 425.8 2039.9 429.5 2041.2 434.5C2043.4 443.4 2038.2 453.9 2033 460.2C1996.3 505.3 1930 538.1 1846.5 552.7C1770.3 566 1688.9 563.4 1612.2 558.7C1603.9 558.2 1595.6 557.6 1587.3 557.1C1518.7 552.6 1447.7 548 1381.3 558.9C1315.4 569.7 1237.7 602.9 1217.3 663.4C1206.8 694.5 1213.1 728 1219.2 760.3C1223.3 782 1227.5 804.4 1226.8 826C1225.5 862.6 1208.2 899 1178 928.5C1147.8 958.1 1106 979.5 1060.3 988.8C1028.6 995.3 994.7 996.7 961.9 998C945.2 998.7 927.8 999.4 911 1000.8C848.9 1005.9 804.9 1021.3 780.2 1046.5C761.4 1065.7 754.2 1090 747.2 1113.6C743.7 1125.3 740.1 1137.4 735.2 1148.8C716 1192.7 669.9 1229 608.7 1248.4C547.3 1267.8 478.7 1267.6 420.4 1247.8C375.9 1232.7 337.4 1208 300.1 1184.2C283.8 1173.8 266.9 1163 249.7 1153.1L249.3 1153.8C266.5 1163.7 283.4 1174.5 299.7 1184.9C337 1208.8 375.6 1233.4 420.2 1248.6C449.4 1258.9 481.5 1263.9 514.1 1263.9ZM503.9 1222.5C532.2 1222.5 560.7 1218.8 588 1211.3C649.6 1194.3 696.8 1160.3 717.3 1117.9C722.6 1106.9 726.6 1095.2 730.4 1083.9C738.1 1061.2 746 1037.8 765.1 1019.8C790.3 996.2 834.4 982.7 896.1 979.7C912.9 978.9 930.1 978.7 946.7 978.6C979.4 978.3 1013.1 978 1044.9 972.7C1090.8 965 1133.1 945.4 1164.2 917.5C1195.3 889.5 1213.7 854.4 1216.2 818.6C1217.6 797.4 1214.1 775.4 1210.7 754.1C1205.7 722.4 1200.4 689.7 1211.8 659.9C1226.3 621.9 1277.4 576.6 1377.5 563.8C1443.8 555.3 1514.1 562.1 1582.1 568.7C1590.4 569.5 1598.6 570.3 1606.9 571.1C1683 578.2 1763.9 583.3 1840.1 572.8C1923.8 561.2 1990.8 531.2 2028.9 488.3C2034.3 482.2 2039.9 471.9 2038 462.9C2036.9 457.7 2033.5 453.7 2027.9 451.1L2027.6 451.8C2033 454.3 2036.2 458.1 2037.3 463.1C2039.1 471.8 2033.6 481.9 2028.3 487.8C1990.4 530.6 1923.5 560.5 1840 572C1763.8 582.5 1683 577.4 1606.9 570.3C1598.7 569.5 1590.4 568.7 1582.2 567.9C1514.1 561.3 1443.8 554.5 1377.4 563C1338.6 568 1302.9 578.9 1274.1 594.6C1242.5 611.8 1220.7 634.3 1211.1 659.6C1199.7 689.6 1204.9 722.4 1210 754.2C1213.4 775.5 1216.9 797.4 1215.5 818.5C1213.1 854.1 1194.7 889.1 1163.8 916.9C1132.8 944.7 1090.6 964.3 1044.9 971.9C1013.2 977.2 979.5 977.5 946.8 977.8C930.1 977.9 912.9 978.1 896.1 978.9C834.2 981.9 790 995.4 764.7 1019.2C745.4 1037.3 737.5 1060.8 729.8 1083.6C726 1094.9 722 1106.6 716.7 1117.5C696.2 1159.7 649.3 1193.6 587.9 1210.5C526.3 1227.5 458 1225.1 400.8 1203.9C357.1 1187.7 319.5 1162.5 283.2 1138C267.3 1127.3 250.8 1116.2 234 1106L233.6 1106.7C250.4 1116.9 266.8 1127.9 282.7 1138.6C319.1 1163.1 356.7 1188.3 400.5 1204.5C432.5 1216.5 468 1222.5 503.9 1222.5ZM494.2 1181.4C518.8 1181.4 543.5 1178.6 567.3 1173C629.2 1158.5 677.2 1126.8 699 1086.2C704.6 1075.7 709 1064.4 713.1 1053.5C721.5 1031.6 730.1 1009 749.7 992.2C775.5 970 819.8 958.3 881.3 957.4C898 957.2 915.2 957.6 931.7 958C964.2 958.8 997.8 959.7 1029.6 955.5C1075.5 949.5 1118.3 931.8 1150.1 905.6C1181.9 879.4 1201.4 845.7 1205 810.8C1207.1 790.2 1204.3 768.6 1201.6 747.7C1197.6 716.6 1193.5 684.5 1205.7 655.9C1221.3 619.3 1273.7 576.9 1373.7 567.7C1439.9 561.6 1509.7 570.6 1577.2 579.2C1585.4 580.3 1593.6 581.3 1601.7 582.3C1677.2 591.8 1757.5 599.4 1833.7 591.7C1917.3 583.2 1985 556.2 2024.3 515.6C2029.8 509.9 2035.8 500.1 2034.2 491.2C2033.3 486 2030 482 2024.5 479.3L2024.2 480C2029.5 482.6 2032.6 486.5 2033.5 491.4C2035 499.9 2029.2 509.5 2023.8 515.1C1984.7 555.5 1917.2 582.5 1833.7 591C1757.6 598.8 1677.3 591.1 1601.8 581.6C1593.6 580.6 1585.5 579.5 1577.3 578.5C1509.8 569.8 1440 560.9 1373.7 567C1307.9 573.1 1229.1 599.5 1205.1 655.7C1192.8 684.6 1196.9 716.8 1200.9 747.9C1203.6 768.7 1206.4 790.3 1204.3 810.8C1200.7 845.5 1181.3 878.9 1149.7 905C1118 931.1 1075.4 948.8 1029.6 954.7C997.9 958.8 964.3 958 931.8 957.2C915.2 956.8 898.1 956.4 881.3 956.6C819.6 957.5 775.2 969.2 749.2 991.6C729.4 1008.6 720.8 1031.3 712.4 1053.2C708.2 1064.1 703.9 1075.4 698.3 1085.8C676.6 1126.3 628.8 1157.8 567.1 1172.3C505.2 1186.8 437.4 1182.2 381.1 1159.7C338.1 1142.5 301.5 1116.6 266.2 1091.6C250.7 1080.6 234.7 1069.3 218.3 1058.8L217.9 1059.4C234.3 1069.9 250.3 1081.2 265.8 1092.2C301.2 1117.3 337.8 1143.2 380.9 1160.4C415.6 1174.3 454.7 1181.4 494.2 1181.4ZM484.9 1140.7C505.6 1140.7 526.4 1138.8 546.6 1134.8C608.7 1122.7 657.6 1093.5 680.7 1054.5C686.7 1044.4 691.3 1033.6 695.9 1023C704.9 1002 714.3 980.2 734.4 964.4C760.9 943.6 805.4 933.7 866.6 935C883.2 935.3 900.3 936.3 916.8 937.3C949.2 939.2 982.6 941.2 1014.4 938.2C1060.3 933.9 1103.5 918.1 1136.1 893.6C1168.7 869.1 1189.2 836.9 1193.9 803C1196.7 783 1194.6 761.8 1192.6 741.3C1189.6 710.9 1186.6 679.4 1199.7 651.8C1216.5 616.6 1270 577 1369.9 571.4C1436.1 567.7 1505.3 578.8 1572.2 589.6C1580.3 590.9 1588.4 592.2 1596.5 593.5C1671.4 605.3 1751.2 615.5 1827.3 610.6C1910.9 605.1 1979.2 581.1 2019.6 542.8C2025.5 537.2 2031.5 528.1 2030.3 519.4C2029.6 514.3 2026.5 510.2 2021 507.3L2020.6 508C2025.8 510.8 2028.8 514.6 2029.5 519.5C2030.4 526.4 2026.3 535.3 2019 542.2C1978.7 580.3 1910.6 604.3 1827.1 609.8C1751 614.8 1671.3 604.5 1596.4 592.7C1588.3 591.4 1580.2 590.1 1572.1 588.8C1505.1 578 1435.9 566.9 1369.7 570.6C1304 574.3 1224.6 597.4 1198.8 651.4C1185.6 679.1 1188.6 710.7 1191.6 741.3C1193.6 761.7 1195.6 782.9 1192.9 802.8C1188.2 836.5 1167.8 868.5 1135.4 892.9C1103 917.3 1059.9 933.1 1014.1 937.3C982.4 940.2 948.9 938.3 916.6 936.4C900.1 935.4 883 934.4 866.4 934.1C804.9 932.8 760.3 942.8 733.7 963.7C713.4 979.6 704 1001.5 695 1022.6C690.5 1033.1 685.8 1043.9 679.9 1054C656.9 1092.8 608.2 1121.9 546.3 1133.9C484.2 1146 416.8 1139.2 361.4 1115.2C319.1 1096.9 283.6 1070.4 249.2 1044.8C234.1 1033.6 218.5 1021.9 202.6 1011.2L202.2 1011.8C218.1 1022.6 233.7 1034.2 248.8 1045.4C283.2 1071.1 318.8 1097.6 361.2 1115.9C398.8 1132.3 441.8 1140.7 484.9 1140.7ZM476.1 1100.4C492.8 1100.4 509.5 1099.2 525.9 1096.6C588.2 1087 638 1060.1 662.3 1022.9C668.6 1013.3 673.6 1002.8 678.5 992.7C688.2 972.5 698.3 951.5 718.9 936.8C746 917.4 790.7 909.3 851.8 912.7C868.4 913.6 885.4 915.2 901.8 916.7C934 919.7 967.3 922.8 999.1 921C1045 918.5 1088.6 904.5 1121.9 881.7C1155.2 858.9 1176.8 828.2 1182.7 795.2C1186.2 775.7 1184.8 755 1183.5 734.9C1181.6 705.1 1179.6 674.2 1193.7 647.8C1211.7 614 1266.4 577.2 1366.2 575.3C1432.3 574 1500.9 587.3 1567.3 600.1C1575.4 601.7 1583.4 603.2 1591.5 604.8C1665.8 619 1745 631.7 1821.1 629.6C1904.7 627.2 1973.6 606.1 2015.2 570.1C2021.3 564.8 2027.5 556.2 2026.7 547.7C2026.2 542.6 2023.2 538.5 2017.9 535.5L2017.5 536.2C2022.6 539.1 2025.5 543 2026 547.8C2026.7 554.5 2022.3 563.1 2014.8 569.6C1973.3 605.4 1904.6 626.5 1821.2 628.9C1745.2 631.1 1666 618.3 1591.8 604.1C1583.8 602.6 1575.7 601 1567.6 599.4C1501.2 586.5 1432.5 573.2 1366.3 574.5C1300.6 575.8 1220.7 595.6 1193.1 647.4C1179 674 1180.9 705 1182.9 734.9C1184.2 754.9 1185.5 775.6 1182.1 795C1176.3 827.7 1154.8 858.3 1121.7 881C1088.5 903.7 1045 917.6 999.3 920.2C967.6 922 934.3 918.9 902.1 915.9C885.7 914.4 868.7 912.8 852.1 911.9C790.9 908.5 746 916.7 718.7 936.2C698 951 687.8 972 678.1 992.4C673.2 1002.5 668.2 1012.9 662 1022.5C637.8 1059.5 588.2 1086.3 526.1 1095.8C463.7 1105.4 396.8 1096.4 342.4 1071.1C300.9 1051.8 266.3 1024.6 232.9 998.4C218.3 986.9 203.1 975 187.6 963.9L187.2 964.5C202.7 975.6 217.9 987.5 232.5 999C266 1025.3 300.6 1052.4 342.2 1071.8C382 1090.5 429.1 1100.4 476.1 1100.4ZM467.7 1060.5C480.3 1060.5 492.8 1059.8 505.2 1058.4C567.8 1051.3 618.4 1026.8 644 991.3C650.6 982.1 656 972.1 661.2 962.4C671.6 943 682.4 922.9 703.5 909.3C731.2 891.3 776.2 885 837 890.5C853.5 892 870.4 894.1 886.8 896.2C918.9 900.3 952 904.5 983.8 903.9C1029.7 903.1 1073.8 891 1107.8 869.9C1141.9 848.8 1164.5 819.6 1171.5 787.6C1175.6 768.7 1175 748.4 1174.4 728.7C1173.5 699.5 1172.6 669.3 1187.6 644C1206.7 611.6 1262.6 577.7 1362.4 579.3C1428.5 580.4 1496.5 595.9 1562.3 610.8C1570.3 612.6 1578.3 614.4 1586.3 616.2C1660 632.7 1738.6 648 1814.7 648.7C1898.3 649.3 1967.8 631.2 2010.6 597.6C2016.9 592.7 2023.4 584.5 2022.9 576.1C2022.6 571.1 2019.7 567 2014.5 563.8L2014.1 564.5C2019.1 567.5 2021.8 571.4 2022.1 576.1C2022.5 582.7 2017.8 590.9 2010.1 596.9C1967.4 630.4 1898 648.5 1814.7 647.9C1738.7 647.3 1660.1 632 1586.5 615.5C1578.5 613.7 1570.6 611.9 1562.6 610.1C1496.7 595.1 1428.6 579.7 1362.5 578.6C1296.9 577.5 1216.4 594 1187.1 643.6C1172 669.1 1172.9 699.4 1173.8 728.8C1174.4 748.4 1175 768.7 1170.9 787.5C1163.9 819.3 1141.4 848.3 1107.6 869.3C1073.7 890.3 1029.8 902.3 984 903.2C952.2 903.8 919.1 899.6 887.1 895.5C870.8 893.4 853.8 891.3 837.3 889.8C776.3 884.3 731.2 890.6 703.3 908.7C682.1 922.5 671.2 942.6 660.8 962.1C655.6 971.8 650.2 981.8 643.6 990.9C618.1 1026.2 567.7 1050.6 505.3 1057.7C442.7 1064.8 376.1 1053.6 322.7 1026.9C281.9 1006.5 248.3 978.8 215.9 951.9C201.7 940.1 187 928 171.8 916.6L171.3 917.2C186.4 928.6 201.1 940.7 215.3 952.5C247.8 979.4 281.4 1007.2 322.3 1027.6C365.2 1049 416.6 1060.5 467.7 1060.5ZM459.6 1021.1C467.9 1021.1 476.2 1020.8 484.5 1020.2C547.3 1015.5 598.8 993.5 625.7 959.7C632.6 951 638.4 941.4 644 932.1C655.1 913.5 666.6 894.3 688.2 881.7C716.6 865.1 761.7 860.6 822.4 868.2C838.9 870.3 855.7 873 872 875.6C903.9 880.8 936.9 886.1 968.7 886.7C1014.7 887.6 1059.1 877.4 1093.9 858C1128.7 838.6 1152.4 810.9 1160.5 779.8C1165.3 761.5 1165.4 741.6 1165.6 722.3C1165.8 693.7 1166 664.1 1181.8 639.9C1202.1 608.9 1259.2 577.8 1358.8 583.1C1424.8 586.6 1492.3 604.2 1557.6 621.3C1565.5 623.4 1573.4 625.4 1581.4 627.5C1654.5 646.3 1732.5 664.3 1808.6 667.6C1892.1 671.3 1962.3 656.1 2006.3 624.8C2012.7 620.2 2019.5 612.4 2019.3 604.3C2019.2 599.4 2016.5 595.2 2011.3 592L2010.9 592.6C2015.8 595.7 2018.4 599.7 2018.5 604.3C2018.7 610.8 2013.7 618.6 2005.8 624.2C1961.9 655.4 1891.9 670.6 1808.6 666.8C1732.6 663.4 1654.6 645.5 1581.6 626.7C1573.7 624.7 1565.8 622.6 1557.8 620.5C1492.5 603.5 1425 585.8 1358.9 582.3C1293.4 578.8 1212.2 592 1181.2 639.5C1165.2 663.9 1165.1 693.6 1164.9 722.3C1164.8 741.5 1164.7 761.3 1159.9 779.6C1151.8 810.4 1128.3 838 1093.6 857.3C1058.9 876.6 1014.6 886.7 968.8 885.9C937 885.3 904.1 879.9 872.2 874.8C855.9 872.2 839.1 869.4 822.6 867.4C761.8 859.8 716.5 864.3 687.9 881C666.2 893.7 654.6 913 643.5 931.7C638 941 632.2 950.6 625.3 959.3C598.6 992.9 547.3 1014.9 484.7 1019.5C421.8 1024.2 355.7 1010.8 303.2 982.7C263.1 961.3 230.6 932.9 199.1 905.4C185.3 893.4 171 880.9 156.3 869.2L155.8 869.8C170.5 881.5 184.8 893.9 198.6 905.9C230.1 933.4 262.7 961.8 302.9 983.3C348.4 1007.7 404.4 1021.1 459.6 1021.1ZM451.9 982.2C455.9 982.2 459.9 982.1 463.8 982C526.9 979.8 579.2 960.1 607.3 928.1C614.6 919.8 620.7 910.6 626.6 901.7C638.4 883.9 650.6 865.5 672.7 854C701.7 838.9 747.1 836.1 807.5 845.9C823.9 848.5 840.7 851.8 856.9 855C888.6 861.3 921.5 867.7 953.3 869.5C999.3 872.1 1044.2 863.8 1079.7 846.2C1115.3 828.5 1140 802.3 1149.2 772.2C1154.7 754.4 1155.5 735 1156.4 716.1C1157.6 688.1 1158.9 659.2 1175.6 636.1C1197 606.6 1255.4 578.2 1354.9 587.1C1420.8 593 1487.8 612.8 1552.5 631.9C1560.4 634.2 1568.2 636.5 1576.1 638.8C1648.5 660 1726.1 680.5 1802.1 686.6C1885.5 693.4 1956.4 681.1 2001.5 652.1C2008.1 647.9 2015.2 640.5 2015.3 632.5C2015.4 627.7 2012.8 623.5 2007.8 620.1L2007.4 620.7C2012.2 624 2014.7 627.9 2014.6 632.5C2014.5 638.8 2009.3 646.3 2001.2 651.5C1956.1 680.4 1885.5 692.6 1802.2 685.8C1726.3 679.6 1648.8 659.2 1576.4 638C1568.6 635.7 1560.7 633.4 1552.8 631.1C1488 612 1421.1 592.2 1355.1 586.2C1289.6 580.3 1207.9 590.2 1175.1 635.5C1158.2 658.8 1157 687.8 1155.7 715.9C1154.9 734.7 1154 754.1 1148.6 771.8C1139.4 801.7 1114.8 827.8 1079.4 845.3C1044 862.9 999.2 871.1 953.4 868.6C921.6 866.8 888.8 860.3 857.1 854.1C840.9 850.9 824.2 847.6 807.7 845C747.1 835.2 701.6 838 672.4 853.2C650.2 864.8 637.9 883.3 626.1 901.1C620.2 910 614.1 919.1 606.9 927.4C578.9 959.3 526.8 978.9 463.9 981.1C400.8 983.3 335.1 967.7 283.6 938.3C244.3 915.8 212.7 886.8 182.2 858.8C168.8 846.5 155 833.8 140.7 821.8L140.2 822.4C154.5 834.4 168.3 847.1 181.7 859.4C212.3 887.5 243.8 916.5 283.2 939C331.5 966.7 392.4 982.2 451.9 982.2ZM444.4 943.7C507.1 943.7 559.8 926.5 589 896.4C596.6 888.6 603.1 879.8 609.3 871.3C621.8 854.3 634.7 836.8 657.2 826.3C686.9 812.6 732.4 811.6 792.7 823.5C809.1 826.7 825.7 830.6 841.8 834.3C873.4 841.7 906.1 849.3 937.9 852.2C983.9 856.5 1029.2 850.1 1065.5 834.2C1101.8 818.3 1127.6 793.5 1138 764.3C1144.2 747.1 1145.7 728 1147.3 709.6C1149.6 682.2 1151.9 653.9 1169.5 631.9C1192.1 603.8 1251.6 578.2 1351.1 590.8C1417 599.1 1483.3 621.1 1547.5 642.3C1555.3 644.9 1563.1 647.5 1570.9 650C1642.7 673.5 1719.7 696.6 1795.7 705.5C1879.1 715.3 1950.5 706.1 1996.9 679.4C2003.7 675.5 2011.1 668.5 2011.5 660.7C2011.7 656 2009.3 651.8 2004.4 648.3L2004 648.9C2008.7 652.3 2011 656.2 2010.8 660.7C2010.5 666.9 2004.9 674 1996.6 678.7C1950.4 705.3 1879.1 714.5 1795.8 704.7C1719.9 695.7 1643 672.7 1571.2 649.2C1563.4 646.7 1555.6 644.1 1547.8 641.5C1483.6 620.3 1417.2 598.3 1351.2 590C1285.8 581.7 1203.5 588.2 1168.9 631.4C1151.1 653.6 1148.8 682 1146.5 709.5C1145 727.9 1143.4 746.9 1137.3 764C1126.9 792.9 1101.4 817.6 1065.2 833.4C1029 849.3 983.9 855.7 938 851.4C906.2 848.4 873.6 840.8 842 833.5C825.9 829.7 809.2 825.9 792.8 822.6C732.4 810.7 686.7 811.7 656.9 825.5C634.2 836 621.2 853.6 608.7 870.7C602.5 879.2 596 887.9 588.5 895.7C559.4 925.7 507 942.8 444.5 942.8C444.1 942.8 443.6 942.8 443.2 942.8C379.9 942.6 314.6 924.7 264 893.9C225.4 870.4 194.9 840.7 165.3 812.1C152.3 799.5 139 786.6 125 774.2L124.5 774.8C138.4 787.1 151.8 800.1 164.7 812.6C194.3 841.3 224.9 870.9 263.5 894.5C314.2 925.4 379.6 943.3 443.1 943.5C443.6 943.7 444 943.7 444.4 943.7ZM437.1 905.8C494.3 905.8 542.4 891.1 570.7 864.7C578.6 857.3 585.4 848.9 592 840.9C605.2 824.7 618.8 808 641.8 798.7C672.1 786.4 717.9 787.2 777.9 801.2C794.2 805 810.8 809.4 826.8 813.8C858.2 822.2 890.7 831 922.6 835.1C968.6 841.1 1014.3 836.6 1051.3 822.4C1088.4 808.2 1115.1 784.8 1126.7 756.7C1133.5 740.1 1135.8 721.4 1138.1 703.4C1141.4 676.6 1144.8 649 1163.4 628.1C1187.1 601.4 1247.9 578.6 1347.3 594.9C1413.1 605.6 1478.9 629.7 1542.5 653.1C1550.2 655.9 1558 658.8 1565.7 661.6C1636.9 687.5 1713.3 713.1 1789.2 724.8C1872.5 737.7 1944.6 731.4 1992.2 707C1999.2 703.4 2006.8 696.9 2007.5 689.2C2007.9 684.6 2005.7 680.4 2000.8 676.7L2000.3 677.3C2004.9 680.8 2007 684.8 2006.7 689.1C2006.2 695.2 2000.3 701.9 1991.8 706.3C1944.4 730.6 1872.5 736.9 1789.3 724C1713.5 712.3 1637.1 686.7 1565.9 660.8C1558.2 658 1550.5 655.2 1542.7 652.3C1479 629 1413.2 604.9 1347.3 594.1C1281.9 583.4 1199.1 586.6 1162.7 627.6C1144 648.7 1140.6 676.4 1137.3 703.3C1135.1 721.3 1132.8 739.8 1126 756.4C1114.5 784.4 1087.9 807.5 1051 821.7C1014.1 835.9 968.5 840.4 922.6 834.4C890.8 830.3 858.3 821.5 826.9 813.1C810.9 808.8 794.3 804.3 778 800.5C717.8 786.5 671.9 785.7 641.4 798C618.2 807.4 604.5 824.2 591.3 840.5C584.7 848.6 577.9 856.9 570 864.3C539.5 892.8 485.6 907.5 422.3 904.8C358.7 902.1 293.8 882.1 244.3 849.9C206.5 825.3 176.9 795.1 148.3 765.8C135.8 753 122.8 739.7 109.3 727.1L108.8 727.7C122.3 740.3 135.2 753.6 147.8 766.4C176.4 795.7 206 826 243.9 850.6C293.6 882.9 358.6 902.9 422.3 905.7C427.4 905.7 432.3 905.8 437.1 905.8ZM429.5 868.5C481.3 868.5 525.1 856.1 552.3 833.2C560.6 826.3 567.7 818.3 574.7 810.6C588.6 795.2 602.9 779.4 626.4 771.1C657.3 760.2 703.3 762.9 763.2 778.9C779.4 783.3 796 788.3 811.9 793.2C843.2 802.7 875.5 812.6 907.4 817.9C953.4 825.6 999.6 823 1037.3 810.5C1075.1 798 1102.9 776.1 1115.6 749C1123.1 732.9 1126.1 714.7 1129.1 697.1C1133.4 671 1137.9 643.9 1157.4 624.1C1182.3 598.8 1244.2 578.9 1343.5 598.7C1409.3 611.8 1474.5 638.1 1537.6 663.5C1545.3 666.6 1552.9 669.7 1560.6 672.7C1631.2 700.9 1707.1 729.1 1782.9 743.6C1866.2 759.6 1938.9 756.2 1987.7 734.2C1994.9 731 2002.8 724.8 2003.8 717.3C2004.4 712.8 2002.3 708.6 1997.6 704.8L1997.1 705.4C2001.6 709 2003.6 713 2003 717.2C2002.2 723.1 1996.1 729.5 1987.4 733.5C1938.8 755.5 1866.2 758.8 1783.1 742.9C1707.3 728.4 1631.5 700.3 1560.9 672C1553.2 668.9 1545.6 665.9 1537.9 662.8C1474.8 637.4 1409.5 611.1 1343.7 597.9C1278.4 584.8 1195 584.7 1156.9 623.5C1137.3 643.4 1132.8 670.6 1128.4 696.9C1125.5 714.5 1122.5 732.6 1115 748.6C1102.4 775.6 1074.7 797.3 1037.1 809.7C999.5 822.2 953.4 824.8 907.5 817.1C875.7 811.8 843.4 801.9 812.1 792.4C796.1 787.5 779.6 782.5 763.4 778.1C703.4 762 657.3 759.3 626.2 770.3C602.5 778.6 588.1 794.6 574.2 810C567.3 817.7 560.1 825.6 551.9 832.5C520.1 859.2 465.4 871.6 401.9 866.5C338.1 861.3 273.6 839.1 225 805.5C187.9 779.9 159.3 749 131.7 719.1C119.6 706 107.1 692.5 94 679.6L93.5 680.1C106.6 693 119.1 706.5 131.2 719.6C158.9 749.5 187.4 780.4 224.6 806.1C273.3 839.8 337.9 862 401.9 867.2C411.2 868.1 420.5 868.5 429.5 868.5ZM421.8 831.6C468.4 831.6 508.1 821.2 534 801.5C542.6 795 550.1 787.5 557.4 780.2C572 765.7 587 750.6 611 743.4C642.6 733.9 688.8 738.4 748.4 756.6C764.6 761.5 781 767.1 796.9 772.6C828 783.2 860.2 794.2 892.1 800.7C938.1 810.1 984.7 809.4 1023.2 798.6C1061.7 787.8 1090.6 767.4 1104.5 741.2C1112.7 725.7 1116.4 707.9 1120.1 690.7C1125.5 665.2 1131.1 638.8 1151.4 620.1C1177.4 596.2 1240.6 579.1 1339.8 602.6C1405.5 618.2 1470.2 646.6 1532.7 674.1C1540.3 677.4 1547.9 680.8 1555.5 684.1C1625.5 714.7 1700.8 745.4 1776.6 762.7C1859.8 781.7 1933.2 781.3 1983.2 761.6C1990.5 758.7 1998.8 753 2000.1 745.6C2000.8 741.2 1998.9 737 1994.3 733.1L1993.8 733.7C1998.2 737.4 2000 741.4 1999.3 745.5C1998.3 751.3 1991.9 757.4 1982.9 760.9C1933.1 780.6 1859.9 781 1776.8 762C1701 744.7 1625.8 714 1555.8 683.5C1548.2 680.2 1540.6 676.9 1533 673.5C1470.4 646 1405.8 617.5 1340 602C1274.7 586.6 1190.8 583.1 1150.9 619.7C1130.4 638.5 1124.8 665.1 1119.4 690.7C1115.8 707.8 1112 725.6 1103.9 741C1090.1 767 1061.5 787.3 1023.1 798C984.7 808.7 938.3 809.5 892.4 800.1C860.6 793.6 828.4 782.6 797.3 772C781.4 766.6 765 761 748.8 756C689 737.7 642.7 733.3 611 742.8C586.8 750 571.7 765.2 557.1 779.8C549.8 787.1 542.3 794.6 533.8 801C500.8 826 445.2 836 381.4 828.4C317.3 820.8 253.3 796.3 205.6 761.4C169.2 734.7 141.7 703.2 115 672.8C103.3 659.5 91.2 645.6 78.6 632.4L78 632.9C90.7 646.1 102.7 659.9 114.4 673.3C141.1 703.8 168.7 735.3 205.1 762.1C252.8 797.1 317 821.6 381.2 829.3C395.1 830.8 408.7 831.6 421.8 831.6ZM1899.3 800.3C1929.3 800.3 1956.1 796.5 1978.5 788.9C1986.1 786.3 1994.7 781 1996.1 773.7C1997 769.4 1995.2 765.2 1990.7 761.2L1990.2 761.8C1994.4 765.6 1996.2 769.6 1995.3 773.6C1994.1 779.3 1987.4 785 1978.2 788.2C1927.2 805.6 1853.4 803 1770.3 781C1694.6 760.9 1619.9 727.7 1550.5 694.8C1543 691.2 1535.5 687.6 1527.9 684.1C1465.9 654.5 1401.8 623.9 1336 605.9C1270.8 588.1 1186.3 581.3 1144.6 615.7C1123.2 633.4 1116.5 659.3 1110 684.3C1105.7 701 1101.2 718.3 1092.4 733.2C1077.5 758.3 1047.8 777.1 1008.7 786.1C969.6 795.1 922.7 794 876.8 782.9C845 775.2 812.9 763.1 782 751.4C766.2 745.4 749.9 739.2 733.7 733.7C674.2 713.3 627.6 707.1 595.2 715.2C570.6 721.4 554.7 735.6 539.4 749.4C531.8 756.2 523.9 763.3 515.1 769.4C480.8 792.7 424.4 800.3 360.3 790.3C296 780.2 232.3 753.6 185.7 717.2C150.1 689.5 123.5 657.3 97.8 626.3C86.5 612.7 74.9 598.6 62.6 585.1L62 585.6C74.3 599.1 85.9 613.2 97.1 626.8C122.8 657.9 149.4 690 185.1 717.8C231.9 754.2 295.7 780.9 360.1 791C424.4 801.1 481 793.4 515.4 770C524.3 763.9 532.2 756.8 539.8 750C555.1 736.3 570.9 722.1 595.3 715.9C627.5 707.8 674 714.1 733.4 734.4C749.5 739.9 765.9 746.1 781.7 752.1C812.7 763.8 844.7 775.9 876.6 783.6C922.7 794.7 969.6 795.9 1008.9 786.8C1048.2 777.7 1078.1 758.8 1093.1 733.6C1102 718.7 1106.4 701.3 1110.8 684.5C1117.2 659.6 1123.9 633.8 1145.1 616.3C1172.3 593.8 1236.6 579.5 1335.8 606.6C1401.5 624.6 1465.6 655.2 1527.5 684.8C1535 688.4 1542.5 692 1550.1 695.5C1619.5 728.4 1694.2 761.7 1770 781.8C1817 794.1 1860.8 800.3 1899.3 800.3ZM1907.5 824.5C1932.2 824.5 1954.6 821.7 1973.9 816.2C1981.7 814 1990.6 809 1992.3 801.9C1993.3 797.7 1991.7 793.5 1987.3 789.4L1986.8 790C1990.9 793.9 1992.5 797.8 1991.5 801.7C1990.1 807.3 1983.1 812.7 1973.6 815.4C1921.4 830.5 1847 824.9 1763.9 799.9C1688.2 777 1614.1 741.3 1545.4 706C1538 702.2 1530.5 698.3 1523 694.5C1461.5 662.8 1398 630 1332.3 609.6C1267.2 589.4 1182.1 579.3 1138.6 611.5C1116.3 628.1 1108.5 653.4 1101 677.8C1096 694.1 1090.8 711 1081.3 725.3C1065.3 749.4 1034.5 766.7 994.7 774C954.8 781.3 907.5 778.3 861.6 765.5C829.7 756.6 797.9 743.4 767.1 730.6C751.4 724.1 735.1 717.3 719 711.2C659.7 688.7 612.9 680.7 579.9 687.3C554.8 692.4 538.2 705.8 522.2 718.8C514.2 725.2 506 731.9 496.8 737.5C461.3 759.1 404 764.3 339.7 751.8C275.2 739.3 211.9 710.4 166.2 672.7C131.3 643.9 105.7 611.2 81 579.5C70.2 565.6 59 551.3 47.1 537.4L46.5 537.9C58.3 551.7 69.5 566.1 80.4 580C105.2 611.7 130.7 644.5 165.7 673.3C211.5 711.1 274.9 740 339.5 752.6C404 765.1 461.5 759.9 497.2 738.2C506.4 732.6 514.7 725.9 522.7 719.4C538.7 706.5 555.2 693.1 580.1 688.1C613 681.5 659.6 689.5 718.8 711.9C734.9 718 751.1 724.7 766.9 731.3C797.7 744.1 829.6 757.3 861.5 766.2C907.6 779 955 782.1 995 774.7C1035 767.4 1066 749.9 1082.1 725.6C1091.6 711.2 1096.8 694.3 1101.9 677.9C1109.4 653.6 1117.1 628.5 1139.2 612C1167.5 591 1233.1 579.4 1332.2 610.2C1397.8 630.6 1461.4 663.3 1522.8 695C1530.3 698.8 1537.7 702.7 1545.1 706.5C1613.9 741.8 1688 777.6 1763.8 800.5C1816.3 816.5 1865.3 824.5 1907.5 824.5ZM1915 849.3C1934.9 849.3 1953.2 847.4 1969.4 843.5C1977 841.7 1986.6 837.1 1988.6 830.1C1989.8 826 1988.2 821.9 1984.1 817.7L1983.6 818.2C1987.6 822.2 1989 826.1 1987.9 829.9C1986 836.6 1976.7 841 1969.2 842.8C1915.8 855.5 1840.7 847.1 1757.8 818.9C1682.1 793.2 1608.6 754.9 1540.5 717.3C1533.1 713.2 1525.7 709.1 1518.3 705C1457.4 671.2 1394.4 636.3 1328.8 613.5C1263.7 590.9 1178.1 577.5 1132.9 607.6C1109.7 623.1 1100.8 647.7 1092.2 671.5C1086.5 687.4 1080.6 703.9 1070.4 717.6C1053.2 740.8 1021.5 756.6 980.9 762.2C940.3 767.8 892.6 762.9 846.6 748.4C814.7 738.3 783 724 752.4 710.1C736.8 703 720.6 695.7 704.5 689C645.4 664.4 598.4 654.5 564.7 659.8C539.1 663.8 521.8 676.4 505.1 688.5C496.8 694.5 488.2 700.8 478.7 705.9C441.9 725.8 383.8 728.6 319.2 713.7C254.4 698.7 191.6 667.7 146.8 628.5C112.6 598.7 88.1 565.3 64.3 533C53.9 518.9 43.1 504.2 31.7 490.1L31.1 490.6C42.5 504.7 53.3 519.4 63.7 533.5C87.5 565.8 112.1 599.2 146.3 629.1C191.1 668.3 254.1 699.4 319 714.4C383.7 729.4 442.1 726.5 479 706.6C488.6 701.4 497.2 695.2 505.5 689.1C522.2 677 539.4 664.5 564.8 660.5C598.3 655.3 645.2 665.1 704.1 689.7C720.1 696.4 736.3 703.7 751.9 710.8C782.6 724.7 814.3 739 846.2 749.1C892.3 763.6 940.1 768.6 980.8 762.9C1021.6 757.3 1053.6 741.3 1070.8 718C1081 704.2 1087 687.7 1092.7 671.7C1101.2 648 1110 623.5 1133.1 608.2C1162.6 588.6 1229.4 579.8 1328.4 614.2C1394 637 1456.9 671.9 1517.8 705.7C1525.2 709.8 1532.6 713.9 1540 718C1608.2 755.6 1681.8 794 1757.5 819.6C1815.4 839.3 1869.4 849.3 1915 849.3ZM1921.6 874.6C1937.1 874.6 1951.5 873.4 1964.8 870.8C1972.6 869.3 1982.6 865.1 1984.8 858.2C1986.1 854.3 1984.7 850.1 1980.7 845.8L1980.1 846.3C1983.9 850.4 1985.3 854.3 1984.1 857.9C1982 864.5 1972.3 868.5 1964.7 870C1910.1 880.4 1834.4 869 1751.5 837.8C1675.9 809.4 1602.9 768.5 1535.4 728.5C1528.1 724.2 1520.8 719.8 1513.4 715.5C1453 679.6 1390.6 642.5 1325.1 617.3C1260.1 592.3 1173.9 575.5 1126.9 603.5C1102.7 617.9 1092.8 641.9 1083.2 665C1076.8 680.5 1070.1 696.5 1059.3 709.7C1041 731.9 1008.2 746.3 966.9 750.2C925.5 754.1 877.4 747.3 831.4 731.1C799.5 719.9 768 704.4 737.5 689.4C721.9 681.8 705.8 673.9 689.9 666.6C631 639.9 583.8 628.2 549.5 632C523.4 634.9 505.4 646.6 488 658C479.4 663.6 470.4 669.5 460.6 674.2C422.5 692.4 363.5 692.8 298.7 675.4C233.7 657.9 171.3 624.7 127.5 584.2C94.1 553.3 70.5 519.3 47.7 486.4C37.7 472 27.4 457.1 16.4 442.6L15.8 443.1C26.8 457.5 37.1 472.4 47.1 486.8C69.9 519.7 93.5 553.7 127 584.7C170.9 625.3 233.4 658.6 298.5 676.1C363.5 693.6 422.7 693.1 460.9 674.9C470.8 670.2 479.7 664.3 488.4 658.7C505.7 647.4 523.7 635.7 549.6 632.8C583.7 629 630.8 640.6 689.6 667.3C705.6 674.5 721.7 682.4 737.2 690.1C767.7 705.1 799.3 720.6 831.2 731.8C877.3 748 925.5 754.8 967 750.9C1008.5 747 1041.5 732.5 1060 710.1C1070.9 696.9 1077.6 680.8 1084 665.2C1093.6 642.1 1103.4 618.3 1127.4 604C1158 585.8 1226 579.9 1324.9 617.9C1390.4 643.1 1452.8 680.2 1513.1 716C1520.4 720.4 1527.8 724.7 1535.1 729C1602.7 769 1675.7 809.9 1751.3 838.3C1814.2 862.3 1873 874.6 1921.6 874.6ZM1927.6 900.4C1939.1 900.4 1950 899.7 1960.2 898.2C1968.3 897 1978.6 893.2 1981 886.4C1982.4 882.6 1981.1 878.4 1977.2 874L1976.6 874.5C1980.3 878.6 1981.5 882.5 1980.2 886.1C1977.8 892.6 1967.8 896.2 1960 897.4C1904.2 905.5 1827.9 891.1 1745 856.9C1669.4 825.7 1597 782.2 1530.1 739.9C1522.9 735.3 1515.6 730.7 1508.3 726.1C1448.5 688.1 1386.6 648.8 1321.1 621.2C1256.1 593.8 1169.3 573.7 1120.6 599.5C1095.5 612.7 1084.5 636.1 1073.9 658.7C1066.8 673.8 1059.4 689.4 1047.9 702C1028.5 723.3 994.6 736.2 952.6 738.4C910.5 740.6 861.9 731.9 815.9 714C784 701.6 752.6 685 722.3 668.9C706.8 660.7 690.8 652.2 674.9 644.4C616.2 615.5 568.8 602.1 533.9 604.5C507.3 606.3 488.6 617.2 470.5 627.8C461.5 633 452.2 638.4 442 642.7C402.7 659.2 342.8 657.2 277.8 637.3C212.5 617.4 150.5 581.9 107.7 540.1C75 508.1 52.5 473.5 30.6 440.1C21 425.4 11.1 410.3 0.5 395.5L0 395.8C10.6 410.6 20.5 425.7 30.1 440.4C51.9 473.9 74.5 508.6 107.3 540.6C150.2 582.5 212.3 618.1 277.7 638C342.9 657.9 402.9 659.9 442.4 643.3C452.6 639 461.9 633.6 470.9 628.4C488.9 617.9 507.6 607.1 534 605.2C568.8 602.8 616.1 616.2 674.6 645C690.5 652.8 706.5 661.3 722 669.5C752.4 685.6 783.8 702.2 815.7 714.6C861.8 732.6 910.5 741.2 952.7 739C995 736.8 1029 723.8 1048.6 702.4C1060.2 689.7 1067.6 674.1 1074.7 658.9C1085.3 636.4 1096.3 613.2 1121.1 600.1C1152.9 583.3 1222.1 580.2 1320.9 621.8C1386.4 649.4 1448.2 688.6 1508 726.6C1515.2 731.2 1522.5 735.8 1529.8 740.4C1596.8 782.7 1669.2 826.2 1744.8 857.4C1812.7 885.7 1876.2 900.4 1927.6 900.4ZM1918 877.1C1931.3 877.1 1943.8 876.2 1955.4 874.3C1963.4 873 1973.6 869.1 1975.9 862.3C1977.2 858.5 1975.9 854.4 1972 850.2L1971.4 850.7C1975.1 854.7 1976.4 858.5 1975.2 862C1973 868.5 1963.1 872.2 1955.3 873.5C1900.1 882.5 1824.1 869.7 1741.3 837.5C1665.8 808.1 1593.2 766.6 1526 726.1C1518.7 721.7 1511.4 717.3 1504.2 712.9C1444.2 676.5 1382.2 638.9 1316.7 612.9C1251.8 587.1 1165.3 568.8 1117.4 595.1C1092.8 608.6 1082.2 631.9 1072.1 654.3C1065.3 669.3 1058.3 684.8 1047.1 697.4C1028.2 718.7 994.8 732.1 953.2 735C911.5 737.9 863.2 730.3 817.2 713.4C785.3 701.7 753.9 685.9 723.5 670.6C708 662.8 692 654.7 676 647.3C617.3 619.9 570 607.5 535.4 610.5C509.1 612.8 490.7 623.9 472.9 634.6C464.1 639.9 454.9 645.4 444.9 649.8C406.2 666.7 346.8 665.9 281.9 647.5C216.8 629 154.7 595.2 111.5 554.7C78.5 523.8 55.5 490.1 33.3 457.4C23.6 443.1 13.5 428.3 2.7 414L2 414.6C12.8 429 22.9 443.7 32.6 458C54.9 490.7 77.9 524.4 110.9 555.4C154.2 596 216.4 629.9 281.7 648.4C346.7 666.9 406.3 667.7 445.2 650.7C455.3 646.3 464.4 640.8 473.2 635.4C490.9 624.7 509.2 613.7 535.4 611.4C569.8 608.4 617 620.8 675.6 648.1C691.5 655.5 707.5 663.6 723.1 671.4C753.5 686.7 784.9 702.5 816.9 714.2C863 731.1 911.4 738.7 953.2 735.8C995.1 732.9 1028.6 719.4 1047.7 698C1059 685.3 1066 669.7 1072.8 654.7C1082.9 632.3 1093.4 609.2 1117.8 595.8C1149 578.6 1217.6 574.3 1316.4 613.6C1381.8 639.6 1443.8 677.2 1503.8 713.6C1511.1 718 1518.4 722.4 1525.6 726.8C1592.8 767.3 1665.4 808.9 1741 838.3C1806.6 863.8 1867.9 877.1 1918 877.1ZM1908.1 853.9C1923.3 853.9 1937.5 852.7 1950.6 850.4C1958.5 849 1968.6 844.9 1970.7 838.1C1971.9 834.3 1970.5 830.3 1966.6 826.3L1966.1 826.8C1969.9 830.7 1971.2 834.4 1970.1 837.9C1968 844.3 1958.3 848.2 1950.6 849.6C1896 859.5 1820.4 848.3 1737.6 818.1C1662.1 790.5 1589.4 750.9 1522 712.2C1514.7 708 1507.4 703.8 1500.1 699.6C1439.9 664.8 1377.6 628.9 1312.2 604.4C1247.3 580.1 1161.2 563.8 1114.2 590.6C1090 604.4 1080 627.5 1070.3 649.9C1063.8 664.8 1057.1 680.3 1046.3 692.9C1027.9 714.3 995.1 728.1 953.8 731.7C912.4 735.4 864.4 728.7 818.4 713C786.6 702.1 755.1 687.1 724.7 672.6C709.2 665.2 693.1 657.5 677.2 650.5C618.4 624.6 571.3 613.2 537 616.8C510.9 619.5 492.9 630.8 475.4 641.7C466.7 647.1 457.8 652.7 447.9 657.2C409.8 674.6 350.8 674.9 286.1 658C221.2 641 158.9 608.8 115.3 569.6C82 539.7 58.6 506.9 35.9 475.1C26 461.2 15.7 446.8 4.7 432.8L4 433.3C15 447.3 25.2 461.6 35.2 475.6C57.9 507.4 81.3 540.3 114.7 570.2C158.4 609.4 220.8 641.7 285.8 658.7C350.7 675.7 409.8 675.4 448.1 657.9C458 653.4 467 647.8 475.7 642.3C493.1 631.4 511 620.2 536.9 617.5C571 613.9 618.1 625.2 676.7 651.1C692.6 658.1 708.7 665.8 724.2 673.2C754.6 687.7 786.1 702.7 818 713.7C864 729.5 912.2 736.1 953.7 732.5C995.2 728.8 1028.3 714.9 1046.7 693.4C1057.6 680.7 1064.4 665.2 1070.8 650.2C1080.4 628 1090.4 605 1114.4 591.3C1145.1 573.8 1213.1 568.2 1311.8 605.2C1377.2 629.6 1439.4 665.6 1499.6 700.3C1506.9 704.5 1514.2 708.7 1521.5 712.9C1588.9 751.6 1661.7 791.2 1737.2 818.9C1800.4 841.9 1859.4 853.9 1908.1 853.9ZM1897.9 830.9C1915.2 830.9 1931.3 829.5 1945.8 826.5C1953.7 824.9 1963.5 820.7 1965.6 814C1966.7 810.3 1965.3 806.4 1961.3 802.4L1960.8 802.9C1964.6 806.6 1966 810.3 1965 813.7C1963.1 820.1 1953.5 824.1 1945.8 825.7C1891.8 836.5 1816.5 826.9 1733.8 798.6C1658.4 772.8 1585.4 735.1 1517.8 698.2C1510.5 694.2 1503.1 690.2 1495.8 686.2C1435.4 653.1 1373 618.8 1307.6 595.9C1242.7 573.2 1157 558.7 1110.8 586C1087 600.1 1077.5 623.1 1068.3 645.3C1062.2 660.2 1055.8 675.5 1045.2 688.2C1027.4 709.6 995 723.9 954.1 728.3C913.1 732.7 865.3 727 819.4 712.4C787.6 702.2 756.1 688 725.6 674.3C710 667.3 694 660 678 653.4C619.2 628.9 572.2 618.6 538.2 622.9C512.4 626.1 494.7 637.6 477.5 648.7C469 654.2 460.2 659.9 450.5 664.5C413 682.4 354.5 683.8 289.9 668.3C225.1 652.8 162.7 622.2 118.7 584.4C85.1 555.5 61.2 523.6 38.2 492.7C28.1 479.2 17.6 465.1 6.5 451.6L5.9 452C17 465.6 27.5 479.6 37.6 493.1C60.7 524 84.6 556 118.2 584.9C162.3 622.8 224.8 653.4 289.7 669C354.4 684.5 413.1 683.1 450.8 665.1C460.5 660.4 469.3 654.7 477.9 649.2C494.9 638.1 512.6 626.7 538.2 623.5C572 619.3 618.9 629.6 677.6 654C693.5 660.6 709.6 667.9 725.2 674.9C755.7 688.6 787.2 702.9 819 713C865 727.7 912.9 733.4 954 728.9C995.1 724.5 1027.7 710.2 1045.6 688.6C1056.2 675.8 1062.6 660.4 1068.8 645.5C1078 623.4 1087.4 600.5 1111 586.6C1141.1 568.7 1208.5 562 1307.2 596.5C1372.5 619.4 1435 653.6 1495.3 686.8C1502.6 690.8 1510 694.8 1517.3 698.8C1584.9 735.7 1657.9 773.4 1733.4 799.3C1794 820.1 1850.6 830.9 1897.9 830.9ZM1887.2 807.9C1906.8 807.9 1924.9 806.1 1941 802.6C1948.8 800.9 1958.5 796.5 1960.4 789.8C1961.4 786.1 1959.9 782.3 1955.9 778.5L1955.4 779.1C1959.2 782.7 1960.7 786.3 1959.7 789.7C1957.9 796 1948.5 800.2 1940.9 801.9C1887.5 813.6 1812.6 805.6 1729.9 779.3C1654.5 755.3 1581.4 719.5 1513.6 684.4C1506.3 680.6 1498.9 676.8 1491.6 673C1431 641.5 1368.4 608.8 1303 587.5C1238.2 566.4 1152.7 553.7 1107.4 581.6C1084.1 596 1075.1 618.8 1066.3 641C1060.5 655.8 1054.5 671.1 1044.2 683.8C1026.9 705.3 995 720 954.5 725.1C913.9 730.2 866.3 725.6 820.5 712C788.7 702.6 757.2 689.2 726.7 676.2C711.1 669.6 695 662.7 679.1 656.5C620.3 633.5 573.4 624.3 539.8 629.1C514.2 632.8 496.8 644.4 480.1 655.7C471.8 661.3 463.1 667.1 453.6 671.9C416.7 690.3 358.6 692.8 294.3 678.8C229.7 664.7 167.2 635.7 122.8 599.3C88.9 571.5 64.6 540.4 41.1 510.4C30.8 497.2 20.2 483.6 8.8 470.4L8.2 470.9C19.5 484.1 30.2 497.7 40.4 510.8C63.9 540.9 88.2 572 122.2 599.9C166.7 636.4 229.3 665.5 294 679.6C358.5 693.7 416.8 691.1 453.8 672.6C463.4 667.8 472 662 480.4 656.4C497.1 645.2 514.4 633.5 539.8 629.9C573.3 625.1 620 634.3 678.8 657.3C694.8 663.5 710.9 670.4 726.4 677C756.9 690 788.5 703.4 820.3 712.8C866.2 726.4 913.9 731.1 954.6 725.9C995.4 720.7 1027.4 706 1044.8 684.3C1055.1 671.5 1061.1 656.1 1067 641.3C1075.7 619.3 1084.6 596.5 1107.8 582.3C1137.4 564.1 1204.1 556.1 1302.8 588.3C1368.1 609.6 1430.7 642.2 1491.3 673.7C1498.6 677.5 1506 681.3 1513.3 685.1C1581.1 720.2 1654.3 756 1729.7 780C1787.5 798.4 1841.6 807.9 1887.2 807.9ZM1876.1 785.1C1898.2 785.1 1918.4 783 1936.2 778.7C1943.9 776.9 1953.5 772.3 1955.2 765.7C1956.1 762 1954.5 758.3 1950.5 754.6L1950 755.2C1953.8 758.7 1955.4 762.1 1954.5 765.5C1952.9 771.8 1943.5 776.1 1936 777.9C1883.2 790.6 1808.6 784.1 1726 759.8C1650.7 737.6 1577.3 703.7 1509.3 670.4C1501.9 666.8 1494.6 663.2 1487.2 659.5C1426.4 629.6 1363.6 598.6 1298.3 578.9C1233.5 559.3 1148.4 548.5 1103.9 577C1081 591.6 1072.5 614.4 1064.3 636.4C1058.8 651.1 1053.1 666.3 1043.2 679.1C1026.4 700.7 995.1 715.8 954.9 721.7C914.7 727.6 867.3 723.9 821.5 711.4C789.8 702.7 758.2 690.1 727.6 677.9C712 671.7 695.9 665.2 679.9 659.4C621 637.9 574.3 629.7 541 635.1C515.7 639.2 498.6 651.1 482.2 662.6C474 668.3 465.6 674.2 456.2 679.1C419.9 698 362.3 701.6 298.1 689.1C233.7 676.5 171 649.1 126.2 614C92 587.2 67.3 557 43.4 527.8C32.8 515 22 501.8 10.5 489L9.9 489.5C21.4 502.3 32.2 515.5 42.7 528.3C66.6 557.5 91.4 587.7 125.7 614.6C170.6 649.8 233.4 677.2 297.9 689.8C362.3 702.4 420.1 698.7 456.5 679.7C465.9 674.8 474.4 668.9 482.6 663.2C499 651.8 515.9 640 541.1 635.9C574.3 630.5 620.9 638.7 679.6 660.2C695.6 666 711.7 672.5 727.3 678.7C757.9 690.9 789.5 703.5 821.2 712.2C867.1 724.7 914.6 728.4 954.9 722.5C995.3 716.6 1026.8 701.4 1043.7 679.7C1053.7 666.8 1059.4 651.6 1064.9 636.8C1073.1 614.9 1081.6 592.3 1104.2 577.8C1133.2 559.2 1199.4 550 1298 579.8C1363.3 599.5 1426.1 630.5 1486.8 660.4C1494.2 664 1501.6 667.7 1508.9 671.3C1576.9 704.6 1650.3 738.5 1725.7 760.7C1780.8 776.8 1832.2 785.1 1876.1 785.1ZM1864.5 762.4C1889.4 762.4 1911.9 759.9 1931.3 754.8C1938.9 752.8 1948.4 748.2 1949.9 741.6C1950.7 738 1949.1 734.3 1945 730.8L1944.5 731.4C1948.4 734.7 1950 738.1 1949.2 741.5C1947.7 747.8 1938.5 752.2 1931.1 754.2C1878.9 767.8 1804.7 762.9 1722.1 740.6C1646.8 720.2 1573.3 688.3 1505.1 656.8C1497.7 653.4 1490.3 650 1482.9 646.5C1421.9 618.2 1358.9 588.9 1293.6 570.7C1228.8 552.7 1144.1 543.7 1100.4 572.7C1077.9 587.6 1069.9 610.3 1062.2 632.1C1057 646.7 1051.7 661.8 1042.1 674.6C1025.9 696.2 995 711.8 955.2 718.4C915.3 725 868.2 722.4 822.5 711C790.8 703.1 759.2 691.3 728.6 679.9C713 674.1 696.8 668 680.9 662.6C622 642.5 575.4 635.4 542.4 641.4C517.3 646 500.6 658 484.5 669.7C476.5 675.5 468.2 681.5 459 686.5C423.3 705.9 366.1 710.7 302.1 699.5C237.8 688.3 175.1 662.6 129.9 628.9C95.4 603.1 70.2 573.8 45.9 545.5C35.2 533.1 24.2 520.2 12.5 507.8L11.9 508.3C23.6 520.7 34.6 533.5 45.2 545.9C69.6 574.3 94.7 603.6 129.3 629.4C174.6 663.2 237.5 689 301.9 700.2C366.1 711.3 423.5 706.6 459.3 687.1C468.6 682.1 476.9 676.1 484.9 670.3C501 658.7 517.6 646.7 542.5 642.1C575.3 636.1 621.8 643.2 680.6 663.3C696.6 668.7 712.7 674.8 728.3 680.6C758.9 692 790.6 703.8 822.3 711.8C868.1 723.2 915.4 725.9 955.3 719.3C995.3 712.7 1026.3 697 1042.7 675.2C1052.4 662.3 1057.7 647.1 1062.9 632.5C1070.6 610.7 1078.6 588.2 1100.8 573.4C1129.3 554.5 1194.8 544.1 1293.3 571.5C1358.5 589.7 1421.6 618.9 1482.5 647.2C1489.9 650.6 1497.3 654.1 1504.7 657.5C1573 689 1646.5 721 1721.8 741.4C1773.9 755.2 1822.5 762.4 1864.5 762.4ZM1852.3 739.9C1880.2 739.9 1905.2 736.9 1926.5 731C1934.1 728.9 1943.4 724.1 1944.8 717.5C1945.6 713.9 1943.8 710.3 1939.7 706.9L1939.2 707.5C1943.1 710.7 1944.8 714 1944.1 717.3C1942.8 723.5 1933.7 728.1 1926.4 730.2C1874.8 744.7 1800.9 741.4 1718.4 721C1643.2 702.4 1569.5 672.4 1501 642.7C1493.6 639.5 1486.2 636.2 1478.8 633C1417.6 606.3 1354.4 578.7 1289.1 562.1C1224.4 545.6 1140 538.6 1097.2 568.1C1075.2 583.3 1067.7 605.8 1060.4 627.6C1055.5 642.1 1050.5 657.2 1041.2 670C1025.5 691.7 995.1 707.7 955.7 715C916.2 722.3 869.3 720.7 823.7 710.4C792 703.2 760.4 692.2 729.7 681.6C714.1 676.2 697.9 670.6 681.9 665.5C622.9 646.9 576.5 640.8 543.8 647.4C518.9 652.4 502.6 664.7 486.8 676.5C479 682.4 470.9 688.5 461.8 693.6C426.7 713.5 370 719.4 306.1 709.7C242 700 179.1 675.9 133.5 643.5C98.7 618.8 73.1 590.4 48.4 562.9C37.6 550.9 26.3 538.4 14.5 526.4L14 526.9C25.8 538.9 37.1 551.3 47.9 563.4C72.7 590.9 98.3 619.4 133.2 644.1C178.9 676.6 241.9 700.7 306.1 710.4C370.1 720.1 427 714.2 462.3 694.2C471.4 689 479.5 682.9 487.4 677C503.1 665.2 519.4 653 544.1 648C576.6 641.4 622.9 647.5 681.8 666.1C697.8 671.1 713.9 676.8 729.6 682.2C760.3 692.9 792 703.9 823.7 711C869.5 721.3 916.5 723 956.1 715.6C995.7 708.2 1026.3 692.1 1042.1 670.3C1051.5 657.4 1056.5 642.3 1061.4 627.7C1068.6 606 1076.1 583.6 1097.9 568.6C1125.8 549.3 1190.8 537.7 1289.2 562.8C1354.4 579.4 1417.6 607 1478.8 633.7C1486.2 636.9 1493.6 640.2 1501.1 643.4C1569.6 673.1 1643.3 703.2 1718.6 721.8C1766.8 733.8 1812.4 739.9 1852.3 739.9ZM360.5 724.2C403.1 724.2 439.8 716.4 464.9 701.6C473.9 696.3 481.8 690.1 489.5 684.1C504.9 672.1 520.8 659.7 545.3 654.3C577.5 647.1 623.7 652.1 682.6 669.2C698.6 673.8 714.8 679.1 730.4 684.1C761.1 694 792.8 704.2 824.5 710.6C870.2 719.9 917 720.5 956.2 712.4C995.5 704.3 1025.5 687.7 1040.8 665.8C1049.8 652.8 1054.5 637.8 1059.1 623.3C1065.8 601.8 1072.8 579.5 1094.2 564.2C1121.6 544.6 1185.9 531.7 1284.3 554.4C1349.5 569.4 1412.9 595.4 1474.2 620.4C1481.6 623.4 1489.1 626.5 1496.5 629.5C1565.2 657.4 1639.1 685.5 1714.3 702.3C1796.9 720.7 1870.5 722.4 1921.7 707C1929.2 704.7 1938.4 699.8 1939.6 693.3C1940.3 689.7 1938.5 686.3 1934.3 683L1933.8 683.6C1937.8 686.7 1939.4 689.9 1938.8 693.2C1937.6 699.4 1928.7 704.1 1921.4 706.3C1870.4 721.7 1796.9 720 1714.4 701.6C1639.2 684.8 1565.3 656.7 1496.7 628.8C1489.3 625.8 1481.8 622.7 1474.4 619.7C1413 594.6 1349.6 568.6 1284.3 553.6C1219.6 538.7 1135.5 533.5 1093.6 563.5C1072 579 1065 601.4 1058.2 623C1053.7 637.5 1049 652.4 1040 665.3C1024.8 687.1 995 703.5 955.9 711.6C916.8 719.7 870.1 719.1 824.5 709.8C792.9 703.4 761.2 693.2 730.5 683.3C714.8 678.3 698.7 673.1 682.6 668.4C623.6 651.3 577.3 646.2 544.9 653.4C520.3 658.9 504.3 671.3 488.8 683.4C481.1 689.4 473.2 695.5 464.3 700.8C429.8 721.2 373.5 728.2 309.8 720C245.9 711.8 182.8 689.3 136.8 658.2C102 634.6 76 607.1 50.8 580.5C39.8 568.8 28.4 556.8 16.3 545.2L15.8 545.7C27.8 557.3 39.2 569.3 50.2 581C75.4 607.7 101.4 635.2 136.6 658.9C182.7 690 245.9 712.6 309.9 720.8C327.5 723.1 344.4 724.2 360.5 724.2ZM356.6 733.5C402.3 733.5 441.5 725 467.7 708.8C476.5 703.4 484.3 697.1 491.8 691C506.9 678.8 522.4 666.3 546.6 660.3C578.5 652.5 624.5 656.5 683.5 672.1C699.5 676.3 715.7 681.1 731.4 685.8C762.1 694.9 793.9 704.3 825.5 710C871.2 718.2 917.7 717.8 956.5 709C995.4 700.1 1024.9 683.2 1039.6 661.2C1048.3 648.2 1052.7 633.3 1056.9 618.8C1063.2 597.4 1069.6 575.2 1090.6 559.6C1117.4 539.7 1181.1 525.6 1279.5 545.9C1344.6 559.3 1408.3 583.6 1469.8 607.1C1477.3 609.9 1484.7 612.8 1492.2 615.6C1561.1 641.7 1635.2 667.9 1710.4 682.9C1792.9 699.3 1866.2 699.4 1916.8 683.1C1924.2 680.7 1933.2 675.6 1934.3 669.1C1934.9 665.6 1933 662.2 1928.8 659L1928.3 659.6C1932.3 662.6 1934 665.7 1933.5 668.9C1932.5 675 1923.7 679.9 1916.5 682.3C1866.1 698.6 1792.9 698.5 1710.5 682.1C1635.4 667.1 1561.3 640.9 1492.4 614.8C1485 612 1477.5 609.1 1470 606.3C1408.4 582.8 1344.8 558.5 1279.6 545.1C1214.9 531.8 1131.2 528.4 1090.1 559C1068.9 574.7 1062.4 597 1056.1 618.6C1051.9 633 1047.6 647.9 1038.9 660.8C1024.3 682.6 994.9 699.5 956.2 708.3C917.5 717.1 871 717.5 825.5 709.3C793.9 703.6 762.2 694.2 731.4 685.1C715.7 680.5 699.5 675.7 683.5 671.4C624.4 655.7 578.3 651.7 546.3 659.6C521.9 665.6 506.3 678.2 491.2 690.4C483.7 696.5 475.9 702.7 467.2 708.1C433.3 729 377.5 737.1 314 730.4C250.3 723.6 187.1 702.7 140.7 673.1C105.3 650.4 78.8 623.8 53.3 598C42.1 586.7 30.5 575 18.3 563.8L17.8 564.4C30 575.6 41.6 587.3 52.8 598.6C78.4 624.4 104.9 651.1 140.4 673.8C186.9 703.5 250.2 724.5 314 731.3C328.7 732.8 343 733.5 356.6 733.5ZM352.3 743C401.3 743 443.3 733.6 470.5 716.1C479.1 710.6 486.8 704.2 494.1 698C508.8 685.7 524.1 672.9 548 666.5C579.6 658.1 625.5 661 684.4 675.2C700.4 679.1 716.6 683.4 732.3 687.7C763.1 696 794.9 704.6 826.5 709.5C872.1 716.6 918.4 715.2 956.9 705.6C995.4 696 1024.4 678.6 1038.6 656.5C1047 643.5 1051 628.6 1054.9 614.2C1060.7 592.9 1066.7 570.8 1087.2 555C1113.5 534.7 1176.6 519.4 1274.9 537.3C1340 549.2 1403.8 571.8 1465.5 593.6C1473 596.3 1480.5 598.9 1488 601.5C1557.1 625.8 1631.4 650.1 1706.5 663.3C1789 677.8 1861.9 676.2 1911.9 659C1919.2 656.5 1928.1 651.2 1929 644.8C1929.5 641.3 1927.6 638 1923.3 635L1922.9 635.6C1926.9 638.4 1928.7 641.5 1928.3 644.7C1927.4 650.8 1918.8 655.8 1911.7 658.3C1861.8 675.5 1789 677 1706.7 662.6C1631.6 649.4 1557.4 625.1 1488.3 600.8C1480.8 598.2 1473.3 595.5 1465.8 592.9C1404.1 571 1340.2 548.4 1275.1 536.5C1210.5 524.7 1127.1 523.2 1086.8 554.3C1066.1 570.3 1060.1 592.5 1054.3 613.9C1050.4 628.2 1046.4 643 1038.1 656C1024 677.9 995.1 695.2 956.8 704.8C918.4 714.4 872.3 715.7 826.7 708.7C795.2 703.8 763.4 695.2 732.6 686.9C716.9 682.7 700.7 678.3 684.6 674.4C625.5 660.2 579.5 657.3 547.8 665.7C523.7 672.1 508.4 684.9 493.6 697.3C486.3 703.5 478.7 709.8 470.1 715.3C436.8 736.7 381.4 745.9 318.1 740.6C254.5 735.3 191.2 716 144.4 687.7C108.7 666.1 81.8 640.3 55.8 615.4C44.4 604.5 32.6 593.2 20.2 582.4L19.7 583C32.1 593.8 43.9 605.1 55.2 616C81.2 640.9 108.1 666.7 143.9 688.4C190.8 716.8 254.2 736.1 317.9 741.4C329.8 742.5 341.3 743 352.3 743ZM347.6 752.7C400.1 752.7 445.1 742.4 473.4 723.4C481.9 717.7 489.3 711.2 496.5 705C510.9 692.5 525.8 679.5 549.5 672.7C580.7 663.7 626.5 665.6 685.5 678.3C701.5 681.8 717.8 685.7 733.5 689.6C764.3 697.2 796.2 705 827.7 709.1C873.3 715.1 919.3 712.7 957.4 702.4C995.5 692.1 1024 674.2 1037.7 652.1C1045.8 639 1049.5 624.2 1053.1 609.9C1058.4 588.7 1063.9 566.8 1084 550.6C1109.7 529.9 1172.2 513.4 1270.5 529C1335.6 539.3 1399.6 560.2 1461.5 580.5C1469 583 1476.5 585.4 1484 587.9C1553.3 610.4 1627.8 632.8 1702.9 644.2C1785.3 656.7 1857.9 653.6 1907.2 635.4C1914.5 632.7 1923.2 627.4 1924 621C1924.4 617.5 1922.4 614.3 1918.1 611.4L1917.7 612C1921.8 614.7 1923.6 617.7 1923.2 620.9C1922.5 626.9 1914 632.1 1906.9 634.7C1857.6 652.8 1785.2 655.9 1702.9 643.4C1627.9 632 1553.4 609.7 1484.1 587.2C1476.6 584.8 1469.1 582.3 1461.6 579.8C1399.7 559.5 1335.6 538.6 1270.5 528.3C1206 518 1123 518.4 1083.6 550C1063.3 566.3 1057.8 588.3 1052.5 609.7C1048.9 623.9 1045.3 638.7 1037.2 651.6C1023.6 673.6 995.3 691.3 957.3 701.6C919.3 711.9 873.4 714.3 827.9 708.3C796.4 704.2 764.5 696.3 733.8 688.8C718.1 684.9 701.8 681 685.8 677.5C626.7 664.7 580.8 662.9 549.4 671.9C525.5 678.8 510.6 691.8 496.1 704.4C488.9 710.6 481.5 717.1 473.1 722.8C440.4 744.7 385.5 755 322.3 751.2C258.9 747.4 195.5 729.7 148.3 702.7C112.3 682.1 85 657.2 58.5 633.2C46.9 622.7 34.9 611.8 22.4 601.3L21.9 601.9C34.4 612.3 46.4 623.2 58 633.7C84.5 657.8 111.8 682.7 147.9 703.3C195.2 730.3 258.7 748 322.3 751.9C330.8 752.4 339.3 752.7 347.6 752.7ZM342.3 762.6C398.6 762.6 446.8 751.2 476.2 730.7C484.5 724.9 491.8 718.3 498.8 712C512.9 699.3 527.4 686.1 550.9 678.8C581.8 669.2 627.4 670 686.5 681.3C702.5 684.4 718.8 687.9 734.6 691.4C765.5 698.2 797.4 705.2 828.9 708.6C874.4 713.5 920.2 710.1 957.9 699.1C995.6 688 1023.7 669.7 1036.8 647.5C1044.6 634.4 1047.9 619.7 1051.2 605.5C1056 584.4 1061 562.6 1080.6 546.2C1105.8 525.2 1167.7 507.5 1265.9 520.6C1330.9 529.3 1395.1 548.6 1457.2 567.3C1464.8 569.6 1472.3 571.8 1479.8 574.1C1549.3 594.8 1624 615.3 1699 624.8C1781.3 635.3 1853.6 630.6 1902.3 611.5C1909.5 608.7 1918.1 603.2 1918.7 596.8C1919 593.4 1917 590.2 1912.6 587.5L1912.2 588.1C1916.3 590.7 1918.2 593.6 1917.9 596.7C1917.3 602.7 1909 608 1902 610.7C1853.3 629.7 1781.2 634.4 1699 623.9C1624 614.3 1549.4 593.9 1479.9 573.2C1472.4 571 1464.8 568.7 1457.3 566.4C1395.2 547.7 1330.9 528.5 1265.8 519.7C1201.3 511 1118.5 513.2 1080 545.4C1060.1 562 1055.1 583.9 1050.3 605.1C1047.1 619.3 1043.7 633.9 1036 646.9C1023 668.9 995.1 687.1 957.5 698.1C919.9 709.1 874.2 712.5 828.8 707.6C797.3 704.2 765.4 697.2 734.6 690.4C718.9 686.9 702.6 683.4 686.5 680.3C627.3 669 581.6 668.2 550.5 677.8C526.9 685.1 512.2 698.3 498.1 711.1C491.1 717.4 483.8 724 475.5 729.8C443.4 752.2 388.9 763.6 325.9 761.3C262.7 758.9 199.1 742.9 151.5 717.3C115.2 697.7 87.4 673.8 60.6 650.6C49.1 640.6 37 630 24.2 620L23.7 620.6C36.4 630.6 48.6 641.1 60.3 651.3C87.2 674.5 115 698.5 151.4 718.1C199.1 743.8 262.8 759.9 326.1 762.2C331.6 762.5 337 762.6 342.3 762.6ZM336.6 772.7C396.9 772.7 448.6 760.2 479.1 738C487.3 732.1 494.4 725.4 501.2 719C514.9 706.1 529.2 692.8 552.4 685C583 674.8 628.5 674.6 687.6 684.4C703.7 687.1 719.9 690.2 735.7 693.3C766.6 699.3 798.5 705.5 830 708.2C875.5 712 921.1 707.6 958.4 695.8C995.8 684 1023.3 665.2 1035.9 643C1043.4 629.8 1046.4 615.2 1049.3 601.1C1053.6 580.1 1058.1 558.4 1077.3 541.8C1101.9 520.4 1163.2 501.5 1261.3 512.3C1326.3 519.5 1390.7 537.1 1453 554.1C1460.6 556.2 1468.1 558.2 1475.7 560.3C1545.5 579.2 1620.3 597.8 1695.3 605.5C1777.6 614 1849.4 607.7 1897.6 587.8C1904.7 584.9 1913.1 579.2 1913.6 572.9C1913.8 569.5 1911.7 566.4 1907.4 563.8L1907 564.5C1911.1 567 1913.1 569.8 1912.9 572.9C1912.5 578.9 1904.2 584.3 1897.3 587.2C1849.2 607.1 1777.5 613.4 1695.3 604.9C1620.4 597.2 1545.5 578.6 1475.8 559.7C1468.2 557.7 1460.7 555.6 1453.1 553.5C1390.8 536.5 1326.3 518.8 1261.3 511.7C1196.8 504.6 1114.4 508.7 1076.7 541.4C1057.3 558.2 1052.8 580.1 1048.4 601.2C1045.5 615.3 1042.5 629.8 1035.1 642.9C1022.6 665 995.2 683.6 958 695.4C920.8 707.2 875.3 711.6 829.9 707.7C798.5 705.1 766.5 698.8 735.6 692.8C719.8 689.7 703.5 686.6 687.5 683.9C628.3 674.1 582.7 674.3 552 684.5C528.6 692.3 514.3 705.7 500.5 718.7C493.6 725.1 486.6 731.8 478.4 737.7C446.9 760.5 392.9 773.1 330 772.2C266.9 771.3 203.2 756.8 155.2 732.6C118.6 714.1 90.4 691 63.1 668.6C51.2 658.8 38.8 648.7 25.9 639.1L25.4 639.7C38.3 649.3 50.6 659.4 62.6 669.2C89.9 691.6 118.1 714.7 154.8 733.3C202.9 757.6 266.7 772.1 329.9 773C332.3 772.7 334.5 772.7 336.6 772.7ZM330.4 783C331.7 783 333 783 334.3 783C397.1 782.4 450.9 768.7 481.9 745.3C489.9 739.2 496.8 732.5 503.5 725.9C516.9 712.8 530.8 699.3 553.8 691.1C584.1 680.3 629.4 679 688.6 687.4C704.7 689.7 721 692.4 736.7 695.1C767.6 700.3 799.6 705.8 831.1 707.6C876.5 710.3 921.9 704.9 958.8 692.4C995.8 679.8 1022.8 660.6 1034.9 638.3C1042 625.1 1044.7 610.6 1047.3 596.5C1051.1 575.6 1055.1 554.1 1073.9 537.1C1098 515.4 1158.6 495.2 1256.7 503.7C1321.6 509.3 1386.3 525.2 1448.7 540.7C1456.3 542.6 1463.9 544.4 1471.5 546.3C1541.5 563.4 1616.5 580.1 1691.4 586C1773.6 592.5 1845.1 584.6 1892.7 563.8C1899.7 560.7 1908 554.9 1908.3 548.7C1908.5 545.3 1906.3 542.3 1901.9 539.8L1901.5 540.5C1905.7 542.8 1907.7 545.6 1907.5 548.6C1907.2 554.5 1899.2 560.1 1892.3 563.1C1844.8 583.9 1773.4 591.8 1691.3 585.3C1616.4 579.4 1541.4 562.7 1471.5 545.6C1463.9 543.7 1456.3 541.9 1448.7 540C1386.2 524.6 1321.5 508.6 1256.5 503C1192 497.5 1110 503.4 1073.1 536.6C1054.1 553.7 1050.1 575.4 1046.2 596.4C1043.6 610.4 1040.9 624.9 1033.9 638C1021.9 660.1 995.1 679.2 958.3 691.7C921.4 704.2 876.2 709.6 830.9 706.9C799.5 705 767.5 699.6 736.6 694.4C720.8 691.7 704.5 689 688.4 686.7C629.1 678.3 583.7 679.6 553.3 690.5C530.2 698.8 516.2 712.3 502.8 725.5C496.1 732 489.2 738.8 481.2 744.8C450.4 768.1 396.7 781.8 334 782.4C271.1 783 207.3 770.1 158.9 747.2C122 729.7 93.4 707.5 65.7 686C53.6 676.6 41 666.8 27.9 657.6L27.5 658.2C40.6 667.4 53.1 677.1 65.2 686.6C92.9 708.1 121.6 730.4 158.6 747.9C206.3 770.2 268.6 783 330.4 783ZM323.8 793.6C328.6 793.6 333.5 793.5 338.3 793.4C401 791.4 454.3 776.5 484.7 752.6C492.6 746.4 499.3 739.6 505.9 732.9C519 719.6 532.5 705.9 555.3 697.2C585.3 685.8 630.5 683.5 689.6 690.4C705.7 692.3 722 694.6 737.8 696.9C768.8 701.4 800.8 706 832.2 707.1C877.6 708.8 922.7 702.3 959.2 689.1C995.8 675.8 1022.3 656.1 1033.9 633.8C1040.7 620.6 1043.1 606.1 1045.3 592.1C1048.7 571.4 1052.1 549.9 1070.5 532.7C1094 510.6 1154.1 489.2 1252.1 495.3C1317 499.3 1381.9 513.6 1444.6 527.4C1452.2 529.1 1459.8 530.8 1467.4 532.4C1537.6 547.7 1612.8 562.4 1687.7 566.6C1769.9 571.1 1841 561.7 1888 539.9C1894.9 536.7 1903.1 530.7 1903.2 524.5C1903.3 521.1 1901.1 518.2 1896.6 515.9L1896.2 516.6C1900.4 518.8 1902.5 521.5 1902.4 524.5C1902.2 530.3 1894.3 536.1 1887.6 539.2C1840.7 560.9 1769.7 570.4 1687.6 565.8C1612.8 561.7 1537.6 546.9 1467.4 531.6C1459.8 529.9 1452.2 528.3 1444.6 526.6C1381.9 512.8 1317 498.5 1252 494.5C1187.6 490.5 1105.9 498.3 1069.8 532.1C1051.2 549.5 1047.7 571.1 1044.4 592C1042.1 605.9 1039.8 620.3 1033 633.5C1021.6 655.7 995.2 675.2 958.8 688.5C922.3 701.8 877.3 708.1 832 706.5C800.6 705.4 768.6 700.7 737.6 696.3C721.8 694 705.5 691.7 689.4 689.8C630.1 682.9 584.8 685.2 554.7 696.7C531.8 705.4 518.2 719.2 505.1 732.5C498.6 739.1 491.8 746 484 752.1C453.8 775.9 400.6 790.8 338.1 792.8C275.4 794.8 211.4 783.6 162.6 762.1C125.4 745.6 96.3 724.3 68.2 703.7C55.9 694.7 43.2 685.3 29.9 676.5L29.5 677.1C43 685.6 55.7 695 68 704C96.1 724.7 125.2 746 162.5 762.5C207.6 782.5 265.7 793.6 323.8 793.6ZM317 804.4C325.5 804.4 333.9 804.2 342.4 803.7C404.9 800.2 457.8 784.2 487.6 759.8C495.3 753.5 501.9 746.5 508.3 739.8C521.1 726.3 534.2 712.4 556.7 703.3C586.3 691.3 631.4 688 690.6 693.4C706.7 694.9 723 696.8 738.9 698.7C769.9 702.4 802 706.2 833.4 706.6C878.7 707.2 923.6 699.7 959.8 685.7C996 671.7 1022.1 651.6 1033 629.1C1039.5 615.8 1041.5 601.4 1043.5 587.5C1046.4 566.9 1049.4 545.5 1067.3 528C1090.3 505.6 1149.7 483 1247.7 486.7C1312.6 489.1 1377.6 501.8 1440.5 514C1448.1 515.5 1455.8 517 1463.4 518.4C1533.8 531.9 1609.2 544.7 1684 547.1C1766.1 549.7 1836.9 538.6 1883.3 515.9C1890.2 512.6 1898.2 506.5 1898.2 500.3C1898.2 497 1895.9 494.2 1891.4 491.9L1891.1 492.6C1895.3 494.7 1897.5 497.3 1897.5 500.3C1897.5 506.1 1889.7 511.9 1883.1 515.2C1836.8 537.8 1766.1 548.9 1684.1 546.3C1609.3 544 1533.9 531.2 1463.6 517.7C1456 516.2 1448.4 514.8 1440.7 513.3C1377.8 501.1 1312.7 488.5 1247.8 486C1183.4 483.6 1102 493.2 1066.8 527.5C1048.7 545.2 1045.7 566.6 1042.8 587.4C1040.9 601.3 1038.9 615.6 1032.4 628.7C1021.5 651 995.6 670.9 959.6 684.9C923.5 698.9 878.7 706.3 833.5 705.7C802.2 705.3 770.1 701.5 739.1 697.8C723.3 695.9 706.9 694 690.8 692.5C631.5 687.1 586.3 690.4 556.5 702.5C533.8 711.7 520.6 725.7 507.8 739.2C501.4 745.9 494.9 752.8 487.2 759.1C457.6 783.4 404.8 799.4 342.5 802.8C279.9 806.3 215.8 796.7 166.7 776.5C129.2 761.1 99.7 740.6 71.2 720.9C58.7 712.2 45.8 703.3 32.3 694.8L31.9 695.4C45.3 703.8 58.2 712.8 70.7 721.4C99.2 741.2 128.8 761.7 166.4 777.1C208.8 794.8 262.7 804.4 317 804.4ZM309.9 815.5C322.1 815.5 334.3 815 346.4 814.1C408.7 809.2 461.2 792 490.3 767.1C497.8 760.7 504.3 753.6 510.5 746.8C522.9 733.2 535.8 719.1 558 709.5C587.3 696.9 632.2 692.5 691.5 696.5C707.6 697.6 724 699.1 739.8 700.6C770.9 703.5 803 706.5 834.3 706.2C879.6 705.7 924.2 697.3 960 682.5C995.9 667.7 1021.4 647.2 1031.8 624.7C1038 611.4 1039.7 597.1 1041.3 583.2C1043.7 562.7 1046.2 541.5 1063.7 523.7C1086.1 501 1145 477.1 1242.9 478.4C1307.8 479.3 1373 490.2 1436.1 500.8C1443.8 502.1 1451.4 503.4 1459 504.6C1529.6 516.3 1605.2 527.2 1680 527.7C1681.8 527.7 1683.6 527.7 1685.4 527.7C1765.2 527.7 1833.5 515.1 1878.3 492C1885.1 488.5 1892.9 482.3 1892.8 476.2C1892.7 472.9 1890.4 470.2 1885.8 468.1L1885.5 468.8C1889.8 470.8 1892 473.3 1892.1 476.3C1892.2 482 1884.6 488 1878 491.4C1833.3 514.4 1765 527 1685.4 527C1683.6 527 1681.8 527 1680 527C1605.3 526.5 1529.7 515.6 1459.1 503.9C1451.5 502.6 1443.8 501.4 1436.2 500.1C1373.1 489.5 1307.8 478.5 1242.9 477.7C1178.5 476.8 1097.5 488.3 1063.2 523.2C1045.5 541.2 1043 562.5 1040.6 583.1C1039 596.9 1037.3 611.1 1031.2 624.3C1020.8 646.6 995.5 667 959.8 681.7C924.1 696.4 879.5 704.8 834.4 705.4C803.1 705.7 771 702.8 740 699.8C724.2 698.3 707.8 696.8 691.7 695.7C632.3 691.7 587.3 696.2 557.9 708.8C535.5 718.4 522.6 732.6 510.1 746.3C503.9 753.1 497.5 760.1 490 766.5C461 791.3 408.7 808.4 346.5 813.3C284.1 818.2 219.9 810.3 170.3 791.4C132.5 777 102.5 757.4 73.6 738.5C60.9 730.2 47.8 721.6 34.2 713.6L33.8 714.3C47.4 722.3 60.5 730.9 73.2 739.2C102.2 758.1 132.1 777.7 170 792.1C209.9 807.3 259.5 815.5 309.9 815.5ZM302.6 826.8C318.5 826.8 334.5 826 350.4 824.4C412.6 818 464.6 799.8 493.1 774.3C500.5 767.7 506.7 760.6 512.8 753.7C524.9 739.9 537.4 725.6 559.4 715.5C588.4 702.3 633.2 696.9 692.5 699.3C708.6 700 725 701.1 740.9 702.2C772 704.3 804.2 706.6 835.5 705.4C880.7 703.8 925.1 694.4 960.6 678.9C996.1 663.4 1021.1 642.4 1031 619.8C1036.9 606.4 1038.2 592.2 1039.5 578.5C1041.4 558.1 1043.4 537 1060.5 519C1082.4 495.9 1140.6 470.8 1238.5 469.8C1303.3 469.1 1368.7 478.4 1432 487.4C1439.7 488.5 1447.4 489.6 1455 490.7C1525.8 500.6 1601.6 509.6 1676.3 508.3C1758.3 506.9 1828.4 492.6 1873.6 468.1C1880.3 464.5 1888 458.1 1887.7 452.1C1887.6 448.8 1885.1 446.2 1880.5 444.2L1880.2 444.9C1884.5 446.8 1886.8 449.2 1886.9 452.1C1887.2 457.8 1879.7 463.9 1873.2 467.4C1828.1 491.8 1758.1 506.1 1676.2 507.5C1601.6 508.8 1525.8 499.8 1455 489.9C1447.3 488.8 1439.7 487.7 1432 486.6C1368.7 477.6 1303.2 468.3 1238.4 469C1174.1 469.7 1093.4 483 1059.9 518.4C1042.7 536.6 1040.7 557.9 1038.7 578.4C1037.4 592.1 1036.1 606.3 1030.3 619.5C1020.5 641.9 995.6 662.7 960.3 678.2C924.9 693.7 880.6 703.1 835.5 704.7C804.2 705.8 772.1 703.6 741 701.5C725.1 700.4 708.7 699.3 692.6 698.6C633.2 696.1 588.3 701.6 559.2 714.8C537 724.9 524.5 739.3 512.3 753.1C506.3 760 500 767.1 492.7 773.7C464.3 799 412.4 817.2 350.4 823.6C288.2 830 223.8 823.6 173.8 806.1C135.7 792.7 105.3 774.1 76 756C63.1 748.1 49.8 739.9 36 732.3L35.6 733C49.4 740.6 62.7 748.8 75.5 756.7C104.9 774.8 135.3 793.5 173.5 806.9C210.9 820 256.2 826.8 302.6 826.8ZM295.2 838.5C314.9 838.5 334.8 837.3 354.5 834.8C416.5 826.9 468.1 807.6 496 781.7C503.2 775 509.3 767.8 515.2 760.8C527 746.8 539.1 732.3 560.9 721.8C589.6 708 634.2 701.5 693.6 702.5C709.7 702.8 726.2 703.5 742 704.2C773.1 705.6 805.4 707 836.6 705.1C881.8 702.4 925.9 692 961 675.7C996.1 659.4 1020.6 638 1030 615.4C1035.6 602 1036.6 587.9 1037.5 574.2C1038.9 553.9 1040.4 532.9 1057.1 514.6C1078.4 491.1 1136 464.9 1233.9 461.5C1298.7 459.2 1364.3 466.9 1427.7 474.2C1435.4 475.1 1443.1 476 1450.8 476.9C1521.8 485 1597.9 492.1 1672.5 489C1754.4 485.6 1824.1 469.8 1868.8 444.4C1875.4 440.7 1882.9 434.1 1882.5 428.2C1882.3 425 1879.8 422.4 1875.1 420.5L1874.8 421.2C1879.2 422.9 1881.5 425.3 1881.7 428.2C1882.1 433.8 1874.8 440.1 1868.4 443.7C1823.8 469 1754.3 484.9 1672.4 488.2C1597.8 491.3 1521.8 484.2 1450.8 476.1C1443.1 475.2 1435.4 474.3 1427.7 473.4C1364.2 466 1298.6 458.4 1233.7 460.7C1169.4 462.9 1089.1 478.2 1056.4 514.1C1039.6 532.6 1038.1 553.7 1036.6 574.1C1035.6 587.7 1034.6 601.8 1029.1 615.1C1019.8 637.6 995.4 658.8 960.5 675C925.5 691.2 881.4 701.6 836.4 704.3C805.2 706.2 773 704.8 741.9 703.4C726 702.7 709.6 702 693.4 701.7C633.9 700.7 589.2 707.2 560.4 721C538.5 731.6 526.3 746.1 514.4 760.2C508.5 767.2 502.5 774.4 495.3 781.1C436.9 835.3 282.4 854.7 177.3 821C138.9 808.7 108.1 790.9 78.3 773.7C65.3 766.2 51.8 758.4 37.8 751.1L37.4 751.8C51.4 759 64.8 766.8 77.9 774.4C107.7 791.6 138.5 809.4 177 821.8C211.7 832.7 252.8 838.5 295.2 838.5ZM287.8 850.4C311.2 850.4 335.1 848.7 358.6 845.1C420.4 835.8 471.5 815.3 498.9 788.9C506 782.1 511.9 774.7 517.6 767.6C529 753.4 540.9 738.7 562.4 727.8C590.8 713.4 635.2 705.9 694.6 705.4C710.7 705.3 727.2 705.6 743.1 705.9C774.3 706.5 806.5 707.1 837.8 704.5C882.9 700.7 926.8 689.3 961.5 672.3C996.2 655.3 1020.2 633.4 1029.1 610.7C1034.3 597.3 1035 583.2 1035.7 569.6C1036.7 549.4 1037.6 528.6 1053.8 510C1074.6 486.2 1131.6 458.7 1229.4 452.9C1294.1 449.1 1360 455 1423.6 460.8C1431.3 461.5 1439.1 462.2 1446.8 462.9C1518 469.2 1594.3 474.4 1668.8 469.5C1750.7 464.1 1820 446.7 1864.1 420.4C1870.6 416.5 1878 409.9 1877.5 403.9C1877.2 400.7 1874.6 398.2 1869.9 396.5L1869.6 397.2C1874 398.8 1876.4 401.1 1876.7 404C1877.2 409.6 1870 416 1863.7 419.7C1819.7 445.9 1750.5 463.3 1668.7 468.7C1594.2 473.6 1518 468.4 1446.8 462.1C1439.1 461.4 1431.4 460.7 1423.6 460C1359.9 454.2 1294.1 448.3 1229.3 452.1C1165 455.9 1085 473 1053.2 509.5C1036.8 528.3 1035.8 549.3 1034.9 569.6C1034.3 583.1 1033.6 597.2 1028.4 610.5C1019.6 633 995.7 654.7 961.2 671.7C926.6 688.6 882.8 700.1 837.7 703.8C806.5 706.4 774.3 705.8 743.1 705.2C727.2 704.9 710.7 704.6 694.6 704.7C635.1 705.1 590.5 712.7 562 727.2C540.3 738.2 528.5 753 517 767.2C511.3 774.3 505.4 781.6 498.4 788.4C441.3 843.6 287.2 866.6 181.3 835.8C142.5 824.5 111.3 807.6 81.2 791.3C68 784.1 54.3 776.7 40.1 769.9L39.8 770.6C53.9 777.4 67.6 784.8 80.8 792C111 808.4 142.3 825.3 181.1 836.6C212.5 845.7 249.5 850.4 287.8 850.4ZM280.3 862.6C307.4 862.6 335.2 860.2 362.5 855.5C424.1 844.7 474.8 823.1 501.5 796.2C508.4 789.2 514.1 781.8 519.7 774.6C530.8 760.2 542.3 745.3 563.6 733.9C591.6 718.9 636 710.3 695.4 708.4C711.5 707.9 728 707.8 743.9 707.7C775.1 707.5 807.4 707.3 838.6 704C883.6 699.1 927.4 686.7 961.7 669C996.1 651.3 1019.6 628.9 1027.9 606.2C1032.8 592.7 1033.2 578.7 1033.5 565.2C1034 545.1 1034.5 524.4 1050.2 505.6C1070.4 481.5 1126.8 452.7 1224.5 444.6C1289.2 439.2 1355.2 443.5 1419.1 447.6C1426.9 448.1 1434.6 448.6 1442.3 449.1C1513.8 453.6 1590.1 456.8 1664.7 450.1C1746.5 442.7 1815.5 423.7 1859 396.5C1865.4 392.5 1872.7 385.7 1872 379.8C1871.6 376.6 1869 374.2 1864.3 372.6L1864.1 373.3C1868.5 374.8 1871 377 1871.3 379.9C1872 385.4 1864.9 391.9 1858.7 395.8C1815.3 422.9 1746.5 441.9 1664.8 449.3C1590.3 456 1513.9 452.8 1442.5 448.3C1434.8 447.8 1427 447.3 1419.3 446.8C1355.4 442.6 1289.4 438.3 1224.6 443.8C1160.4 449.2 1080.7 468.1 1049.7 505.1C1033.8 524.2 1033.3 545 1032.8 565.2C1032.5 578.7 1032.2 592.6 1027.3 605.9C1019 628.5 995.7 650.6 961.5 668.3C927.3 686 883.7 698.4 838.7 703.3C807.5 706.7 775.3 706.9 744.1 707C728.2 707.1 711.7 707.2 695.5 707.7C636 709.6 591.5 718.2 563.3 733.3C541.9 744.8 530.3 759.7 519.2 774.2C513.7 781.4 507.9 788.8 501.1 795.7C445.2 851.9 291.5 878.6 184.8 850.6C145.7 840.3 114.1 824.3 83.5 808.8C70.1 802 56.2 795 41.9 788.5L41.6 789.2C55.9 795.6 69.8 802.7 83.2 809.5C113.8 825 145.5 841.1 184.6 851.3C213.3 858.8 246.1 862.6 280.3 862.6ZM273 875.1C303.6 875.1 335.5 872 366.6 865.8C428.1 853.6 478.3 830.8 504.4 803.4C511.2 796.3 516.7 788.8 522.1 781.5C532.9 766.9 544 751.9 565.1 740C592.8 724.4 637 714.8 696.5 711.4C712.6 710.5 729.1 710 745.1 709.5C776.4 708.5 808.7 707.6 839.9 703.4C884.9 697.4 928.4 684 962.3 665.5C996.3 647 1019.3 624.3 1027.1 601.4C1031.7 587.9 1031.7 574 1031.7 560.5C1031.7 540.6 1031.7 519.9 1047 500.8C1066.7 476.3 1122.5 446.4 1220.1 435.8C1284.8 428.8 1351 431.5 1415 434C1422.8 434.3 1430.5 434.6 1438.3 434.9C1510 437.6 1586.5 438.9 1661 430.4C1742.8 421.1 1811.4 400.4 1854.3 372.3C1860.6 368.2 1867.7 361.2 1866.9 355.4C1866.4 352.2 1863.8 349.9 1859 348.4L1858.8 349.1C1863.3 350.5 1865.8 352.6 1866.2 355.5C1867 361 1860.1 367.6 1854 371.6C1811.2 399.7 1742.7 420.2 1661 429.6C1586.6 438.1 1510 436.8 1438.4 434.1C1430.6 433.8 1422.9 433.5 1415.1 433.2C1351 430.7 1284.8 428 1220 435C1155.8 441.9 1076.5 462.7 1046.4 500.3C1030.9 519.6 1030.9 540.4 1030.9 560.5C1030.9 573.9 1030.9 587.7 1026.3 601.1C1018.6 623.7 995.7 646.3 961.9 664.7C928 683.1 884.7 696.5 839.8 702.5C808.7 706.6 776.4 707.6 745.1 708.6C729.1 709.1 712.7 709.6 696.5 710.5C636.9 713.9 592.6 723.5 564.8 739.2C543.6 751.1 532.4 766.3 521.6 780.9C516.2 788.2 510.7 795.7 504 802.7C449.4 860 296.1 890.3 188.6 865.1C149.2 855.9 117.2 840.7 86.2 826.1C72.6 819.7 58.5 813.1 44 807L43.7 807.7C58.2 813.8 72.2 820.4 85.8 826.8C116.8 841.5 149 856.6 188.4 865.8C213.9 872.1 242.9 875.1 273 875.1ZM265.9 887.8C300 887.8 335.9 883.9 370.7 876.1C432 862.4 481.8 838.5 507.3 810.7C513.9 803.5 519.3 795.9 524.5 788.5C534.9 773.7 545.7 758.5 566.5 746.2C593.9 730 638 719.3 697.5 714.5C713.7 713.2 730.2 712.3 746.1 711.4C777.4 709.7 809.8 707.9 840.9 703C885.8 696 929.1 681.5 962.6 662.3C996.2 643.1 1018.7 619.9 1025.9 597C1030.2 583.5 1029.8 569.6 1029.5 556.2C1029 536.4 1028.5 515.9 1043.4 496.5C1062.5 471.6 1117.7 440.5 1215.3 427.6C1279.9 419.1 1346.4 420 1410.6 421C1418.4 421.1 1426.2 421.2 1434 421.3C1505.9 422.2 1582.7 421.6 1657.1 411.3C1738.8 400 1807.1 377.8 1849.4 348.7C1855.6 344.4 1862.6 337.4 1861.6 331.6C1861.1 328.5 1858.4 326.2 1853.5 324.8L1853.3 325.5C1857.8 326.8 1860.4 328.8 1860.9 331.6C1861.8 337 1855.1 343.8 1849 348C1806.8 377 1738.6 399.1 1657.1 410.4C1582.7 420.7 1506 421.3 1434.1 420.4C1426.3 420.3 1418.5 420.2 1410.7 420.1C1346.4 419.2 1280 418.2 1215.3 426.8C1151.1 435.3 1072.2 457.9 1042.9 496C1027.8 515.6 1028.3 536.3 1028.8 556.2C1029.1 569.5 1029.5 583.3 1025.2 596.7C1018 619.4 995.6 642.4 962.2 661.6C928.7 680.8 885.6 695.2 840.7 702.2C809.6 707.1 777.2 708.9 746 710.6C730 711.5 713.5 712.4 697.3 713.7C637.7 718.5 593.5 729.2 566 745.5C545.1 757.9 534.2 773.2 523.7 788C518.5 795.4 513.1 803 506.5 810.1C453.2 868.4 300.3 902.4 191.9 880C152.2 871.8 119.7 857.6 88.3 843.8C74.5 837.8 60.3 831.5 45.6 825.9L45.3 826.6C60 832.3 74.2 838.5 88 844.5C119.5 858.3 152 872.6 191.8 880.8C214.6 885.5 239.7 887.8 265.9 887.8ZM259 900.9C296.4 900.9 336.3 896 374.8 886.5C435.9 871.3 485.3 846.4 510.2 818C516.6 810.7 521.9 802.9 526.9 795.5C537 780.6 547.5 765.1 568 752.3C595.1 735.5 639 723.8 698.6 717.5C714.8 715.8 731.3 714.5 747.3 713.2C778.7 710.7 811.1 708.1 842.2 702.5C887.1 694.4 930.1 678.9 963.3 659C996.5 639 1018.5 615.4 1025.2 592.4C1029.2 578.8 1028.5 565.1 1027.8 551.8C1026.8 532.1 1025.8 511.7 1040.3 492C1058.9 466.8 1113.4 434.4 1211 419.1C1275.6 409 1342.2 408.3 1406.7 407.6C1414.5 407.5 1422.3 407.4 1430.1 407.3C1502.2 406.4 1579.2 403.9 1653.5 391.8C1735.1 378.5 1803.1 354.7 1844.8 324.7C1850.9 320.3 1857.7 313.1 1856.6 307.4C1856 304.3 1853.2 302.1 1848.3 300.9L1848.1 301.6C1852.7 302.7 1855.3 304.7 1855.8 307.5C1856.8 312.9 1850.2 319.8 1844.3 324.1C1802.7 354 1734.9 377.7 1653.4 391C1579.1 403.1 1502.1 405.6 1430.1 406.5C1422.3 406.6 1414.5 406.7 1406.7 406.8C1342.2 407.5 1275.6 408.2 1210.9 418.3C1146.8 428.3 1068.1 452.8 1039.7 491.5C1025.1 511.4 1026.1 531.9 1027.1 551.8C1027.8 565 1028.4 578.7 1024.5 592.2C1017.8 615 996 638.4 962.9 658.3C929.8 678.2 886.9 693.6 842.1 701.7C811 707.3 778.6 709.9 747.3 712.4C731.3 713.7 714.8 715 698.6 716.7C638.9 723 594.9 734.8 567.7 751.6C547 764.5 536.5 780 526.3 795C521.3 802.4 516 810.1 509.6 817.5C467 866.1 357 900.1 258.6 900.1C236.8 900.1 215.7 898.4 195.9 894.9C155.9 887.7 123 874.4 91.1 861.5C77.1 855.8 62.7 850 47.8 844.7L47.5 845.4C62.3 850.7 76.8 856.5 90.7 862.2C122.6 875.1 155.6 888.5 195.6 895.7C215.3 899.2 236.7 900.9 259 900.9ZM252.4 914.2C292.9 914.2 336.9 908.3 378.8 896.8C439.8 880.2 488.7 854.1 512.9 825.2C519.2 817.7 524.2 809.9 529.1 802.4C538.9 787.3 549 771.6 569.3 758.4C596.1 741 639.8 728.2 699.4 720.5C715.6 718.4 732.1 716.7 748.2 715C779.6 711.7 812.1 708.3 843.1 702C887.9 692.8 930.7 676.3 963.5 655.6C996.3 634.9 1017.8 610.8 1024 587.8C1027.7 574.2 1026.6 560.5 1025.7 547.3C1024.2 527.7 1022.7 507.4 1036.8 487.5C1054.8 462 1108.8 428.4 1206.3 410.7C1270.9 399 1337.7 396.6 1402.3 394.4C1410.1 394.1 1418 393.8 1425.8 393.6C1498.1 390.9 1575.3 386.5 1649.6 372.5C1731.2 357.2 1798.8 331.8 1839.8 301C1845.9 296.5 1852.5 289.1 1851.2 283.5C1850.5 280.4 1847.7 278.3 1842.7 277.2L1842.5 277.9C1847.1 278.9 1849.8 280.8 1850.4 283.6C1851.4 288 1847 294.6 1839.3 300.4C1798.3 331.2 1730.8 356.5 1649.4 371.8C1575.1 385.7 1498 390.1 1425.7 392.8C1417.9 393.1 1410 393.4 1402.2 393.6C1337.5 395.9 1270.7 398.2 1206.1 409.9C1142 421.5 1063.7 447.9 1036.1 487C1021.9 507.2 1023.4 527.6 1024.9 547.3C1025.9 560.5 1026.9 574.1 1023.3 587.6C1017.2 610.4 995.8 634.3 963.1 655C930.4 675.6 887.7 692.1 843 701.3C812 707.7 779.5 711.1 748.2 714.3C732.2 716 715.6 717.7 699.4 719.8C639.7 727.6 595.8 740.4 568.9 757.8C548.5 771.1 538.3 786.8 528.5 802C523.6 809.5 518.6 817.3 512.3 824.8C461.5 885.2 309.5 926.4 199.5 909.7C159.2 903.6 125.9 891.1 93.6 879C79.5 873.7 64.8 868.2 49.8 863.4L49.6 864.1C64.6 869 79.2 874.4 93.4 879.7C125.7 891.8 159.1 904.3 199.5 910.4C216 913 233.8 914.2 252.4 914.2ZM246.1 927.8C289.6 927.8 337.4 920.7 382.8 907.2C443.6 889.1 492 861.9 515.7 832.5C521.8 824.9 526.7 817 531.4 809.3C540.9 794 550.6 778.2 570.7 764.5C597.1 746.5 640.8 732.7 700.4 723.5C716.6 721 733.2 718.9 749.2 716.8C780.6 712.8 813.1 708.6 844.2 701.4C889 691.1 931.5 673.6 963.9 652.2C996.4 630.7 1017.4 606.2 1023 583.1C1026.3 569.4 1025 555.8 1023.7 542.7C1021.8 523.2 1019.8 503.1 1033.4 482.9C1050.8 457 1104.2 422.2 1201.7 402.2C1266.2 388.9 1333.2 384.9 1398.1 381C1406 380.5 1413.8 380.1 1421.7 379.6C1494.2 375.1 1571.6 368.8 1645.8 353C1727.3 335.7 1794.5 308.7 1835 277C1841 272.3 1847.4 264.9 1846.1 259.3C1845.4 256.2 1842.4 254.2 1837.4 253.2L1837.3 254C1842 254.9 1844.7 256.8 1845.4 259.5C1846.4 263.8 1842.2 270.5 1834.6 276.4C1794.2 308.1 1727.1 335 1645.7 352.3C1571.5 368 1494.2 374.4 1421.7 378.9C1413.8 379.4 1406 379.9 1398.1 380.3C1333.3 384.2 1266.2 388.2 1201.6 401.5C1137.6 414.7 1059.6 442.9 1032.8 482.6C1019 503 1021 523.3 1023 542.9C1024.3 556 1025.6 569.5 1022.3 583C1016.7 605.9 995.8 630.3 963.5 651.6C931.2 673 888.7 690.4 844 700.7C813 707.8 780.5 712 749.1 716.1C733.1 718.2 716.5 720.3 700.3 722.8C640.5 732 596.8 745.9 570.3 764C550.1 777.8 540.3 793.7 530.8 809.1C526.1 816.7 521.2 824.6 515.1 832.2C465.6 893.6 314 938.5 203.1 924.6C162.5 919.5 128.7 907.9 96 896.7C81.7 891.8 66.9 886.7 51.7 882.2L51.5 882.9C66.7 887.4 81.5 892.4 95.8 897.4C128.5 908.6 162.4 920.2 203 925.3C216.7 927 231.1 927.8 246.1 927.8ZM240.2 941.6C286.4 941.6 338.2 933.2 386.8 917.5C447.4 897.9 495.4 869.6 518.5 839.8C524.5 832.1 529.2 824.1 533.7 816.3C542.8 800.8 552.3 784.8 572.1 770.6C598.2 752 641.7 737.1 701.4 726.4C717.6 723.5 734.2 721 750.3 718.5C781.8 713.7 814.3 708.7 845.3 700.8C890 689.4 932.3 670.9 964.4 648.8C996.5 626.6 1017 601.6 1022.1 578.5C1025.1 564.8 1023.4 551.3 1021.8 538.2C1019.4 518.8 1016.9 498.8 1030.1 478.3C1047 452 1099.8 416 1197.2 393.6C1261.7 378.8 1328.9 373.1 1393.9 367.6C1401.8 366.9 1409.7 366.3 1417.6 365.6C1490.3 359.3 1567.9 351 1642.1 333.5C1723.6 314.2 1790.4 285.7 1830.3 253C1836.2 248.2 1842.5 240.6 1841 235.1C1840.2 232 1837.2 230.1 1832.1 229.2L1832 230C1836.7 230.8 1839.5 232.6 1840.2 235.3C1841.4 239.6 1837.3 246.3 1829.8 252.4C1790 285 1723.2 313.5 1641.9 332.7C1567.7 350.2 1490.2 358.5 1417.5 364.8C1409.6 365.5 1401.7 366.2 1393.8 366.8C1328.8 372.3 1261.5 378 1197 392.8C1133 407.5 1055.4 437.6 1029.5 477.8C1016.2 498.5 1018.7 518.7 1021.1 538.2C1022.7 551.2 1024.4 564.7 1021.4 578.2C1016.3 601.2 996 626 964 648C932 670.1 889.8 688.6 845.2 699.9C814.3 707.8 781.7 712.8 750.3 717.6C734.2 720.1 717.6 722.6 701.4 725.5C641.6 736.2 598 751.1 571.8 769.8C551.8 784 542.4 800.1 533.2 815.7C528.7 823.4 523.9 831.4 518 839.1C474.4 895.5 346.8 940.6 240.1 940.6C228.7 940.6 217.6 940.1 206.8 939C165.9 934.9 131.7 924.2 98.6 913.9C84.1 909.4 69.1 904.7 53.7 900.6L53.5 901.3C68.9 905.4 83.9 910.1 98.4 914.6C131.5 925 165.8 935.7 206.8 939.8C217.5 941.1 228.7 941.6 240.2 941.6ZM234.8 955.7C283.6 955.7 339.1 945.9 390.9 927.9C451.4 906.9 498.9 877.4 521.4 847.1C527.2 839.3 531.8 831.1 536.1 823.3C544.9 807.6 554 791.4 573.6 776.8C599.4 757.6 642.8 741.7 702.5 729.5C718.7 726.2 735.3 723.3 751.4 720.4C782.9 714.8 815.5 709 846.5 700.4C891.2 687.9 933.2 668.4 964.9 645.5C996.6 622.6 1016.6 597.2 1021.2 573.9C1023.9 560.2 1021.9 546.7 1019.9 533.7C1017 514.4 1014 494.5 1026.8 473.8C1043.1 447.2 1095.3 409.9 1192.7 385.2C1257.2 368.8 1324.6 361.4 1389.8 354.3C1397.7 353.4 1405.6 352.6 1413.5 351.7C1486.4 343.6 1564.2 333.4 1638.3 314.1C1719.7 292.9 1786.2 262.7 1825.5 229.1C1831.3 224.2 1837.4 216.5 1835.8 211C1834.9 208 1831.9 206.1 1826.7 205.4L1826.6 206.2C1831.4 206.9 1834.2 208.6 1835 211.3C1836.2 215.6 1832.3 222.4 1824.9 228.6C1785.7 262.1 1719.3 292.2 1638 313.4C1563.9 332.7 1486.2 342.9 1413.3 351C1405.4 351.9 1397.5 352.7 1389.6 353.6C1324.4 360.7 1256.9 368.1 1192.4 384.5C1128.4 400.8 1051.1 432.7 1026.1 473.5C1013.2 494.5 1016.2 514.5 1019.1 533.9C1021 546.8 1023.1 560.2 1020.4 573.8C1015.9 596.8 996 622.1 964.4 644.9C932.8 667.8 890.8 687.2 846.2 699.7C815.3 708.3 782.7 714.1 751.2 719.7C735.1 722.6 718.5 725.5 702.3 728.8C642.5 741 599 756.9 573.1 776.2C553.4 790.9 544.3 807.2 535.4 822.9C531 830.7 526.5 838.8 520.7 846.6C473.7 910.1 323 962.3 210.4 954C169.2 951 134.5 941.2 101 931.7C86.3 927.5 71.1 923.2 55.6 919.5L55.4 920.2C70.9 923.9 86.1 928.2 100.8 932.3C134.4 941.8 169.1 951.6 210.3 954.7C218.3 955.4 226.4 955.7 234.8 955.7ZM229.7 970C280.9 970 340.1 958.7 394.9 938.3C455.2 915.8 502.3 885.2 524.1 854.4C529.8 846.4 534.1 838.2 538.4 830.3C546.9 814.4 555.6 798 575 783C600.5 763.2 643.7 746.2 703.5 732.6C719.7 728.9 736.4 725.5 752.5 722.3C784.1 715.9 816.7 709.3 847.6 700C892.2 686.4 934 665.9 965.3 642.3C996.6 618.6 1016.1 592.8 1020.2 569.5C1022.6 555.7 1020.2 542.4 1017.9 529.5C1014.5 510.4 1011 490.6 1023.3 469.5C1039.1 442.6 1090.6 404.1 1187.9 376.9C1252.3 358.9 1320 349.9 1385.4 341.2C1393.3 340.1 1401.3 339.1 1409.2 338C1482.4 328.1 1560.3 316 1634.4 294.9C1715.8 271.7 1781.9 239.9 1820.6 205.4C1826.3 200.4 1832.3 192.5 1830.5 187.1C1829.5 184.1 1826.4 182.3 1821.3 181.7L1821.2 182.5C1826 183 1828.9 184.7 1829.8 187.4C1831.1 191.6 1827.3 198.5 1820.1 204.9C1781.4 239.3 1715.4 271 1634.2 294.2C1560.1 315.3 1482.3 327.4 1409.1 337.3C1401.2 338.4 1393.3 339.4 1385.3 340.5C1319.9 349.2 1252.2 358.2 1187.7 376.2C1123.8 394 1046.8 427.8 1022.6 469.1C1010.1 490.4 1013.7 510.3 1017.1 529.6C1019.4 542.5 1021.7 555.7 1019.4 569.4C1015.4 592.5 996 618.2 964.8 641.7C933.6 665.3 891.8 685.7 847.3 699.3C816.4 708.7 783.8 715.3 752.3 721.6C736.2 724.8 719.5 728.2 703.3 731.9C643.4 745.5 600.1 762.5 574.5 782.4C555 797.6 546.2 814 537.7 830C533.5 837.9 529.1 846.1 523.5 854C479.9 915.6 340.8 969.3 229.7 969.3C224.4 969.3 219.3 969.2 214.1 968.9C172.6 966.9 137.5 958 103.6 949.3C88.7 945.5 73.3 941.6 57.6 938.3L57.4 939C73.1 942.3 88.5 946.2 103.4 950C137.4 958.7 172.5 967.6 214.1 969.6C219.2 969.9 224.4 970 229.7 970ZM225.1 984.5C278.5 984.5 341.4 971.6 399 948.6C459.1 924.7 505.8 893 527 861.6C532.5 853.5 536.7 845.2 540.8 837.2C548.9 821.2 557.3 804.6 576.4 789C601.6 768.6 644.6 750.6 704.4 735.5C720.6 731.4 737.3 727.6 753.4 724C785 716.9 817.7 709.5 848.6 699.3C893.2 684.6 934.8 663.1 965.7 638.8C996.7 614.4 1015.6 588.1 1019.1 564.8C1021.2 551 1018.5 537.7 1015.9 524.9C1012 505.9 1008 486.2 1019.9 464.9C1035.1 437.6 1086.1 397.9 1183.3 368.4C1247.7 348.9 1315.5 338.2 1381.1 327.8C1389.1 326.5 1397 325.3 1405 324C1478.4 312.3 1556.5 298.3 1630.5 275.3C1711.8 250.1 1777.6 216.7 1815.7 181.4C1821.3 176.2 1827.1 168.3 1825.3 162.9C1824.3 159.9 1821.1 158.1 1815.9 157.7L1815.8 158.5C1820.7 158.9 1823.7 160.5 1824.6 163.2C1826 167.4 1822.4 174.3 1815.2 180.9C1777.1 216.2 1711.5 249.5 1630.3 274.7C1556.3 297.6 1478.2 311.6 1404.9 323.3C1397 324.6 1389 325.8 1381 327.1C1315.4 337.4 1247.5 348.1 1183.1 367.7C1119.2 387.1 1042.6 422.7 1019.2 464.6C1007.2 486.1 1011.2 506 1015.1 525.1C1017.7 537.9 1020.4 551.1 1018.3 564.8C1014.8 587.9 996 614.1 965.1 638.4C934.3 662.7 892.8 684.2 848.3 698.8C817.5 708.9 784.8 716.3 753.2 723.5C737.1 727.1 720.4 730.9 704.2 735C644.3 750.1 601.1 768.1 575.9 788.6C556.7 804.2 548.2 820.9 540.1 837C536 845 531.9 853.3 526.4 861.3C482.9 925.5 338.3 983.8 225.1 983.8C222.6 983.8 220.2 983.8 217.8 983.7C176 982.7 140.5 974.7 106.1 966.9C91 963.5 75.5 960 59.6 957.1L59.5 957.9C75.4 960.8 91 964.3 106 967.7C140.4 975.5 176 983.6 217.8 984.5C220.2 984.5 222.6 984.5 225.1 984.5ZM220.8 999.2H221.5C276.8 999.1 342.9 984.4 403.1 959C463 933.6 509.3 900.8 529.9 868.9C535.2 860.7 539.3 852.3 543.2 844.2C551 828 559.1 811.2 577.9 795.2C602.7 774.2 645.7 755.1 705.5 738.6C721.8 734.1 738.4 729.9 754.6 725.9C786.2 718 819 709.8 849.8 698.9C894.3 683.2 935.7 660.7 966.2 635.5C996.8 610.3 1015.3 583.6 1018.2 560.2C1020 546.3 1016.9 533.2 1014 520.4C1009.7 501.5 1005.2 481.9 1016.6 460.4C1031.3 432.8 1081.6 391.8 1178.8 359.9C1243.2 338.8 1311.2 326.4 1377 314.5C1385 313 1393 311.6 1400.9 310.1C1474.5 296.6 1552.8 280.7 1626.8 255.9C1708 228.7 1773.5 193.8 1811 157.5C1816.5 152.2 1822.2 144.1 1820.2 138.8C1819.1 135.8 1815.9 134.1 1810.6 133.8V134.6C1815.5 134.9 1818.6 136.4 1819.6 139.1C1821.1 143.2 1817.6 150.3 1810.6 157C1773.1 193.2 1707.8 228.1 1626.7 255.3C1552.7 280.1 1474.5 296 1400.9 309.5C1392.9 311 1385 312.4 1377 313.9C1311.2 325.8 1243.1 338.2 1178.7 359.3C1114.8 380.3 1038.6 417.8 1016 460.1C1004.4 481.9 1008.9 501.6 1013.3 520.7C1016.2 533.4 1019.2 546.5 1017.5 560.2C1014.6 583.4 996.2 610 965.8 635C935.3 660.1 894.1 682.5 849.6 698.2C818.8 709.1 786.1 717.3 754.5 725.2C738.4 729.2 721.7 733.4 705.4 737.9C645.4 754.5 602.4 773.5 577.5 794.7C558.5 810.8 550.4 827.6 542.6 843.9C538.7 852 534.7 860.4 529.4 868.6C486 935.1 336.5 998.2 221.5 998.4H220.8C179 998.4 143.2 991.3 108.7 984.4C93.5 981.4 77.7 978.2 61.6 975.7L61.5 976.5C77.6 979 93.3 982.1 108.6 985.2C143.1 992.1 178.9 999.2 220.8 999.2Z" fill="#E7ECF7"/>
</svg>
