<svg width="80" height="80" viewBox="0 0 80 80" fill="none" xmlns="http://www.w3.org/2000/svg">
<path d="M50.4686 80.0012H6.40743C6.36773 79.9694 6.33258 79.9196 6.2877 79.9082C1.9604 78.8118 0.00143847 76.3064 0.00141759 71.8637C0.00135497 54.1512 0.00131323 36.4387 0.00173069 18.7262C0.00173069 18.1792 -0.00609672 17.6318 0.011541 17.0854C0.124423 13.5892 2.77209 10.5836 6.24963 10.1366C7.58399 9.96504 8.94965 10.0258 10.3014 10.0046C11.4918 9.98602 12.6827 10.0007 13.873 10.0007C13.9343 10.3423 13.9866 10.5966 14.025 10.8531C14.7893 15.9618 18.9601 19.6376 24.1575 19.699C28.0888 19.7455 32.0228 19.7725 35.9527 19.6828C39.9293 19.592 42.9125 17.6814 44.7749 14.1967C45.4451 12.9427 45.7354 11.4854 46.2399 10.0007C47.7798 10.0007 49.4937 9.97633 51.2065 10.01C52.2171 10.0298 53.2553 10.0131 54.2304 10.2353C57.7597 11.0394 59.9053 13.9434 59.9096 17.8194C59.9186 25.9984 59.9054 34.1774 59.9265 42.3563C59.9281 42.9798 59.7803 43.2562 59.1343 43.3957C55.8976 44.0947 53.0186 45.5501 50.4627 47.6516C50.2911 47.7927 50.1084 47.9202 49.8987 48.0781C49.7577 45.8443 49.0116 45.1596 46.7955 45.1595C43.7228 45.1594 40.6502 45.1595 37.5775 45.1595C29.323 45.1595 21.0684 45.1492 12.814 45.1804C12.1971 45.1828 11.5077 45.3587 10.9819 45.672C10.1255 46.1823 9.86147 47.3332 10.1962 48.3169C10.5239 49.2803 11.3779 49.845 12.5818 49.8454C24.2214 49.8489 35.8611 49.8463 47.5008 49.8474C47.6856 49.8474 47.8704 49.8727 47.9299 49.877C46.9706 51.4056 45.9738 52.8968 45.0911 54.4527C44.7768 55.0067 44.485 55.2177 43.8509 55.2165C33.5653 55.1965 23.2797 55.2011 12.994 55.2069C12.5805 55.2071 12.1543 55.2219 11.756 55.3196C10.7523 55.5659 10.0242 56.5516 10.0346 57.5723C10.0451 58.5969 10.7887 59.5781 11.7883 59.8052C12.1884 59.8961 12.6159 59.8879 13.031 59.888C22.7437 59.8921 32.4565 59.8907 42.1692 59.8934C42.491 59.8935 42.8128 59.9255 43.1808 59.9451C43.144 60.3017 43.1229 60.5579 43.0905 60.8128C42.2605 67.3484 44.0486 73.0663 48.4599 77.9559C49.0995 78.6647 49.7976 79.3207 50.4686 80.0012ZM29.994 35.1326C24.3445 35.1326 18.6949 35.1326 13.0454 35.1328C12.8111 35.1328 12.5765 35.1271 12.3426 35.1373C10.7751 35.2059 9.78403 36.519 10.1431 38.0472C10.4175 39.2153 11.3196 39.8202 12.8168 39.8204C24.246 39.8222 35.6752 39.8215 47.1045 39.8211C47.2867 39.8211 47.4705 39.8309 47.6508 39.811C48.444 39.7235 49.0973 39.385 49.5147 38.6847C49.9783 37.9068 50.0008 37.103 49.5491 36.3125C49.0801 35.4918 48.3471 35.1308 47.4112 35.1313C41.6055 35.1344 35.7998 35.1329 29.994 35.1326ZM29.9945 25.0898C25.2567 25.0898 20.5188 25.0885 15.7809 25.0906C14.5836 25.0912 13.3837 25.0551 12.1897 25.1213C10.7636 25.2005 9.85579 26.4403 10.112 27.8478C10.3484 29.1466 11.245 29.7769 12.8932 29.7772C24.2693 29.7796 35.6454 29.779 47.0215 29.7757C47.3323 29.7756 47.6486 29.763 47.9527 29.7053C49.16 29.4763 49.9403 28.4462 49.8529 27.2259C49.7605 25.9335 48.7546 25.0937 47.254 25.0922C41.5008 25.0865 35.7477 25.0899 29.9945 25.0898ZM18.6757 65.2705C16.6994 65.2705 14.7231 65.2636 12.7468 65.2766C12.3617 65.2791 11.9584 65.3 11.5957 65.4146C10.5344 65.7499 9.92453 66.8109 10.0945 67.9329C10.2884 69.2126 11.1749 69.9475 12.6381 69.9533C16.6686 69.9692 20.6993 69.9698 24.7299 69.953C26.2395 69.9467 27.2998 68.9286 27.2839 67.5776C27.268 66.2173 26.2191 65.2789 24.6826 65.2726C22.6803 65.2644 20.678 65.2706 18.6757 65.2705Z" fill="#2155FF"/>
<path d="M80.0014 64.9941C79.7903 66.0312 79.624 67.0798 79.3611 68.1036C77.6159 74.9001 71.6718 79.641 64.6508 79.8471C58.9551 80.0143 54.0599 78.1783 50.7356 73.4406C43.3491 62.9133 49.605 49.519 61.4989 47.6901C70.2638 46.3424 78.7708 52.7919 79.8514 61.5847C79.8762 61.7865 79.9503 61.9822 80.0013 62.1808L80.0014 64.9941ZM62.1329 63.7248C61.6178 63.1863 61.1715 62.6845 60.688 62.2215C59.5924 61.1724 58.2718 61.1369 57.2899 62.1057C56.2879 63.0944 56.3224 64.4535 57.4018 65.5608C58.3273 66.5102 59.2726 67.4405 60.2124 68.3759C61.5118 69.669 62.7848 69.6825 64.0716 68.4039C65.6763 66.8096 67.2726 65.2069 68.8695 63.6048C69.4016 63.071 69.9607 62.5585 70.4434 61.9825C71.2398 61.032 71.1506 59.742 70.2868 58.8757C69.4153 58.0016 68.1538 57.9252 67.1795 58.7038C66.9167 58.9138 66.6855 59.1644 66.4467 59.4032C65.035 60.8152 63.6253 62.2293 62.1329 63.7248Z" fill="#2155FF"/>
<path d="M29.8936 14.9969C27.9171 14.9969 25.9373 15.0678 23.965 14.9776C21.8461 14.8807 20.1594 13.9288 19.2225 11.9531C18.2668 9.93744 18.4341 7.95185 19.6841 6.10584C20.6319 4.70626 22.0152 3.97357 23.6885 3.86255C24.3514 3.81856 24.7059 3.60828 25.0215 2.976C26.0035 1.00818 27.7047 0.0337417 29.8723 0.000861745C32.0731 -0.0325192 33.8345 0.903421 34.8465 2.89116C35.2151 3.61533 35.6441 3.81188 36.3691 3.87758C38.6703 4.08613 40.4723 5.63498 41.0701 7.83302C41.6928 10.1231 40.9447 12.5083 39.1618 13.8619C38.1325 14.6434 36.9485 15.0008 35.6677 15.0118C33.7431 15.0284 31.8183 15.0161 29.8936 15.0161C29.8936 15.0097 29.8936 15.0033 29.8936 14.9969Z" fill="#2155FF"/>
</svg>
