<svg width="80" height="80" viewBox="0 0 80 80" fill="none" xmlns="http://www.w3.org/2000/svg">
<g clip-path="url(#clip0_1148_1891)">
<path d="M80.0037 40.9282C79.6917 41.4673 79.4126 42.029 79.0623 42.5419C76.5201 46.265 73.9658 49.9798 71.4104 53.6939C70.1158 55.5756 68.3563 55.5854 67.0703 53.7159C64.4266 49.8728 61.795 46.0214 59.1465 42.1817C58.548 41.314 58.2093 40.426 58.7371 39.4123C59.2783 38.3726 60.2201 38.1075 61.3021 38.1299C61.8417 38.1412 62.3818 38.1319 62.9295 38.1319C62.04 28.8627 55.3977 20.8782 46.4858 18.2643C37.2835 15.5653 25.7051 18.7947 19.8285 29.0791C19.1751 28.1271 18.5485 27.2109 17.9185 26.2971C17.4008 25.5462 16.9017 24.7812 16.3548 24.0522C14.9882 22.2304 13.1579 21.2781 10.8794 21.2017C10.7324 21.1968 10.5856 21.1845 10.4141 21.1741C16.2132 11.712 28.4366 3.96028 43.1777 5.11417C57.6713 6.24869 73.9806 18.4226 75.372 38.1208C77.0825 38.2018 79.055 37.6788 80.0037 39.8324V40.9282Z" fill="#2155FF"/>
<path d="M4.69174 42.7832C3.90027 42.7832 3.2254 42.7908 2.55075 42.7814C1.57556 42.768 0.763364 42.4317 0.280933 41.5305C-0.204374 40.6239 -0.0224867 39.7655 0.532609 38.956C3.27386 34.9585 6.00636 30.9549 8.76579 26.97C9.82974 25.4336 11.6776 25.4106 12.737 26.9358C15.5169 30.9381 18.2613 34.9652 21.0159 38.9852C21.5534 39.7698 21.7213 40.6074 21.2688 41.4918C20.8023 42.4038 19.9997 42.7578 19.0231 42.7801C18.3784 42.7948 17.7331 42.7829 17.0827 42.7829C17.7429 51.7833 24.566 60.0218 33.5029 62.6427C42.9245 65.4057 54.297 62.0061 60.1568 51.8395C60.6206 52.5058 61.0629 53.136 61.4999 53.7699C62.1655 54.7354 62.8121 55.7144 63.4942 56.668C64.8883 58.6171 66.7786 59.6556 69.1861 59.7154C69.3096 59.7185 69.4329 59.7317 69.5744 59.7414C64.0166 68.9065 51.8752 77.0903 36.9142 75.7665C28.2559 75.0004 20.832 71.4876 14.7524 65.2612C8.68009 59.0421 5.36684 51.5315 4.69174 42.7832Z" fill="#2155FF"/>
<path d="M37.6109 51.5643C36.3374 51.3386 35.1522 50.8562 34.194 49.9076C33.0222 48.7477 32.4426 47.3375 32.4404 45.6999C32.4388 44.5196 33.3574 43.5532 34.5172 43.4453C35.7026 43.335 36.7659 44.1529 37.0004 45.3552C37.2846 46.8125 37.4534 46.9515 38.9553 46.9535C39.8146 46.9546 40.6746 46.9727 41.5331 46.9457C42.5318 46.9143 42.94 46.4811 42.9695 45.4914C43.0462 42.9193 42.9167 42.8044 40.3685 42.776C39.2013 42.763 38.0014 42.8087 36.8754 42.5598C34.3372 41.9988 32.6943 39.9766 32.4762 37.336C32.3139 35.3703 32.2925 33.4175 33.575 31.7252C34.4774 30.5344 35.6385 29.7645 37.1119 29.4792C37.2865 29.4454 37.4545 29.3769 37.6139 29.328C37.9429 26.64 38.5348 25.7984 40.0545 25.8331C41.5523 25.8672 42.1726 26.7854 42.3661 29.272C43.0591 29.5184 43.8064 29.6813 44.4515 30.0327C46.4074 31.0982 47.4524 32.7799 47.5582 35.0224C47.6177 36.2843 46.7384 37.3345 45.523 37.4683C44.31 37.6017 43.219 36.7615 42.9957 35.5218C42.7499 34.1573 42.5306 33.9682 41.1631 33.9633C40.2517 33.96 39.3395 33.9414 38.4292 33.9724C37.4796 34.0047 37.0533 34.4463 37.0354 35.3863C36.9894 37.8087 36.9502 38.2168 39.6732 38.1464C40.8123 38.1169 41.986 38.1075 43.0909 38.3412C45.6068 38.8733 47.3069 40.9408 47.5241 43.5415C47.6977 45.6202 47.6985 47.6725 46.2627 49.4105C45.4216 50.4285 44.3726 51.1509 43.0782 51.3845C42.4329 51.501 42.2799 51.757 42.307 52.3528C42.3267 52.785 42.2624 53.2466 42.1209 53.6553C41.8108 54.5511 40.8758 55.1188 39.9087 55.0808C38.8968 55.0411 38.0391 54.3976 37.8093 53.4042C37.6761 52.8285 37.6769 52.2216 37.6109 51.5643Z" fill="#2155FF"/>
</g>
<defs>
<clipPath id="clip0_1148_1891">
<rect width="80" height="70.9091" fill="white" transform="translate(0 5)"/>
</clipPath>
</defs>
</svg>
