<svg width="80" height="80" viewBox="0 0 80 80" fill="none" xmlns="http://www.w3.org/2000/svg">
<g clip-path="url(#clip0_1148_1873)">
<path d="M39.5081 0.000221031C51.4081 0.000221031 63.3081 -0.000239469 75.2081 0.000586255C77.6342 0.000760928 78.7885 1.15571 78.789 3.58963C78.7908 12.4255 78.7908 21.2613 78.7889 30.0971C78.7884 32.5123 77.6119 33.7018 75.2057 33.7031C66.9492 33.7076 58.6926 33.7211 50.4362 33.6888C49.0882 33.6836 48.0866 34.1423 47.2324 35.1928C45.5149 37.3052 43.7331 39.3642 41.97 41.4384C40.4591 43.2159 38.494 43.2189 36.9891 41.4477C35.2456 39.3956 33.4741 37.3663 31.7861 35.2682C30.8697 34.1291 29.7926 33.6778 28.3489 33.685C20.1219 33.7261 11.8947 33.7076 3.66752 33.7026C1.75892 33.7015 0.539839 32.805 0.221161 31.1801C0.158928 30.8628 0.159288 30.5296 0.159179 30.2037C0.15609 21.3084 0.155212 12.413 0.157673 3.51771C0.158332 1.1966 1.34042 0.00130082 3.63178 0.000983238C15.5906 -0.000636452 27.5493 0.00023691 39.5081 0.000221031ZM12.8968 13.7443C12.427 13.7443 11.9276 13.6424 11.4954 13.7713C11.0089 13.9163 10.3598 14.1715 10.1937 14.5596C10.0289 14.9445 10.2408 15.6598 10.5297 16.0432C11.0762 16.7687 11.7726 17.3869 12.451 17.9995C13.0781 18.566 13.2212 19.1994 12.9989 20.0017C12.6587 21.23 12.384 22.4768 12.0588 23.7096C11.8895 24.3517 11.8444 24.9537 12.4132 25.4182C13.026 25.9186 13.6113 25.6808 14.2023 25.3311C15.2655 24.7018 16.3526 24.1134 17.4085 23.4722C18.0339 23.0925 18.6054 23.1038 19.2244 23.4744C20.3097 24.1243 21.4185 24.7339 22.5066 25.3792C23.049 25.7008 23.5881 25.8799 24.1469 25.4666C24.7329 25.0332 24.7492 24.4357 24.5817 23.7827C24.2427 22.4614 23.9373 21.1311 23.5877 19.8127C23.4082 19.136 23.5563 18.6013 24.0583 18.1235C24.7213 17.4926 25.3533 16.8285 26.0057 16.186C26.4531 15.7454 26.7656 15.2554 26.5152 14.6031C26.2552 13.926 25.7116 13.7214 25.0298 13.7386C24.1789 13.7602 23.3262 13.7197 22.4759 13.7506C21.6995 13.7787 21.2054 13.4602 20.9115 12.7271C20.4708 11.6274 20.047 10.5121 19.4884 9.47384C19.2741 9.07563 18.708 8.64049 18.3044 8.64271C17.9007 8.64494 17.381 9.09346 17.1252 9.48797C16.7288 10.0992 16.4376 10.8085 16.236 11.5155C15.7407 13.2516 14.8098 14.2281 12.8968 13.7443ZM55.2681 13.7437C54.8571 13.7437 54.4453 13.76 54.0352 13.7401C53.339 13.7063 52.7339 13.849 52.4429 14.5736C52.146 15.3126 52.5554 15.8131 53.0443 16.2869C53.6381 16.8624 54.1953 17.4782 54.8077 18.0319C55.4083 18.5749 55.5395 19.1917 55.3333 19.9571C55.0017 21.1881 54.7274 22.4348 54.3981 23.6665C54.2178 24.3409 54.159 24.9695 54.774 25.4457C55.4003 25.9305 55.9835 25.6533 56.5673 25.3096C57.6066 24.6977 58.6716 24.1294 59.6976 23.4958C60.3528 23.0912 60.9398 23.1029 61.5887 23.4971C62.6447 24.1386 63.7315 24.7277 64.7944 25.3578C65.3615 25.694 65.9229 25.8998 66.5078 25.4392C67.0827 24.9864 67.0637 24.3877 66.8965 23.7402C66.5554 22.4195 66.1685 21.104 65.9505 19.7613C65.8696 19.2633 66.0761 18.5919 66.3864 18.1818C66.9524 17.4338 67.6911 16.8191 68.3626 16.1539C68.8125 15.7082 69.0955 15.209 68.825 14.5626C68.5616 13.9333 68.0495 13.7264 67.4012 13.7395C66.5208 13.7573 65.6391 13.724 64.7591 13.7494C64.0194 13.7708 63.5413 13.4629 63.2577 12.7678C62.7989 11.6433 62.3623 10.5029 61.7997 9.43207C61.6004 9.05285 61.0515 8.62534 60.6777 8.63951C60.256 8.65548 59.7217 9.05783 59.4695 9.44703C59.0576 10.0827 58.7673 10.823 58.5453 11.5563C58.0393 13.2275 57.1676 14.2521 55.2681 13.7437ZM34.1779 13.7449C33.6784 13.7449 33.1487 13.6392 32.6876 13.774C32.205 13.915 31.5622 14.1945 31.4065 14.5843C31.251 14.9735 31.479 15.6803 31.7745 16.06C32.37 16.8253 33.1213 17.4673 33.8162 18.1519C34.3035 18.6321 34.4532 19.1761 34.2735 19.8545C33.9166 21.2027 33.5392 22.551 33.3009 23.9225C33.2189 24.3941 33.3737 25.1353 33.6981 25.3881C34.0245 25.6425 34.7752 25.6127 35.2016 25.4096C36.3933 24.8419 37.5209 24.1333 38.6585 23.454C39.253 23.099 39.8087 23.0991 40.3998 23.4471C41.4655 24.0745 42.547 24.6745 43.6133 25.301C44.1941 25.6422 44.7733 25.9402 45.4074 25.4594C46.0776 24.9512 45.9261 24.2701 45.7538 23.5885C45.4556 22.4087 45.1987 21.2171 44.8612 20.0491C44.617 19.2042 44.7903 18.5592 45.4386 17.9739C46.0735 17.4006 46.6363 16.7464 47.2559 16.1547C47.7294 15.7024 47.9605 15.1829 47.7245 14.5562C47.4831 13.9155 46.9475 13.7238 46.3012 13.7398C45.567 13.7579 44.8263 13.6847 44.0988 13.7573C42.9913 13.8678 42.333 13.433 41.9587 12.3698C41.6049 11.3648 41.1944 10.3686 40.6868 9.43657C40.4802 9.05715 39.9432 8.62406 39.5718 8.63782C39.152 8.65339 38.6187 9.05777 38.3689 9.44711C37.9596 10.0852 37.7335 10.8451 37.4407 11.558C36.4559 13.9561 36.6548 13.7452 34.1779 13.7449Z" fill="#2155FF"/>
<path d="M39.4075 79.9981C34.3838 79.9982 29.3602 80.0002 24.3365 79.9972C22.3955 79.9961 21.7689 78.8983 22.3299 77.0094C23.6672 72.5067 26.4608 69.6607 31.03 68.6282C31.9129 68.4287 32.7619 68.0706 33.6211 67.7697C34.8555 67.3375 35.0055 66.6745 34.072 65.7761C31.2947 63.1036 30.0704 59.8054 30.3602 55.9697C30.6427 52.2297 32.0603 49.0343 35.2979 46.9698C39.1666 44.5028 43.8488 45.7355 46.5772 49.8316C49.8876 54.8016 49.1758 61.6097 44.9126 65.7544C43.9319 66.7078 44.0735 67.33 45.3788 67.7777C46.9892 68.3299 48.6079 68.8582 50.2116 69.4297C52.7935 70.3498 54.596 72.1237 55.6686 74.6614C56.0147 75.4803 56.3288 76.3133 56.646 77.1443C57.284 78.8157 56.5039 79.9935 54.7428 79.9958C49.631 80.0024 44.5192 79.9981 39.4075 79.9981Z" fill="#2155FF"/>
<path d="M26.9818 67.0259C24.8521 68.0452 23.1816 69.4516 21.8792 71.3153C21.7283 71.5312 21.3598 71.7054 21.0915 71.7063C14.63 71.7275 8.16836 71.7333 1.70681 71.7136C0.251704 71.7092 -0.340007 70.7533 0.193171 69.3698C0.512789 68.5404 0.82899 67.7059 1.21344 66.9066C2.15061 64.9583 3.69345 63.7085 5.7144 63.0389C6.91206 62.6421 8.11229 62.2523 9.30224 61.8328C10.3551 61.4616 10.4556 60.9677 9.66201 60.173C6.80188 57.3089 6.03546 53.8132 7.01994 50.0014C7.90425 46.5774 10.2986 44.5495 13.7603 44.0741C14.7026 43.9447 15.8165 44.2945 16.7075 44.7281C19.7799 46.2231 21.3669 48.7705 21.4886 52.2377C21.5985 55.3696 20.6759 58.0841 18.3979 60.2789C17.7198 60.9322 17.8477 61.4735 18.7321 61.7867C20.1157 62.2766 21.5203 62.7073 22.8973 63.2151C24.7417 63.8952 26.0905 65.1461 26.9818 67.0259Z" fill="#2155FF"/>
<path d="M51.9609 67.0226C52.8416 65.1597 54.1873 63.9075 56.0285 63.224C57.3486 62.7339 58.698 62.3252 60.0279 61.8615C61.1538 61.4689 61.2685 60.9848 60.4382 60.1621C57.6624 57.4118 56.9584 54.0281 57.6947 50.3197C58.3551 46.9929 61.2177 44.3929 64.565 44.0667C65.5236 43.9734 66.6218 44.3019 67.5129 44.7372C70.5842 46.2375 72.1619 48.7893 72.2791 52.2561C72.385 55.3892 71.4552 58.0997 69.176 60.2921C68.5005 60.9418 68.6393 61.4754 69.5387 61.7919C70.7849 62.2304 72.0427 62.6348 73.294 63.0585C75.5767 63.8315 77.1592 65.3574 78.0559 67.6153C78.3184 68.2763 78.5937 68.9332 78.826 69.6051C79.2054 70.702 78.6548 71.5751 77.5187 71.7074C77.2864 71.7345 77.0493 71.7238 76.8145 71.7238C70.588 71.7246 64.3615 71.7172 58.1351 71.7364C57.5469 71.7382 57.1892 71.5662 56.8426 71.0619C55.6127 69.2724 53.961 67.9628 51.9609 67.0226Z" fill="#2155FF"/>
</g>
<defs>
<clipPath id="clip0_1148_1873">
<rect width="78.9474" height="80" fill="white"/>
</clipPath>
</defs>
</svg>
