<svg width="80" height="80" viewBox="0 0 80 80" fill="none" xmlns="http://www.w3.org/2000/svg">
<g clip-path="url(#clip0_1148_1835)">
<path d="M65.2791 37.5915H80.0008C79.4563 29.3579 76.7483 22.006 71.8847 15.5808C68.7662 16.9375 65.725 18.2605 62.6235 19.6097C64.2566 25.4272 65.0746 31.4486 65.2791 37.5915ZM19.4246 37.5899H37.6123V22.925C34.951 22.6833 32.3268 22.5309 29.728 22.1849C27.1168 21.8372 24.5309 21.2966 21.9083 20.8361C20.3583 26.3275 19.6024 31.8953 19.4246 37.5899ZM37.6331 42.3996H19.4234C19.6078 48.1247 20.3577 53.7134 21.9407 59.2604C27.1305 57.994 32.3468 57.3502 37.6331 57.1543V42.3996ZM42.3789 37.5767H60.5837C60.3793 31.8511 59.6464 26.2605 58.0577 20.7424C52.8554 22.0179 47.6574 22.6464 42.3789 22.8431L42.3789 37.5767ZM58.0707 59.2516C59.633 53.6982 60.402 48.1138 60.574 42.418H42.3981V57.1684C47.7045 57.3352 52.8987 58.0068 58.0707 59.2516ZM80.0008 42.3988H65.2758C65.0828 48.5625 64.2429 54.5994 62.6294 60.3877C65.7734 61.7571 68.8092 63.0793 71.8867 64.4197C76.7545 57.9617 79.4584 50.6269 80.0008 42.3988ZM42.4137 2.09976e-05V18.1125C47.2299 17.9333 51.9248 17.3915 56.6292 16.2254C56.0035 14.8308 55.467 13.5265 54.8435 12.2658C53.0098 8.55793 50.7765 5.14442 47.4974 2.5398C45.9942 1.34578 44.3437 0.438702 42.4137 2.09976e-05ZM56.5923 63.7542C51.8774 62.6182 47.1806 62.044 42.3989 61.8939V79.9743C42.5568 79.952 42.661 79.9462 42.7603 79.9213C42.9365 79.8771 43.1114 79.8261 43.2841 79.7696C45.4291 79.0672 47.2507 77.8351 48.8609 76.2753C52.4603 72.7883 54.7197 68.4605 56.5923 63.7542ZM37.6252 0.00180579C36.0563 0.325777 34.6888 1.00135 33.4182 1.87628C29.9769 4.24592 27.6283 7.54801 25.7147 11.1907C24.8641 12.8099 24.1502 14.5018 23.3659 16.1784C26.3218 17.143 35.9379 18.3554 37.6252 18.0034V0.00180579ZM37.5897 80V61.8859C32.7734 62.0641 28.0791 62.6135 23.3773 63.7812C24.0002 65.1708 24.5343 66.476 25.1594 67.7356C27.0335 71.5122 29.3094 74.9893 32.694 77.6004C34.1502 78.7238 35.7422 79.5762 37.5897 80ZM54.1045 77.6714C59.6487 75.6341 64.443 72.466 68.725 68.1C66.1382 67.0173 63.667 65.983 61.155 64.9316C59.3643 69.6461 57.1673 73.8938 54.1045 77.6714ZM54.1183 2.33976C57.2054 6.12721 59.3764 10.4218 61.1725 15.0789C63.7095 14.0048 66.1559 12.9691 68.7125 11.8868C64.4355 7.52744 59.6534 4.37379 54.1183 2.33976ZM25.8855 77.658C22.8017 73.8754 20.625 69.5847 18.8331 64.9243C16.3015 65.9957 13.8549 67.0311 11.2952 68.1144C15.5668 72.4678 20.347 75.6202 25.8855 77.658ZM25.8802 2.3457C20.3405 4.37898 15.5473 7.53968 11.2891 11.8946C13.8714 12.9793 16.3272 14.0108 18.842 15.0671C20.6304 10.3895 22.8082 6.12713 25.8802 2.3457Z" fill="white"/>
<path d="M0 36.5406C0.257609 34.9456 0.462135 33.3397 0.782242 31.7575C1.99376 25.7694 4.48454 20.3642 8.1218 15.5781C11.2067 16.9193 14.2433 18.2396 17.376 19.6016C15.7504 25.4049 14.9214 31.4419 14.7189 37.6408H0C0 37.274 0 36.9073 0 36.5406Z" fill="#2155FF"/>
<path d="M0 42.3594H14.7172C14.9299 48.5381 15.7348 54.5583 17.3816 60.397C14.2971 61.7364 11.2597 63.0552 8.04146 64.4526C7.08341 62.9407 5.9686 61.3386 5.01419 59.6451C2.28717 54.8063 0.681419 49.5977 0.139774 44.0591C0.119964 43.8566 0.0477812 43.6593 0 43.4596C0 43.0929 0 42.7261 0 42.3594Z" fill="#2155FF"/>
<path d="M65.2806 37.5927C65.0761 31.4498 64.2581 25.4284 62.625 19.6109C65.7265 18.2616 68.7677 16.9387 71.8861 15.582C76.7498 22.0072 79.4578 29.3591 80.0023 37.5927H65.2806Z" fill="#2155FF"/>
<path d="M19.4219 37.5898C19.5997 31.8951 20.3556 26.3273 21.9056 20.8359C24.5282 21.2965 27.1141 21.837 29.7253 22.1847C32.3241 22.5308 34.9483 22.6832 37.6096 22.9249V37.5898H19.4219Z" fill="#2155FF"/>
<path d="M37.6316 42.3984V57.1532C32.3452 57.3491 27.1289 57.9929 21.9392 59.2593C20.3562 53.7122 19.6063 48.1236 19.4219 42.3984H37.6316Z" fill="#2155FF"/>
<path d="M42.375 37.5765V22.8428C47.6535 22.6462 52.8515 22.0177 58.0538 20.7422C59.6425 26.2603 60.3754 31.8508 60.5798 37.5765H42.375Z" fill="#2155FF"/>
<path d="M58.071 59.2516C52.8989 58.0069 47.7048 57.3352 42.3984 57.1684V42.418H60.5743C60.4023 48.1137 59.6333 53.6982 58.071 59.2516Z" fill="#2155FF"/>
<path d="M79.9964 42.3984C79.454 50.6265 76.7501 57.9614 71.8823 64.4194C68.8048 63.079 65.7689 61.7567 62.625 60.3874C64.2385 54.5991 65.0783 48.5622 65.2714 42.3984H79.9964Z" fill="#2155FF"/>
<path d="M42.4141 0C44.3441 0.438681 45.9945 1.34578 47.4977 2.5398C50.7769 5.14442 53.0101 8.55793 54.8438 12.2658C55.4673 13.5265 56.0039 14.8308 56.6296 16.2254C51.9252 17.3915 47.2303 17.9333 42.4141 18.1125V0Z" fill="#2155FF"/>
<path d="M56.5919 63.7549C54.7193 68.4611 52.4599 72.789 48.8604 76.2759C47.2502 77.8357 45.4286 79.0678 43.2837 79.7702C43.111 79.8268 42.9361 79.8777 42.7599 79.9219C42.6605 79.9468 42.5564 79.9526 42.3984 79.9749V61.8945C47.1801 62.0446 51.877 62.6188 56.5919 63.7549Z" fill="#2155FF"/>
<path d="M37.6265 0V18.0016C35.9392 18.3536 26.323 17.1412 23.3672 16.1766C24.1515 14.5 24.8654 12.8081 25.716 11.1889C27.6295 7.54621 29.9781 4.24413 33.4194 1.87449C34.6901 0.999547 36.0575 0.32395 37.6265 0Z" fill="#2155FF"/>
<path d="M37.5874 80.0009C35.7399 79.577 34.1479 78.7247 32.6917 77.6013C29.3072 74.9902 27.0312 71.513 25.1571 67.7365C24.532 66.4769 23.9979 65.1716 23.375 63.782C28.0768 62.6143 32.7711 62.0649 37.5874 61.8867L37.5874 80.0009Z" fill="#2155FF"/>
<path d="M54.1016 77.6695C57.1644 73.8918 59.3614 69.6441 61.1521 64.9297C63.6641 65.9811 66.1353 67.0154 68.7221 68.0981C64.4401 72.464 59.6458 75.6322 54.1016 77.6695Z" fill="#2155FF"/>
<path d="M54.1172 2.33984C59.6523 4.37388 64.4344 7.52752 68.7114 11.8869C66.1549 12.9692 63.7084 14.0049 61.1714 15.0789C59.3753 10.4218 57.2043 6.1273 54.1172 2.33984Z" fill="#2155FF"/>
<path d="M25.8871 77.6596C20.3486 75.6218 15.5685 72.4694 11.2969 68.1159C13.8565 67.0326 16.3032 65.9972 18.8347 64.9258C20.6266 69.5862 22.8033 73.8769 25.8871 77.6596Z" fill="#2155FF"/>
<path d="M25.8802 2.34375C22.8083 6.12518 20.6304 10.3876 18.842 15.0652C16.3272 14.0088 13.8714 12.9773 11.2891 11.8926C15.5472 7.53773 20.3405 4.37703 25.8802 2.34375Z" fill="#2155FF"/>
</g>
<defs>
<clipPath id="clip0_1148_1835">
<rect width="80" height="80" fill="white"/>
</clipPath>
</defs>
</svg>
