<svg width="80" height="80" viewBox="0 0 80 80" fill="none" xmlns="http://www.w3.org/2000/svg">
<path d="M37.5005 0C39.1671 0 40.8336 0 42.5002 0C43.5533 0.134964 44.6083 0.257049 45.6591 0.408482C46.7235 0.561877 47.3893 1.18305 47.6683 2.21824C47.9725 3.34678 48.2457 4.48479 48.594 5.59944C48.6744 5.85684 48.9702 6.15969 49.2262 6.2322C52.0401 7.02913 54.7277 8.12313 57.2579 9.58743C57.684 9.83404 57.9822 9.81085 58.3811 9.56092C59.2836 8.99547 60.2266 8.49498 61.1372 7.94198C62.1989 7.29732 63.1819 7.36697 64.1694 8.12265C67.0797 10.3497 69.6423 12.9178 71.8721 15.8252C72.6282 16.8111 72.6991 17.7959 72.0558 18.8581C71.4904 19.7917 70.9261 20.7286 70.4252 21.697C70.2898 21.9587 70.259 22.4113 70.3957 22.6558C71.836 25.2317 72.9522 27.9344 73.7624 30.7712C73.8355 31.0275 74.1391 31.3207 74.3974 31.4031C75.361 31.7103 76.3486 31.9437 77.3304 32.1918C78.9387 32.5981 79.4931 33.2335 79.6754 34.876C79.7724 35.7511 79.8899 36.624 79.9982 37.4979V42.4977C79.8622 43.552 79.7399 44.6084 79.5862 45.6602C79.4307 46.7242 78.808 47.3906 77.7721 47.6696C76.6679 47.967 75.553 48.2303 74.464 48.5753C74.1825 48.6645 73.8412 48.9635 73.763 49.2343C72.9433 52.0704 71.8335 54.7783 70.3838 57.3521C70.2543 57.582 70.2674 58.0072 70.394 58.2466C70.941 59.2803 71.5621 60.2744 72.1426 61.2907C72.6918 62.2519 72.6159 63.1822 71.9498 64.062C69.6887 67.0486 67.0652 69.6736 64.0799 71.9367C63.1722 72.6249 62.2253 72.6857 61.2408 72.1122C60.2518 71.5362 59.2775 70.9329 58.2672 70.3974C58.0264 70.2698 57.6018 70.2467 57.3734 70.3748C54.7747 71.8316 52.0493 72.9661 49.1801 73.7694C48.9438 73.8356 48.6726 74.1236 48.5987 74.3642C48.2557 75.4816 47.9746 76.6182 47.6751 77.7489C47.4006 78.7853 46.7487 79.422 45.6824 79.5798C41.897 80.1399 38.1089 80.14 34.3235 79.5806C33.2596 79.4234 32.6014 78.7922 32.3264 77.7543C32.0403 76.6739 31.7239 75.6006 31.4732 74.5121C31.3651 74.0426 31.1529 73.8308 30.6829 73.703C27.8858 72.9426 25.2191 71.8517 22.7167 70.3835C22.3155 70.1482 22.0322 70.1837 21.6588 70.4145C20.7079 71.0025 19.7315 71.5492 18.7638 72.1099C17.7479 72.6986 16.7965 72.6048 15.8628 71.8915C12.9277 69.6492 10.3431 67.0617 8.10031 64.1277C7.38761 63.1954 7.29815 62.2421 7.89294 61.2269C8.47149 60.2395 9.07255 59.2638 9.60687 58.2529C9.73393 58.0126 9.75042 57.5869 9.62101 57.3573C8.17045 54.7841 7.05784 52.0776 6.23941 49.2409C6.16099 48.9691 5.82429 48.6673 5.54385 48.577C4.48121 48.2346 3.39651 47.9571 2.3122 47.6868C1.19847 47.4091 0.556776 46.7179 0.397224 45.5912C-0.131736 41.856 -0.134304 38.1194 0.400897 34.3845C0.563121 33.2524 1.2235 32.5768 2.32888 32.2981C3.41248 32.025 4.49864 31.7533 5.56107 31.4108C5.8384 31.3214 6.16369 31.009 6.24302 30.7344C7.05521 27.9233 8.13793 25.2283 9.61744 22.7027C9.85739 22.2931 9.80266 22.0112 9.57913 21.6451C9.00995 20.7129 8.48452 19.7541 7.92339 18.8169C7.30159 17.7782 7.37579 16.8116 8.11146 15.8504C10.3561 12.9177 12.9399 10.3297 15.878 8.09105C16.8148 7.37726 17.7669 7.30185 18.7794 7.89326C19.7676 8.47048 20.7437 9.07089 21.7552 9.60402C21.9953 9.73055 22.4208 9.74454 22.6504 9.61473C25.2219 8.16137 27.9284 7.05021 30.7659 6.2352C31.0362 6.15756 31.3315 5.81301 31.4228 5.53024C31.734 4.56711 31.9578 3.57577 32.2175 2.59587C32.6328 1.02891 33.2607 0.49955 34.8786 0.321546C35.7537 0.225239 36.6266 0.10785 37.5005 0ZM40.0022 64.9418C53.7275 64.9382 64.95 53.7121 64.9424 39.9937C64.9349 26.2603 53.7185 15.0464 39.9967 15.0535C26.2679 15.0606 15.0563 26.2753 15.0581 39.9989C15.06 53.7224 26.2836 64.9455 40.0022 64.9418Z" fill="#2155FF"/>
<path d="M19.7422 39.9915C19.7568 28.8222 28.9299 19.6732 40.0444 19.7426C51.2215 19.8124 60.2705 28.8866 60.2521 40.0066C60.2336 51.1813 51.0646 60.3269 39.9504 60.2565C28.7791 60.1857 19.7277 51.1089 19.7422 39.9915ZM37.512 44.2987C35.9193 42.6866 34.4577 41.2062 32.9949 39.727C32.3474 39.0722 31.5824 38.7535 30.6621 38.9884C28.8274 39.4567 28.2731 41.5989 29.6443 42.9937C31.5776 44.9602 33.5385 46.8996 35.4905 48.8477C36.871 50.2254 38.0984 50.2347 39.4686 48.8665C43.4451 44.8956 47.4171 40.9201 51.3891 36.9448C51.5725 36.7613 51.7608 36.5768 51.9114 36.3672C52.8944 34.9982 52.2106 33.0911 50.5861 32.7088C49.6058 32.4781 48.8245 32.864 48.1336 33.5592C45.1259 36.5855 42.1011 39.5949 39.0887 42.6167C38.577 43.1301 38.0958 43.6741 37.512 44.2987Z" fill="#2155FF"/>
</svg>
