<svg width="78" height="80" viewBox="0 0 78 80" fill="none" xmlns="http://www.w3.org/2000/svg">
<g clip-path="url(#clip0_1148_1858)">
<path d="M62.9664 79.999H51.5408C51.5259 79.7278 51.5029 79.5032 51.5028 79.2786C51.5006 75.8379 51.4978 72.3971 51.5028 68.9564C51.5062 66.6797 52.3265 64.7598 54.1636 63.3795C59.248 59.5597 63.7789 55.1403 68.2081 50.6044C68.5783 50.2253 69.0545 49.8728 69.5485 49.7072C70.4923 49.3908 71.4674 49.8275 71.9505 50.6345C72.4557 51.4784 72.3521 52.491 71.5995 53.2624C70.1247 54.774 68.6179 56.2547 67.1243 57.7482C66.306 58.5665 65.4757 59.3734 64.6729 60.2068C64.0317 60.8725 64.0032 61.6277 64.5515 62.2153C65.1252 62.8302 65.9373 62.8425 66.6248 62.1629C69.0118 59.8035 71.4224 57.4651 73.7348 55.0342C75.6204 53.052 75.4516 50.1081 73.5252 48.1509C73.2603 47.8817 73.0407 47.4296 73.0389 47.0611C73.0095 40.9025 73.0118 34.7438 73.0219 28.5851C73.025 26.6482 74.645 25.4385 76.3237 26.086C77.2855 26.457 77.8695 27.3188 77.8797 28.4663C77.8961 30.3166 77.885 32.1672 77.885 34.0177C77.8851 41.0727 77.8735 48.1277 77.8983 55.1826C77.9018 56.1644 77.615 56.9628 77.0172 57.7298C72.6087 63.387 68.2337 69.0702 63.8142 74.7187C63.2069 75.4949 62.8859 76.2684 62.9535 77.2532C63.0144 78.1419 62.9664 79.038 62.9664 79.999Z" fill="#2155FF"/>
<path d="M14.9374 79.9984C14.9374 78.9575 14.9026 77.977 14.9482 77.0002C14.9855 76.2025 14.7432 75.5593 14.253 74.9304C9.8261 69.2507 5.43038 63.5467 0.996742 57.8722C0.321626 57.0081 -0.00406814 56.1256 3.83439e-05 55.0153C0.0319125 46.3699 0.0176376 37.7243 0.0177679 29.0788C0.0177679 28.8475 0.0122926 28.6159 0.0213095 28.385C0.075954 26.9832 1.09623 25.9361 2.42087 25.9182C3.77694 25.8999 4.87183 26.967 4.87572 28.4101C4.89269 34.6846 4.88848 40.9591 4.86925 47.2335C4.86842 47.5051 4.70796 47.8393 4.513 48.0375C2.29561 50.2917 2.28146 53.1728 4.51594 55.4193C6.6789 57.5938 8.85382 59.7565 11.0244 61.9234C11.1675 62.0664 11.307 62.2166 11.4676 62.3379C12.0949 62.8119 12.8531 62.7722 13.346 62.218C13.8587 61.6416 13.8912 61.0027 13.4034 60.4084C13.0196 59.9408 12.5641 59.5315 12.1346 59.102C10.2525 57.2195 8.36339 55.3438 6.48664 53.456C5.43788 52.401 5.36381 51.1436 6.27106 50.2323C7.15154 49.348 8.49977 49.4128 9.51547 50.4086C10.5485 51.4215 11.5948 52.4232 12.5843 53.4775C15.801 56.9051 19.3258 59.9907 23.0834 62.8015C25.4368 64.562 26.5132 66.8017 26.4239 69.7332C26.3297 72.8242 26.4028 75.9203 26.4028 79.0142C26.4028 79.326 26.4028 79.6379 26.4028 79.9984L14.9374 79.9984Z" fill="#2155FF"/>
<path d="M42.3177 21.4906C43.6275 21.4066 44.3895 20.4668 44.4371 19.112C44.4819 17.8339 43.8524 16.7638 42.6204 16.6648C40.3237 16.4803 38.0017 16.6118 35.6484 16.6118V21.5284C37.9662 21.5284 40.1497 21.6297 42.3177 21.4906Z" fill="#2155FF"/>
<path d="M42.4343 26.102C40.2232 25.9757 37.9997 26.0672 35.6953 26.0672V31.0327C37.9165 31.0327 39.997 31.0797 42.0742 31.016C43.437 30.9743 44.362 29.9933 44.4455 28.7074C44.5311 27.3899 43.7348 26.1763 42.4343 26.102Z" fill="#2155FF"/>
<path d="M38.9445 1.66776e-07C35.4337 0.000390779 32.0916 0.751278 29.0681 2.09778C25.7637 3.56941 22.8405 5.75326 20.4966 8.45296C18.5769 10.6639 17.0461 13.2202 16.0115 16.0129C15.113 18.4384 14.5896 21.0421 14.5117 23.753C14.5041 24.015 14.4992 24.2777 14.5001 24.5417C14.544 37.9604 25.5297 48.8301 39.0222 48.8048C52.4852 48.7795 63.4137 37.8284 63.391 24.3856C63.3683 10.9755 52.3639 -0.00156228 38.9445 1.66776e-07ZM45.0175 35.6713C44.7024 35.8484 44.4497 36.3258 44.3791 36.703C44.2683 37.2943 44.3803 37.9234 44.3217 38.5291C44.1906 39.8853 43.2461 40.7947 42.0675 40.7582C40.8704 40.7212 40.0028 39.8021 39.9158 38.4182C39.872 37.7194 39.9082 37.0157 39.9082 36.2359H38.3681C37.9553 37.9779 38.904 40.8124 35.8436 40.6692C33.1853 40.5448 33.9579 38.0314 33.6997 36.1397C32.8233 36.1397 31.9757 36.1545 31.1289 36.1366C29.3956 36.0998 28.3683 35.2911 28.339 33.9635C28.3099 32.6421 29.282 31.8278 31.0395 31.6959C31.283 31.6777 31.525 31.6397 31.8259 31.6039V17.2627C31.3357 17.2032 30.8436 17.1449 30.3519 17.0838C29.0951 16.9276 28.3826 16.1579 28.3718 14.9552C28.3602 13.6657 29.1377 12.8578 30.447 12.7591C31.5006 12.6797 32.565 12.743 33.6914 12.743C34.0203 10.8862 33.0653 8.17968 36.0346 8.20325C38.9007 8.22603 38.0045 10.8355 38.3215 12.63H39.9126C39.9126 11.8301 39.8648 11.0759 39.923 10.3299C40.0295 8.96512 40.9494 8.07458 42.1781 8.13465C43.5226 8.20041 44.3933 9.03866 44.2719 10.2791C44.0807 12.2323 44.9217 13.1227 46.5337 14.1089C49.7445 16.073 50.435 20.1785 48.4436 23.3752C48.2304 23.7176 47.995 24.0463 47.7424 24.4223C50.8817 29.0801 49.8937 32.9313 45.0175 35.6713Z" fill="#2155FF"/>
</g>
<defs>
<clipPath id="clip0_1148_1858">
<rect width="77.8947" height="80" fill="white"/>
</clipPath>
</defs>
</svg>
