<svg width="80" height="80" viewBox="0 0 80 80" fill="none" xmlns="http://www.w3.org/2000/svg">
<g clip-path="url(#clip0_1012_1653)">
<path d="M42.2192 62.4708C29.7938 62.4583 19.7687 52.3884 19.7813 39.9326C19.7938 27.5055 29.8611 17.4837 42.3195 17.4961C54.7468 17.5085 64.7696 27.5761 64.756 40.0329C64.7424 52.4599 54.6746 62.4836 42.2192 62.4708ZM40.1265 27.1985C39.8775 27.2205 39.7037 27.2408 39.5294 27.2507C35.0906 27.5032 31.7784 31.9732 32.8313 36.2908C33.6752 39.7513 36.5817 42.0572 40.2155 42.1228C41.6651 42.149 43.1162 42.101 44.5654 42.1366C46.7135 42.1895 48.1938 44.4366 47.4213 46.4279C46.9168 47.7286 45.7165 48.5084 44.1412 48.5143C41.1295 48.5256 38.1177 48.5139 35.1062 48.523C34.7546 48.5241 34.3843 48.5384 34.0556 48.6464C33.1039 48.9589 32.5014 49.9622 32.6506 50.8977C32.8149 51.9287 33.6169 52.704 34.6445 52.7265C36.2276 52.7612 37.812 52.7403 39.3959 52.7464C39.629 52.7473 39.8623 52.7674 40.1246 52.7799C40.1246 53.173 40.1181 53.4842 40.1258 53.7951C40.1575 55.0877 41.0998 56.0642 42.2928 56.0461C43.4694 56.0281 44.374 55.0781 44.4108 53.8143C44.4209 53.4678 44.4123 53.1207 44.4123 52.7646C44.6676 52.7426 44.8208 52.7253 44.9744 52.7168C49.4583 52.4679 52.7668 48.0002 51.692 43.6447C50.8434 40.206 47.9633 37.9183 44.3549 37.8455C42.9054 37.8162 41.4547 37.8541 40.0049 37.8324C38.67 37.8125 37.462 36.8797 37.0537 35.6005C36.6492 34.3332 37.0933 32.9678 38.1722 32.1431C38.8602 31.6174 39.6508 31.4479 40.4957 31.4483C43.5298 31.4497 46.5637 31.4539 49.5977 31.446C50.9272 31.4425 51.8918 30.5669 51.9038 29.3652C51.9134 28.3959 51.1233 27.1645 49.5874 27.2123C48.1165 27.258 46.6431 27.2219 45.1705 27.2218C44.9325 27.2218 44.6945 27.2218 44.4106 27.2218C44.4106 26.7766 44.4247 26.4212 44.408 26.0671C44.3504 24.8548 43.4207 23.9247 42.2745 23.9204C41.1209 23.916 40.1896 24.8354 40.1291 26.0518C40.1115 26.4067 40.1265 26.7634 40.1265 27.1985Z" fill="#0047FF"/>
<path d="M39.8591 10C56.5212 9.99407 68.8221 20.02 71.6745 34.0078C74.9744 50.19 64.4951 66.0232 48.2564 69.3902C36.0311 71.925 23.267 66.3984 16.7384 55.7434C16.0268 54.582 16.2579 53.3003 17.2991 52.6332C18.372 51.9457 19.6411 52.2787 20.3973 53.4738C23.8207 58.8846 28.5554 62.6129 34.675 64.5187C48.9543 68.9657 64.0814 60.2055 67.3152 45.6415C70.4283 31.6213 61.5896 17.8068 47.6062 14.8374C37.0934 12.605 26.2997 17.1652 20.5382 26.2733C19.8168 27.4138 18.9559 27.8655 17.9623 27.6249C16.4924 27.2689 15.8716 25.6317 16.7086 24.2734C18.8665 20.7721 21.6219 17.8228 24.9884 15.4625C30.1551 11.8397 35.907 10.0295 39.8591 10Z" fill="#0047FF"/>
<path d="M13.3197 42.1226C12.2712 42.1226 11.2225 42.1303 10.1742 42.1207C8.92324 42.1092 8.00035 41.195 8 39.9837C7.99965 38.7661 8.91469 37.8523 10.1696 37.8467C12.289 37.8375 14.4086 37.8376 16.5279 37.8467C17.7771 37.8519 18.7028 38.7724 18.7033 39.9811C18.7038 41.1933 17.7824 42.109 16.5321 42.1205C15.4613 42.1305 14.3906 42.1226 13.3197 42.1226Z" fill="#0047FF"/>
<path d="M14.947 33.5541C14.4117 33.5541 13.876 33.562 13.3408 33.5525C12.1369 33.5313 11.2192 32.616 11.211 31.4382C11.2024 30.2154 12.1124 29.2913 13.3578 29.2782C14.4285 29.267 15.4995 29.2662 16.5702 29.2785C17.7731 29.2925 18.6929 30.2135 18.7014 31.3899C18.7103 32.6096 17.7967 33.5332 16.5531 33.5527C16.0177 33.5611 15.4824 33.5541 14.947 33.5541Z" fill="#0047FF"/>
<path d="M14.9906 46.4137C15.5259 46.4137 16.0616 46.4046 16.5968 46.4156C17.7924 46.4398 18.7022 47.3694 18.7015 48.5542C18.7006 49.74 17.7928 50.6716 16.5935 50.6884C15.5006 50.7036 14.4071 50.7037 13.3141 50.6884C12.1178 50.6713 11.2099 49.7351 11.2109 48.5493C11.212 47.3591 12.1152 46.4393 13.3176 46.4158C13.8751 46.4048 14.4328 46.4137 14.9906 46.4137Z" fill="#0047FF"/>
</g>
<defs>
<clipPath id="clip0_1012_1653">
<rect width="64.2854" height="60" fill="white" transform="translate(8 10)"/>
</clipPath>
</defs>
</svg>
