<svg width="80" height="80" viewBox="0 0 80 80" fill="none" xmlns="http://www.w3.org/2000/svg">
<g clip-path="url(#clip0_1012_1644)">
<path d="M39.6145 11C40.9348 11.6747 41.3221 12.2375 41.715 14.1057C41.175 14.1057 40.648 14.1047 40.1211 14.1058C36.6368 14.1126 34.2751 16.4824 34.2692 19.9791C34.267 21.2576 34.2687 22.5361 34.2687 23.9028H33.716C28.84 23.9028 23.964 23.8984 19.0881 23.911C18.7001 23.9119 18.4878 23.8216 18.3641 23.4265C18.1327 22.6864 17.8377 21.9664 17.5785 21.2346C17.0776 19.821 17.6388 18.6516 19.0499 18.1384C25.374 15.8379 31.6978 13.536 38.0207 11.2316C38.187 11.171 38.3414 11.0779 38.5012 11H39.6145Z" fill="#0047FF"/>
<path d="M67.9993 51.4132C67.6115 52.3583 66.9003 52.6929 65.8935 52.6821C62.2062 52.6428 58.5176 52.6989 54.8313 52.6269C52.4063 52.5795 50.3138 50.4388 50.1947 48.0599C50.0614 45.4003 51.8013 43.1374 54.3035 42.7317C54.6852 42.6699 55.0756 42.6348 55.4622 42.634C58.8904 42.6266 62.3191 42.6559 65.747 42.6137C66.7791 42.601 67.5429 42.892 67.9993 43.8427V51.4132ZM55.1755 49.3063C56.084 49.3151 56.8493 48.5771 56.8652 47.6765C56.8809 46.7916 56.1143 46.0091 55.2168 45.9942C54.3271 45.9793 53.5418 46.7424 53.5279 47.6352C53.514 48.5288 54.2718 49.2974 55.1755 49.3063Z" fill="#0047FF"/>
<path d="M62.9884 55.9874C62.9884 56.7737 62.9884 57.4932 62.9884 58.2126C62.9884 59.9937 62.9948 61.7747 62.9867 63.5558C62.9752 66.0459 61.0261 67.996 58.529 67.9966C44.1692 68.001 29.8093 68.0011 15.4495 67.9965C12.9584 67.9957 11.0049 66.0376 11.0036 63.5448C10.9989 52.9141 10.9986 42.2834 11.004 31.6525C11.0053 29.2781 12.8302 27.374 15.2003 27.2415C15.4224 27.2291 15.6452 27.2227 15.8677 27.2227C29.9492 27.2219 44.0307 27.2263 58.1123 27.2148C59.4271 27.2138 60.6108 27.5001 61.5818 28.4263C62.4818 29.2847 62.9794 30.3348 62.9848 31.5873C62.995 33.9991 62.9887 36.411 62.9873 38.8228C62.9873 38.9666 62.9699 39.1105 62.9568 39.31C62.7121 39.31 62.4945 39.3085 62.277 39.3103C59.6248 39.3309 56.9682 39.2631 54.3215 39.3943C50.7258 39.5726 47.4436 42.7436 46.9584 46.332C46.345 50.8687 49.0822 54.8423 53.5126 55.8146C54.0507 55.9326 54.6146 55.9763 55.167 55.9799C57.7442 55.9966 60.3216 55.9874 62.9884 55.9874Z" fill="#0047FF"/>
<path d="M37.6109 23.861C37.6109 22.3562 37.5846 20.8916 37.6202 19.4284C37.644 18.4459 38.5171 17.574 39.4986 17.4588C39.6824 17.4373 39.8687 17.428 40.0538 17.428C44.9138 17.4264 49.7738 17.4235 54.6338 17.429C55.9022 17.4303 56.731 18.0173 57.0164 19.0996C57.0721 19.3107 57.0815 19.5385 57.0824 19.7586C57.0881 21.1117 57.0853 22.4648 57.0853 23.8611L37.6109 23.861Z" fill="#0047FF"/>
</g>
<defs>
<clipPath id="clip0_1012_1644">
<rect width="57.0004" height="57" fill="white" transform="translate(11 11)"/>
</clipPath>
</defs>
</svg>
