<svg width="80" height="80" viewBox="0 0 80 80" fill="none" xmlns="http://www.w3.org/2000/svg">
<g clip-path="url(#clip0_1012_1666)">
<path d="M9 26.8016C9.37781 25.6512 10.2411 25.0494 11.3107 24.5754C20.4571 20.522 29.5942 16.4474 38.7226 12.3533C39.7889 11.8751 40.7489 11.8862 41.8132 12.3633C51.0531 16.5061 60.3067 20.6187 69.555 24.7426C71.2842 25.5136 71.9973 27.0354 71.22 28.5125C70.9449 29.0352 70.4369 29.5318 69.9134 29.813C60.5213 34.8559 51.11 39.8632 41.7042 44.8805C40.7309 45.3996 39.7712 45.3931 38.7998 44.8746C29.413 39.8648 20.0259 34.8556 10.6345 29.8543C9.81468 29.4176 9.29327 28.7622 9.00013 27.9006L9 26.8016Z" fill="#0047FF"/>
<path d="M9 38.158C9.39207 37.0232 10.0806 36.1358 11.3401 36.0646C11.986 36.0281 12.7188 36.2251 13.299 36.5313C19.8734 40.0002 26.4261 43.5105 32.9842 47.0102C35.2241 48.2055 37.4684 49.3927 39.6975 50.6078C40.0977 50.8258 40.3978 50.8316 40.8067 50.6126C49.5982 45.9051 58.3985 41.2144 67.1959 36.5181C67.89 36.1475 68.5899 35.8742 69.4046 36.0766C70.5255 36.355 71.2298 37.059 71.4587 38.1663C71.6837 39.2547 71.3061 40.1705 70.4128 40.8471C70.1877 41.0176 69.9332 41.1525 69.6828 41.2861C60.4543 46.2102 51.2194 51.1226 42.0011 56.0656C40.7878 56.7161 39.7019 56.7001 38.4919 56.051C29.3639 51.1544 20.2221 46.2836 11.0731 41.4264C10.1198 40.9203 9.34349 40.3129 9.00013 39.2567L9 38.158Z" fill="#0047FF"/>
<path d="M9 48.5352C9.10259 48.3193 9.19787 48.0996 9.30891 47.8881C9.93974 46.6862 11.3697 46.1419 12.6454 46.6599C13.226 46.8956 13.773 47.2164 14.328 47.5122C22.7884 52.0211 31.2493 56.5289 39.7016 61.053C40.1118 61.2726 40.4065 61.2677 40.8132 61.05C49.5886 56.3551 58.3734 51.6781 67.1526 46.9903C67.9501 46.5644 68.7548 46.2834 69.6575 46.5908C70.6705 46.9358 71.2977 47.652 71.4769 48.6922C71.6567 49.736 71.2919 50.6168 70.4464 51.2711C70.2232 51.4439 69.9687 51.5798 69.7183 51.7133C60.4715 56.6468 51.2184 61.5686 41.9818 66.5212C40.7893 67.1606 39.7202 67.1558 38.5303 66.5177C29.4369 61.6418 20.3314 56.7884 11.2174 51.9512C10.2367 51.4307 9.3869 50.8447 9.00013 49.7561C9.00013 49.3491 9 48.9422 9 48.5352Z" fill="#0047FF"/>
</g>
<defs>
<clipPath id="clip0_1012_1666">
<rect width="62.5329" height="55" fill="white" transform="translate(9 12)"/>
</clipPath>
</defs>
</svg>
