<svg width="40" height="40" viewBox="0 0 40 40" fill="none" xmlns="http://www.w3.org/2000/svg">
<rect x="0.5" y="0.5" width="39" height="39" rx="19.5" stroke="#1A1A1D"/>
<path d="M19.9976 16.832C18.2532 16.832 16.8296 18.2556 16.8296 20C16.8296 21.7444 18.2532 23.168 19.9976 23.168C21.7421 23.168 23.1656 21.7444 23.1656 20C23.1656 18.2556 21.7421 16.832 19.9976 16.832ZM29.4993 20C29.4993 18.6881 29.5112 17.3881 29.4375 16.0786C29.3638 14.5576 29.0168 13.2077 27.9046 12.0954C26.79 10.9808 25.4424 10.6362 23.9214 10.5625C22.6095 10.4888 21.3095 10.5007 20 10.5007C18.6881 10.5007 17.3881 10.4888 16.0786 10.5625C14.5576 10.6362 13.2077 10.9832 12.0954 12.0954C10.9808 13.21 10.6362 14.5576 10.5625 16.0786C10.4888 17.3905 10.5007 18.6905 10.5007 20C10.5007 21.3095 10.4888 22.6119 10.5625 23.9214C10.6362 25.4424 10.9832 26.7923 12.0954 27.9046C13.21 29.0192 14.5576 29.3638 16.0786 29.4375C17.3905 29.5112 18.6905 29.4993 20 29.4993C21.3119 29.4993 22.6119 29.5112 23.9214 29.4375C25.4424 29.3638 26.7923 29.0168 27.9046 27.9046C29.0192 26.79 29.3638 25.4424 29.4375 23.9214C29.5136 22.6119 29.4993 21.3119 29.4993 20ZM19.9976 24.8744C17.3002 24.8744 15.1232 22.6974 15.1232 20C15.1232 17.3026 17.3002 15.1256 19.9976 15.1256C22.6951 15.1256 24.872 17.3026 24.872 20C24.872 22.6974 22.6951 24.8744 19.9976 24.8744ZM25.0717 16.0643C24.4419 16.0643 23.9333 15.5557 23.9333 14.9259C23.9333 14.2961 24.4419 13.7876 25.0717 13.7876C25.7015 13.7876 26.2101 14.2961 26.2101 14.9259C26.2103 15.0755 26.1809 15.2236 26.1238 15.3618C26.0667 15.5 25.9828 15.6256 25.8771 15.7313C25.7713 15.8371 25.6457 15.9209 25.5075 15.9781C25.3693 16.0352 25.2212 16.0645 25.0717 16.0643Z" fill="#1A1A1D"/>
</svg>
