<svg width="80" height="80" viewBox="0 0 80 80" fill="none" xmlns="http://www.w3.org/2000/svg">
<g clip-path="url(#clip0_983_2979)">
<path d="M57.4751 31.7543C54.5719 31.7543 51.738 31.7466 48.9041 31.7605C48.2944 31.7635 47.6687 31.7732 47.0799 31.9082C46.3664 32.0719 45.6512 32.3045 44.9946 32.6254C42.9092 33.6446 40.8484 34.7144 38.7823 35.7728C36.1738 37.1091 34.6843 39.2323 34.6349 42.1718C34.5726 45.8763 34.4698 49.5971 34.7332 53.2858C35.1241 58.7593 37.2637 63.599 40.8385 67.7839C41.0182 67.9942 41.1992 68.2033 41.4652 68.5128C41.1328 68.5381 40.9199 68.5681 40.7071 68.5683C33.5226 68.5706 26.3381 68.583 19.1538 68.5658C14.0108 68.5534 10.0133 64.5566 10.0092 59.4171C9.9975 45.3064 9.99619 31.1956 10.0098 17.0847C10.0147 11.9737 14.0134 8.00506 19.1121 8.00316C28.9044 7.99951 38.6967 7.9982 48.489 8.00374C53.3997 8.00651 57.4326 11.8793 57.5038 16.7745C57.5741 21.605 57.5213 26.4372 57.5206 31.2685C57.5206 31.3926 57.4981 31.5167 57.4751 31.7543ZM30.4386 22.7283C34.1684 22.7283 37.8984 22.7489 41.6277 22.7067C42.2085 22.7002 42.8524 22.5186 43.3504 22.2221C44.2433 21.6904 44.5792 20.5626 44.2905 19.6011C43.964 18.5135 43.032 17.8235 41.8033 17.8182C38.8399 17.8055 35.8765 17.8139 32.9131 17.8139C28.3657 17.8139 23.8185 17.8105 19.2712 17.8162C18.0246 17.8178 17.1095 18.4168 16.7434 19.4346C16.1393 21.1143 17.3436 22.7168 19.2489 22.7239C22.9786 22.7379 26.7087 22.7282 30.4386 22.7283ZM25.5739 32.5459C27.6932 32.5459 29.8127 32.5564 31.9321 32.5424C33.4907 32.532 34.5619 31.4976 34.549 30.0544C34.5366 28.6639 33.4552 27.6396 31.9407 27.6356C27.7018 27.6247 23.4629 27.6243 19.2242 27.6438C18.8042 27.6457 18.3561 27.7469 17.9709 27.9157C16.9831 28.3484 16.4151 29.4963 16.6251 30.5C16.882 31.7272 17.8366 32.5278 19.1389 32.5399C21.2836 32.5597 23.429 32.5453 25.5739 32.5459ZM23.9629 42.3636C25.4971 42.3636 27.0315 42.3696 28.5657 42.362C30.1747 42.354 31.3211 41.3126 31.3068 39.8873C31.2927 38.4835 30.1667 37.4561 28.6039 37.4519C25.4843 37.4434 22.3647 37.4417 19.2451 37.4528C17.6929 37.4583 16.5686 38.5182 16.582 39.9232C16.5954 41.3269 17.7211 42.3515 19.2836 42.3614C20.8433 42.3713 22.403 42.3636 23.9629 42.3636Z" fill="#0047FF"/>
<path d="M55.0442 36.6205C57.0379 36.6205 59.0333 36.574 61.0247 36.6447C61.7622 36.6708 62.5441 36.8566 63.2121 37.1695C65.1509 38.0775 67.0343 39.1029 68.955 40.0508C70.0861 40.6089 70.611 41.4588 70.5944 42.7355C70.5571 45.6229 70.5935 48.5112 70.5794 51.399C70.5388 59.6749 65.002 67.6409 57.2731 70.5684C55.7211 71.1562 54.1968 71.155 52.6586 70.4897C45.1675 67.249 40.7353 61.5618 39.6945 53.52C39.2158 49.8211 39.4968 46.0208 39.4888 42.2663C39.4869 41.3437 40.0155 40.6297 40.861 40.1991C43.0209 39.0992 45.1707 37.9784 47.3517 36.9218C47.8115 36.699 48.386 36.6418 48.9096 36.6338C50.954 36.6021 52.9992 36.6205 55.0442 36.6205ZM54.0616 51.7909C53.3244 50.9666 52.6751 50.2133 51.9962 49.4876C51.0029 48.4258 49.5206 48.3372 48.4991 49.254C47.4806 50.1679 47.4122 51.6604 48.3693 52.7517C49.6162 54.1734 50.8716 55.5882 52.1481 56.9832C53.2818 58.2223 54.8455 58.2249 55.9638 56.9876C57.883 54.8643 59.7902 52.7298 61.675 50.576C61.9648 50.2448 62.2033 49.8074 62.3013 49.3813C62.5647 48.2358 62.0329 47.1763 61.043 46.6828C60.0833 46.2041 58.8741 46.4242 58.1047 47.2697C56.7642 48.7428 55.448 50.2379 54.0616 51.7909Z" fill="#0047FF"/>
</g>
<defs>
<clipPath id="clip0_983_2979">
<rect width="60.5954" height="63" fill="white" transform="translate(10 8)"/>
</clipPath>
</defs>
</svg>
