<svg width="80" height="80" viewBox="0 0 80 80" fill="none" xmlns="http://www.w3.org/2000/svg">
<g clip-path="url(#clip0_1148_1963)">
<path d="M70.7879 47.4444C72.4515 50.1556 71.4958 53.9565 68.5511 55.6774C65.4521 57.4884 62.2998 59.2085 59.1695 60.9661C55.4438 63.0579 51.742 65.1935 47.9844 67.2266C42.5512 70.1662 37.0371 70.1967 31.6233 67.2328C24.7652 63.4783 17.9696 59.6098 11.1608 55.7662C8.33985 54.1737 7.24427 50.7992 8.54167 47.8913C8.62986 47.6937 8.73983 47.5057 8.89071 47.2148C9.94293 49.065 11.7846 49.7673 13.4429 50.7013C19.622 54.1813 25.7646 57.7302 32.0145 61.0794C37.2726 63.897 42.6747 63.7829 47.8978 60.9278C54.7582 57.1778 61.5547 53.3108 68.3498 49.4436C69.2439 48.9348 69.9676 48.128 70.7879 47.4444Z" fill="#2155FF"/>
<path d="M8.89204 57.7813C9.76407 59.3361 11.2283 60.0401 12.6309 60.8262C18.875 64.3256 25.1052 67.8499 31.3636 71.3235C36.9297 74.4129 42.5599 74.4512 48.1332 71.3737C54.8041 67.69 61.4403 63.9434 68.0625 60.1732C69.0525 59.6096 69.8838 58.7685 70.8172 58.0332C71.6631 59.5231 71.8265 61.2254 71.2161 62.9981C70.6662 64.5951 69.5702 65.7095 68.1041 66.5267C62.9099 69.4219 57.7312 72.3447 52.5423 75.2495C50.6593 76.3036 48.8197 77.4562 46.8642 78.356C41.6918 80.7361 36.5406 80.523 31.5635 77.7721C24.759 74.0113 17.9929 70.1812 11.219 66.3655C8.35729 64.7536 7.23391 61.387 8.54235 58.4582C8.63062 58.2606 8.74072 58.0727 8.89204 57.7813Z" fill="#2155FF"/>
<path d="M42.9799 16.3212C44.0161 16.2548 44.6191 15.512 44.6567 14.4414C44.6922 13.4313 44.194 12.5857 43.2193 12.5074C41.4022 12.3617 39.565 12.4656 37.7031 12.4656V16.3511C39.537 16.3511 41.2644 16.4311 42.9799 16.3212Z" fill="#2155FF"/>
<path d="M43.0741 19.963C41.3246 19.8632 39.5653 19.9355 37.7422 19.9355V23.8596C39.4996 23.8596 41.1457 23.8968 42.7891 23.8464C43.8674 23.8134 44.5992 23.0382 44.6652 22.022C44.7331 20.9808 44.103 20.0217 43.0741 19.963Z" fill="#2155FF"/>
<path d="M39.8016 0C29.7586 0 21.6172 8.12194 21.6172 18.1409C21.6172 28.1598 29.7586 36.2818 39.8016 36.2818C49.8445 36.2818 57.986 28.1598 57.986 18.1409C57.986 8.12196 49.8446 0 39.8016 0ZM44.6025 27.0124C44.3532 27.1523 44.1533 27.5296 44.0973 27.8278C44.0096 28.295 44.0982 28.7921 44.0519 29.2708C43.9482 30.3426 43.201 31.0613 42.2683 31.0325C41.3212 31.0032 40.6348 30.2769 40.566 29.1832C40.5313 28.631 40.56 28.0748 40.56 27.4585H39.3414C39.0148 28.8352 39.7654 31.0752 37.3441 30.9621C35.2408 30.8638 35.8521 28.8776 35.6477 27.3825C34.9544 27.3825 34.2838 27.3943 33.6138 27.3801C32.2424 27.3511 31.4295 26.7119 31.4065 25.6628C31.3834 24.6185 32.1524 23.9749 33.543 23.8707C33.7356 23.8563 33.9271 23.8263 34.1653 23.798V12.4643C33.7774 12.4174 33.388 12.3713 32.999 12.323C32.0045 12.1995 31.441 11.5913 31.4323 10.6409C31.4232 9.62177 32.0384 8.9833 33.0742 8.90528C33.9078 8.84252 34.75 8.89258 35.6413 8.89258C35.9014 7.42512 35.1458 5.28626 37.4952 5.30486C39.7627 5.32286 39.0538 7.38505 39.3045 8.80323H40.5634C40.5634 8.17109 40.5256 7.57504 40.5718 6.98552C40.656 5.90696 41.3838 5.20316 42.3559 5.25066C43.4196 5.30262 44.1086 5.96507 44.0125 6.94535C43.8613 8.48897 44.5266 9.19265 45.802 9.97196C48.3424 11.5242 48.8888 14.7687 47.3132 17.295C47.1446 17.5656 46.9583 17.8253 46.7583 18.1225C49.2421 21.8034 48.4605 24.847 44.6025 27.0124Z" fill="#2155FF"/>
<path d="M68.2513 34.3508C65.6005 32.8622 62.9483 31.376 60.297 29.8882C55.7647 36.3055 48.2799 40.4984 39.8129 40.4984C31.3458 40.4984 23.8539 36.3014 19.3222 29.8789C16.6541 31.3778 13.9866 32.8776 11.3185 34.3765C9.2049 35.5639 8.04762 37.3706 8.03911 39.7993C8.03051 42.2543 9.18655 44.0851 11.3237 45.2867C18.0622 49.0753 24.7823 52.8973 31.5539 56.6263C36.9872 59.6184 42.5306 59.649 47.9706 56.6709C54.7705 52.9484 61.5034 49.1041 68.2616 45.3057C70.3967 44.1057 71.5665 42.2794 71.5641 39.8252C71.5617 37.3711 70.3874 35.5504 68.2513 34.3508Z" fill="#2155FF"/>
</g>
<defs>
<clipPath id="clip0_1148_1963">
<rect width="63.6025" height="80" fill="white" transform="translate(8)"/>
</clipPath>
</defs>
</svg>
