<svg width="90" height="80" viewBox="0 0 90 80" fill="none" xmlns="http://www.w3.org/2000/svg">
<g clip-path="url(#clip0_1148_1988)">
<path d="M89.1315 41.0277C88.7839 41.6283 88.473 42.2541 88.0828 42.8255C85.2504 46.9734 82.4047 51.1121 79.5578 55.25C78.1154 57.3464 76.1552 57.3574 74.7224 55.2745C71.7771 50.9929 68.8452 46.702 65.8945 42.4242C65.2277 41.4576 64.8504 40.4682 65.4384 39.3388C66.0414 38.1805 67.0906 37.8851 68.2961 37.9102C68.8973 37.9226 69.4989 37.9123 70.1091 37.9123C69.1181 27.5855 61.718 18.6899 51.7891 15.7778C41.5369 12.7708 28.6374 16.3687 22.0902 27.8266C21.3622 26.7659 20.6641 25.7453 19.9623 24.7272C19.3855 23.8906 18.8295 23.0383 18.2202 22.2261C16.6976 20.1964 14.6585 19.1355 12.12 19.0504C11.9562 19.0449 11.7926 19.0312 11.6016 19.0196C18.0624 8.47787 31.6805 -0.158358 48.1036 1.1272C64.251 2.39117 82.4212 15.9542 83.9714 37.9C85.877 37.9903 88.0746 37.4075 89.1315 39.8069V41.0277Z" fill="#2155FF"/>
<path d="M5.22708 43.0955C4.3453 43.0955 3.59343 43.1039 2.8418 43.0935C1.75533 43.0785 0.850466 42.7039 0.312988 41.6998C-0.227694 40.6898 -0.0250525 39.7335 0.593381 38.8316C3.64741 34.378 6.6917 29.9176 9.76599 25.478C10.9513 23.7662 13.0101 23.7406 14.1903 25.4399C17.2874 29.8989 20.3449 34.3855 23.4138 38.8642C24.0127 39.7382 24.1998 40.6714 23.6957 41.6567C23.1759 42.6727 22.2817 43.0672 21.1937 43.0921C20.4754 43.1085 19.7565 43.0952 19.0319 43.0952C19.7674 53.1225 27.369 62.301 37.3257 65.221C47.8223 68.2993 60.4924 64.5117 67.0208 53.1852C67.5376 53.9274 68.0303 54.6296 68.5172 55.3358C69.2587 56.4115 69.9791 57.5021 70.739 58.5645C72.2923 60.7361 74.3982 61.8931 77.0804 61.9597C77.218 61.9632 77.3553 61.9779 77.513 61.9887C71.321 72.1995 57.7943 81.3171 41.1262 79.8422C31.4799 78.9887 23.209 75.0752 16.4357 68.1383C9.67051 61.2096 5.97921 52.8419 5.22708 43.0955Z" fill="#2155FF"/>
<path d="M41.9009 52.8793C40.4822 52.6278 39.1617 52.0904 38.0942 51.0336C36.7887 49.7413 36.1429 48.1702 36.1405 46.3458C36.1387 45.0308 37.1621 43.9542 38.4543 43.834C39.7749 43.7111 40.9596 44.6223 41.2208 45.9618C41.5374 47.5853 41.7255 47.7402 43.3988 47.7424C44.3561 47.7436 45.3142 47.7638 46.2707 47.7337C47.3834 47.6987 47.8382 47.2161 47.871 46.1135C47.9564 43.2479 47.8122 43.1199 44.9733 43.0883C43.6729 43.0738 42.336 43.1246 41.0815 42.8474C38.2537 42.2223 36.4234 39.9694 36.1804 37.0276C35.9995 34.8375 35.9757 32.662 37.4045 30.7766C38.41 29.4499 39.7035 28.5921 41.345 28.2743C41.5396 28.2366 41.7267 28.1602 41.9043 28.1058C42.2709 25.1111 42.9303 24.1735 44.6234 24.2121C46.2921 24.2501 46.9831 25.2731 47.1988 28.0434C47.9708 28.3179 48.8034 28.4994 49.5221 28.8909C51.7012 30.078 52.8654 31.9516 52.9832 34.45C53.0495 35.8558 52.0699 37.0259 50.7158 37.1749C49.3644 37.3236 48.1489 36.3875 47.9001 35.0063C47.6263 33.4861 47.382 33.2755 45.8585 33.27C44.8431 33.2663 43.8269 33.2456 42.8126 33.2801C41.7547 33.3161 41.2797 33.8082 41.2598 34.8554C41.2085 37.5542 41.1649 38.0088 44.1985 37.9304C45.4676 37.8975 46.7753 37.8871 48.0062 38.1474C50.8092 38.7403 52.7033 41.0436 52.9453 43.9411C53.1387 46.257 53.1396 48.5435 51.5399 50.4798C50.6029 51.6139 49.4342 52.4188 47.9921 52.679C47.2732 52.8088 47.1028 53.094 47.1329 53.7578C47.1548 54.2393 47.0832 54.7536 46.9256 55.209C46.5801 56.207 45.5384 56.8394 44.4609 56.7971C43.3336 56.7529 42.3781 56.0359 42.122 54.9291C41.9736 54.2877 41.9745 53.6116 41.9009 52.8793Z" fill="#2155FF"/>
</g>
<defs>
<clipPath id="clip0_1148_1988">
<rect width="89.1282" height="79" fill="white" transform="translate(0 1)"/>
</clipPath>
</defs>
</svg>
