<svg width="80" height="80" viewBox="0 0 80 80" fill="none" xmlns="http://www.w3.org/2000/svg">
<g clip-path="url(#clip0_1148_1980)">
<path d="M2.26667e-05 38.4489C2.26667e-05 35.0644 2.26667e-05 31.6799 2.26667e-05 28.2954C1.03868 24.3142 3.91061 23.2005 7.15016 23.3065C10.9739 23.4315 14.8048 23.3365 18.6326 23.3343C18.891 23.3342 19.1494 23.3127 19.4078 23.3011C18.6304 22.7939 17.8495 22.4408 17.0935 22.041C13.5436 20.1638 10.4172 17.7936 8.30144 14.2954C7.05591 12.236 6.36143 10.0114 6.79774 7.58978C7.46611 3.88019 9.93204 1.81798 13.3409 0.646225C15.4356 -0.0738045 17.5944 0.0510662 19.7519 0.0124648C23.694 -0.0580739 27.2294 1.16998 30.4587 3.32892C34.7006 6.16472 37.5318 10.1657 39.665 14.7187C39.7565 14.9139 39.8685 15.0995 39.9472 15.2455C40.9656 13.4809 41.875 11.6937 42.9777 10.035C45.9645 5.5425 49.9078 2.26032 55.1594 0.673946C57.4724 -0.0247538 59.8313 -0.0579605 62.1972 0.0412515C63.5381 0.0974649 64.9134 0.191826 66.1991 0.54146C69.6223 1.47243 72.2074 3.43162 73.0885 7.05428C73.8097 10.0197 72.8479 12.6614 71.1888 15.0831C69.0139 18.2579 66.0016 20.4479 62.6267 22.1875C61.9501 22.5362 61.258 22.8549 60.573 23.1874L60.6101 23.3358C60.8864 23.3358 61.1627 23.3358 61.439 23.3358C65.5793 23.3359 69.7196 23.3231 73.8599 23.3399C77.5007 23.3547 79.9843 25.8579 79.9925 29.4895C79.9981 31.9888 79.9946 34.4881 79.9934 36.9874C79.9914 40.9129 77.5945 43.3276 73.6824 43.329C63.5791 43.3328 53.4757 43.3306 43.3724 43.3288C43.0972 43.3287 42.822 43.3061 42.4796 43.291V26.8391H37.4757V43.3303H36.4877C30.9933 43.3303 25.499 43.3303 20.0047 43.3303C15.3436 43.3302 10.6825 43.3434 6.02145 43.325C3.10533 43.3135 0.881598 41.598 0.163404 38.8713C0.125188 38.7262 0.055216 38.5895 2.26667e-05 38.4489ZM36.9036 21.8522C35.713 17.6774 34.1086 13.9795 31.4496 10.8137C28.0178 6.72769 23.6275 4.72188 18.2817 4.88591C16.6881 4.93481 15.1208 5.17684 13.6821 5.93964C11.9477 6.85932 11.237 8.33714 11.9019 10.1706C12.3008 11.2705 12.9365 12.3296 13.6578 13.2577C14.983 14.9627 16.7496 16.1795 18.6256 17.2296C22.3279 19.3019 26.336 20.4559 30.4985 21.0969C32.5748 21.4166 34.673 21.594 36.9036 21.8522ZM43.0712 21.7894C44.5476 21.6576 45.8945 21.5687 47.2336 21.4122C51.7554 20.8837 56.1446 19.8484 60.239 17.7956C63.0599 16.3813 65.655 14.6538 67.352 11.8912C69.2977 8.72356 68.3217 6.24852 64.7301 5.33533C61.0089 4.3892 57.3579 4.76469 53.951 6.50864C47.7545 9.68046 45.0578 15.4013 43.0712 21.7894Z" fill="#2155FF"/>
<path d="M11.5623 79.9991C11.2978 79.9062 11.0354 79.8067 10.7684 79.7214C8.39123 78.9619 6.71555 76.8637 6.70435 74.3758C6.66605 65.8691 6.68393 57.362 6.68341 48.8551C6.68341 48.7063 6.72106 48.5575 6.74622 48.3711H37.4977V79.9991H11.5623Z" fill="#2155FF"/>
<path d="M42.5 79.999V48.3711H73.3178V49.3231C73.3178 57.3878 73.3185 65.4525 73.3175 73.5172C73.3171 77.0108 71.8948 78.9136 68.5527 79.9031C68.508 79.9163 68.4743 79.9662 68.4354 79.999H42.5Z" fill="#2155FF"/>
</g>
<defs>
<clipPath id="clip0_1148_1980">
<rect width="79.9956" height="80" fill="white"/>
</clipPath>
</defs>
</svg>
