<svg width="40" height="40" viewBox="0 0 40 40" fill="none" xmlns="http://www.w3.org/2000/svg">
<rect x="0.5" y="0.5" width="39" height="39" rx="19.5" stroke="#1A1A1D"/>
<g clip-path="url(#clip0_907_8990)">
<path d="M15.8494 12.843C15.8494 13.8613 15.1082 14.686 13.8888 14.686C12.7413 14.686 12 13.8613 12 12.843C12 11.8003 12.765 11 13.9365 11C15.108 11 15.8257 11.8003 15.8494 12.843ZM12.0956 28V16.1411H15.7301V28H12.0956Z" fill="#1A1A1D"/>
<path d="M17.9079 19.9249C17.9079 18.4458 17.8602 17.2091 17.8125 16.1419H20.9686L21.1361 17.791H21.2078C21.6859 17.0148 22.8577 15.875 24.8185 15.875C27.2096 15.875 29.0027 17.5001 29.0027 20.9921V28.0007H25.3684V21.4286C25.3684 19.9009 24.8421 18.8582 23.527 18.8582C22.5227 18.8582 21.9252 19.5614 21.6621 20.2403C21.5665 20.4827 21.5423 20.8223 21.5423 21.162V28.0007H17.9079V19.9249Z" fill="#1A1A1D"/>
</g>
<defs>
<clipPath id="clip0_907_8990">
<rect width="17" height="17" fill="white" transform="translate(12 11)"/>
</clipPath>
</defs>
</svg>
