<svg width="40" height="40" viewBox="0 0 40 40" fill="none" xmlns="http://www.w3.org/2000/svg">
<rect x="0.5" y="0.5" width="39" height="39" rx="19.5" stroke="#1A1A1D"/>
<g clip-path="url(#clip0_907_8996)">
<path d="M28.9821 12.1758H29V12H24.424L20.1877 21.83L15.9335 12.0176H11V12.1934H11.0179C11.858 12.3869 12.2691 12.6506 12.2691 13.653V25.3294C12.2691 26.3318 11.8401 26.5955 11.0179 26.789H11V26.9648H14.3426V26.789H14.3247C13.4846 26.5955 13.0735 26.3318 13.0735 25.3294V14.3388L18.5253 26.9648H18.8292L24.4419 13.9871V25.6284C24.3704 26.4197 23.9593 26.6659 23.1907 26.8241H23.1728V27H29V26.8241H28.9821C28.2314 26.6483 27.8024 26.4197 27.7309 25.6284V13.6706C27.7309 12.6506 28.1599 12.3693 28.9821 12.1758Z" fill="#1A1A1D"/>
</g>
<defs>
<clipPath id="clip0_907_8996">
<rect width="18" height="15" fill="white" transform="translate(11 12)"/>
</clipPath>
</defs>
</svg>
