<svg width="40" height="40" viewBox="0 0 40 40" fill="none" xmlns="http://www.w3.org/2000/svg">
<g clip-path="url(#clip0_907_9860)">
<path d="M20 40C31.0457 40 40 31.0457 40 20C40 8.9543 31.0457 0 20 0C8.9543 0 0 8.9543 0 20C0 31.0457 8.9543 40 20 40Z" fill="#8247E5"/>
<path d="M25.1436 16.5015C24.7781 16.2878 24.3081 16.2878 23.8904 16.5015L20.9661 18.2641L18.9817 19.3858L16.1097 21.1484C15.7441 21.362 15.2742 21.362 14.8564 21.1484L12.611 19.7596C12.2455 19.546 11.9844 19.1187 11.9844 18.638V15.9674C11.9844 15.5401 12.1932 15.1128 12.611 14.8457L14.8564 13.5104C15.222 13.2967 15.6919 13.2967 16.1097 13.5104L18.3551 14.8991C18.7207 15.1128 18.9817 15.5401 18.9817 16.0208V17.7834L20.9661 16.6083V14.7923C20.9661 14.365 20.7572 13.9377 20.3395 13.6706L16.1619 11.1602C15.7964 10.9466 15.3264 10.9466 14.9086 11.1602L10.6267 13.724C10.2089 13.9377 10 14.365 10 14.7923V19.8131C10 20.2404 10.2089 20.6677 10.6267 20.9347L14.8564 23.4451C15.222 23.6588 15.6919 23.6588 16.1097 23.4451L18.9817 21.7359L20.9661 20.5608L23.8381 18.8516C24.2037 18.638 24.6737 18.638 25.0914 18.8516L27.3368 20.1869C27.7024 20.4006 27.9635 20.8279 27.9635 21.3086V23.9792C27.9635 24.4065 27.7546 24.8338 27.3368 25.1009L25.1436 26.4362C24.7781 26.6498 24.3081 26.6498 23.8904 26.4362L21.6449 25.1009C21.2794 24.8872 21.0183 24.4599 21.0183 23.9792V22.27L19.034 23.4451V25.2077C19.034 25.635 19.2428 26.0623 19.6606 26.3294L23.8904 28.8398C24.2559 29.0534 24.7259 29.0534 25.1436 28.8398L29.3734 26.3294C29.7389 26.1157 30 25.6884 30 25.2077V20.1335C30 19.7062 29.7911 19.2789 29.3734 19.0119L25.1436 16.5015Z" fill="white"/>
</g>
<defs>
<clipPath id="clip0_907_9860">
<rect width="40" height="40" fill="white"/>
</clipPath>
</defs>
</svg>
