<svg width="196" height="53" viewBox="0 0 196 53" fill="none" xmlns="http://www.w3.org/2000/svg">
<path d="M105.873 17.4781V23.9781C106.973 22.5781 108.473 21.8781 110.473 21.8781C111.373 21.8781 112.273 21.9781 112.973 22.3781C113.773 22.5781 114.473 23.0781 115.073 23.6781C115.773 24.2781 116.273 24.9781 116.573 25.7781C116.873 26.5781 117.073 27.6781 117.073 28.8781C117.073 30.1781 116.873 31.3781 116.373 32.4781C115.873 33.5781 115.173 34.4782 114.173 35.1782C113.073 35.8782 111.973 36.2781 110.373 36.2781C108.273 36.2781 106.773 35.5781 105.773 34.2781V35.7781H101.673V17.4781H105.873ZM90.2734 21.3781C98.2734 21.3781 97.5734 29.9781 97.5734 29.9781H86.7734C87.2734 31.5781 88.6734 32.7781 90.6734 32.7781C93.1734 32.7781 94.4734 31.3781 94.4734 31.3781L96.7734 33.6781C95.5734 34.8781 93.9734 35.8781 90.6734 35.8781C85.6734 35.8781 82.8734 32.4781 82.8734 28.9781C82.8734 25.4781 84.7734 21.3781 90.2734 21.3781ZM189.073 21.2781C192.473 21.2781 194.673 22.5781 194.673 22.5781L193.173 25.6781C188.573 23.3781 186.573 24.9781 186.573 25.7781C186.573 26.5781 187.373 26.6781 190.573 27.2781C193.773 27.8781 195.173 29.1781 195.173 31.2781C195.173 33.3781 193.273 35.7781 188.873 35.7781C184.373 35.7781 182.373 34.3781 182.373 34.3781L183.773 31.4781C187.273 33.6782 191.273 32.9781 191.273 31.6781C191.273 30.7781 189.973 30.4781 188.573 30.2781L187.973 30.1781C187.773 30.1781 187.373 30.0781 187.173 30.0781C185.373 29.8781 182.673 28.7781 182.673 26.0781C182.573 23.1781 185.673 21.2781 189.073 21.2781ZM169.073 16.3781V27.3781L175.073 21.7781H179.873L173.973 27.3781L180.473 35.8781H175.673L171.173 30.0781L169.073 32.0781V35.8781H165.073V16.3781H169.073ZM154.873 21.2781C157.673 21.2781 160.173 22.6781 161.573 24.7781L158.173 26.7781C157.573 25.5781 156.273 24.7781 154.873 24.7781C152.773 24.7781 151.073 26.3781 151.073 28.5781C151.073 30.7781 152.673 32.3781 154.873 32.3781C156.273 32.3781 157.473 31.6781 158.073 30.4781L161.473 32.3781C160.073 34.3781 157.673 35.7781 154.873 35.7781C150.573 35.7781 147.073 32.4781 147.073 28.4781C146.973 24.4781 150.573 21.2781 154.873 21.2781ZM136.473 21.2781C140.773 21.2781 144.273 24.5781 144.273 28.5781C144.273 32.5781 140.773 35.8781 136.473 35.8781C132.173 35.8781 128.673 32.5781 128.673 28.5781C128.573 24.4781 132.073 21.2781 136.473 21.2781ZM65.8734 21.6781V35.6782H61.5734V21.6781H65.8734ZM57.7734 17.4781V20.9781H48.1734V25.6781H56.5734V29.0781H48.0734V35.6782H43.7734V17.4781H57.7734ZM75.1734 23.3781C75.1734 23.3781 76.6734 21.0781 79.8734 21.3781V25.2781C79.8734 25.2781 76.4734 24.4781 75.1734 27.9781V35.7781H71.0734V21.6781H74.9734L75.1734 23.3781ZM124.473 16.3781V35.6782H120.173V16.3781H124.473ZM109.273 24.8781C106.973 24.8781 105.773 26.2781 105.773 29.1781C105.773 30.2781 106.173 31.1781 106.673 31.9781C107.273 32.6781 108.173 33.0781 109.473 33.0781C110.273 33.0781 110.973 32.8781 111.473 32.4781C111.973 31.9781 112.273 31.5781 112.573 30.9781C112.773 30.3781 112.973 29.6781 112.973 29.0781C112.973 27.8781 112.773 26.8781 112.173 26.1781C111.473 25.1781 110.473 24.8781 109.273 24.8781ZM136.473 24.6781C134.373 24.6781 132.673 26.2781 132.673 28.4781C132.673 30.6781 134.273 32.2781 136.473 32.2781C138.573 32.2781 140.273 30.6781 140.273 28.4781C140.073 26.4781 138.473 24.6781 136.473 24.6781ZM90.2734 24.3781C88.1734 24.3781 86.9734 25.6781 86.6734 27.2781H93.6734C93.6734 26.9781 92.9734 24.3781 90.2734 24.3781ZM63.7734 15.0781C65.1734 15.0781 66.3734 16.1781 66.3734 17.3781C66.3734 18.5781 65.1734 19.7781 63.7734 19.7781C62.3734 19.7781 61.1734 18.6781 61.1734 17.4781C61.1734 16.2781 62.3734 15.0781 63.7734 15.0781Z" fill="#64686F"/>
<path d="M29.3969 11.8008C30.0969 11.8008 30.5969 12.3008 30.5969 13.0008V40.0008C30.5969 40.7008 30.0969 41.2008 29.3969 41.2008H1.99687C1.29687 41.2008 0.796875 40.7008 0.796875 40.0008V13.0008C0.796875 12.3008 1.29687 11.8008 1.99687 11.8008H29.3969ZM15.7969 19.9008L7.49687 33.0008H24.0969L15.7969 19.9008Z" fill="#64686F"/>
</svg>
