<svg width="196" height="53" viewBox="0 0 196 53" fill="none" xmlns="http://www.w3.org/2000/svg">
<path d="M44.7031 6.19922C38.0031 5.89922 31.5031 4.59922 25.6031 1.69922C19.6031 4.39922 13.2031 5.99922 6.50312 6.19922C5.50312 6.19922 4.70312 7.29922 4.70312 8.29922V17.7992C4.70312 44.4992 25.6031 51.8992 25.6031 51.8992C25.6031 51.8992 46.5031 44.4992 46.5031 17.7992V8.29922C46.5031 7.19922 45.7031 6.49922 44.7031 6.19922ZM35.0031 30.4992C34.8031 34.1992 31.9031 35.1992 27.8031 35.4992V39.4992H25.2031V35.4992H23.4031V39.6992H21.1031V35.4992H17.0031V32.5992H19.6031V19.5992H16.5031V16.9992H21.4031V12.9992H23.7031V16.9992H25.8031V12.9992H28.4031V17.1992C31.5031 17.4992 33.8031 18.4992 34.1031 21.3992C34.4031 22.9992 33.3031 24.5992 31.7031 25.3992H32.0031C34.3031 25.9992 35.6031 28.0992 35.0031 30.4992Z" fill="#64686F"/>
<path d="M29.3953 22.4994C29.3953 19.5994 25.2953 19.8994 23.6953 19.8994V24.8994C25.2953 24.8994 29.3953 25.1994 29.3953 22.4994Z" fill="#64686F"/>
<path d="M23.7969 27.5985V32.8985C25.3969 32.8985 30.4969 33.3985 30.4969 30.2985C30.4969 26.7985 25.5969 27.2985 23.7969 27.5985Z" fill="#64686F"/>
<path d="M88.0016 35C88.0016 36.8 87.7016 38.7 86.7016 40.3C85.9016 41.6 84.9016 42.9 83.3016 43.7C81.7016 44.5 80.2016 45.3 78.7016 45.5C76.9016 45.8 75.1016 46 73.3016 46H58.1016V7.5H73.3016C74.9016 7.5 76.4016 7.8 77.9016 8C79.5016 8.3 80.7016 8.8 82.0016 9.6C83.3016 10.4 84.3016 11.4 85.1016 12.5C85.9016 14.1 86.4016 15.7 86.1016 17.5C86.1016 19.3 85.6016 21.2 84.3016 22.8C83.0016 24.1 81.5016 25.2 79.7016 25.7C80.7016 26 81.8016 26.2 82.8016 26.8C83.8016 27.3 84.6016 27.9 85.4016 28.6C86.2016 29.4 86.7016 30.2 87.0016 31.2C87.7016 32.6 88.0016 33.6 88.0016 35ZM77.7016 18.6C77.7016 17.3 77.2016 16.2 76.1016 15.7C74.8016 14.9 73.3016 14.6 71.7016 14.9H67.3016V22.8H72.2016C73.5016 22.8 75.0016 22.5 76.1016 21.7C76.9016 21 77.7016 19.9 77.7016 18.6ZM78.7016 34.2C79.0016 32.9 78.2016 31.6 76.9016 30.8C75.3016 30 73.8016 29.7 72.3016 29.7H67.2016V38.7H72.3016C73.1016 38.7 73.9016 38.7 74.6016 38.4C75.4016 38.4 76.2016 38.1 76.7016 37.6C77.9016 37.1 79.0016 35.8 78.7016 34.2Z" fill="#64686F"/>
<path d="M100.095 10.0992C100.095 10.8992 99.7953 11.3992 99.5953 11.8992C99.2953 12.3992 99.0953 12.9992 98.5953 13.4992C98.0953 13.9992 97.5953 14.2992 96.9953 14.5992C96.4953 14.8992 95.6953 14.8992 94.8953 14.8992C93.5953 14.8992 92.2953 14.3992 91.2953 13.5992C90.2953 12.7992 89.6953 11.4992 89.6953 10.1992C89.6953 9.69922 89.9953 8.89922 90.1953 8.39922C90.4953 7.89922 90.6953 7.29922 91.1953 6.79922C91.6953 6.29922 92.1953 5.99922 92.7953 5.69922C93.2953 5.39922 94.0953 5.19922 94.8953 5.19922C95.6953 5.19922 96.1953 5.19922 96.9953 5.49922C97.4953 5.79922 97.9953 5.99922 98.5953 6.59922C99.0953 7.09922 99.3953 7.69922 99.5953 8.19922C100.095 8.79922 100.095 9.59922 100.095 10.0992ZM90.4953 46.2992V18.7992H99.2953V46.2992H90.4953Z" fill="#64686F"/>
<path d="M115.597 25.7016V36.2016C115.597 37.3016 115.897 38.3016 116.397 39.1016C117.197 39.9016 117.997 40.2016 118.997 40.2016C119.497 40.2016 119.997 40.2016 120.297 40.2016C120.797 40.2016 121.097 39.9016 121.597 39.9016V46.5016C120.797 46.8016 119.997 47.0016 119.297 47.0016C118.297 47.3016 117.497 47.3016 116.497 47.3016C114.897 47.3016 113.397 47.0016 111.897 46.5016C110.897 46.0016 109.797 45.4016 109.097 44.4016C108.297 43.6016 107.797 42.6016 107.497 41.2016C107.197 39.8016 107.197 38.3016 107.197 37.0016V25.4016H102.797V18.8016H106.897V11.6016H115.697V18.8016H121.897V25.4016H115.697L115.597 25.7016Z" fill="#64686F"/>
<path d="M153.502 46.2984C150.902 46.7984 148.102 47.3984 145.202 47.0984C142.402 47.0984 139.502 46.5984 136.902 45.4984C134.302 44.6984 132.302 43.0984 130.202 41.2984C128.402 39.4984 126.802 37.2984 125.802 34.6984C123.702 29.1984 123.702 23.2984 125.802 17.7984C126.802 15.3984 128.402 13.0984 130.202 11.1984C132.002 9.39844 134.302 7.99844 136.902 7.19844C139.502 6.09844 142.302 5.89844 144.902 5.89844C147.702 5.89844 150.602 6.39844 153.202 7.19844C155.502 7.99844 157.602 9.29844 159.402 10.8984L154.002 18.2984C153.002 17.1984 151.702 16.1984 150.402 15.6984C148.802 14.8984 147.302 14.5984 145.502 14.5984C143.902 14.5984 142.402 14.8984 141.102 15.3984C138.302 16.6984 136.202 18.7984 135.202 21.6984C134.702 23.2984 134.402 24.8984 134.402 26.3984C134.402 27.8984 134.702 29.7984 135.202 31.3984C135.702 32.6984 136.502 33.9984 137.502 35.3984C138.502 36.4984 139.802 37.4984 141.102 37.9984C142.702 38.4984 144.502 39.0984 146.002 38.7984C147.002 38.7984 148.102 38.7984 149.102 38.4984C149.902 38.1984 150.902 37.9984 151.702 37.6984V30.4984H144.502V22.8984H160.202V43.4984C158.102 44.9984 155.702 45.7984 153.502 46.2984Z" fill="#64686F"/>
<path d="M193.198 32.6C193.198 34.7 192.898 36.8 191.898 38.7C191.098 40.5 190.098 42.1 188.798 43.4C187.498 44.7 185.698 45.8 184.198 46.3C180.598 47.6 176.498 47.6 172.798 46.3C170.998 45.5 169.398 44.7 168.198 43.4C166.898 42.1 165.598 40.5 165.098 38.7C163.498 34.7 163.498 30.5 165.098 26.5C165.898 24.7 166.898 23.3 168.198 22C169.498 20.7 171.298 19.9 172.798 19.1C176.398 17.8 180.498 17.8 184.198 19.1C185.998 19.6 187.598 20.7 188.798 22C190.098 23.3 191.398 24.6 191.898 26.5C192.898 28.4 193.198 30.5 193.198 32.6ZM184.598 32.6C184.598 31.8 184.298 30.8 184.098 30C183.798 29.2 183.298 28.4 182.798 27.9C182.298 27.4 181.498 26.8 180.698 26.3C178.898 25.5 177.098 25.5 175.298 26.3C174.498 26.6 173.698 27.1 173.198 27.9C172.698 28.4 172.198 29.2 171.898 30C171.598 30.8 171.398 31.8 171.398 32.6C171.398 33.4 171.698 34.4 171.898 35.2C172.198 36 172.698 36.8 173.198 37.6C173.698 38.4 174.498 38.9 175.298 39.2C177.098 40 178.898 40 180.698 39.2C181.498 38.9 182.298 38.1 182.798 37.6C183.298 36.8 183.798 36 184.098 35.2C184.598 34.2 184.598 33.4 184.598 32.6Z" fill="#64686F"/>
</svg>
