<svg width="196" height="53" viewBox="0 0 196 53" fill="none" xmlns="http://www.w3.org/2000/svg">
<path d="M21.1969 9.79844C22.8969 10.3984 24.1969 11.2984 25.0969 12.4984C25.9969 13.6984 26.4969 14.9984 26.4969 16.5984C26.4969 18.1984 25.9969 19.5984 25.0969 20.7984C24.1969 21.9984 22.8969 22.7984 21.1969 23.1984C23.1969 23.5984 24.6969 24.4984 25.7969 25.8984C26.8969 27.2984 27.4969 28.9984 27.4969 30.9984C27.4969 32.6984 26.9969 34.1984 26.0969 35.4984C25.1969 36.7984 23.7969 37.7984 21.9969 38.3984C20.2969 39.0984 18.0969 39.3984 15.7969 39.3984H0.796875V8.89844H15.1969C17.5969 8.89844 19.4969 9.19844 21.1969 9.79844ZM17.3969 20.1984C17.9969 19.5984 18.2969 18.8984 18.2969 17.9984C18.2969 17.0984 17.9969 16.2984 17.3969 15.8984C16.7969 15.3984 15.8969 15.1984 14.7969 15.1984H8.79687V21.0984H14.8969C15.8969 20.9984 16.7969 20.6984 17.3969 20.1984ZM18.0969 32.2984C18.8969 31.6984 19.2969 30.8984 19.2969 29.8984C19.2969 28.9984 18.8969 28.1984 18.0969 27.5984C17.2969 26.9984 16.1969 26.6984 14.7969 26.7984H8.79687V33.1984H14.8969C16.1969 33.0984 17.2969 32.8984 18.0969 32.2984Z" fill="#64686F"/>
<path d="M38.5 6.09844C39.3 6.89844 39.7 7.79844 39.7 9.09844C39.7 10.2984 39.3 11.2984 38.5 11.9984C37.7 12.7984 36.8 13.1984 35.6 13.1984C34.4 13.1984 33.5 12.7984 32.7 11.9984C31.9 11.1984 31.5 10.2984 31.5 9.09844C31.5 7.89844 31.9 6.89844 32.7 6.09844C33.5 5.29844 34.4 4.89844 35.6 4.89844C36.7 4.99844 37.8 5.39844 38.5 6.09844ZM31.8 15.7984H39.4V39.2984H31.8V15.7984Z" fill="#64686F"/>
<path d="M60.6047 38.1C59.7047 38.6 58.7047 39 57.6047 39.3C56.5047 39.5 55.3047 39.7 54.2047 39.7C51.9047 39.7 50.0047 39.1 48.6047 37.7C47.2047 36.4 46.5047 34.5 46.5047 32.2V22.1H43.3047V17H46.5047V10.5H54.1047V17H60.2047V22.1H54.1047V31C54.1047 32.7 54.8047 33.4 56.1047 33.4C57.0047 33.4 57.9047 33.2 59.1047 32.6L60.6047 38.1Z" fill="#64686F"/>
<path d="M86.6031 15.8016V37.2016C86.6031 39.4016 86.0031 41.3016 85.0031 42.9016C83.9031 44.6016 82.4031 45.8016 80.5031 46.7016C78.6031 47.6016 76.3031 48.0016 73.8031 48.0016C71.8031 48.0016 69.9031 47.8016 68.1031 47.2016C66.3031 46.6016 64.7031 45.9016 63.3031 45.0016L66.0031 39.6016C67.1031 40.3016 68.2031 40.9016 69.5031 41.3016C70.8031 41.7016 72.0031 41.9016 73.3031 41.9016C75.0031 41.9016 76.4031 41.5016 77.4031 40.7016C78.4031 39.9016 78.9031 38.8016 78.9031 37.4016V35.0016C77.3031 37.0016 75.1031 38.0016 72.2031 38.0016C70.2031 38.0016 68.5031 37.5016 67.0031 36.6016C65.5031 35.7016 64.3031 34.3016 63.5031 32.6016C62.6031 30.9016 62.2031 28.9016 62.2031 26.7016C62.2031 24.5016 62.6031 22.6016 63.5031 20.9016C64.3031 19.2016 65.5031 17.9016 67.0031 17.0016C68.5031 16.1016 70.2031 15.6016 72.1031 15.6016C73.5031 15.6016 74.9031 15.8016 76.0031 16.4016C77.2031 17.0016 78.1031 17.7016 78.9031 18.7016V15.9016H86.6031V15.8016ZM77.6031 30.8016C78.5031 29.8016 78.9031 28.4016 78.9031 26.9016C78.9031 25.2016 78.4031 23.9016 77.6031 22.9016C76.7031 21.9016 75.6031 21.4016 74.2031 21.4016C72.8031 21.4016 71.6031 22.0016 70.7031 23.0016C69.8031 24.0016 69.4031 25.4016 69.4031 26.9016C69.4031 28.6016 69.9031 29.8016 70.7031 30.8016C71.6031 31.8016 72.7031 32.3016 74.2031 32.3016C75.6031 32.4016 76.8031 31.9016 77.6031 30.8016Z" fill="#64686F"/>
<path d="M111.305 18.9008C113.305 21.2008 114.405 24.3008 114.405 28.2008C114.405 28.8008 114.405 29.3008 114.305 29.6008H98.0047C98.4047 30.9008 99.0047 32.0008 100.005 32.7008C100.905 33.4008 102.005 33.7008 103.405 33.7008C104.405 33.7008 105.405 33.5008 106.305 33.1008C107.205 32.7008 108.105 32.1008 108.905 31.3008L112.905 35.3008C111.705 36.6008 110.205 37.7008 108.505 38.4008C106.805 39.1008 104.805 39.4008 102.705 39.4008C100.205 39.4008 98.0047 38.9008 96.1047 37.9008C94.2047 37.0008 92.8047 35.5008 91.8047 33.7008C90.8047 31.9008 90.3047 29.8008 90.3047 27.5008C90.3047 25.1008 90.8047 23.0008 91.8047 21.1008C92.8047 19.3008 94.2047 17.9008 96.1047 16.8008C97.9047 15.8008 100.105 15.3008 102.505 15.3008C106.305 15.5008 109.205 16.7008 111.305 18.9008ZM106.905 25.6008C106.905 24.3008 106.505 23.2008 105.705 22.3008C104.905 21.5008 103.905 21.0008 102.605 21.0008C101.405 21.0008 100.405 21.4008 99.5047 22.2008C98.7047 23.0008 98.2047 24.1008 97.8047 25.5008L106.905 25.6008Z" fill="#64686F"/>
<path d="M139.898 18C141.498 19.7 142.198 21.8 142.198 24.6V39.4H134.598V26.7C134.598 25.4 134.198 24.3 133.498 23.5C132.798 22.7 131.798 22.3 130.598 22.3C129.298 22.3 128.298 22.8 127.498 23.6C126.698 24.4 126.198 25.5 126.098 26.8V39.2H118.398V15.8H126.098V19.6C126.998 18.3 127.998 17.2 129.298 16.5C130.598 15.8 132.098 15.5 133.898 15.5C136.398 15.5 138.398 16.3 139.898 18Z" fill="#64686F"/>
<path d="M181.198 17.7014C182.998 19.2014 183.898 21.3014 183.998 24.0014V39.3014H176.498V36.6014C174.898 38.6014 172.598 39.6014 169.398 39.6014C166.898 39.6014 164.998 38.9014 163.498 37.5014C162.098 36.2014 161.398 34.3014 161.398 32.2014C161.398 30.0014 162.198 28.3014 163.698 27.0014C165.298 25.7014 167.498 25.1014 170.398 25.1014H176.498V25.0014C176.498 23.9014 176.098 23.0014 175.298 22.4014C174.498 21.8014 173.398 21.5014 171.998 21.5014C171.098 21.5014 169.898 21.7014 168.698 22.0014C167.398 22.3014 166.298 22.8014 164.998 23.4014L162.898 18.2014C164.798 17.3014 166.598 16.7014 168.398 16.3014C170.098 15.9014 171.898 15.7014 173.798 15.7014C176.898 15.5014 179.398 16.2014 181.198 17.7014ZM174.698 33.6014C175.598 33.0014 176.098 32.3014 176.398 31.4014V29.3014H171.798C169.598 29.3014 168.598 30.1014 168.598 31.7014C168.598 32.5014 168.898 33.1014 169.498 33.6014C170.098 34.1014 170.798 34.3014 171.798 34.3014C172.798 34.4014 173.798 34.2014 174.698 33.6014Z" fill="#64686F"/>
<path d="M194.205 33.1992C194.905 33.8992 195.205 34.7992 195.205 35.8992C195.205 36.9992 194.905 37.8992 194.205 38.5992C193.505 39.2992 192.605 39.5992 191.505 39.5992C190.405 39.5992 189.505 39.2992 188.805 38.5992C188.105 37.8992 187.805 36.9992 187.805 35.8992C187.805 34.7992 188.105 33.8992 188.805 33.1992C189.505 32.4992 190.405 32.1992 191.505 32.1992C192.505 32.1992 193.505 32.4992 194.205 33.1992Z" fill="#64686F"/>
<path d="M155.203 6.2C156.003 7 156.403 7.9 156.403 9.2C156.403 10.4 156.003 11.4 155.203 12.1C154.403 12.9 153.503 13.3 152.303 13.3C151.103 13.3 150.203 12.9 149.403 12.1C148.603 11.3 148.203 10.4 148.203 9.2C148.203 8 148.603 7 149.403 6.2C150.203 5.4 151.103 5 152.303 5C153.403 5.1 154.403 5.5 155.203 6.2ZM148.503 15.9H156.103V39.4H148.503V15.9Z" fill="#64686F"/>
</svg>
