<svg width="196" height="53" viewBox="0 0 196 53" fill="none" xmlns="http://www.w3.org/2000/svg">
<path d="M37.9016 13H30.5016L28.1016 15.4V40H47.7016L50.2016 37.5V32.6H37.9016V13Z" stroke="#64686F" stroke-width="0.8179" stroke-miterlimit="10"/>
<path d="M64.9016 13H57.5016L55.1016 15.4V40H74.7016L77.1016 37.5V32.6H64.9016V13Z" stroke="#64686F" stroke-width="0.8179" stroke-miterlimit="10"/>
<path d="M91.9 37.5L89.4 40H82L82.1 15.4L84.5 13H91.9V37.5Z" stroke="#64686F" stroke-width="0.8179" stroke-miterlimit="10"/>
<path d="M118.897 30.1H106.597V37.5L104.097 40H96.7969V15.4L99.1969 13H121.297V27.7L118.897 30.1Z" stroke="#64686F" stroke-width="0.8179" stroke-miterlimit="10"/>
<path d="M126.195 20.3V15.4L128.695 13H153.195V17.9L150.795 20.3H143.395V37.5L140.895 40H133.595V20.3H126.195Z" stroke="#64686F" stroke-width="0.8179" stroke-miterlimit="10"/>
<path d="M182.598 20.3H192.498L194.898 17.9V13H175.298L172.898 15.4V40H192.498L194.898 37.5V32.6H182.598V30.1V22.8V20.3Z" stroke="#64686F" stroke-width="0.8179" stroke-miterlimit="10"/>
<path d="M10.9016 20.3V22.8H20.7016V27.7L18.3016 30.1H10.9016V32.6H23.2016V37.5L20.7016 40H1.10156V15.4L3.50156 13H23.2016V17.9L20.7016 20.3H10.9016Z" stroke="#64686F" stroke-width="0.8179" stroke-miterlimit="10"/>
<path d="M1.10156 15.4023H20.7016V20.6023H8.40156V25.2023H18.2016V30.5023H8.40156V35.1023H20.7016V40.0023H1.10156V15.4023Z" fill="#64686F"/>
<path d="M167.902 37.5L165.502 40H158.102V15.4L160.602 13H167.902V37.5Z" stroke="#64686F" stroke-width="0.8179" stroke-miterlimit="10"/>
<path d="M106.602 20.3008V22.8008H114.002" stroke="#64686F" stroke-width="0.8179" stroke-miterlimit="10"/>
<path d="M28.1016 15.4023H35.5016V35.0023H47.8016V40.0023H28.1016V15.4023Z" fill="#64686F"/>
<path d="M55.1016 15.4023H62.5016V35.0023H74.8016V40.0023H55.1016V15.4023Z" fill="#64686F"/>
<path d="M82 15.4023H89.4V35.0023V40.0023H82V15.4023Z" fill="#64686F"/>
<path d="M158.102 15.4023H165.502V35.0023V40.0023H158.102V15.4023Z" fill="#64686F"/>
<path d="M118.897 15.4023H96.7969V39.9023H104.197V30.4023H118.897V15.4023ZM113.997 25.2023H104.197V20.3023H113.997V25.2023Z" fill="#64686F"/>
<path d="M131.095 15.4023H126.195V20.3023H133.595V40.0023H140.895V20.7023H150.795V15.4023H131.095Z" fill="#64686F"/>
<path d="M192.498 15.4023H172.898V40.0023H192.498V35.1023H180.198V20.7023H192.498V15.4023Z" fill="#64686F"/>
</svg>
