<svg width="196" height="53" viewBox="0 0 196 53" fill="none" xmlns="http://www.w3.org/2000/svg">
<path d="M7.3 49.6984H49.9C53.1 49.6984 55.7 46.7984 55.7 43.2984V9.79844C55.7 6.29844 53.1 3.39844 49.9 3.39844H7.3C4.1 3.39844 1.5 6.29844 1.5 9.79844V43.2984C1.5 46.7984 4.1 49.6984 7.3 49.6984Z" stroke="#64686F" stroke-width="0.805" stroke-miterlimit="10"/>
<path d="M25.8012 39.9016C22.9012 39.9016 19.9012 39.9016 17.0012 39.9016C14.2012 39.9016 12.7012 37.4016 13.9012 34.9016C16.8012 28.9016 19.8012 22.8016 22.8012 16.8016C24.0012 14.4016 26.0012 13.1016 28.7012 13.1016C34.0012 13.1016 39.4012 13.1016 44.7012 13.1016C45.7012 13.1016 46.0012 13.5016 45.5012 14.4016C44.9012 15.6016 44.3012 16.7016 43.8012 17.9016C43.6012 18.3016 43.3012 18.4016 42.9012 18.4016C38.1012 18.4016 33.3012 18.4016 28.4012 18.4016C27.6012 18.4016 27.1012 18.6016 26.8012 19.4016C24.7012 23.9016 22.5012 28.3016 20.3012 32.8016C20.2012 33.0016 20.1012 33.2016 20.0012 33.4016C19.8012 34.0016 20.1012 34.5016 20.7012 34.5016C20.9012 34.5016 21.1012 34.5016 21.2012 34.5016C26.3012 34.5016 31.4012 34.5016 36.5012 34.5016C37.6012 34.5016 37.8012 34.9016 37.4012 35.8016C36.8012 37.0016 36.2012 38.1016 35.7012 39.3016C35.5012 39.7016 35.3012 39.8016 34.9012 39.8016C31.9012 39.9016 28.9012 39.9016 25.8012 39.9016Z" fill="#64686F"/>
<path d="M32.3014 23.7992C33.7014 23.7992 35.2014 23.7992 36.6014 23.7992C37.5014 23.7992 37.8014 24.1992 37.4014 24.9992C36.8014 26.2992 36.2014 27.4992 35.6014 28.6992C35.5014 28.8992 35.2014 29.0992 35.0014 29.0992C32.0014 29.0992 29.0014 29.0992 26.0014 29.0992C25.2014 29.0992 24.9014 28.5992 25.3014 27.8992C25.9014 26.6992 26.5014 25.3992 27.1014 24.1992C27.3014 23.7992 27.5014 23.6992 27.9014 23.6992C29.3014 23.8992 30.8014 23.7992 32.3014 23.7992Z" fill="#64686F"/>
<path d="M11.897 29.2008C11.297 29.2008 10.697 29.2008 10.097 29.2008C9.39709 29.2008 9.09709 28.7008 9.39709 28.1008C9.99709 26.8008 10.597 25.5008 11.297 24.2008C11.397 24.0008 11.697 23.8008 11.897 23.8008C13.097 23.8008 14.397 23.8008 15.597 23.8008C16.297 23.8008 16.597 24.2008 16.297 24.9008C15.697 26.2008 14.997 27.5008 14.397 28.8008C14.297 29.0008 13.997 29.1008 13.797 29.1008C13.097 29.2008 12.497 29.2008 11.897 29.2008Z" fill="#64686F"/>
<path d="M76.0984 36.2008V28.4008H88.6984V24.5008H76.0984V16.7008H89.5984V12.8008H71.3984V40.1008H89.7984V36.2008H76.0984Z" fill="#64686F"/>
<path d="M113.2 12.8008V30.3008C113.2 31.5008 112.9 32.5008 112.4 33.4008C111.9 34.3008 111.1 35.0008 110.1 35.5008C109.1 36.0008 107.9 36.3008 106.5 36.3008C105.1 36.3008 103.9 36.0008 102.9 35.5008C101.9 35.0008 101.1 34.3008 100.6 33.4008C100.1 32.5008 99.8 31.4008 99.8 30.3008V12.8008H95V30.7008C95 32.6008 95.5 34.3008 96.4 35.8008C97.4 37.3008 98.7 38.4008 100.4 39.3008C102.1 40.1008 104.1 40.6008 106.4 40.6008C108.7 40.6008 110.7 40.2008 112.4 39.3008C114.1 38.5008 115.5 37.3008 116.4 35.8008C117.4 34.3008 117.8 32.6008 117.8 30.7008V12.8008H113.2Z" fill="#64686F"/>
<path d="M139.105 29.1008C139.305 29.0008 139.505 28.9008 139.705 28.8008C141.205 28.1008 142.305 27.1008 143.105 25.8008C143.805 24.5008 144.205 23.0008 144.205 21.4008C144.205 19.7008 143.805 18.2008 143.105 16.9008C142.405 15.6008 141.205 14.6008 139.705 13.9008C138.205 13.2008 136.305 12.8008 134.105 12.8008H123.805V40.0008H128.505V29.9008H134.105C134.205 29.9008 134.205 29.9008 134.305 29.9008L140.105 40.1008H145.505L139.105 29.1008ZM128.505 16.7008H133.705C135.105 16.7008 136.205 16.9008 137.105 17.3008C137.905 17.7008 138.505 18.2008 138.905 18.9008C139.305 19.6008 139.505 20.5008 139.505 21.4008C139.505 22.4008 139.305 23.2008 138.905 23.9008C138.505 24.6008 137.905 25.1008 137.105 25.5008C136.305 25.9008 135.105 26.0008 133.805 26.0008H128.605V16.7008H128.505Z" fill="#64686F"/>
<path d="M168.705 29.3023C168.205 28.4023 167.505 27.7023 166.705 27.1023C165.905 26.5023 165.005 26.0023 164.005 25.7023C163.005 25.3023 162.105 25.1023 161.205 24.8023L158.405 24.1023C157.905 24.0023 157.305 23.8023 156.705 23.6023C156.105 23.4023 155.605 23.1023 155.105 22.8023C154.605 22.5023 154.205 22.1023 153.905 21.7023C153.605 21.3023 153.505 20.8023 153.505 20.2023C153.505 19.5023 153.705 18.8023 154.205 18.3023C154.605 17.7023 155.305 17.3023 156.105 16.9023C156.905 16.6023 157.905 16.4023 159.005 16.4023C160.605 16.4023 161.905 16.7023 162.905 17.4023C163.905 18.1023 164.505 19.0023 164.605 20.1023V20.3023H169.105V20.1023C169.105 18.6023 168.605 17.3023 167.705 16.1023C166.805 15.0023 165.605 14.1023 164.105 13.4023C162.605 12.8023 160.905 12.4023 158.905 12.4023C157.005 12.4023 155.205 12.7023 153.705 13.4023C152.205 14.1023 150.905 15.0023 150.005 16.2023C149.105 17.4023 148.605 18.8023 148.605 20.4023C148.605 22.3023 149.305 23.9023 150.705 25.1023C152.005 26.3023 153.905 27.1023 156.205 27.7023L159.605 28.6023C160.605 28.8023 161.505 29.1023 162.305 29.5023C163.105 29.8023 163.705 30.2023 164.205 30.7023C164.605 31.2023 164.905 31.8023 164.905 32.5023C164.905 33.3023 164.605 34.0023 164.105 34.7023C163.605 35.3023 162.905 35.8023 161.905 36.2023C161.005 36.6023 159.905 36.7023 158.705 36.7023C157.605 36.7023 156.605 36.5023 155.705 36.2023C154.805 35.9023 154.105 35.4023 153.505 34.8023C152.905 34.2023 152.605 33.4023 152.505 32.5023V32.3023H147.805V32.5023C147.905 34.1023 148.405 35.6023 149.305 36.8023C150.205 38.0023 151.505 38.9023 153.005 39.6023C154.605 40.2023 156.505 40.6023 158.605 40.6023C160.805 40.6023 162.805 40.3023 164.405 39.6023C166.005 38.9023 167.205 37.9023 168.105 36.7023C168.905 35.5023 169.405 34.1023 169.405 32.5023C169.505 31.2023 169.205 30.1023 168.705 29.3023Z" fill="#64686F"/>
<path d="M172.102 12.8008V16.7008H180.902V40.1008H185.602V16.7008H194.502V12.8008H172.102Z" fill="#64686F"/>
</svg>
