<svg width="45" height="17" viewBox="0 0 45 17" fill="none" xmlns="http://www.w3.org/2000/svg">
<mask id="mask0_907_9095" style="mask-type:luminance" maskUnits="userSpaceOnUse" x="0" y="0" width="45" height="16">
<path d="M44.5156 0.882812H0.515625V15.8828H44.5156V0.882812Z" fill="white"/>
</mask>
<g mask="url(#mask0_907_9095)">
<path d="M17.1274 1.62964L11.4543 15.1693H7.75171L4.96031 4.36485C4.78974 3.6986 4.64324 3.45579 4.12751 3.17484C3.28066 2.71931 1.89599 2.28986 0.671875 2.02296L0.756159 1.62161H6.71422C7.10229 1.6232 7.47709 1.76308 7.77132 2.01612C8.06556 2.26916 8.25996 2.6188 8.31962 3.00226L9.79459 10.8387L13.451 1.62964H17.1274ZM31.6362 10.7504C31.6503 7.17631 26.6936 6.97965 26.7277 5.38227C26.7377 4.89664 27.2013 4.37889 28.2127 4.24845C29.3971 4.13394 30.5905 4.34196 31.6663 4.85048L32.2824 1.98483C31.2351 1.59122 30.1261 1.38737 29.0074 1.38281C25.5557 1.38281 23.1095 3.223 23.0874 5.85988C23.0653 7.80443 24.8273 8.8961 26.1578 9.54428C27.5224 10.2065 27.9819 10.632 27.9759 11.226C27.9759 12.1351 26.8862 12.5344 25.8808 12.5505C24.1189 12.5786 23.0975 12.0749 22.2827 11.6956L21.6426 14.6616C22.4613 15.0389 23.9724 15.366 25.5397 15.382C29.2181 15.382 31.6262 13.5639 31.6382 10.7504H31.6362ZM40.779 15.1653H44.0179L41.1904 1.62964H38.1983C37.8792 1.62828 37.5669 1.72205 37.3013 1.89897C37.0358 2.0759 36.8289 2.32797 36.7073 2.62298L31.4556 15.1693H35.132L35.8624 13.1485H40.3556L40.779 15.1653ZM36.8698 10.3731L38.714 5.28795L39.7756 10.3731H36.8698ZM22.1442 1.62964L19.2385 15.1693H15.7347L18.6324 1.62964H22.1442Z" fill="#1A1F71"/>
</g>
</svg>
