<svg width="80" height="80" viewBox="0 0 80 80" fill="none" xmlns="http://www.w3.org/2000/svg">
<g clip-path="url(#clip0_983_2954)">
<path d="M49.9952 38.7537C49.9952 39.0764 49.9952 39.3397 49.9952 39.6029C49.9952 42.8728 49.9929 46.1427 49.9989 49.4127C49.9995 49.7273 50.0084 50.0531 50.0878 50.3542C50.2459 50.9536 50.7043 51.2426 51.2915 51.214C51.9129 51.1837 52.338 50.8267 52.442 50.1854C52.4845 49.9232 52.4624 49.6497 52.4624 49.3814C52.4631 40.0597 52.463 30.7381 52.4633 21.4165C52.4633 21.1481 52.4491 20.878 52.475 20.6117C52.5847 19.4813 53.4558 18.7006 54.5243 18.7611C55.5234 18.8177 56.2395 19.6292 56.2414 20.7527C56.2483 25.023 56.2445 29.2935 56.2446 33.5639C56.2446 33.759 56.2416 33.9544 56.2454 34.1495C56.2622 35.0223 56.729 35.585 57.4526 35.6078C58.1466 35.6296 58.6404 35.1269 58.7421 34.2948C58.8845 33.1318 59.656 32.4436 60.7359 32.5164C61.6851 32.5805 62.4211 33.3636 62.5059 34.4304C62.5387 34.8429 62.5036 35.2605 62.5282 35.6741C62.5676 36.3353 62.998 36.7774 63.6215 36.8302C64.2634 36.8845 64.7539 36.5367 64.9155 35.9011C64.9636 35.7126 64.9853 35.5173 65.0202 35.3253C65.1884 34.3986 65.9554 33.7247 66.8374 33.7284C67.7666 33.7323 68.6019 34.4934 68.7014 35.4611C68.7461 35.8965 68.7164 36.339 68.7451 36.7768C68.7974 37.5756 69.2541 38.0737 69.9344 38.1007C70.6371 38.1284 71.0943 37.6888 71.2059 36.8785C71.3766 35.6384 72.1161 34.9548 73.2207 35.0159C74.2531 35.0731 74.9842 35.939 74.9851 37.1431C74.9891 42.4629 75.0401 47.7834 74.9482 53.1017C74.9243 54.4857 74.5951 55.9122 74.1476 57.2316C73.0727 60.4018 72.4314 63.6184 72.4862 66.9735C72.5213 69.1204 72.4973 71.2682 72.4941 73.4157C72.4924 74.5639 72.0565 74.9925 70.8932 74.9929C66.1109 74.9949 61.3286 74.9952 56.5463 74.9926C55.4115 74.992 54.9788 74.5416 54.958 73.3849C54.9206 71.2938 55.0656 69.202 54.5654 67.1265C53.7316 63.666 51.6414 61.0071 49.2554 58.5293C48.0002 57.2258 46.9356 55.8225 46.5267 54.028C46.3654 53.3199 46.2554 52.584 46.2483 51.8597C46.2178 48.761 46.2023 45.6612 46.2449 42.5628C46.2754 40.352 47.7001 38.911 49.9952 38.7537Z" fill="#0047FF"/>
<path d="M54.9866 16.1764C54.3032 16.2869 53.6618 16.3148 53.07 16.5005C51.1808 17.0937 50.0239 18.7732 49.9982 20.9203C49.9754 22.8231 49.9928 24.7265 49.9925 26.6295C49.9925 26.8947 49.9925 27.1599 49.9925 27.528C49.6705 27.528 49.4115 27.528 49.1524 27.528C36.2229 27.528 23.2935 27.53 10.3639 27.5266C7.11649 27.5257 5.00378 25.4103 5.00209 22.1733C4.99994 18.1964 4.99855 14.2194 5.00255 10.2426C5.00563 7.12975 7.12603 5.00258 10.2327 5.00196C23.4063 4.99935 36.5797 4.99935 49.7532 5.00196C52.6998 5.00258 54.807 6.87486 54.9641 9.79841C55.0788 11.9339 54.9866 14.0803 54.9866 16.1764ZM32.5146 18.795C32.5146 19.9965 32.4735 21.1626 32.5374 22.3229C32.5591 22.7157 32.7487 23.2233 33.0395 23.442C33.3239 23.656 33.8665 23.6864 34.2392 23.5865C34.8276 23.4288 34.9952 22.8744 34.9958 22.3013C34.9991 19.4481 34.9997 16.5947 34.9903 13.7415C34.9892 13.4271 34.9307 13.1109 34.8779 12.7991C34.4733 10.4044 32.2845 8.71204 29.701 8.79101C27.3973 8.86135 25.1756 10.7989 25.0852 13.0923C24.9606 16.2577 25.0338 19.4313 25.0477 22.6013C25.0504 23.2359 25.5616 23.6966 26.1719 23.7402C26.7645 23.7825 27.3188 23.3649 27.4274 22.7469C27.4859 22.414 27.4807 22.0678 27.4832 21.7275C27.4898 20.7606 27.4855 19.7935 27.4855 18.795H32.5146ZM14.9742 18.7519C15.9035 18.7519 16.73 18.779 17.5542 18.747C20.4182 18.6356 22.5117 16.4464 22.4606 13.6407C22.4103 10.8782 20.2569 8.80763 17.4011 8.78469C16.2559 8.77546 15.1105 8.77684 13.9653 8.785C12.9731 8.79208 12.5189 9.20551 12.5151 10.2037C12.4995 14.249 12.5006 18.2946 12.5163 22.3399C12.5197 23.2048 13.063 23.7589 13.7806 23.7402C14.5106 23.7211 14.967 23.1734 14.9726 22.285C14.9798 21.1438 14.9742 20.003 14.9742 18.7519ZM42.4939 12.9333C41.6007 11.7469 40.7593 10.6188 39.9065 9.49965C39.3293 8.74237 38.6419 8.56982 38.0297 9.00696C37.3768 9.47302 37.3379 10.1754 37.9409 10.987C38.93 12.3182 39.946 13.6299 40.9106 14.9784C41.1189 15.2695 41.2531 15.6801 41.2588 16.0383C41.2913 18.1121 41.2487 20.1872 41.2973 22.2604C41.307 22.6738 41.4982 23.2065 41.7968 23.4525C42.0623 23.6714 42.6204 23.6789 42.9993 23.5825C43.5673 23.4382 43.7146 22.907 43.7151 22.3569C43.7166 20.3314 43.7369 18.3056 43.7058 16.2806C43.6966 15.6831 43.8553 15.2139 44.2204 14.7445C45.2383 13.4358 46.2155 12.0954 47.204 10.7639C47.5444 10.3053 47.636 9.75747 47.2443 9.35374C46.9608 9.0616 46.4618 8.82548 46.0687 8.83964C45.7331 8.85165 45.3375 9.19643 45.0971 9.49688C44.2182 10.5953 43.3929 11.7367 42.4939 12.9333Z" fill="#0047FF"/>
<path d="M32.4949 16.228H27.5735C27.5735 15.1546 27.4609 14.1013 27.6033 13.0837C27.7631 11.9423 28.9541 11.1951 30.1713 11.2664C31.3574 11.3358 32.3653 12.2179 32.478 13.4233C32.5632 14.3354 32.4949 15.2619 32.4949 16.228Z" fill="#0047FF"/>
<path d="M15.0236 11.3132C16.0758 11.3132 17.1032 11.2175 18.1044 11.3388C19.2256 11.4745 20.0871 12.7202 20.0188 13.8561C19.945 15.0818 19.0309 16.1335 17.8312 16.2339C16.9163 16.3104 15.9899 16.2491 15.0234 16.2491L15.0236 11.3132Z" fill="#0047FF"/>
<path d="M16.0165 65.1807C14.6795 65.1807 13.6015 64.9518 12.7824 64.4941C11.9754 64.0243 11.3852 63.3438 11.0118 62.4525C10.6384 61.5611 10.4517 60.471 10.4517 59.1822C10.4517 57.8934 10.6384 56.8033 11.0118 55.912C11.3852 55.0206 11.9754 54.3461 12.7824 53.8884C13.6015 53.4186 14.6795 53.1837 16.0165 53.1837C18.016 53.1837 19.4434 53.7017 20.2986 54.7376C21.1538 55.7614 21.5814 57.2429 21.5814 59.1822C21.5814 61.1094 21.1538 62.591 20.2986 63.6269C19.4434 64.6627 18.016 65.1807 16.0165 65.1807ZM16.0165 62.2898C16.7995 62.2898 17.3415 62.0309 17.6426 61.5129C17.9558 60.983 18.1124 60.206 18.1124 59.1822C18.1124 58.1463 17.9558 57.3694 17.6426 56.8515C17.3415 56.3335 16.7995 56.0746 16.0165 56.0746C15.2336 56.0746 14.6855 56.3335 14.3724 56.8515C14.0712 57.3694 13.9207 58.1463 13.9207 59.1822C13.9207 60.206 14.0712 60.983 14.3724 61.5129C14.6855 62.0309 15.2336 62.2898 16.0165 62.2898ZM22.485 65V63.4462C22.8223 62.8078 23.2318 62.2356 23.7136 61.7298C24.1954 61.2239 24.7315 60.7059 25.3217 60.1759C25.8155 59.7303 26.213 59.3629 26.5141 59.0738C26.8273 58.7847 27.0562 58.5137 27.2007 58.2608C27.3573 57.9958 27.4356 57.6946 27.4356 57.3574C27.4356 56.5022 26.8755 56.0746 25.7553 56.0746C25.2374 56.0746 24.7315 56.1348 24.2376 56.2552C23.7558 56.3757 23.2981 56.5263 22.8645 56.7069V53.8161C23.3583 53.6234 23.9365 53.4728 24.599 53.3644C25.2614 53.244 25.9299 53.1837 26.6045 53.1837C28.0499 53.1837 29.1279 53.527 29.8386 54.2136C30.5492 54.8881 30.9046 55.7975 30.9046 56.9418C30.9046 57.4838 30.8383 57.9536 30.7058 58.3511C30.5854 58.7365 30.3927 59.0919 30.1277 59.4171C29.8627 59.7423 29.5194 60.0916 29.0978 60.465C28.7244 60.7902 28.357 61.1155 27.9957 61.4407C27.6343 61.7659 27.3452 62.0851 27.1284 62.3983H31.013V65H22.485Z" fill="#0047FF"/>
</g>
<defs>
<clipPath id="clip0_983_2954">
<rect width="70" height="69.993" fill="white" transform="translate(5 5)"/>
</clipPath>
</defs>
</svg>
