<svg width="30" height="21" viewBox="0 0 30 21" fill="none" xmlns="http://www.w3.org/2000/svg">
<mask id="mask0_907_9086" style="mask-type:luminance" maskUnits="userSpaceOnUse" x="0" y="0" width="30" height="20">
<path d="M29.0156 0.882812H0.015625V19.8828H29.0156V0.882812Z" fill="white"/>
</mask>
<g mask="url(#mask0_907_9086)">
<path d="M18.6823 3.55078H10.3516V17.2095H18.6823V3.55078Z" fill="#FF5F00"/>
<path d="M11.2101 10.3879C11.2091 9.07272 11.5061 7.7745 12.0786 6.59152C12.6512 5.40854 13.4843 4.3718 14.515 3.55976C13.2385 2.55272 11.7055 1.9265 10.0912 1.75268C8.47701 1.57885 6.8466 1.86443 5.38637 2.57678C3.92615 3.28913 2.69502 4.3995 1.83371 5.781C0.972385 7.1625 0.515625 8.75938 0.515625 10.3891C0.515625 12.019 0.972385 13.6158 1.83371 14.9973C2.69502 16.3788 3.92615 17.4892 5.38637 18.2016C6.8466 18.9139 8.47701 19.1995 10.0912 19.0257C11.7055 18.8518 13.2385 18.2256 14.515 17.2186C13.484 16.4063 12.6507 15.3692 12.0781 14.1857C11.5055 13.0023 11.2087 11.7036 11.2101 10.3879Z" fill="#EB001B"/>
<path d="M27.6893 15.7675V15.4877H27.8095V15.4297H27.5234V15.4877H27.6364V15.7675H27.6893ZM28.2445 15.7675V15.4297H28.158L28.057 15.671L27.9561 15.4297H27.8695V15.7675H27.932V15.5118L28.0258 15.7313H28.0907L28.1844 15.5118V15.7675H28.2445Z" fill="#F79E1B"/>
<path d="M28.5162 10.3835C28.5162 12.0135 28.0593 13.6104 27.1978 14.992C26.3364 16.3735 25.1051 17.4839 23.6446 18.1961C22.1842 18.9084 20.5537 19.1938 18.9393 19.0197C17.325 18.8456 15.792 18.2191 14.5156 17.2117C15.5458 16.399 16.3787 15.362 16.9514 14.1789C17.5241 12.9959 17.8217 11.6977 17.8217 10.3823C17.8217 9.06699 17.5241 7.76882 16.9514 6.58578C16.3787 5.40273 15.5458 4.36571 14.5156 3.55295C15.792 2.54559 17.325 1.91907 18.9393 1.745C20.5537 1.57092 22.1842 1.85632 23.6446 2.56856C25.1051 3.28081 26.3364 4.39116 27.1978 5.77271C28.0593 7.15425 28.5162 8.75124 28.5162 10.3811V10.3835Z" fill="#F79E1B"/>
</g>
</svg>
