<svg width="40" height="29" viewBox="0 0 40 29" fill="none" xmlns="http://www.w3.org/2000/svg">
<g clip-path="url(#clip0_907_9108)">
<mask id="mask0_907_9108" style="mask-type:luminance" maskUnits="userSpaceOnUse" x="0" y="0" width="40" height="29">
<path d="M39.5312 0.882812H0.53125V28.8828H39.5312V0.882812Z" fill="white"/>
</mask>
<g mask="url(#mask0_907_9108)">
<path d="M2.75786 24.4812H2.32277L1.88769 26.9382H0.53125L1.68294 20.4375H3.47446C4.54938 20.4375 5.47073 20.847 5.47073 22.1266C5.47073 23.739 4.37023 24.4812 2.75786 24.4812ZM3.21853 21.4612H2.86023L2.52752 23.4319H2.88582C3.7048 23.4319 4.06311 23.0224 4.06311 22.229C4.01192 21.7172 3.75599 21.4612 3.21853 21.4612Z" fill="#0047FF"/>
<path d="M8.9268 26.9373H7.67273L7.7751 26.2719C7.54477 26.7325 7.0585 27.0397 6.52104 27.0141C5.9324 27.0141 5.34375 26.5534 5.34375 25.3761C5.34375 23.6869 6.34189 22.4329 7.49358 22.4329C7.85188 22.4073 8.21019 22.5353 8.46612 22.7912L8.51731 22.5353H9.669L8.9268 26.9373ZM7.67273 23.4822C7.18646 23.4822 6.6746 24.3268 6.6746 25.2737C6.6746 25.76 6.77697 26.0415 7.0329 26.0415C7.44239 26.0415 8.00544 25.1202 8.21019 23.9173L8.23578 23.7125C8.10782 23.5334 7.90307 23.4566 7.67273 23.4822Z" fill="#0047FF"/>
<path d="M12.4567 26.6539C11.8169 27.9336 11.1771 28.7013 9.66702 28.8805L9.53906 27.9591C10.1533 27.8056 10.6908 27.4217 10.9979 26.833L11.1259 26.5771L10.358 22.5078H11.6889L12.0216 24.888L13.1221 22.5078H14.5042L12.4567 26.6539Z" fill="#0047FF"/>
<path d="M20.6459 26.9362H19.3918L19.9037 24.0443C19.9293 23.8651 19.9293 23.6859 19.7245 23.6859C19.3406 23.6859 18.624 24.6328 18.4449 25.7333L18.2401 26.9362H16.986L17.4979 24.0443C17.5235 23.8651 17.5235 23.6859 17.3188 23.6859C16.9349 23.6859 16.2182 24.6328 16.0391 25.7333L15.8343 26.9107H14.5547L15.3225 22.5086H16.5766L16.3974 23.5323C16.6789 23.0716 17.114 22.4062 17.8818 22.4062C18.5728 22.4062 18.8543 22.8413 18.8287 23.5579C19.0847 23.1484 19.5454 22.4062 20.3387 22.4062C21.1321 22.4062 21.3881 22.9693 21.2345 23.865L20.6459 26.9362Z" fill="#0047FF"/>
<path d="M23.3344 25.2489C23.36 25.7352 23.5647 25.9655 23.9742 25.9655C24.4349 25.9399 24.8956 25.7608 25.2795 25.5048L25.6378 26.3238C25.1259 26.7333 24.4861 26.9892 23.8207 26.9892C22.8481 26.9892 22.0547 26.503 22.0547 25.1977C22.0547 23.6621 22.8993 22.4336 24.4093 22.4336C25.5354 22.4336 26.0217 22.9199 26.0217 23.6621C25.9961 24.8906 24.998 25.1977 23.3344 25.2489ZM24.3069 23.3294C23.923 23.3294 23.5391 23.8157 23.3856 24.5323C24.2302 24.4299 24.7164 24.2252 24.7164 23.7389C24.742 23.5341 24.5885 23.355 24.3837 23.3294C24.3581 23.355 24.3325 23.355 24.3069 23.3294Z" fill="#0047FF"/>
<path d="M30.1677 26.938H28.9136L29.4255 24.046C29.4511 23.8669 29.4511 23.6877 29.2463 23.6877C28.8624 23.6877 28.1458 24.6347 27.9666 25.7352L27.7619 26.938H26.5078L27.2756 22.536H28.5297L28.3505 23.5597C28.6321 23.0991 29.0672 22.4336 29.835 22.4336C30.6027 22.4336 30.8843 22.9967 30.7307 23.8924L30.1677 26.938Z" fill="#0047FF"/>
<path d="M34.0832 23.4836H33.4178L33.0339 25.659C33.0083 25.8382 33.0595 25.9406 33.2131 25.9406C33.341 25.9406 33.469 25.915 33.5714 25.8382L33.6993 26.7084C33.3922 26.9131 33.0339 27.0411 32.65 27.0411C31.9846 27.0411 31.6007 26.6316 31.7798 25.7358L32.1637 23.4836H31.7031L31.8822 22.5623H32.3429L32.5988 21.6153L33.8017 21.3594L33.5969 22.5623H34.2624L34.0832 23.4836Z" fill="#0047FF"/>
<path d="M37.6153 23.8669C37.3082 23.6365 36.9499 23.5086 36.566 23.483C36.3101 23.483 36.1309 23.5853 36.1309 23.7901C36.1309 23.9948 36.3357 24.0716 36.5916 24.174L36.8475 24.2763C37.4106 24.4299 37.7945 24.9674 37.7945 25.556C37.7945 26.503 37.3082 27.0148 36.1821 27.0148C35.5167 27.0148 34.9024 26.7845 34.3906 26.375L34.8768 25.5048C35.2096 25.7608 35.619 25.9143 36.0541 25.9655C36.3357 25.9655 36.4636 25.8631 36.4636 25.6584C36.4636 25.4536 36.2589 25.3513 36.0029 25.2489L35.747 25.1465C35.184 24.993 34.8001 24.4811 34.8257 23.8924C34.8257 22.8943 35.5935 22.4336 36.566 22.4336C37.1035 22.4336 37.6409 22.6384 38.0504 22.9967L37.6153 23.8669Z" fill="#0047FF"/>
<path d="M20.6513 15.0363H17.9384L17.6825 16.5463H19.7811L19.5764 17.6724H17.4777L16.9915 20.4365H15.6094L16.7611 13.9102H20.856L20.6513 15.0363Z" fill="#0047FF"/>
<path d="M23.6143 20.4373H22.3601L22.4625 19.7719C22.2322 20.2325 21.746 20.5397 21.2085 20.5141C20.6199 20.5141 20.0312 20.0534 20.0312 18.8761C20.0312 17.187 21.0293 15.9329 22.181 15.9329C22.5393 15.9073 22.8976 16.0353 23.1535 16.2912L23.2048 16.0353H24.382L23.6143 20.4373ZM22.3601 16.9822C21.8483 16.9822 21.3621 17.8268 21.3621 18.7481C21.3621 19.2344 21.4645 19.5159 21.7204 19.5159C22.1299 19.5159 22.6928 18.5946 22.8976 17.3917L22.9233 17.187C22.7953 17.0334 22.5905 16.9566 22.3601 16.9822Z" fill="#0047FF"/>
<path d="M27.8888 17.392C27.5817 17.1617 27.2234 17.0337 26.8395 17.0081C26.5836 17.0081 26.4044 17.1105 26.4044 17.3152C26.4044 17.52 26.6091 17.5967 26.8651 17.6991L27.121 17.8015C27.6841 17.9551 28.068 18.4925 28.068 19.0812C28.068 20.0281 27.5817 20.54 26.4556 20.54C25.7902 20.54 25.1759 20.3096 24.6641 19.9001L25.1503 19.03C25.483 19.2859 25.8925 19.465 26.3276 19.5162C26.6091 19.5162 26.7371 19.4139 26.7371 19.2091C26.7371 19.0044 26.5324 18.902 26.2764 18.7996L26.0205 18.6973C25.4575 18.5437 25.048 18.0318 25.0736 17.4432C25.0736 16.4451 25.8669 15.9844 26.8395 15.9844C27.3769 15.9844 27.9144 16.1891 28.3239 16.5474L27.8888 17.392Z" fill="#0047FF"/>
<path d="M31.3957 16.9818H30.7303L30.3464 19.1573C30.3208 19.3364 30.372 19.4388 30.5256 19.4388C30.6535 19.4388 30.7815 19.4132 30.8839 19.3364L31.0118 20.2066C30.7047 20.4113 30.3464 20.5393 29.9625 20.5393C29.2971 20.5393 28.9132 20.1298 29.0923 19.234L29.4762 16.9818H29.0156L29.1947 16.0349H29.6554L29.9113 15.088L31.1142 14.832L30.9094 16.0349H31.5493L31.3957 16.9818Z" fill="#0047FF"/>
<path d="M33.0609 18.7762C33.0865 19.2625 33.2912 19.4928 33.7007 19.4928C34.1614 19.4672 34.6222 19.2881 35.0061 19.0321L35.3643 19.8511C34.8524 20.2606 34.2126 20.5165 33.5472 20.5165C32.5746 20.5165 31.7812 20.0303 31.7812 18.725C31.7812 17.1894 32.6002 15.9609 34.1102 15.9609C35.2363 15.9609 35.7226 16.4472 35.7226 17.1894C35.7226 18.3923 34.7244 18.6738 33.0609 18.7762ZM34.0335 16.8311C33.6496 16.8311 33.2656 17.3174 33.1121 18.034C33.931 17.9316 34.443 17.7269 34.443 17.2406C34.4686 17.0359 34.3149 16.8567 34.1102 16.8311C34.1102 16.8311 34.0591 16.8311 34.0335 16.8311Z" fill="#0047FF"/>
<path d="M39.2764 17.3139C38.6366 17.3139 37.92 17.8514 37.6641 19.2078L37.4593 20.4107H36.1797L36.9475 16.0085H38.1759L38.0224 16.9299C38.3295 16.2645 38.6878 15.9062 39.5068 15.9062L39.2764 17.3139Z" fill="#0047FF"/>
<path d="M20.2356 9.94385C20.2356 10.2765 19.9797 10.5837 19.4934 10.8396L3.03699 18.8247C2.03885 19.311 1.68055 18.9015 2.21801 17.9545L5.238 12.6055C6.15935 10.9676 6.15935 8.97131 5.238 7.33335L2.2436 1.95878C1.70614 1.01184 2.06445 0.602342 3.06258 1.08862L19.519 9.04809C19.9797 9.30402 20.2356 9.61114 20.2356 9.94385Z" fill="#0047FF"/>
</g>
</g>
<defs>
<clipPath id="clip0_907_9108">
<rect width="40" height="29" fill="white"/>
</clipPath>
</defs>
</svg>
