<svg width="53" height="15" viewBox="0 0 53 15" fill="none" xmlns="http://www.w3.org/2000/svg">
<mask id="mask0_907_9101" style="mask-type:luminance" maskUnits="userSpaceOnUse" x="0" y="0" width="53" height="15">
<path d="M52.0234 0.882812H0.0234375V14.8828H52.0234V0.882812Z" fill="white"/>
</mask>
<g mask="url(#mask0_907_9101)">
<path d="M0.0234375 4.6613C0.0234375 4.38281 0.16645 4.2398 0.16645 3.9613C0.444944 2.28281 1.14494 1.58281 2.68795 1.30432C4.64494 0.882813 6.60945 0.882813 8.56644 1.16131C10.5234 1.4398 11.3664 2.5613 11.3664 4.38281V5.22582H8.00945V5.08281C7.86644 3.82582 7.58795 3.68281 6.33096 3.68281H4.93096C4.08795 3.82582 3.67397 4.10431 3.67397 5.08281C3.67397 5.92582 3.95246 6.3398 4.93096 6.3398C5.77397 6.3398 6.60945 6.3398 7.45246 6.48281L9.97397 6.90431C11.0954 7.18281 11.6524 8.02582 11.7954 9.14732C11.7954 10.1258 11.7954 11.2473 11.6524 12.2258C11.5094 13.3473 10.8094 14.0473 9.83096 14.3258C8.98795 14.6043 8.28795 14.7473 7.45246 14.8828H4.93096C4.08795 14.7398 3.25246 14.7398 2.40945 14.6043C1.15246 14.3258 0.30946 13.4828 0.16645 12.2258C0.16645 12.0828 0.0234375 11.8043 0.0234375 11.6688V10.4043H3.38042C3.52343 11.6613 3.80193 12.0828 4.63741 12.0828H7.15892C8.00193 12.0828 8.28042 11.5258 8.28042 10.6828C8.28042 9.8398 7.85891 9.42582 7.15892 9.42582C5.90193 9.28281 4.50193 9.14732 3.23741 9.00431C1.4159 8.8613 0.580427 8.02582 0.294405 6.20431C0.294405 6.0613 0.151395 5.92582 0.151395 5.78281C0.0234384 5.3613 0.0234375 5.08281 0.0234375 4.6613ZM27.1804 14.8828V1.58281C27.1804 1.02582 27.3234 0.882812 27.8804 0.882812C30.2589 0.882812 32.6374 0.882812 35.0234 1.02582C37.5449 1.16883 38.8019 2.42582 38.9449 4.94732C39.0879 6.06883 38.9449 7.19033 38.8019 8.30431C38.5234 9.98281 37.2589 11.1043 35.4449 11.1043H30.6804V14.7473C29.5589 14.8828 28.3019 14.8828 27.1804 14.8828ZM30.6804 8.02582H33.9019C34.7449 8.02582 35.0234 7.60431 35.0234 6.76883V5.36883C35.0234 4.39034 34.6019 3.96883 33.6234 3.82582H31.1019C30.9589 3.82582 30.6804 4.10431 30.6804 4.10431V8.02582ZM37.4019 14.8828C38.2449 11.9398 39.2234 8.8613 40.0589 5.92582C40.6159 4.24733 41.0374 2.56883 41.6019 0.882812H46.9234C47.0664 0.882812 47.3449 1.16131 47.3449 1.30432L51.1234 13.9043C51.2664 14.1828 51.4019 14.6043 51.5449 14.8828H47.7589C47.4804 14.1828 47.3374 13.4828 47.0589 12.7828C46.9159 12.6398 46.7804 12.3613 46.6374 12.3613H42.1589C42.0159 12.3613 41.7374 12.5043 41.7374 12.6398C41.4589 13.3398 41.3159 14.1828 41.1729 14.8828H37.4019ZM44.5449 3.82582H44.4019C43.8449 5.78281 43.2804 7.88281 42.7234 9.84732H46.3664C45.8019 7.7398 45.1019 5.78281 44.5449 3.82582Z" fill="#26367E"/>
<path d="M22.5572 12.6374C20.3142 12.6374 18.6357 11.6589 17.9357 10.1159H22.9787L23.5357 8.5729H17.3712V7.45892L23.6712 7.73741L24.3712 5.92343H17.6496C18.3496 3.96645 20.1712 2.98042 22.5496 2.98042C23.5582 2.9729 24.5518 3.1686 25.4927 3.53741L26.0496 1.58043C25.4927 1.30193 24.2281 1.02344 22.4066 1.02344C18.6281 1.02344 15.6851 2.84494 14.7066 6.06645H13.0281L12.3281 7.60946H14.4281V8.85892H13.1712L12.3281 10.4019H14.7066C15.5572 13.202 18.2217 14.8805 22.0002 14.8805C23.8217 14.8805 25.2217 14.602 25.7787 14.3159L25.3572 12.3589C24.8002 12.502 23.6787 12.645 22.5572 12.6374Z" fill="#FCBD0C"/>
</g>
</svg>
