<svg width="42" height="19" viewBox="0 0 42 19" fill="none" xmlns="http://www.w3.org/2000/svg">
<mask id="mask0_907_9065" style="mask-type:luminance" maskUnits="userSpaceOnUse" x="0" y="0" width="42" height="18">
<path d="M41.4141 0.882812H0.414062V17.8828H41.4141V0.882812Z" fill="white"/>
</mask>
<g mask="url(#mask0_907_9065)">
<path d="M8.12959 4.19656C7.13914 4.19656 6.34012 4.7926 5.82409 4.7926C5.28308 4.7926 4.55897 4.22968 3.70169 4.22968C2.07036 4.22968 0.414062 5.57905 0.414062 8.10395C0.414062 9.68512 1.02997 11.3491 1.78737 12.4335C2.42825 13.3359 3.00255 14.0809 3.81822 14.0809C4.62556 14.0809 4.98345 13.5511 5.99055 13.5511C7.00597 13.5511 7.23902 14.0644 8.12959 14.0644C9.02016 14.0644 9.61111 13.2614 10.1688 12.4667C10.7847 11.5478 11.051 10.6537 11.0594 10.6123C11.0094 10.5957 9.31147 9.90864 9.31147 7.9715C9.31147 6.29927 10.6432 5.55422 10.7181 5.49627C9.84415 4.22968 8.50413 4.19656 8.12959 4.19656ZM7.67182 3.12865C8.07133 2.64023 8.35432 1.97796 8.35432 1.30741C8.35432 1.21635 8.34599 1.12529 8.32935 1.05078C7.68014 1.07562 6.88112 1.48126 6.40671 2.03591C6.04049 2.4581 5.69092 3.12865 5.69092 3.7992C5.69092 3.89854 5.70756 4.00616 5.71589 4.03927C5.7575 4.04755 5.82409 4.05583 5.89067 4.05583C6.48161 4.05583 7.23069 3.65847 7.67182 3.12865Z" fill="black"/>
<path d="M14.3281 1.98828V13.934H16.4755V10.0183H19.0806C21.511 10.0183 23.2089 8.39574 23.2089 6.02812C23.2089 3.61912 21.5693 1.98828 19.1722 1.98828H14.3281ZM16.4755 3.77641H18.6062C20.1543 3.77641 21.0283 4.56285 21.0283 6.02812C21.0283 7.452 20.1294 8.24673 18.5979 8.24673H16.4755V3.77641Z" fill="black"/>
<path d="M27.2378 12.4649C26.3223 12.4649 25.6647 12.0095 25.6647 11.2479C25.6647 10.5111 26.2057 10.0972 27.3626 10.0227L29.4185 9.89023V10.6105C29.4185 11.6619 28.4863 12.4649 27.2378 12.4649ZM26.6302 14.0791C27.8204 14.0791 28.8192 13.5659 29.3269 12.6884H29.4684V13.9301H31.4576V7.74613C31.4576 5.82555 30.1426 4.69141 27.8038 4.69141C25.6398 4.69141 24.1333 5.70965 23.9668 7.30738H25.9144C26.1059 6.69478 26.7551 6.36365 27.7039 6.36365C28.8192 6.36365 29.4185 6.86035 29.4185 7.74613V8.50774L27.0713 8.64848C24.8574 8.78093 23.6172 9.72466 23.6172 11.3638C23.6172 13.0195 24.874 14.0791 26.6302 14.0791Z" fill="black"/>
<path d="M33.7567 17.218C35.7959 17.218 36.7697 16.473 37.5437 14.2213L40.8314 4.875H38.6507L36.5283 11.9447H36.3868L34.2561 4.875H31.9922L35.2465 13.9729L35.1383 14.3703C34.872 15.2064 34.3809 15.5375 33.507 15.5375C33.3655 15.5375 33.0576 15.5293 32.941 15.5044V17.1849C33.0742 17.2098 33.6319 17.218 33.7567 17.218Z" fill="black"/>
</g>
</svg>
