<svg width="48" height="19" viewBox="0 0 48 19" fill="none" xmlns="http://www.w3.org/2000/svg">
<g clip-path="url(#clip0_907_9074)">
<mask id="mask0_907_9074" style="mask-type:luminance" maskUnits="userSpaceOnUse" x="0" y="0" width="48" height="19">
<path d="M47.5078 0.882812H0.507812V18.8828H47.5078V0.882812Z" fill="white"/>
</mask>
<g mask="url(#mask0_907_9074)">
<path d="M22.4927 9.63508V14.9427H20.7969V1.83594H25.2926C26.4319 1.83594 27.4035 2.21317 28.1984 2.96764C29.011 3.72212 29.4173 4.64328 29.4173 5.73112C29.4173 6.84528 29.011 7.76644 28.1984 8.51214C27.4123 9.25784 26.4408 9.62631 25.2926 9.62631H22.4927V9.63508ZM22.4927 3.45016V8.02086H25.3279C25.9991 8.02086 26.5644 7.79276 27.006 7.34534C27.4565 6.89792 27.6861 6.354 27.6861 5.73989C27.6861 5.13456 27.4565 4.59941 27.006 4.15199C26.5644 3.68702 26.008 3.45893 25.3279 3.45893H22.4927V3.45016Z" fill="black"/>
<path d="M33.8454 5.67969C35.0996 5.67969 36.0889 6.01306 36.8132 6.6798C37.5374 7.34655 37.8995 8.25893 37.8995 9.41696V14.9439H36.2832V13.6982H36.2125C35.5147 14.7246 34.5785 15.2334 33.4126 15.2334C32.4145 15.2334 31.5844 14.9439 30.9132 14.3561C30.2419 13.7684 29.9062 13.0402 29.9062 12.1629C29.9062 11.233 30.2596 10.496 30.9661 9.95211C31.6727 9.39941 32.6178 9.12745 33.7925 9.12745C34.7994 9.12745 35.6296 9.31169 36.2744 9.68015V9.29414C36.2744 8.70635 36.0447 8.21507 35.5766 7.80274C35.1085 7.39041 34.5609 7.18863 33.9338 7.18863C32.9888 7.18863 32.238 7.58341 31.6904 8.38175L30.1977 7.45182C31.0191 6.26747 32.2379 5.67969 33.8454 5.67969ZM31.6551 12.1892C31.6551 12.6279 31.8405 12.9963 32.2203 13.2858C32.5913 13.5754 33.0329 13.7245 33.5364 13.7245C34.2518 13.7245 34.8877 13.4613 35.4441 12.9349C36.0006 12.4086 36.2832 11.7944 36.2832 11.0838C35.7533 10.6715 35.0202 10.4609 34.0751 10.4609C33.3862 10.4609 32.8121 10.6276 32.3528 10.9522C31.8847 11.2944 31.6551 11.7067 31.6551 12.1892Z" fill="black"/>
<path d="M47.1203 5.96875L41.4676 18.8825H39.7188L41.8209 14.3644L38.0938 5.96875H39.9396L42.6246 12.4081H42.66L45.2743 5.96875H47.1203Z" fill="black"/>
<path d="M15.7418 8.56829C15.7418 8.0191 15.6923 7.4936 15.6004 6.98828H8.49219V9.88335L12.586 9.88422C12.4199 10.8475 11.8856 11.6687 11.0668 12.2161V14.0944H13.5036C14.9265 12.7863 15.7418 10.8528 15.7418 8.56829Z" fill="#4285F4"/>
<path d="M11.0701 12.2139C10.3919 12.6684 9.5183 12.9342 8.4964 12.9342C6.52237 12.9342 4.84776 11.613 4.24805 9.83203H1.73438V11.7691C2.97974 14.2238 5.53933 15.9082 8.4964 15.9082C10.5402 15.9082 12.2572 15.2406 13.507 14.0913L11.0701 12.2139Z" fill="#34A853"/>
<path d="M4.01128 8.39839C4.01128 7.89833 4.09519 7.41494 4.24799 6.9605V5.02344H1.73431C1.21938 6.03847 0.929688 7.18421 0.929688 8.39839C0.929688 9.61256 1.22027 10.7583 1.73431 11.7733L4.24799 9.83627C4.09519 9.38183 4.01128 8.89844 4.01128 8.39839Z" fill="#FABB05"/>
<path d="M8.4964 3.85684C9.61192 3.85684 10.6108 4.23846 11.3996 4.98416L13.5591 2.84093C12.2475 1.62764 10.5375 0.882812 8.4964 0.882812C5.54022 0.882812 2.97974 2.56721 1.73438 5.02188L4.24805 6.95895C4.84776 5.17804 6.52237 3.85684 8.4964 3.85684Z" fill="#E94235"/>
</g>
</g>
<defs>
<clipPath id="clip0_907_9074">
<rect width="48" height="19" fill="white"/>
</clipPath>
</defs>
</svg>
