<svg width="80" height="80" viewBox="0 0 80 80" fill="none" xmlns="http://www.w3.org/2000/svg">
<g clip-path="url(#clip0_983_2993)">
<path d="M45.0285 63.8634C46.3633 63.8634 47.6505 63.8666 48.9379 63.8628C53.2293 63.8502 56.4652 60.5898 56.4743 56.2506C56.4842 51.5419 56.4767 46.8331 56.4768 42.1244C56.4768 41.8422 56.4768 41.5598 56.4768 41.1985C56.8304 41.1813 57.1287 41.1544 57.427 41.1541C61.4826 41.1513 65.5382 41.1525 69.5938 41.1517C69.852 41.1517 70.1122 41.1635 70.3682 41.1376C71.0651 41.0671 71.5048 40.6176 71.5081 39.9953C71.5117 39.3507 71.025 38.8864 70.2998 38.8511C70.0678 38.8398 69.8349 38.8466 69.6024 38.8466C65.5468 38.8465 61.4911 38.8466 57.4355 38.8465C57.1554 38.8465 56.8752 38.8465 56.5361 38.8465V33.2716C56.8124 33.2716 57.0864 33.2716 57.3604 33.2716C61.4935 33.2716 65.6265 33.2716 69.7596 33.2711C69.992 33.2711 70.227 33.287 70.4564 33.2594C71.079 33.1843 71.4523 32.8065 71.4952 32.1922C71.5385 31.5718 71.2116 31.1474 70.5984 31.0094C70.3254 30.9479 70.0355 30.946 69.7533 30.9458C65.6719 30.9421 61.5905 30.9433 57.5089 30.9433C57.2015 30.9433 56.8939 30.9433 56.562 30.9433C56.4674 29.0954 56.3754 27.2974 56.2793 25.4196C56.4901 25.4196 56.7947 25.4196 57.0992 25.4196C61.3099 25.4196 65.5204 25.4211 69.731 25.4165C70.0385 25.4162 70.3553 25.4125 70.651 25.3402C71.2286 25.199 71.5279 24.7785 71.4966 24.1952C71.4635 23.5769 71.0949 23.1978 70.4783 23.1081C70.2503 23.075 70.0142 23.0961 69.7816 23.0961C65.0544 23.0957 60.3271 23.0894 55.5999 23.1046C55.0545 23.1063 54.6567 22.981 54.2448 22.5685C52.8536 21.1753 51.157 20.4344 49.1716 20.432C47.8073 20.4304 46.443 20.4317 45.0223 20.4317C44.9974 20.1491 44.9611 19.9255 44.9607 19.7019C44.9566 17.5687 44.9455 15.4353 44.9616 13.3023C44.9857 10.0863 47.0765 8.00588 50.2821 8.0038C57.4117 7.99891 64.5413 7.99846 71.6709 8.0041C74.8627 8.00662 76.9749 10.0943 76.9773 13.3193C76.9898 30.3853 76.9673 47.4512 76.9969 64.5171C77.0028 67.8878 74.2942 69.8563 71.6558 69.8196C64.4759 69.7202 57.2938 69.787 50.1125 69.7847C46.8342 69.7837 44.631 67.2661 45.0285 63.8634ZM61.1934 17.515C64.2161 17.515 67.2387 17.5209 70.2612 17.5107C70.9978 17.5082 71.4877 17.0486 71.5079 16.4081C71.5285 15.753 71.0779 15.293 70.329 15.224C70.0725 15.2004 69.8127 15.2107 69.5545 15.2107C65.7052 15.2101 61.8559 15.2101 58.0066 15.2103C56.1208 15.2103 54.2341 15.1827 52.3494 15.2327C51.9294 15.2438 51.4081 15.4264 51.1353 15.7202C50.9237 15.9481 50.8575 16.5971 51.0304 16.8348C51.2743 17.1701 51.7956 17.4792 52.2037 17.4865C55.1995 17.5399 58.1968 17.5157 61.1934 17.515Z" fill="#0047FF"/>
<path d="M29.0866 22.7484C35.6747 22.7484 42.2626 22.7413 48.8506 22.752C51.5142 22.7563 53.4701 24.2729 54.0376 26.7644C54.1457 27.2387 54.1508 27.7441 54.1513 28.235C54.1575 37.4975 54.1015 46.7606 54.1869 56.0225C54.2148 59.0484 51.9409 61.5707 48.7103 61.5551C35.638 61.4916 22.565 61.4923 9.4927 61.556C6.46197 61.5709 3.97949 59.326 4.00013 56.0374C4.05879 46.7752 4.01442 37.5123 4.02386 28.2497C4.02739 24.8402 6.10722 22.7527 9.47766 22.7499C16.014 22.7444 22.5503 22.7483 29.0866 22.7484ZM8.74076 52.2536H49.4406V27.5209H8.74076V52.2536ZM29.0638 57.6702C29.7849 57.6702 30.5071 57.6956 31.2267 57.6631C31.9319 57.6311 32.3493 57.1846 32.3531 56.5381C32.3571 55.8612 31.9113 55.4096 31.1653 55.4007C29.7747 55.3838 28.3838 55.3841 26.9932 55.4011C26.3169 55.4094 25.8389 55.8729 25.8089 56.483C25.7779 57.1105 26.2688 57.6337 26.9782 57.6647C27.6722 57.695 28.3684 57.6709 29.0638 57.6702Z" fill="#0047FF"/>
<path d="M38.622 63.9258V68.5914C39.7325 68.5914 40.758 68.5785 41.783 68.5954C42.6269 68.6094 43.0945 68.991 43.1553 69.6643C43.2147 70.3222 42.8534 70.8281 42.1908 70.9571C41.9158 71.0107 41.6259 70.9969 41.3428 70.9969C33.1841 70.9987 25.0256 70.9984 16.8669 70.9984C16.712 70.9984 16.5569 71.0025 16.4022 70.997C15.536 70.9662 14.9848 70.4822 15.0003 69.7692C15.0152 69.0814 15.5408 68.612 16.3724 68.5963C17.4036 68.577 18.4356 68.5917 19.5454 68.5917V63.9258H38.622Z" fill="#0047FF"/>
</g>
<defs>
<clipPath id="clip0_983_2993">
<rect width="73" height="63" fill="white" transform="translate(4 8)"/>
</clipPath>
</defs>
</svg>
