<svg width="40" height="40" viewBox="0 0 40 40" fill="none" xmlns="http://www.w3.org/2000/svg">
<g clip-path="url(#clip0_907_9883)">
<path d="M19.5122 39.4541C30.2885 39.4541 39.0244 30.7182 39.0244 19.9419C39.0244 9.1656 30.2885 0.429688 19.5122 0.429688C8.73591 0.429688 0 9.1656 0 19.9419C0 30.7182 8.73591 39.4541 19.5122 39.4541Z" fill="#1A1A1D"/>
<path fill-rule="evenodd" clip-rule="evenodd" d="M27.3129 13.1133H25.0482L21.4648 16.8386C20.3793 17.963 18.6358 17.963 17.5503 16.8386L13.9697 13.1133H11.7031L16.418 18.0174C18.126 19.7924 20.8932 19.7924 22.5999 18.0174L27.3129 13.1133ZM11.7031 26.7711H13.9608L17.5595 23.0337C18.641 21.9147 20.3779 21.9147 21.4592 23.0337L25.0568 26.7711H27.3129L22.5873 21.8606C20.8858 20.0941 18.1291 20.0941 16.4288 21.8606L11.7031 26.7711Z" fill="white"/>
</g>
<defs>
<clipPath id="clip0_907_9883">
<rect width="39.0244" height="40" fill="white"/>
</clipPath>
</defs>
</svg>
