<svg width="40" height="40" viewBox="0 0 40 40" fill="none" xmlns="http://www.w3.org/2000/svg">
<g clip-path="url(#clip0_907_10041)">
<path d="M20 40C31.0457 40 40 31.0457 40 20C40 8.95431 31.0457 0 20 0C8.95431 0 0 8.95431 0 20C0 31.0457 8.95431 40 20 40Z" fill="#0088CC"/>
<path fill-rule="evenodd" clip-rule="evenodd" d="M14.4259 13.2148H25.6402C26.0688 13.2148 26.4259 13.2863 26.8545 13.5006C27.3545 13.7148 27.6402 14.072 27.7831 14.3577C27.7831 14.3577 27.7831 14.4291 27.8545 14.4291C28.0688 14.7863 28.2117 15.2148 28.2117 15.7148C28.2117 16.1434 28.1402 16.572 27.8545 17.0006L20.7831 29.1434C20.6402 29.4291 20.3545 29.572 19.9974 29.572C19.7117 29.572 19.4259 29.4291 19.2117 29.1434L12.2831 17.0006C12.1402 16.7148 11.8545 16.3577 11.8545 15.7863C11.7831 15.2863 11.9259 14.8577 12.1402 14.4291C12.3545 14.0006 12.7117 13.6434 13.2117 13.5006C13.6402 13.2148 14.1402 13.2148 14.4259 13.2148ZM19.1402 14.9291H14.4259C14.1402 14.9291 13.9974 14.9291 13.9259 15.0006C13.7831 15.072 13.7117 15.1434 13.6402 15.2863C13.5688 15.3577 13.5688 15.5006 13.5688 15.6434C13.5688 15.7148 13.6402 15.7863 13.7831 16.072L19.1402 25.3577V14.9291ZM20.8545 14.9291V25.4291L26.2831 16.072C26.3545 15.9291 26.3545 15.7863 26.3545 15.6434C26.3545 15.5006 26.3545 15.3577 26.2831 15.2863C26.2117 15.2148 26.2117 15.1434 26.1402 15.1434L26.0688 15.072C25.9259 15.0006 25.7831 15.0006 25.5688 15.0006H20.8545V14.9291Z" fill="white"/>
</g>
<defs>
<clipPath id="clip0_907_10041">
<rect width="40" height="40" fill="white"/>
</clipPath>
</defs>
</svg>
