<svg width="40" height="40" viewBox="0 0 40 40" fill="none" xmlns="http://www.w3.org/2000/svg">
<g clip-path="url(#clip0_907_9746)">
<path d="M20 40C31.0457 40 40 31.0457 40 20C40 8.9543 31.0457 0 20 0C8.9543 0 0 8.9543 0 20C0 31.0457 8.9543 40 20 40Z" fill="#FF060A"/>
<path fill-rule="evenodd" clip-rule="evenodd" d="M28.4292 15.5306C27.7679 14.9203 27.0691 14.2755 26.4523 13.7552L26.3899 13.7137C26.2859 13.6343 26.1687 13.5721 26.0432 13.5296L25.5672 13.4452C22.2828 12.8628 11.6376 10.975 11.4186 11.0003C11.3538 11.0089 11.2919 11.0312 11.2374 11.0656L11.1781 11.1101C11.105 11.1807 11.0495 11.2659 11.0156 11.3595L11 11.3981V11.6415C11.7228 13.5542 13.6002 17.8258 15.3338 21.7699C16.7994 25.1044 18.1621 28.2048 18.6372 29.4478C18.6997 29.632 18.8186 29.9822 19.0402 30H19.0901C19.2088 30 19.7149 29.3647 19.7149 29.3647C19.7149 29.3647 28.7608 18.9386 29.676 17.8283C29.7945 17.6915 29.899 17.5444 29.9884 17.3889C30.0347 17.1415 29.941 16.889 29.7416 16.7239C29.352 16.382 28.8999 15.9649 28.4292 15.5306ZM22.0355 17.9382L25.8963 14.8952L28.1609 16.8783L22.0355 17.9382ZM13.8892 12.5614L20.5362 17.7388L24.6438 14.4465L13.8892 12.5614ZM21.1359 19.0961L27.9391 18.0541L20.1614 26.9602L21.1359 19.0961ZM19.9806 18.7185L12.9869 13.078L18.9685 26.9656L19.9806 18.7185Z" fill="white"/>
</g>
<defs>
<clipPath id="clip0_907_9746">
<rect width="40" height="40" fill="white"/>
</clipPath>
</defs>
</svg>
