<svg width="40" height="40" viewBox="0 0 40 40" fill="none" xmlns="http://www.w3.org/2000/svg">
<g clip-path="url(#clip0_907_9724)">
<path d="M20 40C31.0457 40 40 31.0457 40 20C40 8.9543 31.0457 0 20 0C8.9543 0 0 8.9543 0 20C0 31.0457 8.9543 40 20 40Z" fill="#2775CA"/>
<path fill-rule="evenodd" clip-rule="evenodd" d="M17.1744 28.1879C12.8528 26.6504 10.6365 21.8729 12.2434 17.6445C13.0744 15.3381 14.9028 13.5809 17.1744 12.7572C17.396 12.6474 17.5068 12.4827 17.5068 12.208V11.4393C17.5068 11.2196 17.396 11.0548 17.1744 11C17.1189 11 17.0082 11 16.9527 11.0548C11.6893 12.7023 8.80806 18.2486 10.4703 23.4654C11.4676 26.5405 13.8501 28.9018 16.9527 29.8902C17.1744 30 17.396 29.8902 17.4514 29.6705C17.5068 29.6157 17.5068 29.5608 17.5068 29.451V28.6821C17.5068 28.5174 17.3406 28.2978 17.1744 28.1879ZM23.047 11.0546C22.8253 10.9448 22.6037 11.0546 22.5484 11.2743C22.4929 11.3293 22.4929 11.3841 22.4929 11.494V12.2628C22.4929 12.4825 22.6591 12.702 22.8253 12.8119C27.147 14.3494 29.3632 19.1269 27.7564 23.3553C26.9253 25.6617 25.0969 27.4189 22.8253 28.2426C22.6037 28.3524 22.4929 28.5171 22.4929 28.7918V29.5605C22.4929 29.7802 22.6037 29.945 22.8253 29.9998C22.8808 29.9998 22.9916 29.9998 23.047 29.945C28.3105 28.2976 31.1916 22.7512 29.5294 17.5345C28.5321 14.4044 26.0942 12.0431 23.047 11.0546ZM20.1429 19.5177C22.4812 19.7913 23.6504 20.448 23.6504 22.3635C23.6504 23.8413 22.5369 24.9906 20.8667 25.2643V26.5779C20.811 26.8515 20.6439 27.0157 20.4212 27.0157H19.5861C19.3078 26.9609 19.1407 26.7967 19.1407 26.5779V25.2643C17.3035 24.9906 16.4126 24.0055 16.19 22.6373V22.5825C16.19 22.3635 16.3571 22.1994 16.5797 22.1994H17.5262C17.6932 22.1994 17.8603 22.3089 17.9159 22.5277C18.0829 23.3487 18.5839 23.9508 20.0316 23.9508C21.0893 23.9508 21.8688 23.3488 21.8688 22.4731C21.8688 21.5974 21.3678 21.269 19.8088 20.9954C17.4705 20.7216 16.3571 20.0102 16.3571 18.2041C16.3571 16.8358 17.4148 15.7413 19.085 15.5223V14.2635C19.1407 13.9898 19.3078 13.8256 19.5305 13.8256H20.3656C20.6439 13.8804 20.811 14.0446 20.811 14.2635V15.5771C22.0914 15.6865 23.0936 16.6168 23.3163 17.821V17.8757C23.3163 18.0946 23.1493 18.2588 22.9265 18.2588H22.0358C21.8688 18.2588 21.7018 18.1493 21.6461 17.9852C21.3678 17.1642 20.811 16.8358 19.8088 16.8358C18.6954 16.8358 18.1386 17.3283 18.1386 18.0946C18.1386 18.8609 18.4726 19.2987 20.1429 19.5177Z" fill="white"/>
</g>
<defs>
<clipPath id="clip0_907_9724">
<rect width="40" height="40" fill="white"/>
</clipPath>
</defs>
</svg>
