<svg width="40" height="40" viewBox="0 0 40 40" fill="none" xmlns="http://www.w3.org/2000/svg">
<g clip-path="url(#clip0_907_9794)">
<path d="M20 40C31.0457 40 40 31.0457 40 20C40 8.9543 31.0457 0 20 0C8.9543 0 0 8.9543 0 20C0 31.0457 8.9543 40 20 40Z" fill="#009C72"/>
<path fill-rule="evenodd" clip-rule="evenodd" d="M21.6277 20.5257C21.5368 20.5322 21.0671 20.5588 20.0193 20.5588C19.1859 20.5588 18.5943 20.5351 18.3867 20.5257C15.1661 20.3911 12.7622 19.8586 12.7622 19.2209C12.7622 18.5832 15.1661 18.0515 18.3867 17.9147V19.9953C18.5973 20.0097 19.2003 20.0435 20.0337 20.0435C21.0338 20.0435 21.5345 20.004 21.6247 19.996V17.9162C24.8385 18.0522 27.2371 18.5847 27.2371 19.2209C27.2371 19.8571 24.8392 20.3897 21.6247 20.525L21.6277 20.5257ZM21.6277 17.701V15.8392H26.1128V13H13.9016V15.8392H18.3859V17.7003C14.741 17.8593 12 18.5452 12 19.367C12 20.1888 14.741 20.8741 18.3859 21.0338V27H21.627V21.0317C25.2635 20.8726 28 20.1875 28 19.3663C28 18.5451 25.2665 17.8607 21.6277 17.701Z" fill="white"/>
</g>
<defs>
<clipPath id="clip0_907_9794">
<rect width="40" height="40" fill="white"/>
</clipPath>
</defs>
</svg>
