<svg width="80" height="80" viewBox="0 0 80 80" fill="none" xmlns="http://www.w3.org/2000/svg">
<g clip-path="url(#clip0_1012_1695)">
<path d="M51.454 39.2579C61.0948 39.2784 68.9342 47.1476 68.8836 56.7536C68.8328 66.4003 60.9847 74.1829 51.3454 74.1456C41.7373 74.1084 33.9421 66.2693 33.9767 56.6792C34.0116 47.0037 41.8029 39.2373 51.454 39.2579ZM58.257 50.2416C58.257 49.1567 58.2761 48.0425 58.2372 46.9305C58.2311 46.7547 57.9891 46.4765 57.8122 46.4355C56.8661 46.2155 55.9131 45.9824 54.9495 45.8901C52.8148 45.6857 50.7131 45.9228 48.7629 46.8535C46.5853 47.8928 45.1255 49.6263 44.3527 51.9079C44.1792 52.42 43.9353 52.5981 43.4103 52.5579C42.8149 52.5123 42.2135 52.5473 41.5828 52.5473V55.6616H43.5063V57.9471H41.5844V61.0252C42.1601 61.0252 42.6967 61.0748 43.2199 61.0127C43.8707 60.9353 44.142 61.1879 44.3444 61.8013C44.9907 63.7603 46.2457 65.2348 48.1045 66.1631C50.4089 67.3139 52.8734 67.4787 55.3768 67.2417C56.4015 67.1448 57.4099 66.8752 58.4071 66.6876V62.8145C57.8524 62.9425 57.3401 63.0769 56.8212 63.1776C54.8849 63.5532 52.9512 63.6893 51.0504 62.9965C50.1039 62.6515 49.3871 62.0428 48.9275 61.0088H53.9344V57.9247H48.2252V55.6021H55.4057V52.5532H48.9289C49.1416 52.1901 49.2668 51.9208 49.4409 51.6883C50.6685 50.0491 52.4121 49.6056 54.3236 49.7229C55.6092 49.8019 56.8843 50.0541 58.257 50.2416Z" fill="#0047FF"/>
<path d="M28.0861 61.839C22.9056 61.6521 17.8136 61.4682 12.5961 61.2799C14.0712 59.8285 15.4515 58.47 16.8677 57.0763C15.8695 56.033 14.9636 55.109 14.0829 54.1617C11.9099 51.8241 10.4519 49.1305 10.0557 45.9235C9.8788 44.4903 10.1451 43.1071 10.5452 41.7366C11.1813 39.5579 12.3085 37.6266 13.4776 35.6758C13.7621 36.97 13.9741 38.214 14.3148 39.4219C14.8855 41.4451 15.9353 43.2057 17.4344 44.695C19.3621 46.6102 21.2764 48.5391 23.2369 50.5025C24.6275 49.0955 25.9873 47.7196 27.3472 46.3438C27.4105 46.379 27.4739 46.414 27.5372 46.4492C27.7188 51.5418 27.9005 56.6345 28.0861 61.839Z" fill="#0047FF"/>
<path d="M57.4749 26.4114C56.0494 27.8585 54.7034 29.2248 53.3059 30.6432C53.1234 25.5125 52.9422 20.4206 52.7578 15.2344C57.9171 15.419 63.0131 15.6016 68.1534 15.7856C66.7171 17.2117 65.3411 18.5778 63.9535 19.9557C65.1299 21.2028 66.2418 22.2914 67.2501 23.4689C69.4239 26.0076 70.8346 28.8916 70.8254 32.3096C70.8202 34.1976 70.2169 35.9689 69.4167 37.6546C68.8118 38.929 68.0917 40.1488 67.3403 41.5465C67.1527 40.4918 67.0275 39.617 66.8382 38.7562C66.2807 36.2233 65.1026 34.0313 63.2415 32.2013C61.3533 30.3446 59.5021 28.4501 57.4749 26.4114Z" fill="#0047FF"/>
<path d="M14.1094 23.7021C14.1094 22.9275 14.1094 22.1529 14.1094 21.3783C14.1298 21.2955 14.1619 21.2137 14.1688 21.1299C14.3948 18.3901 15.2712 15.8749 16.755 13.5633C20.4906 7.74305 27.6343 4.84599 34.3658 6.42812C42.7156 8.39065 48.2044 16.3432 47.0182 24.8041C46.4668 28.7365 44.7046 32.0595 41.778 34.7444C39.4342 36.8948 36.6843 38.2536 33.5468 38.8089C32.9678 38.9115 32.3828 38.9805 31.8006 39.0651H29.4762C29.1056 39.0171 28.7343 38.9744 28.3646 38.9201C25.1506 38.4476 22.2908 37.1821 19.8388 35.0456C16.9022 32.4868 15.0632 29.2893 14.3668 25.4493C14.2618 24.8704 14.1942 24.2847 14.1094 23.7021ZM32.1922 29.4507C32.9511 29.3387 33.6664 29.2617 34.3694 29.1223C35.2982 28.938 36.1724 28.6049 36.8379 27.8908C37.7758 26.8843 37.9551 25.6477 37.834 24.3452C37.7042 22.9487 36.8766 22.1205 35.583 21.7015C35.4651 21.6633 35.3467 21.6269 35.1599 21.5681C35.2407 21.5241 35.2679 21.5095 35.295 21.4945C36.7742 20.6821 37.0283 19.0801 36.6071 17.6825C36.2671 16.5543 35.3972 15.9595 34.3323 15.6408C33.6483 15.4361 32.9354 15.3279 32.1887 15.1663V12.1701H30.3068V15.1468H28.8158V12.1665H26.937V15.2404H23.1714V17.2283C23.4412 17.2283 23.6872 17.2256 23.933 17.2289C24.191 17.2325 24.4498 17.2319 24.7068 17.2508C25.2283 17.2891 25.5959 17.6627 25.5968 18.1733C25.6012 20.9271 25.6007 23.6809 25.597 26.4347C25.5964 26.8583 25.3899 27.0988 24.9603 27.1385C24.5655 27.1751 24.1651 27.1473 23.7688 27.1732C23.6726 27.1795 23.5148 27.2724 23.5006 27.3475C23.373 28.016 23.2712 28.6895 23.1552 29.4024H26.963V32.506H28.8275V29.4672H30.3307V32.5147H32.192L32.1922 29.4507ZM31.3634 27.0977C32.0484 27.0399 32.725 26.8965 33.3228 26.522C34.3863 25.8556 34.438 24.3956 33.4054 23.6856C33.12 23.4895 32.7782 23.3528 32.4428 23.2565C31.3323 22.938 30.1886 22.9941 29.05 23.0047C28.8044 23.0069 28.8486 23.1743 28.8484 23.3181C28.8471 24.5005 28.8472 25.6829 28.8486 26.8653C28.8486 26.9589 28.8616 27.0524 28.8732 27.208C29.7179 27.1735 30.5432 27.1671 31.3634 27.0977ZM28.8731 21.0775C29.5631 21.0775 30.2336 21.1303 30.8912 21.0605C31.404 21.0061 31.9279 20.8597 32.398 20.6465C33.0924 20.3316 33.363 19.6797 33.233 18.9324C33.0956 18.1439 32.5404 17.7823 31.8446 17.5751C30.8788 17.2875 29.8879 17.3524 28.8731 17.3787V21.0775Z" fill="#0047FF"/>
</g>
<defs>
<clipPath id="clip0_1012_1695">
<rect width="60.8243" height="68.146" fill="white" transform="translate(10 6)"/>
</clipPath>
</defs>
</svg>
