<svg width="80" height="80" viewBox="0 0 80 80" fill="none" xmlns="http://www.w3.org/2000/svg">
<g clip-path="url(#clip0_1012_1688)">
<path d="M40.0884 69.9963C32.3002 69.9968 24.5121 69.998 16.724 69.9963C12.7782 69.9954 10.0063 67.2309 10.0035 63.2968C10.0016 60.5212 9.99593 57.7457 10.0051 54.9703C10.0168 51.3507 12.8586 48.523 16.4889 48.5084C17.787 48.5031 19.0856 48.4861 20.3825 48.5239C20.674 48.5323 21.0385 48.6729 21.2362 48.88C25.4954 53.3426 30.6397 56.1127 36.7796 56.8473C45.4998 57.8907 52.889 55.1292 58.977 48.8224C59.1065 48.6883 59.2968 48.5214 59.4574 48.5228C61.2891 48.54 63.1438 48.4176 64.9468 48.6641C67.9299 49.0719 70.1518 51.8197 70.1681 54.8361C70.1841 57.7905 70.1873 60.7453 70.1671 63.6997C70.1439 67.1095 67.2727 69.9834 63.8552 69.9903C55.9329 70.0064 48.0107 69.9957 40.0884 69.9963ZM40.0866 59.2497C35.7666 59.2497 31.4465 59.2497 27.1266 59.2497C25.7387 59.2497 24.3507 59.2332 22.9633 59.2557C21.7092 59.2761 20.7462 60.2312 20.7476 61.4034C20.7492 62.5768 21.7097 63.5076 22.9669 63.5517C23.1234 63.5572 23.2801 63.5535 23.4369 63.5535C34.539 63.5535 45.6412 63.5535 56.7434 63.5531C56.9672 63.5531 57.1926 63.5653 57.4144 63.5424C58.9756 63.3822 59.8854 61.7845 59.174 60.436C58.7189 59.5732 57.9576 59.2462 57.0081 59.2471C51.3675 59.2525 45.7273 59.2497 40.0866 59.2497Z" fill="#0047FF"/>
<path d="M18.3047 33.327C18.3047 32.3062 18.3047 31.2856 18.3047 30.2648C18.3316 30.1557 18.3739 30.0479 18.383 29.9374C18.6809 26.3271 19.8357 23.0127 21.7909 19.9666C26.7135 12.2969 36.1272 8.47929 44.9977 10.5642C56.0007 13.1503 63.2336 23.6298 61.6704 34.7792C60.9439 39.9612 58.6217 44.34 54.7652 47.878C51.6766 50.7117 48.0529 52.5023 43.9185 53.2341C43.1554 53.3692 42.3846 53.4602 41.6173 53.5716H38.5544C38.0661 53.5084 37.5768 53.4521 37.0895 53.3806C32.8543 52.758 29.0859 51.0904 25.8547 48.275C21.9849 44.9031 19.5617 40.6896 18.644 35.6294C18.5055 34.8665 18.4164 34.0947 18.3047 33.327ZM42.1334 40.9022C43.1335 40.7546 44.0761 40.6532 45.0024 40.4695C46.2263 40.2266 47.3784 39.7877 48.2553 38.8467C49.4912 37.5203 49.7275 35.8909 49.568 34.1745C49.3968 32.3342 48.3063 31.2429 46.6016 30.6907C46.4463 30.6404 46.2903 30.5924 46.0441 30.515C46.1506 30.457 46.1864 30.4377 46.2221 30.418C48.1713 29.3474 48.5062 27.2364 47.9512 25.3947C47.5031 23.9079 46.3569 23.1241 44.9536 22.7042C44.0522 22.4345 43.1127 22.2918 42.1288 22.0789V18.1307H39.649V22.0532H37.6841V18.126H35.2083V22.1766H30.2462V24.7961C30.6018 24.7961 30.926 24.7926 31.2498 24.797C31.5898 24.8017 31.9308 24.8008 32.2695 24.8258C32.9567 24.8762 33.4411 25.3685 33.4424 26.0414C33.4481 29.6702 33.4474 33.2991 33.4425 36.9279C33.4418 37.4861 33.1697 37.803 32.6036 37.8554C32.0833 37.9035 31.5557 37.867 31.0335 37.9011C30.9066 37.9093 30.6988 38.0318 30.68 38.1307C30.5118 39.0117 30.3778 39.8991 30.2249 40.8386H35.2426V44.9284H37.6996V40.924H39.6804V44.9398H42.1332L42.1334 40.9022ZM41.0412 37.8016C41.944 37.7254 42.8355 37.5365 43.6233 37.0429C45.0247 36.1648 45.0929 34.2409 43.7321 33.3053C43.3561 33.0468 42.9056 32.8667 42.4637 32.7399C41.0003 32.3201 39.4931 32.3941 37.9928 32.408C37.6692 32.4109 37.7273 32.6315 37.7272 32.821C37.7254 34.3791 37.7256 35.9373 37.7273 37.4954C37.7273 37.6187 37.7446 37.7419 37.7598 37.9469C38.8729 37.9014 39.9605 37.893 41.0412 37.8016ZM37.7597 29.8684C38.6689 29.8684 39.5525 29.938 40.4191 29.8461C41.0948 29.7744 41.7851 29.5815 42.4047 29.3005C43.3197 28.8855 43.6762 28.0265 43.5049 27.0417C43.3239 26.0026 42.5923 25.5261 41.6753 25.2531C40.4027 24.8741 39.0969 24.9597 37.7597 24.9943V29.8684Z" fill="#0047FF"/>
</g>
<defs>
<clipPath id="clip0_1012_1688">
<rect width="60.1813" height="60" fill="white" transform="translate(10 10)"/>
</clipPath>
</defs>
</svg>
