<svg width="80" height="80" viewBox="0 0 80 80" fill="none" xmlns="http://www.w3.org/2000/svg">
<g clip-path="url(#clip0_1012_1707)">
<path d="M24.4693 26.7422H55.8714C55.8714 26.9925 55.8714 27.2387 55.8714 27.485C55.8714 39.1201 55.8734 50.755 55.8704 62.3901C55.8693 66.418 52.9635 69.3331 48.9493 69.336C43.0862 69.3404 37.223 69.341 31.3599 69.3358C27.3954 69.3323 24.4719 66.4015 24.4707 62.4277C24.4672 50.7693 24.4695 39.1109 24.4695 27.4526C24.4695 27.243 24.4693 27.0333 24.4693 26.7422ZM37.9243 48.126C37.7758 48.0406 37.7295 48.0254 37.6987 47.9948C36.8536 47.1545 36.0143 46.3084 35.1654 45.472C34.1263 44.4482 32.7955 44.3938 31.8636 45.3272C30.9316 46.2606 30.9844 47.5946 32.0139 48.6286C34.1406 50.7652 36.2727 52.8961 38.4079 55.0241C39.5527 56.1652 40.7966 56.1547 41.9605 55.0009C42.8898 54.0796 43.8121 53.1511 44.7373 52.2255C45.9598 51.0025 47.187 49.7841 48.4026 48.5542C49.0927 47.856 49.2777 47.0186 48.9302 46.1058C48.611 45.2672 47.9565 44.8082 47.0683 44.721C46.325 44.6481 45.7042 44.9256 45.1831 45.4588C44.3114 46.3508 43.429 47.2322 42.4165 48.254C42.4165 47.7917 42.4165 47.5424 42.4165 47.2932C42.4163 44.2082 42.4277 41.1233 42.4105 38.0385C42.4029 36.6821 41.3926 35.6638 40.1416 35.6842C38.9012 35.7045 37.9552 36.6915 37.9287 38.0221C37.9104 38.9331 37.9246 39.8449 37.9246 40.7564C37.9246 43.1818 37.9243 45.6074 37.9243 48.126Z" fill="#0047FF"/>
<path d="M19.9491 26.7506V37.8338C15.9175 38.3829 12.7492 37.0525 11.3825 33.3646C11.137 32.7022 11.028 31.9537 11.023 31.2437C10.9917 26.7345 10.9976 22.2248 11.01 17.7155C11.0204 13.9816 13.9981 11.0076 17.7427 11.0058C32.6934 10.9982 47.6442 10.998 62.5949 11.0058C66.3408 11.0078 69.3141 13.9778 69.3256 17.7167C69.3393 22.226 69.3411 26.7357 69.3249 31.245C69.3119 34.9367 66.3286 37.8953 62.6276 37.9217C61.9057 37.9269 61.1837 37.9225 60.4114 37.9225V26.7537C60.5673 26.7086 60.7422 26.6587 60.9168 26.6074C61.9761 26.2954 62.6828 25.3289 62.5945 24.3134C62.4976 23.1983 61.6304 22.3358 60.4893 22.2255C60.327 22.2099 60.1625 22.2166 59.999 22.2166C46.777 22.2163 33.5548 22.2184 20.3328 22.2119C19.3509 22.2114 18.5343 22.4926 18.0309 23.3843C17.3433 24.6025 17.9492 26.129 19.2839 26.5729C19.4827 26.639 19.6892 26.6818 19.9491 26.7506Z" fill="#0047FF"/>
</g>
<defs>
<clipPath id="clip0_1012_1707">
<rect width="58.3366" height="58.3381" fill="white" transform="translate(11 11)"/>
</clipPath>
</defs>
</svg>
