<svg width="151" height="151" viewBox="0 0 151 151" fill="none" xmlns="http://www.w3.org/2000/svg">
<g clip-path="url(#clip0_1012_2318)">
<g clip-path="url(#clip1_1012_2318)">
<path d="M4.78789 144.888C2.87546 144.888 1.76802 144.383 1 143.152V129.679C1.65182 128.372 2.59237 127.788 4.03795 127.788L4.083 127.788C4.74528 127.788 5.4944 127.203 5.86799 126.652C8.48495 122.791 10.7291 119.389 12.7288 116.251C13.5423 114.974 14.5243 114.43 16.0121 114.43C25.1038 114.446 34.1847 114.454 43.2661 114.454C52.3474 114.454 61.4279 114.446 70.5092 114.43C72.0485 114.43 73.0381 114.96 73.8286 116.201C75.0663 118.144 76.3575 120.097 77.6065 121.985C78.6089 123.501 79.6456 125.068 80.6473 126.62C81.213 127.497 81.8596 127.859 82.8794 127.873C84.6531 127.896 85.5602 128.821 85.5756 130.624C85.6073 134.509 85.6073 138.361 85.5747 142.072C85.5602 143.728 84.6338 144.715 82.965 144.85C82.7953 144.863 82.6248 144.867 82.4539 144.867L81.8202 144.861L52.4483 144.86C38.1769 144.86 21.3561 144.863 4.8044 144.888L4.78789 144.888ZM6.10883 139.622H80.4281V133.079H6.10883V139.622ZM19.6492 119.331C18.4629 119.331 17.5787 119.514 16.867 119.908C15.4769 120.676 14.5866 122.277 13.7253 123.826C13.3726 124.461 13.0075 125.118 12.6198 125.691C12.4212 125.985 12.2503 126.283 12.0525 126.628C11.9572 126.795 11.8559 126.972 11.7432 127.162L11.3705 127.791H75.3422L74.9179 127.145C74.4913 126.495 74.0731 125.872 73.6658 125.264C72.7381 123.881 71.8619 122.574 71.0665 121.23C70.3544 120.026 69.4757 119.535 68.0334 119.535C59.6272 119.566 51.2934 119.572 41.3589 119.572L23.8605 119.573C23.1978 119.573 22.4845 119.512 21.7945 119.454C21.0835 119.393 20.3489 119.331 19.6492 119.331Z" fill="#2155FF"/>
<path d="M133.626 144.848C132.906 144.848 132.15 144.41 131.175 143.425C121.942 134.099 112.71 124.771 103.478 115.444L93.1727 105.031C90.5569 102.388 90.5296 101.783 92.9089 99.1371L93.1767 98.8392L88.9304 94.6769L88.8894 94.3278L88.5174 94.3259C88.392 94.3259 88.252 94.3812 88.1523 94.4701C86.7771 95.6994 86.0139 96.1564 85.3359 96.1564C84.6411 96.1564 83.8916 95.6602 82.5706 94.3254C80.3843 92.1164 78.1988 89.9068 76.0154 87.6954C74.0474 85.7018 74.0249 84.7725 75.8951 82.7232C76.0286 82.5765 76.1413 82.4181 76.2233 82.3024L76.2953 82.2027L76.5108 81.9175L71.6388 76.8572L71.3445 77.1892C71.0228 77.552 70.7067 77.9175 70.3914 78.2822C69.7231 79.0554 69.0319 79.8548 68.3145 80.5905C65.1318 83.8558 62.1691 86.8457 59.2566 89.7313C58.581 90.4001 58.2417 91.0447 58.6353 92.1899C59.914 95.9148 58.5195 99.9946 55.2439 102.111C53.867 103.001 52.2892 103.471 50.6815 103.472C48.5097 103.472 46.4585 102.615 44.906 101.059C34.9267 91.0573 25.1566 81.1819 15.8678 71.7069C13.1371 68.9213 12.7502 64.6256 14.9268 61.2602C16.4854 58.8504 19.0835 57.4117 21.8769 57.4117C22.8098 57.4117 23.7371 57.5726 24.6326 57.8898C24.9752 58.011 25.2764 58.0699 25.5531 58.0699C26.2689 58.0699 26.763 57.669 27.1901 57.236C39.9937 44.2646 52.4645 31.6664 64.2565 19.7913C64.9553 19.0876 65.306 18.4073 64.897 17.1916C63.6593 13.515 65.0398 9.48232 68.2538 7.38445C69.6415 6.47869 71.2311 6 72.8504 6C74.984 6 77.0316 6.83043 78.6159 8.33858C80.3245 9.9655 81.9506 11.6467 83.6041 13.3695C84.7437 14.5559 84.8125 16.1146 83.7714 17.1595C83.2889 17.644 82.7042 17.9002 82.0813 17.9002C81.3692 17.9002 80.6586 17.5742 80.0265 16.9576C79.2026 16.1534 78.3803 15.3167 77.5849 14.5074C76.9065 13.8175 76.2286 13.1276 75.5406 12.4479C74.6615 11.579 73.6961 11.1199 72.7491 11.1199C71.9497 11.1199 71.1837 11.4509 70.5331 12.077C69.8555 12.7292 69.492 13.5242 69.4816 14.376C69.4695 15.3677 69.9299 16.3646 70.813 17.2588C79.846 26.4027 89.2687 35.923 98.8193 45.5553C99.7264 46.47 100.713 46.9535 101.673 46.9535C102.491 46.9535 103.272 46.6003 103.933 45.9322C105.401 44.4476 105.266 42.5164 103.572 40.7662C102.897 40.0694 102.213 39.3822 101.529 38.6949C100.764 37.9268 99.9734 37.1326 99.211 36.3387C98.5455 35.6454 98.2 34.8903 98.2129 34.1553C98.2238 33.5361 98.4968 32.9492 99.0027 32.4583C99.4756 31.9989 100.051 31.756 100.667 31.756C101.389 31.756 102.134 32.0974 102.764 32.717C104.089 34.0206 105.83 35.7479 107.539 37.5493C110.339 40.5006 110.795 44.7461 108.674 48.1139C107.107 50.6014 104.527 52.028 101.595 52.0282C100.636 52.0282 99.6638 51.8733 98.7064 51.5676C98.521 51.5085 98.299 51.4775 98.0642 51.4775C97.8643 51.4775 97.1828 51.5071 96.7975 51.8887C93.2602 55.3956 89.7042 59.0013 86.265 62.4879L84.3875 64.3913C84.2818 64.4983 84.2387 64.6199 84.2038 64.7176C84.1937 64.7457 84.1832 64.7761 84.1692 64.8076L84.0501 65.0767L88.3121 69.1555L88.3419 69.4719L88.7283 69.4753C88.8454 69.4753 89.0118 69.428 89.1268 69.2956C90.114 68.1652 90.9657 67.6386 91.8069 67.6386C92.7185 67.6386 93.6952 68.2485 94.8807 69.5582C96.2603 71.082 97.7441 72.5481 99.1788 73.9658C99.8641 74.6427 100.549 75.3196 101.226 76.0046C103.268 78.0723 103.288 78.9762 101.345 81.0948C101.251 81.1966 101.167 81.3061 101.068 81.4338L100.918 81.6259L100.697 81.9031L101.828 83.1584L105.077 86.7523C105.077 86.7523 105.68 86.2214 105.794 86.1217C106.003 85.9401 106.147 85.8142 106.285 85.6814C107.174 84.8286 107.897 84.4314 108.559 84.4314C109.24 84.4314 109.978 84.8552 110.88 85.7652C114.046 88.9582 117.208 92.1548 120.37 95.3512L125.56 100.597C125.56 100.597 144.744 119.973 149.405 124.682C151.529 126.828 151.53 127.814 149.412 129.956C144.971 134.446 140.531 138.935 136.085 143.42C135.106 144.408 134.347 144.848 133.626 144.848ZM97.7069 102.118L133.583 138.383L144.41 127.392L108.559 91.1702L97.7069 102.118ZM21.9653 62.4596C21.4149 62.4596 20.905 62.6319 20.4498 62.9716C19.8635 63.4099 19.426 64.022 18.9636 64.67C18.7512 64.9674 18.5317 65.2746 18.2864 65.5823L18.095 65.8226L18.2671 66.0772C18.5108 66.4384 18.7215 66.7822 18.9202 67.1057C19.3343 67.7797 19.6918 68.362 20.1792 68.8567C27.9697 76.7705 35.9146 84.7922 43.5982 92.5498L47.8694 96.8629C48.1521 97.1505 48.4445 97.4478 48.7882 97.6916C49.3584 98.0955 50.0251 98.309 50.7159 98.3092C51.6147 98.3092 52.4575 97.9531 53.0884 97.3067C54.236 96.1308 54.3655 94.3036 53.3968 92.962C53.1282 92.5904 52.8077 92.2685 52.4977 91.9572L52.3613 91.8203C43.5478 82.9129 34.7323 74.0075 25.9148 65.1043C25.7817 64.9698 25.6494 64.834 25.5171 64.6977C25.0294 64.1959 24.5247 63.6768 23.9642 63.2275C23.3373 62.7253 22.6461 62.4596 21.9653 62.4596ZM92.4823 90.1943L96.8609 94.6844L101.525 90.3515L97.1468 85.8234L92.4823 90.1943ZM81.0011 85.2357L85.241 89.65L96.1519 78.6861L91.8875 74.232L81.0011 85.2357ZM30.1926 61.8034L54.8043 86.6492L93.377 47.6695L68.7701 22.8263L30.1926 61.8034ZM75.6148 73.3354L80.2568 78.019L84.8015 73.4359L80.1639 68.7813L75.6148 73.3354Z" fill="#2155FF"/>
<path d="M91.3783 27.3823C90.7317 27.3823 90.0827 27.0998 89.5973 26.6071C89.1152 26.1173 88.8406 25.4645 88.8438 24.8161C88.8502 23.4708 89.9866 22.3122 91.3248 22.2858L91.3779 22.2852C92.0538 22.2852 92.6811 22.5431 93.1436 23.0116C93.6132 23.4873 93.871 24.1359 93.869 24.838C93.8649 26.2334 92.7933 27.3508 91.4298 27.3819L91.3783 27.3823Z" fill="#2155FF"/>
</g>
</g>
<defs>
<clipPath id="clip0_1012_2318">
<rect width="150" height="150" fill="white" transform="translate(0.65625 0.308594)"/>
</clipPath>
<clipPath id="clip1_1012_2318">
<rect width="150" height="138.889" fill="white" transform="translate(1 6)"/>
</clipPath>
</defs>
</svg>
