<svg width="151" height="151" viewBox="0 0 151 151" fill="none" xmlns="http://www.w3.org/2000/svg">
<g clip-path="url(#clip0_1012_2293)">
<g clip-path="url(#clip1_1012_2293)">
<path d="M72.552 151C71.5113 150.751 70.4646 150.523 69.4307 150.248C59.2989 147.556 52.5894 138.815 52.5424 128.159C52.5023 119.078 52.4735 109.996 52.5722 100.916C52.5994 98.4094 51.6182 96.8303 49.5057 95.5576C47.072 94.0914 44.7749 92.3932 42.4823 90.7105C41.0689 89.6731 40.8803 88.3956 41.7863 87.3206C42.6356 86.313 43.8455 86.3375 45.1984 87.2856C47.6089 88.9747 50.0172 90.6712 52.4914 92.2658C55.4022 94.1418 57.0071 96.6686 56.9742 100.163C56.9457 103.182 56.9682 106.202 56.9682 109.338H67.4528C66.5481 104.508 65.6577 99.7251 64.7552 94.9446C64.0133 91.0146 63.2656 87.0855 62.4956 83.1609C62.4062 82.7051 62.2886 82.0981 61.9632 81.8699C59.8726 80.4031 58.4984 78.4491 57.751 76.0452C48.8177 80.1617 39.9872 72.8773 41.9974 63.6609C36.5123 60.9121 33.2903 56.5263 33.2813 50.3437C33.2722 44.1518 36.5111 39.7768 41.9864 37.0032C40.0138 27.4368 49.0536 20.6254 57.6338 24.6309C60.3939 16.3644 69.8682 14.9407 75.1949 20.7502C77.9269 17.9741 81.1979 16.5444 85.1478 17.4556C89.0307 18.3513 91.47 20.8612 92.6993 24.6924C96.8738 22.8589 100.898 22.9176 104.538 25.7359C108.2 28.5709 109.287 32.4006 108.41 36.9732C113.838 39.7213 117.124 44.0687 117.148 50.2511C117.172 56.4401 113.987 60.8451 108.49 63.6291C109.362 74.0081 102.253 79.6268 92.6898 75.9745C91.965 78.4275 90.5659 80.4286 88.4155 81.8906C88.1759 82.0535 88.0424 82.461 87.9823 82.7778C86.3101 91.5927 84.6536 100.411 82.9722 109.347H93.4604C93.4604 106.385 93.3776 103.464 93.4949 100.552C93.5547 99.0685 93.7718 97.5267 94.2786 96.1406C95.0351 94.0714 96.8593 92.897 98.7176 91.8174C106.57 87.2553 112.617 80.9756 116.809 72.9738C126.093 55.2522 122.734 33.4434 108.56 19.2427C106.921 17.6006 106.654 16.2675 107.761 15.2461C108.829 14.2603 110.072 14.5468 111.68 16.149C135.15 39.5356 129.916 78.7749 101.041 95.5201C98.7594 96.8432 97.8187 98.4544 97.8525 101.063C97.965 109.752 97.8963 118.443 97.8948 127.133C97.8925 139.852 90.827 148.354 78.2482 150.787C78.1158 150.812 78.001 150.927 77.878 151L72.552 151ZM77.6042 58.1492C77.6042 63.8274 77.4525 69.3729 77.6766 74.9035C77.7703 77.214 80.2883 78.9426 82.7263 79.0494C85.2451 79.1597 87.5491 77.6322 88.2057 75.2218C88.4945 74.1615 88.4939 73.0061 88.5005 71.8931C88.5078 70.6831 88.703 69.6272 89.9946 69.1635C91.3026 68.694 92.1032 69.424 92.8674 70.3637C94.5744 72.4625 96.8185 73.2456 99.4543 72.6083C102.931 71.7676 104.972 68.3275 104.116 64.9291C103.285 61.6295 99.9174 59.6071 96.4641 60.333C94.531 60.7393 93.3717 60.2047 93.0722 58.7686C92.7974 57.4508 93.6856 56.4451 95.5052 56.0568C99.2486 55.2579 102.588 56.1145 105.316 58.7527C106.246 59.6523 106.895 59.5655 107.812 58.976C111.305 56.73 113.067 53.536 112.682 49.4482C112.28 45.1831 109.895 42.2401 105.781 40.7816C103.092 39.8281 102.899 39.2294 103.755 36.5831C104.169 35.3026 104.267 33.763 103.982 32.4529C103.373 29.653 100.77 27.8598 97.8815 27.8775C94.8988 27.8958 92.4592 29.7733 91.7206 32.6189C90.9819 35.4649 92.2247 38.2093 94.9678 39.7891C96.5577 40.7048 97.0555 41.8996 96.3502 43.1067C95.6814 44.2512 94.3907 44.4475 92.8398 43.6406C87.7686 41.0018 85.704 34.9637 88.0715 29.6947C89.0079 27.6107 88.5494 24.9532 86.9694 23.3064C85.4061 21.677 83.089 21.1196 81.0028 21.9664C78.6594 22.9175 77.4632 24.7138 77.4552 27.2085C77.4314 34.6775 77.4106 42.1468 77.4629 49.6154C77.4853 52.8067 79.7396 55.1174 82.7118 55.2223C85.8153 55.332 88.1709 53.2046 88.5111 49.9851C88.6814 48.3725 89.5519 47.497 90.8884 47.5942C92.2132 47.6905 93.0023 48.7351 92.9363 50.305C92.7611 54.4746 89.6264 58.2544 85.4894 59.3122C82.7268 60.0186 80.1335 59.5242 77.6042 58.1492ZM72.9895 58.1345C72.3278 58.4204 71.8451 58.6331 71.3591 58.8382C64.9905 61.526 57.6582 56.9655 57.4888 50.2119C57.4514 48.7216 58.216 47.7193 59.4841 47.5961C60.7783 47.4704 61.7399 48.3381 61.9081 49.7835C62.3151 53.2814 64.5915 55.3783 67.8088 55.2188C70.8674 55.0671 72.9691 52.6773 72.9806 49.2291C73.0048 42.004 73.0083 34.7787 72.964 27.5538C72.9582 26.6032 72.794 25.579 72.4077 24.7191C71.1813 21.9894 67.9077 20.8544 65.1733 22.0897C62.4315 23.3283 61.0592 26.8314 62.263 29.5186C64.792 35.164 62.4733 41.6159 57.1041 43.8733C55.7951 44.4237 54.5925 44.0929 54.0272 43.0269C53.462 41.9613 53.8629 40.7348 55.0186 40.0244C55.3527 39.819 55.718 39.6615 56.0438 39.4449C58.8675 37.5677 59.7447 33.9334 58.0792 31.0475C56.3811 28.1049 52.6677 27.0096 49.6103 28.5494C46.6194 30.0557 45.3568 33.5574 46.6822 36.67C47.683 39.0201 47.2697 39.8738 44.8372 40.7072C40.6597 42.1384 38.1794 45.0599 37.751 49.3931C37.3407 53.543 39.1414 56.7557 42.6921 59.0292C43.6197 59.6232 44.198 59.6178 45.0634 58.7884C48.0306 55.9454 51.6105 55.1561 55.5825 56.2128C56.9404 56.5741 57.6161 57.693 57.3251 58.8528C57.0197 60.0696 56.003 60.6792 54.5937 60.4747C54.3028 60.4325 54.023 60.3161 53.7322 60.273C51.1813 59.8954 49.0202 60.6313 47.4469 62.6693C45.8702 64.7119 45.6831 67.0043 46.8203 69.2892C47.961 71.5809 49.918 72.7766 52.523 72.7961C54.7555 72.8128 56.493 71.8342 57.8104 70.0688C58.4527 69.2082 59.2971 68.7708 60.3822 69.1417C61.4424 69.504 61.915 70.3029 61.9089 71.3982C61.9056 71.984 61.9062 72.5699 61.9113 73.1557C61.9409 76.567 64.176 78.9882 67.3531 79.053C70.58 79.1187 72.9213 76.7093 72.9808 73.2091C73.0173 71.0617 72.9891 68.9132 72.9894 66.7652C72.9897 63.941 72.9895 61.117 72.9895 58.1345ZM57.0671 126.383C57.6962 126.383 58.2291 126.383 58.762 126.383C62.4586 126.383 66.1552 126.371 69.8517 126.39C71.4018 126.398 72.3134 127.189 72.3632 128.479C72.415 129.822 71.4588 130.748 69.8842 130.767C67.1738 130.799 64.4627 130.777 61.7519 130.777C60.2424 130.777 58.7329 130.777 57.2139 130.777C57.9404 139.545 66.1987 146.691 75.3145 146.604C84.4622 146.518 92.7063 139.275 93.1828 130.858C92.8959 130.831 92.6071 130.782 92.3182 130.781C88.3752 130.775 84.4321 130.796 80.4893 130.765C78.9932 130.753 78.06 129.854 78.0585 128.572C78.057 127.279 78.9825 126.425 80.4824 126.39C81.7139 126.362 82.9466 126.383 84.1788 126.383C87.2189 126.383 90.259 126.383 93.3599 126.383V113.948H57.067L57.0671 126.383ZM67.084 83.4783C68.7456 92.2694 70.361 100.816 71.9786 109.374H78.4544C80.0819 100.75 81.696 92.1972 83.3379 83.497C80.0003 83.432 77.3508 82.2239 75.2113 79.8341C73.0395 82.2291 70.438 83.4344 67.084 83.4783Z" fill="#2155FF"/>
<path d="M24 51.865C23.969 26.878 42.2174 5.54012 67.0574 1.66563C79.3941 -0.258627 90.9785 1.99557 101.722 8.34565C102.102 8.57005 102.504 8.78459 102.819 9.08326C103.616 9.8397 103.847 10.749 103.28 11.7342C102.72 12.7075 101.819 13.0436 100.756 12.7376C100.203 12.5782 99.6953 12.2385 99.1908 11.9406C70.4592 -5.03248 33.2995 12.6554 28.8527 45.5043C27.1745 57.9011 30.1871 69.2248 37.6336 79.3617C37.7206 79.4801 37.8151 79.5931 37.902 79.7116C38.9894 81.1942 38.9503 82.4811 37.7939 83.2986C36.6908 84.0783 35.4605 83.748 34.3928 82.3644C31.0446 78.0256 28.4816 73.2672 26.7054 68.1011C24.8644 62.7464 24.007 57.4825 24 51.865Z" fill="#2155FF"/>
</g>
</g>
<defs>
<clipPath id="clip0_1012_2293">
<rect width="150" height="150" fill="white" transform="translate(0.65625 0.796875)"/>
</clipPath>
<clipPath id="clip1_1012_2293">
<rect width="102.439" height="150" fill="white" transform="translate(24 1)"/>
</clipPath>
</defs>
</svg>
