<svg width="151" height="151" viewBox="0 0 151 151" fill="none" xmlns="http://www.w3.org/2000/svg">
<g clip-path="url(#clip0_1012_2305)">
<g clip-path="url(#clip1_1012_2305)">
<path d="M75.9395 150C74.9856 150 74.0445 149.842 73.1418 149.532C57.51 144.15 45.2458 136.781 35.648 127.001C25.9596 117.128 19.4853 105.219 15.8559 90.5921C13.2338 80.0252 12.0087 68.2644 12 53.5804C11.9984 51.0148 12.0595 48.4187 12.119 45.9078C12.1937 42.7297 12.2708 39.4436 12.2245 36.1943C12.1022 27.6332 18.3791 21.1007 27.1498 20.6612C34.6953 20.2833 41.9754 18.7638 48.7874 16.1445C55.493 13.5661 61.6514 9.86534 67.0918 5.14505C67.4385 4.84336 67.7823 4.53804 68.1261 4.23272C70.1525 2.43128 72.0394 0.753529 74.449 0H77.5717C79.9952 0.757829 81.8952 2.44597 83.9052 4.23235L83.9491 4.27108C84.2371 4.5271 84.5256 4.78312 84.8161 5.03668C93.7935 12.8746 104.495 17.8138 116.623 19.7172C118.675 20.039 120.751 20.2569 122.759 20.4675C123.952 20.5926 125.186 20.7223 126.391 20.8715C134.347 21.8572 139.705 27.7842 139.723 35.6201C139.728 37.6541 139.739 39.6887 139.749 41.7233C139.796 50.7111 139.845 59.979 139.369 69.0429C138.53 85.0579 134.97 98.6271 128.487 110.526C122.467 121.572 113.867 130.808 102.926 137.977C96.0525 142.48 88.4077 146.193 79.5542 149.329C78.2971 149.774 77.081 150 75.9395 150ZM76.015 5.80077C74.8133 5.80077 73.978 6.58143 72.8214 7.66174C63.4263 16.4356 52.3449 22.1469 39.8854 24.6365C37.0713 25.1989 34.1271 25.5397 31.2801 25.8691C29.5356 26.0709 27.7402 26.2786 25.9682 26.5364C21.0107 27.2574 18.0218 30.6546 17.9717 35.624C17.9327 39.5351 17.9418 43.5075 17.9504 47.3493C17.9541 49.0552 17.9578 50.7307 17.9578 52.4062C17.6542 66.7173 18.7193 78.3132 21.3094 88.89C25.2678 105.051 32.9356 117.75 44.7501 127.715C52.8528 134.548 62.5905 139.874 74.5199 143.997C74.9454 144.144 75.4217 144.219 75.9354 144.219C76.5857 144.219 77.2963 144.095 77.9359 143.871C85.4806 141.225 92.0673 138.116 98.0718 134.367C110.301 126.732 119.458 116.6 125.291 104.252C129.881 94.5336 132.564 83.5141 133.735 69.5734C134.684 58.2824 134.364 46.8357 134.055 35.7659L134.037 35.1234C133.913 30.6629 130.815 27.2311 126.329 26.5831C124.566 26.3285 122.776 26.1192 121.044 25.9168C118.076 25.5697 115.031 25.2135 112.117 24.631C99.6592 22.1408 88.5807 16.4264 79.1885 7.64642C78.0421 6.57488 77.2139 5.80077 76.015 5.80077Z" fill="#2155FF"/>
<path d="M75.979 111.558C55.72 111.455 39.2323 95.06 39.2266 75.0112C39.2208 54.9596 55.7089 38.5633 75.9806 38.4614L76.1665 38.4609C96.1719 38.4609 112.603 54.8314 112.794 74.9531C112.884 84.5343 109.096 93.6617 102.124 100.654C95.1134 107.686 85.8939 111.558 76.1653 111.559L75.979 111.558ZM75.9334 44.1244C67.521 44.1951 59.6382 47.5322 53.735 53.5212C47.9533 59.3868 44.8249 67.0614 44.9254 75.1313C45.1375 92.0959 58.9312 105.898 75.6737 105.899C75.8419 105.899 76.0065 105.898 76.1735 105.895C93.5498 105.61 107.124 92.0311 107.077 74.9823C107.031 57.9667 93.1748 44.1234 76.1903 44.1234H76.1886L75.9334 44.1244Z" fill="#2155FF"/>
<path d="M69.2263 90.1166C68.4751 90.1166 67.6976 89.7301 66.9156 88.9678C64.2951 86.4132 61.7608 83.8936 59.3832 81.4792C58.0826 80.159 57.9833 78.4293 59.1419 77.2728C59.6999 76.7157 60.3642 76.4213 61.0625 76.4213C61.8547 76.4213 62.6507 76.7858 63.3642 77.4756C64.3883 78.4656 65.3733 79.479 66.5135 80.6526L66.5689 80.7095C67.0953 81.2513 67.6483 81.8201 68.2424 82.4249L69.7392 83.948L70.8715 82.1412C71.0254 81.8958 71.1555 81.664 71.2761 81.448C71.4057 81.2152 71.553 80.9513 71.6416 80.8628C74.594 77.9111 77.5559 74.9672 80.5178 72.0235L80.9888 71.5553C83.2626 69.2954 85.5368 67.0351 87.8064 64.7714C88.6709 63.9094 89.434 63.5078 90.207 63.5078C90.4589 63.5078 90.7301 63.5492 91.0128 63.6305C91.9643 63.9048 92.6774 64.573 92.9683 65.4635C93.2596 66.3534 93.0782 67.3092 92.4714 68.0858C92.3659 68.2209 92.2449 68.3567 92.1116 68.4892L86.9174 73.6573C81.8631 78.6879 76.6369 83.8894 71.4595 89.0047C70.7132 89.7422 69.9619 90.1164 69.2263 90.1166Z" fill="#2155FF"/>
</g>
</g>
<defs>
<clipPath id="clip0_1012_2305">
<rect width="150" height="150" fill="white" transform="translate(0.65625 0.308594)"/>
</clipPath>
<clipPath id="clip1_1012_2305">
<rect width="127.778" height="150" fill="white" transform="translate(12)"/>
</clipPath>
</defs>
</svg>
