<svg width="40" height="40" viewBox="0 0 40 40" fill="none" xmlns="http://www.w3.org/2000/svg">
<rect x="0.5" y="0.5" width="39" height="39" rx="19.5" stroke="#1A1A1D"/>
<path d="M27.502 27.0644L21.6899 18.6206L21.0328 17.6657L16.8752 11.6256L16.5307 11.125H11.4219L12.6678 12.9356L18.1958 20.9676L18.8529 21.9215L23.2946 28.375L23.6392 28.875H28.748L27.502 27.0644ZM24.2464 27.7194L19.6319 21.0148L18.9748 20.0604L13.6201 12.2806H15.9235L20.2538 18.5723L20.9109 19.5267L26.5497 27.7194H24.2464Z" fill="#1A1A1D"/>
<path d="M18.9791 20.0586L19.6362 21.013L18.8572 21.9196L12.8802 28.8732H11.4062L18.2001 20.9657L18.9791 20.0586Z" fill="#1A1A1D"/>
<path d="M28.1369 11.125L21.6939 18.6206L20.9149 19.5267L20.2578 18.5723L21.0368 17.6657L25.4013 12.5858L26.663 11.125H28.1369Z" fill="#1A1A1D"/>
</svg>
